G04 DipTrace 4.3.0.5*
G04 BottomSilk.gbr*
%MOIN*%
G04 #@! TF.FileFunction,Legend,Bot*
G04 #@! TF.Part,Single*
%ADD161C,0.010807*%
%FSLAX26Y26*%
G04*
G70*
G90*
G75*
G01*
G04 BotSilk*
%LPD*%
X2869256Y884114D2*
D161*
X2839156D1*
X2829097Y887518D1*
X2825692Y890845D1*
X2822365Y897500D1*
Y904232D1*
X2825692Y910886D1*
X2829097Y914291D1*
X2839156Y917618D1*
X2869256D1*
Y847282D1*
X2845810Y884114D2*
X2822365Y847282D1*
X2747127D2*
X2773977Y917618D1*
X2800750Y847282D1*
X2790691Y870727D2*
X2757187D1*
X2678622Y907559D2*
X2685276Y914291D1*
X2695335Y917618D1*
X2708722D1*
X2718781Y914291D1*
X2725513Y907559D1*
Y900904D1*
X2722108Y894173D1*
X2718781Y890845D1*
X2712126Y887518D1*
X2692008Y880786D1*
X2685276Y877459D1*
X2681949Y874054D1*
X2678622Y867400D1*
Y857341D1*
X2685276Y850687D1*
X2695335Y847282D1*
X2708722D1*
X2718781Y850687D1*
X2725513Y857341D1*
X2657007Y880786D2*
X2626830D1*
X2616848Y884114D1*
X2613443Y887518D1*
X2610116Y894173D1*
Y904232D1*
X2613443Y910886D1*
X2616848Y914291D1*
X2626830Y917618D1*
X2657007D1*
Y847282D1*
X2588501Y917618D2*
Y847282D1*
X2558324D1*
X2548265Y850687D1*
X2544938Y854014D1*
X2541611Y860668D1*
Y870727D1*
X2544938Y877459D1*
X2548265Y880786D1*
X2558324Y884114D1*
X2548265Y887518D1*
X2544938Y890845D1*
X2541611Y897500D1*
Y904232D1*
X2544938Y910886D1*
X2548265Y914291D1*
X2558324Y917618D1*
X2588501D1*
Y884114D2*
X2558324D1*
X2476510Y917618D2*
X2519996D1*
Y847282D1*
X2476510D1*
X2519996Y884114D2*
X2493223D1*
X2454895D2*
X2424795D1*
X2414736Y887518D1*
X2411331Y890845D1*
X2408004Y897500D1*
Y904232D1*
X2411331Y910886D1*
X2414736Y914291D1*
X2424795Y917618D1*
X2454895D1*
Y847282D1*
X2431449Y884114D2*
X2408004Y847282D1*
X2386389Y884114D2*
X2356289D1*
X2346230Y887518D1*
X2342826Y890845D1*
X2339498Y897500D1*
Y904232D1*
X2342826Y910886D1*
X2346230Y914291D1*
X2356289Y917618D1*
X2386389D1*
Y847282D1*
X2362944Y884114D2*
X2339498Y847282D1*
X2317883Y917618D2*
X2291111Y884114D1*
Y847282D1*
X2264338Y917618D2*
X2291111Y884114D1*
X2174682Y880786D2*
X2144505D1*
X2134523Y884114D1*
X2131119Y887518D1*
X2127791Y894173D1*
Y904232D1*
X2131119Y910886D1*
X2134523Y914291D1*
X2144505Y917618D1*
X2174682D1*
Y847282D1*
X2106176Y917618D2*
Y847282D1*
X2016520Y917618D2*
X1969629D1*
X2016520Y847282D1*
X1969629D1*
X1904528Y917618D2*
X1948014D1*
Y847282D1*
X1904528D1*
X1948014Y884114D2*
X1921242D1*
X1882913D2*
X1852814D1*
X1842755Y887518D1*
X1839350Y890845D1*
X1836023Y897500D1*
Y904232D1*
X1839350Y910886D1*
X1842755Y914291D1*
X1852814Y917618D1*
X1882913D1*
Y847282D1*
X1859468Y884114D2*
X1836023Y847282D1*
X1794290Y917618D2*
X1801022Y914291D1*
X1807676Y907559D1*
X1811081Y900904D1*
X1814408Y890845D1*
Y874054D1*
X1811081Y864073D1*
X1807676Y857341D1*
X1801022Y850687D1*
X1794290Y847282D1*
X1780903D1*
X1774249Y850687D1*
X1767517Y857341D1*
X1764190Y864073D1*
X1760863Y874054D1*
Y890845D1*
X1764190Y900904D1*
X1767517Y907559D1*
X1774249Y914291D1*
X1780903Y917618D1*
X1794290D1*
X1671206D2*
Y847282D1*
X1624316Y917618D2*
Y847282D1*
X1671206Y884114D2*
X1624316D1*
X1602701Y917618D2*
Y867400D1*
X1599374Y857341D1*
X1592642Y850687D1*
X1582583Y847282D1*
X1575928D1*
X1565869Y850687D1*
X1559137Y857341D1*
X1555810Y867400D1*
Y917618D1*
X1534195D2*
Y847282D1*
X1504018D1*
X1493959Y850687D1*
X1490632Y854014D1*
X1487305Y860668D1*
Y870727D1*
X1490632Y877459D1*
X1493959Y880786D1*
X1504018Y884114D1*
X1493959Y887518D1*
X1490632Y890845D1*
X1487305Y897500D1*
Y904232D1*
X1490632Y910886D1*
X1493959Y914291D1*
X1504018Y917618D1*
X1534195D1*
Y884114D2*
X1504018D1*
X2343495Y756670D2*
X2313396D1*
X2303337Y760075D1*
X2299932Y763402D1*
X2296605Y770057D1*
Y776789D1*
X2299932Y783443D1*
X2303337Y786848D1*
X2313396Y790175D1*
X2343495D1*
Y719839D1*
X2320050Y756670D2*
X2296605Y719839D1*
X2231504Y790175D2*
X2274990D1*
Y719839D1*
X2231504D1*
X2274990Y756670D2*
X2248217D1*
X2209889Y790175D2*
X2183116Y719839D1*
X2156344Y790175D1*
X2013065Y719839D2*
X2039915Y790175D1*
X2066687Y719839D1*
X2056628Y743284D2*
X2023124D1*
X2468256Y645941D2*
Y649268D1*
X2464928Y656000D1*
X2461601Y659327D1*
X2454869Y662654D1*
X2441483D1*
X2434829Y659327D1*
X2431501Y656000D1*
X2428097Y649268D1*
Y642614D1*
X2431501Y635882D1*
X2438156Y625900D1*
X2471660Y592396D1*
X2424770D1*
X2383036Y662654D2*
X2393096Y659327D1*
X2399827Y649268D1*
X2403155Y632555D1*
Y622495D1*
X2399827Y605782D1*
X2393096Y595723D1*
X2383036Y592396D1*
X2376382D1*
X2366323Y595723D1*
X2359669Y605782D1*
X2356264Y622495D1*
Y632555D1*
X2359669Y649268D1*
X2366323Y659327D1*
X2376382Y662654D1*
X2383036D1*
X2359669Y649268D2*
X2399827Y605782D1*
X2331244Y645941D2*
Y649268D1*
X2327917Y656000D1*
X2324590Y659327D1*
X2317858Y662654D1*
X2304472D1*
X2297817Y659327D1*
X2294490Y656000D1*
X2291086Y649268D1*
Y642614D1*
X2294490Y635882D1*
X2301145Y625900D1*
X2334649Y592396D1*
X2287758D1*
X2259412Y662654D2*
X2222657D1*
X2242698Y635882D1*
X2232639D1*
X2225985Y632555D1*
X2222657Y629227D1*
X2219253Y619168D1*
Y612514D1*
X2222657Y602455D1*
X2229312Y595723D1*
X2239371Y592396D1*
X2249430D1*
X2259412Y595723D1*
X2262739Y599127D1*
X2266143Y605782D1*
X2197638Y627525D2*
X2158949D1*
X2137334Y649268D2*
X2130602Y652673D1*
X2120543Y662654D1*
Y592396D1*
X2078810Y662654D2*
X2088869Y659327D1*
X2095601Y649268D1*
X2098928Y632555D1*
Y622495D1*
X2095601Y605782D1*
X2088869Y595723D1*
X2078810Y592396D1*
X2072156D1*
X2062097Y595723D1*
X2055442Y605782D1*
X2052038Y622495D1*
Y632555D1*
X2055442Y649268D1*
X2062097Y659327D1*
X2072156Y662654D1*
X2078810D1*
X2055442Y649268D2*
X2095601Y605782D1*
X2030423Y627525D2*
X1991734D1*
X1970119Y649268D2*
X1963387Y652673D1*
X1953328Y662654D1*
Y592396D1*
X1915000Y662654D2*
X1924981Y659327D1*
X1928386Y652673D1*
Y645941D1*
X1924981Y639286D1*
X1918327Y635882D1*
X1904941Y632555D1*
X1894882Y629227D1*
X1888227Y622495D1*
X1884900Y615841D1*
Y605782D1*
X1888227Y599127D1*
X1891554Y595723D1*
X1901613Y592396D1*
X1915000D1*
X1924981Y595723D1*
X1928386Y599127D1*
X1931713Y605782D1*
Y615841D1*
X1928386Y622495D1*
X1921654Y629227D1*
X1911672Y632555D1*
X1898286Y635882D1*
X1891554Y639286D1*
X1888227Y645941D1*
Y652673D1*
X1891554Y659327D1*
X1901613Y662654D1*
X1915000D1*
M02*
