G04 DipTrace 4.3.0.5*
G04 3 - Power Plane.gbr*
%MOIN*%
G04 #@! TF.FileFunction,Copper,L3,Inr*
G04 #@! TF.Part,Single*
%ADD24C,0.047244*%
%ADD36C,0.074803*%
%ADD39C,0.07874*%
%ADD42C,0.055039*%
%ADD45C,0.063386*%
%ADD48C,0.057087*%
%ADD52C,0.064961*%
%ADD53C,0.2*%
%ADD61C,0.109252*%
G04 #@! TA.AperFunction,ViaPad*
%ADD16C,0.05*%
%ADD17C,0.04*%
G04 #@! TA.AperFunction,CopperBalancing*
%ADD18C,0.025*%
G04 #@! TA.AperFunction,ViaPad*
%ADD19C,0.1*%
%ADD22C,0.08*%
%ADD66C,0.06*%
%ADD67C,0.16*%
%FSLAX26Y26*%
G04*
G70*
G90*
G75*
G01*
G04 Inner2_Plane*
%LPD*%
D17*
X746461Y1766060D3*
Y2315069D3*
D22*
X1444221Y3605070D3*
X925730D3*
D17*
X2770310Y2784490D3*
X2330451Y3504090D3*
X2823581Y2782239D3*
X2771951Y2709420D3*
X2822230Y2703340D3*
X1432340Y3253300D3*
X2612210Y3504529D3*
X2257621Y3437780D3*
X1513721Y3253789D3*
X2402501Y3436430D3*
X2259280Y3701010D3*
X1593020Y3251570D3*
X1515201Y3149420D3*
X2683710Y3566949D3*
X1795491Y3491670D3*
X3406901Y3179529D3*
X1590801Y3150520D3*
X2613351Y3634949D3*
X2470541Y3636760D3*
X2471041Y3507680D3*
X1436650Y3147940D3*
X2402001Y3701910D3*
X1433161Y2879990D3*
X2542771Y3703120D3*
X1517210Y2880239D3*
X1596331Y2880899D3*
X2331810Y3635369D3*
X2258390Y3569250D3*
X1430310Y2773100D3*
X2403210Y3569239D3*
X2685161Y3699470D3*
X1514401Y2773819D3*
X2540340Y3569650D3*
X1596331Y2773810D3*
X1427541Y2507980D3*
X2685970Y3438210D3*
X1513741Y2506070D3*
X2329791Y3370060D3*
X1598020Y2509340D3*
X2470550Y3370060D3*
X1431431Y2396300D3*
X2611730Y3372490D3*
X2541150Y3436990D3*
X1514401Y2394999D3*
X1597371Y2397609D3*
X2326531Y1750550D3*
X2082611Y1747230D3*
D66*
X2452141Y2854960D3*
D17*
X1703131Y2707070D3*
X1763401Y2818030D3*
X2468791Y2928500D3*
X2348760Y2640090D3*
D19*
X2821130Y3223239D3*
D22*
X1255271Y3025060D3*
D16*
X1148291Y2360819D3*
X1147180Y2735630D3*
D17*
X1667176Y3400321D3*
X2661981Y3133730D3*
D16*
X2418360Y3027239D3*
D17*
X2349390Y2699940D3*
X1823235Y2432549D3*
X1819487Y2964171D3*
D19*
X2827801Y3338990D3*
D66*
X2875431Y2735520D3*
D17*
X2476911Y2737819D3*
X2329741Y2759960D3*
X2472428Y2674010D3*
X1780259Y2336919D3*
X1986701Y3140999D3*
D19*
X2213751Y3161899D3*
D17*
X2538230Y3019170D3*
X2570981Y2893130D3*
D67*
X3732661Y3484919D3*
D17*
X1335043Y1623210D3*
X3535783Y1828214D3*
X2425523D3*
X2875302Y1581541D3*
X1735802Y1168915D3*
X1141630Y3050529D3*
X1079351Y2747279D3*
X916130Y2399449D3*
X1975302Y1269002D3*
X3051550Y1665090D3*
X3305701Y2364750D3*
X3348351Y2311670D3*
X2283771Y1795239D3*
X2030911Y1818050D3*
X1475302Y1308502D3*
X1145581Y1478220D3*
X1046558Y1621041D3*
X1228279D3*
X3296787Y2864533D3*
X3312696Y2648683D3*
D16*
X849710Y2842319D3*
D22*
X586251Y3583880D3*
D16*
X979860Y3027499D3*
D19*
X3130680Y2953449D3*
X458818Y2866291D2*
D18*
X526519D1*
X581201D2*
X828216D1*
X3782250D2*
X3815108D1*
X458890Y2841422D2*
X497543D1*
X610177D2*
X930916D1*
X3472246D2*
X3671786D1*
X3797303D2*
X3815126D1*
X458961Y2816553D2*
X488590D1*
X619113D2*
X931239D1*
X3233204D2*
X3668951D1*
X3800156D2*
X3815143D1*
X459051Y2791684D2*
X490169D1*
X617552D2*
X931562D1*
X3052401D2*
X3676397D1*
X3792692D2*
X3815143D1*
X459123Y2766815D2*
X503266D1*
X604454D2*
X931885D1*
X2924295D2*
X3700852D1*
X3768255D2*
X3815161D1*
X459195Y2741947D2*
X497884D1*
X609854D2*
X932226D1*
X2690814D2*
X2737021D1*
X2933499D2*
X3815179D1*
X459266Y2717078D2*
X488679D1*
X619059D2*
X932549D1*
X2520400D2*
X2724157D1*
X2930736D2*
X3815197D1*
X459356Y2692209D2*
X490043D1*
X617695D2*
X932872D1*
X2215779D2*
X2301620D1*
X2397174D2*
X2468966D1*
X2484857D2*
X2726866D1*
X2913332D2*
X3815215D1*
X459428Y2667340D2*
X502836D1*
X604902D2*
X933195D1*
X2215905D2*
X2309282D1*
X2388239D2*
X2751034D1*
X2853262D2*
X3815233D1*
X459500Y2642472D2*
X933518D1*
X2216031D2*
X2300382D1*
X2397138D2*
X3815233D1*
X459572Y2617603D2*
X522213D1*
X584843D2*
X933859D1*
X2216156D2*
X2306213D1*
X2391307D2*
X3815251D1*
X459661Y2592734D2*
X496107D1*
X610949D2*
X934182D1*
X2216282D2*
X3713053D1*
X3751300D2*
X3815269D1*
X459733Y2567865D2*
X488051D1*
X619005D2*
X1799834D1*
X2216102D2*
X3677725D1*
X3786610D2*
X3815287D1*
X459805Y2542997D2*
X490366D1*
X616690D2*
X1395311D1*
X1459771D2*
X1483927D1*
X1543561D2*
X1564254D1*
X1631782D2*
X3667372D1*
X3796980D2*
X3815305D1*
X459877Y2518128D2*
X504594D1*
X602462D2*
X1380240D1*
X1645598D2*
X3667785D1*
X3796550D2*
X3815323D1*
X459966Y2493259D2*
X496412D1*
X610644D2*
X1381532D1*
X1643552D2*
X3679268D1*
X3785067D2*
X3815323D1*
X460038Y2468390D2*
X488105D1*
X618951D2*
X1401753D1*
X1453330D2*
X1484968D1*
X1542502D2*
X1574714D1*
X1621322D2*
X1792011D1*
X1854462D2*
X3678102D1*
X3786233D2*
X3815341D1*
X460110Y2443522D2*
X490205D1*
X616852D2*
X900684D1*
X931574D2*
X1776132D1*
X1870340D2*
X3667462D1*
X3796873D2*
X3815359D1*
X460199Y2418653D2*
X504110D1*
X602947D2*
X871905D1*
X960353D2*
X1388798D1*
X1640699D2*
X1776958D1*
X1869515D2*
X3667677D1*
X3796657D2*
X3815377D1*
X460271Y2393784D2*
X868047D1*
X964211D2*
X1106964D1*
X1189617D2*
X1383075D1*
X1645652D2*
X1796102D1*
X1850371D2*
X3267605D1*
X3343799D2*
X3678873D1*
X3785461D2*
X3815395D1*
X460343Y2368915D2*
X518481D1*
X590172D2*
X879315D1*
X952943D2*
X1095499D1*
X1201082D2*
X1392046D1*
X1635747D2*
X3257449D1*
X3353954D2*
X3678479D1*
X3785856D2*
X3815413D1*
X460415Y2344046D2*
X495497D1*
X613138D2*
X708327D1*
X784593D2*
X1097706D1*
X1198875D2*
X3262204D1*
X3383433D2*
X3667570D1*
X3796783D2*
X3815413D1*
X460504Y2319178D2*
X488626D1*
X620028D2*
X698207D1*
X794712D2*
X1116455D1*
X1180126D2*
X3297460D1*
X3396172D2*
X3667570D1*
X3796765D2*
X3815431D1*
X460576Y2294309D2*
X491981D1*
X616655D2*
X702980D1*
X789939D2*
X3303327D1*
X3393373D2*
X3678497D1*
X3785856D2*
X3815449D1*
X460648Y2269440D2*
X507895D1*
X600740D2*
X738685D1*
X754235D2*
X3327782D1*
X3368918D2*
X3678873D1*
X3785479D2*
X3815466D1*
X460720Y2244571D2*
X495784D1*
X612869D2*
X3667677D1*
X3796675D2*
X3815484D1*
X460810Y2219703D2*
X488661D1*
X619992D2*
X3667462D1*
X3796873D2*
X3815502D1*
X460881Y2194834D2*
X491801D1*
X616834D2*
X3678120D1*
X3786233D2*
X3815502D1*
X460953Y2169965D2*
X507357D1*
X601278D2*
X3679268D1*
X3785085D2*
X3815520D1*
X461025Y2145096D2*
X3667785D1*
X3796550D2*
X3815538D1*
X461115Y2120228D2*
X516292D1*
X591966D2*
X3667372D1*
X3796980D2*
X3815556D1*
X461186Y2095359D2*
X494672D1*
X613586D2*
X3677743D1*
X3786592D2*
X3815574D1*
X461258Y2070490D2*
X488356D1*
X619902D2*
X1195275D1*
X1261816D2*
X1295266D1*
X1361808D2*
X1395275D1*
X1461817D2*
X1495267D1*
X1561808D2*
X1595258D1*
X1661817D2*
X1695267D1*
X1761809D2*
X1795259D1*
X1861818D2*
X1895268D1*
X1961809D2*
X1995259D1*
X2061818D2*
X2095268D1*
X2161810D2*
X2195260D1*
X2261819D2*
X2295269D1*
X2361810D2*
X2395260D1*
X2461819D2*
X2495269D1*
X2561811D2*
X2595261D1*
X2661820D2*
X2695270D1*
X2761811D2*
X2795261D1*
X2861820D2*
X2895270D1*
X2961812D2*
X2995262D1*
X3061821D2*
X3095271D1*
X3161812D2*
X3679663D1*
X3784672D2*
X3815592D1*
X461330Y2045621D2*
X492250D1*
X616009D2*
X1173152D1*
X3183935D2*
X3667911D1*
X3796442D2*
X3815592D1*
X461420Y2020752D2*
X509080D1*
X599179D2*
X1167626D1*
X3189461D2*
X3667283D1*
X3797070D2*
X3815610D1*
X461491Y1995884D2*
X494923D1*
X613335D2*
X1173224D1*
X3183863D2*
X3677384D1*
X3786969D2*
X3815628D1*
X461563Y1971015D2*
X488374D1*
X619884D2*
X1195544D1*
X1261529D2*
X1295553D1*
X1361538D2*
X1395545D1*
X1461530D2*
X1495554D1*
X1561539D2*
X1595545D1*
X1661530D2*
X1695554D1*
X1761522D2*
X1795546D1*
X1861531D2*
X1895555D1*
X1961522D2*
X1995546D1*
X2061531D2*
X2095555D1*
X2161523D2*
X2195547D1*
X2261532D2*
X2295556D1*
X2361523D2*
X2395547D1*
X2461532D2*
X2495556D1*
X2561524D2*
X2595548D1*
X2661533D2*
X2695557D1*
X2761524D2*
X2795548D1*
X2861533D2*
X2895557D1*
X2961525D2*
X2995549D1*
X3061534D2*
X3095558D1*
X3161525D2*
X3680075D1*
X3784259D2*
X3815646D1*
X461635Y1946146D2*
X492070D1*
X616188D2*
X1173386D1*
X3183684D2*
X3668018D1*
X3796316D2*
X3815664D1*
X461725Y1921277D2*
X508505D1*
X599753D2*
X1167626D1*
X3189461D2*
X3667193D1*
X3797160D2*
X3815682D1*
X461796Y1896409D2*
X1172991D1*
X3184096D2*
X3677025D1*
X3787309D2*
X3815682D1*
X461868Y1871540D2*
X752016D1*
X1039316D2*
X1194719D1*
X1262373D2*
X1294710D1*
X1362364D2*
X1394719D1*
X1462373D2*
X1494711D1*
X1562364D2*
X1594702D1*
X1662374D2*
X1694711D1*
X1762365D2*
X1794702D1*
X1862374D2*
X1894712D1*
X1962365D2*
X1994703D1*
X2062375D2*
X2094712D1*
X2162366D2*
X2194703D1*
X2262375D2*
X2294713D1*
X2362366D2*
X2394704D1*
X2462376D2*
X2494713D1*
X2562367D2*
X2594704D1*
X2662376D2*
X2694714D1*
X2762367D2*
X2794705D1*
X2862377D2*
X2894714D1*
X2962368D2*
X2994705D1*
X3062377D2*
X3094715D1*
X3162368D2*
X3518022D1*
X3553542D2*
X3680506D1*
X3783847D2*
X3815700D1*
X1174277Y1846671D2*
X1992478D1*
X2069336D2*
X2380960D1*
X2470091D2*
X3491217D1*
X3580347D2*
X3668144D1*
X3796191D2*
X3815718D1*
X1163043Y1821802D2*
X1982628D1*
X2079186D2*
X2243793D1*
X2323737D2*
X2377533D1*
X2473500D2*
X3487808D1*
X3583774D2*
X3667103D1*
X3797249D2*
X3815736D1*
X1156299Y1796934D2*
X1987616D1*
X2074198D2*
X2235360D1*
X2332170D2*
X2389393D1*
X2461658D2*
X3499650D1*
X3571915D2*
X3676684D1*
X3787668D2*
X3815754D1*
X1153841Y1772065D2*
X2041478D1*
X2123754D2*
X2241604D1*
X2369615D2*
X3680937D1*
X3783416D2*
X3815771D1*
X1151365Y1747196D2*
X2034175D1*
X2131039D2*
X2278224D1*
X2374836D2*
X3668287D1*
X3796065D2*
X3815771D1*
X1148907Y1722327D2*
X2041514D1*
X2123701D2*
X2287787D1*
X2365273D2*
X3667014D1*
X3797321D2*
X3815789D1*
X1146449Y1697459D2*
X3016451D1*
X3086635D2*
X3676343D1*
X3788009D2*
X3815807D1*
X1127143Y1672590D2*
X3003730D1*
X3099374D2*
X3681367D1*
X3782967D2*
X3815825D1*
X1125223Y1647721D2*
X1188385D1*
X1268168D2*
X1293687D1*
X1376395D2*
X3006529D1*
X3096575D2*
X3668413D1*
X3795922D2*
X3815843D1*
X1123321Y1622852D2*
X1179881D1*
X1276672D2*
X1286618D1*
X1383482D2*
X2852730D1*
X2897884D2*
X3031002D1*
X3072102D2*
X3666942D1*
X3797393D2*
X3815861D1*
X1121419Y1597983D2*
X1186053D1*
X1270500D2*
X1294154D1*
X1375928D2*
X2829907D1*
X2920688D2*
X3676003D1*
X3788332D2*
X3815861D1*
X1119518Y1573115D2*
X1188798D1*
X1267755D2*
X1288789D1*
X1367764D2*
X1388798D1*
X1467756D2*
X1488790D1*
X1567765D2*
X1588799D1*
X1667756D2*
X1688790D1*
X1767765D2*
X1788799D1*
X1867757D2*
X1888791D1*
X1967766D2*
X1988800D1*
X2067757D2*
X2088791D1*
X2167766D2*
X2188800D1*
X2267758D2*
X2288792D1*
X2367767D2*
X2388801D1*
X2467758D2*
X2488792D1*
X2567767D2*
X2588801D1*
X2667759D2*
X2688793D1*
X2767768D2*
X2788802D1*
X2967768D2*
X2988802D1*
X3067760D2*
X3088794D1*
X3167769D2*
X3705410D1*
X3758925D2*
X3815879D1*
X1117616Y1548246D2*
X1174121D1*
X3182446D2*
X3815897D1*
X1115696Y1523377D2*
X1134667D1*
X1156496D2*
X1173493D1*
X3183056D2*
X3815915D1*
X1270285Y1498508D2*
X1286277D1*
X1370276D2*
X1386286D1*
X1470285D2*
X1486278D1*
X1570277D2*
X1586287D1*
X1670286D2*
X1686278D1*
X1770277D2*
X1786270D1*
X1870287D2*
X1886279D1*
X1970278D2*
X1986270D1*
X2070287D2*
X2086279D1*
X2170278D2*
X2186271D1*
X2270288D2*
X2286280D1*
X2370279D2*
X2386271D1*
X2470288D2*
X2486280D1*
X2570279D2*
X2586272D1*
X2670289D2*
X2686281D1*
X2770280D2*
X2786272D1*
X2870289D2*
X2886281D1*
X2970280D2*
X2986273D1*
X3070290D2*
X3086282D1*
X3170281D2*
X3682964D1*
X3780474D2*
X3815933D1*
X1267199Y1473640D2*
X1289345D1*
X1367208D2*
X1389355D1*
X1467199D2*
X1489346D1*
X1567209D2*
X1589355D1*
X1667200D2*
X1689346D1*
X1767209D2*
X1789356D1*
X1867200D2*
X1889347D1*
X1967210D2*
X1989356D1*
X2067201D2*
X2089347D1*
X2167210D2*
X2189357D1*
X2267202D2*
X2289348D1*
X2367211D2*
X2389357D1*
X2467202D2*
X2489348D1*
X2567211D2*
X2589358D1*
X2667203D2*
X2689349D1*
X2767212D2*
X2789358D1*
X2867203D2*
X2889349D1*
X2967212D2*
X2989359D1*
X3067204D2*
X3089350D1*
X3167213D2*
X3668610D1*
X3794827D2*
X3815951D1*
X3182302Y1448771D2*
X3666224D1*
X3797231D2*
X3815951D1*
X1143757Y1423902D2*
X1173386D1*
X3183163D2*
X3674190D1*
X3789247D2*
X3815969D1*
X1153518Y1399033D2*
X1185802D1*
X1270751D2*
X1285811D1*
X1370761D2*
X1385802D1*
X1470752D2*
X1485811D1*
X1570761D2*
X1585803D1*
X1670753D2*
X1685812D1*
X1770762D2*
X1785803D1*
X1870753D2*
X1885812D1*
X1970762D2*
X1985804D1*
X2070754D2*
X2085813D1*
X2170763D2*
X2185804D1*
X2270754D2*
X2285813D1*
X2370745D2*
X2385805D1*
X2470755D2*
X2485814D1*
X2570746D2*
X2585805D1*
X2670755D2*
X2685814D1*
X2770746D2*
X2785806D1*
X2870756D2*
X2885815D1*
X2970747D2*
X2985806D1*
X3070756D2*
X3085797D1*
X3170747D2*
X3683449D1*
X3779989D2*
X3815987D1*
X1163278Y1374165D2*
X2988462D1*
X3068065D2*
X3088471D1*
X3168056D2*
X3668772D1*
X3794666D2*
X3816005D1*
X1173057Y1349296D2*
X1451685D1*
X1498921D2*
X2973336D1*
X3183181D2*
X3666170D1*
X3797267D2*
X3816023D1*
X1134750Y1324427D2*
X1429724D1*
X1520882D2*
X2972224D1*
X3184312D2*
X3673885D1*
X3789552D2*
X3816041D1*
X1088855Y1299558D2*
X1427751D1*
X1522856D2*
X1938508D1*
X2012101D2*
X2983940D1*
X3072586D2*
X3083931D1*
X3172595D2*
X3683969D1*
X3779469D2*
X3816041D1*
X1042959Y1274690D2*
X1441710D1*
X1508897D2*
X1927223D1*
X2023386D2*
X3668951D1*
X3794504D2*
X3816059D1*
X997045Y1249821D2*
X1931062D1*
X2019547D2*
X3666116D1*
X3797321D2*
X3816076D1*
X951149Y1224952D2*
X1959788D1*
X1990822D2*
X3673598D1*
X3789839D2*
X3816094D1*
X905235Y1200083D2*
X1699555D1*
X1772036D2*
X3684489D1*
X3778948D2*
X3816112D1*
X859339Y1175214D2*
X1687803D1*
X1783806D2*
X3669113D1*
X3794325D2*
X3816130D1*
X859734Y1150346D2*
X1691284D1*
X1780307D2*
X3666081D1*
X3797357D2*
X3816130D1*
X862910Y1125477D2*
X1718377D1*
X1753232D2*
X3673329D1*
X3790126D2*
X3816148D1*
X721616Y1100608D2*
X751441D1*
X854621D2*
X3685009D1*
X3778428D2*
X3816166D1*
X675720Y1075739D2*
X764467D1*
X841595D2*
X3669292D1*
X3794145D2*
X3816184D1*
X629806Y1050871D2*
X746525D1*
X859537D2*
X3666045D1*
X3797411D2*
X3816202D1*
X583910Y1026002D2*
X743098D1*
X862964D2*
X3673042D1*
X3790396D2*
X3816220D1*
X537996Y1001133D2*
X751118D1*
X854943D2*
X3685566D1*
X3777872D2*
X3816220D1*
X492101Y976264D2*
X781889D1*
X824173D2*
X3669472D1*
X3793966D2*
X3816238D1*
X464541Y951396D2*
X3666009D1*
X3797447D2*
X3816256D1*
X464380Y926527D2*
X3672773D1*
X3790665D2*
X3816274D1*
X464201Y901658D2*
X3686122D1*
X3777316D2*
X3816292D1*
X464021Y876789D2*
X3669669D1*
X3793787D2*
X3816310D1*
X463860Y851920D2*
X3665973D1*
X3797465D2*
X3816310D1*
X463680Y827052D2*
X3672504D1*
X3790934D2*
X3816328D1*
X463501Y802183D2*
X3686696D1*
X3776742D2*
X3816346D1*
X463321Y777314D2*
X3669848D1*
X3793589D2*
X3816364D1*
X463160Y752445D2*
X3665955D1*
X3797501D2*
X3816382D1*
X462981Y727577D2*
X3672253D1*
X3791185D2*
X3816399D1*
X462801Y702708D2*
X3301784D1*
X3340982D2*
X3687288D1*
X3776167D2*
X3816399D1*
X462640Y677839D2*
X958583D1*
X1112592D2*
X3242199D1*
X3400550D2*
X3670046D1*
X3793392D2*
X3816417D1*
X462460Y652970D2*
X933177D1*
X1137998D2*
X3217744D1*
X3425023D2*
X3665919D1*
X3797519D2*
X3816435D1*
X462281Y628102D2*
X918303D1*
X1152890D2*
X3203372D1*
X3439394D2*
X3672001D1*
X3791436D2*
X3816453D1*
X462101Y603233D2*
X910067D1*
X1161107D2*
X3195513D1*
X3447253D2*
X3687880D1*
X3775557D2*
X3816471D1*
X461940Y578364D2*
X907179D1*
X1164014D2*
X3192948D1*
X3449819D2*
X3670261D1*
X3793194D2*
X3816489D1*
X461760Y553495D2*
X909242D1*
X1161933D2*
X3195352D1*
X3447414D2*
X3665919D1*
X3797536D2*
X3816489D1*
X461581Y528627D2*
X916527D1*
X1154648D2*
X3203013D1*
X3439753D2*
X3671750D1*
X3791687D2*
X3816507D1*
X461420Y503758D2*
X930163D1*
X1141030D2*
X3217116D1*
X3425651D2*
X3692348D1*
X3771090D2*
X3816525D1*
X461240Y478889D2*
X953290D1*
X1117885D2*
X3241104D1*
X3401644D2*
X3816543D1*
X461061Y454020D2*
X1003025D1*
X1068167D2*
X1944644D1*
X616527Y2798875D2*
X614526Y2789847D1*
X611233Y2781208D1*
X606716Y2773140D1*
X601073Y2765815D1*
X594423Y2759390D1*
X592640Y2758112D1*
X594329Y2756755D1*
X600993Y2750344D1*
X606652Y2743032D1*
X611186Y2734973D1*
X614498Y2726341D1*
X616518Y2717318D1*
X617203Y2708029D1*
X616538Y2698875D1*
X614537Y2689847D1*
X611244Y2681208D1*
X606727Y2673140D1*
X601084Y2665815D1*
X594434Y2659390D1*
X586920Y2654002D1*
X578702Y2649765D1*
X569954Y2646771D1*
X560863Y2645081D1*
X551623Y2644734D1*
X542431Y2645735D1*
X533483Y2648064D1*
X524970Y2651671D1*
X517072Y2656480D1*
X509958Y2662386D1*
X503781Y2669266D1*
X498671Y2676972D1*
X494737Y2685340D1*
X492063Y2694191D1*
X490707Y2703338D1*
X490697Y2712584D1*
X492034Y2721733D1*
X494688Y2730590D1*
X498604Y2738967D1*
X503697Y2746683D1*
X509860Y2753576D1*
X515096Y2757943D1*
X509947Y2762386D1*
X503770Y2769266D1*
X498659Y2776972D1*
X494726Y2785340D1*
X492052Y2794191D1*
X490696Y2803338D1*
X490686Y2812584D1*
X492023Y2821733D1*
X494677Y2830590D1*
X498593Y2838967D1*
X503686Y2846683D1*
X509849Y2853576D1*
X516950Y2859499D1*
X524837Y2864324D1*
X533343Y2867949D1*
X542286Y2870298D1*
X551476Y2871319D1*
X560716Y2870991D1*
X569811Y2869322D1*
X578565Y2866345D1*
X586793Y2862127D1*
X594318Y2856755D1*
X600982Y2850344D1*
X606641Y2843032D1*
X611175Y2834973D1*
X614487Y2826341D1*
X616507Y2817318D1*
X617192Y2808029D1*
X616527Y2798875D1*
X1167832Y1830022D2*
X1171883Y1834408D1*
X1173437Y1840168D1*
X1172144Y1845992D1*
X1168299Y1850553D1*
X1162778Y1852813D1*
X976891Y1880448D1*
X965589Y1881885D1*
X686847Y1868223D1*
X459373Y1870803D1*
X456239Y2891062D1*
X728107Y2888951D1*
X933382Y2843622D1*
X936550Y2602474D1*
X936751Y2591932D1*
X938818Y2586336D1*
X943244Y2582335D1*
X949019Y2580841D1*
X1594956Y2572995D1*
X2191886Y2558230D1*
X2203012Y2558105D1*
X2208572Y2560268D1*
X2212496Y2564762D1*
X2213890Y2570562D1*
X2213190Y2708828D1*
X2305060Y2711269D1*
X2303680Y2704464D1*
X2303705Y2695170D1*
X2305601Y2686072D1*
X2309289Y2677541D1*
X2314267Y2670336D1*
X2313828Y2669916D1*
X2308539Y2662273D1*
X2304897Y2653723D1*
X2303050Y2644614D1*
X2303075Y2635320D1*
X2304971Y2626221D1*
X2308659Y2617690D1*
X2313989Y2610076D1*
X2320742Y2603691D1*
X2328643Y2598796D1*
X2337367Y2595592D1*
X2346557Y2594209D1*
X2355838Y2594705D1*
X2364829Y2597059D1*
X2373162Y2601174D1*
X2380496Y2606883D1*
X2386531Y2613951D1*
X2391020Y2622089D1*
X2393778Y2630965D1*
X2394694Y2640213D1*
X2393728Y2649457D1*
X2390922Y2658317D1*
X2386390Y2666431D1*
X2383772Y2669832D1*
X2387161Y2673801D1*
X2391650Y2681940D1*
X2394408Y2690815D1*
X2395323Y2700064D1*
X2394358Y2709307D1*
X2393247Y2713607D1*
X2437263Y2714773D1*
X2442140Y2707806D1*
X2448893Y2701421D1*
X2456794Y2696526D1*
X2465518Y2693322D1*
X2474708Y2691939D1*
X2483989Y2692435D1*
X2492980Y2694788D1*
X2501313Y2698904D1*
X2508647Y2704613D1*
X2514682Y2711681D1*
X2518642Y2718609D1*
X2741111Y2749208D1*
X2742292Y2748092D1*
X2744681Y2746373D1*
X2743737Y2745668D1*
X2737018Y2739246D1*
X2731729Y2731604D1*
X2728087Y2723053D1*
X2726241Y2713945D1*
X2726266Y2704651D1*
X2728161Y2695552D1*
X2731849Y2687021D1*
X2737179Y2679407D1*
X2743932Y2673022D1*
X2751833Y2668127D1*
X2760557Y2664923D1*
X2769748Y2663540D1*
X2779028Y2664036D1*
X2788019Y2666389D1*
X2792649Y2668420D1*
X2794212Y2666942D1*
X2802112Y2662047D1*
X2810837Y2658843D1*
X2820027Y2657460D1*
X2829308Y2657956D1*
X2838299Y2660309D1*
X2846632Y2664425D1*
X2853966Y2670134D1*
X2860001Y2677202D1*
X2862463Y2681167D1*
X2870874Y2679773D1*
X2880112Y2679783D1*
X2889222Y2681314D1*
X2897956Y2684323D1*
X2906076Y2688729D1*
X2913359Y2694411D1*
X2919608Y2701214D1*
X2924652Y2708953D1*
X2928354Y2717417D1*
X2930612Y2726375D1*
X2931364Y2735582D1*
X2930591Y2744788D1*
X2928314Y2753740D1*
X2924593Y2762196D1*
X2919532Y2769924D1*
X2916636Y2773354D1*
X3235454Y2817208D1*
X3280443Y2821854D1*
X3285393Y2820036D1*
X3294584Y2818653D1*
X3303864Y2819149D1*
X3312855Y2821502D1*
X3321188Y2825618D1*
X3322029Y2826155D1*
X3687358Y2863916D1*
X3684379Y2860584D1*
X3679286Y2852867D1*
X3675370Y2844491D1*
X3672716Y2835634D1*
X3671380Y2826485D1*
X3671389Y2817239D1*
X3672746Y2808092D1*
X3675419Y2799241D1*
X3679353Y2790873D1*
X3684463Y2783167D1*
X3690640Y2776287D1*
X3697754Y2770380D1*
X3705652Y2765572D1*
X3714165Y2761965D1*
X3723113Y2759636D1*
X3732305Y2758635D1*
X3741545Y2758982D1*
X3750636Y2760671D1*
X3759384Y2763666D1*
X3767602Y2767903D1*
X3775116Y2773291D1*
X3781766Y2779716D1*
X3787409Y2787040D1*
X3791926Y2795108D1*
X3795220Y2803748D1*
X3797220Y2812775D1*
X3797885Y2821998D1*
X3797200Y2831219D1*
X3795180Y2840242D1*
X3791868Y2848874D1*
X3787334Y2856933D1*
X3781675Y2864245D1*
X3775012Y2870655D1*
X3772182Y2872675D1*
X3817599Y2877381D1*
X3819051Y476351D1*
X3388143Y471210D1*
X3394668Y475528D1*
X3401948Y481151D1*
X3408799Y487290D1*
X3415182Y493913D1*
X3421066Y500984D1*
X3426417Y508466D1*
X3431208Y516319D1*
X3435413Y524500D1*
X3439010Y532966D1*
X3441979Y541673D1*
X3444305Y550572D1*
X3445975Y559618D1*
X3446980Y568762D1*
X3447314Y577955D1*
X3446977Y587147D1*
X3445970Y596290D1*
X3444298Y605336D1*
X3441971Y614235D1*
X3439000Y622941D1*
X3435401Y631406D1*
X3431194Y639587D1*
X3426401Y647438D1*
X3421048Y654919D1*
X3415163Y661989D1*
X3408778Y668610D1*
X3401926Y674748D1*
X3394645Y680369D1*
X3386973Y685443D1*
X3378950Y689945D1*
X3370621Y693848D1*
X3362029Y697133D1*
X3353220Y699782D1*
X3344241Y701781D1*
X3335140Y703120D1*
X3325966Y703790D1*
X3316767Y703789D1*
X3307593Y703116D1*
X3298493Y701776D1*
X3289514Y699775D1*
X3280706Y697124D1*
X3272115Y693837D1*
X3263786Y689931D1*
X3255765Y685428D1*
X3248094Y680352D1*
X3240814Y674729D1*
X3233964Y668590D1*
X3227580Y661967D1*
X3221697Y654896D1*
X3216345Y647414D1*
X3211554Y639562D1*
X3207349Y631380D1*
X3203752Y622914D1*
X3200783Y614208D1*
X3198457Y605308D1*
X3196788Y596262D1*
X3195783Y587118D1*
X3195448Y577926D1*
X3195785Y568733D1*
X3196792Y559590D1*
X3198464Y550544D1*
X3200791Y541645D1*
X3203762Y532939D1*
X3207361Y524474D1*
X3211568Y516294D1*
X3216361Y508442D1*
X3221714Y500962D1*
X3227599Y493892D1*
X3233984Y487270D1*
X3240836Y481133D1*
X3248117Y475512D1*
X3255790Y470437D1*
X3257109Y469647D1*
X458440Y436254D1*
X462124Y961379D1*
X747422Y1115951D1*
X750054Y1108112D1*
X754378Y1099907D1*
X759962Y1092503D1*
X766661Y1086090D1*
X774403Y1080775D1*
X774133Y1080646D1*
X766510Y1075365D1*
X759832Y1068929D1*
X754273Y1061506D1*
X749978Y1053287D1*
X747056Y1044485D1*
X745584Y1035329D1*
X745599Y1026055D1*
X747102Y1016904D1*
X750054Y1008112D1*
X754378Y999907D1*
X759962Y992503D1*
X766661Y986090D1*
X774302Y980835D1*
X782688Y976873D1*
X791600Y974308D1*
X800808Y973206D1*
X810074Y973595D1*
X819157Y975465D1*
X827823Y978769D1*
X835846Y983419D1*
X843020Y989297D1*
X849158Y996249D1*
X854102Y1004095D1*
X857722Y1012634D1*
X859926Y1021642D1*
X860657Y1030887D1*
X859895Y1040130D1*
X857660Y1049130D1*
X854011Y1057656D1*
X849041Y1065486D1*
X842879Y1072417D1*
X835686Y1078270D1*
X831498Y1080899D1*
X835846Y1083419D1*
X843020Y1089297D1*
X849158Y1096249D1*
X854102Y1104095D1*
X857722Y1112634D1*
X859926Y1121642D1*
X860657Y1130887D1*
X859895Y1140130D1*
X857660Y1149130D1*
X854011Y1157656D1*
X849041Y1165486D1*
X845901Y1169292D1*
X1162195Y1340646D1*
X1166600Y1344669D1*
X1168638Y1350276D1*
X1167846Y1356189D1*
X1137606Y1433207D1*
X1143378Y1432339D1*
X1152658Y1432835D1*
X1161649Y1435189D1*
X1169982Y1439304D1*
X1175806Y1443637D1*
X1175029Y1439162D1*
X1175010Y1430096D1*
X1176524Y1421157D1*
X1179527Y1412602D1*
X1183933Y1404678D1*
X1189614Y1397613D1*
X1196407Y1391609D1*
X1204118Y1386840D1*
X1212523Y1383442D1*
X1221382Y1381514D1*
X1230440Y1381111D1*
X1239435Y1382244D1*
X1248109Y1384881D1*
X1256213Y1388946D1*
X1263513Y1394322D1*
X1269800Y1400855D1*
X1274892Y1408356D1*
X1278375Y1415886D1*
X1279527Y1412602D1*
X1283933Y1404678D1*
X1289614Y1397613D1*
X1296407Y1391609D1*
X1304118Y1386840D1*
X1312523Y1383442D1*
X1321382Y1381514D1*
X1330440Y1381111D1*
X1339435Y1382244D1*
X1348109Y1384881D1*
X1356213Y1388946D1*
X1363513Y1394322D1*
X1369800Y1400855D1*
X1374892Y1408356D1*
X1378375Y1415886D1*
X1379527Y1412602D1*
X1383933Y1404678D1*
X1389614Y1397613D1*
X1396407Y1391609D1*
X1404118Y1386840D1*
X1412523Y1383442D1*
X1421382Y1381514D1*
X1430440Y1381111D1*
X1439435Y1382244D1*
X1448109Y1384881D1*
X1456213Y1388946D1*
X1463513Y1394322D1*
X1469800Y1400855D1*
X1474892Y1408356D1*
X1478375Y1415886D1*
X1479527Y1412602D1*
X1483933Y1404678D1*
X1489614Y1397613D1*
X1496407Y1391609D1*
X1504118Y1386840D1*
X1512523Y1383442D1*
X1521382Y1381514D1*
X1530440Y1381111D1*
X1539435Y1382244D1*
X1548109Y1384881D1*
X1556213Y1388946D1*
X1563513Y1394322D1*
X1569800Y1400855D1*
X1574892Y1408356D1*
X1578375Y1415886D1*
X1579527Y1412602D1*
X1583933Y1404678D1*
X1589614Y1397613D1*
X1596407Y1391609D1*
X1604118Y1386840D1*
X1612523Y1383442D1*
X1621382Y1381514D1*
X1630440Y1381111D1*
X1639435Y1382244D1*
X1648109Y1384881D1*
X1656213Y1388946D1*
X1663513Y1394322D1*
X1669800Y1400855D1*
X1674892Y1408356D1*
X1678375Y1415886D1*
X1679527Y1412602D1*
X1683933Y1404678D1*
X1689614Y1397613D1*
X1696407Y1391609D1*
X1704118Y1386840D1*
X1712523Y1383442D1*
X1721382Y1381514D1*
X1730440Y1381111D1*
X1739435Y1382244D1*
X1748109Y1384881D1*
X1756213Y1388946D1*
X1763513Y1394322D1*
X1769800Y1400855D1*
X1774892Y1408356D1*
X1778375Y1415886D1*
X1779527Y1412602D1*
X1783933Y1404678D1*
X1789614Y1397613D1*
X1796407Y1391609D1*
X1804118Y1386840D1*
X1812523Y1383442D1*
X1821382Y1381514D1*
X1830440Y1381111D1*
X1839435Y1382244D1*
X1848109Y1384881D1*
X1856213Y1388946D1*
X1863513Y1394322D1*
X1869800Y1400855D1*
X1874892Y1408356D1*
X1878375Y1415886D1*
X1879527Y1412602D1*
X1883933Y1404678D1*
X1889614Y1397613D1*
X1896407Y1391609D1*
X1904118Y1386840D1*
X1912523Y1383442D1*
X1921382Y1381514D1*
X1930440Y1381111D1*
X1939435Y1382244D1*
X1948109Y1384881D1*
X1956213Y1388946D1*
X1963513Y1394322D1*
X1969800Y1400855D1*
X1974892Y1408356D1*
X1978375Y1415886D1*
X1979527Y1412602D1*
X1983933Y1404678D1*
X1989614Y1397613D1*
X1996407Y1391609D1*
X2004118Y1386840D1*
X2012523Y1383442D1*
X2021382Y1381514D1*
X2030440Y1381111D1*
X2039435Y1382244D1*
X2048109Y1384881D1*
X2056213Y1388946D1*
X2063513Y1394322D1*
X2069800Y1400855D1*
X2074892Y1408356D1*
X2078375Y1415886D1*
X2079527Y1412602D1*
X2083933Y1404678D1*
X2089614Y1397613D1*
X2096407Y1391609D1*
X2104118Y1386840D1*
X2112523Y1383442D1*
X2121382Y1381514D1*
X2130440Y1381111D1*
X2139435Y1382244D1*
X2148109Y1384881D1*
X2156213Y1388946D1*
X2163513Y1394322D1*
X2169800Y1400855D1*
X2174892Y1408356D1*
X2178375Y1415886D1*
X2179527Y1412602D1*
X2183933Y1404678D1*
X2189614Y1397613D1*
X2196407Y1391609D1*
X2204118Y1386840D1*
X2212523Y1383442D1*
X2221382Y1381514D1*
X2230440Y1381111D1*
X2239435Y1382244D1*
X2248109Y1384881D1*
X2256213Y1388946D1*
X2263513Y1394322D1*
X2269800Y1400855D1*
X2274892Y1408356D1*
X2278375Y1415886D1*
X2279527Y1412602D1*
X2283933Y1404678D1*
X2289614Y1397613D1*
X2296407Y1391609D1*
X2304118Y1386840D1*
X2312523Y1383442D1*
X2321382Y1381514D1*
X2330440Y1381111D1*
X2339435Y1382244D1*
X2348109Y1384881D1*
X2356213Y1388946D1*
X2363513Y1394322D1*
X2369800Y1400855D1*
X2374892Y1408356D1*
X2378375Y1415886D1*
X2379527Y1412602D1*
X2383933Y1404678D1*
X2389614Y1397613D1*
X2396407Y1391609D1*
X2404118Y1386840D1*
X2412523Y1383442D1*
X2421382Y1381514D1*
X2430440Y1381111D1*
X2439435Y1382244D1*
X2448109Y1384881D1*
X2456213Y1388946D1*
X2463513Y1394322D1*
X2469800Y1400855D1*
X2474892Y1408356D1*
X2478375Y1415886D1*
X2479527Y1412602D1*
X2483933Y1404678D1*
X2489614Y1397613D1*
X2496407Y1391609D1*
X2504118Y1386840D1*
X2512523Y1383442D1*
X2521382Y1381514D1*
X2530440Y1381111D1*
X2539435Y1382244D1*
X2548109Y1384881D1*
X2556213Y1388946D1*
X2563513Y1394322D1*
X2569800Y1400855D1*
X2574892Y1408356D1*
X2578375Y1415886D1*
X2579527Y1412602D1*
X2583933Y1404678D1*
X2589614Y1397613D1*
X2596407Y1391609D1*
X2604118Y1386840D1*
X2612523Y1383442D1*
X2621382Y1381514D1*
X2630440Y1381111D1*
X2639435Y1382244D1*
X2648109Y1384881D1*
X2656213Y1388946D1*
X2663513Y1394322D1*
X2669800Y1400855D1*
X2674892Y1408356D1*
X2678375Y1415886D1*
X2679527Y1412602D1*
X2683933Y1404678D1*
X2689614Y1397613D1*
X2696407Y1391609D1*
X2704118Y1386840D1*
X2712523Y1383442D1*
X2721382Y1381514D1*
X2730440Y1381111D1*
X2739435Y1382244D1*
X2748109Y1384881D1*
X2756213Y1388946D1*
X2763513Y1394322D1*
X2769800Y1400855D1*
X2774892Y1408356D1*
X2778375Y1415886D1*
X2779527Y1412602D1*
X2783933Y1404678D1*
X2789614Y1397613D1*
X2796407Y1391609D1*
X2804118Y1386840D1*
X2812523Y1383442D1*
X2821382Y1381514D1*
X2830440Y1381111D1*
X2839435Y1382244D1*
X2848109Y1384881D1*
X2856213Y1388946D1*
X2863513Y1394322D1*
X2869800Y1400855D1*
X2874892Y1408356D1*
X2878375Y1415886D1*
X2879527Y1412602D1*
X2883933Y1404678D1*
X2889614Y1397613D1*
X2896407Y1391609D1*
X2904118Y1386840D1*
X2912523Y1383442D1*
X2921382Y1381514D1*
X2930440Y1381111D1*
X2939435Y1382244D1*
X2948109Y1384881D1*
X2956213Y1388946D1*
X2963513Y1394322D1*
X2969800Y1400855D1*
X2974892Y1408356D1*
X2978310Y1415692D1*
X2981825Y1408079D1*
X2986961Y1400609D1*
X2993287Y1394113D1*
X3000619Y1388781D1*
X3008306Y1384940D1*
X3003678Y1383074D1*
X2995816Y1378220D1*
X2988887Y1372108D1*
X2983091Y1364912D1*
X2978594Y1356840D1*
X2975527Y1348124D1*
X2973976Y1339015D1*
X2973987Y1329775D1*
X2975559Y1320670D1*
X2978648Y1311962D1*
X2983163Y1303901D1*
X2988977Y1296719D1*
X2995920Y1290622D1*
X3003794Y1285787D1*
X3012372Y1282352D1*
X3021406Y1280416D1*
X3030638Y1280035D1*
X3039802Y1281220D1*
X3048634Y1283936D1*
X3056879Y1288105D1*
X3064302Y1293608D1*
X3070687Y1300287D1*
X3075852Y1307948D1*
X3078307Y1312923D1*
X3078648Y1311962D1*
X3083163Y1303901D1*
X3088977Y1296719D1*
X3095920Y1290622D1*
X3103794Y1285787D1*
X3112372Y1282352D1*
X3121406Y1280416D1*
X3130638Y1280035D1*
X3139802Y1281220D1*
X3148634Y1283936D1*
X3156879Y1288105D1*
X3164302Y1293608D1*
X3170687Y1300287D1*
X3175852Y1307948D1*
X3179648Y1316372D1*
X3181966Y1325317D1*
X3182738Y1334460D1*
X3182695Y1336620D1*
X3181547Y1345788D1*
X3178867Y1354630D1*
X3174730Y1362893D1*
X3169256Y1370337D1*
X3162603Y1376749D1*
X3154962Y1381944D1*
X3148449Y1385052D1*
X3156213Y1388946D1*
X3163513Y1394322D1*
X3169800Y1400855D1*
X3174892Y1408356D1*
X3178643Y1416610D1*
X3180946Y1425379D1*
X3181733Y1434520D1*
X3181503Y1439479D1*
X3179899Y1448402D1*
X3176810Y1456926D1*
X3172326Y1464806D1*
X3166574Y1471814D1*
X3159720Y1477749D1*
X3151962Y1482441D1*
X3147067Y1484564D1*
X3148109Y1484881D1*
X3156213Y1488946D1*
X3163513Y1494322D1*
X3169800Y1500855D1*
X3174892Y1508356D1*
X3178643Y1516610D1*
X3180946Y1525379D1*
X3181733Y1534520D1*
X3180983Y1543446D1*
X3178716Y1552225D1*
X3174998Y1560494D1*
X3169937Y1568015D1*
X3163677Y1574574D1*
X3156399Y1579980D1*
X3148312Y1584078D1*
X3139648Y1586750D1*
X3130658Y1587920D1*
X3121599Y1587554D1*
X3112732Y1585662D1*
X3104313Y1582299D1*
X3096583Y1577561D1*
X3089765Y1571585D1*
X3084055Y1564543D1*
X3079617Y1556637D1*
X3078233Y1553299D1*
X3074998Y1560494D1*
X3069937Y1568015D1*
X3063677Y1574574D1*
X3056399Y1579980D1*
X3048312Y1584078D1*
X3039648Y1586750D1*
X3030658Y1587920D1*
X3021599Y1587554D1*
X3012732Y1585662D1*
X3004313Y1582299D1*
X2996583Y1577561D1*
X2989765Y1571585D1*
X2984055Y1564543D1*
X2979617Y1556637D1*
X2978233Y1553299D1*
X2974998Y1560494D1*
X2969937Y1568015D1*
X2963677Y1574574D1*
X2956399Y1579980D1*
X2948312Y1584078D1*
X2939648Y1586750D1*
X2930658Y1587920D1*
X2921599Y1587554D1*
X2920635Y1587415D1*
X2920270Y1590909D1*
X2917464Y1599769D1*
X2912932Y1607883D1*
X2906859Y1614918D1*
X2899494Y1620587D1*
X2891139Y1624658D1*
X2882136Y1626963D1*
X2872852Y1627409D1*
X2863669Y1625977D1*
X2854963Y1622726D1*
X2847089Y1617788D1*
X2840370Y1611367D1*
X2835081Y1603725D1*
X2831439Y1595174D1*
X2829817Y1587886D1*
X2821599Y1587554D1*
X2812732Y1585662D1*
X2804313Y1582299D1*
X2796583Y1577561D1*
X2789765Y1571585D1*
X2784055Y1564543D1*
X2779617Y1556637D1*
X2778233Y1553299D1*
X2774998Y1560494D1*
X2769937Y1568015D1*
X2763677Y1574574D1*
X2756399Y1579980D1*
X2748312Y1584078D1*
X2739648Y1586750D1*
X2730658Y1587920D1*
X2721599Y1587554D1*
X2712732Y1585662D1*
X2704313Y1582299D1*
X2696583Y1577561D1*
X2689765Y1571585D1*
X2684055Y1564543D1*
X2679617Y1556637D1*
X2678233Y1553299D1*
X2674998Y1560494D1*
X2669937Y1568015D1*
X2663677Y1574574D1*
X2656399Y1579980D1*
X2648312Y1584078D1*
X2639648Y1586750D1*
X2630658Y1587920D1*
X2621599Y1587554D1*
X2612732Y1585662D1*
X2604313Y1582299D1*
X2596583Y1577561D1*
X2589765Y1571585D1*
X2584055Y1564543D1*
X2579617Y1556637D1*
X2578233Y1553299D1*
X2574998Y1560494D1*
X2569937Y1568015D1*
X2563677Y1574574D1*
X2556399Y1579980D1*
X2548312Y1584078D1*
X2539648Y1586750D1*
X2530658Y1587920D1*
X2521599Y1587554D1*
X2512732Y1585662D1*
X2504313Y1582299D1*
X2496583Y1577561D1*
X2489765Y1571585D1*
X2484055Y1564543D1*
X2479617Y1556637D1*
X2478233Y1553299D1*
X2474998Y1560494D1*
X2469937Y1568015D1*
X2463677Y1574574D1*
X2456399Y1579980D1*
X2448312Y1584078D1*
X2439648Y1586750D1*
X2430658Y1587920D1*
X2421599Y1587554D1*
X2412732Y1585662D1*
X2404313Y1582299D1*
X2396583Y1577561D1*
X2389765Y1571585D1*
X2384055Y1564543D1*
X2379617Y1556637D1*
X2378233Y1553299D1*
X2374998Y1560494D1*
X2369937Y1568015D1*
X2363677Y1574574D1*
X2356399Y1579980D1*
X2348312Y1584078D1*
X2339648Y1586750D1*
X2330658Y1587920D1*
X2321599Y1587554D1*
X2312732Y1585662D1*
X2304313Y1582299D1*
X2296583Y1577561D1*
X2289765Y1571585D1*
X2284055Y1564543D1*
X2279617Y1556637D1*
X2278233Y1553299D1*
X2274998Y1560494D1*
X2269937Y1568015D1*
X2263677Y1574574D1*
X2256399Y1579980D1*
X2248312Y1584078D1*
X2239648Y1586750D1*
X2230658Y1587920D1*
X2221599Y1587554D1*
X2212732Y1585662D1*
X2204313Y1582299D1*
X2196583Y1577561D1*
X2189765Y1571585D1*
X2184055Y1564543D1*
X2179617Y1556637D1*
X2178233Y1553299D1*
X2174998Y1560494D1*
X2169937Y1568015D1*
X2163677Y1574574D1*
X2156399Y1579980D1*
X2148312Y1584078D1*
X2139648Y1586750D1*
X2130658Y1587920D1*
X2121599Y1587554D1*
X2112732Y1585662D1*
X2104313Y1582299D1*
X2096583Y1577561D1*
X2089765Y1571585D1*
X2084055Y1564543D1*
X2079617Y1556637D1*
X2078233Y1553299D1*
X2074998Y1560494D1*
X2069937Y1568015D1*
X2063677Y1574574D1*
X2056399Y1579980D1*
X2048312Y1584078D1*
X2039648Y1586750D1*
X2030658Y1587920D1*
X2021599Y1587554D1*
X2012732Y1585662D1*
X2004313Y1582299D1*
X1996583Y1577561D1*
X1989765Y1571585D1*
X1984055Y1564543D1*
X1979617Y1556637D1*
X1978233Y1553299D1*
X1974998Y1560494D1*
X1969937Y1568015D1*
X1963677Y1574574D1*
X1956399Y1579980D1*
X1948312Y1584078D1*
X1939648Y1586750D1*
X1930658Y1587920D1*
X1921599Y1587554D1*
X1912732Y1585662D1*
X1904313Y1582299D1*
X1896583Y1577561D1*
X1889765Y1571585D1*
X1884055Y1564543D1*
X1879617Y1556637D1*
X1878233Y1553299D1*
X1874998Y1560494D1*
X1869937Y1568015D1*
X1863677Y1574574D1*
X1856399Y1579980D1*
X1848312Y1584078D1*
X1839648Y1586750D1*
X1830658Y1587920D1*
X1821599Y1587554D1*
X1812732Y1585662D1*
X1804313Y1582299D1*
X1796583Y1577561D1*
X1789765Y1571585D1*
X1784055Y1564543D1*
X1779617Y1556637D1*
X1778233Y1553299D1*
X1774998Y1560494D1*
X1769937Y1568015D1*
X1763677Y1574574D1*
X1756399Y1579980D1*
X1748312Y1584078D1*
X1739648Y1586750D1*
X1730658Y1587920D1*
X1721599Y1587554D1*
X1712732Y1585662D1*
X1704313Y1582299D1*
X1696583Y1577561D1*
X1689765Y1571585D1*
X1684055Y1564543D1*
X1679617Y1556637D1*
X1678233Y1553299D1*
X1674998Y1560494D1*
X1669937Y1568015D1*
X1663677Y1574574D1*
X1656399Y1579980D1*
X1648312Y1584078D1*
X1639648Y1586750D1*
X1630658Y1587920D1*
X1621599Y1587554D1*
X1612732Y1585662D1*
X1604313Y1582299D1*
X1596583Y1577561D1*
X1589765Y1571585D1*
X1584055Y1564543D1*
X1579617Y1556637D1*
X1578233Y1553299D1*
X1574998Y1560494D1*
X1569937Y1568015D1*
X1563677Y1574574D1*
X1556399Y1579980D1*
X1548312Y1584078D1*
X1539648Y1586750D1*
X1530658Y1587920D1*
X1521599Y1587554D1*
X1512732Y1585662D1*
X1504313Y1582299D1*
X1496583Y1577561D1*
X1489765Y1571585D1*
X1484055Y1564543D1*
X1479617Y1556637D1*
X1478233Y1553299D1*
X1474998Y1560494D1*
X1469937Y1568015D1*
X1463677Y1574574D1*
X1456399Y1579980D1*
X1448312Y1584078D1*
X1439648Y1586750D1*
X1430658Y1587920D1*
X1421599Y1587554D1*
X1412732Y1585662D1*
X1404313Y1582299D1*
X1396583Y1577561D1*
X1389765Y1571585D1*
X1384055Y1564543D1*
X1379617Y1556637D1*
X1378233Y1553299D1*
X1374998Y1560494D1*
X1369937Y1568015D1*
X1363677Y1574574D1*
X1356399Y1579980D1*
X1353789Y1581502D1*
X1359444Y1584295D1*
X1366779Y1590004D1*
X1372813Y1597072D1*
X1377302Y1605210D1*
X1380060Y1614085D1*
X1380976Y1623210D1*
X1380973Y1623705D1*
X1379933Y1632940D1*
X1377056Y1641778D1*
X1372458Y1649855D1*
X1366329Y1656841D1*
X1358919Y1662451D1*
X1350531Y1666454D1*
X1341509Y1668686D1*
X1332223Y1669057D1*
X1323051Y1667551D1*
X1314371Y1664230D1*
X1306537Y1659229D1*
X1299870Y1652753D1*
X1294643Y1645069D1*
X1291070Y1636489D1*
X1289297Y1627365D1*
X1289398Y1618072D1*
X1291366Y1608989D1*
X1295123Y1600488D1*
X1300514Y1592917D1*
X1307319Y1586587D1*
X1310126Y1584621D1*
X1304313Y1582299D1*
X1296583Y1577561D1*
X1289765Y1571585D1*
X1284055Y1564543D1*
X1279617Y1556637D1*
X1278271Y1553412D1*
X1278235Y1553540D1*
X1274302Y1561709D1*
X1269045Y1569095D1*
X1262616Y1575487D1*
X1255198Y1580701D1*
X1252640Y1582106D1*
X1260015Y1587834D1*
X1266050Y1594902D1*
X1270538Y1603041D1*
X1273297Y1611916D1*
X1274212Y1621165D1*
X1273247Y1630409D1*
X1270441Y1639269D1*
X1265908Y1647383D1*
X1259836Y1654418D1*
X1252471Y1660087D1*
X1244116Y1664158D1*
X1235112Y1666463D1*
X1225829Y1666909D1*
X1216646Y1665477D1*
X1207939Y1662226D1*
X1200065Y1657288D1*
X1193346Y1650867D1*
X1188057Y1643225D1*
X1184415Y1634674D1*
X1182569Y1625565D1*
X1182594Y1616271D1*
X1184489Y1607173D1*
X1188177Y1598642D1*
X1193507Y1591028D1*
X1200260Y1584643D1*
X1203958Y1582081D1*
X1196583Y1577561D1*
X1189765Y1571585D1*
X1184055Y1564543D1*
X1179617Y1556637D1*
X1176579Y1548095D1*
X1175029Y1539162D1*
X1175010Y1530096D1*
X1176524Y1521157D1*
X1179527Y1512602D1*
X1183933Y1504678D1*
X1189614Y1497613D1*
X1196407Y1491609D1*
X1204118Y1486840D1*
X1209626Y1484614D1*
X1209633Y1484424D1*
X1204313Y1482299D1*
X1196583Y1477561D1*
X1191196Y1472840D1*
X1190969Y1472793D1*
X1191514Y1478343D1*
X1190549Y1487587D1*
X1187742Y1496447D1*
X1183210Y1504561D1*
X1177137Y1511597D1*
X1169773Y1517266D1*
X1161418Y1521337D1*
X1152414Y1523642D1*
X1143131Y1524088D1*
X1133948Y1522656D1*
X1125241Y1519404D1*
X1117367Y1514467D1*
X1112137Y1509469D1*
X1124849Y1675367D1*
X1126223Y1674796D1*
X1132163Y1674247D1*
X1137682Y1676514D1*
X1141522Y1681086D1*
X1142751Y1685391D1*
X1155481Y1813968D1*
X1155398Y1817087D1*
X1153112Y1822602D1*
X616199Y2552045D2*
X614199Y2543017D1*
X610905Y2534378D1*
X606388Y2526309D1*
X600745Y2518985D1*
X594095Y2512560D1*
X592312Y2511282D1*
X593991Y2509924D1*
X600654Y2503514D1*
X606313Y2496202D1*
X610847Y2488143D1*
X614159Y2479511D1*
X616179Y2470488D1*
X616864Y2461199D1*
X616199Y2452045D1*
X614199Y2443017D1*
X610905Y2434378D1*
X606388Y2426309D1*
X600745Y2418985D1*
X594095Y2412560D1*
X586581Y2407172D1*
X578363Y2402935D1*
X569615Y2399940D1*
X560524Y2398251D1*
X551284Y2397904D1*
X542092Y2398905D1*
X533144Y2401234D1*
X524631Y2404841D1*
X516733Y2409649D1*
X509619Y2415556D1*
X503442Y2422436D1*
X498332Y2430142D1*
X494398Y2438510D1*
X491725Y2447361D1*
X490368Y2456508D1*
X490359Y2465754D1*
X491695Y2474903D1*
X494349Y2483760D1*
X498265Y2492136D1*
X503358Y2499853D1*
X509521Y2506746D1*
X514757Y2511113D1*
X509619Y2515556D1*
X503442Y2522436D1*
X498332Y2530142D1*
X494398Y2538510D1*
X491725Y2547361D1*
X490368Y2556508D1*
X490359Y2565754D1*
X491695Y2574903D1*
X494349Y2583760D1*
X498265Y2592136D1*
X503358Y2599853D1*
X509521Y2606746D1*
X516622Y2612669D1*
X524509Y2617494D1*
X533015Y2621119D1*
X541958Y2623468D1*
X551148Y2624489D1*
X560389Y2624161D1*
X569483Y2622491D1*
X578237Y2619515D1*
X586465Y2615296D1*
X593991Y2609924D1*
X600654Y2603514D1*
X606313Y2596202D1*
X610847Y2588143D1*
X614159Y2579511D1*
X616179Y2570488D1*
X616864Y2561199D1*
X616199Y2552045D1*
X616991Y2305915D2*
X614990Y2296887D1*
X611696Y2288248D1*
X607180Y2280179D1*
X601536Y2272855D1*
X594887Y2266430D1*
X593104Y2265152D1*
X594782Y2263795D1*
X601445Y2257384D1*
X607104Y2250072D1*
X611638Y2242013D1*
X614951Y2233381D1*
X616971Y2224358D1*
X617656Y2215069D1*
X616991Y2205915D1*
X614990Y2196887D1*
X611696Y2188248D1*
X607180Y2180179D1*
X601536Y2172855D1*
X594887Y2166430D1*
X587373Y2161042D1*
X579154Y2156805D1*
X570406Y2153811D1*
X561316Y2152121D1*
X552076Y2151774D1*
X542884Y2152775D1*
X533936Y2155104D1*
X525422Y2158711D1*
X517524Y2163519D1*
X510411Y2169426D1*
X504233Y2176306D1*
X499123Y2184012D1*
X495189Y2192380D1*
X492516Y2201231D1*
X491160Y2210378D1*
X491150Y2219624D1*
X492486Y2228773D1*
X495141Y2237630D1*
X499056Y2246007D1*
X504150Y2253723D1*
X510313Y2260616D1*
X515548Y2264983D1*
X510411Y2269426D1*
X504233Y2276306D1*
X499123Y2284012D1*
X495189Y2292380D1*
X492516Y2301231D1*
X491160Y2310378D1*
X491150Y2319624D1*
X492486Y2328773D1*
X495141Y2337630D1*
X499056Y2346007D1*
X504150Y2353723D1*
X510313Y2360616D1*
X517413Y2366539D1*
X525301Y2371364D1*
X533807Y2374989D1*
X542750Y2377338D1*
X551939Y2378359D1*
X561180Y2378031D1*
X570274Y2376361D1*
X579029Y2373385D1*
X587256Y2369166D1*
X594782Y2363795D1*
X601445Y2357384D1*
X607104Y2350072D1*
X611638Y2342013D1*
X614951Y2333381D1*
X616971Y2324358D1*
X617656Y2315069D1*
X616991Y2305915D1*
X616799Y2058514D2*
X614798Y2049487D1*
X611505Y2040847D1*
X606988Y2032779D1*
X601345Y2025455D1*
X594695Y2019030D1*
X592912Y2017751D1*
X594590Y2016394D1*
X601254Y2009984D1*
X606913Y2002672D1*
X611447Y1994613D1*
X614759Y1985981D1*
X616779Y1976958D1*
X617464Y1967669D1*
X616799Y1958514D1*
X614798Y1949487D1*
X611505Y1940847D1*
X606988Y1932779D1*
X601345Y1925455D1*
X594695Y1919030D1*
X587181Y1913642D1*
X578962Y1909405D1*
X570215Y1906410D1*
X561124Y1904721D1*
X551884Y1904373D1*
X542692Y1905375D1*
X533744Y1907704D1*
X525230Y1911311D1*
X517333Y1916119D1*
X510219Y1922026D1*
X504041Y1928906D1*
X498931Y1936612D1*
X494998Y1944980D1*
X492324Y1953831D1*
X490968Y1962977D1*
X490958Y1972224D1*
X492295Y1981373D1*
X494949Y1990230D1*
X498865Y1998606D1*
X503958Y2006323D1*
X510121Y2013216D1*
X515356Y2017583D1*
X510219Y2022026D1*
X504041Y2028906D1*
X498931Y2036612D1*
X494998Y2044980D1*
X492324Y2053831D1*
X490968Y2062977D1*
X490958Y2072224D1*
X492295Y2081373D1*
X494949Y2090230D1*
X498865Y2098606D1*
X503958Y2106323D1*
X510121Y2113216D1*
X517222Y2119138D1*
X525109Y2123964D1*
X533615Y2127589D1*
X542558Y2129937D1*
X551748Y2130959D1*
X560988Y2130631D1*
X570083Y2128961D1*
X578837Y2125985D1*
X587065Y2121766D1*
X594590Y2116394D1*
X601254Y2109984D1*
X606913Y2102672D1*
X611447Y2094613D1*
X614759Y2085981D1*
X616779Y2076958D1*
X617464Y2067669D1*
X616799Y2058514D1*
X1278244Y1515731D2*
X1274892Y1508356D1*
X1269800Y1500855D1*
X1263513Y1494322D1*
X1256213Y1488946D1*
X1248109Y1484881D1*
X1247067Y1484564D1*
X1248312Y1484078D1*
X1256399Y1479980D1*
X1263677Y1474574D1*
X1269937Y1468015D1*
X1274998Y1460494D1*
X1278233Y1453299D1*
X1279617Y1456637D1*
X1284055Y1464543D1*
X1289765Y1471585D1*
X1296583Y1477561D1*
X1304313Y1482299D1*
X1309633Y1484424D1*
X1304118Y1486840D1*
X1296407Y1491609D1*
X1289614Y1497613D1*
X1283933Y1504678D1*
X1279527Y1512602D1*
X1278375Y1515886D1*
X1378244Y1515731D2*
X1374892Y1508356D1*
X1369800Y1500855D1*
X1363513Y1494322D1*
X1356213Y1488946D1*
X1348109Y1484881D1*
X1347067Y1484564D1*
X1348312Y1484078D1*
X1356399Y1479980D1*
X1363677Y1474574D1*
X1369937Y1468015D1*
X1374998Y1460494D1*
X1378233Y1453299D1*
X1379617Y1456637D1*
X1384055Y1464543D1*
X1389765Y1471585D1*
X1396583Y1477561D1*
X1404313Y1482299D1*
X1409633Y1484424D1*
X1404118Y1486840D1*
X1396407Y1491609D1*
X1389614Y1497613D1*
X1383933Y1504678D1*
X1379527Y1512602D1*
X1378375Y1515886D1*
X1478244Y1515731D2*
X1474892Y1508356D1*
X1469800Y1500855D1*
X1463513Y1494322D1*
X1456213Y1488946D1*
X1448109Y1484881D1*
X1447067Y1484564D1*
X1448312Y1484078D1*
X1456399Y1479980D1*
X1463677Y1474574D1*
X1469937Y1468015D1*
X1474998Y1460494D1*
X1478233Y1453299D1*
X1479617Y1456637D1*
X1484055Y1464543D1*
X1489765Y1471585D1*
X1496583Y1477561D1*
X1504313Y1482299D1*
X1509633Y1484424D1*
X1504118Y1486840D1*
X1496407Y1491609D1*
X1489614Y1497613D1*
X1483933Y1504678D1*
X1479527Y1512602D1*
X1478375Y1515886D1*
X1578244Y1515731D2*
X1574892Y1508356D1*
X1569800Y1500855D1*
X1563513Y1494322D1*
X1556213Y1488946D1*
X1548109Y1484881D1*
X1547067Y1484564D1*
X1548312Y1484078D1*
X1556399Y1479980D1*
X1563677Y1474574D1*
X1569937Y1468015D1*
X1574998Y1460494D1*
X1578233Y1453299D1*
X1579617Y1456637D1*
X1584055Y1464543D1*
X1589765Y1471585D1*
X1596583Y1477561D1*
X1604313Y1482299D1*
X1609633Y1484424D1*
X1604118Y1486840D1*
X1596407Y1491609D1*
X1589614Y1497613D1*
X1583933Y1504678D1*
X1579527Y1512602D1*
X1578375Y1515886D1*
X1678244Y1515731D2*
X1674892Y1508356D1*
X1669800Y1500855D1*
X1663513Y1494322D1*
X1656213Y1488946D1*
X1648109Y1484881D1*
X1647067Y1484564D1*
X1648312Y1484078D1*
X1656399Y1479980D1*
X1663677Y1474574D1*
X1669937Y1468015D1*
X1674998Y1460494D1*
X1678233Y1453299D1*
X1679617Y1456637D1*
X1684055Y1464543D1*
X1689765Y1471585D1*
X1696583Y1477561D1*
X1704313Y1482299D1*
X1709633Y1484424D1*
X1704118Y1486840D1*
X1696407Y1491609D1*
X1689614Y1497613D1*
X1683933Y1504678D1*
X1679527Y1512602D1*
X1678375Y1515886D1*
X1778244Y1515731D2*
X1774892Y1508356D1*
X1769800Y1500855D1*
X1763513Y1494322D1*
X1756213Y1488946D1*
X1748109Y1484881D1*
X1747067Y1484564D1*
X1748312Y1484078D1*
X1756399Y1479980D1*
X1763677Y1474574D1*
X1769937Y1468015D1*
X1774998Y1460494D1*
X1778233Y1453299D1*
X1779617Y1456637D1*
X1784055Y1464543D1*
X1789765Y1471585D1*
X1796583Y1477561D1*
X1804313Y1482299D1*
X1809633Y1484424D1*
X1804118Y1486840D1*
X1796407Y1491609D1*
X1789614Y1497613D1*
X1783933Y1504678D1*
X1779527Y1512602D1*
X1778375Y1515886D1*
X1878244Y1515731D2*
X1874892Y1508356D1*
X1869800Y1500855D1*
X1863513Y1494322D1*
X1856213Y1488946D1*
X1848109Y1484881D1*
X1847067Y1484564D1*
X1848312Y1484078D1*
X1856399Y1479980D1*
X1863677Y1474574D1*
X1869937Y1468015D1*
X1874998Y1460494D1*
X1878233Y1453299D1*
X1879617Y1456637D1*
X1884055Y1464543D1*
X1889765Y1471585D1*
X1896583Y1477561D1*
X1904313Y1482299D1*
X1909633Y1484424D1*
X1904118Y1486840D1*
X1896407Y1491609D1*
X1889614Y1497613D1*
X1883933Y1504678D1*
X1879527Y1512602D1*
X1878375Y1515886D1*
X1978244Y1515731D2*
X1974892Y1508356D1*
X1969800Y1500855D1*
X1963513Y1494322D1*
X1956213Y1488946D1*
X1948109Y1484881D1*
X1947067Y1484564D1*
X1948312Y1484078D1*
X1956399Y1479980D1*
X1963677Y1474574D1*
X1969937Y1468015D1*
X1974998Y1460494D1*
X1978233Y1453299D1*
X1979617Y1456637D1*
X1984055Y1464543D1*
X1989765Y1471585D1*
X1996583Y1477561D1*
X2004313Y1482299D1*
X2009633Y1484424D1*
X2004118Y1486840D1*
X1996407Y1491609D1*
X1989614Y1497613D1*
X1983933Y1504678D1*
X1979527Y1512602D1*
X1978375Y1515886D1*
X2078244Y1515731D2*
X2074892Y1508356D1*
X2069800Y1500855D1*
X2063513Y1494322D1*
X2056213Y1488946D1*
X2048109Y1484881D1*
X2047067Y1484564D1*
X2048312Y1484078D1*
X2056399Y1479980D1*
X2063677Y1474574D1*
X2069937Y1468015D1*
X2074998Y1460494D1*
X2078233Y1453299D1*
X2079617Y1456637D1*
X2084055Y1464543D1*
X2089765Y1471585D1*
X2096583Y1477561D1*
X2104313Y1482299D1*
X2109633Y1484424D1*
X2104118Y1486840D1*
X2096407Y1491609D1*
X2089614Y1497613D1*
X2083933Y1504678D1*
X2079527Y1512602D1*
X2078375Y1515886D1*
X2178244Y1515731D2*
X2174892Y1508356D1*
X2169800Y1500855D1*
X2163513Y1494322D1*
X2156213Y1488946D1*
X2148109Y1484881D1*
X2147067Y1484564D1*
X2148312Y1484078D1*
X2156399Y1479980D1*
X2163677Y1474574D1*
X2169937Y1468015D1*
X2174998Y1460494D1*
X2178233Y1453299D1*
X2179617Y1456637D1*
X2184055Y1464543D1*
X2189765Y1471585D1*
X2196583Y1477561D1*
X2204313Y1482299D1*
X2209633Y1484424D1*
X2204118Y1486840D1*
X2196407Y1491609D1*
X2189614Y1497613D1*
X2183933Y1504678D1*
X2179527Y1512602D1*
X2178375Y1515886D1*
X2278244Y1515731D2*
X2274892Y1508356D1*
X2269800Y1500855D1*
X2263513Y1494322D1*
X2256213Y1488946D1*
X2248109Y1484881D1*
X2247067Y1484564D1*
X2248312Y1484078D1*
X2256399Y1479980D1*
X2263677Y1474574D1*
X2269937Y1468015D1*
X2274998Y1460494D1*
X2278233Y1453299D1*
X2279617Y1456637D1*
X2284055Y1464543D1*
X2289765Y1471585D1*
X2296583Y1477561D1*
X2304313Y1482299D1*
X2309633Y1484424D1*
X2304118Y1486840D1*
X2296407Y1491609D1*
X2289614Y1497613D1*
X2283933Y1504678D1*
X2279527Y1512602D1*
X2278375Y1515886D1*
X2378244Y1515731D2*
X2374892Y1508356D1*
X2369800Y1500855D1*
X2363513Y1494322D1*
X2356213Y1488946D1*
X2348109Y1484881D1*
X2347067Y1484564D1*
X2348312Y1484078D1*
X2356399Y1479980D1*
X2363677Y1474574D1*
X2369937Y1468015D1*
X2374998Y1460494D1*
X2378233Y1453299D1*
X2379617Y1456637D1*
X2384055Y1464543D1*
X2389765Y1471585D1*
X2396583Y1477561D1*
X2404313Y1482299D1*
X2409633Y1484424D1*
X2404118Y1486840D1*
X2396407Y1491609D1*
X2389614Y1497613D1*
X2383933Y1504678D1*
X2379527Y1512602D1*
X2378375Y1515886D1*
X2478244Y1515731D2*
X2474892Y1508356D1*
X2469800Y1500855D1*
X2463513Y1494322D1*
X2456213Y1488946D1*
X2448109Y1484881D1*
X2447067Y1484564D1*
X2448312Y1484078D1*
X2456399Y1479980D1*
X2463677Y1474574D1*
X2469937Y1468015D1*
X2474998Y1460494D1*
X2478233Y1453299D1*
X2479617Y1456637D1*
X2484055Y1464543D1*
X2489765Y1471585D1*
X2496583Y1477561D1*
X2504313Y1482299D1*
X2509633Y1484424D1*
X2504118Y1486840D1*
X2496407Y1491609D1*
X2489614Y1497613D1*
X2483933Y1504678D1*
X2479527Y1512602D1*
X2478375Y1515886D1*
X2578244Y1515731D2*
X2574892Y1508356D1*
X2569800Y1500855D1*
X2563513Y1494322D1*
X2556213Y1488946D1*
X2548109Y1484881D1*
X2547067Y1484564D1*
X2548312Y1484078D1*
X2556399Y1479980D1*
X2563677Y1474574D1*
X2569937Y1468015D1*
X2574998Y1460494D1*
X2578233Y1453299D1*
X2579617Y1456637D1*
X2584055Y1464543D1*
X2589765Y1471585D1*
X2596583Y1477561D1*
X2604313Y1482299D1*
X2609633Y1484424D1*
X2604118Y1486840D1*
X2596407Y1491609D1*
X2589614Y1497613D1*
X2583933Y1504678D1*
X2579527Y1512602D1*
X2578375Y1515886D1*
X2678244Y1515731D2*
X2674892Y1508356D1*
X2669800Y1500855D1*
X2663513Y1494322D1*
X2656213Y1488946D1*
X2648109Y1484881D1*
X2647067Y1484564D1*
X2648312Y1484078D1*
X2656399Y1479980D1*
X2663677Y1474574D1*
X2669937Y1468015D1*
X2674998Y1460494D1*
X2678233Y1453299D1*
X2679617Y1456637D1*
X2684055Y1464543D1*
X2689765Y1471585D1*
X2696583Y1477561D1*
X2704313Y1482299D1*
X2709633Y1484424D1*
X2704118Y1486840D1*
X2696407Y1491609D1*
X2689614Y1497613D1*
X2683933Y1504678D1*
X2679527Y1512602D1*
X2678375Y1515886D1*
X2778244Y1515731D2*
X2774892Y1508356D1*
X2769800Y1500855D1*
X2763513Y1494322D1*
X2756213Y1488946D1*
X2748109Y1484881D1*
X2747067Y1484564D1*
X2748312Y1484078D1*
X2756399Y1479980D1*
X2763677Y1474574D1*
X2769937Y1468015D1*
X2774998Y1460494D1*
X2778233Y1453299D1*
X2779617Y1456637D1*
X2784055Y1464543D1*
X2789765Y1471585D1*
X2796583Y1477561D1*
X2804313Y1482299D1*
X2809633Y1484424D1*
X2804118Y1486840D1*
X2796407Y1491609D1*
X2789614Y1497613D1*
X2783933Y1504678D1*
X2779527Y1512602D1*
X2778375Y1515886D1*
X2878244Y1515731D2*
X2874892Y1508356D1*
X2869800Y1500855D1*
X2863513Y1494322D1*
X2856213Y1488946D1*
X2848109Y1484881D1*
X2847067Y1484564D1*
X2848312Y1484078D1*
X2856399Y1479980D1*
X2863677Y1474574D1*
X2869937Y1468015D1*
X2874998Y1460494D1*
X2878233Y1453299D1*
X2879617Y1456637D1*
X2884055Y1464543D1*
X2889765Y1471585D1*
X2896583Y1477561D1*
X2904313Y1482299D1*
X2909633Y1484424D1*
X2904118Y1486840D1*
X2896407Y1491609D1*
X2889614Y1497613D1*
X2883933Y1504678D1*
X2879527Y1512602D1*
X2878375Y1515886D1*
X2978244Y1515731D2*
X2974892Y1508356D1*
X2969800Y1500855D1*
X2963513Y1494322D1*
X2956213Y1488946D1*
X2948109Y1484881D1*
X2947067Y1484564D1*
X2948312Y1484078D1*
X2956399Y1479980D1*
X2963677Y1474574D1*
X2969937Y1468015D1*
X2974998Y1460494D1*
X2978233Y1453299D1*
X2981408Y1460215D1*
X2986425Y1467767D1*
X2992645Y1474362D1*
X2999891Y1479812D1*
X3007954Y1483958D1*
X3009550Y1484461D1*
X3004118Y1486840D1*
X2996407Y1491609D1*
X2989614Y1497613D1*
X2983933Y1504678D1*
X2979527Y1512602D1*
X2978375Y1515886D1*
X3078244Y1515731D2*
X3074892Y1508356D1*
X3069800Y1500855D1*
X3063513Y1494322D1*
X3056213Y1488946D1*
X3048109Y1484881D1*
X3047067Y1484564D1*
X3051962Y1482441D1*
X3059720Y1477749D1*
X3066574Y1471814D1*
X3072326Y1464806D1*
X3076810Y1456926D1*
X3078177Y1453155D1*
X3081408Y1460215D1*
X3086425Y1467767D1*
X3092645Y1474362D1*
X3099891Y1479812D1*
X3107954Y1483958D1*
X3109550Y1484461D1*
X3104118Y1486840D1*
X3096407Y1491609D1*
X3089614Y1497613D1*
X3083933Y1504678D1*
X3079527Y1512602D1*
X3078375Y1515886D1*
X3108120Y1385074D2*
X3100619Y1388781D1*
X3093287Y1394113D1*
X3086961Y1400609D1*
X3081825Y1408079D1*
X3078310Y1415692D1*
X3078244Y1415731D1*
X3074892Y1408356D1*
X3069800Y1400855D1*
X3063513Y1394322D1*
X3056213Y1388946D1*
X3048449Y1385052D1*
X3056769Y1380882D1*
X3064204Y1375397D1*
X3070606Y1368733D1*
X3075789Y1361084D1*
X3078163Y1355849D1*
X3081953Y1363152D1*
X3087468Y1370565D1*
X3094157Y1376940D1*
X3101827Y1382093D1*
X3108240Y1384970D1*
X3794841Y1622466D2*
X3792840Y1613439D1*
X3789547Y1604799D1*
X3785030Y1596731D1*
X3779387Y1589406D1*
X3772737Y1582981D1*
X3765223Y1577593D1*
X3757004Y1573357D1*
X3748257Y1570362D1*
X3739166Y1568672D1*
X3729926Y1568325D1*
X3720734Y1569326D1*
X3711786Y1571655D1*
X3703272Y1575262D1*
X3695375Y1580071D1*
X3688261Y1585978D1*
X3682083Y1592857D1*
X3676973Y1600563D1*
X3673040Y1608931D1*
X3670366Y1617782D1*
X3669010Y1626929D1*
X3669000Y1636175D1*
X3670337Y1645324D1*
X3672991Y1654181D1*
X3676907Y1662558D1*
X3682000Y1670275D1*
X3688163Y1677168D1*
X3693398Y1681534D1*
X3688261Y1685978D1*
X3682083Y1692857D1*
X3676973Y1700563D1*
X3673040Y1708931D1*
X3670366Y1717782D1*
X3669010Y1726929D1*
X3669000Y1736175D1*
X3670337Y1745324D1*
X3672991Y1754181D1*
X3676907Y1762558D1*
X3682000Y1770275D1*
X3688163Y1777168D1*
X3693398Y1781534D1*
X3688261Y1785978D1*
X3682083Y1792857D1*
X3676973Y1800563D1*
X3673040Y1808931D1*
X3670366Y1817782D1*
X3669010Y1826929D1*
X3669000Y1836175D1*
X3670337Y1845324D1*
X3672991Y1854181D1*
X3676907Y1862558D1*
X3682000Y1870275D1*
X3688163Y1877168D1*
X3693398Y1881534D1*
X3688261Y1885978D1*
X3682083Y1892857D1*
X3676973Y1900563D1*
X3673040Y1908931D1*
X3670366Y1917782D1*
X3669010Y1926929D1*
X3669000Y1936175D1*
X3670337Y1945324D1*
X3672991Y1954181D1*
X3676907Y1962558D1*
X3682000Y1970275D1*
X3688163Y1977168D1*
X3693398Y1981534D1*
X3688261Y1985978D1*
X3682083Y1992857D1*
X3676973Y2000563D1*
X3673040Y2008931D1*
X3670366Y2017782D1*
X3669010Y2026929D1*
X3669000Y2036175D1*
X3670337Y2045324D1*
X3672991Y2054181D1*
X3676907Y2062558D1*
X3682000Y2070275D1*
X3688163Y2077168D1*
X3693398Y2081534D1*
X3688261Y2085978D1*
X3682083Y2092857D1*
X3676973Y2100563D1*
X3673040Y2108931D1*
X3670366Y2117782D1*
X3669010Y2126929D1*
X3669000Y2136175D1*
X3670337Y2145324D1*
X3672991Y2154181D1*
X3676907Y2162558D1*
X3682000Y2170275D1*
X3688163Y2177168D1*
X3693398Y2181534D1*
X3688261Y2185978D1*
X3682083Y2192857D1*
X3676973Y2200563D1*
X3673040Y2208931D1*
X3670366Y2217782D1*
X3669010Y2226929D1*
X3669000Y2236175D1*
X3670337Y2245324D1*
X3672991Y2254181D1*
X3676907Y2262558D1*
X3682000Y2270275D1*
X3688163Y2277168D1*
X3693398Y2281534D1*
X3688261Y2285978D1*
X3682083Y2292857D1*
X3676973Y2300563D1*
X3673040Y2308931D1*
X3670366Y2317782D1*
X3669010Y2326929D1*
X3669000Y2336175D1*
X3670337Y2345324D1*
X3672991Y2354181D1*
X3676907Y2362558D1*
X3682000Y2370275D1*
X3688163Y2377168D1*
X3693398Y2381534D1*
X3688261Y2385978D1*
X3682083Y2392857D1*
X3676973Y2400563D1*
X3673040Y2408931D1*
X3670366Y2417782D1*
X3669010Y2426929D1*
X3669000Y2436175D1*
X3670337Y2445324D1*
X3672991Y2454181D1*
X3676907Y2462558D1*
X3682000Y2470275D1*
X3688163Y2477168D1*
X3693398Y2481534D1*
X3688261Y2485978D1*
X3682083Y2492857D1*
X3676973Y2500563D1*
X3673040Y2508931D1*
X3670366Y2517782D1*
X3669010Y2526929D1*
X3669000Y2536175D1*
X3670337Y2545324D1*
X3672991Y2554181D1*
X3676907Y2562558D1*
X3682000Y2570275D1*
X3688163Y2577168D1*
X3695264Y2583090D1*
X3703151Y2587915D1*
X3711657Y2591541D1*
X3720600Y2593889D1*
X3729790Y2594910D1*
X3739030Y2594582D1*
X3748125Y2592913D1*
X3756879Y2589937D1*
X3765107Y2585718D1*
X3772632Y2580346D1*
X3779296Y2573935D1*
X3784955Y2566623D1*
X3789489Y2558565D1*
X3792801Y2549932D1*
X3794821Y2540909D1*
X3795506Y2531620D1*
X3794841Y2522466D1*
X3792840Y2513439D1*
X3789547Y2504799D1*
X3785030Y2496731D1*
X3779387Y2489406D1*
X3772737Y2482981D1*
X3770954Y2481703D1*
X3772632Y2480346D1*
X3779296Y2473935D1*
X3784955Y2466623D1*
X3789489Y2458565D1*
X3792801Y2449932D1*
X3794821Y2440909D1*
X3795506Y2431620D1*
X3794841Y2422466D1*
X3792840Y2413439D1*
X3789547Y2404799D1*
X3785030Y2396731D1*
X3779387Y2389406D1*
X3772737Y2382981D1*
X3770954Y2381703D1*
X3772632Y2380346D1*
X3779296Y2373935D1*
X3784955Y2366623D1*
X3789489Y2358565D1*
X3792801Y2349932D1*
X3794821Y2340909D1*
X3795506Y2331620D1*
X3794841Y2322466D1*
X3792840Y2313439D1*
X3789547Y2304799D1*
X3785030Y2296731D1*
X3779387Y2289406D1*
X3772737Y2282981D1*
X3770954Y2281703D1*
X3772632Y2280346D1*
X3779296Y2273935D1*
X3784955Y2266623D1*
X3789489Y2258565D1*
X3792801Y2249932D1*
X3794821Y2240909D1*
X3795506Y2231620D1*
X3794841Y2222466D1*
X3792840Y2213439D1*
X3789547Y2204799D1*
X3785030Y2196731D1*
X3779387Y2189406D1*
X3772737Y2182981D1*
X3770954Y2181703D1*
X3772632Y2180346D1*
X3779296Y2173935D1*
X3784955Y2166623D1*
X3789489Y2158565D1*
X3792801Y2149932D1*
X3794821Y2140909D1*
X3795506Y2131620D1*
X3794841Y2122466D1*
X3792840Y2113439D1*
X3789547Y2104799D1*
X3785030Y2096731D1*
X3779387Y2089406D1*
X3772737Y2082981D1*
X3770954Y2081703D1*
X3772632Y2080346D1*
X3779296Y2073935D1*
X3784955Y2066623D1*
X3789489Y2058565D1*
X3792801Y2049932D1*
X3794821Y2040909D1*
X3795506Y2031620D1*
X3794841Y2022466D1*
X3792840Y2013439D1*
X3789547Y2004799D1*
X3785030Y1996731D1*
X3779387Y1989406D1*
X3772737Y1982981D1*
X3770954Y1981703D1*
X3772632Y1980346D1*
X3779296Y1973935D1*
X3784955Y1966623D1*
X3789489Y1958565D1*
X3792801Y1949932D1*
X3794821Y1940909D1*
X3795506Y1931620D1*
X3794841Y1922466D1*
X3792840Y1913439D1*
X3789547Y1904799D1*
X3785030Y1896731D1*
X3779387Y1889406D1*
X3772737Y1882981D1*
X3770954Y1881703D1*
X3772632Y1880346D1*
X3779296Y1873935D1*
X3784955Y1866623D1*
X3789489Y1858565D1*
X3792801Y1849932D1*
X3794821Y1840909D1*
X3795506Y1831620D1*
X3794841Y1822466D1*
X3792840Y1813439D1*
X3789547Y1804799D1*
X3785030Y1796731D1*
X3779387Y1789406D1*
X3772737Y1782981D1*
X3770954Y1781703D1*
X3772632Y1780346D1*
X3779296Y1773935D1*
X3784955Y1766623D1*
X3789489Y1758565D1*
X3792801Y1749932D1*
X3794821Y1740909D1*
X3795506Y1731620D1*
X3794841Y1722466D1*
X3792840Y1713439D1*
X3789547Y1704799D1*
X3785030Y1696731D1*
X3779387Y1689406D1*
X3772737Y1682981D1*
X3770954Y1681703D1*
X3772632Y1680346D1*
X3779296Y1673935D1*
X3784955Y1666623D1*
X3789489Y1658565D1*
X3792801Y1649932D1*
X3794821Y1640909D1*
X3795506Y1631620D1*
X3794841Y1622466D1*
X3794391Y546096D2*
X3792390Y537068D1*
X3789096Y528429D1*
X3784580Y520361D1*
X3778937Y513036D1*
X3772287Y506611D1*
X3764773Y501223D1*
X3756554Y496987D1*
X3747806Y493992D1*
X3738716Y492302D1*
X3729476Y491955D1*
X3720284Y492956D1*
X3711336Y495285D1*
X3702822Y498892D1*
X3694924Y503701D1*
X3687811Y509608D1*
X3681633Y516487D1*
X3676523Y524193D1*
X3672590Y532561D1*
X3669916Y541412D1*
X3668560Y550559D1*
X3668550Y559805D1*
X3669887Y568954D1*
X3672541Y577811D1*
X3676456Y586188D1*
X3681550Y593905D1*
X3687713Y600798D1*
X3692948Y605164D1*
X3687811Y609608D1*
X3681633Y616487D1*
X3676523Y624193D1*
X3672590Y632561D1*
X3669916Y641412D1*
X3668560Y650559D1*
X3668550Y659805D1*
X3669887Y668954D1*
X3672541Y677811D1*
X3676456Y686188D1*
X3681550Y693905D1*
X3687713Y700798D1*
X3692948Y705164D1*
X3687811Y709608D1*
X3681633Y716487D1*
X3676523Y724193D1*
X3672590Y732561D1*
X3669916Y741412D1*
X3668560Y750559D1*
X3668550Y759805D1*
X3669887Y768954D1*
X3672541Y777811D1*
X3676456Y786188D1*
X3681550Y793905D1*
X3687713Y800798D1*
X3692948Y805164D1*
X3687811Y809608D1*
X3681633Y816487D1*
X3676523Y824193D1*
X3672590Y832561D1*
X3669916Y841412D1*
X3668560Y850559D1*
X3668550Y859805D1*
X3669887Y868954D1*
X3672541Y877811D1*
X3676456Y886188D1*
X3681550Y893905D1*
X3687713Y900798D1*
X3692948Y905164D1*
X3687811Y909608D1*
X3681633Y916487D1*
X3676523Y924193D1*
X3672590Y932561D1*
X3669916Y941412D1*
X3668560Y950559D1*
X3668550Y959805D1*
X3669887Y968954D1*
X3672541Y977811D1*
X3676456Y986188D1*
X3681550Y993905D1*
X3687713Y1000798D1*
X3692948Y1005164D1*
X3687811Y1009608D1*
X3681633Y1016487D1*
X3676523Y1024193D1*
X3672590Y1032561D1*
X3669916Y1041412D1*
X3668560Y1050559D1*
X3668550Y1059805D1*
X3669887Y1068954D1*
X3672541Y1077811D1*
X3676456Y1086188D1*
X3681550Y1093905D1*
X3687713Y1100798D1*
X3692948Y1105164D1*
X3687811Y1109608D1*
X3681633Y1116487D1*
X3676523Y1124193D1*
X3672590Y1132561D1*
X3669916Y1141412D1*
X3668560Y1150559D1*
X3668550Y1159805D1*
X3669887Y1168954D1*
X3672541Y1177811D1*
X3676456Y1186188D1*
X3681550Y1193905D1*
X3687713Y1200798D1*
X3692948Y1205164D1*
X3687811Y1209608D1*
X3681633Y1216487D1*
X3676523Y1224193D1*
X3672590Y1232561D1*
X3669916Y1241412D1*
X3668560Y1250559D1*
X3668550Y1259805D1*
X3669887Y1268954D1*
X3672541Y1277811D1*
X3676456Y1286188D1*
X3681550Y1293905D1*
X3687713Y1300798D1*
X3692948Y1305164D1*
X3687811Y1309608D1*
X3681633Y1316487D1*
X3676523Y1324193D1*
X3672590Y1332561D1*
X3669916Y1341412D1*
X3668560Y1350559D1*
X3668550Y1359805D1*
X3669887Y1368954D1*
X3672541Y1377811D1*
X3676456Y1386188D1*
X3681550Y1393905D1*
X3687713Y1400798D1*
X3692948Y1405164D1*
X3687811Y1409608D1*
X3681633Y1416487D1*
X3676523Y1424193D1*
X3672590Y1432561D1*
X3669916Y1441412D1*
X3668560Y1450559D1*
X3668550Y1459805D1*
X3669887Y1468954D1*
X3672541Y1477811D1*
X3676456Y1486188D1*
X3681550Y1493905D1*
X3687713Y1500798D1*
X3694814Y1506720D1*
X3702701Y1511545D1*
X3711207Y1515170D1*
X3720150Y1517519D1*
X3729340Y1518540D1*
X3738580Y1518212D1*
X3747675Y1516543D1*
X3756429Y1513567D1*
X3764656Y1509348D1*
X3772182Y1503976D1*
X3778846Y1497565D1*
X3784505Y1490253D1*
X3789039Y1482195D1*
X3792351Y1473562D1*
X3794371Y1464539D1*
X3795056Y1455250D1*
X3794391Y1446096D1*
X3792390Y1437068D1*
X3789096Y1428429D1*
X3784580Y1420361D1*
X3778937Y1413036D1*
X3772287Y1406611D1*
X3770504Y1405333D1*
X3772182Y1403976D1*
X3778846Y1397565D1*
X3784505Y1390253D1*
X3789039Y1382195D1*
X3792351Y1373562D1*
X3794371Y1364539D1*
X3795056Y1355250D1*
X3794391Y1346096D1*
X3792390Y1337068D1*
X3789096Y1328429D1*
X3784580Y1320361D1*
X3778937Y1313036D1*
X3772287Y1306611D1*
X3770504Y1305333D1*
X3772182Y1303976D1*
X3778846Y1297565D1*
X3784505Y1290253D1*
X3789039Y1282195D1*
X3792351Y1273562D1*
X3794371Y1264539D1*
X3795056Y1255250D1*
X3794391Y1246096D1*
X3792390Y1237068D1*
X3789096Y1228429D1*
X3784580Y1220361D1*
X3778937Y1213036D1*
X3772287Y1206611D1*
X3770504Y1205333D1*
X3772182Y1203976D1*
X3778846Y1197565D1*
X3784505Y1190253D1*
X3789039Y1182195D1*
X3792351Y1173562D1*
X3794371Y1164539D1*
X3795056Y1155250D1*
X3794391Y1146096D1*
X3792390Y1137068D1*
X3789096Y1128429D1*
X3784580Y1120361D1*
X3778937Y1113036D1*
X3772287Y1106611D1*
X3770504Y1105333D1*
X3772182Y1103976D1*
X3778846Y1097565D1*
X3784505Y1090253D1*
X3789039Y1082195D1*
X3792351Y1073562D1*
X3794371Y1064539D1*
X3795056Y1055250D1*
X3794391Y1046096D1*
X3792390Y1037068D1*
X3789096Y1028429D1*
X3784580Y1020361D1*
X3778937Y1013036D1*
X3772287Y1006611D1*
X3770504Y1005333D1*
X3772182Y1003976D1*
X3778846Y997565D1*
X3784505Y990253D1*
X3789039Y982195D1*
X3792351Y973562D1*
X3794371Y964539D1*
X3795056Y955250D1*
X3794391Y946096D1*
X3792390Y937068D1*
X3789096Y928429D1*
X3784580Y920361D1*
X3778937Y913036D1*
X3772287Y906611D1*
X3770504Y905333D1*
X3772182Y903976D1*
X3778846Y897565D1*
X3784505Y890253D1*
X3789039Y882195D1*
X3792351Y873562D1*
X3794371Y864539D1*
X3795056Y855250D1*
X3794391Y846096D1*
X3792390Y837068D1*
X3789096Y828429D1*
X3784580Y820361D1*
X3778937Y813036D1*
X3772287Y806611D1*
X3770504Y805333D1*
X3772182Y803976D1*
X3778846Y797565D1*
X3784505Y790253D1*
X3789039Y782195D1*
X3792351Y773562D1*
X3794371Y764539D1*
X3795056Y755250D1*
X3794391Y746096D1*
X3792390Y737068D1*
X3789096Y728429D1*
X3784580Y720361D1*
X3778937Y713036D1*
X3772287Y706611D1*
X3770504Y705333D1*
X3772182Y703976D1*
X3778846Y697565D1*
X3784505Y690253D1*
X3789039Y682195D1*
X3792351Y673562D1*
X3794371Y664539D1*
X3795056Y655250D1*
X3794391Y646096D1*
X3792390Y637068D1*
X3789096Y628429D1*
X3784580Y620361D1*
X3778937Y613036D1*
X3772287Y606611D1*
X3770504Y605333D1*
X3772182Y603976D1*
X3778846Y597565D1*
X3784505Y590253D1*
X3789039Y582195D1*
X3792351Y573562D1*
X3794371Y564539D1*
X3795056Y555250D1*
X3794391Y546096D1*
X1278436Y1890809D2*
X1275793Y1886497D1*
X1269838Y1879528D1*
X1262867Y1873576D1*
X1255051Y1868789D1*
X1246582Y1865282D1*
X1237668Y1863144D1*
X1228530Y1862427D1*
X1219393Y1863148D1*
X1210480Y1865289D1*
X1202012Y1868798D1*
X1194198Y1873589D1*
X1187229Y1879543D1*
X1181277Y1886514D1*
X1176489Y1894331D1*
X1172983Y1902800D1*
X1170845Y1911713D1*
X1170128Y1920851D1*
X1170848Y1929989D1*
X1172990Y1938901D1*
X1176499Y1947369D1*
X1181290Y1955184D1*
X1187244Y1962153D1*
X1194215Y1968104D1*
X1198513Y1970737D1*
X1194198Y1973589D1*
X1187229Y1979543D1*
X1181277Y1986514D1*
X1176489Y1994331D1*
X1172983Y2002800D1*
X1170845Y2011713D1*
X1170128Y2020851D1*
X1170848Y2029989D1*
X1172990Y2038901D1*
X1176499Y2047369D1*
X1181290Y2055184D1*
X1187244Y2062153D1*
X1194215Y2068104D1*
X1202032Y2072892D1*
X1210501Y2076398D1*
X1219414Y2078537D1*
X1228552Y2079254D1*
X1237690Y2078533D1*
X1246602Y2076392D1*
X1255070Y2072882D1*
X1262885Y2068092D1*
X1269854Y2062137D1*
X1275805Y2055166D1*
X1278438Y2050869D1*
X1281290Y2055184D1*
X1287244Y2062153D1*
X1294215Y2068104D1*
X1302032Y2072892D1*
X1310501Y2076398D1*
X1319414Y2078537D1*
X1328552Y2079254D1*
X1337690Y2078533D1*
X1346602Y2076392D1*
X1355070Y2072882D1*
X1362885Y2068092D1*
X1369854Y2062137D1*
X1375805Y2055166D1*
X1378438Y2050869D1*
X1381290Y2055184D1*
X1387244Y2062153D1*
X1394215Y2068104D1*
X1402032Y2072892D1*
X1410501Y2076398D1*
X1419414Y2078537D1*
X1428552Y2079254D1*
X1437690Y2078533D1*
X1446602Y2076392D1*
X1455070Y2072882D1*
X1462885Y2068092D1*
X1469854Y2062137D1*
X1475805Y2055166D1*
X1478438Y2050869D1*
X1481290Y2055184D1*
X1487244Y2062153D1*
X1494215Y2068104D1*
X1502032Y2072892D1*
X1510501Y2076398D1*
X1519414Y2078537D1*
X1528552Y2079254D1*
X1537690Y2078533D1*
X1546602Y2076392D1*
X1555070Y2072882D1*
X1562885Y2068092D1*
X1569854Y2062137D1*
X1575805Y2055166D1*
X1578438Y2050869D1*
X1581290Y2055184D1*
X1587244Y2062153D1*
X1594215Y2068104D1*
X1602032Y2072892D1*
X1610501Y2076398D1*
X1619414Y2078537D1*
X1628552Y2079254D1*
X1637690Y2078533D1*
X1646602Y2076392D1*
X1655070Y2072882D1*
X1662885Y2068092D1*
X1669854Y2062137D1*
X1675805Y2055166D1*
X1678438Y2050869D1*
X1681290Y2055184D1*
X1687244Y2062153D1*
X1694215Y2068104D1*
X1702032Y2072892D1*
X1710501Y2076398D1*
X1719414Y2078537D1*
X1728552Y2079254D1*
X1737690Y2078533D1*
X1746602Y2076392D1*
X1755070Y2072882D1*
X1762885Y2068092D1*
X1769854Y2062137D1*
X1775805Y2055166D1*
X1778438Y2050869D1*
X1781290Y2055184D1*
X1787244Y2062153D1*
X1794215Y2068104D1*
X1802032Y2072892D1*
X1810501Y2076398D1*
X1819414Y2078537D1*
X1828552Y2079254D1*
X1837690Y2078533D1*
X1846602Y2076392D1*
X1855070Y2072882D1*
X1862885Y2068092D1*
X1869854Y2062137D1*
X1875805Y2055166D1*
X1878438Y2050869D1*
X1881290Y2055184D1*
X1887244Y2062153D1*
X1894215Y2068104D1*
X1902032Y2072892D1*
X1910501Y2076398D1*
X1919414Y2078537D1*
X1928552Y2079254D1*
X1937690Y2078533D1*
X1946602Y2076392D1*
X1955070Y2072882D1*
X1962885Y2068092D1*
X1969854Y2062137D1*
X1975805Y2055166D1*
X1978438Y2050869D1*
X1981290Y2055184D1*
X1987244Y2062153D1*
X1994215Y2068104D1*
X2002032Y2072892D1*
X2010501Y2076398D1*
X2019414Y2078537D1*
X2028552Y2079254D1*
X2037690Y2078533D1*
X2046602Y2076392D1*
X2055070Y2072882D1*
X2062885Y2068092D1*
X2069854Y2062137D1*
X2075805Y2055166D1*
X2078438Y2050869D1*
X2081290Y2055184D1*
X2087244Y2062153D1*
X2094215Y2068104D1*
X2102032Y2072892D1*
X2110501Y2076398D1*
X2119414Y2078537D1*
X2128552Y2079254D1*
X2137690Y2078533D1*
X2146602Y2076392D1*
X2155070Y2072882D1*
X2162885Y2068092D1*
X2169854Y2062137D1*
X2175805Y2055166D1*
X2178438Y2050869D1*
X2181290Y2055184D1*
X2187244Y2062153D1*
X2194215Y2068104D1*
X2202032Y2072892D1*
X2210501Y2076398D1*
X2219414Y2078537D1*
X2228552Y2079254D1*
X2237690Y2078533D1*
X2246602Y2076392D1*
X2255070Y2072882D1*
X2262885Y2068092D1*
X2269854Y2062137D1*
X2275805Y2055166D1*
X2278438Y2050869D1*
X2281290Y2055184D1*
X2287244Y2062153D1*
X2294215Y2068104D1*
X2302032Y2072892D1*
X2310501Y2076398D1*
X2319414Y2078537D1*
X2328552Y2079254D1*
X2337690Y2078533D1*
X2346602Y2076392D1*
X2355070Y2072882D1*
X2362885Y2068092D1*
X2369854Y2062137D1*
X2375805Y2055166D1*
X2378438Y2050869D1*
X2381290Y2055184D1*
X2387244Y2062153D1*
X2394215Y2068104D1*
X2402032Y2072892D1*
X2410501Y2076398D1*
X2419414Y2078537D1*
X2428552Y2079254D1*
X2437690Y2078533D1*
X2446602Y2076392D1*
X2455070Y2072882D1*
X2462885Y2068092D1*
X2469854Y2062137D1*
X2475805Y2055166D1*
X2478438Y2050869D1*
X2481290Y2055184D1*
X2487244Y2062153D1*
X2494215Y2068104D1*
X2502032Y2072892D1*
X2510501Y2076398D1*
X2519414Y2078537D1*
X2528552Y2079254D1*
X2537690Y2078533D1*
X2546602Y2076392D1*
X2555070Y2072882D1*
X2562885Y2068092D1*
X2569854Y2062137D1*
X2575805Y2055166D1*
X2578438Y2050869D1*
X2581290Y2055184D1*
X2587244Y2062153D1*
X2594215Y2068104D1*
X2602032Y2072892D1*
X2610501Y2076398D1*
X2619414Y2078537D1*
X2628552Y2079254D1*
X2637690Y2078533D1*
X2646602Y2076392D1*
X2655070Y2072882D1*
X2662885Y2068092D1*
X2669854Y2062137D1*
X2675805Y2055166D1*
X2678438Y2050869D1*
X2681290Y2055184D1*
X2687244Y2062153D1*
X2694215Y2068104D1*
X2702032Y2072892D1*
X2710501Y2076398D1*
X2719414Y2078537D1*
X2728552Y2079254D1*
X2737690Y2078533D1*
X2746602Y2076392D1*
X2755070Y2072882D1*
X2762885Y2068092D1*
X2769854Y2062137D1*
X2775805Y2055166D1*
X2778438Y2050869D1*
X2781290Y2055184D1*
X2787244Y2062153D1*
X2794215Y2068104D1*
X2802032Y2072892D1*
X2810501Y2076398D1*
X2819414Y2078537D1*
X2828552Y2079254D1*
X2837690Y2078533D1*
X2846602Y2076392D1*
X2855070Y2072882D1*
X2862885Y2068092D1*
X2869854Y2062137D1*
X2875805Y2055166D1*
X2878438Y2050869D1*
X2881290Y2055184D1*
X2887244Y2062153D1*
X2894215Y2068104D1*
X2902032Y2072892D1*
X2910501Y2076398D1*
X2919414Y2078537D1*
X2928552Y2079254D1*
X2937690Y2078533D1*
X2946602Y2076392D1*
X2955070Y2072882D1*
X2962885Y2068092D1*
X2969854Y2062137D1*
X2975805Y2055166D1*
X2978438Y2050869D1*
X2981290Y2055184D1*
X2987244Y2062153D1*
X2994215Y2068104D1*
X3002032Y2072892D1*
X3010501Y2076398D1*
X3019414Y2078537D1*
X3028552Y2079254D1*
X3037690Y2078533D1*
X3046602Y2076392D1*
X3055070Y2072882D1*
X3062885Y2068092D1*
X3069854Y2062137D1*
X3075805Y2055166D1*
X3078438Y2050869D1*
X3081290Y2055184D1*
X3087244Y2062153D1*
X3094215Y2068104D1*
X3102032Y2072892D1*
X3110501Y2076398D1*
X3119414Y2078537D1*
X3128552Y2079254D1*
X3137690Y2078533D1*
X3146602Y2076392D1*
X3155070Y2072882D1*
X3162885Y2068092D1*
X3169854Y2062137D1*
X3175805Y2055166D1*
X3180593Y2047350D1*
X3184099Y2038881D1*
X3186237Y2029968D1*
X3186955Y2020840D1*
X3186234Y2011692D1*
X3184093Y2002779D1*
X3180583Y1994312D1*
X3175793Y1986497D1*
X3169838Y1979528D1*
X3162867Y1973576D1*
X3158570Y1970944D1*
X3162885Y1968092D1*
X3169854Y1962137D1*
X3175805Y1955166D1*
X3180593Y1947350D1*
X3184099Y1938881D1*
X3186237Y1929968D1*
X3186955Y1920840D1*
X3186234Y1911692D1*
X3184093Y1902779D1*
X3180583Y1894312D1*
X3175793Y1886497D1*
X3169838Y1879528D1*
X3162867Y1873576D1*
X3155051Y1868789D1*
X3146582Y1865282D1*
X3137668Y1863144D1*
X3128530Y1862427D1*
X3119393Y1863148D1*
X3110480Y1865289D1*
X3102012Y1868798D1*
X3094198Y1873589D1*
X3087229Y1879543D1*
X3081277Y1886514D1*
X3078645Y1890812D1*
X3075793Y1886497D1*
X3069838Y1879528D1*
X3062867Y1873576D1*
X3055051Y1868789D1*
X3046582Y1865282D1*
X3037668Y1863144D1*
X3028530Y1862427D1*
X3019393Y1863148D1*
X3010480Y1865289D1*
X3002012Y1868798D1*
X2994198Y1873589D1*
X2987229Y1879543D1*
X2981277Y1886514D1*
X2978645Y1890812D1*
X2975793Y1886497D1*
X2969838Y1879528D1*
X2962867Y1873576D1*
X2955051Y1868789D1*
X2946582Y1865282D1*
X2937668Y1863144D1*
X2928530Y1862427D1*
X2919393Y1863148D1*
X2910480Y1865289D1*
X2902012Y1868798D1*
X2894198Y1873589D1*
X2887229Y1879543D1*
X2881277Y1886514D1*
X2878645Y1890812D1*
X2875793Y1886497D1*
X2869838Y1879528D1*
X2862867Y1873576D1*
X2855051Y1868789D1*
X2846582Y1865282D1*
X2837668Y1863144D1*
X2828530Y1862427D1*
X2819393Y1863148D1*
X2810480Y1865289D1*
X2802012Y1868798D1*
X2794198Y1873589D1*
X2787229Y1879543D1*
X2781277Y1886514D1*
X2778645Y1890812D1*
X2775793Y1886497D1*
X2769838Y1879528D1*
X2762867Y1873576D1*
X2755051Y1868789D1*
X2746582Y1865282D1*
X2737668Y1863144D1*
X2728530Y1862427D1*
X2719393Y1863148D1*
X2710480Y1865289D1*
X2702012Y1868798D1*
X2694198Y1873589D1*
X2687229Y1879543D1*
X2681277Y1886514D1*
X2678645Y1890812D1*
X2675793Y1886497D1*
X2669838Y1879528D1*
X2662867Y1873576D1*
X2655051Y1868789D1*
X2646582Y1865282D1*
X2637668Y1863144D1*
X2628530Y1862427D1*
X2619393Y1863148D1*
X2610480Y1865289D1*
X2602012Y1868798D1*
X2594198Y1873589D1*
X2587229Y1879543D1*
X2581277Y1886514D1*
X2578645Y1890812D1*
X2575793Y1886497D1*
X2569838Y1879528D1*
X2562867Y1873576D1*
X2555051Y1868789D1*
X2546582Y1865282D1*
X2537668Y1863144D1*
X2528530Y1862427D1*
X2519393Y1863148D1*
X2510480Y1865289D1*
X2502012Y1868798D1*
X2494198Y1873589D1*
X2487229Y1879543D1*
X2481277Y1886514D1*
X2478645Y1890812D1*
X2475793Y1886497D1*
X2469838Y1879528D1*
X2462867Y1873576D1*
X2455051Y1868789D1*
X2450361Y1866847D1*
X2452458Y1865421D1*
X2459397Y1859237D1*
X2464948Y1851784D1*
X2468886Y1843365D1*
X2471048Y1834326D1*
X2471456Y1828214D1*
X2470541Y1819089D1*
X2467782Y1810214D1*
X2463294Y1802076D1*
X2457259Y1795008D1*
X2449925Y1789299D1*
X2441592Y1785183D1*
X2432601Y1782830D1*
X2423320Y1782334D1*
X2414129Y1783717D1*
X2405405Y1786921D1*
X2397505Y1791816D1*
X2390751Y1798201D1*
X2385421Y1805815D1*
X2381733Y1814346D1*
X2379838Y1823445D1*
X2379813Y1832738D1*
X2381659Y1841847D1*
X2385301Y1850398D1*
X2390590Y1858040D1*
X2397309Y1864462D1*
X2403253Y1868189D1*
X2398766Y1870585D1*
X2391270Y1875862D1*
X2384693Y1882246D1*
X2379196Y1889581D1*
X2378589Y1890728D1*
X2375793Y1886497D1*
X2369838Y1879528D1*
X2362867Y1873576D1*
X2355051Y1868789D1*
X2346582Y1865282D1*
X2337668Y1863144D1*
X2328530Y1862427D1*
X2319393Y1863148D1*
X2310480Y1865289D1*
X2302012Y1868798D1*
X2294198Y1873589D1*
X2287229Y1879543D1*
X2281277Y1886514D1*
X2278645Y1890812D1*
X2275793Y1886497D1*
X2269838Y1879528D1*
X2262867Y1873576D1*
X2255051Y1868789D1*
X2246582Y1865282D1*
X2237668Y1863144D1*
X2228530Y1862427D1*
X2219393Y1863148D1*
X2210480Y1865289D1*
X2202012Y1868798D1*
X2194198Y1873589D1*
X2187229Y1879543D1*
X2181277Y1886514D1*
X2178645Y1890812D1*
X2175793Y1886497D1*
X2169838Y1879528D1*
X2162867Y1873576D1*
X2155051Y1868789D1*
X2146582Y1865282D1*
X2137668Y1863144D1*
X2128530Y1862427D1*
X2119393Y1863148D1*
X2110480Y1865289D1*
X2102012Y1868798D1*
X2094198Y1873589D1*
X2087229Y1879543D1*
X2081277Y1886514D1*
X2078645Y1890812D1*
X2075793Y1886497D1*
X2069838Y1879528D1*
X2062867Y1873576D1*
X2055051Y1868789D1*
X2046582Y1865282D1*
X2044826Y1864743D1*
X2043054Y1864258D1*
X2041267Y1863830D1*
X2038685Y1863321D1*
X2041112Y1862837D1*
X2042895Y1862393D1*
X2044658Y1861878D1*
X2046400Y1861294D1*
X2048117Y1860640D1*
X2056338Y1856305D1*
X2063518Y1850403D1*
X2069363Y1843177D1*
X2073634Y1834923D1*
X2076155Y1825977D1*
X2076845Y1818050D1*
X2075929Y1808925D1*
X2073171Y1800050D1*
X2068682Y1791912D1*
X2067592Y1790635D1*
X2070978Y1791666D1*
X2080161Y1793098D1*
X2089444Y1792652D1*
X2098448Y1790347D1*
X2106803Y1786276D1*
X2114168Y1780607D1*
X2120240Y1773572D1*
X2124773Y1765458D1*
X2127579Y1756598D1*
X2128544Y1747230D1*
X2127629Y1738105D1*
X2124870Y1729230D1*
X2120382Y1721091D1*
X2114347Y1714023D1*
X2107013Y1708315D1*
X2098679Y1704199D1*
X2089688Y1701845D1*
X2080408Y1701350D1*
X2071217Y1702732D1*
X2062493Y1705937D1*
X2054593Y1710832D1*
X2047839Y1717217D1*
X2042509Y1724831D1*
X2038821Y1733362D1*
X2036926Y1742460D1*
X2036901Y1751754D1*
X2038747Y1760863D1*
X2042389Y1769414D1*
X2046031Y1774675D1*
X2037989Y1772666D1*
X2028708Y1772170D1*
X2019518Y1773553D1*
X2010794Y1776757D1*
X2002893Y1781652D1*
X1996140Y1788037D1*
X1990810Y1795651D1*
X1987122Y1804182D1*
X1985226Y1813280D1*
X1985201Y1822574D1*
X1987048Y1831683D1*
X1990690Y1840234D1*
X1995979Y1847876D1*
X2002698Y1854298D1*
X2010572Y1859235D1*
X2019278Y1862486D1*
X2021042Y1862910D1*
X2019361Y1863153D1*
X2017551Y1863470D1*
X2015752Y1863844D1*
X2013966Y1864274D1*
X2012195Y1864761D1*
X2010439Y1865302D1*
X2008702Y1865899D1*
X2000351Y1869679D1*
X1992695Y1874719D1*
X1985921Y1880894D1*
X1980197Y1888053D1*
X1978634Y1890800D1*
X1975793Y1886497D1*
X1969838Y1879528D1*
X1962867Y1873576D1*
X1955051Y1868789D1*
X1946582Y1865282D1*
X1937668Y1863144D1*
X1928530Y1862427D1*
X1919393Y1863148D1*
X1910480Y1865289D1*
X1902012Y1868798D1*
X1894198Y1873589D1*
X1887229Y1879543D1*
X1881277Y1886514D1*
X1878645Y1890812D1*
X1875793Y1886497D1*
X1869838Y1879528D1*
X1862867Y1873576D1*
X1855051Y1868789D1*
X1846582Y1865282D1*
X1837668Y1863144D1*
X1828530Y1862427D1*
X1819393Y1863148D1*
X1810480Y1865289D1*
X1802012Y1868798D1*
X1794198Y1873589D1*
X1787229Y1879543D1*
X1781277Y1886514D1*
X1778645Y1890812D1*
X1775793Y1886497D1*
X1769838Y1879528D1*
X1762867Y1873576D1*
X1755051Y1868789D1*
X1746582Y1865282D1*
X1737668Y1863144D1*
X1728530Y1862427D1*
X1719393Y1863148D1*
X1710480Y1865289D1*
X1702012Y1868798D1*
X1694198Y1873589D1*
X1687229Y1879543D1*
X1681277Y1886514D1*
X1678645Y1890812D1*
X1675793Y1886497D1*
X1669838Y1879528D1*
X1662867Y1873576D1*
X1655051Y1868789D1*
X1646582Y1865282D1*
X1637668Y1863144D1*
X1628530Y1862427D1*
X1619393Y1863148D1*
X1610480Y1865289D1*
X1602012Y1868798D1*
X1594198Y1873589D1*
X1587229Y1879543D1*
X1581277Y1886514D1*
X1578645Y1890812D1*
X1575793Y1886497D1*
X1569838Y1879528D1*
X1562867Y1873576D1*
X1555051Y1868789D1*
X1546582Y1865282D1*
X1537668Y1863144D1*
X1528530Y1862427D1*
X1519393Y1863148D1*
X1510480Y1865289D1*
X1502012Y1868798D1*
X1494198Y1873589D1*
X1487229Y1879543D1*
X1481277Y1886514D1*
X1478645Y1890812D1*
X1475793Y1886497D1*
X1469838Y1879528D1*
X1462867Y1873576D1*
X1455051Y1868789D1*
X1446582Y1865282D1*
X1437668Y1863144D1*
X1428530Y1862427D1*
X1419393Y1863148D1*
X1410480Y1865289D1*
X1402012Y1868798D1*
X1394198Y1873589D1*
X1387229Y1879543D1*
X1381277Y1886514D1*
X1378645Y1890812D1*
X1375793Y1886497D1*
X1369838Y1879528D1*
X1362867Y1873576D1*
X1355051Y1868789D1*
X1346582Y1865282D1*
X1337668Y1863144D1*
X1328530Y1862427D1*
X1319393Y1863148D1*
X1310480Y1865289D1*
X1302012Y1868798D1*
X1294198Y1873589D1*
X1287229Y1879543D1*
X1281277Y1886514D1*
X1278645Y1890812D1*
X1258573Y1970735D2*
X1262885Y1968092D1*
X1269854Y1962137D1*
X1275805Y1955166D1*
X1278438Y1950869D1*
X1281290Y1955184D1*
X1287244Y1962153D1*
X1294215Y1968104D1*
X1298513Y1970737D1*
X1294198Y1973589D1*
X1287229Y1979543D1*
X1281277Y1986514D1*
X1278645Y1990812D1*
X1275793Y1986497D1*
X1269838Y1979528D1*
X1262867Y1973576D1*
X1258570Y1970944D1*
X1358573Y1970735D2*
X1362885Y1968092D1*
X1369854Y1962137D1*
X1375805Y1955166D1*
X1378438Y1950869D1*
X1381290Y1955184D1*
X1387244Y1962153D1*
X1394215Y1968104D1*
X1398513Y1970737D1*
X1394198Y1973589D1*
X1387229Y1979543D1*
X1381277Y1986514D1*
X1378645Y1990812D1*
X1375793Y1986497D1*
X1369838Y1979528D1*
X1362867Y1973576D1*
X1358570Y1970944D1*
X1458573Y1970735D2*
X1462885Y1968092D1*
X1469854Y1962137D1*
X1475805Y1955166D1*
X1478438Y1950869D1*
X1481290Y1955184D1*
X1487244Y1962153D1*
X1494215Y1968104D1*
X1498513Y1970737D1*
X1494198Y1973589D1*
X1487229Y1979543D1*
X1481277Y1986514D1*
X1478645Y1990812D1*
X1475793Y1986497D1*
X1469838Y1979528D1*
X1462867Y1973576D1*
X1458570Y1970944D1*
X1558573Y1970735D2*
X1562885Y1968092D1*
X1569854Y1962137D1*
X1575805Y1955166D1*
X1578438Y1950869D1*
X1581290Y1955184D1*
X1587244Y1962153D1*
X1594215Y1968104D1*
X1598513Y1970737D1*
X1594198Y1973589D1*
X1587229Y1979543D1*
X1581277Y1986514D1*
X1578645Y1990812D1*
X1575793Y1986497D1*
X1569838Y1979528D1*
X1562867Y1973576D1*
X1558570Y1970944D1*
X1678436Y1990809D2*
X1675793Y1986497D1*
X1669838Y1979528D1*
X1662867Y1973576D1*
X1658570Y1970944D1*
X1662885Y1968092D1*
X1669854Y1962137D1*
X1675805Y1955166D1*
X1678438Y1950869D1*
X1681290Y1955184D1*
X1687244Y1962153D1*
X1694215Y1968104D1*
X1698513Y1970737D1*
X1694198Y1973589D1*
X1687229Y1979543D1*
X1681277Y1986514D1*
X1678645Y1990812D1*
X1778436Y1990809D2*
X1775793Y1986497D1*
X1769838Y1979528D1*
X1762867Y1973576D1*
X1758570Y1970944D1*
X1762885Y1968092D1*
X1769854Y1962137D1*
X1775805Y1955166D1*
X1778438Y1950869D1*
X1781290Y1955184D1*
X1787244Y1962153D1*
X1794215Y1968104D1*
X1798513Y1970737D1*
X1794198Y1973589D1*
X1787229Y1979543D1*
X1781277Y1986514D1*
X1778645Y1990812D1*
X1878436Y1990809D2*
X1875793Y1986497D1*
X1869838Y1979528D1*
X1862867Y1973576D1*
X1858570Y1970944D1*
X1862885Y1968092D1*
X1869854Y1962137D1*
X1875805Y1955166D1*
X1878438Y1950869D1*
X1881290Y1955184D1*
X1887244Y1962153D1*
X1894215Y1968104D1*
X1898513Y1970737D1*
X1894198Y1973589D1*
X1887229Y1979543D1*
X1881277Y1986514D1*
X1878645Y1990812D1*
X1958573Y1970735D2*
X1962885Y1968092D1*
X1969854Y1962137D1*
X1975805Y1955166D1*
X1978438Y1950869D1*
X1982420Y1956687D1*
X1988595Y1963460D1*
X1995754Y1969185D1*
X1998500Y1970748D1*
X1994198Y1973589D1*
X1987229Y1979543D1*
X1981277Y1986514D1*
X1978645Y1990812D1*
X1975793Y1986497D1*
X1969838Y1979528D1*
X1962867Y1973576D1*
X1958570Y1970944D1*
X2058608Y1970766D2*
X2064388Y1966962D1*
X2071161Y1960787D1*
X2076885Y1953627D1*
X2078448Y1950881D1*
X2081290Y1955184D1*
X2087244Y1962153D1*
X2094215Y1968104D1*
X2098513Y1970737D1*
X2094198Y1973589D1*
X2087229Y1979543D1*
X2081277Y1986514D1*
X2078645Y1990812D1*
X2075793Y1986497D1*
X2069838Y1979528D1*
X2062867Y1973576D1*
X2058570Y1970944D1*
X2158573Y1970735D2*
X2162885Y1968092D1*
X2169854Y1962137D1*
X2175805Y1955166D1*
X2178438Y1950869D1*
X2181290Y1955184D1*
X2187244Y1962153D1*
X2194215Y1968104D1*
X2198513Y1970737D1*
X2194198Y1973589D1*
X2187229Y1979543D1*
X2181277Y1986514D1*
X2178645Y1990812D1*
X2175793Y1986497D1*
X2169838Y1979528D1*
X2162867Y1973576D1*
X2158570Y1970944D1*
X2258573Y1970735D2*
X2262885Y1968092D1*
X2269854Y1962137D1*
X2275805Y1955166D1*
X2278438Y1950869D1*
X2281290Y1955184D1*
X2287244Y1962153D1*
X2294215Y1968104D1*
X2298513Y1970737D1*
X2294198Y1973589D1*
X2287229Y1979543D1*
X2281277Y1986514D1*
X2278645Y1990812D1*
X2275793Y1986497D1*
X2269838Y1979528D1*
X2262867Y1973576D1*
X2258570Y1970944D1*
X2358573Y1970735D2*
X2362885Y1968092D1*
X2369854Y1962137D1*
X2375805Y1955166D1*
X2378438Y1950869D1*
X2383563Y1958111D1*
X2389947Y1964688D1*
X2397282Y1970186D1*
X2398429Y1970792D1*
X2394198Y1973589D1*
X2387229Y1979543D1*
X2381277Y1986514D1*
X2378645Y1990812D1*
X2375793Y1986497D1*
X2369838Y1979528D1*
X2362867Y1973576D1*
X2358570Y1970944D1*
X2458705Y1970822D2*
X2465812Y1965819D1*
X2472389Y1959435D1*
X2477887Y1952100D1*
X2478493Y1950952D1*
X2481290Y1955184D1*
X2487244Y1962153D1*
X2494215Y1968104D1*
X2498513Y1970737D1*
X2494198Y1973589D1*
X2487229Y1979543D1*
X2481277Y1986514D1*
X2478645Y1990812D1*
X2475793Y1986497D1*
X2469838Y1979528D1*
X2462867Y1973576D1*
X2458570Y1970944D1*
X2558573Y1970735D2*
X2562885Y1968092D1*
X2569854Y1962137D1*
X2575805Y1955166D1*
X2578438Y1950869D1*
X2581290Y1955184D1*
X2587244Y1962153D1*
X2594215Y1968104D1*
X2598513Y1970737D1*
X2594198Y1973589D1*
X2587229Y1979543D1*
X2581277Y1986514D1*
X2578645Y1990812D1*
X2575793Y1986497D1*
X2569838Y1979528D1*
X2562867Y1973576D1*
X2558570Y1970944D1*
X2658573Y1970735D2*
X2662885Y1968092D1*
X2669854Y1962137D1*
X2675805Y1955166D1*
X2678438Y1950869D1*
X2681290Y1955184D1*
X2687244Y1962153D1*
X2694215Y1968104D1*
X2698513Y1970737D1*
X2694198Y1973589D1*
X2687229Y1979543D1*
X2681277Y1986514D1*
X2678645Y1990812D1*
X2675793Y1986497D1*
X2669838Y1979528D1*
X2662867Y1973576D1*
X2658570Y1970944D1*
X2758573Y1970735D2*
X2762885Y1968092D1*
X2769854Y1962137D1*
X2775805Y1955166D1*
X2778438Y1950869D1*
X2781290Y1955184D1*
X2787244Y1962153D1*
X2794215Y1968104D1*
X2798513Y1970737D1*
X2794198Y1973589D1*
X2787229Y1979543D1*
X2781277Y1986514D1*
X2778645Y1990812D1*
X2775793Y1986497D1*
X2769838Y1979528D1*
X2762867Y1973576D1*
X2758570Y1970944D1*
X2858573Y1970735D2*
X2862885Y1968092D1*
X2869854Y1962137D1*
X2875805Y1955166D1*
X2878438Y1950869D1*
X2881290Y1955184D1*
X2887244Y1962153D1*
X2894215Y1968104D1*
X2898513Y1970737D1*
X2894198Y1973589D1*
X2887229Y1979543D1*
X2881277Y1986514D1*
X2878645Y1990812D1*
X2875793Y1986497D1*
X2869838Y1979528D1*
X2862867Y1973576D1*
X2858570Y1970944D1*
X2958573Y1970735D2*
X2962885Y1968092D1*
X2969854Y1962137D1*
X2975805Y1955166D1*
X2978438Y1950869D1*
X2981290Y1955184D1*
X2987244Y1962153D1*
X2994215Y1968104D1*
X2998513Y1970737D1*
X2994198Y1973589D1*
X2987229Y1979543D1*
X2981277Y1986514D1*
X2978645Y1990812D1*
X2975793Y1986497D1*
X2969838Y1979528D1*
X2962867Y1973576D1*
X2958570Y1970944D1*
X3058573Y1970735D2*
X3062885Y1968092D1*
X3069854Y1962137D1*
X3075805Y1955166D1*
X3078438Y1950869D1*
X3081290Y1955184D1*
X3087244Y1962153D1*
X3094215Y1968104D1*
X3098513Y1970737D1*
X3094198Y1973589D1*
X3087229Y1979543D1*
X3081277Y1986514D1*
X3078645Y1990812D1*
X3075793Y1986497D1*
X3069838Y1979528D1*
X3062867Y1973576D1*
X3058570Y1970944D1*
X1161190Y567132D2*
X1160184Y557988D1*
X1158515Y548943D1*
X1156189Y540043D1*
X1153220Y531336D1*
X1149623Y522870D1*
X1145418Y514689D1*
X1140627Y506836D1*
X1135276Y499354D1*
X1129392Y492283D1*
X1123009Y485660D1*
X1116158Y479521D1*
X1108878Y473898D1*
X1101207Y468822D1*
X1093186Y464319D1*
X1084857Y460414D1*
X1076266Y457127D1*
X1067458Y454475D1*
X1058479Y452474D1*
X1049379Y451134D1*
X1040205Y450461D1*
X1031006Y450460D1*
X1021832Y451131D1*
X1012731Y452469D1*
X1003752Y454468D1*
X994943Y457117D1*
X986351Y460402D1*
X978022Y464306D1*
X970000Y468807D1*
X962327Y473882D1*
X955046Y479503D1*
X948194Y485640D1*
X941809Y492262D1*
X935924Y499332D1*
X930571Y506812D1*
X925778Y514664D1*
X921571Y522844D1*
X917972Y531310D1*
X915001Y540015D1*
X912674Y548914D1*
X911002Y557960D1*
X909995Y567103D1*
X909658Y576296D1*
X909993Y585488D1*
X910998Y594632D1*
X912667Y603678D1*
X914993Y612578D1*
X917962Y621284D1*
X921559Y629750D1*
X925764Y637932D1*
X930555Y645784D1*
X935907Y653266D1*
X941790Y660337D1*
X948174Y666960D1*
X955024Y673099D1*
X962304Y678722D1*
X969975Y683799D1*
X977996Y688301D1*
X986325Y692207D1*
X994916Y695494D1*
X1003724Y698145D1*
X1012703Y700146D1*
X1021803Y701487D1*
X1030977Y702159D1*
X1040176Y702160D1*
X1049350Y701490D1*
X1058451Y700151D1*
X1067430Y698152D1*
X1076239Y695503D1*
X1084831Y692218D1*
X1093160Y688315D1*
X1101183Y683814D1*
X1108855Y678739D1*
X1116136Y673118D1*
X1122988Y666980D1*
X1129373Y660359D1*
X1135258Y653289D1*
X1140611Y645808D1*
X1145404Y637957D1*
X1149611Y629776D1*
X1153210Y621311D1*
X1156181Y612605D1*
X1158508Y603706D1*
X1160180Y594660D1*
X1161187Y585517D1*
X1161524Y576310D1*
X1161190Y567132D1*
X1470229Y2491357D2*
X1469801Y2489979D1*
X1465312Y2481841D1*
X1459277Y2474773D1*
X1451943Y2469064D1*
X1443610Y2464949D1*
X1434619Y2462595D1*
X1425338Y2462099D1*
X1416148Y2463482D1*
X1407423Y2466686D1*
X1399523Y2471581D1*
X1392770Y2477966D1*
X1387440Y2485580D1*
X1383752Y2494111D1*
X1381856Y2503210D1*
X1381831Y2512504D1*
X1383678Y2521612D1*
X1387320Y2530163D1*
X1392609Y2537805D1*
X1399328Y2544227D1*
X1407202Y2549164D1*
X1415908Y2552415D1*
X1425091Y2553847D1*
X1434375Y2553402D1*
X1443378Y2551096D1*
X1451733Y2547026D1*
X1459098Y2541357D1*
X1465171Y2534321D1*
X1469703Y2526207D1*
X1470862Y2522547D1*
X1473519Y2528253D1*
X1478808Y2535896D1*
X1485527Y2542317D1*
X1493401Y2547255D1*
X1502108Y2550506D1*
X1511291Y2551938D1*
X1520574Y2551492D1*
X1529578Y2549187D1*
X1537933Y2545116D1*
X1545298Y2539447D1*
X1551370Y2532412D1*
X1555110Y2525716D1*
X1557799Y2531524D1*
X1563088Y2539166D1*
X1569807Y2545588D1*
X1577681Y2550525D1*
X1586387Y2553776D1*
X1595570Y2555208D1*
X1604854Y2554763D1*
X1613857Y2552457D1*
X1622212Y2548387D1*
X1629577Y2542718D1*
X1635650Y2535682D1*
X1640182Y2527568D1*
X1642988Y2518708D1*
X1643954Y2509340D1*
X1643038Y2500215D1*
X1640280Y2491340D1*
X1635791Y2483202D1*
X1629756Y2476134D1*
X1622422Y2470425D1*
X1614089Y2466309D1*
X1605098Y2463956D1*
X1595817Y2463460D1*
X1586627Y2464843D1*
X1577902Y2468047D1*
X1570002Y2472942D1*
X1563249Y2479327D1*
X1557919Y2486941D1*
X1556691Y2489782D1*
X1556000Y2488070D1*
X1551512Y2479931D1*
X1545477Y2472863D1*
X1538143Y2467155D1*
X1529809Y2463039D1*
X1520818Y2460685D1*
X1511538Y2460190D1*
X1502347Y2461572D1*
X1493623Y2464777D1*
X1485722Y2469672D1*
X1478969Y2476057D1*
X1473639Y2483671D1*
X1470336Y2491310D1*
X1472511Y2376161D2*
X1469202Y2370161D1*
X1463167Y2363093D1*
X1455833Y2357384D1*
X1447500Y2353269D1*
X1438509Y2350915D1*
X1429228Y2350419D1*
X1420037Y2351802D1*
X1411313Y2355006D1*
X1403413Y2359901D1*
X1396659Y2366286D1*
X1391329Y2373900D1*
X1387641Y2382431D1*
X1385746Y2391530D1*
X1385721Y2400824D1*
X1387567Y2409933D1*
X1391209Y2418483D1*
X1396498Y2426126D1*
X1403217Y2432547D1*
X1411091Y2437484D1*
X1419798Y2440736D1*
X1428981Y2442168D1*
X1438264Y2441722D1*
X1447268Y2439417D1*
X1455623Y2435346D1*
X1462988Y2429677D1*
X1469061Y2422641D1*
X1473181Y2415264D1*
X1474179Y2417183D1*
X1479468Y2424825D1*
X1486187Y2431246D1*
X1494061Y2436184D1*
X1502768Y2439435D1*
X1511951Y2440867D1*
X1521234Y2440421D1*
X1530238Y2438116D1*
X1538593Y2434045D1*
X1545958Y2428376D1*
X1552030Y2421341D1*
X1555160Y2415739D1*
X1557149Y2419793D1*
X1562438Y2427435D1*
X1569157Y2433857D1*
X1577031Y2438794D1*
X1585738Y2442045D1*
X1594921Y2443477D1*
X1604204Y2443032D1*
X1613208Y2440726D1*
X1621563Y2436656D1*
X1628927Y2430987D1*
X1635000Y2423951D1*
X1639533Y2415837D1*
X1642339Y2406977D1*
X1643304Y2397609D1*
X1642388Y2388484D1*
X1639630Y2379609D1*
X1635141Y2371471D1*
X1629107Y2364403D1*
X1621772Y2358694D1*
X1613439Y2354578D1*
X1604448Y2352225D1*
X1595168Y2351729D1*
X1585977Y2353112D1*
X1577253Y2356316D1*
X1569352Y2361211D1*
X1562599Y2367596D1*
X1557269Y2375210D1*
X1556581Y2376801D1*
X1552172Y2368860D1*
X1546137Y2361792D1*
X1538803Y2356084D1*
X1530469Y2351968D1*
X1521478Y2349614D1*
X1512198Y2349119D1*
X1503007Y2350501D1*
X1494283Y2353706D1*
X1486383Y2358601D1*
X1479629Y2364986D1*
X1474299Y2372600D1*
X1472740Y2376207D1*
X2371548Y1741425D2*
X2368790Y1732550D1*
X2364302Y1724412D1*
X2358267Y1717344D1*
X2350933Y1711635D1*
X2342599Y1707519D1*
X2333608Y1705166D1*
X2324328Y1704670D1*
X2315137Y1706053D1*
X2306413Y1709257D1*
X2298512Y1714152D1*
X2291759Y1720537D1*
X2286429Y1728151D1*
X2282741Y1736682D1*
X2280846Y1745780D1*
X2280836Y1749402D1*
X2272377Y1750742D1*
X2263653Y1753946D1*
X2255753Y1758841D1*
X2248999Y1765226D1*
X2243669Y1772840D1*
X2239981Y1781371D1*
X2238086Y1790469D1*
X2238061Y1799763D1*
X2239907Y1808872D1*
X2243549Y1817423D1*
X2248838Y1825065D1*
X2255557Y1831487D1*
X2263431Y1836424D1*
X2272138Y1839675D1*
X2281321Y1841107D1*
X2290604Y1840662D1*
X2299608Y1838356D1*
X2307963Y1834286D1*
X2315328Y1828617D1*
X2321401Y1821581D1*
X2325933Y1813467D1*
X2328739Y1804607D1*
X2329598Y1796383D1*
X2333364Y1795973D1*
X2342368Y1793667D1*
X2350723Y1789597D1*
X2358088Y1783928D1*
X2364160Y1776892D1*
X2368693Y1768778D1*
X2371499Y1759918D1*
X2372464Y1750550D1*
X2371548Y1741425D1*
X1198398Y2351683D2*
X1195961Y2342883D1*
X1191992Y2334659D1*
X1186619Y2327276D1*
X1180013Y2320971D1*
X1172389Y2315947D1*
X1163989Y2312366D1*
X1155085Y2310341D1*
X1145963Y2309939D1*
X1136915Y2311173D1*
X1128233Y2314002D1*
X1120196Y2318335D1*
X1113061Y2324035D1*
X1107059Y2330916D1*
X1102383Y2338759D1*
X1099181Y2347311D1*
X1097558Y2356296D1*
X1097566Y2365428D1*
X1099204Y2374411D1*
X1102420Y2382957D1*
X1107110Y2390792D1*
X1113123Y2397663D1*
X1120267Y2403351D1*
X1128312Y2407671D1*
X1136999Y2410485D1*
X1146048Y2411703D1*
X1155170Y2411286D1*
X1164071Y2409247D1*
X1172464Y2405651D1*
X1180080Y2400614D1*
X1186675Y2394298D1*
X1192036Y2386906D1*
X1195991Y2378676D1*
X1198413Y2369872D1*
X1199224Y2360819D1*
X1198398Y2351683D1*
X1868253Y2423424D2*
X1865495Y2414549D1*
X1861006Y2406410D1*
X1854971Y2399342D1*
X1847637Y2393634D1*
X1839304Y2389518D1*
X1830313Y2387164D1*
X1821032Y2386669D1*
X1811842Y2388051D1*
X1803118Y2391256D1*
X1795217Y2396151D1*
X1788464Y2402536D1*
X1783134Y2410150D1*
X1779446Y2418680D1*
X1777550Y2427779D1*
X1777525Y2437073D1*
X1779372Y2446182D1*
X1783014Y2454732D1*
X1788303Y2462375D1*
X1795022Y2468796D1*
X1802896Y2473734D1*
X1811603Y2476985D1*
X1820786Y2478417D1*
X1830069Y2477971D1*
X1839072Y2475666D1*
X1847428Y2471595D1*
X1854792Y2465926D1*
X1860865Y2458891D1*
X1865397Y2450777D1*
X1868203Y2441916D1*
X1869169Y2432549D1*
X1868253Y2423424D1*
X3580800Y1819089D2*
X3578042Y1810214D1*
X3573554Y1802076D1*
X3567519Y1795008D1*
X3560185Y1789299D1*
X3551851Y1785183D1*
X3542860Y1782830D1*
X3533580Y1782334D1*
X3524389Y1783717D1*
X3515665Y1786921D1*
X3507764Y1791816D1*
X3501011Y1798201D1*
X3495681Y1805815D1*
X3491993Y1814346D1*
X3490098Y1823445D1*
X3490073Y1832738D1*
X3491919Y1841847D1*
X3495561Y1850398D1*
X3500850Y1858040D1*
X3507569Y1864462D1*
X3515443Y1869399D1*
X3524150Y1872650D1*
X3533333Y1874082D1*
X3542616Y1873637D1*
X3551620Y1871331D1*
X3559975Y1867261D1*
X3567340Y1861592D1*
X3573412Y1854556D1*
X3577945Y1846442D1*
X3580751Y1837582D1*
X3581716Y1828214D1*
X3580800Y1819089D1*
X1780820Y1159790D2*
X1778062Y1150915D1*
X1773573Y1142776D1*
X1767538Y1135708D1*
X1760204Y1130000D1*
X1751871Y1125884D1*
X1742880Y1123530D1*
X1733599Y1123035D1*
X1724409Y1124417D1*
X1715685Y1127622D1*
X1707784Y1132517D1*
X1701031Y1138902D1*
X1695701Y1146516D1*
X1692013Y1155047D1*
X1690117Y1164145D1*
X1690092Y1173439D1*
X1691939Y1182548D1*
X1695581Y1191099D1*
X1700870Y1198741D1*
X1707589Y1205162D1*
X1715463Y1210100D1*
X1724169Y1213351D1*
X1733352Y1214783D1*
X1742636Y1214337D1*
X1751639Y1212032D1*
X1759994Y1207962D1*
X1767359Y1202292D1*
X1773432Y1195257D1*
X1777964Y1187143D1*
X1780770Y1178283D1*
X1781736Y1168915D1*
X1780820Y1159790D1*
X961148Y2390324D2*
X958390Y2381449D1*
X953901Y2373311D1*
X947866Y2366242D1*
X940532Y2360534D1*
X932199Y2356418D1*
X923208Y2354065D1*
X913927Y2353569D1*
X904737Y2354952D1*
X896013Y2358156D1*
X888112Y2363051D1*
X881359Y2369436D1*
X876029Y2377050D1*
X872341Y2385581D1*
X870445Y2394679D1*
X870420Y2403973D1*
X872267Y2413082D1*
X875909Y2421633D1*
X881198Y2429275D1*
X887917Y2435697D1*
X895791Y2440634D1*
X904498Y2443885D1*
X913681Y2445317D1*
X922964Y2444872D1*
X931967Y2442566D1*
X940323Y2438496D1*
X947687Y2432827D1*
X953760Y2425791D1*
X958292Y2417677D1*
X961098Y2408817D1*
X962064Y2399449D1*
X961148Y2390324D1*
X2020320Y1259877D2*
X2017562Y1251001D1*
X2013073Y1242863D1*
X2007038Y1235795D1*
X1999704Y1230086D1*
X1991371Y1225971D1*
X1982380Y1223617D1*
X1973099Y1223121D1*
X1963909Y1224504D1*
X1955185Y1227708D1*
X1947284Y1232603D1*
X1940531Y1238988D1*
X1935201Y1246602D1*
X1931513Y1255133D1*
X1929617Y1264232D1*
X1929592Y1273526D1*
X1931439Y1282635D1*
X1935081Y1291185D1*
X1940370Y1298828D1*
X1947089Y1305249D1*
X1954963Y1310186D1*
X1963669Y1313438D1*
X1972852Y1314870D1*
X1982136Y1314424D1*
X1991139Y1312119D1*
X1999494Y1308048D1*
X2006859Y1302379D1*
X2012932Y1295343D1*
X2017464Y1287229D1*
X2020270Y1278369D1*
X2021236Y1269002D1*
X2020320Y1259877D1*
X3096568Y1655965D2*
X3093810Y1647089D1*
X3089321Y1638951D1*
X3083286Y1631883D1*
X3075952Y1626174D1*
X3067619Y1622059D1*
X3058628Y1619705D1*
X3049347Y1619209D1*
X3040157Y1620592D1*
X3031433Y1623796D1*
X3023532Y1628691D1*
X3016779Y1635076D1*
X3011449Y1642690D1*
X3007761Y1651221D1*
X3005865Y1660320D1*
X3005840Y1669614D1*
X3007687Y1678723D1*
X3011329Y1687273D1*
X3016618Y1694916D1*
X3023337Y1701337D1*
X3031211Y1706274D1*
X3039918Y1709526D1*
X3049101Y1710958D1*
X3058384Y1710512D1*
X3067387Y1708207D1*
X3075743Y1704136D1*
X3083107Y1698467D1*
X3089180Y1691431D1*
X3093712Y1683317D1*
X3096518Y1674457D1*
X3097484Y1665090D1*
X3096568Y1655965D1*
X3303005Y2318944D2*
X3294308Y2320252D1*
X3285584Y2323456D1*
X3277683Y2328351D1*
X3270930Y2334737D1*
X3265600Y2342350D1*
X3261912Y2350881D1*
X3260016Y2359980D1*
X3259991Y2369274D1*
X3261838Y2378383D1*
X3265480Y2386933D1*
X3270769Y2394576D1*
X3277488Y2400997D1*
X3285362Y2405934D1*
X3294068Y2409186D1*
X3303251Y2410618D1*
X3312535Y2410172D1*
X3321538Y2407867D1*
X3329893Y2403796D1*
X3337258Y2398127D1*
X3343331Y2391091D1*
X3347863Y2382977D1*
X3350669Y2374117D1*
X3351635Y2364750D1*
X3350911Y2357541D1*
X3355184Y2357092D1*
X3364188Y2354787D1*
X3372543Y2350716D1*
X3379908Y2345047D1*
X3385981Y2338011D1*
X3390513Y2329897D1*
X3393319Y2321037D1*
X3394284Y2311670D1*
X3393369Y2302545D1*
X3390610Y2293669D1*
X3386122Y2285531D1*
X3380087Y2278463D1*
X3372753Y2272754D1*
X3364420Y2268639D1*
X3355429Y2266285D1*
X3346148Y2265789D1*
X3336957Y2267172D1*
X3328233Y2270376D1*
X3320333Y2275271D1*
X3313579Y2281656D1*
X3308249Y2289270D1*
X3304561Y2297801D1*
X3302666Y2306900D1*
X3302641Y2316194D1*
X3303187Y2318889D1*
X1520320Y1299377D2*
X1517562Y1290501D1*
X1513073Y1282363D1*
X1507038Y1275295D1*
X1499704Y1269586D1*
X1491371Y1265471D1*
X1482380Y1263117D1*
X1473099Y1262621D1*
X1463909Y1264004D1*
X1455185Y1267208D1*
X1447284Y1272103D1*
X1440531Y1278488D1*
X1435201Y1286102D1*
X1431513Y1294633D1*
X1429617Y1303732D1*
X1429592Y1313026D1*
X1431439Y1322135D1*
X1435081Y1330685D1*
X1440370Y1338328D1*
X1447089Y1344749D1*
X1454963Y1349686D1*
X1463669Y1352938D1*
X1472852Y1354370D1*
X1482136Y1353924D1*
X1491139Y1351619D1*
X1499494Y1347548D1*
X1506859Y1341879D1*
X1512932Y1334843D1*
X1517464Y1326729D1*
X1520270Y1317869D1*
X1521236Y1308502D1*
X1520320Y1299377D1*
X791479Y2305944D2*
X788721Y2297068D1*
X784232Y2288930D1*
X778197Y2281862D1*
X770863Y2276153D1*
X762530Y2272038D1*
X753539Y2269684D1*
X744258Y2269188D1*
X735068Y2270571D1*
X726343Y2273775D1*
X718443Y2278670D1*
X711689Y2285055D1*
X706360Y2292669D1*
X702672Y2301200D1*
X700776Y2310299D1*
X700751Y2319593D1*
X702598Y2328702D1*
X706240Y2337252D1*
X711528Y2344895D1*
X718247Y2351316D1*
X726122Y2356253D1*
X734828Y2359505D1*
X744011Y2360937D1*
X753295Y2360491D1*
X762298Y2358186D1*
X770653Y2354115D1*
X778018Y2348446D1*
X784091Y2341410D1*
X788623Y2333296D1*
X791429Y2324436D1*
X792394Y2315069D1*
X791479Y2305944D1*
X1117663Y1692752D2*
X1116638Y1689492D1*
X1117663Y1692752D1*
X1117749Y1689036D2*
X1117661Y1692746D1*
X1117749Y1689036D1*
X1162699Y1828074D2*
X1149097Y1826131D1*
X472343Y1834361D2*
X1167139D1*
X472003Y1809493D2*
X729011D1*
X763902D2*
X1166708D1*
X471662Y1784624D2*
X701954D1*
X790977D2*
X1166278D1*
X471321Y1759755D2*
X698456D1*
X794458D2*
X1165847D1*
X470980Y1734886D2*
X710226D1*
X782706D2*
X1165399D1*
X470639Y1710018D2*
X1164968D1*
X470298Y1685149D2*
X1164537D1*
X469939Y1660280D2*
X1020175D1*
X1072937D2*
X1164107D1*
X469598Y1635411D2*
X1000439D1*
X1092691D2*
X1163658D1*
X469257Y1610543D2*
X999344D1*
X1093768D2*
X1163228D1*
X468917Y1585674D2*
X1014757D1*
X1078374D2*
X1162797D1*
X468576Y1560805D2*
X1162366D1*
X468235Y1535936D2*
X1161936D1*
X467894Y1511067D2*
X1110980D1*
X467535Y1486199D2*
X1097847D1*
X467194Y1461330D2*
X1100358D1*
X466853Y1436461D2*
X1123952D1*
X466512Y1411592D2*
X1159747D1*
X466171Y1386724D2*
X786677D1*
X819397D2*
X1159316D1*
X465830Y1361855D2*
X751995D1*
X854061D2*
X1167534D1*
X465490Y1336986D2*
X743239D1*
X862817D2*
X1150381D1*
X465131Y1312117D2*
X746020D1*
X860054D2*
X1101363D1*
X464790Y1287249D2*
X762778D1*
X843278D2*
X1052363D1*
X464449Y1262380D2*
X1003346D1*
X464108Y1237511D2*
X954328D1*
X463767Y1212642D2*
X905328D1*
X463426Y1187773D2*
X791952D1*
X814104D2*
X856310D1*
X463085Y1162905D2*
X752677D1*
X462744Y1138036D2*
X743365D1*
X462386Y1113167D2*
X709275D1*
X462045Y1088298D2*
X660257D1*
X461704Y1063430D2*
X611239D1*
X461363Y1038561D2*
X562239D1*
X461022Y1013692D2*
X513221D1*
X859926Y1321642D2*
X857722Y1312634D1*
X854102Y1304095D1*
X849158Y1296249D1*
X843020Y1289297D1*
X835846Y1283419D1*
X827823Y1278769D1*
X819157Y1275465D1*
X810074Y1273595D1*
X800808Y1273206D1*
X791600Y1274308D1*
X782688Y1276873D1*
X774302Y1280835D1*
X766661Y1286090D1*
X759962Y1292503D1*
X754378Y1299907D1*
X750054Y1308112D1*
X747102Y1316904D1*
X745599Y1326055D1*
X745584Y1335329D1*
X747056Y1344485D1*
X749978Y1353287D1*
X754273Y1361506D1*
X759832Y1368929D1*
X766510Y1375365D1*
X774133Y1380646D1*
X782505Y1384636D1*
X791408Y1387231D1*
X800613Y1388365D1*
X809880Y1388007D1*
X818970Y1386167D1*
X827646Y1382893D1*
X835686Y1378270D1*
X842879Y1372417D1*
X849041Y1365486D1*
X854011Y1357656D1*
X857660Y1349130D1*
X859895Y1340130D1*
X860657Y1330789D1*
X859926Y1321642D1*
X1163610Y1372048D2*
X1177739Y1349598D1*
X837379Y1176893D1*
X835686Y1178270D1*
X827646Y1182893D1*
X818970Y1186167D1*
X809880Y1188007D1*
X800613Y1188365D1*
X791408Y1187231D1*
X782505Y1184636D1*
X774133Y1180646D1*
X766510Y1175365D1*
X759832Y1168929D1*
X754273Y1161506D1*
X749978Y1153287D1*
X747056Y1144485D1*
X745584Y1135329D1*
X745592Y1130321D1*
X709979Y1112258D1*
X458116Y984464D1*
X470157Y1856909D1*
X1170080Y1859182D1*
X1164151Y1520005D1*
X1161418Y1521337D1*
X1152414Y1523642D1*
X1143131Y1524088D1*
X1133948Y1522656D1*
X1125241Y1519404D1*
X1117367Y1514467D1*
X1110648Y1508046D1*
X1105359Y1500403D1*
X1101717Y1491852D1*
X1099871Y1482744D1*
X1099896Y1473450D1*
X1101791Y1464351D1*
X1105479Y1455820D1*
X1110809Y1448206D1*
X1117562Y1441821D1*
X1125463Y1436926D1*
X1134187Y1433722D1*
X1143378Y1432339D1*
X1152658Y1432835D1*
X1161649Y1435189D1*
X1162667Y1435691D1*
X1162324Y1415623D1*
X1161682Y1378938D1*
X1162020Y1375832D1*
X1163610Y1372048D1*
X1091576Y1611916D2*
X1088818Y1603041D1*
X1084329Y1594902D1*
X1078294Y1587834D1*
X1070960Y1582126D1*
X1062627Y1578010D1*
X1053636Y1575656D1*
X1044355Y1575161D1*
X1035165Y1576543D1*
X1026441Y1579748D1*
X1018540Y1584643D1*
X1011787Y1591028D1*
X1006457Y1598642D1*
X1002769Y1607173D1*
X1000873Y1616271D1*
X1000848Y1625565D1*
X1002695Y1634674D1*
X1006337Y1643225D1*
X1011626Y1650867D1*
X1018345Y1657288D1*
X1026219Y1662226D1*
X1034925Y1665477D1*
X1044108Y1666909D1*
X1053392Y1666463D1*
X1062395Y1664158D1*
X1070750Y1660087D1*
X1078115Y1654418D1*
X1084188Y1647383D1*
X1088720Y1639269D1*
X1091526Y1630409D1*
X1092492Y1621041D1*
X1091576Y1611916D1*
X791479Y1756934D2*
X788721Y1748059D1*
X784232Y1739921D1*
X778197Y1732853D1*
X770863Y1727144D1*
X762530Y1723029D1*
X753539Y1720675D1*
X744258Y1720179D1*
X735068Y1721562D1*
X726343Y1724766D1*
X718443Y1729661D1*
X711689Y1736046D1*
X706360Y1743660D1*
X702672Y1752191D1*
X700776Y1761290D1*
X700751Y1770584D1*
X702598Y1779692D1*
X706240Y1788243D1*
X711528Y1795885D1*
X718247Y1802307D1*
X726122Y1807244D1*
X734828Y1810495D1*
X744011Y1811928D1*
X753295Y1811482D1*
X762298Y1809176D1*
X770653Y1805106D1*
X778018Y1799437D1*
X784091Y1792401D1*
X788623Y1784287D1*
X791429Y1775427D1*
X792394Y1766060D1*
X791479Y1756934D1*
X679420Y4007171D2*
X745579D1*
X905886D2*
X945579D1*
X1105886D2*
X1955970D1*
X661658Y3982302D2*
X742744D1*
X908720D2*
X942744D1*
X1108721D2*
X1933363D1*
X655396Y3957434D2*
X747804D1*
X903661D2*
X947804D1*
X1103661D2*
X1908496D1*
X654176Y3932565D2*
X762714D1*
X888751D2*
X962714D1*
X1088751D2*
X1904351D1*
X647807Y3907696D2*
X803263D1*
X848202D2*
X1003245D1*
X1048202D2*
X1913824D1*
X635391Y3882827D2*
X1957280D1*
X614273Y3857959D2*
X1957531D1*
X573347Y3833090D2*
X1957800D1*
X537301Y3808221D2*
X1361944D1*
X1526503D2*
X1958070D1*
X519521Y3783352D2*
X1336071D1*
X1552375D2*
X1958321D1*
X501758Y3758483D2*
X1327692D1*
X1560754D2*
X1958590D1*
X483995Y3733615D2*
X1329432D1*
X1559014D2*
X1958859D1*
X482739Y3708746D2*
X1342297D1*
X1546131D2*
X1959110D1*
X482990Y3683877D2*
X1959379D1*
X483242Y3659008D2*
X885312D1*
X966153D2*
X1403802D1*
X1484644D2*
X1959649D1*
X483493Y3634140D2*
X864050D1*
X987414D2*
X1382541D1*
X1505905D2*
X1959936D1*
X483744Y3609271D2*
X857430D1*
X994035D2*
X1375920D1*
X1512526D2*
X1960276D1*
X483995Y3584402D2*
X860624D1*
X990841D2*
X1379114D1*
X1509332D2*
X1960617D1*
X484246Y3559533D2*
X705873D1*
X775500D2*
X875551D1*
X975914D2*
X1335569D1*
X1552860D2*
X1960958D1*
X484498Y3534665D2*
X674187D1*
X807186D2*
X859224D1*
X992223D2*
X1320623D1*
X1567823D2*
X1961299D1*
X484749Y3509796D2*
X661305D1*
X820069D2*
X846342D1*
X1005105D2*
X1317519D1*
X1570927D2*
X1961640D1*
X485000Y3484927D2*
X657627D1*
X823747D2*
X842681D1*
X1008783D2*
X1324337D1*
X1564109D2*
X1961981D1*
X485251Y3460058D2*
X661843D1*
X819548D2*
X846880D1*
X1004585D2*
X1346280D1*
X1542148D2*
X1962322D1*
X485502Y3435190D2*
X675461D1*
X805912D2*
X860498D1*
X990949D2*
X1634771D1*
X1699572D2*
X1962663D1*
X485754Y3410321D2*
X709874D1*
X771499D2*
X894911D1*
X956554D2*
X1619843D1*
X1714500D2*
X1963004D1*
X486005Y3385452D2*
X1621225D1*
X1713136D2*
X1963345D1*
X486256Y3360583D2*
X529807D1*
X578030D2*
X1641643D1*
X1692718D2*
X1963685D1*
X486489Y3335714D2*
X498409D1*
X609428D2*
X1964026D1*
X618992Y3310846D2*
X1964367D1*
X617933Y3285977D2*
X1397559D1*
X1467114D2*
X1478460D1*
X1548984D2*
X1560096D1*
X1625956D2*
X1964708D1*
X487117Y3261108D2*
X502266D1*
X605571D2*
X1384569D1*
X1640453D2*
X1965049D1*
X487332Y3236239D2*
X498767D1*
X609087D2*
X1387188D1*
X1638820D2*
X1965390D1*
X618920Y3211371D2*
X1411087D1*
X1453604D2*
X1493603D1*
X1533841D2*
X1568296D1*
X1617738D2*
X2133292D1*
X618076Y3186502D2*
X1409185D1*
X1464100D2*
X1485600D1*
X1544804D2*
X1559755D1*
X1621847D2*
X2342622D1*
X838657Y3161633D2*
X1390310D1*
X1637869D2*
X2343843D1*
X840540Y3136764D2*
X1389592D1*
X1637134D2*
X2345063D1*
X842424Y3111896D2*
X1405686D1*
X1618169D2*
X2346283D1*
X2174822Y3087027D2*
X2347503D1*
X1494840Y3448986D2*
X1385166D1*
X1376010Y3449631D1*
X1367035Y3451553D1*
X1358418Y3454715D1*
X1350329Y3459054D1*
X1342929Y3464484D1*
X1336363Y3470898D1*
X1330761Y3478169D1*
X1326234Y3486154D1*
X1322872Y3494695D1*
X1320740Y3503622D1*
X1319880Y3512761D1*
X1320311Y3521930D1*
X1322023Y3530947D1*
X1324982Y3539636D1*
X1329130Y3547824D1*
X1334386Y3555349D1*
X1340644Y3562063D1*
X1347782Y3567834D1*
X1355659Y3572546D1*
X1364119Y3576108D1*
X1372994Y3578448D1*
X1382110Y3579521D1*
X1383426Y3579552D1*
X1382271Y3582501D1*
X1379733Y3591343D1*
X1378450Y3600451D1*
X1378447Y3609650D1*
X1379724Y3618759D1*
X1382257Y3627602D1*
X1385996Y3636007D1*
X1390868Y3643809D1*
X1396779Y3650857D1*
X1403613Y3657014D1*
X1411237Y3662160D1*
X1419504Y3666195D1*
X1428251Y3669040D1*
X1437310Y3670640D1*
X1446502Y3670964D1*
X1455651Y3670005D1*
X1464577Y3667782D1*
X1473107Y3664339D1*
X1481074Y3659742D1*
X1488324Y3654081D1*
X1494716Y3647466D1*
X1500125Y3640026D1*
X1504446Y3631906D1*
X1507595Y3623263D1*
X1509510Y3614266D1*
X1510154Y3605070D1*
X1509515Y3595913D1*
X1507606Y3586915D1*
X1504938Y3579579D1*
X1512432Y3578948D1*
X1521407Y3577025D1*
X1530024Y3573863D1*
X1538113Y3569524D1*
X1545513Y3564094D1*
X1552079Y3557680D1*
X1557681Y3550409D1*
X1562208Y3542424D1*
X1565570Y3533884D1*
X1567702Y3524956D1*
X1568562Y3515818D1*
X1568131Y3506649D1*
X1566419Y3497631D1*
X1563460Y3488943D1*
X1559312Y3480755D1*
X1554056Y3473229D1*
X1547798Y3466515D1*
X1540660Y3460745D1*
X1532783Y3456032D1*
X1524323Y3452471D1*
X1515448Y3450130D1*
X1506332Y3449057D1*
X1503276Y3448986D1*
X1494840D1*
X1485231Y3685206D2*
X1395008D1*
X1385852Y3685851D1*
X1376877Y3687774D1*
X1368260Y3690936D1*
X1360172Y3695274D1*
X1352771Y3700704D1*
X1346205Y3707118D1*
X1340604Y3714390D1*
X1336077Y3722374D1*
X1332714Y3730915D1*
X1330582Y3739843D1*
X1329723Y3748981D1*
X1330153Y3758150D1*
X1331865Y3767168D1*
X1334825Y3775856D1*
X1338973Y3784044D1*
X1344228Y3791570D1*
X1350487Y3798284D1*
X1357625Y3804054D1*
X1365502Y3808767D1*
X1373961Y3812328D1*
X1382837Y3814669D1*
X1391952Y3815742D1*
X1395008Y3815813D1*
X1493434D1*
X1502590Y3815168D1*
X1511565Y3813246D1*
X1520182Y3810084D1*
X1528270Y3805745D1*
X1535671Y3800315D1*
X1542237Y3793901D1*
X1547838Y3786630D1*
X1552365Y3778645D1*
X1555728Y3770104D1*
X1557860Y3761177D1*
X1558719Y3752038D1*
X1558289Y3742869D1*
X1556577Y3733852D1*
X1553617Y3725163D1*
X1549469Y3716975D1*
X1544214Y3709450D1*
X1537955Y3702736D1*
X1530817Y3696965D1*
X1522940Y3692253D1*
X1514481Y3688691D1*
X1505605Y3686351D1*
X1496490Y3685278D1*
X1493434Y3685206D1*
X1485231D1*
X820727Y3476573D2*
X819160Y3467509D1*
X816571Y3458683D1*
X812992Y3450210D1*
X808471Y3442200D1*
X803066Y3434757D1*
X796848Y3427979D1*
X789897Y3421954D1*
X782306Y3416761D1*
X774172Y3412467D1*
X765601Y3409128D1*
X756706Y3406788D1*
X747601Y3405477D1*
X738407Y3405212D1*
X729243Y3405998D1*
X720227Y3407822D1*
X711479Y3410663D1*
X703111Y3414482D1*
X695233Y3419230D1*
X687948Y3424846D1*
X681351Y3431255D1*
X675527Y3438374D1*
X670552Y3446111D1*
X666492Y3454365D1*
X663399Y3463027D1*
X661314Y3471986D1*
X660264Y3481124D1*
X660262Y3490322D1*
X661309Y3499460D1*
X663390Y3508420D1*
X666479Y3517083D1*
X670536Y3525338D1*
X675507Y3533077D1*
X681328Y3540199D1*
X687923Y3546611D1*
X695206Y3552229D1*
X703082Y3556981D1*
X711448Y3560804D1*
X720195Y3563648D1*
X729209Y3565476D1*
X738374Y3566265D1*
X747568Y3566005D1*
X756673Y3564697D1*
X765569Y3562361D1*
X774141Y3559026D1*
X782277Y3554735D1*
X789871Y3549545D1*
X796824Y3543523D1*
X803045Y3536747D1*
X808453Y3529307D1*
X812977Y3521299D1*
X816560Y3512827D1*
X819153Y3504002D1*
X820723Y3494939D1*
X821250Y3485739D1*
X820727Y3476573D1*
X1005766D2*
X1004200Y3467509D1*
X1001610Y3458683D1*
X998031Y3450210D1*
X993510Y3442200D1*
X988105Y3434757D1*
X981887Y3427979D1*
X974937Y3421954D1*
X967345Y3416761D1*
X959211Y3412467D1*
X950640Y3409128D1*
X941745Y3406788D1*
X932641Y3405477D1*
X923446Y3405212D1*
X914282Y3405998D1*
X905267Y3407822D1*
X896518Y3410663D1*
X888151Y3414482D1*
X880273Y3419230D1*
X872988Y3424846D1*
X866390Y3431255D1*
X860566Y3438374D1*
X855592Y3446111D1*
X851532Y3454365D1*
X848439Y3463027D1*
X846354Y3471986D1*
X845303Y3481124D1*
X845301Y3490322D1*
X846348Y3499460D1*
X848429Y3508420D1*
X851519Y3517083D1*
X855575Y3525338D1*
X860546Y3533077D1*
X866368Y3540199D1*
X872962Y3546611D1*
X880245Y3552229D1*
X883668Y3554294D1*
X878315Y3559255D1*
X872401Y3566300D1*
X867524Y3574099D1*
X863780Y3582501D1*
X861242Y3591343D1*
X859959Y3600451D1*
X859956Y3609650D1*
X861234Y3618759D1*
X863766Y3627602D1*
X867505Y3636007D1*
X872377Y3643809D1*
X878288Y3650857D1*
X885122Y3657014D1*
X892746Y3662160D1*
X901013Y3666195D1*
X909760Y3669040D1*
X918819Y3670640D1*
X928012Y3670964D1*
X937160Y3670005D1*
X946086Y3667782D1*
X954616Y3664339D1*
X962583Y3659742D1*
X969834Y3654081D1*
X976225Y3647466D1*
X981634Y3640026D1*
X985955Y3631906D1*
X989104Y3623263D1*
X991019Y3614266D1*
X991664Y3605070D1*
X991025Y3595913D1*
X989115Y3586915D1*
X985971Y3578271D1*
X981655Y3570147D1*
X976251Y3562704D1*
X969863Y3556085D1*
X967775Y3554453D1*
X974910Y3549545D1*
X981863Y3543523D1*
X988084Y3536747D1*
X993492Y3529307D1*
X998017Y3521299D1*
X1001599Y3512827D1*
X1004192Y3504002D1*
X1005762Y3494939D1*
X1006290Y3485739D1*
X1005766Y3476573D1*
X1473035Y3232462D2*
X1470111Y3227161D1*
X1464076Y3220093D1*
X1456742Y3214384D1*
X1448409Y3210269D1*
X1439418Y3207915D1*
X1430137Y3207419D1*
X1420947Y3208802D1*
X1412223Y3212006D1*
X1404322Y3216901D1*
X1397569Y3223286D1*
X1392239Y3230900D1*
X1388551Y3239431D1*
X1386655Y3248530D1*
X1386630Y3257824D1*
X1388477Y3266933D1*
X1392119Y3275483D1*
X1397408Y3283126D1*
X1404127Y3289547D1*
X1412001Y3294484D1*
X1420708Y3297736D1*
X1429891Y3299168D1*
X1439174Y3298722D1*
X1448177Y3296417D1*
X1456533Y3292346D1*
X1463897Y3286677D1*
X1469970Y3279641D1*
X1472781Y3274610D1*
X1473500Y3275973D1*
X1478788Y3283615D1*
X1485507Y3290036D1*
X1493381Y3294974D1*
X1502088Y3298225D1*
X1511271Y3299657D1*
X1520554Y3299211D1*
X1529558Y3296906D1*
X1537913Y3292836D1*
X1545278Y3287166D1*
X1551351Y3280131D1*
X1553878Y3275606D1*
X1555528Y3278107D1*
X1561637Y3285111D1*
X1569032Y3290742D1*
X1577408Y3294769D1*
X1586423Y3297027D1*
X1595709Y3297425D1*
X1604884Y3295945D1*
X1613574Y3292648D1*
X1621422Y3287670D1*
X1628108Y3281214D1*
X1633357Y3273544D1*
X1636954Y3264974D1*
X1638753Y3255856D1*
X1638954Y3251570D1*
X1638038Y3242445D1*
X1635280Y3233570D1*
X1630791Y3225431D1*
X1624756Y3218363D1*
X1617422Y3212655D1*
X1609089Y3208539D1*
X1600098Y3206185D1*
X1590817Y3205690D1*
X1581627Y3207072D1*
X1572902Y3210277D1*
X1565002Y3215172D1*
X1558249Y3221557D1*
X1552919Y3229171D1*
X1552749Y3229562D1*
X1551492Y3227651D1*
X1545457Y3220582D1*
X1538123Y3214874D1*
X1529790Y3210758D1*
X1520799Y3208404D1*
X1511518Y3207909D1*
X1502327Y3209291D1*
X1493603Y3212496D1*
X1485703Y3217391D1*
X1478949Y3223776D1*
X1473619Y3231390D1*
X1473212Y3232331D1*
X1712194Y3391195D2*
X1709436Y3382320D1*
X1704947Y3374182D1*
X1698912Y3367114D1*
X1691578Y3361405D1*
X1683245Y3357290D1*
X1674254Y3354936D1*
X1664973Y3354440D1*
X1655783Y3355823D1*
X1647059Y3359027D1*
X1639158Y3363922D1*
X1632405Y3370307D1*
X1627075Y3377921D1*
X1623387Y3386452D1*
X1621491Y3395551D1*
X1621466Y3404845D1*
X1623313Y3413954D1*
X1626955Y3422504D1*
X1632244Y3430147D1*
X1638963Y3436568D1*
X1646837Y3441505D1*
X1655543Y3444757D1*
X1664726Y3446189D1*
X1674010Y3445743D1*
X1683013Y3443438D1*
X1691369Y3439367D1*
X1698733Y3433698D1*
X1704806Y3426662D1*
X1709338Y3418548D1*
X1712144Y3409688D1*
X1713110Y3400321D1*
X1712194Y3391195D1*
X1976301Y3216887D2*
X1971319Y3220177D1*
X1968433Y3225399D1*
X1968002Y3228488D1*
X1962302Y3643737D1*
X1959717Y3887769D1*
X1951599Y3887773D1*
X1942611Y3889459D1*
X1934086Y3892767D1*
X1926313Y3897586D1*
X1919559Y3903751D1*
X1914052Y3911051D1*
X1909981Y3919240D1*
X1907483Y3928037D1*
X1906645Y3937143D1*
X1907494Y3946249D1*
X1910001Y3955043D1*
X1914082Y3963227D1*
X1919597Y3970521D1*
X1926359Y3976678D1*
X1934137Y3981488D1*
X1942666Y3984786D1*
X1951656Y3986461D1*
X1958684Y3986457D1*
X1958231Y4029154D1*
X1197473Y4032040D1*
X1092435Y4030922D1*
X1093492Y4029307D1*
X1098017Y4021299D1*
X1101599Y4012827D1*
X1104192Y4004002D1*
X1105762Y3994939D1*
X1106290Y3985739D1*
X1105766Y3976573D1*
X1104200Y3967509D1*
X1101610Y3958683D1*
X1098031Y3950210D1*
X1093510Y3942200D1*
X1088105Y3934757D1*
X1081887Y3927979D1*
X1074937Y3921954D1*
X1067345Y3916761D1*
X1059211Y3912467D1*
X1050640Y3909128D1*
X1041745Y3906788D1*
X1032641Y3905477D1*
X1023446Y3905212D1*
X1014282Y3905998D1*
X1005267Y3907822D1*
X996518Y3910663D1*
X988151Y3914482D1*
X980273Y3919230D1*
X972988Y3924846D1*
X966390Y3931255D1*
X960566Y3938374D1*
X955592Y3946111D1*
X951532Y3954365D1*
X948439Y3963027D1*
X946354Y3971986D1*
X945303Y3981124D1*
X945301Y3990322D1*
X946348Y3999460D1*
X948429Y4008420D1*
X951519Y4017083D1*
X955575Y4025338D1*
X958241Y4029488D1*
X893809Y4028808D1*
X898017Y4021299D1*
X901599Y4012827D1*
X904192Y4004002D1*
X905762Y3994939D1*
X906290Y3985739D1*
X905766Y3976573D1*
X904200Y3967509D1*
X901610Y3958683D1*
X898031Y3950210D1*
X893510Y3942200D1*
X888105Y3934757D1*
X881887Y3927979D1*
X874937Y3921954D1*
X867345Y3916761D1*
X859211Y3912467D1*
X850640Y3909128D1*
X841745Y3906788D1*
X832641Y3905477D1*
X823446Y3905212D1*
X814282Y3905998D1*
X805267Y3907822D1*
X796518Y3910663D1*
X788151Y3914482D1*
X780273Y3919230D1*
X772988Y3924846D1*
X766390Y3931255D1*
X760566Y3938374D1*
X755592Y3946111D1*
X751532Y3954365D1*
X748439Y3963027D1*
X746354Y3971986D1*
X745303Y3981124D1*
X745301Y3990322D1*
X746348Y3999460D1*
X748429Y4008420D1*
X751519Y4017083D1*
X755575Y4025338D1*
X756871Y4027356D1*
X690827Y4026647D1*
X651366Y3971404D1*
X651710Y3969540D1*
X652718Y3960396D1*
X653055Y3951190D1*
X652720Y3942011D1*
X651715Y3932868D1*
X650045Y3923822D1*
X647719Y3914922D1*
X644750Y3906216D1*
X641153Y3897749D1*
X636948Y3889568D1*
X632157Y3881716D1*
X626806Y3874234D1*
X620922Y3867163D1*
X614539Y3860540D1*
X607688Y3854400D1*
X600408Y3848778D1*
X592737Y3843701D1*
X584716Y3839198D1*
X576388Y3835293D1*
X567796Y3832006D1*
X558988Y3829355D1*
X550010Y3827354D1*
X548277Y3827098D1*
X480001Y3731520D1*
X484058Y3328509D1*
X485437Y3164569D1*
X502421Y3164432D1*
X498734Y3169993D1*
X494800Y3178361D1*
X492126Y3187212D1*
X490770Y3196359D1*
X490760Y3205605D1*
X492097Y3214754D1*
X494751Y3223611D1*
X498667Y3231988D1*
X503760Y3239704D1*
X509923Y3246597D1*
X515159Y3250964D1*
X515158Y3251133D1*
X510010Y3255407D1*
X503833Y3262287D1*
X498722Y3269993D1*
X494789Y3278361D1*
X492115Y3287212D1*
X490759Y3296359D1*
X490749Y3305605D1*
X492086Y3314754D1*
X494740Y3323611D1*
X498656Y3331988D1*
X503749Y3339704D1*
X509912Y3346597D1*
X517013Y3352520D1*
X524900Y3357345D1*
X533406Y3360970D1*
X542349Y3363319D1*
X551539Y3364340D1*
X560779Y3364012D1*
X569874Y3362343D1*
X578628Y3359366D1*
X586856Y3355148D1*
X594381Y3349776D1*
X601045Y3343365D1*
X606704Y3336053D1*
X611238Y3327994D1*
X614550Y3319362D1*
X616570Y3310339D1*
X617255Y3301050D1*
X616590Y3291896D1*
X614589Y3282868D1*
X611296Y3274229D1*
X606779Y3266161D1*
X601136Y3258836D1*
X594486Y3252411D1*
X592703Y3251133D1*
X594392Y3249776D1*
X601056Y3243365D1*
X606715Y3236053D1*
X611249Y3227994D1*
X614561Y3219362D1*
X616581Y3210339D1*
X617266Y3201050D1*
X616601Y3191896D1*
X614600Y3182868D1*
X611307Y3174229D1*
X606790Y3166161D1*
X604856Y3163650D1*
X824635Y3161960D1*
X828021Y3161468D1*
X833191Y3158492D1*
X836393Y3153459D1*
X837015Y3150403D1*
X840602Y3102973D1*
X966618Y3104102D1*
X1414133Y3108133D1*
X1408632Y3111542D1*
X1401878Y3117927D1*
X1396549Y3125541D1*
X1392860Y3134072D1*
X1390965Y3143170D1*
X1390940Y3152464D1*
X1392787Y3161573D1*
X1396429Y3170124D1*
X1401717Y3177766D1*
X1408436Y3184187D1*
X1416310Y3189125D1*
X1425017Y3192376D1*
X1434200Y3193808D1*
X1443484Y3193362D1*
X1452487Y3191057D1*
X1460842Y3186986D1*
X1468207Y3181317D1*
X1474280Y3174282D1*
X1475382Y3172309D1*
X1475532Y3172402D1*
X1480269Y3179246D1*
X1486988Y3185668D1*
X1494862Y3190605D1*
X1503568Y3193856D1*
X1512751Y3195288D1*
X1522035Y3194843D1*
X1531038Y3192537D1*
X1539393Y3188467D1*
X1546758Y3182798D1*
X1552600Y3176030D1*
X1554325Y3178437D1*
X1560691Y3185208D1*
X1568290Y3190559D1*
X1576811Y3194271D1*
X1585904Y3196192D1*
X1595198Y3196243D1*
X1604312Y3194422D1*
X1612873Y3190803D1*
X1620530Y3185536D1*
X1626970Y3178835D1*
X1631929Y3170974D1*
X1635204Y3162277D1*
X1636662Y3153098D1*
X1636734Y3150520D1*
X1635819Y3141395D1*
X1633060Y3132520D1*
X1628572Y3124381D1*
X1622537Y3117313D1*
X1615203Y3111605D1*
X1606870Y3107489D1*
X1605136Y3106881D1*
X1602812Y3106193D1*
X1921264Y3093626D1*
X1956262Y3091989D1*
X1983339Y3094706D1*
X1985116Y3094759D1*
X2350352Y3079674D1*
X2344229Y3204953D1*
X1980124Y3216165D1*
X1976301Y3216887D1*
X3193945Y3673671D2*
X3800519D1*
X3194304Y3648802D2*
X3800717D1*
X3194663Y3623934D2*
X3800914D1*
X3195004Y3599065D2*
X3801111D1*
X3195363Y3574196D2*
X3801309D1*
X3195703Y3549327D2*
X3801524D1*
X3196062Y3524459D2*
X3801721D1*
X3196403Y3499590D2*
X3801919D1*
X3196762Y3474721D2*
X3802116D1*
X3197121Y3449852D2*
X3802314D1*
X3197462Y3424983D2*
X3802511D1*
X3197821Y3400115D2*
X3802708D1*
X3198162Y3375246D2*
X3711329D1*
X3758152D2*
X3802906D1*
X3198520Y3350377D2*
X3679392D1*
X3790089D2*
X3803103D1*
X3198861Y3325508D2*
X3669704D1*
X3199220Y3300640D2*
X3670672D1*
X3199561Y3275771D2*
X3682891D1*
X3786590D2*
X3803713D1*
X3199920Y3250902D2*
X3679751D1*
X3789730D2*
X3803910D1*
X3200279Y3226033D2*
X3669793D1*
X3200620Y3201165D2*
X3670547D1*
X3200978Y3176296D2*
X3682460D1*
X3787021D2*
X3804502D1*
X3201319Y3151427D2*
X3804700D1*
X3201678Y3126558D2*
X3706700D1*
X3763212D2*
X3804897D1*
X486537Y3101690D2*
X508773D1*
X598908D2*
X635696D1*
X3202019D2*
X3678387D1*
X3791524D2*
X3805112D1*
X615720Y3076821D2*
X637059D1*
X3202378D2*
X3669632D1*
X619614Y3051952D2*
X638423D1*
X3202665D2*
X3671372D1*
X613298Y3027083D2*
X1099624D1*
X1323679D2*
X2364919D1*
X2471794D2*
X3684703D1*
X3785191D2*
X3805705D1*
X487075Y3002214D2*
X509365D1*
X598316D2*
X1190914D1*
X1319624D2*
X1791238D1*
X1847732D2*
X2371503D1*
X2465227D2*
X3805902D1*
X615523Y2977346D2*
X1207259D1*
X1303279D2*
X1772991D1*
X1865997D2*
X2405629D1*
X2431101D2*
X3806099D1*
X619632Y2952477D2*
X864493D1*
X992468D2*
X1772560D1*
X1866410D2*
X2062881D1*
X2100500D2*
X2162873D1*
X2200509D2*
X3806297D1*
X995429Y2927608D2*
X1789193D1*
X1849795D2*
X2031931D1*
X2231442D2*
X3806494D1*
X995321Y2902739D2*
X1390753D1*
X1639245D2*
X2024754D1*
X2238618D2*
X3268787D1*
X3324779D2*
X3490283D1*
X995213Y2877871D2*
X1384778D1*
X1644663D2*
X2029635D1*
X2233738D2*
X3022066D1*
X995106Y2853002D2*
X1393498D1*
X1635315D2*
X2052511D1*
X2110871D2*
X2152520D1*
X2210862D2*
X2553849D1*
X994998Y2828133D2*
X2085632D1*
X994890Y2803264D2*
X1393175D1*
X1467449D2*
X1476641D1*
X1634077D2*
X1919111D1*
X994783Y2778396D2*
X1043071D1*
X1177344D2*
X1382176D1*
X1644538D2*
X1918483D1*
X994675Y2753527D2*
X1031337D1*
X1197367D2*
X1386249D1*
X1640052D2*
X1917855D1*
X994585Y2728658D2*
X1034853D1*
X1200130D2*
X1416195D1*
X1444412D2*
X1503519D1*
X1525295D2*
X1585388D1*
X1607272D2*
X1917228D1*
X994478Y2703789D2*
X1062071D1*
X1096640D2*
X1104935D1*
X1189437D2*
X1916600D1*
X1874017Y2678920D2*
X1915954D1*
X515078Y3004872D2*
X509930Y3009147D1*
X503753Y3016027D1*
X498643Y3023733D1*
X494709Y3032100D1*
X492036Y3040952D1*
X490679Y3050098D1*
X490670Y3059344D1*
X492006Y3068494D1*
X494660Y3077351D1*
X498576Y3085727D1*
X503669Y3093444D1*
X509832Y3100337D1*
X516933Y3106259D1*
X524820Y3111084D1*
X525327Y3111300D1*
X483984Y3111928D1*
X484931Y2937830D1*
X492738Y2938126D1*
X492036Y2940952D1*
X490679Y2950098D1*
X490670Y2959344D1*
X492006Y2968494D1*
X494660Y2977351D1*
X498576Y2985727D1*
X503669Y2993444D1*
X509832Y3000337D1*
X515068Y3004703D1*
X3797411Y3206306D2*
X3795410Y3197278D1*
X3792116Y3188639D1*
X3787599Y3180571D1*
X3781956Y3173246D1*
X3775307Y3166821D1*
X3767793Y3161433D1*
X3759574Y3157197D1*
X3750826Y3154202D1*
X3741735Y3152512D1*
X3732496Y3152165D1*
X3723304Y3153166D1*
X3714356Y3155495D1*
X3705842Y3159102D1*
X3697944Y3163911D1*
X3690831Y3169818D1*
X3684653Y3176697D1*
X3679543Y3184403D1*
X3675609Y3192771D1*
X3672936Y3201622D1*
X3671580Y3210769D1*
X3671570Y3220015D1*
X3672906Y3229164D1*
X3675561Y3238021D1*
X3679476Y3246398D1*
X3684570Y3254114D1*
X3690732Y3261008D1*
X3695968Y3265374D1*
X3690831Y3269818D1*
X3684653Y3276697D1*
X3679543Y3284403D1*
X3675609Y3292771D1*
X3672936Y3301622D1*
X3671580Y3310769D1*
X3671570Y3320015D1*
X3672906Y3329164D1*
X3675561Y3338021D1*
X3679476Y3346398D1*
X3684570Y3354114D1*
X3690732Y3361008D1*
X3697833Y3366930D1*
X3705721Y3371755D1*
X3714227Y3375380D1*
X3723170Y3377729D1*
X3732359Y3378750D1*
X3741600Y3378422D1*
X3750694Y3376753D1*
X3759448Y3373777D1*
X3767676Y3369558D1*
X3775202Y3364186D1*
X3781865Y3357775D1*
X3787524Y3350463D1*
X3792058Y3342404D1*
X3795371Y3333772D1*
X3797391Y3324749D1*
X3798076Y3315460D1*
X3797411Y3306306D1*
X3795410Y3297278D1*
X3792116Y3288639D1*
X3787599Y3280571D1*
X3781956Y3273246D1*
X3775307Y3266821D1*
X3773524Y3265543D1*
X3775202Y3264186D1*
X3781865Y3257775D1*
X3787524Y3250463D1*
X3792058Y3242404D1*
X3795371Y3233772D1*
X3797391Y3224749D1*
X3798076Y3215460D1*
X3797411Y3206306D1*
X3797622Y3059545D2*
X3795621Y3050517D1*
X3792327Y3041878D1*
X3787811Y3033809D1*
X3782168Y3026485D1*
X3775518Y3020060D1*
X3768004Y3014672D1*
X3759785Y3010435D1*
X3751037Y3007440D1*
X3741947Y3005751D1*
X3732707Y3005404D1*
X3723515Y3006405D1*
X3714567Y3008734D1*
X3706053Y3012341D1*
X3698155Y3017149D1*
X3691042Y3023056D1*
X3684864Y3029936D1*
X3679754Y3037642D1*
X3675821Y3046010D1*
X3673147Y3054861D1*
X3671791Y3064008D1*
X3671781Y3073254D1*
X3673118Y3082403D1*
X3675772Y3091260D1*
X3679687Y3099636D1*
X3684781Y3107353D1*
X3690944Y3114246D1*
X3698045Y3120169D1*
X3705932Y3124994D1*
X3714438Y3128619D1*
X3723381Y3130968D1*
X3732571Y3131989D1*
X3741811Y3131661D1*
X3750906Y3129991D1*
X3759660Y3127015D1*
X3767887Y3122796D1*
X3775413Y3117424D1*
X3782077Y3111014D1*
X3787735Y3103702D1*
X3792269Y3095643D1*
X3795582Y3087011D1*
X3797602Y3077988D1*
X3798287Y3068699D1*
X3797622Y3059545D1*
X2131591Y2879113D2*
X2129281Y2873988D1*
X2124116Y2866326D1*
X2117731Y2859648D1*
X2110308Y2854145D1*
X2102063Y2849975D1*
X2093231Y2847259D1*
X2084067Y2846074D1*
X2074835Y2846456D1*
X2065801Y2848392D1*
X2057223Y2851827D1*
X2049349Y2856662D1*
X2042406Y2862758D1*
X2036593Y2869940D1*
X2032077Y2878001D1*
X2028988Y2886710D1*
X2027416Y2895815D1*
X2027405Y2905055D1*
X2028956Y2914164D1*
X2032024Y2922879D1*
X2036520Y2930951D1*
X2042316Y2938147D1*
X2049245Y2944260D1*
X2057108Y2949114D1*
X2065677Y2952569D1*
X2074707Y2954526D1*
X2083938Y2954929D1*
X2093105Y2953767D1*
X2101943Y2951072D1*
X2110198Y2946922D1*
X2117634Y2941436D1*
X2124035Y2934773D1*
X2129218Y2927124D1*
X2131592Y2921889D1*
X2135382Y2929191D1*
X2140897Y2936605D1*
X2147586Y2942979D1*
X2155256Y2948132D1*
X2163686Y2951915D1*
X2172634Y2954218D1*
X2181843Y2954976D1*
X2191047Y2954166D1*
X2199983Y2951813D1*
X2208392Y2947984D1*
X2216032Y2942788D1*
X2222685Y2936376D1*
X2228159Y2928932D1*
X2232296Y2920670D1*
X2234977Y2911827D1*
X2236125Y2902659D1*
X2236167Y2900499D1*
X2235395Y2891356D1*
X2233077Y2882412D1*
X2229281Y2873988D1*
X2224116Y2866326D1*
X2217731Y2859648D1*
X2210308Y2854145D1*
X2202063Y2849975D1*
X2193231Y2847259D1*
X2184067Y2846074D1*
X2174835Y2846456D1*
X2165801Y2848392D1*
X2157223Y2851827D1*
X2149349Y2856662D1*
X2142406Y2862758D1*
X2136593Y2869940D1*
X2132077Y2878001D1*
X2131736Y2878962D1*
X1475223Y2861632D2*
X1470931Y2853851D1*
X1464897Y2846783D1*
X1457562Y2841074D1*
X1449229Y2836959D1*
X1440238Y2834605D1*
X1430958Y2834110D1*
X1421767Y2835492D1*
X1413043Y2838697D1*
X1405142Y2843592D1*
X1398389Y2849977D1*
X1393059Y2857591D1*
X1389371Y2866121D1*
X1387476Y2875220D1*
X1387451Y2884514D1*
X1389297Y2893623D1*
X1392939Y2902173D1*
X1398228Y2909816D1*
X1404947Y2916237D1*
X1412821Y2921175D1*
X1421528Y2924426D1*
X1430711Y2925858D1*
X1439994Y2925412D1*
X1448998Y2923107D1*
X1457353Y2919036D1*
X1464717Y2913367D1*
X1470790Y2906332D1*
X1475106Y2898606D1*
X1476989Y2902423D1*
X1482278Y2910065D1*
X1488997Y2916487D1*
X1496871Y2921424D1*
X1505578Y2924675D1*
X1514761Y2926107D1*
X1524044Y2925662D1*
X1533047Y2923356D1*
X1541403Y2919286D1*
X1548767Y2913617D1*
X1554840Y2906581D1*
X1556456Y2903689D1*
X1557808Y2905916D1*
X1563632Y2913159D1*
X1570795Y2919081D1*
X1579004Y2923439D1*
X1587922Y2926056D1*
X1597184Y2926825D1*
X1606411Y2925713D1*
X1615226Y2922767D1*
X1623267Y2918106D1*
X1630205Y2911923D1*
X1635757Y2904469D1*
X1639694Y2896050D1*
X1641856Y2887011D1*
X1642265Y2880899D1*
X1641349Y2871774D1*
X1638591Y2862899D1*
X1634102Y2854761D1*
X1628067Y2847693D1*
X1620733Y2841984D1*
X1612400Y2837868D1*
X1603409Y2835515D1*
X1594128Y2835019D1*
X1584938Y2836402D1*
X1576213Y2839606D1*
X1568313Y2844501D1*
X1561560Y2850886D1*
X1557036Y2857347D1*
X1554981Y2854101D1*
X1548946Y2847032D1*
X1541612Y2841324D1*
X1533279Y2837208D1*
X1524288Y2834855D1*
X1515007Y2834359D1*
X1505817Y2835742D1*
X1497093Y2838946D1*
X1489192Y2843841D1*
X1482439Y2850226D1*
X1477109Y2857840D1*
X1475369Y2861864D1*
X1472504Y2754981D2*
X1468081Y2746962D1*
X1462046Y2739893D1*
X1454712Y2734185D1*
X1446379Y2730069D1*
X1437388Y2727715D1*
X1428107Y2727220D1*
X1418917Y2728602D1*
X1410192Y2731807D1*
X1402292Y2736702D1*
X1395539Y2743087D1*
X1390209Y2750701D1*
X1386521Y2759232D1*
X1384625Y2768330D1*
X1384600Y2777624D1*
X1386447Y2786733D1*
X1390089Y2795284D1*
X1395378Y2802926D1*
X1402097Y2809347D1*
X1409971Y2814285D1*
X1418677Y2817536D1*
X1427860Y2818968D1*
X1437144Y2818522D1*
X1446147Y2816217D1*
X1454502Y2812147D1*
X1461867Y2806477D1*
X1467940Y2799442D1*
X1472167Y2791875D1*
X1474179Y2796003D1*
X1479468Y2803645D1*
X1486187Y2810067D1*
X1494061Y2815004D1*
X1502768Y2818255D1*
X1511951Y2819687D1*
X1521234Y2819242D1*
X1530238Y2816936D1*
X1538593Y2812866D1*
X1545958Y2807197D1*
X1552030Y2800161D1*
X1555257Y2794385D1*
X1556110Y2795994D1*
X1561399Y2803636D1*
X1568118Y2810057D1*
X1575992Y2814995D1*
X1584698Y2818246D1*
X1593881Y2819678D1*
X1603165Y2819232D1*
X1612168Y2816927D1*
X1620523Y2812857D1*
X1627888Y2807187D1*
X1633961Y2800152D1*
X1638493Y2792038D1*
X1641299Y2783178D1*
X1642265Y2773810D1*
X1641349Y2764685D1*
X1638591Y2755810D1*
X1634102Y2747672D1*
X1628067Y2740603D1*
X1620733Y2734895D1*
X1612400Y2730779D1*
X1603409Y2728425D1*
X1594128Y2727930D1*
X1584938Y2729312D1*
X1576213Y2732517D1*
X1568313Y2737412D1*
X1561560Y2743797D1*
X1556230Y2751411D1*
X1555448Y2753219D1*
X1552172Y2747681D1*
X1546137Y2740613D1*
X1538803Y2734904D1*
X1530469Y2730788D1*
X1521478Y2728435D1*
X1512198Y2727939D1*
X1503007Y2729322D1*
X1494283Y2732526D1*
X1486383Y2737421D1*
X1479629Y2743806D1*
X1474299Y2751420D1*
X1472639Y2755260D1*
X1864505Y2955046D2*
X1861747Y2946171D1*
X1857258Y2938032D1*
X1851223Y2930964D1*
X1843889Y2925256D1*
X1835556Y2921140D1*
X1826565Y2918786D1*
X1817284Y2918291D1*
X1808094Y2919673D1*
X1799370Y2922878D1*
X1791469Y2927773D1*
X1784716Y2934158D1*
X1779386Y2941772D1*
X1775698Y2950303D1*
X1773802Y2959401D1*
X1773777Y2968695D1*
X1775624Y2977804D1*
X1779266Y2986355D1*
X1784555Y2993997D1*
X1791274Y3000418D1*
X1799148Y3005356D1*
X1807855Y3008607D1*
X1817038Y3010039D1*
X1826321Y3009593D1*
X1835324Y3007288D1*
X1843680Y3003217D1*
X1851044Y2997548D1*
X1857117Y2990513D1*
X1861649Y2982399D1*
X1864455Y2973538D1*
X1865421Y2964171D1*
X1864505Y2955046D1*
X984901Y2956014D2*
X989824Y2952635D1*
X992615Y2947363D1*
X992991Y2944266D1*
X991963Y2701623D1*
X1112290Y2698523D1*
X1112362Y2698517D1*
X1111951Y2698846D1*
X1105949Y2705727D1*
X1104209Y2708645D1*
X1103753Y2708363D1*
X1095420Y2704248D1*
X1086429Y2701894D1*
X1077148Y2701398D1*
X1067957Y2702781D1*
X1059233Y2705985D1*
X1051333Y2710880D1*
X1044579Y2717265D1*
X1039249Y2724879D1*
X1035561Y2733410D1*
X1033666Y2742509D1*
X1033641Y2751803D1*
X1035487Y2760912D1*
X1039129Y2769462D1*
X1044418Y2777105D1*
X1051137Y2783526D1*
X1059011Y2788463D1*
X1067718Y2791715D1*
X1076901Y2793147D1*
X1086184Y2792701D1*
X1095188Y2790396D1*
X1103543Y2786325D1*
X1110908Y2780656D1*
X1115409Y2775441D1*
X1119157Y2778162D1*
X1127202Y2782482D1*
X1135888Y2785296D1*
X1144938Y2786514D1*
X1154060Y2786097D1*
X1162960Y2784058D1*
X1171354Y2780462D1*
X1178970Y2775425D1*
X1185565Y2769109D1*
X1190926Y2761717D1*
X1194881Y2753487D1*
X1197303Y2744683D1*
X1198114Y2735630D1*
X1197287Y2726494D1*
X1194851Y2717694D1*
X1190882Y2709470D1*
X1185509Y2702087D1*
X1179942Y2696774D1*
X1918428Y2677709D1*
X1921725Y2807742D1*
X1922293Y2811179D1*
X1925384Y2816281D1*
X1930488Y2819370D1*
X1933558Y2819923D1*
X3259060Y2890322D1*
X3261854Y2894359D1*
X3268573Y2900781D1*
X3276447Y2905718D1*
X3285154Y2908969D1*
X3294337Y2910401D1*
X3303620Y2909956D1*
X3312624Y2907650D1*
X3320979Y2903580D1*
X3328343Y2897910D1*
X3331564Y2894180D1*
X3809073Y2919539D1*
X3808057Y3045323D1*
X3802822Y3698385D1*
X3714415Y3697356D1*
X3191215Y3691218D1*
X3192453Y3602858D1*
X3200209Y3053293D1*
X3199440Y3048790D1*
X3196102Y3043845D1*
X3190853Y3041011D1*
X3187760Y3040609D1*
X2468078Y3037762D1*
X2468483Y3036292D1*
X2469293Y3027239D1*
X2468467Y3018103D1*
X2466031Y3009303D1*
X2462062Y3001079D1*
X2456688Y2993696D1*
X2450083Y2987391D1*
X2442458Y2982367D1*
X2434059Y2978786D1*
X2425155Y2976761D1*
X2416032Y2976359D1*
X2406985Y2977593D1*
X2398303Y2980422D1*
X2390265Y2984755D1*
X2383131Y2990455D1*
X2377129Y2997336D1*
X2372452Y3005179D1*
X2369251Y3013731D1*
X2367628Y3022716D1*
X2367636Y3031848D1*
X2368642Y3037366D1*
X1773079Y3035015D1*
X1320632Y3033225D1*
X1321204Y3025060D1*
X1320565Y3015903D1*
X1318655Y3006905D1*
X1315512Y2998260D1*
X1311196Y2990137D1*
X1305791Y2982694D1*
X1299403Y2976075D1*
X1292157Y2970409D1*
X1284192Y2965808D1*
X1275664Y2962359D1*
X1266739Y2960131D1*
X1257592Y2959167D1*
X1248399Y2959485D1*
X1239339Y2961080D1*
X1230590Y2963920D1*
X1222321Y2967950D1*
X1214694Y2973091D1*
X1207856Y2979244D1*
X1201941Y2986289D1*
X1197064Y2994088D1*
X1193321Y3002491D1*
X1190782Y3011332D1*
X1189500Y3020441D1*
X1189497Y3029639D1*
X1189927Y3032708D1*
X1183964Y3032686D1*
X1179401Y3024391D1*
X1173366Y3017323D1*
X1166032Y3011614D1*
X1157699Y3007498D1*
X1148708Y3005145D1*
X1139427Y3004649D1*
X1130237Y3006032D1*
X1121513Y3009236D1*
X1113612Y3014131D1*
X1106859Y3020516D1*
X1101529Y3028130D1*
X1099703Y3032354D1*
X653977Y3030590D1*
X650202Y3031156D1*
X645094Y3034238D1*
X641997Y3039337D1*
X641439Y3042406D1*
X637757Y3109597D1*
X583795Y3110416D1*
X586776Y3108887D1*
X594302Y3103515D1*
X600965Y3097105D1*
X606624Y3089792D1*
X611158Y3081734D1*
X614470Y3073101D1*
X616490Y3064078D1*
X617175Y3054789D1*
X616510Y3045635D1*
X614510Y3036608D1*
X611216Y3027968D1*
X606699Y3019900D1*
X601056Y3012575D1*
X594406Y3006151D1*
X592623Y3004872D1*
X594302Y3003515D1*
X600965Y2997105D1*
X606624Y2989792D1*
X611158Y2981734D1*
X614470Y2973101D1*
X616490Y2964078D1*
X617175Y2954789D1*
X616510Y2945635D1*
X615891Y2942840D1*
X701403Y2946127D1*
X979997Y2956810D1*
X984901Y2956014D1*
D24*
X1956200Y3740264D3*
Y3937115D3*
D36*
X553920Y3301050D3*
X553931Y3201050D3*
X553840Y3054789D3*
Y2954789D3*
X553857Y2808029D3*
X553868Y2708029D3*
X3734741Y3215460D3*
Y3315460D3*
X3734952Y2968699D3*
Y3068699D3*
X3734550Y2721930D3*
Y2821930D3*
X553529Y2561199D3*
Y2461199D3*
X554321Y2315069D3*
Y2215069D3*
X554129Y2067669D3*
Y1967669D3*
X1385166Y3514289D2*
D39*
X1503276D1*
X1395008Y3750510D2*
X1493434D1*
D42*
X1228280Y1534520D3*
X1328280D3*
X1428280D3*
X1528280D3*
X1628280D3*
X1728280D3*
X1828280D3*
X1928280D3*
X2028280D3*
X2128280D3*
X2228280D3*
X2328280D3*
X2428280D3*
X2528280D3*
X2628280D3*
X2728280D3*
X2828280D3*
X2928280D3*
X3028280D3*
X3128280D3*
X1228280Y1434520D3*
X1328280D3*
X1428280D3*
X1528280D3*
X1628280D3*
X1728280D3*
X1828280D3*
X1928280D3*
X2028280D3*
X2128280D3*
X2228280D3*
X2328280D3*
X2428280D3*
X2528280D3*
X2628280D3*
X2728280D3*
X2828280D3*
X2928280D3*
X3028280D3*
X3128280D3*
D45*
X803031Y1330789D3*
Y1230789D3*
Y1130789D3*
Y1030789D3*
D48*
X3028262Y1334460D3*
X3128262D3*
D36*
X3732171Y1631620D3*
Y1731620D3*
Y1831620D3*
Y1931620D3*
Y2031620D3*
Y2131620D3*
Y2231620D3*
Y2331620D3*
Y2431620D3*
Y2531620D3*
X3731721Y555250D3*
Y655250D3*
Y755250D3*
Y855250D3*
Y955250D3*
Y1055250D3*
Y1155250D3*
Y1255250D3*
Y1355250D3*
Y1455250D3*
D48*
X2081691Y2900499D3*
X2181691D3*
D52*
X1228541Y1920840D3*
Y2020840D3*
X1328541Y1920840D3*
Y2020840D3*
X1428541Y1920840D3*
Y2020840D3*
X1528541Y1920840D3*
Y2020840D3*
X1628541D3*
Y1920840D3*
X1728541Y2020840D3*
Y1920840D3*
X1828541Y2020840D3*
Y1920840D3*
X1928541D3*
Y2020840D3*
X2028541Y1920840D3*
Y2020840D3*
X2128541Y1920840D3*
Y2020840D3*
X2228541Y1920840D3*
Y2020840D3*
X2328541Y1920840D3*
Y2020840D3*
X2428541Y1920840D3*
Y2020840D3*
X2528541Y1920840D3*
Y2020840D3*
X2628541Y1920840D3*
Y2020840D3*
X2728541Y1920840D3*
Y2020840D3*
X2828541Y1920840D3*
Y2020840D3*
X2928541Y1920840D3*
Y2020840D3*
X3028541Y1920840D3*
Y2020840D3*
X3128541Y1920840D3*
Y2020840D3*
D53*
X3321381Y577940D3*
X3768700Y3951190D3*
X527121D3*
X1035591Y576310D3*
D61*
X740691Y3485739D3*
X925730D3*
X1110770D3*
X825730Y3985739D3*
X1025730D3*
M02*
