M48
INCH
T01C0.019
T02C0.025
T03C0.03
T04C0.0315
T05C0.035
T06C0.0394
T07C0.04
T08C0.0421
T09C0.0433
T10C0.05
T11C0.0512
T12C0.0728
T13C0.08
T14C0.1285
%
T01
X+027703Y+027845
X+028236Y+027822
X+028222Y+027033
X+027720Y+027094
X+025710Y+028931
X+024688Y+029285
X+025382Y+030192
X+026620Y+031337
X+026117Y+033725
X+025412Y+034370
X+024706Y+033701
X+024025Y+034364
X+023298Y+033701
X+022576Y+034378
X+023305Y+035041
X+022584Y+035692
X+023318Y+036354
X+024020Y+037019
X+024705Y+036368
X+024032Y+035692
X+024710Y+035077
X+025403Y+035697
X+026122Y+035045
X+026837Y+035669
X+026134Y+036349
X+026852Y+036995
X+025428Y+037031
X+022593Y+037010
X+026860Y+034382
X+019867Y+031410
X+018195Y+029642
X+017634Y+028180
X+017031Y+027071
X+015963Y+027738
X+015144Y+027738
X+014303Y+027731
X+014332Y+028800
X+015172Y+028802
X+015963Y+028809
X+015908Y+031505
X+015152Y+031494
X+014367Y+031479
X+014323Y+032533
X+015137Y+032538
X+015930Y+032516
X+016672Y+034003
X+017955Y+034917
X+011416Y+030505
X+010794Y+027473
X+009161Y+023994
X+007465Y+023151
X+007465Y+017661
X+010466Y+016210
X+011456Y+014782
X+012283Y+016210
X+013350Y+016232
X+014753Y+013085
X+017358Y+011689
X+019753Y+012690
X+020826Y+017472
X+020309Y+018181
X+022838Y+017952
X+023265Y+017506
X+024255Y+018282
X+028753Y+015815
X+030516Y+016651
X+035358Y+018282
X+033484Y+023117
X+033057Y+023647
X+033127Y+026487
X+032968Y+028645
X+034069Y+031795
X+024724Y+026740
X+023494Y+026999
X+023488Y+026401
X+023297Y+027600
X+018232Y+024325
X+017803Y+023369
X+015974Y+023976
X+015144Y+023950
X+014314Y+023963
X+014275Y+025080
X+015137Y+025061
X+015980Y+025093
T02
X+011483Y+023608
X+011472Y+027356
X+008497Y+028423
X+009799Y+030275
X+024184Y+030272
X+024769Y+027378
T03
X+028754Y+027355
T04
X+019562Y+037403
X+019562Y+039371
T05
X+012283Y+015345
X+012283Y+014345
X+013283Y+014345
X+013283Y+015345
X+014283Y+015345
X+015283Y+015345
X+016283Y+015345
X+016283Y+014345
X+015283Y+014345
X+014283Y+014345
X+017283Y+014345
X+018283Y+014345
X+018283Y+015345
X+017283Y+015345
X+019283Y+015345
X+019283Y+014345
X+020283Y+014345
X+020283Y+015345
X+021283Y+015345
X+022283Y+015345
X+023283Y+015345
X+023283Y+014345
X+022283Y+014345
X+021283Y+014345
X+024283Y+014345
X+024283Y+015345
X+025283Y+015345
X+026283Y+015345
X+026283Y+014345
X+025283Y+014345
X+027283Y+014345
X+027283Y+015345
X+028283Y+015345
X+029283Y+015345
X+029283Y+014345
X+028283Y+014345
X+030283Y+014345
X+030283Y+015345
X+031283Y+015345
X+031283Y+014345
T06
X+013852Y+035143G85X+015033Y+035143
X+013950Y+037505G85X+014934Y+037505
T07
X+024521Y+028550
X+012553Y+030251
X+014442Y+036051
X+009257Y+036051
X+005863Y+035839
T08
X+008030Y+013308
X+008030Y+012308
X+008030Y+011308
X+008030Y+010308
T09
X+030283Y+013345
X+031283Y+013345
X+031285Y+019208
X+030285Y+019208
X+030285Y+020208
X+031285Y+020208
X+029285Y+020208
X+028285Y+020208
X+027285Y+020208
X+027285Y+019208
X+028285Y+019208
X+029285Y+019208
X+026285Y+019208
X+025285Y+019208
X+024285Y+019208
X+024285Y+020208
X+025285Y+020208
X+026285Y+020208
X+023285Y+020208
X+022285Y+020208
X+021285Y+020208
X+020285Y+020208
X+020285Y+019208
X+021285Y+019208
X+022285Y+019208
X+023285Y+019208
X+019285Y+019208
X+019285Y+020208
X+018285Y+020208
X+017285Y+020208
X+017285Y+019208
X+018285Y+019208
X+016285Y+019208
X+016285Y+020208
X+015285Y+020208
X+015285Y+019208
X+014285Y+019208
X+014285Y+020208
X+013285Y+020208
X+012285Y+020208
X+012285Y+019208
X+013285Y+019208
X+020817Y+029005
X+021817Y+029005
T10
X+028211Y+032232
X+028278Y+033390
X+031307Y+029534
X+022138Y+031619
T11
X+005539Y+033010
X+005539Y+032010
X+005538Y+030548
X+005538Y+029548
X+005539Y+028080
X+005539Y+027080
X+005535Y+025612
X+005535Y+024612
X+005543Y+023151
X+005543Y+022151
X+005541Y+020677
X+005541Y+019677
X+037322Y+019316
X+037322Y+020316
X+037322Y+021316
X+037322Y+022316
X+037322Y+023316
X+037322Y+024316
X+037322Y+025316
X+037346Y+027219
X+037346Y+028219
X+037350Y+029687
X+037350Y+030687
X+037347Y+032155
X+037347Y+033155
X+037322Y+018316
X+037322Y+017316
X+037322Y+016316
X+037317Y+014552
X+037317Y+013552
X+037317Y+012552
X+037317Y+011552
X+037317Y+010552
X+037317Y+009552
X+037317Y+008552
X+037317Y+007552
X+037317Y+006552
X+037317Y+005552
T12
X+007407Y+034857
X+009257Y+034857
X+011108Y+034857
X+010257Y+039857
X+008257Y+039857
T13
X+037327Y+034849
T14
X+033214Y+005779
X+010356Y+005763
X+005271Y+039512
X+037687Y+039512
T00
M30
