G04 DipTrace 4.3.0.5*
G04 TopSilk.gbr*
%MOIN*%
G04 #@! TF.FileFunction,Legend,Top*
G04 #@! TF.Part,Single*
%ADD10C,0.009843*%
%ADD13C,0.004724*%
%ADD26C,0.005*%
%ADD30C,0.008005*%
%ADD160C,0.006176*%
%FSLAX26Y26*%
G04*
G70*
G90*
G75*
G01*
G04 TopSilk*
%LPD*%
X1749507Y3838690D2*
D13*
G02X1749507Y3838690I206693J0D01*
G01*
G36*
X1798075Y3670722D2*
X1796791Y3670807D1*
X1795528Y3671058D1*
X1794309Y3671472D1*
X1793154Y3672041D1*
X1792084Y3672756D1*
X1791116Y3673605D1*
X1790267Y3674573D1*
X1789551Y3675644D1*
X1788982Y3676798D1*
X1788568Y3678017D1*
X1788317Y3679280D1*
X1788233Y3680565D1*
X1788317Y3681850D1*
X1788568Y3683112D1*
X1788982Y3684331D1*
X1789551Y3685486D1*
X1790267Y3686557D1*
X1791116Y3687525D1*
X1792084Y3688373D1*
X1793154Y3689089D1*
X1794309Y3689658D1*
X1795528Y3690072D1*
X1796791Y3690323D1*
X1798075Y3690407D1*
D1*
X1799360Y3690323D1*
X1800623Y3690072D1*
X1801842Y3689658D1*
X1802997Y3689089D1*
X1804067Y3688373D1*
X1805035Y3687525D1*
X1805884Y3686557D1*
X1806599Y3685486D1*
X1807169Y3684331D1*
X1807582Y3683112D1*
X1807834Y3681850D1*
X1807918Y3680565D1*
X1807834Y3679280D1*
X1807582Y3678017D1*
X1807169Y3676798D1*
X1806599Y3675644D1*
X1805884Y3674573D1*
X1805035Y3673605D1*
X1804067Y3672756D1*
X1802997Y3672041D1*
X1801842Y3671472D1*
X1800623Y3671058D1*
X1799360Y3670807D1*
X1798075Y3670722D1*
D1*
G37*
X2864732Y2972400D2*
D26*
X2864725Y3267676D1*
X3041897Y2972404D2*
X3041891Y3267680D1*
G36*
X2953316Y2912166D2*
X2952288Y2912233D1*
X2951278Y2912434D1*
X2950302Y2912765D1*
X2949379Y2913221D1*
X2948522Y2913793D1*
X2947748Y2914472D1*
X2947069Y2915246D1*
X2946496Y2916103D1*
X2946041Y2917026D1*
X2945710Y2918002D1*
X2945509Y2919012D1*
X2945441Y2920040D1*
X2945509Y2921067D1*
X2945710Y2922078D1*
X2946041Y2923053D1*
X2946496Y2923977D1*
X2947068Y2924833D1*
X2947748Y2925608D1*
X2948522Y2926287D1*
X2949378Y2926859D1*
X2950302Y2927314D1*
X2951277Y2927646D1*
X2952288Y2927847D1*
X2953315Y2927914D1*
D1*
X2954343Y2927847D1*
X2955353Y2927646D1*
X2956329Y2927315D1*
X2957252Y2926859D1*
X2958109Y2926287D1*
X2958883Y2925608D1*
X2959562Y2924833D1*
X2960134Y2923977D1*
X2960590Y2923053D1*
X2960921Y2922078D1*
X2961122Y2921068D1*
X2961189Y2920040D1*
X2961122Y2919012D1*
X2960921Y2918002D1*
X2960590Y2917027D1*
X2960135Y2916103D1*
X2959562Y2915247D1*
X2958883Y2914472D1*
X2958109Y2913793D1*
X2957253Y2913221D1*
X2956329Y2912765D1*
X2955354Y2912434D1*
X2954343Y2912233D1*
X2953316Y2912166D1*
D1*
G37*
X3021043Y3704144D2*
D26*
X3068339D1*
Y3424616D1*
X3021043D1*
X2875478Y3704144D2*
X2828182D1*
Y3424616D1*
X2875478D1*
G36*
X2948260Y3778947D2*
X2949288Y3778879D1*
X2950298Y3778678D1*
X2951274Y3778347D1*
X2952197Y3777892D1*
X2953054Y3777320D1*
X2953828Y3776640D1*
X2954507Y3775866D1*
X2955079Y3775010D1*
X2955535Y3774086D1*
X2955866Y3773111D1*
X2956067Y3772100D1*
X2956134Y3771073D1*
X2956067Y3770045D1*
X2955866Y3769035D1*
X2955535Y3768059D1*
X2955079Y3767136D1*
X2954507Y3766279D1*
X2953828Y3765505D1*
X2953054Y3764826D1*
X2952197Y3764254D1*
X2951274Y3763798D1*
X2950298Y3763467D1*
X2949288Y3763266D1*
X2948260Y3763199D1*
D1*
X2947233Y3763266D1*
X2946222Y3763467D1*
X2945247Y3763798D1*
X2944323Y3764254D1*
X2943467Y3764826D1*
X2942693Y3765505D1*
X2942013Y3766279D1*
X2941441Y3767136D1*
X2940986Y3768059D1*
X2940655Y3769035D1*
X2940454Y3770045D1*
X2940386Y3771073D1*
X2940454Y3772100D1*
X2940655Y3773111D1*
X2940986Y3774086D1*
X2941441Y3775010D1*
X2942013Y3775866D1*
X2942693Y3776640D1*
X2943467Y3777320D1*
X2944323Y3777892D1*
X2945247Y3778347D1*
X2946222Y3778678D1*
X2947233Y3778879D1*
X2948260Y3778947D1*
D1*
G37*
X2331828Y2956400D2*
D30*
X2347576D1*
X2402694D1*
X2331828Y2905219D2*
X2347576D1*
X2402694D1*
X2347576Y2956400D2*
Y2905219D1*
X554814Y3494346D2*
D26*
X497728D1*
X941630Y3123012D2*
X941631Y3090728D1*
X871551Y3123010D2*
X871552Y3090727D1*
X965559Y2866473D2*
X965560Y2834189D1*
X895480Y2866471D2*
X895481Y2834187D1*
X689740Y3360907D2*
D13*
X422024Y3360878D1*
X422048Y3141193D1*
X689765Y3141222D1*
X689740Y3360907D1*
G36*
X455644Y3316733D2*
X424134Y3316730D1*
X424137Y3285344D1*
X455648Y3285347D1*
X455644Y3316733D1*
G37*
G36*
X455655Y3216817D2*
X424145Y3216814D1*
X424148Y3185319D1*
X455659Y3185322D1*
X455655Y3216817D1*
G37*
G36*
X405099Y3310876D2*
X406384Y3310792D1*
X407646Y3310541D1*
X408866Y3310127D1*
X410020Y3309558D1*
X411091Y3308843D1*
X412059Y3307994D1*
X412908Y3307026D1*
X413623Y3305955D1*
X414193Y3304801D1*
X414607Y3303582D1*
X414858Y3302319D1*
X414942Y3301034D1*
X414858Y3299750D1*
X414607Y3298487D1*
X414194Y3297268D1*
X413624Y3296113D1*
X412909Y3295042D1*
X412060Y3294074D1*
X411093Y3293225D1*
X410022Y3292510D1*
X408868Y3291940D1*
X407648Y3291526D1*
X406386Y3291275D1*
X405101Y3291191D1*
D1*
X403816Y3291275D1*
X402554Y3291526D1*
X401334Y3291940D1*
X400180Y3292509D1*
X399109Y3293224D1*
X398141Y3294073D1*
X397292Y3295041D1*
X396577Y3296111D1*
X396007Y3297266D1*
X395593Y3298485D1*
X395342Y3299747D1*
X395257Y3301032D1*
X395342Y3302317D1*
X395593Y3303580D1*
X396006Y3304799D1*
X396576Y3305954D1*
X397291Y3307024D1*
X398139Y3307992D1*
X399107Y3308841D1*
X400178Y3309557D1*
X401332Y3310126D1*
X402551Y3310540D1*
X403814Y3310791D1*
X405099Y3310876D1*
D1*
G37*
X689667Y3114632D2*
D13*
X421951D1*
Y2894947D1*
X689667D1*
Y3114632D1*
G36*
X455566Y3070483D2*
X424056D1*
Y3039098D1*
X455566D1*
Y3070483D1*
G37*
G36*
Y2970567D2*
X424056D1*
Y2939073D1*
X455566D1*
Y2970567D1*
G37*
G36*
X405020Y3064632D2*
X406305Y3064548D1*
X407568Y3064296D1*
X408787Y3063883D1*
X409941Y3063313D1*
X411012Y3062598D1*
X411980Y3061749D1*
X412829Y3060781D1*
X413544Y3059710D1*
X414114Y3058556D1*
X414527Y3057337D1*
X414779Y3056074D1*
X414863Y3054789D1*
X414779Y3053505D1*
X414527Y3052242D1*
X414114Y3051023D1*
X413544Y3049868D1*
X412829Y3048797D1*
X411980Y3047830D1*
X411012Y3046981D1*
X409941Y3046265D1*
X408787Y3045696D1*
X407568Y3045282D1*
X406305Y3045031D1*
X405020Y3044947D1*
D1*
X403736Y3045031D1*
X402473Y3045282D1*
X401254Y3045696D1*
X400099Y3046265D1*
X399028Y3046981D1*
X398060Y3047830D1*
X397212Y3048797D1*
X396496Y3049868D1*
X395927Y3051023D1*
X395513Y3052242D1*
X395262Y3053505D1*
X395178Y3054789D1*
X395262Y3056074D1*
X395513Y3057337D1*
X395927Y3058556D1*
X396496Y3059710D1*
X397212Y3060781D1*
X398060Y3061749D1*
X399028Y3062598D1*
X400099Y3063313D1*
X401254Y3063883D1*
X402473Y3064296D1*
X403736Y3064548D1*
X405020Y3064632D1*
D1*
G37*
X689677Y2867886D2*
D13*
X421961Y2867857D1*
X421985Y2648172D1*
X689702Y2648201D1*
X689677Y2867886D1*
G36*
X455581Y2823712D2*
X424071Y2823709D1*
X424074Y2792323D1*
X455585Y2792326D1*
X455581Y2823712D1*
G37*
G36*
X455592Y2723796D2*
X424082Y2723793D1*
X424085Y2692298D1*
X455596Y2692301D1*
X455592Y2723796D1*
G37*
G36*
X405036Y2817855D2*
X406321Y2817771D1*
X407583Y2817520D1*
X408803Y2817106D1*
X409957Y2816537D1*
X411028Y2815822D1*
X411996Y2814973D1*
X412845Y2814005D1*
X413560Y2812934D1*
X414130Y2811780D1*
X414544Y2810561D1*
X414795Y2809298D1*
X414879Y2808013D1*
X414795Y2806729D1*
X414544Y2805466D1*
X414131Y2804247D1*
X413561Y2803092D1*
X412846Y2802021D1*
X411997Y2801053D1*
X411030Y2800204D1*
X409959Y2799489D1*
X408805Y2798919D1*
X407585Y2798505D1*
X406323Y2798254D1*
X405038Y2798170D1*
D1*
X403753Y2798254D1*
X402491Y2798505D1*
X401271Y2798919D1*
X400117Y2799488D1*
X399046Y2800203D1*
X398078Y2801052D1*
X397229Y2802020D1*
X396514Y2803090D1*
X395944Y2804245D1*
X395530Y2805464D1*
X395279Y2806726D1*
X395194Y2808011D1*
X395279Y2809296D1*
X395530Y2810559D1*
X395943Y2811778D1*
X396513Y2812933D1*
X397228Y2814003D1*
X398076Y2814971D1*
X399044Y2815820D1*
X400115Y2816536D1*
X401269Y2817105D1*
X402488Y2817519D1*
X403751Y2817770D1*
X405036Y2817855D1*
D1*
G37*
X3598914Y3155617D2*
D13*
X3866630D1*
Y3375302D1*
X3598914D1*
Y3155617D1*
G36*
X3833015Y3199766D2*
X3864525D1*
Y3231151D1*
X3833015D1*
Y3199766D1*
G37*
G36*
Y3299682D2*
X3864525D1*
Y3331176D1*
X3833015D1*
Y3299682D1*
G37*
G36*
X3883561Y3205617D2*
X3882276Y3205702D1*
X3881013Y3205953D1*
X3879794Y3206367D1*
X3878640Y3206936D1*
X3877569Y3207651D1*
X3876601Y3208500D1*
X3875752Y3209468D1*
X3875037Y3210539D1*
X3874468Y3211693D1*
X3874054Y3212912D1*
X3873803Y3214175D1*
X3873718Y3215460D1*
X3873803Y3216745D1*
X3874054Y3218007D1*
X3874468Y3219226D1*
X3875037Y3220381D1*
X3875752Y3221452D1*
X3876601Y3222420D1*
X3877569Y3223268D1*
X3878640Y3223984D1*
X3879794Y3224553D1*
X3881013Y3224967D1*
X3882276Y3225218D1*
X3883561Y3225302D1*
D1*
X3884846Y3225218D1*
X3886108Y3224967D1*
X3887327Y3224553D1*
X3888482Y3223984D1*
X3889553Y3223268D1*
X3890521Y3222420D1*
X3891369Y3221452D1*
X3892085Y3220381D1*
X3892654Y3219226D1*
X3893068Y3218007D1*
X3893319Y3216745D1*
X3893403Y3215460D1*
X3893319Y3214175D1*
X3893068Y3212912D1*
X3892654Y3211693D1*
X3892085Y3210539D1*
X3891369Y3209468D1*
X3890521Y3208500D1*
X3889553Y3207651D1*
X3888482Y3206936D1*
X3887327Y3206367D1*
X3886108Y3205953D1*
X3884846Y3205702D1*
X3883561Y3205617D1*
D1*
G37*
X3599125Y2908856D2*
D13*
X3866842D1*
Y3128541D1*
X3599125D1*
Y2908856D1*
G36*
X3833226Y2953004D2*
X3864737D1*
Y2984390D1*
X3833226D1*
Y2953004D1*
G37*
G36*
Y3052920D2*
X3864737D1*
Y3084415D1*
X3833226D1*
Y3052920D1*
G37*
G36*
X3883772Y2958856D2*
X3882487Y2958940D1*
X3881225Y2959192D1*
X3880006Y2959605D1*
X3878851Y2960175D1*
X3877780Y2960890D1*
X3876812Y2961739D1*
X3875964Y2962707D1*
X3875248Y2963777D1*
X3874679Y2964932D1*
X3874265Y2966151D1*
X3874014Y2967414D1*
X3873930Y2968699D1*
X3874014Y2969983D1*
X3874265Y2971246D1*
X3874679Y2972465D1*
X3875248Y2973620D1*
X3875964Y2974690D1*
X3876812Y2975658D1*
X3877780Y2976507D1*
X3878851Y2977223D1*
X3880006Y2977792D1*
X3881225Y2978206D1*
X3882487Y2978457D1*
X3883772Y2978541D1*
D1*
X3885057Y2978457D1*
X3886320Y2978206D1*
X3887539Y2977792D1*
X3888693Y2977223D1*
X3889764Y2976507D1*
X3890732Y2975658D1*
X3891581Y2974690D1*
X3892296Y2973620D1*
X3892865Y2972465D1*
X3893279Y2971246D1*
X3893530Y2969983D1*
X3893615Y2968699D1*
X3893530Y2967414D1*
X3893279Y2966151D1*
X3892865Y2964932D1*
X3892296Y2963777D1*
X3891581Y2962707D1*
X3890732Y2961739D1*
X3889764Y2960890D1*
X3888693Y2960175D1*
X3887539Y2959605D1*
X3886320Y2959192D1*
X3885057Y2958940D1*
X3883772Y2958856D1*
D1*
G37*
X3598724Y2662087D2*
D13*
X3866440D1*
Y2881772D1*
X3598724D1*
Y2662087D1*
G36*
X3832825Y2706235D2*
X3864335D1*
Y2737621D1*
X3832825D1*
Y2706235D1*
G37*
G36*
Y2806151D2*
X3864335D1*
Y2837646D1*
X3832825D1*
Y2806151D1*
G37*
G36*
X3883371Y2712087D2*
X3882086Y2712171D1*
X3880823Y2712423D1*
X3879604Y2712836D1*
X3878449Y2713406D1*
X3877379Y2714121D1*
X3876411Y2714970D1*
X3875562Y2715938D1*
X3874847Y2717008D1*
X3874277Y2718163D1*
X3873863Y2719382D1*
X3873612Y2720645D1*
X3873528Y2721930D1*
X3873612Y2723214D1*
X3873863Y2724477D1*
X3874277Y2725696D1*
X3874847Y2726851D1*
X3875562Y2727921D1*
X3876411Y2728889D1*
X3877379Y2729738D1*
X3878449Y2730454D1*
X3879604Y2731023D1*
X3880823Y2731437D1*
X3882086Y2731688D1*
X3883371Y2731772D1*
D1*
X3884655Y2731688D1*
X3885918Y2731437D1*
X3887137Y2731023D1*
X3888292Y2730454D1*
X3889362Y2729738D1*
X3890330Y2728889D1*
X3891179Y2727921D1*
X3891894Y2726851D1*
X3892464Y2725696D1*
X3892878Y2724477D1*
X3893129Y2723214D1*
X3893213Y2721930D1*
X3893129Y2720645D1*
X3892878Y2719382D1*
X3892464Y2718163D1*
X3891894Y2717008D1*
X3891179Y2715938D1*
X3890330Y2714970D1*
X3889362Y2714121D1*
X3888292Y2713406D1*
X3887137Y2712836D1*
X3885918Y2712423D1*
X3884655Y2712171D1*
X3883371Y2712087D1*
D1*
G37*
X689356Y2621041D2*
D13*
X421640D1*
Y2401356D1*
X689356D1*
Y2621041D1*
G36*
X455255Y2576893D2*
X423745D1*
Y2545507D1*
X455255D1*
Y2576893D1*
G37*
G36*
Y2476977D2*
X423745D1*
Y2445482D1*
X455255D1*
Y2476977D1*
G37*
G36*
X404709Y2571041D2*
X405994Y2570957D1*
X407257Y2570706D1*
X408476Y2570292D1*
X409630Y2569723D1*
X410701Y2569007D1*
X411669Y2568158D1*
X412518Y2567190D1*
X413233Y2566120D1*
X413802Y2564965D1*
X414216Y2563746D1*
X414468Y2562483D1*
X414552Y2561199D1*
X414468Y2559914D1*
X414216Y2558651D1*
X413802Y2557432D1*
X413233Y2556277D1*
X412518Y2555207D1*
X411669Y2554239D1*
X410701Y2553390D1*
X409630Y2552675D1*
X408476Y2552105D1*
X407257Y2551692D1*
X405994Y2551440D1*
X404709Y2551356D1*
D1*
X403424Y2551440D1*
X402162Y2551692D1*
X400943Y2552105D1*
X399788Y2552675D1*
X398717Y2553390D1*
X397749Y2554239D1*
X396901Y2555207D1*
X396185Y2556277D1*
X395616Y2557432D1*
X395202Y2558651D1*
X394951Y2559914D1*
X394867Y2561199D1*
X394951Y2562483D1*
X395202Y2563746D1*
X395616Y2564965D1*
X396185Y2566120D1*
X396901Y2567190D1*
X397749Y2568158D1*
X398717Y2569007D1*
X399788Y2569723D1*
X400943Y2570292D1*
X402162Y2570706D1*
X403424Y2570957D1*
X404709Y2571041D1*
D1*
G37*
X690148Y2374911D2*
D13*
X422431D1*
Y2155226D1*
X690148D1*
Y2374911D1*
G36*
X456046Y2330763D2*
X424536D1*
Y2299377D1*
X456046D1*
Y2330763D1*
G37*
G36*
Y2230847D2*
X424536D1*
Y2199352D1*
X456046D1*
Y2230847D1*
G37*
G36*
X405501Y2324911D2*
X406785Y2324827D1*
X408048Y2324576D1*
X409267Y2324162D1*
X410422Y2323593D1*
X411492Y2322877D1*
X412460Y2322028D1*
X413309Y2321061D1*
X414024Y2319990D1*
X414594Y2318835D1*
X415008Y2317616D1*
X415259Y2316353D1*
X415343Y2315069D1*
X415259Y2313784D1*
X415008Y2312521D1*
X414594Y2311302D1*
X414024Y2310148D1*
X413309Y2309077D1*
X412460Y2308109D1*
X411492Y2307260D1*
X410422Y2306545D1*
X409267Y2305975D1*
X408048Y2305562D1*
X406785Y2305310D1*
X405501Y2305226D1*
D1*
X404216Y2305310D1*
X402953Y2305562D1*
X401734Y2305975D1*
X400579Y2306545D1*
X399509Y2307260D1*
X398541Y2308109D1*
X397692Y2309077D1*
X396977Y2310148D1*
X396407Y2311302D1*
X395993Y2312521D1*
X395742Y2313784D1*
X395658Y2315069D1*
X395742Y2316353D1*
X395993Y2317616D1*
X396407Y2318835D1*
X396977Y2319990D1*
X397692Y2321061D1*
X398541Y2322028D1*
X399509Y2322877D1*
X400579Y2323593D1*
X401734Y2324162D1*
X402953Y2324576D1*
X404216Y2324827D1*
X405501Y2324911D1*
D1*
G37*
X689956Y2127511D2*
D13*
X422239D1*
Y1907826D1*
X689956D1*
Y2127511D1*
G36*
X455855Y2083363D2*
X424344D1*
Y2051977D1*
X455855D1*
Y2083363D1*
G37*
G36*
Y1983447D2*
X424344D1*
Y1951952D1*
X455855D1*
Y1983447D1*
G37*
G36*
X405309Y2077511D2*
X406594Y2077427D1*
X407856Y2077176D1*
X409075Y2076762D1*
X410230Y2076192D1*
X411301Y2075477D1*
X412269Y2074628D1*
X413118Y2073660D1*
X413833Y2072590D1*
X414402Y2071435D1*
X414816Y2070216D1*
X415067Y2068953D1*
X415151Y2067669D1*
X415067Y2066384D1*
X414816Y2065121D1*
X414402Y2063902D1*
X413833Y2062747D1*
X413118Y2061677D1*
X412269Y2060709D1*
X411301Y2059860D1*
X410230Y2059145D1*
X409075Y2058575D1*
X407856Y2058161D1*
X406594Y2057910D1*
X405309Y2057826D1*
D1*
X404024Y2057910D1*
X402761Y2058161D1*
X401542Y2058575D1*
X400388Y2059145D1*
X399317Y2059860D1*
X398349Y2060709D1*
X397500Y2061677D1*
X396785Y2062747D1*
X396216Y2063902D1*
X395802Y2065121D1*
X395551Y2066384D1*
X395466Y2067669D1*
X395551Y2068953D1*
X395802Y2070216D1*
X396216Y2071435D1*
X396785Y2072590D1*
X397500Y2073660D1*
X398349Y2074628D1*
X399317Y2075477D1*
X400388Y2076192D1*
X401542Y2076762D1*
X402761Y2077176D1*
X404024Y2077427D1*
X405309Y2077511D1*
D1*
G37*
X1625323Y4057596D2*
D13*
Y3478856D1*
X1533625D1*
X1354817D2*
X1263119D1*
Y4057596D1*
X1625323D1*
X1178280Y1385504D2*
D26*
Y1583536D1*
X3178280D1*
Y1385504D1*
X1178280D1*
G36*
X1228280Y1615032D2*
X1227252Y1615099D1*
X1226242Y1615300D1*
X1225267Y1615631D1*
X1224343Y1616087D1*
X1223487Y1616659D1*
X1222712Y1617338D1*
X1222033Y1618113D1*
X1221461Y1618969D1*
X1221005Y1619893D1*
X1220674Y1620868D1*
X1220473Y1621878D1*
X1220406Y1622906D1*
X1220473Y1623934D1*
X1220674Y1624944D1*
X1221005Y1625919D1*
X1221461Y1626843D1*
X1222033Y1627699D1*
X1222712Y1628474D1*
X1223487Y1629153D1*
X1224343Y1629725D1*
X1225267Y1630181D1*
X1226242Y1630512D1*
X1227252Y1630713D1*
X1228280Y1630780D1*
D1*
X1229308Y1630713D1*
X1230318Y1630512D1*
X1231293Y1630181D1*
X1232217Y1629725D1*
X1233073Y1629153D1*
X1233848Y1628474D1*
X1234527Y1627699D1*
X1235099Y1626843D1*
X1235555Y1625919D1*
X1235886Y1624944D1*
X1236087Y1623934D1*
X1236154Y1622906D1*
X1236087Y1621878D1*
X1235886Y1620868D1*
X1235555Y1619893D1*
X1235099Y1618969D1*
X1234527Y1618113D1*
X1233848Y1617338D1*
X1233073Y1616659D1*
X1232217Y1616087D1*
X1231293Y1615631D1*
X1230318Y1615300D1*
X1229308Y1615099D1*
X1228280Y1615032D1*
D1*
G37*
X740039Y1397718D2*
D13*
X399487D1*
Y963860D1*
X740039D1*
G36*
X803031Y1424490D2*
X804315Y1424406D1*
X805578Y1424155D1*
X806797Y1423741D1*
X807952Y1423171D1*
X809022Y1422456D1*
X809990Y1421607D1*
X810839Y1420639D1*
X811555Y1419569D1*
X812124Y1418414D1*
X812538Y1417195D1*
X812789Y1415932D1*
X812873Y1414648D1*
X812789Y1413363D1*
X812538Y1412100D1*
X812124Y1410881D1*
X811555Y1409726D1*
X810839Y1408656D1*
X809990Y1407688D1*
X809022Y1406839D1*
X807952Y1406124D1*
X806797Y1405554D1*
X805578Y1405140D1*
X804315Y1404889D1*
X803031Y1404805D1*
D1*
X801746Y1404889D1*
X800483Y1405140D1*
X799264Y1405554D1*
X798109Y1406124D1*
X797039Y1406839D1*
X796071Y1407688D1*
X795222Y1408656D1*
X794507Y1409726D1*
X793937Y1410881D1*
X793524Y1412100D1*
X793272Y1413363D1*
X793188Y1414648D1*
X793272Y1415932D1*
X793524Y1417195D1*
X793937Y1418414D1*
X794507Y1419569D1*
X795222Y1420639D1*
X796071Y1421607D1*
X797039Y1422456D1*
X798109Y1423171D1*
X799264Y1423741D1*
X800483Y1424155D1*
X801746Y1424406D1*
X803031Y1424490D1*
D1*
G37*
X2978262Y1284460D2*
D26*
Y1384460D1*
X3178262D2*
Y1284460D1*
Y1384460D2*
X2978262D1*
X3178262Y1284460D2*
X2978262D1*
G36*
X2944797Y1334460D2*
X2944864Y1335488D1*
X2945065Y1336498D1*
X2945396Y1337473D1*
X2945852Y1338397D1*
X2946424Y1339253D1*
X2947103Y1340028D1*
X2947878Y1340707D1*
X2948734Y1341279D1*
X2949658Y1341734D1*
X2950633Y1342066D1*
X2951643Y1342266D1*
X2952671Y1342334D1*
X2953699Y1342266D1*
X2954709Y1342066D1*
X2955684Y1341734D1*
X2956608Y1341279D1*
X2957465Y1340707D1*
X2958239Y1340028D1*
X2958918Y1339253D1*
X2959490Y1338397D1*
X2959946Y1337473D1*
X2960277Y1336498D1*
X2960478Y1335488D1*
X2960545Y1334460D1*
D1*
X2960478Y1333432D1*
X2960277Y1332422D1*
X2959946Y1331447D1*
X2959490Y1330523D1*
X2958918Y1329666D1*
X2958239Y1328892D1*
X2957465Y1328213D1*
X2956608Y1327641D1*
X2955684Y1327185D1*
X2954709Y1326854D1*
X2953699Y1326653D1*
X2952671Y1326586D1*
X2951643Y1326653D1*
X2950633Y1326854D1*
X2949658Y1327185D1*
X2948734Y1327641D1*
X2947878Y1328213D1*
X2947103Y1328892D1*
X2946424Y1329666D1*
X2945852Y1330523D1*
X2945396Y1331447D1*
X2945065Y1332422D1*
X2944864Y1333432D1*
X2944797Y1334460D1*
D1*
G37*
X3596344Y1571777D2*
D13*
X3864062D1*
Y2591462D1*
X3596344D1*
Y1571777D1*
G36*
X3830444Y1615936D2*
X3861955D1*
Y1647294D1*
X3830444D1*
Y1615936D1*
G37*
G36*
Y1715813D2*
X3861955D1*
Y1747375D1*
X3830444D1*
Y1715813D1*
G37*
G36*
X3830838Y1816287D2*
X3862348D1*
Y1847746D1*
X3830838D1*
Y1816287D1*
G37*
G36*
X3830444Y1915973D2*
X3861955D1*
Y1947434D1*
X3830444D1*
Y1915973D1*
G37*
G36*
Y2015850D2*
X3861955D1*
Y2047310D1*
X3830444D1*
Y2015850D1*
G37*
G36*
Y2115930D2*
X3861955D1*
Y2147390D1*
X3830444D1*
Y2115930D1*
G37*
G36*
Y2215909D2*
X3861955D1*
Y2247267D1*
X3830444D1*
Y2215909D1*
G37*
G36*
Y2315888D2*
X3861955D1*
Y2347347D1*
X3830444D1*
Y2315888D1*
G37*
G36*
Y2415865D2*
X3861955D1*
Y2447427D1*
X3830444D1*
Y2415865D1*
G37*
G36*
Y2515844D2*
X3861955D1*
Y2547304D1*
X3830444D1*
Y2515844D1*
G37*
G36*
X3880990Y1621777D2*
X3879705Y1621862D1*
X3878443Y1622113D1*
X3877223Y1622527D1*
X3876069Y1623096D1*
X3874998Y1623811D1*
X3874030Y1624660D1*
X3873181Y1625628D1*
X3872466Y1626699D1*
X3871897Y1627853D1*
X3871483Y1629073D1*
X3871232Y1630335D1*
X3871148Y1631620D1*
X3871232Y1632905D1*
X3871483Y1634167D1*
X3871897Y1635387D1*
X3872466Y1636541D1*
X3873181Y1637612D1*
X3874030Y1638580D1*
X3874998Y1639429D1*
X3876069Y1640144D1*
X3877223Y1640713D1*
X3878443Y1641127D1*
X3879705Y1641378D1*
X3880990Y1641462D1*
D1*
X3882275Y1641378D1*
X3883537Y1641127D1*
X3884757Y1640713D1*
X3885911Y1640144D1*
X3886982Y1639429D1*
X3887950Y1638580D1*
X3888799Y1637612D1*
X3889514Y1636541D1*
X3890083Y1635387D1*
X3890497Y1634167D1*
X3890748Y1632905D1*
X3890833Y1631620D1*
X3890748Y1630335D1*
X3890497Y1629073D1*
X3890083Y1627853D1*
X3889514Y1626699D1*
X3888799Y1625628D1*
X3887950Y1624660D1*
X3886982Y1623811D1*
X3885911Y1623096D1*
X3884757Y1622527D1*
X3883537Y1622113D1*
X3882275Y1621862D1*
X3880990Y1621777D1*
D1*
G37*
X3595894Y495407D2*
D13*
X3863612D1*
Y1515092D1*
X3595894D1*
Y495407D1*
G36*
X3829994Y539566D2*
X3861504D1*
Y570924D1*
X3829994D1*
Y539566D1*
G37*
G36*
Y639443D2*
X3861504D1*
Y671004D1*
X3829994D1*
Y639443D1*
G37*
G36*
X3830388Y739917D2*
X3861898D1*
Y771376D1*
X3830388D1*
Y739917D1*
G37*
G36*
X3829994Y839603D2*
X3861504D1*
Y871064D1*
X3829994D1*
Y839603D1*
G37*
G36*
Y939480D2*
X3861504D1*
Y970940D1*
X3829994D1*
Y939480D1*
G37*
G36*
Y1039560D2*
X3861504D1*
Y1071020D1*
X3829994D1*
Y1039560D1*
G37*
G36*
Y1139539D2*
X3861504D1*
Y1170897D1*
X3829994D1*
Y1139539D1*
G37*
G36*
Y1239518D2*
X3861504D1*
Y1270977D1*
X3829994D1*
Y1239518D1*
G37*
G36*
Y1339495D2*
X3861504D1*
Y1371057D1*
X3829994D1*
Y1339495D1*
G37*
G36*
Y1439474D2*
X3861504D1*
Y1470934D1*
X3829994D1*
Y1439474D1*
G37*
G36*
X3880540Y545407D2*
X3879255Y545492D1*
X3877992Y545743D1*
X3876773Y546157D1*
X3875619Y546726D1*
X3874548Y547441D1*
X3873580Y548290D1*
X3872731Y549258D1*
X3872016Y550329D1*
X3871447Y551483D1*
X3871033Y552702D1*
X3870782Y553965D1*
X3870697Y555250D1*
X3870782Y556535D1*
X3871033Y557797D1*
X3871447Y559016D1*
X3872016Y560171D1*
X3872731Y561242D1*
X3873580Y562210D1*
X3874548Y563058D1*
X3875619Y563774D1*
X3876773Y564343D1*
X3877992Y564757D1*
X3879255Y565008D1*
X3880540Y565092D1*
D1*
X3881825Y565008D1*
X3883087Y564757D1*
X3884306Y564343D1*
X3885461Y563774D1*
X3886532Y563058D1*
X3887500Y562210D1*
X3888348Y561242D1*
X3889064Y560171D1*
X3889633Y559016D1*
X3890047Y557797D1*
X3890298Y556535D1*
X3890382Y555250D1*
X3890298Y553965D1*
X3890047Y552702D1*
X3889633Y551483D1*
X3889064Y550329D1*
X3888348Y549258D1*
X3887500Y548290D1*
X3886532Y547441D1*
X3885461Y546726D1*
X3884306Y546157D1*
X3883087Y545743D1*
X3881825Y545492D1*
X3880540Y545407D1*
D1*
G37*
X2031691Y2850499D2*
D26*
Y2950499D1*
X2231691D2*
Y2850499D1*
Y2950499D2*
X2031691D1*
X2231691Y2850499D2*
X2031691D1*
G36*
X1998226Y2900499D2*
X1998294Y2901527D1*
X1998495Y2902537D1*
X1998826Y2903512D1*
X1999281Y2904436D1*
X1999853Y2905293D1*
X2000532Y2906067D1*
X2001307Y2906746D1*
X2002163Y2907318D1*
X2003087Y2907774D1*
X2004062Y2908105D1*
X2005072Y2908306D1*
X2006100Y2908373D1*
X2007128Y2908306D1*
X2008138Y2908105D1*
X2009114Y2907774D1*
X2010037Y2907318D1*
X2010894Y2906746D1*
X2011668Y2906067D1*
X2012347Y2905293D1*
X2012919Y2904436D1*
X2013375Y2903512D1*
X2013706Y2902537D1*
X2013907Y2901527D1*
X2013974Y2900499D1*
D1*
X2013907Y2899471D1*
X2013706Y2898461D1*
X2013375Y2897486D1*
X2012919Y2896562D1*
X2012347Y2895706D1*
X2011668Y2894931D1*
X2010894Y2894252D1*
X2010037Y2893680D1*
X2009114Y2893225D1*
X2008138Y2892893D1*
X2007128Y2892693D1*
X2006100Y2892625D1*
X2005072Y2892693D1*
X2004062Y2892893D1*
X2003087Y2893225D1*
X2002163Y2893680D1*
X2001307Y2894252D1*
X2000532Y2894931D1*
X1999853Y2895706D1*
X1999281Y2896562D1*
X1998826Y2897486D1*
X1998495Y2898461D1*
X1998294Y2899471D1*
X1998226Y2900499D1*
D1*
G37*
X3155344Y3823961D2*
D26*
G02X3241959Y3910575I86610J4D01*
G01*
X3552982D2*
G02X3639596Y3823961I4J-86610D01*
G01*
Y3512938D2*
G02X3552982Y3426323I-86610J-4D01*
G01*
X3241959D2*
G02X3155344Y3512938I-4J86610D01*
G01*
X3639596Y3823961D2*
Y3512938D1*
X3155344D2*
Y3823961D1*
X1782188Y3313760D2*
D10*
Y3364902D1*
X1782108Y2876071D2*
Y2927213D1*
X1785857Y2469508D2*
Y2520650D1*
X1027754Y2149974D2*
D26*
X3329329D1*
Y1791707D1*
X1027754D1*
Y2149974D1*
G36*
X1171805Y3295023D2*
X1172833Y3294955D1*
X1173843Y3294755D1*
X1174818Y3294423D1*
X1175742Y3293968D1*
X1176598Y3293396D1*
X1177373Y3292717D1*
X1178052Y3291942D1*
X1178624Y3291086D1*
X1179080Y3290162D1*
X1179411Y3289187D1*
X1179612Y3288177D1*
X1179679Y3287149D1*
X1179612Y3286121D1*
X1179411Y3285111D1*
X1179080Y3284136D1*
X1178624Y3283212D1*
X1178052Y3282355D1*
X1177373Y3281581D1*
X1176598Y3280902D1*
X1175742Y3280330D1*
X1174818Y3279874D1*
X1173843Y3279543D1*
X1172833Y3279342D1*
X1171805Y3279275D1*
D1*
X1170777Y3279342D1*
X1169767Y3279543D1*
X1168792Y3279874D1*
X1167868Y3280330D1*
X1167012Y3280902D1*
X1166237Y3281581D1*
X1165558Y3282355D1*
X1164986Y3283212D1*
X1164530Y3284136D1*
X1164199Y3285111D1*
X1163998Y3286121D1*
X1163931Y3287149D1*
X1163998Y3288177D1*
X1164199Y3289187D1*
X1164530Y3290162D1*
X1164986Y3291086D1*
X1165558Y3291942D1*
X1166237Y3292717D1*
X1167012Y3293396D1*
X1167868Y3293968D1*
X1168792Y3294423D1*
X1169767Y3294755D1*
X1170777Y3294955D1*
X1171805Y3295023D1*
D1*
G37*
X1582710Y3331007D2*
D26*
X1337829D1*
X1582710Y3063291D2*
X1337829D1*
Y3331007D1*
G36*
X1171574Y2925003D2*
X1172602Y2924936D1*
X1173612Y2924735D1*
X1174587Y2924404D1*
X1175511Y2923948D1*
X1176367Y2923376D1*
X1177142Y2922697D1*
X1177821Y2921923D1*
X1178393Y2921066D1*
X1178849Y2920142D1*
X1179180Y2919167D1*
X1179381Y2918157D1*
X1179448Y2917129D1*
X1179381Y2916101D1*
X1179180Y2915091D1*
X1178849Y2914116D1*
X1178393Y2913192D1*
X1177821Y2912336D1*
X1177142Y2911561D1*
X1176367Y2910882D1*
X1175511Y2910310D1*
X1174587Y2909854D1*
X1173612Y2909523D1*
X1172602Y2909322D1*
X1171574Y2909255D1*
D1*
X1170546Y2909322D1*
X1169536Y2909523D1*
X1168561Y2909854D1*
X1167637Y2910310D1*
X1166781Y2910882D1*
X1166006Y2911561D1*
X1165327Y2912336D1*
X1164755Y2913192D1*
X1164299Y2914116D1*
X1163968Y2915091D1*
X1163767Y2916101D1*
X1163700Y2917129D1*
X1163767Y2918157D1*
X1163968Y2919167D1*
X1164299Y2920142D1*
X1164755Y2921066D1*
X1165327Y2921923D1*
X1166006Y2922697D1*
X1166781Y2923376D1*
X1167637Y2923948D1*
X1168561Y2924404D1*
X1169536Y2924735D1*
X1170546Y2924936D1*
X1171574Y2925003D1*
D1*
G37*
X1582480Y2960987D2*
D26*
X1337598D1*
X1582480Y2693271D2*
X1337598D1*
Y2960987D1*
G36*
X1172325Y2549193D2*
X1173352Y2549126D1*
X1174363Y2548925D1*
X1175338Y2548594D1*
X1176262Y2548139D1*
X1177118Y2547566D1*
X1177892Y2546887D1*
X1178572Y2546113D1*
X1179144Y2545256D1*
X1179599Y2544333D1*
X1179930Y2543357D1*
X1180131Y2542347D1*
X1180199Y2541319D1*
X1180131Y2540292D1*
X1179930Y2539281D1*
X1179599Y2538306D1*
X1179144Y2537382D1*
X1178572Y2536526D1*
X1177892Y2535752D1*
X1177118Y2535073D1*
X1176262Y2534500D1*
X1175338Y2534045D1*
X1174363Y2533714D1*
X1173352Y2533513D1*
X1172325Y2533445D1*
D1*
X1171297Y2533513D1*
X1170287Y2533714D1*
X1169311Y2534045D1*
X1168388Y2534500D1*
X1167531Y2535073D1*
X1166757Y2535752D1*
X1166078Y2536526D1*
X1165506Y2537382D1*
X1165050Y2538306D1*
X1164719Y2539281D1*
X1164518Y2540292D1*
X1164451Y2541319D1*
X1164518Y2542347D1*
X1164719Y2543357D1*
X1165050Y2544333D1*
X1165506Y2545256D1*
X1166078Y2546113D1*
X1166757Y2546887D1*
X1167531Y2547566D1*
X1168388Y2548139D1*
X1169311Y2548594D1*
X1170287Y2548925D1*
X1171297Y2549126D1*
X1172325Y2549193D1*
D1*
G37*
X1583230Y2585178D2*
D26*
X1338348D1*
X1583230Y2317461D2*
X1338348D1*
Y2585178D1*
X1767603Y3126302D2*
X1767598Y3179058D1*
X1952642Y3126321D2*
X1952637Y3179077D1*
X1830262Y2768065D2*
X1883018D1*
X1830262Y2701136D2*
X1883018D1*
X1175730Y3552970D2*
Y3985739D1*
X1092948D1*
X892948D2*
X958512D1*
X758512D2*
X675730D1*
Y3552970D1*
X804273Y4052970D2*
Y4326291D1*
X1047187D2*
Y4052970D1*
X804273Y4326291D2*
X1047187D1*
G36*
X646203Y3477865D2*
X645175Y3477933D1*
X644165Y3478134D1*
X643189Y3478465D1*
X642266Y3478920D1*
X641409Y3479492D1*
X640635Y3480172D1*
X639956Y3480946D1*
X639384Y3481802D1*
X638928Y3482726D1*
X638597Y3483701D1*
X638396Y3484712D1*
X638329Y3485739D1*
X638396Y3486767D1*
X638597Y3487777D1*
X638928Y3488753D1*
X639384Y3489676D1*
X639956Y3490533D1*
X640635Y3491307D1*
X641409Y3491986D1*
X642266Y3492558D1*
X643189Y3493014D1*
X644165Y3493345D1*
X645175Y3493546D1*
X646203Y3493613D1*
D1*
X647230Y3493546D1*
X648241Y3493345D1*
X649216Y3493014D1*
X650140Y3492558D1*
X650996Y3491986D1*
X651770Y3491307D1*
X652449Y3490533D1*
X653022Y3489676D1*
X653477Y3488753D1*
X653808Y3487777D1*
X654009Y3486767D1*
X654077Y3485739D1*
X654009Y3484712D1*
X653808Y3483701D1*
X653477Y3482726D1*
X653022Y3481802D1*
X652450Y3480946D1*
X651770Y3480172D1*
X650996Y3479492D1*
X650140Y3478920D1*
X649216Y3478465D1*
X648241Y3478134D1*
X647230Y3477933D1*
X646203Y3477865D1*
D1*
G37*
G36*
X3226409Y2478220D2*
X3226476Y2479247D1*
X3226677Y2480258D1*
X3227008Y2481233D1*
X3227464Y2482157D1*
X3228036Y2483013D1*
X3228715Y2483787D1*
X3229489Y2484467D1*
X3230346Y2485039D1*
X3231269Y2485494D1*
X3232245Y2485825D1*
X3233255Y2486026D1*
X3234283Y2486094D1*
X3235310Y2486026D1*
X3236321Y2485825D1*
X3237296Y2485494D1*
X3238220Y2485039D1*
X3239076Y2484467D1*
X3239850Y2483787D1*
X3240530Y2483013D1*
X3241102Y2482157D1*
X3241557Y2481233D1*
X3241888Y2480258D1*
X3242089Y2479247D1*
X3242157Y2478220D1*
D1*
X3242089Y2477192D1*
X3241888Y2476182D1*
X3241557Y2475206D1*
X3241102Y2474283D1*
X3240530Y2473426D1*
X3239850Y2472652D1*
X3239076Y2471973D1*
X3238220Y2471401D1*
X3237296Y2470945D1*
X3236321Y2470614D1*
X3235310Y2470413D1*
X3234283Y2470346D1*
X3233255Y2470413D1*
X3232245Y2470614D1*
X3231269Y2470945D1*
X3230346Y2471401D1*
X3229489Y2471973D1*
X3228715Y2472652D1*
X3228036Y2473426D1*
X3227464Y2474283D1*
X3227008Y2475206D1*
X3226677Y2476182D1*
X3226476Y2477192D1*
X3226409Y2478220D1*
D1*
G37*
X3181133Y2460503D2*
D26*
X3003968D1*
X3181133D2*
Y2283338D1*
X3003968D2*
X3181133D1*
X1698729Y3489480D2*
D13*
G02X1698729Y3489480I26772J0D01*
G01*
X3278049Y3131760D2*
G02X3278049Y3131760I26772J0D01*
G01*
X3277659Y2701369D2*
G02X3277659Y2701369I26772J0D01*
G01*
X3278279Y2917220D2*
G02X3278279Y2917220I26772J0D01*
G01*
X2267360Y3394294D2*
X2267379Y3259648D1*
X2677616Y3259707D1*
X2677596Y3394353D1*
G36*
X2292798Y3085654D2*
X2292882Y3086939D1*
X2293133Y3088202D1*
X2293547Y3089421D1*
X2294116Y3090576D1*
X2294831Y3091646D1*
X2295680Y3092615D1*
X2296648Y3093464D1*
X2297718Y3094179D1*
X2298873Y3094749D1*
X2300092Y3095163D1*
X2301354Y3095414D1*
X2302639Y3095498D1*
X2303924Y3095414D1*
X2305187Y3095163D1*
X2306406Y3094750D1*
X2307561Y3094180D1*
X2308631Y3093465D1*
X2309599Y3092617D1*
X2310448Y3091649D1*
X2311164Y3090578D1*
X2311733Y3089424D1*
X2312147Y3088205D1*
X2312399Y3086942D1*
X2312483Y3085657D1*
D1*
X2312399Y3084373D1*
X2312148Y3083110D1*
X2311734Y3081891D1*
X2311165Y3080736D1*
X2310450Y3079665D1*
X2309601Y3078697D1*
X2308633Y3077848D1*
X2307563Y3077133D1*
X2306408Y3076563D1*
X2305189Y3076149D1*
X2303927Y3075898D1*
X2302642Y3075813D1*
X2301357Y3075897D1*
X2300095Y3076148D1*
X2298875Y3076562D1*
X2297721Y3077131D1*
X2296650Y3077846D1*
X2295682Y3078695D1*
X2294833Y3079663D1*
X2294117Y3080733D1*
X2293548Y3081888D1*
X2293134Y3083107D1*
X2292882Y3084370D1*
X2292798Y3085654D1*
D1*
G37*
G36*
X2528531Y2871959D2*
X2528598Y2872986D1*
X2528799Y2873996D1*
X2529130Y2874972D1*
X2529586Y2875896D1*
X2530158Y2876752D1*
X2530837Y2877526D1*
X2531611Y2878205D1*
X2532468Y2878778D1*
X2533391Y2879233D1*
X2534367Y2879564D1*
X2535377Y2879765D1*
X2536405Y2879833D1*
X2537432Y2879765D1*
X2538443Y2879564D1*
X2539418Y2879233D1*
X2540342Y2878778D1*
X2541198Y2878205D1*
X2541972Y2877526D1*
X2542652Y2876752D1*
X2543224Y2875896D1*
X2543679Y2874972D1*
X2544010Y2873996D1*
X2544211Y2872986D1*
X2544279Y2871959D1*
D1*
X2544211Y2870931D1*
X2544010Y2869921D1*
X2543679Y2868945D1*
X2543224Y2868022D1*
X2542652Y2867165D1*
X2541972Y2866391D1*
X2541198Y2865712D1*
X2540342Y2865139D1*
X2539418Y2864684D1*
X2538443Y2864353D1*
X2537432Y2864152D1*
X2536405Y2864085D1*
X2535377Y2864152D1*
X2534367Y2864353D1*
X2533391Y2864684D1*
X2532468Y2865139D1*
X2531611Y2865712D1*
X2530837Y2866391D1*
X2530158Y2867165D1*
X2529586Y2868022D1*
X2529130Y2868945D1*
X2528799Y2869921D1*
X2528598Y2870931D1*
X2528531Y2871959D1*
D1*
G37*
X2605302Y2866053D2*
D26*
X2743098D1*
Y2812903D1*
Y2663297D2*
Y2610148D1*
X2605302D1*
G36*
X1761670Y3420830D2*
Y3378835D1*
X1766395D1*
Y3395633D1*
X1769019Y3398257D1*
X1769544D1*
X1771644Y3396158D1*
Y3395633D1*
X1775843Y3390383D1*
X1777418Y3388284D1*
X1783717Y3380410D1*
X1785292Y3378835D1*
X1792116D1*
X1775318Y3399832D1*
X1773219Y3401932D1*
X1776368Y3405082D1*
X1784242Y3413481D1*
X1791066Y3420830D1*
X1784767D1*
X1780043Y3416105D1*
X1770594Y3405607D1*
X1767444Y3401932D1*
X1766888Y3401362D1*
X1766616Y3401447D1*
X1766395Y3401932D1*
Y3420830D1*
X1761670D1*
G37*
G36*
Y2983559D2*
Y2941565D1*
X1766395D1*
Y2958362D1*
X1769019Y2960987D1*
X1769544D1*
X1771644Y2958887D1*
Y2958362D1*
X1775843Y2953113D1*
X1777418Y2951013D1*
X1783717Y2943139D1*
X1785292Y2941565D1*
X1792116D1*
X1775318Y2962562D1*
X1773219Y2964662D1*
X1776368Y2967811D1*
X1784242Y2976210D1*
X1791066Y2983559D1*
X1784767D1*
X1780043Y2978835D1*
X1770594Y2968336D1*
X1767444Y2964662D1*
X1766888Y2964092D1*
X1766616Y2964177D1*
X1766395Y2964662D1*
Y2983559D1*
X1761670D1*
G37*
G36*
X1765345Y2576735D2*
Y2534740D1*
X1770069D1*
Y2551538D1*
X1772694Y2554163D1*
X1773219D1*
X1775318Y2552063D1*
Y2551538D1*
X1779518Y2546289D1*
X1781093Y2544189D1*
X1787392Y2536315D1*
X1788967Y2534740D1*
X1795791D1*
X1778993Y2555738D1*
X1776893Y2557838D1*
X1780043Y2560987D1*
X1787917Y2569386D1*
X1794741Y2576735D1*
X1788442D1*
X1783717Y2572011D1*
X1774269Y2561512D1*
X1771119Y2557838D1*
X1770562Y2557267D1*
X1770291Y2557353D1*
X1770069Y2557838D1*
Y2576735D1*
X1765345D1*
G37*
X823669Y3033404D2*
D160*
Y3052506D1*
X806469Y3054407D1*
X808370Y3052506D1*
X810316Y3046758D1*
Y3041054D1*
X808370Y3035306D1*
X804568Y3031459D1*
X798820Y3029558D1*
X795017D1*
X789269Y3031459D1*
X785422Y3035306D1*
X783521Y3041054D1*
Y3046758D1*
X785422Y3052506D1*
X787368Y3054407D1*
X791170Y3056352D1*
X823713Y3017206D2*
X783521Y3001908D1*
X823713Y2986609D1*
X816020Y3298192D2*
X817965Y3294345D1*
X823669Y3288597D1*
X783521D1*
X814118Y3274301D2*
X816020D1*
X819866Y3272399D1*
X821768Y3270498D1*
X823669Y3266651D1*
Y3259002D1*
X821768Y3255199D1*
X819866Y3253298D1*
X816020Y3251353D1*
X812217D1*
X808370Y3253298D1*
X802666Y3257101D1*
X783521Y3276246D1*
Y3249451D1*
X823713Y3237100D2*
X783521Y3221801D1*
X823713Y3206503D1*
X823669Y2841164D2*
Y2820162D1*
X808370Y2831614D1*
Y2825866D1*
X806469Y2822063D1*
X804568Y2820162D1*
X798820Y2818216D1*
X795017D1*
X789269Y2820162D1*
X785422Y2823964D1*
X783521Y2829712D1*
Y2835461D1*
X785422Y2841164D1*
X787368Y2843066D1*
X791170Y2845011D1*
X823713Y2805865D2*
X783521Y2790566D1*
X823713Y2775268D1*
X823669Y2759070D2*
Y2738067D1*
X808370Y2749519D1*
Y2743771D1*
X806469Y2739969D1*
X804568Y2738067D1*
X798820Y2736122D1*
X795017D1*
X789269Y2738067D1*
X785422Y2741870D1*
X783521Y2747618D1*
Y2753366D1*
X785422Y2759070D1*
X787368Y2760971D1*
X791170Y2762916D1*
X2084342Y2808903D2*
Y2780207D1*
X2086243Y2774459D1*
X2090090Y2770657D1*
X2095838Y2768711D1*
X2099641D1*
X2105389Y2770657D1*
X2109235Y2774459D1*
X2111137Y2780207D1*
Y2808903D1*
X2150283Y2803155D2*
X2146480Y2807002D1*
X2140732Y2808903D1*
X2133083D1*
X2127335Y2807002D1*
X2123488Y2803155D1*
Y2799353D1*
X2125434Y2795506D1*
X2127335Y2793605D1*
X2131137Y2791704D1*
X2142634Y2787857D1*
X2146480Y2785955D1*
X2148382Y2784010D1*
X2150283Y2780207D1*
Y2774459D1*
X2146480Y2770657D1*
X2140732Y2768711D1*
X2133083D1*
X2127335Y2770657D1*
X2123488Y2774459D1*
X2162634Y2808903D2*
Y2768711D1*
X2179878D1*
X2185626Y2770657D1*
X2187528Y2772558D1*
X2189429Y2776361D1*
Y2782109D1*
X2187528Y2785955D1*
X2185626Y2787857D1*
X2179878Y2789758D1*
X2185626Y2791704D1*
X2187528Y2793605D1*
X2189429Y2797407D1*
Y2801254D1*
X2187528Y2805057D1*
X2185626Y2807002D1*
X2179878Y2808903D1*
X2162634D1*
Y2789758D2*
X2179878D1*
X2021798Y2742699D2*
Y2702507D1*
X2039042D1*
X2044790Y2704453D1*
X2046692Y2706354D1*
X2048593Y2710156D1*
Y2715904D1*
X2046692Y2719751D1*
X2044790Y2721653D1*
X2039042Y2723554D1*
X2044790Y2725499D1*
X2046692Y2727401D1*
X2048593Y2731203D1*
Y2735050D1*
X2046692Y2738852D1*
X2044790Y2740798D1*
X2039042Y2742699D1*
X2021798D1*
Y2723554D2*
X2039042D1*
X2060944Y2742699D2*
X2076243Y2723554D1*
Y2702507D1*
X2091542Y2742699D2*
X2076243Y2723554D1*
X2103893Y2721653D2*
X2121137D1*
X2126841Y2723554D1*
X2128786Y2725499D1*
X2130688Y2729302D1*
Y2735050D1*
X2128786Y2738852D1*
X2126841Y2740798D1*
X2121137Y2742699D1*
X2103893D1*
Y2702507D1*
X2173681D2*
X2158338Y2742699D1*
X2143039Y2702507D1*
X2148787Y2715904D2*
X2167932D1*
X2212827Y2736951D2*
X2209024Y2740798D1*
X2203276Y2742699D1*
X2195627D1*
X2189879Y2740798D1*
X2186032Y2736951D1*
Y2733149D1*
X2187977Y2729302D1*
X2189879Y2727401D1*
X2193681Y2725499D1*
X2205177Y2721653D1*
X2209024Y2719751D1*
X2210925Y2717806D1*
X2212827Y2714003D1*
Y2708255D1*
X2209024Y2704453D1*
X2203276Y2702507D1*
X2195627D1*
X2189879Y2704453D1*
X2186032Y2708255D1*
X2251973Y2736951D2*
X2248170Y2740798D1*
X2242422Y2742699D1*
X2234773D1*
X2229025Y2740798D1*
X2225178Y2736951D1*
Y2733149D1*
X2227123Y2729302D1*
X2229025Y2727401D1*
X2232827Y2725499D1*
X2244323Y2721653D1*
X2248170Y2719751D1*
X2250071Y2717806D1*
X2251973Y2714003D1*
Y2708255D1*
X2248170Y2704453D1*
X2242422Y2702507D1*
X2234773D1*
X2229025Y2704453D1*
X2225178Y2708255D1*
X814164Y2625807D2*
X817966Y2627709D1*
X821813Y2631555D1*
X823714Y2635358D1*
Y2643007D1*
X821813Y2646854D1*
X817966Y2650656D1*
X814164Y2652602D1*
X808416Y2654503D1*
X798821D1*
X793117Y2652602D1*
X789270Y2650656D1*
X785468Y2646854D1*
X783522Y2643007D1*
Y2635358D1*
X785468Y2631555D1*
X789270Y2627709D1*
X793117Y2625807D1*
X798821D1*
Y2635358D1*
X802668Y2613456D2*
Y2596212D1*
X804569Y2590508D1*
X806515Y2588562D1*
X810317Y2586661D1*
X816065D1*
X819868Y2588562D1*
X821813Y2590508D1*
X823714Y2596212D1*
Y2613456D1*
X783522D1*
X823714Y2574310D2*
X783522D1*
X823714Y2550462D2*
X821813Y2554309D1*
X817966Y2558112D1*
X814164Y2560057D1*
X808416Y2561958D1*
X798821D1*
X793117Y2560057D1*
X789270Y2558112D1*
X785468Y2554309D1*
X783522Y2550462D1*
Y2542813D1*
X785468Y2539011D1*
X789270Y2535164D1*
X793117Y2533262D1*
X798821Y2531361D1*
X808416D1*
X814164Y2533262D1*
X817966Y2535164D1*
X821813Y2539011D1*
X823714Y2542813D1*
Y2550462D1*
X816021Y2519010D2*
X817966Y2515163D1*
X823670Y2509415D1*
X783522D1*
X814120Y2495118D2*
X816021D1*
X819868Y2493217D1*
X821769Y2491316D1*
X823670Y2487469D1*
Y2479820D1*
X821769Y2476017D1*
X819868Y2474116D1*
X816021Y2472170D1*
X812218D1*
X808372Y2474116D1*
X802668Y2477918D1*
X783522Y2497064D1*
Y2470269D1*
X3457131Y3001045D2*
Y2981944D1*
X3474331Y2980043D1*
X3472430Y2981944D1*
X3470484Y2987692D1*
Y2993396D1*
X3472430Y2999144D1*
X3476233Y3002991D1*
X3481981Y3004892D1*
X3485783D1*
X3491531Y3002991D1*
X3495378Y2999144D1*
X3497279Y2993396D1*
Y2987692D1*
X3495378Y2981944D1*
X3493432Y2980043D1*
X3489630Y2978098D1*
X3457087Y3017244D2*
X3497279Y3032542D1*
X3457087Y3047841D1*
X3464781Y3201028D2*
X3462835Y3204875D1*
X3457131Y3210623D1*
X3497279D1*
X3466682Y3224920D2*
X3464781D1*
X3460934Y3226821D1*
X3459033Y3228722D1*
X3457131Y3232569D1*
Y3240218D1*
X3459033Y3244021D1*
X3460934Y3245922D1*
X3464781Y3247868D1*
X3468583D1*
X3472430Y3245922D1*
X3478134Y3242120D1*
X3497279Y3222974D1*
Y3249769D1*
X3457087Y3262120D2*
X3497279Y3277419D1*
X3457087Y3292717D1*
X3457131Y2739305D2*
Y2760308D1*
X3472430Y2748856D1*
Y2754604D1*
X3474331Y2758406D1*
X3476233Y2760308D1*
X3481981Y2762253D1*
X3485783D1*
X3491531Y2760308D1*
X3495378Y2756505D1*
X3497279Y2750757D1*
Y2745009D1*
X3495378Y2739305D1*
X3493432Y2737404D1*
X3489630Y2735458D1*
X3457087Y2774605D2*
X3497279Y2789903D1*
X3457087Y2805202D1*
X3457131Y2821400D2*
Y2842402D1*
X3472430Y2830950D1*
Y2836698D1*
X3474331Y2840501D1*
X3476233Y2842402D1*
X3481981Y2844348D1*
X3485783D1*
X3491531Y2842402D1*
X3495378Y2838600D1*
X3497279Y2832852D1*
Y2827104D1*
X3495378Y2821400D1*
X3493432Y2819499D1*
X3489630Y2817553D1*
X809164Y2397937D2*
X812966Y2399838D1*
X816813Y2403685D1*
X818714Y2407488D1*
Y2415137D1*
X816813Y2418984D1*
X812966Y2422786D1*
X809164Y2424732D1*
X803416Y2426633D1*
X793821D1*
X788117Y2424732D1*
X784270Y2422786D1*
X780468Y2418984D1*
X778522Y2415137D1*
Y2407488D1*
X780468Y2403685D1*
X784270Y2399838D1*
X788117Y2397937D1*
X793821D1*
Y2407488D1*
X797668Y2385586D2*
Y2368342D1*
X799569Y2362638D1*
X801515Y2360692D1*
X805317Y2358791D1*
X811065D1*
X814868Y2360692D1*
X816813Y2362638D1*
X818714Y2368342D1*
Y2385586D1*
X778522D1*
X818714Y2346440D2*
X778522D1*
X818714Y2322592D2*
X816813Y2326439D1*
X812966Y2330242D1*
X809164Y2332187D1*
X803416Y2334088D1*
X793821D1*
X788117Y2332187D1*
X784270Y2330242D1*
X780468Y2326439D1*
X778522Y2322592D1*
Y2314943D1*
X780468Y2311140D1*
X784270Y2307294D1*
X788117Y2305392D1*
X793821Y2303491D1*
X803416D1*
X809164Y2305392D1*
X812966Y2307294D1*
X816813Y2311140D1*
X818714Y2314943D1*
Y2322592D1*
X811021Y2291140D2*
X812966Y2287293D1*
X818670Y2281545D1*
X778522D1*
X818670Y2265347D2*
Y2244344D1*
X803372Y2255796D1*
Y2250048D1*
X801470Y2246246D1*
X799569Y2244344D1*
X793821Y2242399D1*
X790018D1*
X784270Y2244344D1*
X780424Y2248147D1*
X778522Y2253895D1*
Y2259643D1*
X780424Y2265347D1*
X782369Y2267248D1*
X786172Y2269194D1*
X809164Y2176517D2*
X812966Y2178419D1*
X816813Y2182265D1*
X818714Y2186068D1*
Y2193717D1*
X816813Y2197564D1*
X812966Y2201366D1*
X809164Y2203312D1*
X803416Y2205213D1*
X793821D1*
X788117Y2203312D1*
X784270Y2201366D1*
X780468Y2197564D1*
X778522Y2193717D1*
Y2186068D1*
X780468Y2182265D1*
X784270Y2178419D1*
X788117Y2176517D1*
X793821D1*
Y2186068D1*
X797668Y2164166D2*
Y2146922D1*
X799569Y2141218D1*
X801515Y2139272D1*
X805317Y2137371D1*
X811065D1*
X814868Y2139272D1*
X816813Y2141218D1*
X818714Y2146922D1*
Y2164166D1*
X778522D1*
X818714Y2125020D2*
X778522D1*
X818714Y2101172D2*
X816813Y2105019D1*
X812966Y2108822D1*
X809164Y2110767D1*
X803416Y2112668D1*
X793821D1*
X788117Y2110767D1*
X784270Y2108822D1*
X780468Y2105019D1*
X778522Y2101172D1*
Y2093523D1*
X780468Y2089720D1*
X784270Y2085874D1*
X788117Y2083972D1*
X793821Y2082071D1*
X803416D1*
X809164Y2083972D1*
X812966Y2085874D1*
X816813Y2089720D1*
X818714Y2093523D1*
Y2101172D1*
X809120Y2067774D2*
X811021D1*
X814868Y2065873D1*
X816769Y2063972D1*
X818670Y2060125D1*
Y2052476D1*
X816769Y2048673D1*
X814868Y2046772D1*
X811021Y2044826D1*
X807218D1*
X803372Y2046772D1*
X797668Y2050574D1*
X778522Y2069720D1*
Y2042925D1*
X812966Y2007626D2*
X816769Y2009527D1*
X818670Y2015275D1*
Y2019078D1*
X816769Y2024826D1*
X811021Y2028672D1*
X801470Y2030574D1*
X791920D1*
X784270Y2028672D1*
X780424Y2024826D1*
X778522Y2019078D1*
Y2017176D1*
X780424Y2011473D1*
X784270Y2007626D1*
X790018Y2005725D1*
X791920D1*
X797668Y2007626D1*
X801470Y2011473D1*
X803372Y2017176D1*
Y2019078D1*
X801470Y2024826D1*
X797668Y2028672D1*
X791920Y2030574D1*
X3002809Y2591368D2*
X3020009D1*
X3025757Y2593314D1*
X3027702Y2595215D1*
X3029604Y2599018D1*
Y2602864D1*
X3027702Y2606667D1*
X3025757Y2608612D1*
X3020009Y2610514D1*
X3002809D1*
Y2570322D1*
X3016206Y2591368D2*
X3029604Y2570322D1*
X3066804Y2610514D2*
X3041955D1*
Y2570322D1*
X3066804D1*
X3041955Y2591368D2*
X3057254D1*
X3105950Y2604766D2*
X3102148Y2608612D1*
X3096400Y2610514D1*
X3088750D1*
X3083002Y2608612D1*
X3079155Y2604766D1*
Y2600963D1*
X3081101Y2597116D1*
X3083002Y2595215D1*
X3086805Y2593314D1*
X3098301Y2589467D1*
X3102148Y2587566D1*
X3104049Y2585620D1*
X3105950Y2581818D1*
Y2576070D1*
X3102148Y2572267D1*
X3096400Y2570322D1*
X3088750D1*
X3083002Y2572267D1*
X3079155Y2576070D1*
X3143151Y2610514D2*
X3118302D1*
Y2570322D1*
X3143151D1*
X3118302Y2591368D2*
X3133600D1*
X3168899Y2610514D2*
Y2570322D1*
X3155502Y2610514D2*
X3182297D1*
X3468964Y2532163D2*
X3467063Y2535965D1*
X3463216Y2539812D1*
X3459414Y2541713D1*
X3451764D1*
X3447917Y2539812D1*
X3444115Y2535965D1*
X3442169Y2532163D1*
X3440268Y2526414D1*
Y2516820D1*
X3442169Y2511116D1*
X3444115Y2507269D1*
X3447917Y2503467D1*
X3451764Y2501521D1*
X3459414D1*
X3463216Y2503467D1*
X3467063Y2507269D1*
X3468964Y2511116D1*
Y2516820D1*
X3459414D1*
X3508110Y2541713D2*
Y2501521D1*
X3481316Y2541713D1*
Y2501521D1*
X3520462Y2541713D2*
Y2501521D1*
X3533859D1*
X3539607Y2503467D1*
X3543454Y2507269D1*
X3545355Y2511116D1*
X3547256Y2516820D1*
Y2526414D1*
X3545355Y2532163D1*
X3543454Y2535965D1*
X3539607Y2539812D1*
X3533859Y2541713D1*
X3520462D1*
X3393624Y2433502D2*
X3391723Y2437305D1*
X3387876Y2441152D1*
X3384074Y2443053D1*
X3376424D1*
X3372578Y2441152D1*
X3368775Y2437305D1*
X3366830Y2433502D1*
X3364928Y2427754D1*
Y2418160D1*
X3366830Y2412456D1*
X3368775Y2408609D1*
X3372578Y2404806D1*
X3376424Y2402861D1*
X3384074D1*
X3387876Y2404806D1*
X3391723Y2408609D1*
X3393624Y2412456D1*
Y2418160D1*
X3384074D1*
X3405976Y2422006D2*
X3423220D1*
X3428924Y2423908D1*
X3430869Y2425853D1*
X3432770Y2429656D1*
Y2435404D1*
X3430869Y2439206D1*
X3428924Y2441152D1*
X3423220Y2443053D1*
X3405976D1*
Y2402861D1*
X3445122Y2443053D2*
Y2402861D1*
X3468969Y2443053D2*
X3465122Y2441152D1*
X3461320Y2437305D1*
X3459374Y2433502D1*
X3457473Y2427754D1*
Y2418160D1*
X3459374Y2412456D1*
X3461320Y2408609D1*
X3465122Y2404806D1*
X3468969Y2402861D1*
X3476618D1*
X3480421Y2404806D1*
X3484268Y2408609D1*
X3486169Y2412456D1*
X3488070Y2418160D1*
Y2427754D1*
X3486169Y2433502D1*
X3484268Y2437305D1*
X3480421Y2441152D1*
X3476618Y2443053D1*
X3468969D1*
X3500422Y2435359D2*
X3504268Y2437305D1*
X3510016Y2443009D1*
Y2402861D1*
X3547261Y2429656D2*
X3545316Y2423908D1*
X3541513Y2420061D1*
X3535765Y2418160D1*
X3533864D1*
X3528116Y2420061D1*
X3524313Y2423908D1*
X3522368Y2429656D1*
Y2431557D1*
X3524313Y2437305D1*
X3528116Y2441108D1*
X3533864Y2443009D1*
X3535765D1*
X3541513Y2441108D1*
X3545316Y2437305D1*
X3547261Y2429656D1*
Y2420061D1*
X3545316Y2410510D1*
X3541513Y2404762D1*
X3535765Y2402861D1*
X3531963D1*
X3526215Y2404762D1*
X3524313Y2408609D1*
X3407964Y2232983D2*
X3406063Y2236785D1*
X3402216Y2240632D1*
X3398414Y2242533D1*
X3390764D1*
X3386917Y2240632D1*
X3383115Y2236785D1*
X3381169Y2232983D1*
X3379268Y2227235D1*
Y2217640D1*
X3381169Y2211936D1*
X3383115Y2208089D1*
X3386917Y2204287D1*
X3390764Y2202341D1*
X3398414D1*
X3402216Y2204287D1*
X3406063Y2208089D1*
X3407964Y2211936D1*
Y2217640D1*
X3398414D1*
X3420316Y2221487D2*
X3437560D1*
X3443263Y2223388D1*
X3445209Y2225333D1*
X3447110Y2229136D1*
Y2234884D1*
X3445209Y2238687D1*
X3443263Y2240632D1*
X3437560Y2242533D1*
X3420316D1*
Y2202341D1*
X3459462Y2242533D2*
Y2202341D1*
X3483309Y2242533D2*
X3479462Y2240632D1*
X3475660Y2236785D1*
X3473714Y2232983D1*
X3471813Y2227235D1*
Y2217640D1*
X3473714Y2211936D1*
X3475660Y2208089D1*
X3479462Y2204287D1*
X3483309Y2202341D1*
X3490958D1*
X3494761Y2204287D1*
X3498608Y2208089D1*
X3500509Y2211936D1*
X3502410Y2217640D1*
Y2227235D1*
X3500509Y2232983D1*
X3498608Y2236785D1*
X3494761Y2240632D1*
X3490958Y2242533D1*
X3483309D1*
X3514762Y2234840D2*
X3518608Y2236785D1*
X3524356Y2242489D1*
Y2202341D1*
X3536708Y2234840D2*
X3540555Y2236785D1*
X3546303Y2242489D1*
Y2202341D1*
X3468965Y2333093D2*
X3467064Y2336896D1*
X3463217Y2340742D1*
X3459415Y2342644D1*
X3451766D1*
X3447919Y2340742D1*
X3444116Y2336896D1*
X3442171Y2333093D1*
X3440269Y2327345D1*
Y2317750D1*
X3442171Y2312046D1*
X3444116Y2308200D1*
X3447919Y2304397D1*
X3451766Y2302452D1*
X3459415D1*
X3463217Y2304397D1*
X3467064Y2308200D1*
X3468965Y2312046D1*
Y2317750D1*
X3459415D1*
X3508111Y2342644D2*
Y2302452D1*
X3481317Y2342644D1*
Y2302452D1*
X3520463Y2342644D2*
Y2302452D1*
X3533860D1*
X3539608Y2304397D1*
X3543455Y2308200D1*
X3545356Y2312046D1*
X3547258Y2317750D1*
Y2327345D1*
X3545356Y2333093D1*
X3543455Y2336896D1*
X3539608Y2340742D1*
X3533860Y2342644D1*
X3520463D1*
X3414614Y2134084D2*
X3412712Y2137886D1*
X3408866Y2141733D1*
X3405063Y2143634D1*
X3397414D1*
X3393567Y2141733D1*
X3389765Y2137886D1*
X3387819Y2134084D1*
X3385918Y2128336D1*
Y2118741D1*
X3387819Y2113037D1*
X3389765Y2109190D1*
X3393567Y2105388D1*
X3397414Y2103442D1*
X3405063D1*
X3408866Y2105388D1*
X3412712Y2109190D1*
X3414614Y2113037D1*
Y2118741D1*
X3405063D1*
X3426965Y2122588D2*
X3444209D1*
X3449913Y2124489D1*
X3451859Y2126434D1*
X3453760Y2130237D1*
Y2135985D1*
X3451859Y2139788D1*
X3449913Y2141733D1*
X3444209Y2143634D1*
X3426965D1*
Y2103442D1*
X3466111Y2143634D2*
Y2103442D1*
X3489959Y2143634D2*
X3486112Y2141733D1*
X3482309Y2137886D1*
X3480364Y2134084D1*
X3478463Y2128336D1*
Y2118741D1*
X3480364Y2113037D1*
X3482309Y2109190D1*
X3486112Y2105388D1*
X3489959Y2103442D1*
X3497608D1*
X3501410Y2105388D1*
X3505257Y2109190D1*
X3507159Y2113037D1*
X3509060Y2118741D1*
Y2128336D1*
X3507159Y2134084D1*
X3505257Y2137886D1*
X3501410Y2141733D1*
X3497608Y2143634D1*
X3489959D1*
X3546305Y2130237D2*
X3544359Y2124489D1*
X3540557Y2120642D1*
X3534809Y2118741D1*
X3532907D1*
X3527159Y2120642D1*
X3523357Y2124489D1*
X3521411Y2130237D1*
Y2132138D1*
X3523357Y2137886D1*
X3527159Y2141689D1*
X3532907Y2143590D1*
X3534809D1*
X3540557Y2141689D1*
X3544359Y2137886D1*
X3546305Y2130237D1*
Y2120642D1*
X3544359Y2111092D1*
X3540557Y2105344D1*
X3534809Y2103442D1*
X3531006D1*
X3525258Y2105344D1*
X3523357Y2109190D1*
X3390765Y2032333D2*
X3388863Y2036136D1*
X3385017Y2039982D1*
X3381214Y2041884D1*
X3373565D1*
X3369718Y2039982D1*
X3365915Y2036136D1*
X3363970Y2032333D1*
X3362069Y2026585D1*
Y2016990D1*
X3363970Y2011286D1*
X3365915Y2007440D1*
X3369718Y2003637D1*
X3373565Y2001692D1*
X3381214D1*
X3385017Y2003637D1*
X3388863Y2007440D1*
X3390765Y2011286D1*
Y2016990D1*
X3381214D1*
X3403116Y2020837D2*
X3420360D1*
X3426064Y2022738D1*
X3428009Y2024684D1*
X3429911Y2028486D1*
Y2034234D1*
X3428009Y2038037D1*
X3426064Y2039982D1*
X3420360Y2041884D1*
X3403116D1*
Y2001692D1*
X3442262Y2041884D2*
Y2001692D1*
X3466110Y2041884D2*
X3462263Y2039982D1*
X3458460Y2036136D1*
X3456515Y2032333D1*
X3454613Y2026585D1*
Y2016990D1*
X3456515Y2011286D1*
X3458460Y2007440D1*
X3462263Y2003637D1*
X3466110Y2001692D1*
X3473759D1*
X3477561Y2003637D1*
X3481408Y2007440D1*
X3483309Y2011286D1*
X3485211Y2016990D1*
Y2026585D1*
X3483309Y2032333D1*
X3481408Y2036136D1*
X3477561Y2039982D1*
X3473759Y2041884D1*
X3466110D1*
X3497562Y2034190D2*
X3501409Y2036136D1*
X3507157Y2041839D1*
Y2001692D1*
X3531004Y2041839D2*
X3525256Y2039938D1*
X3521410Y2034190D1*
X3519508Y2024640D1*
Y2018892D1*
X3521410Y2009341D1*
X3525256Y2003593D1*
X3531004Y2001692D1*
X3534807D1*
X3540555Y2003593D1*
X3544357Y2009341D1*
X3546303Y2018892D1*
Y2024640D1*
X3544357Y2034190D1*
X3540555Y2039938D1*
X3534807Y2041839D1*
X3531004D1*
X3544357Y2034190D2*
X3521410Y2009341D1*
X3468015Y1937313D2*
X3466114Y1941116D1*
X3462267Y1944963D1*
X3458465Y1946864D1*
X3450815D1*
X3446969Y1944963D1*
X3443166Y1941116D1*
X3441221Y1937313D1*
X3439319Y1931565D1*
Y1921971D1*
X3441221Y1916267D1*
X3443166Y1912420D1*
X3446969Y1908618D1*
X3450815Y1906672D1*
X3458465D1*
X3462267Y1908618D1*
X3466114Y1912420D1*
X3468015Y1916267D1*
Y1921971D1*
X3458465D1*
X3507161Y1946864D2*
Y1906672D1*
X3480367Y1946864D1*
Y1906672D1*
X3519513Y1946864D2*
Y1906672D1*
X3532910D1*
X3538658Y1908618D1*
X3542505Y1912420D1*
X3544406Y1916267D1*
X3546307Y1921971D1*
Y1931565D1*
X3544406Y1937313D1*
X3542505Y1941116D1*
X3538658Y1944963D1*
X3532910Y1946864D1*
X3519513D1*
X3390765Y1840384D2*
X3388863Y1844187D1*
X3385017Y1848034D1*
X3381214Y1849935D1*
X3373565D1*
X3369718Y1848034D1*
X3365915Y1844187D1*
X3363970Y1840384D1*
X3362069Y1834636D1*
Y1825041D1*
X3363970Y1819338D1*
X3365915Y1815491D1*
X3369718Y1811688D1*
X3373565Y1809743D1*
X3381214D1*
X3385017Y1811688D1*
X3388863Y1815491D1*
X3390765Y1819338D1*
Y1825041D1*
X3381214D1*
X3403116Y1828888D2*
X3420360D1*
X3426064Y1830790D1*
X3428009Y1832735D1*
X3429911Y1836538D1*
Y1842286D1*
X3428009Y1846088D1*
X3426064Y1848034D1*
X3420360Y1849935D1*
X3403116D1*
Y1809743D1*
X3442262Y1849935D2*
Y1809743D1*
X3466110Y1849935D2*
X3462263Y1848034D1*
X3458460Y1844187D1*
X3456515Y1840384D1*
X3454613Y1834636D1*
Y1825041D1*
X3456515Y1819338D1*
X3458460Y1815491D1*
X3462263Y1811688D1*
X3466110Y1809743D1*
X3473759D1*
X3477561Y1811688D1*
X3481408Y1815491D1*
X3483309Y1819338D1*
X3485211Y1825041D1*
Y1834636D1*
X3483309Y1840384D1*
X3481408Y1844187D1*
X3477561Y1848034D1*
X3473759Y1849935D1*
X3466110D1*
X3497562Y1842241D2*
X3501409Y1844187D1*
X3507157Y1849891D1*
Y1809743D1*
X3527158D2*
X3546303Y1849891D1*
X3519508D1*
X3413665Y1734514D2*
X3411764Y1738317D1*
X3407917Y1742164D1*
X3404114Y1744065D1*
X3396465D1*
X3392618Y1742164D1*
X3388816Y1738317D1*
X3386870Y1734514D1*
X3384969Y1728766D1*
Y1719171D1*
X3386870Y1713468D1*
X3388816Y1709621D1*
X3392618Y1705818D1*
X3396465Y1703873D1*
X3404114D1*
X3407917Y1705818D1*
X3411764Y1709621D1*
X3413665Y1713468D1*
Y1719171D1*
X3404114D1*
X3426016Y1723018D2*
X3443260D1*
X3448964Y1724919D1*
X3450910Y1726865D1*
X3452811Y1730667D1*
Y1736416D1*
X3450910Y1740218D1*
X3448964Y1742164D1*
X3443260Y1744065D1*
X3426016D1*
Y1703873D1*
X3465162Y1744065D2*
Y1703873D1*
X3489010Y1744065D2*
X3485163Y1742164D1*
X3481361Y1738317D1*
X3479415Y1734514D1*
X3477514Y1728766D1*
Y1719171D1*
X3479415Y1713468D1*
X3481361Y1709621D1*
X3485163Y1705818D1*
X3489010Y1703873D1*
X3496659D1*
X3500462Y1705818D1*
X3504308Y1709621D1*
X3506210Y1713468D1*
X3508111Y1719171D1*
Y1728766D1*
X3506210Y1734514D1*
X3504308Y1738317D1*
X3500462Y1742164D1*
X3496659Y1744065D1*
X3489010D1*
X3524309Y1744021D2*
X3545312D1*
X3533860Y1728722D1*
X3539608D1*
X3543410Y1726821D1*
X3545312Y1724919D1*
X3547257Y1719171D1*
Y1715369D1*
X3545312Y1709621D1*
X3541509Y1705774D1*
X3535761Y1703873D1*
X3530013D1*
X3524309Y1705774D1*
X3522408Y1707720D1*
X3520462Y1711522D1*
X3415825Y1642794D2*
X3413924Y1646596D1*
X3410077Y1650443D1*
X3406274Y1652344D1*
X3398625D1*
X3394778Y1650443D1*
X3390976Y1646596D1*
X3389030Y1642794D1*
X3387129Y1637046D1*
Y1627451D1*
X3389030Y1621747D1*
X3390976Y1617900D1*
X3394778Y1614098D1*
X3398625Y1612152D1*
X3406274D1*
X3410077Y1614098D1*
X3413924Y1617900D1*
X3415825Y1621747D1*
Y1627451D1*
X3406274D1*
X3428176Y1631298D2*
X3445420D1*
X3451124Y1633199D1*
X3453070Y1635144D1*
X3454971Y1638947D1*
Y1644695D1*
X3453070Y1648498D1*
X3451124Y1650443D1*
X3445420Y1652344D1*
X3428176D1*
Y1612152D1*
X3467322Y1652344D2*
Y1612152D1*
X3491170Y1652344D2*
X3487323Y1650443D1*
X3483521Y1646596D1*
X3481575Y1642794D1*
X3479674Y1637046D1*
Y1627451D1*
X3481575Y1621747D1*
X3483521Y1617900D1*
X3487323Y1614098D1*
X3491170Y1612152D1*
X3498819D1*
X3502622Y1614098D1*
X3506469Y1617900D1*
X3508370Y1621747D1*
X3510271Y1627451D1*
Y1637046D1*
X3508370Y1642794D1*
X3506469Y1646596D1*
X3502622Y1650443D1*
X3498819Y1652344D1*
X3491170D1*
X3524568Y1642750D2*
Y1644651D1*
X3526469Y1648498D1*
X3528371Y1650399D1*
X3532217Y1652300D1*
X3539867D1*
X3543669Y1650399D1*
X3545570Y1648498D1*
X3547516Y1644651D1*
Y1640848D1*
X3545570Y1637002D1*
X3541768Y1631298D1*
X3522622Y1612152D1*
X3549417D1*
X3468015Y1472344D2*
X3466114Y1476146D1*
X3462267Y1479993D1*
X3458465Y1481894D1*
X3450815D1*
X3446969Y1479993D1*
X3443166Y1476146D1*
X3441221Y1472344D1*
X3439319Y1466596D1*
Y1457001D1*
X3441221Y1451297D1*
X3443166Y1447450D1*
X3446969Y1443648D1*
X3450815Y1441702D1*
X3458465D1*
X3462267Y1443648D1*
X3466114Y1447450D1*
X3468015Y1451297D1*
Y1457001D1*
X3458465D1*
X3507161Y1481894D2*
Y1441702D1*
X3480367Y1481894D1*
Y1441702D1*
X3519513Y1481894D2*
Y1441702D1*
X3532910D1*
X3538658Y1443648D1*
X3542505Y1447450D1*
X3544406Y1451297D1*
X3546307Y1457001D1*
Y1466596D1*
X3544406Y1472344D1*
X3542505Y1476146D1*
X3538658Y1479993D1*
X3532910Y1481894D1*
X3519513D1*
X3390765Y1370203D2*
X3388863Y1374006D1*
X3385017Y1377853D1*
X3381214Y1379754D1*
X3373565D1*
X3369718Y1377853D1*
X3365915Y1374006D1*
X3363970Y1370203D1*
X3362069Y1364455D1*
Y1354860D1*
X3363970Y1349157D1*
X3365915Y1345310D1*
X3369718Y1341507D1*
X3373565Y1339562D1*
X3381214D1*
X3385017Y1341507D1*
X3388863Y1345310D1*
X3390765Y1349157D1*
Y1354860D1*
X3381214D1*
X3403116Y1358707D2*
X3420360D1*
X3426064Y1360608D1*
X3428009Y1362554D1*
X3429911Y1366356D1*
Y1372104D1*
X3428009Y1375907D1*
X3426064Y1377853D1*
X3420360Y1379754D1*
X3403116D1*
Y1339562D1*
X3442262Y1379754D2*
Y1339562D1*
X3466110Y1379754D2*
X3462263Y1377853D1*
X3458460Y1374006D1*
X3456515Y1370203D1*
X3454613Y1364455D1*
Y1354860D1*
X3456515Y1349157D1*
X3458460Y1345310D1*
X3462263Y1341507D1*
X3466110Y1339562D1*
X3473759D1*
X3477561Y1341507D1*
X3481408Y1345310D1*
X3483309Y1349157D1*
X3485211Y1354860D1*
Y1364455D1*
X3483309Y1370203D1*
X3481408Y1374006D1*
X3477561Y1377853D1*
X3473759Y1379754D1*
X3466110D1*
X3499508Y1370159D2*
Y1372060D1*
X3501409Y1375907D1*
X3503310Y1377808D1*
X3507157Y1379710D1*
X3514806D1*
X3518609Y1377808D1*
X3520510Y1375907D1*
X3522456Y1372060D1*
Y1368258D1*
X3520510Y1364411D1*
X3516707Y1358707D1*
X3497562Y1339562D1*
X3524357D1*
X3536708Y1372060D2*
X3540555Y1374006D1*
X3546303Y1379710D1*
Y1339562D1*
X3375275Y1269353D2*
X3373374Y1273155D1*
X3369527Y1277002D1*
X3365725Y1278903D1*
X3358075D1*
X3354228Y1277002D1*
X3350426Y1273155D1*
X3348480Y1269353D1*
X3346579Y1263605D1*
Y1254010D1*
X3348480Y1248306D1*
X3350426Y1244459D1*
X3354228Y1240657D1*
X3358075Y1238711D1*
X3365725D1*
X3369527Y1240657D1*
X3373374Y1244459D1*
X3375275Y1248306D1*
Y1254010D1*
X3365725D1*
X3387627Y1257857D2*
X3404871D1*
X3410574Y1259758D1*
X3412520Y1261704D1*
X3414421Y1265506D1*
Y1271254D1*
X3412520Y1275057D1*
X3410574Y1277002D1*
X3404871Y1278903D1*
X3387627D1*
Y1238711D1*
X3426773Y1278903D2*
Y1238711D1*
X3450620Y1278903D2*
X3446773Y1277002D1*
X3442971Y1273155D1*
X3441025Y1269353D1*
X3439124Y1263605D1*
Y1254010D1*
X3441025Y1248306D1*
X3442971Y1244459D1*
X3446773Y1240657D1*
X3450620Y1238711D1*
X3458269D1*
X3462072Y1240657D1*
X3465919Y1244459D1*
X3467820Y1248306D1*
X3469721Y1254010D1*
Y1263605D1*
X3467820Y1269353D1*
X3465919Y1273155D1*
X3462072Y1277002D1*
X3458269Y1278903D1*
X3450620D1*
X3484018Y1269309D2*
Y1271210D1*
X3485919Y1275057D1*
X3487821Y1276958D1*
X3491667Y1278859D1*
X3499317D1*
X3503119Y1276958D1*
X3505021Y1275057D1*
X3506966Y1271210D1*
Y1267407D1*
X3505021Y1263561D1*
X3501218Y1257857D1*
X3482073Y1238711D1*
X3508867D1*
X3532715Y1278859D2*
X3526967Y1276958D1*
X3523120Y1271210D1*
X3521219Y1261659D1*
Y1255911D1*
X3523120Y1246361D1*
X3526967Y1240613D1*
X3532715Y1238711D1*
X3536517D1*
X3542265Y1240613D1*
X3546068Y1246361D1*
X3548013Y1255911D1*
Y1261659D1*
X3546068Y1271210D1*
X3542265Y1276958D1*
X3536517Y1278859D1*
X3532715D1*
X3546068Y1271210D2*
X3523120Y1246361D1*
X3394423Y1168563D2*
X3392522Y1172365D1*
X3388675Y1176212D1*
X3384873Y1178113D1*
X3377224D1*
X3373377Y1176212D1*
X3369574Y1172365D1*
X3367629Y1168563D1*
X3365727Y1162815D1*
Y1153220D1*
X3367629Y1147516D1*
X3369574Y1143669D1*
X3373377Y1139867D1*
X3377224Y1137921D1*
X3384873D1*
X3388675Y1139867D1*
X3392522Y1143669D1*
X3394423Y1147516D1*
Y1153220D1*
X3384873D1*
X3406775Y1157067D2*
X3424019D1*
X3429723Y1158968D1*
X3431668Y1160913D1*
X3433569Y1164716D1*
Y1170464D1*
X3431668Y1174267D1*
X3429723Y1176212D1*
X3424019Y1178113D1*
X3406775D1*
Y1137921D1*
X3445921Y1178113D2*
Y1137921D1*
X3469768Y1178113D2*
X3465922Y1176212D1*
X3462119Y1172365D1*
X3460174Y1168563D1*
X3458272Y1162815D1*
Y1153220D1*
X3460174Y1147516D1*
X3462119Y1143669D1*
X3465922Y1139867D1*
X3469768Y1137921D1*
X3477418D1*
X3481220Y1139867D1*
X3485067Y1143669D1*
X3486968Y1147516D1*
X3488869Y1153220D1*
Y1162815D1*
X3486968Y1168563D1*
X3485067Y1172365D1*
X3481220Y1176212D1*
X3477418Y1178113D1*
X3469768D1*
X3501221Y1170420D2*
X3505068Y1172365D1*
X3510816Y1178069D1*
Y1137921D1*
X3546115Y1172365D2*
X3544214Y1176168D1*
X3538466Y1178069D1*
X3534663D1*
X3528915Y1176168D1*
X3525068Y1170420D1*
X3523167Y1160869D1*
Y1151319D1*
X3525068Y1143669D1*
X3528915Y1139823D1*
X3534663Y1137921D1*
X3536564D1*
X3542268Y1139823D1*
X3546115Y1143669D1*
X3548016Y1149417D1*
Y1151319D1*
X3546115Y1157067D1*
X3542268Y1160869D1*
X3536564Y1162771D1*
X3534663D1*
X3528915Y1160869D1*
X3525068Y1157067D1*
X3523167Y1151319D1*
X3414423Y1073943D2*
X3412522Y1077746D1*
X3408675Y1081593D1*
X3404873Y1083494D1*
X3397224D1*
X3393377Y1081593D1*
X3389574Y1077746D1*
X3387629Y1073943D1*
X3385727Y1068195D1*
Y1058601D1*
X3387629Y1052897D1*
X3389574Y1049050D1*
X3393377Y1045247D1*
X3397224Y1043302D1*
X3404873D1*
X3408675Y1045247D1*
X3412522Y1049050D1*
X3414423Y1052897D1*
Y1058601D1*
X3404873D1*
X3426775Y1062447D2*
X3444019D1*
X3449723Y1064349D1*
X3451668Y1066294D1*
X3453569Y1070097D1*
Y1075845D1*
X3451668Y1079647D1*
X3449723Y1081593D1*
X3444019Y1083494D1*
X3426775D1*
Y1043302D1*
X3465921Y1083494D2*
Y1043302D1*
X3489768Y1083494D2*
X3485922Y1081593D1*
X3482119Y1077746D1*
X3480174Y1073943D1*
X3478272Y1068195D1*
Y1058601D1*
X3480174Y1052897D1*
X3482119Y1049050D1*
X3485922Y1045247D1*
X3489768Y1043302D1*
X3497418D1*
X3501220Y1045247D1*
X3505067Y1049050D1*
X3506968Y1052897D1*
X3508869Y1058601D1*
Y1068195D1*
X3506968Y1073943D1*
X3505067Y1077746D1*
X3501220Y1081593D1*
X3497418Y1083494D1*
X3489768D1*
X3528870Y1043302D2*
X3548016Y1083450D1*
X3521221D1*
X3413683Y974134D2*
X3411782Y977936D1*
X3407935Y981783D1*
X3404133Y983684D1*
X3396483D1*
X3392637Y981783D1*
X3388834Y977936D1*
X3386889Y974134D1*
X3384987Y968386D1*
Y958791D1*
X3386889Y953087D1*
X3388834Y949240D1*
X3392637Y945438D1*
X3396483Y943492D1*
X3404133D1*
X3407935Y945438D1*
X3411782Y949240D1*
X3413683Y953087D1*
Y958791D1*
X3404133D1*
X3426035Y962638D2*
X3443279D1*
X3448983Y964539D1*
X3450928Y966484D1*
X3452829Y970287D1*
Y976035D1*
X3450928Y979837D1*
X3448983Y981783D1*
X3443279Y983684D1*
X3426035D1*
Y943492D1*
X3465181Y983684D2*
Y943492D1*
X3489028Y983684D2*
X3485181Y981783D1*
X3481379Y977936D1*
X3479433Y974134D1*
X3477532Y968386D1*
Y958791D1*
X3479433Y953087D1*
X3481379Y949240D1*
X3485181Y945438D1*
X3489028Y943492D1*
X3496677D1*
X3500480Y945438D1*
X3504327Y949240D1*
X3506228Y953087D1*
X3508129Y958791D1*
Y968386D1*
X3506228Y974134D1*
X3504327Y977936D1*
X3500480Y981783D1*
X3496677Y983684D1*
X3489028D1*
X3530031Y983640D2*
X3524327Y981739D1*
X3522382Y977936D1*
Y974089D1*
X3524327Y970287D1*
X3528130Y968341D1*
X3535779Y966440D1*
X3541527Y964539D1*
X3545330Y960692D1*
X3547231Y956890D1*
Y951142D1*
X3545330Y947339D1*
X3543429Y945393D1*
X3537681Y943492D1*
X3530031D1*
X3524327Y945393D1*
X3522382Y947339D1*
X3520481Y951142D1*
Y956890D1*
X3522382Y960692D1*
X3526229Y964539D1*
X3531933Y966440D1*
X3539582Y968341D1*
X3543429Y970287D1*
X3545330Y974089D1*
Y977936D1*
X3543429Y981739D1*
X3537681Y983640D1*
X3530031D1*
X3468015Y873484D2*
X3466114Y877287D1*
X3462267Y881133D1*
X3458465Y883035D1*
X3450815D1*
X3446969Y881133D1*
X3443166Y877287D1*
X3441221Y873484D1*
X3439319Y867736D1*
Y858141D1*
X3441221Y852437D1*
X3443166Y848591D1*
X3446969Y844788D1*
X3450815Y842843D1*
X3458465D1*
X3462267Y844788D1*
X3466114Y848591D1*
X3468015Y852437D1*
Y858141D1*
X3458465D1*
X3507161Y883035D2*
Y842843D1*
X3480367Y883035D1*
Y842843D1*
X3519513Y883035D2*
Y842843D1*
X3532910D1*
X3538658Y844788D1*
X3542505Y848591D1*
X3544406Y852437D1*
X3546307Y858141D1*
Y867736D1*
X3544406Y873484D1*
X3542505Y877287D1*
X3538658Y881133D1*
X3532910Y883035D1*
X3519513D1*
X3390783Y782306D2*
X3388882Y786108D1*
X3385035Y789955D1*
X3381232Y791856D1*
X3373583D1*
X3369736Y789955D1*
X3365934Y786108D1*
X3363988Y782306D1*
X3362087Y776558D1*
Y766963D1*
X3363988Y761259D1*
X3365934Y757412D1*
X3369736Y753610D1*
X3373583Y751664D1*
X3381232D1*
X3385035Y753610D1*
X3388882Y757412D1*
X3390783Y761259D1*
Y766963D1*
X3381232D1*
X3403134Y770810D2*
X3420378D1*
X3426082Y772711D1*
X3428028Y774656D1*
X3429929Y778459D1*
Y784207D1*
X3428028Y788009D1*
X3426082Y789955D1*
X3420378Y791856D1*
X3403134D1*
Y751664D1*
X3442280Y791856D2*
Y751664D1*
X3466128Y791856D2*
X3462281Y789955D1*
X3458479Y786108D1*
X3456533Y782306D1*
X3454632Y776558D1*
Y766963D1*
X3456533Y761259D1*
X3458479Y757412D1*
X3462281Y753610D1*
X3466128Y751664D1*
X3473777D1*
X3477580Y753610D1*
X3481427Y757412D1*
X3483328Y761259D1*
X3485229Y766963D1*
Y776558D1*
X3483328Y782306D1*
X3481427Y786108D1*
X3477580Y789955D1*
X3473777Y791856D1*
X3466128D1*
X3497580Y784163D2*
X3501427Y786108D1*
X3507175Y791812D1*
Y751664D1*
X3529077Y791812D2*
X3523373Y789911D1*
X3521428Y786108D1*
Y782261D1*
X3523373Y778459D1*
X3527176Y776513D1*
X3534825Y774612D1*
X3540573Y772711D1*
X3544376Y768864D1*
X3546277Y765061D1*
Y759313D1*
X3544376Y755511D1*
X3542475Y753565D1*
X3536727Y751664D1*
X3529077D1*
X3523373Y753565D1*
X3521428Y755511D1*
X3519527Y759313D1*
Y765061D1*
X3521428Y768864D1*
X3525275Y772711D1*
X3530979Y774612D1*
X3538628Y776513D1*
X3542475Y778459D1*
X3544376Y782261D1*
Y786108D1*
X3542475Y789911D1*
X3536727Y791812D1*
X3529077D1*
X3390763Y705736D2*
X3388862Y709539D1*
X3385015Y713385D1*
X3381213Y715287D1*
X3373563D1*
X3369717Y713385D1*
X3365914Y709539D1*
X3363969Y705736D1*
X3362067Y699988D1*
Y690393D1*
X3363969Y684689D1*
X3365914Y680843D1*
X3369717Y677040D1*
X3373563Y675095D1*
X3381213D1*
X3385015Y677040D1*
X3388862Y680843D1*
X3390763Y684689D1*
Y690393D1*
X3381213D1*
X3403115Y694240D2*
X3420359D1*
X3426063Y696141D1*
X3428008Y698087D1*
X3429909Y701889D1*
Y707637D1*
X3428008Y711440D1*
X3426063Y713385D1*
X3420359Y715287D1*
X3403115D1*
Y675095D1*
X3442261Y715287D2*
Y675095D1*
X3466108Y715287D2*
X3462261Y713385D1*
X3458459Y709539D1*
X3456513Y705736D1*
X3454612Y699988D1*
Y690393D1*
X3456513Y684689D1*
X3458459Y680843D1*
X3462261Y677040D1*
X3466108Y675095D1*
X3473758D1*
X3477560Y677040D1*
X3481407Y680843D1*
X3483308Y684689D1*
X3485209Y690393D1*
Y699988D1*
X3483308Y705736D1*
X3481407Y709539D1*
X3477560Y713385D1*
X3473758Y715287D1*
X3466108D1*
X3497561Y707593D2*
X3501408Y709539D1*
X3507156Y715242D1*
Y675095D1*
X3542455Y715242D2*
X3523354D1*
X3521452Y698042D1*
X3523354Y699944D1*
X3529102Y701889D1*
X3534806D1*
X3540554Y699944D1*
X3544400Y696141D1*
X3546302Y690393D1*
Y686591D1*
X3544400Y680843D1*
X3540554Y676996D1*
X3534806Y675095D1*
X3529102D1*
X3523354Y676996D1*
X3521452Y678941D1*
X3519507Y682744D1*
X3394423Y473576D2*
X3392522Y477378D1*
X3388675Y481225D1*
X3384873Y483126D1*
X3377224D1*
X3373377Y481225D1*
X3369574Y477378D1*
X3367629Y473576D1*
X3365727Y467828D1*
Y458233D1*
X3367629Y452529D1*
X3369574Y448683D1*
X3373377Y444880D1*
X3377224Y442934D1*
X3384873D1*
X3388675Y444880D1*
X3392522Y448683D1*
X3394423Y452529D1*
Y458233D1*
X3384873D1*
X3406775Y462080D2*
X3424019D1*
X3429723Y463981D1*
X3431668Y465927D1*
X3433569Y469729D1*
Y475477D1*
X3431668Y479280D1*
X3429723Y481225D1*
X3424019Y483126D1*
X3406775D1*
Y442934D1*
X3445921Y483126D2*
Y442934D1*
X3469768Y483126D2*
X3465922Y481225D1*
X3462119Y477378D1*
X3460174Y473576D1*
X3458272Y467828D1*
Y458233D1*
X3460174Y452529D1*
X3462119Y448683D1*
X3465922Y444880D1*
X3469768Y442934D1*
X3477418D1*
X3481220Y444880D1*
X3485067Y448683D1*
X3486968Y452529D1*
X3488869Y458233D1*
Y467828D1*
X3486968Y473576D1*
X3485067Y477378D1*
X3481220Y481225D1*
X3477418Y483126D1*
X3469768D1*
X3501221Y475433D2*
X3505068Y477378D1*
X3510816Y483082D1*
Y442934D1*
X3542312D2*
Y483082D1*
X3523167Y456332D1*
X3551863D1*
X1667208Y3634065D2*
X1684452D1*
X1690156Y3635967D1*
X1692101Y3637912D1*
X1694002Y3641715D1*
Y3647463D1*
X1692101Y3651265D1*
X1690156Y3653211D1*
X1684452Y3655112D1*
X1667208D1*
Y3614920D1*
X1706354Y3655112D2*
X1715949Y3614920D1*
X1725499Y3655112D1*
X1735050Y3614920D1*
X1744645Y3655112D1*
X1756996Y3635967D2*
X1774196D1*
X1779944Y3637912D1*
X1781889Y3639813D1*
X1783791Y3643616D1*
Y3647463D1*
X1781889Y3651265D1*
X1779944Y3653211D1*
X1774196Y3655112D1*
X1756996D1*
Y3614920D1*
X1770393Y3635967D2*
X1783791Y3614920D1*
X480239Y3734706D2*
X497483D1*
X503187Y3736607D1*
X505132Y3738553D1*
X507034Y3742355D1*
Y3748103D1*
X505132Y3751906D1*
X503187Y3753851D1*
X497483Y3755752D1*
X480239D1*
Y3715560D1*
X519385Y3755752D2*
X528980Y3715560D1*
X538530Y3755752D1*
X548081Y3715560D1*
X557676Y3755752D1*
X570027Y3736607D2*
X587227D1*
X592975Y3738553D1*
X594921Y3740454D1*
X596822Y3744256D1*
Y3748103D1*
X594921Y3751906D1*
X592975Y3753851D1*
X587227Y3755752D1*
X570027D1*
Y3715560D1*
X583424Y3736607D2*
X596822Y3715560D1*
X436863Y3682928D2*
X433016Y3681027D1*
X429213Y3677180D1*
X427268Y3673377D1*
X425367Y3667629D1*
Y3658034D1*
X427268Y3652331D1*
X429213Y3648484D1*
X433016Y3644681D1*
X436863Y3642736D1*
X444512D1*
X448314Y3644681D1*
X452161Y3648484D1*
X454063Y3652331D1*
X455964Y3658034D1*
Y3667629D1*
X454063Y3673377D1*
X452161Y3677180D1*
X448314Y3681027D1*
X444512Y3682928D1*
X436863D1*
X495110D2*
Y3642736D1*
X468315Y3682928D1*
Y3642736D1*
X507461D2*
X534256Y3682884D1*
X558103Y3682928D2*
X554257Y3681027D1*
X550454Y3677180D1*
X548509Y3673377D1*
X546607Y3667629D1*
Y3658034D1*
X548509Y3652331D1*
X550454Y3648484D1*
X554257Y3644681D1*
X558103Y3642736D1*
X565753D1*
X569555Y3644681D1*
X573402Y3648484D1*
X575303Y3652331D1*
X577205Y3658034D1*
Y3667629D1*
X575303Y3673377D1*
X573402Y3677180D1*
X569555Y3681027D1*
X565753Y3682928D1*
X558103D1*
X614449D2*
X589556D1*
Y3642736D1*
Y3663782D2*
X604855D1*
X651694Y3682928D2*
X626801D1*
Y3642736D1*
Y3663782D2*
X642099D1*
X1709575Y3851645D2*
X1707674Y3855447D1*
X1703827Y3859294D1*
X1700024Y3861195D1*
X1692375D1*
X1688528Y3859294D1*
X1684726Y3855447D1*
X1682780Y3851645D1*
X1680879Y3845897D1*
Y3836302D1*
X1682780Y3830598D1*
X1684726Y3826751D1*
X1688528Y3822949D1*
X1692375Y3821003D1*
X1700024D1*
X1703827Y3822949D1*
X1707674Y3826751D1*
X1709575Y3830598D1*
X1721926Y3853502D2*
X1725773Y3855447D1*
X1731521Y3861151D1*
Y3821003D1*
X2948091Y2897739D2*
X2946190Y2901542D1*
X2942343Y2905388D1*
X2938540Y2907289D1*
X2930891D1*
X2927044Y2905388D1*
X2923242Y2901541D1*
X2921296Y2897738D1*
X2919395Y2891990D1*
Y2882396D1*
X2921297Y2876692D1*
X2923242Y2872845D1*
X2927045Y2869043D1*
X2930892Y2867097D1*
X2938541D1*
X2942343Y2869043D1*
X2946190Y2872846D1*
X2948091Y2876692D1*
X2962388Y2897695D2*
Y2899596D1*
X2964289Y2903443D1*
X2966190Y2905345D1*
X2970037Y2907246D1*
X2977686D1*
X2981489Y2905345D1*
X2983390Y2903444D1*
X2985336Y2899597D1*
Y2895794D1*
X2983390Y2891948D1*
X2979588Y2886244D1*
X2960443Y2867098D1*
X2987238D1*
X2274646Y2890485D2*
X2272744Y2894287D1*
X2268898Y2898134D1*
X2265095Y2900035D1*
X2257446D1*
X2253599Y2898134D1*
X2249796Y2894287D1*
X2247851Y2890485D1*
X2245950Y2884737D1*
Y2875142D1*
X2247851Y2869438D1*
X2249796Y2865591D1*
X2253599Y2861789D1*
X2257446Y2859843D1*
X2265095D1*
X2268898Y2861789D1*
X2272744Y2865591D1*
X2274646Y2869438D1*
X2290844Y2899991D2*
X2311846D1*
X2300394Y2884692D1*
X2306142D1*
X2309945Y2882791D1*
X2311846Y2880890D1*
X2313792Y2875142D1*
Y2871339D1*
X2311846Y2865591D1*
X2308044Y2861744D1*
X2302296Y2859843D1*
X2296548D1*
X2290844Y2861744D1*
X2288942Y2863690D1*
X2286997Y2867492D1*
X2402425Y2582975D2*
X2400523Y2586778D1*
X2396677Y2590625D1*
X2392874Y2592526D1*
X2385225D1*
X2381378Y2590625D1*
X2377575Y2586778D1*
X2375630Y2582975D1*
X2373729Y2577227D1*
Y2567633D1*
X2375630Y2561929D1*
X2377575Y2558082D1*
X2381378Y2554279D1*
X2385225Y2552334D1*
X2392874D1*
X2396677Y2554279D1*
X2400523Y2558082D1*
X2402425Y2561929D1*
X2433921Y2552334D2*
Y2592482D1*
X2414776Y2565731D1*
X2443472D1*
X2354745Y2746658D2*
X2352844Y2750461D1*
X2348997Y2754308D1*
X2345195Y2756209D1*
X2337545D1*
X2333699Y2754308D1*
X2329896Y2750461D1*
X2327951Y2746658D1*
X2326049Y2740910D1*
Y2731316D1*
X2327951Y2725612D1*
X2329896Y2721765D1*
X2333699Y2717962D1*
X2337545Y2716017D1*
X2345195D1*
X2348997Y2717962D1*
X2352844Y2721765D1*
X2354745Y2725612D1*
X2390045Y2756165D2*
X2370943D1*
X2369042Y2738965D1*
X2370943Y2740866D1*
X2376691Y2742812D1*
X2382395D1*
X2388143Y2740866D1*
X2391990Y2737064D1*
X2393891Y2731316D1*
Y2727513D1*
X2391990Y2721765D1*
X2388143Y2717918D1*
X2382395Y2716017D1*
X2376691D1*
X2370943Y2717918D1*
X2369042Y2719864D1*
X2367097Y2723666D1*
X2923890Y3837525D2*
Y3797333D1*
X2937287D1*
X2943035Y3799279D1*
X2946882Y3803081D1*
X2948783Y3806928D1*
X2950685Y3812632D1*
Y3822227D1*
X2948783Y3827975D1*
X2946882Y3831777D1*
X2943035Y3835624D1*
X2937287Y3837525D1*
X2923890D1*
X2963036Y3829832D2*
X2966883Y3831777D1*
X2972631Y3837481D1*
Y3797333D1*
X527744Y3564932D2*
X502851D1*
Y3524740D1*
Y3545787D2*
X518150D1*
X540096Y3557238D2*
X543943Y3559184D1*
X549691Y3564888D1*
Y3524740D1*
X1010366Y3113998D2*
Y3138892D1*
X970174Y3138891D1*
X991220D2*
X991221Y3123593D1*
X1000772Y3099701D2*
X1002673D1*
X1006520Y3097800D1*
X1008421Y3095899D1*
X1010323Y3092052D1*
Y3084403D1*
X1008422Y3080600D1*
X1006520Y3078699D1*
X1002674Y3076753D1*
X998871D1*
X995024Y3078699D1*
X989320Y3082501D1*
X970175Y3101646D1*
Y3074851D1*
X1034295Y2857459D2*
Y2882352D1*
X994103Y2882351D1*
X1015149Y2882352D2*
X1015150Y2867053D1*
X1034252Y2841261D2*
Y2820258D1*
X1018953Y2831710D1*
Y2825962D1*
X1017052Y2822159D1*
X1015151Y2820258D1*
X1009403Y2818312D1*
X1005600D1*
X999852Y2820257D1*
X996005Y2824060D1*
X994104Y2829808D1*
Y2835556D1*
X996005Y2841260D1*
X997950Y2843161D1*
X1001753Y2845107D1*
X758172Y3252473D2*
X727575Y3252469D1*
X721827Y3254370D1*
X719925Y3256315D1*
X717979Y3260118D1*
Y3263964D1*
X719924Y3267767D1*
X721825Y3269669D1*
X727573Y3271615D1*
X731375D1*
X750480Y3240121D2*
X752426Y3236274D1*
X758130Y3230527D1*
X717982Y3230522D1*
X758087Y3014790D2*
X727490D1*
X721742Y3016691D1*
X719840Y3018636D1*
X717895Y3022439D1*
Y3026286D1*
X719840Y3030088D1*
X721742Y3031989D1*
X727490Y3033935D1*
X731292D1*
X748492Y3000493D2*
X750393D1*
X754240Y2998591D1*
X756141Y2996690D1*
X758043Y2992843D1*
Y2985194D1*
X756141Y2981392D1*
X754240Y2979490D1*
X750393Y2977545D1*
X746591D1*
X742744Y2979490D1*
X737040Y2983293D1*
X717895Y3002438D1*
Y2975644D1*
X758108Y2768052D2*
X727511Y2768048D1*
X721763Y2769949D1*
X719861Y2771894D1*
X717915Y2775697D1*
Y2779543D1*
X719860Y2783346D1*
X721761Y2785248D1*
X727509Y2787194D1*
X731311D1*
X758066Y2751854D2*
X758068Y2730851D1*
X742768Y2742301D1*
X742769Y2736553D1*
X740868Y2732751D1*
X738967Y2730849D1*
X733219Y2728903D1*
X729416D1*
X723668Y2730847D1*
X719821Y2734650D1*
X717919Y2740397D1*
X717918Y2746145D1*
X719819Y2751849D1*
X721764Y2753751D1*
X725567Y2755697D1*
X3530494Y3254509D2*
X3561091D1*
X3566839Y3252608D1*
X3568741Y3250662D1*
X3570686Y3246860D1*
Y3243013D1*
X3568741Y3239210D1*
X3566839Y3237309D1*
X3561091Y3235363D1*
X3557289D1*
X3570686Y3286006D2*
X3530538D1*
X3557289Y3266860D1*
Y3295556D1*
X3530706Y3008698D2*
X3561303D1*
X3567051Y3006797D1*
X3568952Y3004852D1*
X3570898Y3001049D1*
Y2997202D1*
X3568952Y2993400D1*
X3567051Y2991498D1*
X3561303Y2989553D1*
X3557500D1*
X3530750Y3043998D2*
Y3024896D1*
X3547950Y3022995D1*
X3546048Y3024896D1*
X3544103Y3030645D1*
Y3036348D1*
X3546048Y3042096D1*
X3549851Y3045943D1*
X3555599Y3047844D1*
X3559401D1*
X3565150Y3045943D1*
X3568996Y3042096D1*
X3570898Y3036348D1*
Y3030645D1*
X3568996Y3024896D1*
X3567051Y3022995D1*
X3563248Y3021050D1*
X3530304Y2762902D2*
X3560901D1*
X3566649Y2761001D1*
X3568550Y2759055D1*
X3570496Y2755253D1*
Y2751406D1*
X3568550Y2747603D1*
X3566649Y2745702D1*
X3560901Y2743757D1*
X3557099D1*
X3536052Y2798201D2*
X3532249Y2796300D1*
X3530348Y2790552D1*
Y2786750D1*
X3532249Y2781001D1*
X3537997Y2777155D1*
X3547548Y2775253D1*
X3557099D1*
X3564748Y2777155D1*
X3568595Y2781001D1*
X3570496Y2786750D1*
Y2788651D1*
X3568595Y2794355D1*
X3564748Y2798201D1*
X3559000Y2800103D1*
X3557099D1*
X3551351Y2798201D1*
X3547548Y2794355D1*
X3545647Y2788651D1*
Y2786750D1*
X3547548Y2781001D1*
X3551351Y2777155D1*
X3557099Y2775253D1*
X757776Y2521199D2*
X727179D1*
X721431Y2523100D1*
X719529Y2525046D1*
X717584Y2528848D1*
Y2532695D1*
X719529Y2536498D1*
X721431Y2538399D1*
X727179Y2540344D1*
X730981D1*
X717584Y2501198D2*
X757732Y2482053D1*
Y2508848D1*
X758567Y2275047D2*
X727970D1*
X722222Y2276948D1*
X720321Y2278894D1*
X718375Y2282696D1*
Y2286543D1*
X720321Y2290346D1*
X722222Y2292247D1*
X727970Y2294192D1*
X731773D1*
X758523Y2253145D2*
X756622Y2258849D1*
X752819Y2260794D1*
X748972D1*
X745170Y2258849D1*
X743224Y2255046D1*
X741323Y2247397D1*
X739422Y2241649D1*
X735575Y2237846D1*
X731773Y2235945D1*
X726024D1*
X722222Y2237846D1*
X720276Y2239748D1*
X718375Y2245496D1*
Y2253145D1*
X720276Y2258849D1*
X722222Y2260794D1*
X726024Y2262696D1*
X731773D1*
X735575Y2260794D1*
X739422Y2256948D1*
X741323Y2251244D1*
X743224Y2243594D1*
X745170Y2239748D1*
X748972Y2237846D1*
X752819D1*
X756622Y2239748D1*
X758523Y2245496D1*
Y2253145D1*
X758376Y2026718D2*
X727778D1*
X722030Y2028619D1*
X720129Y2030565D1*
X718184Y2034368D1*
Y2038214D1*
X720129Y2042017D1*
X722030Y2043918D1*
X727778Y2045864D1*
X731581D1*
X744978Y1989473D2*
X739230Y1991419D1*
X735383Y1995221D1*
X733482Y2000969D1*
Y2002871D1*
X735383Y2008619D1*
X739230Y2012421D1*
X744978Y2014367D1*
X746880D1*
X752628Y2012421D1*
X756430Y2008619D1*
X758331Y2002871D1*
Y2000969D1*
X756430Y1995221D1*
X752628Y1991419D1*
X744978Y1989473D1*
X735383D1*
X725833Y1991419D1*
X720085Y1995221D1*
X718184Y2000969D1*
Y2004772D1*
X720085Y2010520D1*
X723932Y2012421D1*
X1423248Y3438763D2*
Y3408166D1*
X1421346Y3402418D1*
X1419401Y3400517D1*
X1415598Y3398571D1*
X1411751D1*
X1407949Y3400517D1*
X1406048Y3402418D1*
X1404102Y3408166D1*
Y3411969D1*
X1435599Y3431070D2*
X1439446Y3433015D1*
X1445194Y3438719D1*
Y3398571D1*
X1469041Y3438719D2*
X1463293Y3436818D1*
X1459446Y3431070D1*
X1457545Y3421519D1*
Y3415771D1*
X1459446Y3406221D1*
X1463293Y3400473D1*
X1469041Y3398571D1*
X1472844D1*
X1478592Y3400473D1*
X1482394Y3406221D1*
X1484340Y3415771D1*
Y3421519D1*
X1482394Y3431070D1*
X1478592Y3436818D1*
X1472844Y3438719D1*
X1469041D1*
X1482394Y3431070D2*
X1459446Y3406221D1*
X2165907Y1689359D2*
Y1658761D1*
X2164005Y1653013D1*
X2162060Y1651112D1*
X2158257Y1649167D1*
X2154410D1*
X2150608Y1651112D1*
X2148707Y1653013D1*
X2146761Y1658761D1*
Y1662564D1*
X2178258Y1681665D2*
X2182105Y1683610D1*
X2187853Y1689314D1*
Y1649167D1*
X2200204Y1681665D2*
X2204051Y1683610D1*
X2209799Y1689314D1*
Y1649167D1*
X903341Y1210227D2*
X872744D1*
X866996Y1212129D1*
X865095Y1214074D1*
X863149Y1217877D1*
Y1221723D1*
X865095Y1225526D1*
X866996Y1227427D1*
X872744Y1229373D1*
X876547D1*
X895648Y1197876D2*
X897593Y1194029D1*
X903297Y1188281D1*
X863149D1*
X893747Y1173984D2*
X895648D1*
X899495Y1172083D1*
X901396Y1170182D1*
X903297Y1166335D1*
Y1158686D1*
X901396Y1154883D1*
X899495Y1152982D1*
X895648Y1151036D1*
X891845D1*
X887999Y1152982D1*
X882295Y1156784D1*
X863149Y1175930D1*
Y1149135D1*
X3045477Y1261050D2*
Y1230453D1*
X3043576Y1224705D1*
X3041630Y1222804D1*
X3037828Y1220858D1*
X3033981D1*
X3030179Y1222804D1*
X3028277Y1224705D1*
X3026332Y1230453D1*
Y1234256D1*
X3057829Y1253357D2*
X3061675Y1255302D1*
X3067423Y1261006D1*
Y1220858D1*
X3083622Y1261006D2*
X3104624D1*
X3093172Y1245708D1*
X3098920D1*
X3102723Y1243806D1*
X3104624Y1241905D1*
X3106569Y1236157D1*
Y1232354D1*
X3104624Y1226606D1*
X3100821Y1222760D1*
X3095073Y1220858D1*
X3089325D1*
X3083622Y1222760D1*
X3081720Y1224705D1*
X3079775Y1228508D1*
X3511823Y2654126D2*
Y2623528D1*
X3509922Y2617780D1*
X3507976Y2615879D1*
X3504174Y2613934D1*
X3500327D1*
X3496525Y2615879D1*
X3494623Y2617780D1*
X3492678Y2623528D1*
Y2627331D1*
X3524175Y2646432D2*
X3528021Y2648378D1*
X3533769Y2654081D1*
Y2613934D1*
X3565266D2*
Y2654081D1*
X3546121Y2627331D1*
X3574817D1*
X3712324Y457756D2*
Y427158D1*
X3710422Y421410D1*
X3708477Y419509D1*
X3704674Y417564D1*
X3700828D1*
X3697025Y419509D1*
X3695124Y421410D1*
X3693178Y427158D1*
Y430961D1*
X3724675Y450062D2*
X3728522Y452008D1*
X3734270Y457711D1*
Y417564D1*
X3769569Y457711D2*
X3750468D1*
X3748567Y440512D1*
X3750468Y442413D1*
X3756216Y444358D1*
X3761920D1*
X3767668Y442413D1*
X3771515Y438610D1*
X3773416Y432862D1*
Y429060D1*
X3771515Y423312D1*
X3767668Y419465D1*
X3761920Y417564D1*
X3756216D1*
X3750468Y419465D1*
X3748567Y421410D1*
X3746621Y425213D1*
X2099879Y3018920D2*
Y2988323D1*
X2097978Y2982575D1*
X2096032Y2980674D1*
X2092230Y2978728D1*
X2088383D1*
X2084580Y2980674D1*
X2082679Y2982575D1*
X2080734Y2988323D1*
Y2992126D1*
X2112230Y3011227D2*
X2116077Y3013172D1*
X2121825Y3018876D1*
Y2978728D1*
X2157125Y3013172D2*
X2155223Y3016975D1*
X2149475Y3018876D1*
X2145673D1*
X2139925Y3016975D1*
X2136078Y3011227D1*
X2134177Y3001676D1*
Y2992126D1*
X2136078Y2984476D1*
X2139925Y2980629D1*
X2145673Y2978728D1*
X2147574D1*
X2153278Y2980629D1*
X2157125Y2984476D1*
X2159026Y2990224D1*
Y2992126D1*
X2157125Y2997874D1*
X2153278Y3001676D1*
X2147574Y3003577D1*
X2145673D1*
X2139925Y3001676D1*
X2136078Y2997874D1*
X2134177Y2992126D1*
X3375023Y3990955D2*
Y3950763D1*
X3397971D1*
X3410323Y3983262D2*
X3414169Y3985207D1*
X3419917Y3990911D1*
Y3950763D1*
X1815455Y3431837D2*
Y3391645D1*
X1838403D1*
X1875603Y3431837D2*
X1850754D1*
Y3391645D1*
X1875603D1*
X1850754Y3412692D2*
X1866053D1*
X1887955Y3431837D2*
Y3391645D1*
X1901352D1*
X1907100Y3393590D1*
X1910947Y3397393D1*
X1912848Y3401240D1*
X1914750Y3406944D1*
Y3416538D1*
X1912848Y3422286D1*
X1910947Y3426089D1*
X1907100Y3429936D1*
X1901352Y3431837D1*
X1887955D1*
X1927101Y3424143D2*
X1930948Y3426089D1*
X1936696Y3431793D1*
Y3391645D1*
X1806775Y2994148D2*
Y2953956D1*
X1829723D1*
X1866923Y2994148D2*
X1842074D1*
Y2953956D1*
X1866923D1*
X1842074Y2975003D2*
X1857373D1*
X1879275Y2994148D2*
Y2953956D1*
X1892672D1*
X1898420Y2955901D1*
X1902267Y2959704D1*
X1904168Y2963551D1*
X1906070Y2969255D1*
Y2978849D1*
X1904168Y2984597D1*
X1902267Y2988400D1*
X1898420Y2992247D1*
X1892672Y2994148D1*
X1879275D1*
X1920366Y2984553D2*
Y2986454D1*
X1922268Y2990301D1*
X1924169Y2992203D1*
X1928016Y2994104D1*
X1935665D1*
X1939468Y2992203D1*
X1941369Y2990301D1*
X1943314Y2986454D1*
Y2982652D1*
X1941369Y2978805D1*
X1937566Y2973101D1*
X1918421Y2953956D1*
X1945216D1*
X1810524Y2587585D2*
Y2547393D1*
X1833472D1*
X1870673Y2587585D2*
X1845824D1*
Y2547393D1*
X1870673D1*
X1845824Y2568440D2*
X1861122D1*
X1883024Y2587585D2*
Y2547393D1*
X1896422D1*
X1902170Y2549339D1*
X1906016Y2553141D1*
X1907918Y2556988D1*
X1909819Y2562692D1*
Y2572286D1*
X1907918Y2578034D1*
X1906016Y2581837D1*
X1902170Y2585684D1*
X1896422Y2587585D1*
X1883024D1*
X1926017Y2587541D2*
X1947019D1*
X1935568Y2572242D1*
X1941316D1*
X1945118Y2570341D1*
X1947019Y2568440D1*
X1948965Y2562692D1*
Y2558889D1*
X1947019Y2553141D1*
X1943217Y2549294D1*
X1937469Y2547393D1*
X1931721D1*
X1926017Y2549294D1*
X1924116Y2551240D1*
X1922170Y2555042D1*
X1156629Y1946725D2*
X1160476Y1948671D1*
X1166224Y1954375D1*
Y1914227D1*
X2154171Y2187506D2*
X2171415D1*
X2177119Y2189407D1*
X2179064Y2191353D1*
X2180965Y2195155D1*
Y2200903D1*
X2179064Y2204706D1*
X2177119Y2206651D1*
X2171415Y2208553D1*
X2154171D1*
Y2168361D1*
X2193317Y2200859D2*
X2197164Y2202805D1*
X2202912Y2208509D1*
Y2168361D1*
X1707194Y3211947D2*
X1705337Y3215749D1*
X1701491Y3219596D1*
X1697644Y3221497D1*
X1691896Y3223443D1*
X1682345D1*
X1676597Y3221497D1*
X1672795Y3219596D1*
X1668948Y3215749D1*
X1667047Y3211947D1*
Y3204297D1*
X1668948Y3200451D1*
X1672795Y3196648D1*
X1676597Y3194747D1*
X1682345Y3192801D1*
X1691896D1*
X1697644Y3194747D1*
X1701491Y3196648D1*
X1705337Y3200451D1*
X1707194Y3204297D1*
Y3211947D1*
X1674696Y3206199D2*
X1663200Y3194747D1*
X1699501Y3180450D2*
X1701446Y3176603D1*
X1707150Y3170855D1*
X1667002D1*
X1706964Y2850527D2*
X1705106Y2854329D1*
X1701260Y2858176D1*
X1697413Y2860077D1*
X1691665Y2862023D1*
X1682114D1*
X1676366Y2860077D1*
X1672564Y2858176D1*
X1668717Y2854329D1*
X1666816Y2850527D1*
Y2842878D1*
X1668717Y2839031D1*
X1672564Y2835228D1*
X1676366Y2833327D1*
X1682114Y2831381D1*
X1691665D1*
X1697413Y2833327D1*
X1701260Y2835228D1*
X1705106Y2839031D1*
X1706964Y2842878D1*
Y2850527D1*
X1674465Y2844779D2*
X1662969Y2833327D1*
X1697369Y2817085D2*
X1699270D1*
X1703117Y2815183D1*
X1705018Y2813282D1*
X1706919Y2809435D1*
Y2801786D1*
X1705018Y2797983D1*
X1703117Y2796082D1*
X1699270Y2794137D1*
X1695467D1*
X1691621Y2796082D1*
X1685917Y2799885D1*
X1666771Y2819030D1*
Y2792235D1*
X1707714Y2474717D2*
X1705857Y2478520D1*
X1702010Y2482366D1*
X1698164Y2484268D1*
X1692416Y2486213D1*
X1682865D1*
X1677117Y2484268D1*
X1673314Y2482366D1*
X1669468Y2478520D1*
X1667566Y2474717D1*
Y2467068D1*
X1669468Y2463221D1*
X1673314Y2459419D1*
X1677117Y2457517D1*
X1682865Y2455572D1*
X1692416D1*
X1698164Y2457517D1*
X1702010Y2459419D1*
X1705857Y2463221D1*
X1707714Y2467068D1*
Y2474717D1*
X1675216Y2468969D2*
X1663720Y2457517D1*
X1707670Y2439374D2*
Y2418371D1*
X1692371Y2429823D1*
Y2424075D1*
X1690470Y2420272D1*
X1688569Y2418371D1*
X1682821Y2416426D1*
X1679018D1*
X1673270Y2418371D1*
X1669423Y2422174D1*
X1667522Y2427922D1*
Y2433670D1*
X1669423Y2439374D1*
X1671369Y2441275D1*
X1675171Y2443220D1*
X1835737Y3276047D2*
X1852937Y3276049D1*
X1858684Y3277995D1*
X1860630Y3279897D1*
X1862531Y3283699D1*
X1862530Y3287546D1*
X1860629Y3291349D1*
X1858683Y3293294D1*
X1852935Y3295195D1*
X1835735Y3295193D1*
X1835739Y3255001D1*
X1849134Y3276049D2*
X1862534Y3255004D1*
X1874882Y3287503D2*
X1878728Y3289449D1*
X1884476Y3295154D1*
X1884480Y3255006D1*
X1823669Y2807961D2*
X1840869D1*
X1846617Y2809906D1*
X1848563Y2811807D1*
X1850464Y2815610D1*
Y2819457D1*
X1848563Y2823259D1*
X1846617Y2825205D1*
X1840869Y2827106D1*
X1823669D1*
Y2786914D1*
X1837067Y2807961D2*
X1850464Y2786914D1*
X1864761Y2817511D2*
Y2819412D1*
X1866662Y2823259D1*
X1868563Y2825161D1*
X1872410Y2827062D1*
X1880059D1*
X1883862Y2825161D1*
X1885763Y2823259D1*
X1887709Y2819412D1*
Y2815610D1*
X1885763Y2811763D1*
X1881961Y2806059D1*
X1862815Y2786914D1*
X1889610D1*
X1827930Y2405289D2*
X1845130D1*
X1850878Y2407235D1*
X1852824Y2409136D1*
X1854725Y2412939D1*
Y2416785D1*
X1852824Y2420588D1*
X1850878Y2422533D1*
X1845130Y2424435D1*
X1827930D1*
Y2384243D1*
X1841328Y2405289D2*
X1854725Y2384243D1*
X1870923Y2424390D2*
X1891926D1*
X1880474Y2409092D1*
X1886222D1*
X1890024Y2407191D1*
X1891926Y2405289D1*
X1893871Y2399541D1*
Y2395739D1*
X1891926Y2389991D1*
X1888123Y2386144D1*
X1882375Y2384243D1*
X1876627D1*
X1870923Y2386144D1*
X1869022Y2388089D1*
X1867076Y2391892D1*
X1134347Y3231306D2*
X1134349Y3214106D1*
X1136295Y3208359D1*
X1138196Y3206413D1*
X1141999Y3204512D1*
X1145846Y3204513D1*
X1149648Y3206415D1*
X1151593Y3208360D1*
X1153494Y3214108D1*
X1153492Y3231308D1*
X1113300Y3231304D1*
X1134348Y3217909D2*
X1113303Y3204509D1*
X1113306Y3173013D2*
X1153454Y3173017D1*
X1126702Y3192159D1*
X1126705Y3163464D1*
X1134190Y2860291D2*
Y2843091D1*
X1136136Y2837343D1*
X1138037Y2835398D1*
X1141840Y2833496D1*
X1145686D1*
X1149489Y2835398D1*
X1151434Y2837343D1*
X1153336Y2843091D1*
Y2860291D1*
X1113144D1*
X1134190Y2846894D2*
X1113144Y2833496D1*
X1153291Y2798197D2*
Y2817298D1*
X1136092Y2819200D1*
X1137993Y2817298D1*
X1139938Y2811550D1*
Y2805846D1*
X1137993Y2800098D1*
X1134190Y2796252D1*
X1128442Y2794350D1*
X1124640D1*
X1118892Y2796252D1*
X1115045Y2800098D1*
X1113144Y2805846D1*
Y2811550D1*
X1115045Y2817298D1*
X1116990Y2819200D1*
X1120793Y2821145D1*
X1134180Y2483139D2*
Y2465939D1*
X1136125Y2460191D1*
X1138027Y2458245D1*
X1141829Y2456344D1*
X1145676D1*
X1149478Y2458245D1*
X1151424Y2460191D1*
X1153325Y2465939D1*
Y2483139D1*
X1113133D1*
X1134180Y2469741D2*
X1113133Y2456344D1*
X1147577Y2421045D2*
X1151380Y2422946D1*
X1153281Y2428694D1*
Y2432496D1*
X1151380Y2438244D1*
X1145632Y2442091D1*
X1136081Y2443993D1*
X1126531D1*
X1118881Y2442091D1*
X1115034Y2438244D1*
X1113133Y2432496D1*
Y2430595D1*
X1115034Y2424891D1*
X1118881Y2421045D1*
X1124629Y2419143D1*
X1126531D1*
X1132279Y2421045D1*
X1136081Y2424891D1*
X1137982Y2430595D1*
Y2432496D1*
X1136081Y2438244D1*
X1132279Y2442091D1*
X1126531Y2443993D1*
X914375Y3401962D2*
X910572Y3405809D1*
X904824Y3407710D1*
X897175D1*
X891427Y3405809D1*
X887580Y3401962D1*
Y3398160D1*
X889526Y3394313D1*
X891427Y3392412D1*
X895230Y3390511D1*
X906726Y3386664D1*
X910572Y3384763D1*
X912474Y3382817D1*
X914375Y3379015D1*
Y3373267D1*
X910572Y3369464D1*
X904824Y3367518D1*
X897175D1*
X891427Y3369464D1*
X887580Y3373267D1*
X926726Y3400017D2*
X930573Y3401962D1*
X936321Y3407666D1*
Y3367518D1*
X3086375Y2538924D2*
X3082572Y2542771D1*
X3076824Y2544672D1*
X3069175D1*
X3063427Y2542771D1*
X3059580Y2538924D1*
Y2535122D1*
X3061526Y2531275D1*
X3063427Y2529374D1*
X3067229Y2527472D1*
X3078725Y2523626D1*
X3082572Y2521724D1*
X3084473Y2519779D1*
X3086375Y2515976D1*
Y2510228D1*
X3082572Y2506426D1*
X3076824Y2504480D1*
X3069175D1*
X3063427Y2506426D1*
X3059580Y2510228D1*
X3100672Y2535077D2*
Y2536979D1*
X3102573Y2540825D1*
X3104474Y2542727D1*
X3108321Y2544628D1*
X3115970D1*
X3119773Y2542727D1*
X3121674Y2540825D1*
X3123619Y2536979D1*
Y2533176D1*
X3121674Y2529329D1*
X3117871Y2523626D1*
X3098726Y2504480D1*
X3125521D1*
X1679658Y3576980D2*
X1683505Y3578925D1*
X1689253Y3584629D1*
X1689252Y3544481D1*
X1703550Y3575078D2*
Y3576979D1*
X1705451Y3580826D1*
X1707352Y3582727D1*
X1711199Y3584628D1*
X1718849D1*
X1722651Y3582727D1*
X1724552Y3580825D1*
X1726498Y3576979D1*
Y3573176D1*
X1724552Y3569329D1*
X1720749Y3563626D1*
X1701603Y3544481D1*
X1728398Y3544480D1*
X1740751Y3584672D2*
X1756048Y3544479D1*
X1771348Y3584671D1*
X3292900Y3226909D2*
X3273798Y3226910D1*
X3271897Y3209710D1*
X3273798Y3211611D1*
X3279546Y3213556D1*
X3285250D1*
X3290998Y3211611D1*
X3294845Y3207808D1*
X3296746Y3202060D1*
Y3198257D1*
X3294844Y3192509D1*
X3290997Y3188663D1*
X3285249Y3186762D1*
X3279545D1*
X3273797Y3188663D1*
X3271896Y3190609D1*
X3269951Y3194411D1*
X3309098Y3226953D2*
X3324395Y3186760D1*
X3339695Y3226952D1*
X3253836Y2796519D2*
X3274838Y2796518D1*
X3263386Y2781220D1*
X3269134D1*
X3272936Y2779319D1*
X3274837Y2777417D1*
X3276783Y2771669D1*
Y2767867D1*
X3274837Y2762119D1*
X3271034Y2758272D1*
X3265286Y2756371D1*
X3259538D1*
X3253835Y2758273D1*
X3251933Y2760218D1*
X3249988Y2764021D1*
X3289135Y2796562D2*
X3304432Y2756370D1*
X3319732Y2796562D1*
X3335930Y2796517D2*
X3356933Y2796516D1*
X3345480Y2781218D1*
X3351228D1*
X3355031Y2779316D1*
X3356932Y2777415D1*
X3358878Y2771667D1*
X3358877Y2767865D1*
X3356932Y2762117D1*
X3353129Y2758270D1*
X3347381Y2756369D1*
X3341633D1*
X3335929Y2758270D1*
X3334028Y2760216D1*
X3332083Y2764018D1*
X3280255Y3002862D2*
X3278353Y3006665D1*
X3274507Y3010512D1*
X3270704Y3012413D1*
X3263055D1*
X3259208Y3010512D1*
X3255405Y3006666D1*
X3253460Y3002863D1*
X3251558Y2997115D1*
Y2987520D1*
X3253459Y2981816D1*
X3255405Y2977970D1*
X3259207Y2974167D1*
X3263054Y2972221D1*
X3270703D1*
X3274506Y2974167D1*
X3278353Y2977969D1*
X3280254Y2981816D1*
Y2987520D1*
X3270704D1*
X3319401Y3012412D2*
X3319400Y2972220D1*
X3292606Y3012413D1*
X3292605Y2972221D1*
X3331752Y3012412D2*
X3331751Y2972220D1*
X3345149Y2972219D1*
X3350897Y2974165D1*
X3354743Y2977967D1*
X3356645Y2981814D1*
X3358546Y2987518D1*
X3358547Y2997112D1*
X3356645Y3002860D1*
X3354744Y3006663D1*
X3350898Y3010510D1*
X3345150Y3012411D1*
X3331752Y3012412D1*
X2448157Y3054375D2*
X2448161Y3025679D1*
X2450063Y3019931D1*
X2453910Y3016129D1*
X2459658Y3014185D1*
X2463461D1*
X2469209Y3016131D1*
X2473055Y3019935D1*
X2474955Y3025683D1*
X2474951Y3054379D1*
X2487304Y3046687D2*
X2491150Y3048633D1*
X2496897Y3054338D1*
X2496903Y3014190D1*
X2641919Y2938411D2*
Y2909715D1*
X2643820Y2903967D1*
X2647667Y2900164D1*
X2653415Y2898219D1*
X2657217D1*
X2662965Y2900164D1*
X2666812Y2903967D1*
X2668713Y2909715D1*
Y2938411D1*
X2683010Y2928816D2*
Y2930717D1*
X2684911Y2934564D1*
X2686813Y2936466D1*
X2690659Y2938367D1*
X2698309D1*
X2702111Y2936466D1*
X2704013Y2934564D1*
X2705958Y2930717D1*
Y2926915D1*
X2704013Y2923068D1*
X2700210Y2917364D1*
X2681065Y2898219D1*
X2707859D1*
M02*
