G04 DipTrace 4.3.0.5*
G04 2 - Ground Plane.gbr*
%MOIN*%
G04 #@! TF.FileFunction,Copper,L2,Inr*
G04 #@! TF.Part,Single*
%ADD24C,0.047244*%
%ADD36C,0.074803*%
%ADD41C,0.070866*%
%ADD45C,0.055039*%
%ADD48C,0.063386*%
%ADD51C,0.057087*%
%ADD55C,0.064961*%
%ADD56C,0.2*%
%ADD64C,0.109252*%
G04 #@! TA.AperFunction,CopperBalancing*
%ADD15C,0.013*%
G04 #@! TA.AperFunction,ViaPad*
%ADD16C,0.04*%
G04 #@! TA.AperFunction,CopperBalancing*
%ADD18C,0.025*%
G04 #@! TA.AperFunction,ViaPad*
%ADD19C,0.1*%
%ADD20C,0.05*%
%ADD69C,0.06*%
%ADD70C,0.08*%
%ADD71C,0.16*%
%FSLAX26Y26*%
G04*
G70*
G90*
G75*
G01*
G04 Inner1_Plane*
%LPD*%
D16*
X746331Y1767481D3*
Y2316490D3*
X2770180Y2785911D3*
X2330321Y3505511D3*
X2823451Y2783661D3*
X2771821Y2710842D3*
X2822100Y2704762D3*
X1432210Y3254721D3*
X2612081Y3505951D3*
X2257491Y3439201D3*
X1513591Y3255210D3*
X2402371Y3437851D3*
X2259150Y3702431D3*
X1592890Y3252991D3*
X1515071Y3150842D3*
X2683581Y3568371D3*
X1795361Y3493091D3*
X1590671Y3151941D3*
X2613221Y3636371D3*
X2470411Y3638182D3*
X2470911Y3509102D3*
X1436520Y3149361D3*
X2401871Y3703331D3*
X1433031Y2881411D3*
X2542641Y3704541D3*
X1517081Y2881661D3*
X1596201Y2882321D3*
X2331680Y3636791D3*
X2258260Y3570671D3*
X1430180Y2774522D3*
X2403081Y3570661D3*
X2685031Y3700892D3*
X1514271Y2775241D3*
X2540210Y3571071D3*
X1596201Y2775231D3*
X1427411Y2509401D3*
X2685840Y3439632D3*
X1513611Y2507491D3*
X2329661Y3371481D3*
X1597890Y2510762D3*
X2470420Y3371481D3*
X1431301Y2397721D3*
X2611600Y3373911D3*
X2541020Y3438411D3*
X1514271Y2396420D3*
X1597241Y2399031D3*
X2326401Y1751972D3*
X2082481Y1748651D3*
D69*
X2452011Y2856381D3*
D16*
X1703001Y2708491D3*
X1763271Y2819451D3*
X2468661Y2929920D3*
X3264230Y3286431D3*
X3291430Y2809050D3*
X2348630Y2641511D3*
D19*
X2821001Y3224661D3*
D70*
X1255141Y3026481D3*
D20*
X1148161Y2362241D3*
X1147050Y2737052D3*
D16*
X1667046Y3401742D3*
X2661851Y3135151D3*
D20*
X2418230Y3028661D3*
D16*
X2349260Y2701361D3*
X1823106Y2433970D3*
X1819357Y2965592D3*
D19*
X2827671Y3340411D3*
D69*
X2875301Y2736941D3*
D16*
X2476781Y2739241D3*
X2329611Y2761381D3*
X2472298Y2675431D3*
X1780129Y2338340D3*
X1986571Y3142420D3*
X2164609Y3296130D3*
X2538100Y3020591D3*
X2570851Y2894552D3*
D71*
X3732531Y3486340D3*
D16*
X1334913Y1624632D3*
X3535653Y1829636D3*
X2425393D3*
X2875172Y1582962D3*
X1735672Y1170336D3*
X1141501Y3051951D3*
X1079221Y2748700D3*
X916001Y2400871D3*
X1975172Y1270423D3*
X3051420Y1666511D3*
X3305571Y2366171D3*
X3348221Y2313091D3*
X2283641Y1796661D3*
X2030781Y1819472D3*
X1475172Y1309923D3*
X1145451Y1479641D3*
X1046428Y1622462D3*
X1228149D3*
X2006730Y3486751D3*
X3217350Y2663661D3*
D20*
X849581Y2843741D3*
D70*
X586121Y3585301D3*
D20*
X979730Y3028920D3*
D19*
X3130550Y2954871D3*
D16*
X2338493Y3208554D3*
X3098910Y3155161D3*
X635587Y4020445D2*
D18*
X749740D1*
X901471D2*
X949741D1*
X1101453D2*
X3659966D1*
X647877Y3995577D2*
X742976D1*
X908217D2*
X942977D1*
X1108218D2*
X3647693D1*
X654121Y3970708D2*
X744232D1*
X906961D2*
X944233D1*
X1106962D2*
X3641450D1*
X655234Y3945839D2*
X753939D1*
X897254D2*
X953939D1*
X1097255D2*
X3640319D1*
X651394Y3920970D2*
X777174D1*
X874019D2*
X977174D1*
X1074020D2*
X3644177D1*
X642028Y3896102D2*
X3653525D1*
X625593Y3871233D2*
X3669960D1*
X434600Y3846364D2*
X456890D1*
X597101D2*
X3698470D1*
X3838681D2*
X3852574D1*
X434600Y3821495D2*
X3852574D1*
X434600Y3796627D2*
X3852574D1*
X434600Y3771758D2*
X1914182D1*
X1997966D2*
X3852574D1*
X434600Y3746889D2*
X1240690D1*
X1281789D2*
X1904296D1*
X2007852D2*
X2245106D1*
X2273198D2*
X2384785D1*
X2418959D2*
X2522347D1*
X2562927D2*
X3852574D1*
X434618Y3722020D2*
X1207515D1*
X1314982D2*
X1908082D1*
X2004048D2*
X2215107D1*
X2303197D2*
X2357406D1*
X2446339D2*
X2497659D1*
X2587615D2*
X2641752D1*
X2728317D2*
X3852574D1*
X434618Y3697151D2*
X1198024D1*
X1324456D2*
X1931837D1*
X1980311D2*
X2211016D1*
X2307288D2*
X2353853D1*
X2449891D2*
X2494806D1*
X2590468D2*
X2636746D1*
X2733305D2*
X3852574D1*
X434618Y3672283D2*
X1197378D1*
X1325102D2*
X2221997D1*
X2723472D2*
X3852574D1*
X434618Y3647414D2*
X561510D1*
X610737D2*
X1197378D1*
X1325102D2*
X2284489D1*
X2378877D2*
X2422912D1*
X2517910D2*
X2566126D1*
X2660298D2*
X3852574D1*
X434618Y3622545D2*
X529214D1*
X643033D2*
X1197378D1*
X1325102D2*
X2285512D1*
X2377854D2*
X2424724D1*
X2516098D2*
X2566916D1*
X2659527D2*
X3852574D1*
X434618Y3597676D2*
X518862D1*
X653386D2*
X1197503D1*
X1324976D2*
X2218606D1*
X2721445D2*
X3852574D1*
X434618Y3572808D2*
X518879D1*
X653368D2*
X1204555D1*
X1317925D2*
X1351841D1*
X1548588D2*
X2209868D1*
X2306642D2*
X2354697D1*
X2451470D2*
X2491810D1*
X2588620D2*
X2635365D1*
X2731798D2*
X3668829D1*
X3796230D2*
X3852574D1*
X434636Y3547939D2*
X529304D1*
X642943D2*
X685185D1*
X795935D2*
X870222D1*
X980972D2*
X1055258D1*
X1166009D2*
X1229010D1*
X1293470D2*
X1337631D1*
X1562816D2*
X2215843D1*
X2300667D2*
X2310218D1*
X2350420D2*
X2360653D1*
X2582394D2*
X2590958D1*
X2727222D2*
X3643854D1*
X3821206D2*
X3852574D1*
X434636Y3523070D2*
X561833D1*
X610396D2*
X665951D1*
X815169D2*
X850988D1*
X1000206D2*
X1036024D1*
X1185261D2*
X1335657D1*
X1564790D2*
X1758068D1*
X1832665D2*
X2285368D1*
X2375270D2*
X2424653D1*
X2517174D2*
X2566951D1*
X2657212D2*
X2673474D1*
X2693671D2*
X3630666D1*
X3834393D2*
X3852574D1*
X434636Y3498201D2*
X658254D1*
X822867D2*
X843308D1*
X1007903D2*
X1028345D1*
X1192940D2*
X1344521D1*
X1555927D2*
X1747213D1*
X1843502D2*
X2282480D1*
X2378177D2*
X2423792D1*
X2518035D2*
X2564314D1*
X2659850D2*
X3624763D1*
X3840296D2*
X3852574D1*
X434636Y3473333D2*
X658702D1*
X822418D2*
X843739D1*
X1007473D2*
X1028776D1*
X1192510D2*
X1374897D1*
X1525533D2*
X1751394D1*
X1839322D2*
X2224257D1*
X2719543D2*
X3624907D1*
X3840170D2*
X3852574D1*
X434636Y3448464D2*
X667404D1*
X813716D2*
X852441D1*
X998753D2*
X1037478D1*
X1183790D2*
X1781985D1*
X1808731D2*
X2209994D1*
X2304973D2*
X2355181D1*
X2449568D2*
X2493694D1*
X2588333D2*
X2638271D1*
X2733412D2*
X3631097D1*
X3833962D2*
X3852574D1*
X434636Y3423595D2*
X688576D1*
X792544D2*
X873613D1*
X977581D2*
X1058649D1*
X1162636D2*
X2211788D1*
X2303197D2*
X2356204D1*
X2448528D2*
X2495040D1*
X2587005D2*
X2640299D1*
X2731385D2*
X3644679D1*
X3820380D2*
X3852574D1*
X434636Y3398726D2*
X2233282D1*
X2281702D2*
X2290177D1*
X2652763D2*
X2662439D1*
X2709244D2*
X3670480D1*
X3794580D2*
X3852574D1*
X434653Y3373857D2*
X2281295D1*
X2378033D2*
X2422051D1*
X2518789D2*
X2563166D1*
X2660029D2*
X3852574D1*
X434653Y3348989D2*
X508312D1*
X599272D2*
X2287109D1*
X2372202D2*
X2427864D1*
X2512976D2*
X2570522D1*
X2652691D2*
X3852574D1*
X434653Y3324120D2*
X491769D1*
X615815D2*
X2125684D1*
X2203529D2*
X3235474D1*
X3292990D2*
X3852574D1*
X434653Y3299251D2*
X488037D1*
X619547D2*
X1418442D1*
X1445977D2*
X1498033D1*
X1529139D2*
X2116282D1*
X2212930D2*
X3217621D1*
X3310843D2*
X3852574D1*
X434653Y3274382D2*
X494532D1*
X613052D2*
X1388192D1*
X1636038D2*
X2121647D1*
X2207565D2*
X3217406D1*
X3311058D2*
X3705557D1*
X3763665D2*
X3852574D1*
X434653Y3249514D2*
X508904D1*
X598716D2*
X1384065D1*
X1641187D2*
X2315206D1*
X2361778D2*
X3234397D1*
X3294067D2*
X3677836D1*
X3791386D2*
X3852574D1*
X434671Y3224645D2*
X491966D1*
X615635D2*
X1394992D1*
X1631535D2*
X2292976D1*
X2384008D2*
X3669260D1*
X3799962D2*
X3852574D1*
X434671Y3199776D2*
X488019D1*
X619583D2*
X2290912D1*
X2386071D2*
X3085478D1*
X3112331D2*
X3671126D1*
X3798096D2*
X3852574D1*
X434671Y3174907D2*
X494281D1*
X613321D2*
X1395853D1*
X1632952D2*
X1951591D1*
X2021542D2*
X2304728D1*
X2372256D2*
X3054941D1*
X3142887D2*
X3684690D1*
X3784532D2*
X3852574D1*
X434671Y3150039D2*
X515775D1*
X591826D2*
X1388084D1*
X1639070D2*
X1938781D1*
X2034370D2*
X3050760D1*
X3147049D2*
X3852574D1*
X434671Y3125170D2*
X1394974D1*
X1630494D2*
X1941508D1*
X2031643D2*
X3061615D1*
X3136194D2*
X3852574D1*
X434671Y3100301D2*
X505746D1*
X601676D2*
X1965748D1*
X2007404D2*
X3852574D1*
X434671Y3075432D2*
X490872D1*
X616550D2*
X956469D1*
X1002987D2*
X1099521D1*
X1183485D2*
X3852592D1*
X434689Y3050564D2*
X488127D1*
X619296D2*
X931117D1*
X1028339D2*
X1093080D1*
X1189908D2*
X2500799D1*
X2575414D2*
X3852592D1*
X434689Y3025695D2*
X495716D1*
X611706D2*
X926398D1*
X1033058D2*
X1101316D1*
X1181690D2*
X2489944D1*
X2586251D2*
X3100675D1*
X3160434D2*
X3701950D1*
X3767702D2*
X3852592D1*
X434689Y3000826D2*
X506266D1*
X601156D2*
X934741D1*
X1024715D2*
X2494142D1*
X2582071D2*
X3067608D1*
X3193501D2*
X3676921D1*
X3792714D2*
X3852592D1*
X434689Y2975957D2*
X491033D1*
X616389D2*
X2524752D1*
X2551444D2*
X3055102D1*
X3205989D2*
X3669260D1*
X3800393D2*
X3852592D1*
X434689Y2951088D2*
X488091D1*
X619331D2*
X2055602D1*
X2107520D2*
X2155611D1*
X2207512D2*
X2425388D1*
X2511917D2*
X3052213D1*
X3208896D2*
X3671915D1*
X3797737D2*
X3852592D1*
X434689Y2926220D2*
X495429D1*
X611993D2*
X1420434D1*
X1445637D2*
X1503434D1*
X1530736D2*
X1580190D1*
X1612229D2*
X2030303D1*
X2232810D2*
X2420383D1*
X2516941D2*
X2535086D1*
X2606616D2*
X3057722D1*
X3203370D2*
X3686664D1*
X3782971D2*
X3852592D1*
X434707Y2901351D2*
X519561D1*
X587861D2*
X1389143D1*
X1640506D2*
X2024580D1*
X2238534D2*
X2416256D1*
X2507127D2*
X2522922D1*
X2618780D2*
X3074192D1*
X3186917D2*
X3852592D1*
X434707Y2876482D2*
X808070D1*
X891100D2*
X1384855D1*
X1644256D2*
X2030896D1*
X2232236D2*
X2397309D1*
X2506714D2*
X2526115D1*
X2615587D2*
X3852592D1*
X434707Y2851613D2*
X503970D1*
X603489D2*
X796767D1*
X902404D2*
X1395566D1*
X1470486D2*
X1479840D1*
X1632862D2*
X1727979D1*
X1798558D2*
X2058168D1*
X2104955D2*
X2158159D1*
X2204964D2*
X2393774D1*
X2510249D2*
X2552042D1*
X2589660D2*
X3271663D1*
X3311202D2*
X3852592D1*
X434707Y2826745D2*
X490298D1*
X617160D2*
X799063D1*
X900089D2*
X1715420D1*
X1811117D2*
X2402082D1*
X2501941D2*
X2746642D1*
X2793716D2*
X2805025D1*
X2841872D2*
X3246544D1*
X3336321D2*
X3852592D1*
X434707Y2801876D2*
X488342D1*
X619116D2*
X818064D1*
X881089D2*
X1390775D1*
X1636110D2*
X1718326D1*
X1808210D2*
X2436961D1*
X2467062D2*
X2724609D1*
X2868122D2*
X3243566D1*
X3339299D2*
X3852592D1*
X434707Y2777007D2*
X496829D1*
X610629D2*
X1040546D1*
X1117888D2*
X1381822D1*
X1644596D2*
X1743212D1*
X1783325D2*
X2722617D1*
X2916834D2*
X3256018D1*
X3326847D2*
X3698272D1*
X3770573D2*
X3852592D1*
X434707Y2752138D2*
X504454D1*
X603022D2*
X1030911D1*
X1127523D2*
X1387564D1*
X1638406D2*
X1686192D1*
X1719810D2*
X2736540D1*
X2931637D2*
X3675504D1*
X3793342D2*
X3852592D1*
X434725Y2727270D2*
X490459D1*
X617017D2*
X1036096D1*
X1122356D2*
X1658579D1*
X1747423D2*
X2726421D1*
X2932893D2*
X3668704D1*
X3800142D2*
X3852592D1*
X434725Y2702401D2*
X488288D1*
X619188D2*
X1654973D1*
X1751029D2*
X2432619D1*
X2511989D2*
X2724178D1*
X2921786D2*
X3190170D1*
X3244529D2*
X3672149D1*
X3796697D2*
X3852592D1*
X434725Y2677532D2*
X496542D1*
X610935D2*
X1666563D1*
X1739438D2*
X2423917D1*
X2520691D2*
X2737688D1*
X2861591D2*
X3171062D1*
X3263637D2*
X3688189D1*
X3780639D2*
X3852592D1*
X434725Y2652663D2*
X523186D1*
X584290D2*
X2429910D1*
X2514698D2*
X3170254D1*
X3264444D2*
X3852592D1*
X434725Y2627794D2*
X3186151D1*
X3248548D2*
X3852592D1*
X434725Y2602926D2*
X502050D1*
X604762D2*
X3852592D1*
X434725Y2578057D2*
X489472D1*
X617322D2*
X3852592D1*
X434743Y2553188D2*
X488270D1*
X618524D2*
X1411032D1*
X1443789D2*
X1506448D1*
X1520760D2*
X1577786D1*
X1617988D2*
X3852592D1*
X434743Y2528319D2*
X497654D1*
X609140D2*
X1383060D1*
X1642838D2*
X3852592D1*
X434743Y2503451D2*
X528317D1*
X578495D2*
X1379364D1*
X1645745D2*
X3852592D1*
X434743Y2478582D2*
X1390847D1*
X1463973D2*
X1475408D1*
X1551800D2*
X1562607D1*
X1633167D2*
X3685533D1*
X3778557D2*
X3852592D1*
X434743Y2453713D2*
X3669673D1*
X3794400D2*
X3852592D1*
X434743Y2428844D2*
X877075D1*
X954938D2*
X1395028D1*
X1467580D2*
X1479230D1*
X1549306D2*
X1559790D1*
X1634692D2*
X3666353D1*
X3797737D2*
X3852592D1*
X434761Y2403976D2*
X867674D1*
X964322D2*
X1383294D1*
X1645404D2*
X3276974D1*
X3334167D2*
X3673261D1*
X3790812D2*
X3852592D1*
X434761Y2379107D2*
X542186D1*
X566205D2*
X873056D1*
X958957D2*
X1386810D1*
X1641134D2*
X1756471D1*
X1803797D2*
X3258996D1*
X3352145D2*
X3696334D1*
X3767738D2*
X3852592D1*
X434761Y2354238D2*
X500830D1*
X607543D2*
X717660D1*
X774997D2*
X1413993D1*
X1448597D2*
X1493584D1*
X1534952D2*
X1584568D1*
X1609914D2*
X1734528D1*
X1825722D2*
X3258709D1*
X3371128D2*
X3852592D1*
X434761Y2329369D2*
X489688D1*
X618703D2*
X699736D1*
X792921D2*
X1732572D1*
X1827678D2*
X3275592D1*
X3393681D2*
X3852592D1*
X434761Y2304501D2*
X489508D1*
X618883D2*
X699485D1*
X793172D2*
X1746567D1*
X1813683D2*
X3300604D1*
X3395852D2*
X3852592D1*
X434761Y2279632D2*
X500184D1*
X608189D2*
X716422D1*
X776235D2*
X3314258D1*
X3382198D2*
X3686646D1*
X3777445D2*
X3852592D1*
X434761Y2254763D2*
X537503D1*
X570870D2*
X3670049D1*
X3794041D2*
X3852592D1*
X434779Y2229894D2*
X3666281D1*
X3797791D2*
X3852592D1*
X434779Y2205025D2*
X3672741D1*
X3791350D2*
X3852592D1*
X434779Y2180157D2*
X3687220D1*
X3776871D2*
X3852592D1*
X434779Y2155288D2*
X3670247D1*
X3793844D2*
X3852592D1*
X434779Y2130419D2*
X535691D1*
X572305D2*
X3666264D1*
X3797827D2*
X3852592D1*
X434779Y2105550D2*
X499717D1*
X608279D2*
X3672489D1*
X3791601D2*
X3852592D1*
X434779Y2080682D2*
X489239D1*
X618757D2*
X3687812D1*
X3776279D2*
X3852592D1*
X434797Y2055813D2*
X489580D1*
X618434D2*
X1178090D1*
X1378731D2*
X1478100D1*
X1778732D2*
X1878101D1*
X2078723D2*
X2178092D1*
X2578734D2*
X2678103D1*
X2778734D2*
X2878085D1*
X3178735D2*
X3670444D1*
X3793647D2*
X3852592D1*
X434797Y2030944D2*
X500937D1*
X607059D2*
X1168150D1*
X1388670D2*
X1468142D1*
X1788671D2*
X1868143D1*
X2088681D2*
X2168153D1*
X2588673D2*
X2668145D1*
X2788674D2*
X2868145D1*
X3188675D2*
X3666246D1*
X3797845D2*
X3852592D1*
X434797Y2006075D2*
X545129D1*
X562868D2*
X1169783D1*
X1387038D2*
X1469792D1*
X1787039D2*
X1869793D1*
X2087031D2*
X2169785D1*
X2587041D2*
X2669778D1*
X2787041D2*
X2869778D1*
X3187042D2*
X3672238D1*
X3791852D2*
X3852592D1*
X434797Y1981207D2*
X1184352D1*
X1272459D2*
X1284361D1*
X1372469D2*
X1484361D1*
X1572469D2*
X1584353D1*
X1672461D2*
X1684362D1*
X1772470D2*
X1884362D1*
X1972470D2*
X1984354D1*
X2072462D2*
X2184354D1*
X2272462D2*
X2284363D1*
X2372471D2*
X2384355D1*
X2472463D2*
X2484364D1*
X2572472D2*
X2684365D1*
X2772472D2*
X2884365D1*
X2972473D2*
X2984356D1*
X3072464D2*
X3084366D1*
X3172455D2*
X3693141D1*
X3770932D2*
X3852592D1*
X434797Y1956338D2*
X1178467D1*
X1578354D2*
X1678459D1*
X2378356D2*
X2478461D1*
X3078349D2*
X3852592D1*
X434797Y1931469D2*
X1168222D1*
X1588599D2*
X1668232D1*
X2388601D2*
X2468234D1*
X3088594D2*
X3852592D1*
X434815Y1906600D2*
X1169639D1*
X1587182D2*
X1669632D1*
X2387184D2*
X2469634D1*
X3087195D2*
X3852592D1*
X434815Y1881731D2*
X1183849D1*
X1272980D2*
X1283841D1*
X1372971D2*
X1383850D1*
X1472980D2*
X1483841D1*
X1572972D2*
X1683842D1*
X1772972D2*
X1783851D1*
X1872981D2*
X1883842D1*
X1972973D2*
X1983851D1*
X2072982D2*
X2083843D1*
X2172973D2*
X2183852D1*
X2272982D2*
X2283843D1*
X2372974D2*
X2483844D1*
X2572974D2*
X2583853D1*
X2672983D2*
X2683844D1*
X2772975D2*
X2783853D1*
X2872984D2*
X2883845D1*
X2972975D2*
X2983854D1*
X3072984D2*
X3689032D1*
X3775041D2*
X3852592D1*
X434815Y1856863D2*
X2001596D1*
X2059956D2*
X2385898D1*
X2464891D2*
X3496155D1*
X3575148D2*
X3670857D1*
X3793234D2*
X3852592D1*
X434815Y1831994D2*
X1984085D1*
X2077467D2*
X2251799D1*
X2315487D2*
X2377016D1*
X2473772D2*
X3487273D1*
X3584029D2*
X3666210D1*
X3797863D2*
X3852592D1*
X434815Y1807125D2*
X720638D1*
X772037D2*
X1984031D1*
X2077521D2*
X2236422D1*
X2330864D2*
X2382848D1*
X2467941D2*
X3493122D1*
X3578198D2*
X3671754D1*
X3792337D2*
X3852592D1*
X434815Y1782256D2*
X700346D1*
X792329D2*
X2001363D1*
X2116294D2*
X2237517D1*
X2363428D2*
X3689678D1*
X3774413D2*
X3852610D1*
X434815Y1757388D2*
X699018D1*
X793639D2*
X2034879D1*
X2130074D2*
X2257325D1*
X2374517D2*
X3671072D1*
X3793019D2*
X3852610D1*
X434833Y1732519D2*
X714036D1*
X778621D2*
X2036978D1*
X2127992D2*
X2282282D1*
X2370516D2*
X3666210D1*
X3797881D2*
X3852610D1*
X434833Y1707650D2*
X2059280D1*
X2105690D2*
X2311833D1*
X2340965D2*
X3028494D1*
X3074348D2*
X3671521D1*
X3792570D2*
X3852610D1*
X434833Y1682781D2*
X3005959D1*
X3096883D2*
X3690342D1*
X3773749D2*
X3852610D1*
X434833Y1657913D2*
X1014727D1*
X1078129D2*
X1196445D1*
X1259864D2*
X1300760D1*
X1369078D2*
X3003806D1*
X3099036D2*
X3671287D1*
X3792785D2*
X3852610D1*
X434833Y1633044D2*
X999225D1*
X1093631D2*
X1180943D1*
X1275348D2*
X1287250D1*
X1382570D2*
X3017459D1*
X3085382D2*
X3666210D1*
X3797881D2*
X3852610D1*
X434833Y1608175D2*
X1000266D1*
X1092590D2*
X1182001D1*
X1274308D2*
X1289528D1*
X1380291D2*
X2834271D1*
X2916063D2*
X3671287D1*
X3792785D2*
X3852610D1*
X434833Y1583306D2*
X1019912D1*
X1072943D2*
X1200876D1*
X1255432D2*
X1300868D1*
X1357469D2*
X1500868D1*
X1555424D2*
X1600877D1*
X1655433D2*
X1700869D1*
X1755425D2*
X1900869D1*
X1955425D2*
X2000878D1*
X2055417D2*
X2200879D1*
X2255417D2*
X2300870D1*
X2355426D2*
X2400879D1*
X2455418D2*
X2500871D1*
X2555427D2*
X2700871D1*
X2755427D2*
X2826735D1*
X2955428D2*
X3000881D1*
X3055419D2*
X3100872D1*
X3155428D2*
X3690324D1*
X3773749D2*
X3852610D1*
X434851Y1558438D2*
X1177157D1*
X1379143D2*
X1477167D1*
X1779144D2*
X1877168D1*
X2079136D2*
X2177159D1*
X2579146D2*
X2677170D1*
X2779147D2*
X2833840D1*
X3179130D2*
X3852610D1*
X434851Y1533569D2*
X1172259D1*
X1384059D2*
X1472251D1*
X1784042D2*
X1872252D1*
X2084052D2*
X2172243D1*
X2584044D2*
X2672254D1*
X2784045D2*
X2872254D1*
X3184046D2*
X3852610D1*
X434851Y1508700D2*
X1107380D1*
X1376649D2*
X1479661D1*
X1776632D2*
X1879662D1*
X2076642D2*
X2179653D1*
X2576634D2*
X2679664D1*
X2776635D2*
X2879664D1*
X3176636D2*
X3852610D1*
X434851Y1483831D2*
X1097207D1*
X1193694D2*
X1201899D1*
X1254392D2*
X1301908D1*
X1354401D2*
X1401900D1*
X1454392D2*
X1501909D1*
X1554402D2*
X1613742D1*
X1642551D2*
X1701909D1*
X1754402D2*
X1801901D1*
X1854393D2*
X1901910D1*
X1954403D2*
X2001901D1*
X2054394D2*
X2101910D1*
X2154403D2*
X2201902D1*
X2254394D2*
X2301911D1*
X2354386D2*
X2413744D1*
X2442553D2*
X2501911D1*
X2554386D2*
X2601903D1*
X2654395D2*
X2701912D1*
X2754387D2*
X2801903D1*
X2854396D2*
X2901912D1*
X2954387D2*
X3001904D1*
X3054396D2*
X3113737D1*
X3142564D2*
X3852610D1*
X434851Y1458962D2*
X1101944D1*
X1578892D2*
X1677400D1*
X2378895D2*
X2477402D1*
X3078887D2*
X3852610D1*
X434851Y1434094D2*
X1137003D1*
X1153898D2*
X1172223D1*
X1584078D2*
X1672233D1*
X2384080D2*
X2472235D1*
X3084073D2*
X3852610D1*
X434869Y1409225D2*
X1179346D1*
X1576955D2*
X1679356D1*
X2376939D2*
X2479358D1*
X3076950D2*
X3693751D1*
X3769443D2*
X3852610D1*
X434869Y1384356D2*
X1211642D1*
X1244649D2*
X1311651D1*
X1344658D2*
X1411642D1*
X1444650D2*
X1511651D1*
X1544659D2*
X1711652D1*
X1744659D2*
X1811643D1*
X1844651D2*
X1911652D1*
X1944660D2*
X2011644D1*
X2044651D2*
X2111635D1*
X2144661D2*
X2211644D1*
X2244652D2*
X2311635D1*
X2344661D2*
X2511636D1*
X2544662D2*
X2611645D1*
X2644653D2*
X2711637D1*
X2744662D2*
X2811646D1*
X2844653D2*
X2911637D1*
X2944663D2*
X3000773D1*
X3055491D2*
X3100783D1*
X3155482D2*
X3672131D1*
X3791063D2*
X3852610D1*
X434869Y1359487D2*
X2976534D1*
X3179722D2*
X3665815D1*
X3797361D2*
X3852610D1*
X434869Y1334619D2*
X1433944D1*
X1516400D2*
X2971169D1*
X3185087D2*
X3669726D1*
X3793467D2*
X3852610D1*
X434869Y1309750D2*
X1426731D1*
X1523613D2*
X1948936D1*
X2001411D2*
X2977825D1*
X3178430D2*
X3686556D1*
X3776637D2*
X3852610D1*
X434869Y1284881D2*
X777030D1*
X828787D2*
X1434159D1*
X1516185D2*
X1929074D1*
X2021273D2*
X3006479D1*
X3049785D2*
X3106488D1*
X3149777D2*
X3672382D1*
X3790794D2*
X3852610D1*
X434869Y1260012D2*
X749920D1*
X855880D2*
X1927926D1*
X2022403D2*
X3665851D1*
X3797343D2*
X3852610D1*
X434887Y1235144D2*
X742851D1*
X862949D2*
X1943266D1*
X2007081D2*
X3669529D1*
X3793647D2*
X3852610D1*
X434887Y1210275D2*
X747121D1*
X858697D2*
X1710486D1*
X1760861D2*
X3685982D1*
X3777212D2*
X3852610D1*
X434887Y1185406D2*
X766785D1*
X839014D2*
X1689780D1*
X1781566D2*
X3672651D1*
X3790525D2*
X3852610D1*
X434887Y1160537D2*
X750225D1*
X855593D2*
X1688291D1*
X1783056D2*
X3665869D1*
X3797307D2*
X3852610D1*
X434887Y1135669D2*
X742887D1*
X862931D2*
X1703040D1*
X1768307D2*
X3669332D1*
X3793844D2*
X3852610D1*
X434887Y1110800D2*
X746906D1*
X858894D2*
X3685426D1*
X3777768D2*
X3852610D1*
X434887Y1085931D2*
X766068D1*
X839732D2*
X3672920D1*
X3790255D2*
X3852610D1*
X434905Y1061062D2*
X750512D1*
X855288D2*
X3665905D1*
X3797271D2*
X3852610D1*
X434905Y1036193D2*
X742904D1*
X862895D2*
X3669152D1*
X3794023D2*
X3852610D1*
X434905Y1011325D2*
X746690D1*
X859110D2*
X3684869D1*
X3778306D2*
X3852610D1*
X434905Y986456D2*
X765368D1*
X840432D2*
X3673189D1*
X3789986D2*
X3852610D1*
X434905Y961587D2*
X3665941D1*
X3797235D2*
X3852610D1*
X434905Y936718D2*
X3668973D1*
X3794203D2*
X3852610D1*
X434923Y911850D2*
X3684349D1*
X3778844D2*
X3852610D1*
X434923Y886981D2*
X3852610D1*
X434923Y862112D2*
X3852610D1*
X434923Y837243D2*
X3852610D1*
X434923Y812375D2*
X3698954D1*
X3764239D2*
X3852610D1*
X434923Y787506D2*
X3673763D1*
X3789412D2*
X3852610D1*
X434923Y762637D2*
X3666030D1*
X3797145D2*
X3852610D1*
X434941Y737768D2*
X3668650D1*
X3794544D2*
X3852610D1*
X434941Y712899D2*
X3683309D1*
X3779867D2*
X3852610D1*
X434941Y688031D2*
X972186D1*
X1098726D2*
X3255103D1*
X3387384D2*
X3674068D1*
X3789125D2*
X3852610D1*
X434941Y663162D2*
X940429D1*
X1130484D2*
X3224744D1*
X3417760D2*
X3666084D1*
X3797091D2*
X3852610D1*
X434941Y638293D2*
X922541D1*
X1148372D2*
X3207466D1*
X3435038D2*
X3668488D1*
X3794705D2*
X3852610D1*
X434941Y613424D2*
X912188D1*
X1158725D2*
X3197508D1*
X3444996D2*
X3682824D1*
X3780369D2*
X3852610D1*
X434958Y588556D2*
X907487D1*
X1163425D2*
X3193148D1*
X3449356D2*
X3674373D1*
X3788820D2*
X3852610D1*
X434958Y563687D2*
X907810D1*
X1163102D2*
X3193794D1*
X3448710D2*
X3666138D1*
X3797038D2*
X3852610D1*
X434958Y538818D2*
X913193D1*
X1157738D2*
X3199518D1*
X3442986D2*
X3668327D1*
X3794867D2*
X3852610D1*
X434958Y513949D2*
X924371D1*
X1146542D2*
X3211144D1*
X3431360D2*
X3682340D1*
X3780854D2*
X3852610D1*
X434958Y489081D2*
X943515D1*
X1127398D2*
X3230952D1*
X3411552D2*
X3852610D1*
X434958Y464212D2*
X978448D1*
X1092482D2*
X3267770D1*
X3374735D2*
X3852628D1*
X434958Y439343D2*
X3852628D1*
X2004776Y3732552D2*
X2002269Y3723757D1*
X1998188Y3715574D1*
X1992673Y3708279D1*
X1985911Y3702122D1*
X1978133Y3697313D1*
X1969604Y3694014D1*
X1960614Y3692339D1*
X1951469Y3692344D1*
X1942481Y3694030D1*
X1933956Y3697338D1*
X1926184Y3702157D1*
X1919429Y3708321D1*
X1913922Y3715622D1*
X1909851Y3723811D1*
X1907353Y3732608D1*
X1906515Y3741714D1*
X1907364Y3750819D1*
X1909871Y3759614D1*
X1913952Y3767797D1*
X1919467Y3775092D1*
X1926229Y3781249D1*
X1934007Y3786058D1*
X1942536Y3789357D1*
X1951526Y3791032D1*
X1960671Y3791027D1*
X1969659Y3789341D1*
X1978184Y3786033D1*
X1985957Y3781214D1*
X1992711Y3775050D1*
X1998218Y3767749D1*
X2002289Y3759560D1*
X2004787Y3750763D1*
X2005625Y3741686D1*
X2004776Y3732552D1*
X616460Y3293317D2*
X614459Y3284290D1*
X611166Y3275650D1*
X606649Y3267582D1*
X601006Y3260257D1*
X594356Y3253833D1*
X592573Y3252554D1*
X594263Y3251197D1*
X600926Y3244786D1*
X606585Y3237474D1*
X611119Y3229416D1*
X614431Y3220783D1*
X616451Y3211760D1*
X617136Y3202471D1*
X616471Y3193317D1*
X614471Y3184290D1*
X611177Y3175650D1*
X606660Y3167582D1*
X601017Y3160257D1*
X594367Y3153833D1*
X586853Y3148444D1*
X578635Y3144208D1*
X569887Y3141213D1*
X560796Y3139524D1*
X551556Y3139176D1*
X542364Y3140177D1*
X533416Y3142506D1*
X524903Y3146114D1*
X517005Y3150922D1*
X509891Y3156829D1*
X503714Y3163708D1*
X498604Y3171414D1*
X494670Y3179782D1*
X491997Y3188634D1*
X490640Y3197780D1*
X490630Y3207026D1*
X491967Y3216175D1*
X494621Y3225033D1*
X498537Y3233409D1*
X503630Y3241126D1*
X509793Y3248019D1*
X515029Y3252385D1*
X509880Y3256829D1*
X503703Y3263708D1*
X498592Y3271414D1*
X494659Y3279782D1*
X491985Y3288634D1*
X490629Y3297780D1*
X490619Y3307026D1*
X491956Y3316175D1*
X494610Y3325033D1*
X498526Y3333409D1*
X503619Y3341126D1*
X509782Y3348019D1*
X516883Y3353941D1*
X524770Y3358766D1*
X533276Y3362392D1*
X542219Y3364740D1*
X551409Y3365761D1*
X560649Y3365433D1*
X569744Y3363764D1*
X578498Y3360788D1*
X586726Y3356569D1*
X594251Y3351197D1*
X600915Y3344786D1*
X606574Y3337474D1*
X611108Y3329416D1*
X614420Y3320783D1*
X616440Y3311760D1*
X617125Y3302471D1*
X616460Y3293317D1*
X616380Y3047056D2*
X614380Y3038029D1*
X611086Y3029389D1*
X606569Y3021321D1*
X600926Y3013997D1*
X594277Y3007572D1*
X592493Y3006293D1*
X594172Y3004936D1*
X600835Y2998526D1*
X606494Y2991214D1*
X611028Y2983155D1*
X614340Y2974523D1*
X616361Y2965500D1*
X617045Y2956210D1*
X616380Y2947056D1*
X614380Y2938029D1*
X611086Y2929389D1*
X606569Y2921321D1*
X600926Y2913997D1*
X594277Y2907572D1*
X586762Y2902184D1*
X578544Y2897947D1*
X569796Y2894952D1*
X560705Y2893263D1*
X551466Y2892915D1*
X542274Y2893917D1*
X533325Y2896246D1*
X524812Y2899853D1*
X516914Y2904661D1*
X509800Y2910568D1*
X503623Y2917448D1*
X498513Y2925154D1*
X494579Y2933522D1*
X491906Y2942373D1*
X490550Y2951519D1*
X490540Y2960766D1*
X491876Y2969915D1*
X494530Y2978772D1*
X498446Y2987148D1*
X503539Y2994865D1*
X509702Y3001758D1*
X514938Y3006125D1*
X509800Y3010568D1*
X503623Y3017448D1*
X498513Y3025154D1*
X494579Y3033522D1*
X491906Y3042373D1*
X490550Y3051519D1*
X490540Y3060766D1*
X491876Y3069915D1*
X494530Y3078772D1*
X498446Y3087148D1*
X503539Y3094865D1*
X509702Y3101758D1*
X516803Y3107680D1*
X524690Y3112506D1*
X533196Y3116131D1*
X542140Y3118479D1*
X551329Y3119501D1*
X560570Y3119173D1*
X569664Y3117503D1*
X578418Y3114527D1*
X586646Y3110308D1*
X594172Y3104936D1*
X600835Y3098526D1*
X606494Y3091214D1*
X611028Y3083155D1*
X614340Y3074523D1*
X616361Y3065500D1*
X617045Y3056210D1*
X616380Y3047056D1*
X616397Y2800296D2*
X614396Y2791269D1*
X611103Y2782629D1*
X606586Y2774561D1*
X600943Y2767236D1*
X594293Y2760812D1*
X592510Y2759533D1*
X594200Y2758176D1*
X600863Y2751765D1*
X606522Y2744453D1*
X611056Y2736395D1*
X614368Y2727762D1*
X616388Y2718739D1*
X617073Y2709450D1*
X616408Y2700296D1*
X614408Y2691269D1*
X611114Y2682629D1*
X606597Y2674561D1*
X600954Y2667236D1*
X594304Y2660812D1*
X586790Y2655423D1*
X578572Y2651187D1*
X569824Y2648192D1*
X560733Y2646503D1*
X551493Y2646155D1*
X542301Y2647156D1*
X533353Y2649485D1*
X524840Y2653093D1*
X516942Y2657901D1*
X509828Y2663808D1*
X503651Y2670687D1*
X498541Y2678393D1*
X494607Y2686761D1*
X491934Y2695613D1*
X490577Y2704759D1*
X490567Y2714005D1*
X491904Y2723154D1*
X494558Y2732012D1*
X498474Y2740388D1*
X503567Y2748105D1*
X509730Y2754998D1*
X514966Y2759364D1*
X509817Y2763808D1*
X503640Y2770687D1*
X498529Y2778393D1*
X494596Y2786761D1*
X491922Y2795613D1*
X490566Y2804759D1*
X490556Y2814005D1*
X491893Y2823154D1*
X494547Y2832012D1*
X498463Y2840388D1*
X503556Y2848105D1*
X509719Y2854998D1*
X516820Y2860920D1*
X524707Y2865745D1*
X533213Y2869371D1*
X542156Y2871719D1*
X551346Y2872740D1*
X560586Y2872412D1*
X569681Y2870743D1*
X578435Y2867767D1*
X586663Y2863548D1*
X594188Y2858176D1*
X600852Y2851765D1*
X606511Y2844453D1*
X611045Y2836395D1*
X614357Y2827762D1*
X616377Y2818739D1*
X617062Y2809450D1*
X616397Y2800296D1*
X3797281Y3207727D2*
X3795280Y3198700D1*
X3791986Y3190060D1*
X3787470Y3181992D1*
X3781826Y3174667D1*
X3775177Y3168243D1*
X3767663Y3162854D1*
X3759444Y3158618D1*
X3750696Y3155623D1*
X3741606Y3153934D1*
X3732366Y3153586D1*
X3723174Y3154587D1*
X3714226Y3156916D1*
X3705712Y3160524D1*
X3697814Y3165332D1*
X3690701Y3171239D1*
X3684523Y3178119D1*
X3679413Y3185824D1*
X3675479Y3194192D1*
X3672806Y3203044D1*
X3671450Y3212190D1*
X3671440Y3221436D1*
X3672776Y3230585D1*
X3675431Y3239443D1*
X3679346Y3247819D1*
X3684440Y3255536D1*
X3690603Y3262429D1*
X3697703Y3268351D1*
X3705591Y3273176D1*
X3714097Y3276802D1*
X3723040Y3279150D1*
X3732230Y3280171D1*
X3741470Y3279843D1*
X3750564Y3278174D1*
X3759319Y3275198D1*
X3767546Y3270979D1*
X3775072Y3265607D1*
X3781735Y3259196D1*
X3787394Y3251884D1*
X3791928Y3243826D1*
X3795241Y3235193D1*
X3797261Y3226170D1*
X3797946Y3216881D1*
X3797281Y3207727D1*
X3797492Y2960966D2*
X3795491Y2951939D1*
X3792197Y2943299D1*
X3787681Y2935231D1*
X3782038Y2927906D1*
X3775388Y2921481D1*
X3767874Y2916093D1*
X3759655Y2911857D1*
X3750908Y2908862D1*
X3741817Y2907172D1*
X3732577Y2906825D1*
X3723385Y2907826D1*
X3714437Y2910155D1*
X3705923Y2913762D1*
X3698026Y2918571D1*
X3690912Y2924478D1*
X3684734Y2931357D1*
X3679624Y2939063D1*
X3675691Y2947431D1*
X3673017Y2956282D1*
X3671661Y2965429D1*
X3671651Y2974675D1*
X3672988Y2983824D1*
X3675642Y2992681D1*
X3679558Y3001058D1*
X3684651Y3008775D1*
X3690814Y3015668D1*
X3697915Y3021590D1*
X3705802Y3026415D1*
X3714308Y3030041D1*
X3723251Y3032389D1*
X3732441Y3033410D1*
X3741681Y3033082D1*
X3750776Y3031413D1*
X3759530Y3028437D1*
X3767758Y3024218D1*
X3775283Y3018846D1*
X3781947Y3012435D1*
X3787606Y3005123D1*
X3792140Y2997065D1*
X3795452Y2988432D1*
X3797472Y2979409D1*
X3798157Y2970120D1*
X3797492Y2960966D1*
X3797090Y2714197D2*
X3795090Y2705169D1*
X3791796Y2696530D1*
X3787279Y2688462D1*
X3781636Y2681137D1*
X3774986Y2674712D1*
X3767472Y2669324D1*
X3759254Y2665088D1*
X3750506Y2662093D1*
X3741415Y2660403D1*
X3732175Y2660056D1*
X3722984Y2661057D1*
X3714035Y2663386D1*
X3705522Y2666993D1*
X3697624Y2671802D1*
X3690510Y2677709D1*
X3684333Y2684588D1*
X3679223Y2692294D1*
X3675289Y2700662D1*
X3672616Y2709513D1*
X3671260Y2718660D1*
X3671250Y2727906D1*
X3672586Y2737055D1*
X3675240Y2745912D1*
X3679156Y2754289D1*
X3684249Y2762006D1*
X3690412Y2768899D1*
X3697513Y2774821D1*
X3705400Y2779646D1*
X3713906Y2783272D1*
X3722849Y2785620D1*
X3732039Y2786641D1*
X3741280Y2786313D1*
X3750374Y2784644D1*
X3759128Y2781668D1*
X3767356Y2777449D1*
X3774882Y2772077D1*
X3781545Y2765666D1*
X3787204Y2758354D1*
X3791738Y2750296D1*
X3795050Y2741663D1*
X3797070Y2732640D1*
X3797755Y2723351D1*
X3797090Y2714197D1*
X616069Y2553466D2*
X614069Y2544439D1*
X610775Y2535799D1*
X606258Y2527731D1*
X600615Y2520406D1*
X593965Y2513981D1*
X586451Y2508593D1*
X578233Y2504357D1*
X569485Y2501362D1*
X560394Y2499672D1*
X551154Y2499325D1*
X541963Y2500326D1*
X533014Y2502655D1*
X524501Y2506262D1*
X516603Y2511071D1*
X509489Y2516978D1*
X503312Y2523857D1*
X498202Y2531563D1*
X494268Y2539931D1*
X491595Y2548782D1*
X490239Y2557929D1*
X490229Y2567175D1*
X491565Y2576324D1*
X494219Y2585181D1*
X498135Y2593558D1*
X503228Y2601275D1*
X509391Y2608168D1*
X516492Y2614090D1*
X524379Y2618915D1*
X532885Y2622541D1*
X541828Y2624889D1*
X551018Y2625910D1*
X560259Y2625582D1*
X569353Y2623913D1*
X578107Y2620937D1*
X586335Y2616718D1*
X593861Y2611346D1*
X600524Y2604935D1*
X606183Y2597623D1*
X610717Y2589565D1*
X614029Y2580932D1*
X616049Y2571909D1*
X616734Y2562620D1*
X616069Y2553466D1*
X616861Y2307336D2*
X614860Y2298309D1*
X611566Y2289669D1*
X607050Y2281601D1*
X601406Y2274276D1*
X594757Y2267851D1*
X587243Y2262463D1*
X579024Y2258227D1*
X570276Y2255232D1*
X561186Y2253543D1*
X551946Y2253195D1*
X542754Y2254196D1*
X533806Y2256525D1*
X525292Y2260132D1*
X517394Y2264941D1*
X510281Y2270848D1*
X504103Y2277727D1*
X498993Y2285433D1*
X495059Y2293801D1*
X492386Y2302653D1*
X491030Y2311799D1*
X491020Y2321045D1*
X492356Y2330194D1*
X495011Y2339052D1*
X498926Y2347428D1*
X504020Y2355145D1*
X510183Y2362038D1*
X517283Y2367960D1*
X525171Y2372785D1*
X533677Y2376411D1*
X542620Y2378759D1*
X551810Y2379780D1*
X561050Y2379452D1*
X570144Y2377783D1*
X578899Y2374807D1*
X587126Y2370588D1*
X594652Y2365216D1*
X601315Y2358805D1*
X606974Y2351493D1*
X611508Y2343435D1*
X614821Y2334802D1*
X616841Y2325779D1*
X617526Y2316490D1*
X616861Y2307336D1*
X616669Y2059936D2*
X614668Y2050908D1*
X611375Y2042269D1*
X606858Y2034200D1*
X601215Y2026876D1*
X594565Y2020451D1*
X587051Y2015063D1*
X578833Y2010826D1*
X570085Y2007832D1*
X560994Y2006142D1*
X551754Y2005795D1*
X542562Y2006796D1*
X533614Y2009125D1*
X525100Y2012732D1*
X517203Y2017540D1*
X510089Y2023447D1*
X503912Y2030327D1*
X498801Y2038033D1*
X494868Y2046401D1*
X492194Y2055252D1*
X490838Y2064399D1*
X490828Y2073645D1*
X492165Y2082794D1*
X494819Y2091651D1*
X498735Y2100028D1*
X503828Y2107744D1*
X509991Y2114637D1*
X517092Y2120560D1*
X524979Y2125385D1*
X533485Y2129010D1*
X542428Y2131359D1*
X551618Y2132380D1*
X560858Y2132052D1*
X569953Y2130382D1*
X578707Y2127406D1*
X586935Y2123187D1*
X594460Y2117816D1*
X601124Y2111405D1*
X606783Y2104093D1*
X611317Y2096034D1*
X614629Y2087402D1*
X616649Y2078379D1*
X617334Y2069090D1*
X616669Y2059936D1*
X1492871Y3469391D2*
X1399039D1*
X1389887Y3470077D1*
X1380939Y3472120D1*
X1372397Y3475476D1*
X1364450Y3480067D1*
X1357277Y3485793D1*
X1351038Y3492524D1*
X1345873Y3500110D1*
X1341897Y3508382D1*
X1339199Y3517154D1*
X1337840Y3526231D1*
X1337849Y3535408D1*
X1339227Y3544482D1*
X1341943Y3553249D1*
X1345936Y3561512D1*
X1351117Y3569088D1*
X1357369Y3575807D1*
X1364554Y3581517D1*
X1372510Y3586093D1*
X1381059Y3589430D1*
X1390011Y3591456D1*
X1399039Y3592123D1*
X1501401D1*
X1510553Y3591437D1*
X1519501Y3589394D1*
X1528043Y3586038D1*
X1535990Y3581447D1*
X1543163Y3575722D1*
X1549402Y3568990D1*
X1554567Y3561404D1*
X1558543Y3553132D1*
X1561241Y3544360D1*
X1562600Y3535284D1*
X1562591Y3526106D1*
X1561213Y3517032D1*
X1558497Y3508265D1*
X1554504Y3500002D1*
X1549324Y3492426D1*
X1543071Y3485707D1*
X1535886Y3479997D1*
X1527930Y3475421D1*
X1519381Y3472084D1*
X1510429Y3470058D1*
X1501401Y3469391D1*
X1492871D1*
X1322610Y3679576D2*
Y3601623D1*
X1321924Y3592471D1*
X1319880Y3583524D1*
X1316525Y3574981D1*
X1311934Y3567035D1*
X1306208Y3559862D1*
X1299477Y3553623D1*
X1291891Y3548457D1*
X1283619Y3544481D1*
X1274847Y3541783D1*
X1265770Y3540424D1*
X1256592Y3540433D1*
X1247519Y3541811D1*
X1238752Y3544527D1*
X1230488Y3548520D1*
X1222913Y3553701D1*
X1216194Y3559953D1*
X1210483Y3567138D1*
X1205908Y3575094D1*
X1202570Y3583643D1*
X1200545Y3592595D1*
X1199877Y3601623D1*
Y3688237D1*
X1200564Y3697389D1*
X1202607Y3706337D1*
X1205962Y3714879D1*
X1210554Y3722826D1*
X1216279Y3729999D1*
X1223010Y3736238D1*
X1230597Y3741403D1*
X1238868Y3745379D1*
X1247641Y3748077D1*
X1256717Y3749437D1*
X1265895Y3749427D1*
X1274969Y3748049D1*
X1283735Y3745333D1*
X1291999Y3741340D1*
X1299575Y3736160D1*
X1306293Y3729907D1*
X1312004Y3722723D1*
X1316579Y3714767D1*
X1319917Y3706217D1*
X1321942Y3697266D1*
X1322610Y3688237D1*
Y3679576D1*
X1278114Y1517153D2*
X1274762Y1509777D1*
X1269670Y1502276D1*
X1263383Y1495744D1*
X1256083Y1490368D1*
X1247979Y1486302D1*
X1246937Y1485986D1*
X1248182Y1485499D1*
X1256269Y1481401D1*
X1263547Y1475995D1*
X1269807Y1469437D1*
X1274869Y1461915D1*
X1278103Y1454720D1*
X1279487Y1458058D1*
X1283925Y1465964D1*
X1289635Y1473006D1*
X1296453Y1478982D1*
X1304183Y1483720D1*
X1309503Y1485845D1*
X1303988Y1488261D1*
X1296277Y1493030D1*
X1289484Y1499034D1*
X1283803Y1506100D1*
X1279397Y1514024D1*
X1278245Y1517307D1*
X1978114Y1517153D2*
X1974762Y1509777D1*
X1969670Y1502276D1*
X1963383Y1495744D1*
X1956083Y1490368D1*
X1947979Y1486302D1*
X1946937Y1485986D1*
X1948182Y1485499D1*
X1956269Y1481401D1*
X1963547Y1475995D1*
X1969807Y1469437D1*
X1974869Y1461915D1*
X1978103Y1454720D1*
X1979487Y1458058D1*
X1983925Y1465964D1*
X1989635Y1473006D1*
X1996453Y1478982D1*
X2004183Y1483720D1*
X2009503Y1485845D1*
X2003988Y1488261D1*
X1996277Y1493030D1*
X1989484Y1499034D1*
X1983803Y1506100D1*
X1979397Y1514024D1*
X1978245Y1517307D1*
X2278114Y1517153D2*
X2274762Y1509777D1*
X2269670Y1502276D1*
X2263383Y1495744D1*
X2256083Y1490368D1*
X2247979Y1486302D1*
X2246937Y1485986D1*
X2248182Y1485499D1*
X2256269Y1481401D1*
X2263547Y1475995D1*
X2269807Y1469437D1*
X2274869Y1461915D1*
X2278103Y1454720D1*
X2279487Y1458058D1*
X2283925Y1465964D1*
X2289635Y1473006D1*
X2296453Y1478982D1*
X2304183Y1483720D1*
X2309503Y1485845D1*
X2303988Y1488261D1*
X2296277Y1493030D1*
X2289484Y1499034D1*
X2283803Y1506100D1*
X2279397Y1514024D1*
X2278245Y1517307D1*
X2978114Y1517153D2*
X2974762Y1509777D1*
X2969670Y1502276D1*
X2963383Y1495744D1*
X2956083Y1490368D1*
X2947979Y1486302D1*
X2946937Y1485986D1*
X2948182Y1485499D1*
X2956269Y1481401D1*
X2963547Y1475995D1*
X2969807Y1469437D1*
X2974869Y1461915D1*
X2978103Y1454720D1*
X2981278Y1461636D1*
X2986295Y1469188D1*
X2992515Y1475784D1*
X2999761Y1481233D1*
X3007824Y1485379D1*
X3009420Y1485882D1*
X3003988Y1488261D1*
X2996277Y1493030D1*
X2989484Y1499034D1*
X2983803Y1506100D1*
X2979397Y1514024D1*
X2978245Y1517307D1*
X3007990Y1386495D2*
X3000489Y1390202D1*
X2993157Y1395535D1*
X2986832Y1402030D1*
X2981695Y1409500D1*
X2978180Y1417113D1*
X2978114Y1417153D1*
X2974762Y1409777D1*
X2969670Y1402276D1*
X2963383Y1395744D1*
X2956083Y1390368D1*
X2947979Y1386302D1*
X2939305Y1383665D1*
X2930310Y1382532D1*
X2921252Y1382935D1*
X2912394Y1384864D1*
X2903988Y1388261D1*
X2896277Y1393030D1*
X2889484Y1399034D1*
X2883803Y1406100D1*
X2879397Y1414024D1*
X2878245Y1417307D1*
X2878114Y1417153D1*
X2874762Y1409777D1*
X2869670Y1402276D1*
X2863383Y1395744D1*
X2856083Y1390368D1*
X2847979Y1386302D1*
X2839305Y1383665D1*
X2830310Y1382532D1*
X2821252Y1382935D1*
X2812394Y1384864D1*
X2803988Y1388261D1*
X2796277Y1393030D1*
X2789484Y1399034D1*
X2783803Y1406100D1*
X2779397Y1414024D1*
X2778245Y1417307D1*
X2778114Y1417153D1*
X2774762Y1409777D1*
X2769670Y1402276D1*
X2763383Y1395744D1*
X2756083Y1390368D1*
X2747979Y1386302D1*
X2739305Y1383665D1*
X2730310Y1382532D1*
X2721252Y1382935D1*
X2712394Y1384864D1*
X2703988Y1388261D1*
X2696277Y1393030D1*
X2689484Y1399034D1*
X2683803Y1406100D1*
X2679397Y1414024D1*
X2678245Y1417307D1*
X2678114Y1417153D1*
X2674762Y1409777D1*
X2669670Y1402276D1*
X2663383Y1395744D1*
X2656083Y1390368D1*
X2647979Y1386302D1*
X2639305Y1383665D1*
X2630310Y1382532D1*
X2621252Y1382935D1*
X2612394Y1384864D1*
X2603988Y1388261D1*
X2596277Y1393030D1*
X2589484Y1399034D1*
X2583803Y1406100D1*
X2579397Y1414024D1*
X2578245Y1417307D1*
X2578114Y1417153D1*
X2574762Y1409777D1*
X2569670Y1402276D1*
X2563383Y1395744D1*
X2556083Y1390368D1*
X2547979Y1386302D1*
X2539305Y1383665D1*
X2530310Y1382532D1*
X2521252Y1382935D1*
X2512394Y1384864D1*
X2503988Y1388261D1*
X2496277Y1393030D1*
X2489484Y1399034D1*
X2483803Y1406100D1*
X2479397Y1414024D1*
X2476394Y1422578D1*
X2474881Y1431517D1*
X2474899Y1440583D1*
X2476450Y1449516D1*
X2479487Y1458058D1*
X2483925Y1465964D1*
X2489635Y1473006D1*
X2496453Y1478982D1*
X2504183Y1483720D1*
X2509503Y1485845D1*
X2509496Y1486035D1*
X2503988Y1488261D1*
X2496277Y1493030D1*
X2489484Y1499034D1*
X2483803Y1506100D1*
X2479397Y1514024D1*
X2478245Y1517307D1*
X2478114Y1517153D1*
X2474762Y1509777D1*
X2469670Y1502276D1*
X2463383Y1495744D1*
X2456083Y1490368D1*
X2447979Y1486302D1*
X2439305Y1483665D1*
X2430310Y1482532D1*
X2421252Y1482935D1*
X2412394Y1484864D1*
X2403988Y1488261D1*
X2396277Y1493030D1*
X2389484Y1499034D1*
X2383803Y1506100D1*
X2379397Y1514024D1*
X2378245Y1517307D1*
X2378114Y1517153D1*
X2374762Y1509777D1*
X2369670Y1502276D1*
X2363383Y1495744D1*
X2356083Y1490368D1*
X2347979Y1486302D1*
X2346937Y1485986D1*
X2348182Y1485499D1*
X2356269Y1481401D1*
X2363547Y1475995D1*
X2369807Y1469437D1*
X2374869Y1461915D1*
X2378586Y1453646D1*
X2380853Y1444867D1*
X2381603Y1435941D1*
X2380816Y1426800D1*
X2378513Y1418031D1*
X2374762Y1409777D1*
X2369670Y1402276D1*
X2363383Y1395744D1*
X2356083Y1390368D1*
X2347979Y1386302D1*
X2339305Y1383665D1*
X2330310Y1382532D1*
X2321252Y1382935D1*
X2312394Y1384864D1*
X2303988Y1388261D1*
X2296277Y1393030D1*
X2289484Y1399034D1*
X2283803Y1406100D1*
X2279397Y1414024D1*
X2278245Y1417307D1*
X2274762Y1409777D1*
X2269670Y1402276D1*
X2263383Y1395744D1*
X2256083Y1390368D1*
X2247979Y1386302D1*
X2239305Y1383665D1*
X2230310Y1382532D1*
X2221252Y1382935D1*
X2212394Y1384864D1*
X2203988Y1388261D1*
X2196277Y1393030D1*
X2189484Y1399034D1*
X2183803Y1406100D1*
X2179397Y1414024D1*
X2178245Y1417307D1*
X2174762Y1409777D1*
X2169670Y1402276D1*
X2163383Y1395744D1*
X2156083Y1390368D1*
X2147979Y1386302D1*
X2139305Y1383665D1*
X2130310Y1382532D1*
X2121252Y1382935D1*
X2112394Y1384864D1*
X2103988Y1388261D1*
X2096277Y1393030D1*
X2089484Y1399034D1*
X2083803Y1406100D1*
X2079397Y1414024D1*
X2078245Y1417307D1*
X2074762Y1409777D1*
X2069670Y1402276D1*
X2063383Y1395744D1*
X2056083Y1390368D1*
X2047979Y1386302D1*
X2039305Y1383665D1*
X2030310Y1382532D1*
X2021252Y1382935D1*
X2012394Y1384864D1*
X2003988Y1388261D1*
X1996277Y1393030D1*
X1989484Y1399034D1*
X1983803Y1406100D1*
X1979397Y1414024D1*
X1978245Y1417307D1*
X1974762Y1409777D1*
X1969670Y1402276D1*
X1963383Y1395744D1*
X1956083Y1390368D1*
X1947979Y1386302D1*
X1939305Y1383665D1*
X1930310Y1382532D1*
X1921252Y1382935D1*
X1912394Y1384864D1*
X1903988Y1388261D1*
X1896277Y1393030D1*
X1889484Y1399034D1*
X1883803Y1406100D1*
X1879397Y1414024D1*
X1878245Y1417307D1*
X1874762Y1409777D1*
X1869670Y1402276D1*
X1863383Y1395744D1*
X1856083Y1390368D1*
X1847979Y1386302D1*
X1839305Y1383665D1*
X1830310Y1382532D1*
X1821252Y1382935D1*
X1812394Y1384864D1*
X1803988Y1388261D1*
X1796277Y1393030D1*
X1789484Y1399034D1*
X1783803Y1406100D1*
X1779397Y1414024D1*
X1778245Y1417307D1*
X1774762Y1409777D1*
X1769670Y1402276D1*
X1763383Y1395744D1*
X1756083Y1390368D1*
X1747979Y1386302D1*
X1739305Y1383665D1*
X1730310Y1382532D1*
X1721252Y1382935D1*
X1712394Y1384864D1*
X1703988Y1388261D1*
X1696277Y1393030D1*
X1689484Y1399034D1*
X1683803Y1406100D1*
X1679397Y1414024D1*
X1676394Y1422578D1*
X1674881Y1431517D1*
X1674899Y1440583D1*
X1676450Y1449516D1*
X1679487Y1458058D1*
X1683925Y1465964D1*
X1689635Y1473006D1*
X1696453Y1478982D1*
X1704183Y1483720D1*
X1709503Y1485845D1*
X1709496Y1486035D1*
X1703988Y1488261D1*
X1696277Y1493030D1*
X1689484Y1499034D1*
X1683803Y1506100D1*
X1679397Y1514024D1*
X1678245Y1517307D1*
X1678114Y1517153D1*
X1674762Y1509777D1*
X1669670Y1502276D1*
X1663383Y1495744D1*
X1656083Y1490368D1*
X1647979Y1486302D1*
X1639305Y1483665D1*
X1630310Y1482532D1*
X1621252Y1482935D1*
X1612394Y1484864D1*
X1603988Y1488261D1*
X1596277Y1493030D1*
X1589484Y1499034D1*
X1583803Y1506100D1*
X1579397Y1514024D1*
X1578245Y1517307D1*
X1578114Y1517153D1*
X1574762Y1509777D1*
X1569670Y1502276D1*
X1563383Y1495744D1*
X1556083Y1490368D1*
X1547979Y1486302D1*
X1546937Y1485986D1*
X1548182Y1485499D1*
X1556269Y1481401D1*
X1563547Y1475995D1*
X1569807Y1469437D1*
X1574869Y1461915D1*
X1578586Y1453646D1*
X1580853Y1444867D1*
X1581603Y1435941D1*
X1580816Y1426800D1*
X1578513Y1418031D1*
X1574762Y1409777D1*
X1569670Y1402276D1*
X1563383Y1395744D1*
X1556083Y1390368D1*
X1547979Y1386302D1*
X1539305Y1383665D1*
X1530310Y1382532D1*
X1521252Y1382935D1*
X1512394Y1384864D1*
X1503988Y1388261D1*
X1496277Y1393030D1*
X1489484Y1399034D1*
X1483803Y1406100D1*
X1479397Y1414024D1*
X1478245Y1417307D1*
X1474762Y1409777D1*
X1469670Y1402276D1*
X1463383Y1395744D1*
X1456083Y1390368D1*
X1447979Y1386302D1*
X1439305Y1383665D1*
X1430310Y1382532D1*
X1421252Y1382935D1*
X1412394Y1384864D1*
X1403988Y1388261D1*
X1396277Y1393030D1*
X1389484Y1399034D1*
X1383803Y1406100D1*
X1379397Y1414024D1*
X1378245Y1417307D1*
X1374762Y1409777D1*
X1369670Y1402276D1*
X1363383Y1395744D1*
X1356083Y1390368D1*
X1347979Y1386302D1*
X1339305Y1383665D1*
X1330310Y1382532D1*
X1321252Y1382935D1*
X1312394Y1384864D1*
X1303988Y1388261D1*
X1296277Y1393030D1*
X1289484Y1399034D1*
X1283803Y1406100D1*
X1279397Y1414024D1*
X1278245Y1417307D1*
X1274762Y1409777D1*
X1269670Y1402276D1*
X1263383Y1395744D1*
X1256083Y1390368D1*
X1247979Y1386302D1*
X1239305Y1383665D1*
X1230310Y1382532D1*
X1221252Y1382935D1*
X1212394Y1384864D1*
X1203988Y1388261D1*
X1196277Y1393030D1*
X1189484Y1399034D1*
X1183803Y1406100D1*
X1179397Y1414024D1*
X1176394Y1422578D1*
X1174881Y1431517D1*
X1174899Y1440583D1*
X1175676Y1445058D1*
X1169853Y1440725D1*
X1161519Y1436610D1*
X1152528Y1434256D1*
X1143248Y1433760D1*
X1134057Y1435143D1*
X1125333Y1438348D1*
X1117432Y1443242D1*
X1110679Y1449628D1*
X1105349Y1457241D1*
X1101661Y1465772D1*
X1099766Y1474871D1*
X1099741Y1484165D1*
X1101587Y1493274D1*
X1105229Y1501824D1*
X1110518Y1509467D1*
X1117237Y1515888D1*
X1125111Y1520826D1*
X1133818Y1524077D1*
X1143001Y1525509D1*
X1152284Y1525063D1*
X1161288Y1522758D1*
X1169643Y1518687D1*
X1177008Y1513018D1*
X1183080Y1505983D1*
X1187613Y1497869D1*
X1190419Y1489008D1*
X1191384Y1479641D1*
X1190839Y1474214D1*
X1196453Y1478982D1*
X1204183Y1483720D1*
X1209503Y1485845D1*
X1209496Y1486035D1*
X1203988Y1488261D1*
X1196277Y1493030D1*
X1189484Y1499034D1*
X1183803Y1506100D1*
X1179397Y1514024D1*
X1176394Y1522578D1*
X1174881Y1531517D1*
X1174899Y1540583D1*
X1176450Y1549516D1*
X1179487Y1558058D1*
X1183925Y1565964D1*
X1189635Y1573006D1*
X1196453Y1578982D1*
X1203828Y1583503D1*
X1200131Y1586064D1*
X1193377Y1592449D1*
X1188047Y1600063D1*
X1184359Y1608594D1*
X1182464Y1617693D1*
X1182439Y1626987D1*
X1184285Y1636095D1*
X1187927Y1644646D1*
X1193216Y1652288D1*
X1199935Y1658710D1*
X1207809Y1663647D1*
X1216516Y1666898D1*
X1225699Y1668330D1*
X1234982Y1667885D1*
X1243986Y1665579D1*
X1252341Y1661509D1*
X1259706Y1655840D1*
X1265778Y1648804D1*
X1270311Y1640690D1*
X1273117Y1631830D1*
X1274082Y1622462D1*
X1273167Y1613337D1*
X1270408Y1604462D1*
X1265920Y1596324D1*
X1259885Y1589256D1*
X1252510Y1583527D1*
X1255068Y1582122D1*
X1262486Y1576909D1*
X1268915Y1570517D1*
X1274172Y1563130D1*
X1278105Y1554961D1*
X1278141Y1554833D1*
X1279487Y1558058D1*
X1283925Y1565964D1*
X1289635Y1573006D1*
X1296453Y1578982D1*
X1304183Y1583720D1*
X1309996Y1586042D1*
X1307189Y1588008D1*
X1300384Y1594339D1*
X1294993Y1601909D1*
X1291236Y1610410D1*
X1289268Y1619493D1*
X1289168Y1628787D1*
X1290940Y1637910D1*
X1294513Y1646490D1*
X1299740Y1654175D1*
X1306407Y1660650D1*
X1314241Y1665651D1*
X1322921Y1668972D1*
X1332093Y1670478D1*
X1341379Y1670108D1*
X1350401Y1667875D1*
X1358789Y1663872D1*
X1366199Y1658263D1*
X1372328Y1651276D1*
X1376926Y1643199D1*
X1379804Y1634362D1*
X1380843Y1625126D1*
X1380846Y1624632D1*
X1379930Y1615507D1*
X1377172Y1606631D1*
X1372683Y1598493D1*
X1366649Y1591425D1*
X1359314Y1585716D1*
X1353659Y1582923D1*
X1356269Y1581401D1*
X1363547Y1575995D1*
X1369807Y1569437D1*
X1374869Y1561915D1*
X1378586Y1553646D1*
X1380853Y1544867D1*
X1381603Y1535941D1*
X1380816Y1526800D1*
X1378513Y1518031D1*
X1374762Y1509777D1*
X1369670Y1502276D1*
X1363383Y1495744D1*
X1356083Y1490368D1*
X1347979Y1486302D1*
X1346937Y1485986D1*
X1348182Y1485499D1*
X1356269Y1481401D1*
X1363547Y1475995D1*
X1369807Y1469437D1*
X1374869Y1461915D1*
X1378103Y1454720D1*
X1379487Y1458058D1*
X1383925Y1465964D1*
X1389635Y1473006D1*
X1396453Y1478982D1*
X1404183Y1483720D1*
X1412602Y1487083D1*
X1421469Y1488975D1*
X1430528Y1489342D1*
X1439518Y1488172D1*
X1448182Y1485499D1*
X1456269Y1481401D1*
X1463547Y1475995D1*
X1469807Y1469437D1*
X1474869Y1461915D1*
X1478103Y1454720D1*
X1479487Y1458058D1*
X1483925Y1465964D1*
X1489635Y1473006D1*
X1496453Y1478982D1*
X1504183Y1483720D1*
X1509503Y1485845D1*
X1503988Y1488261D1*
X1496277Y1493030D1*
X1489484Y1499034D1*
X1483803Y1506100D1*
X1479397Y1514024D1*
X1476394Y1522578D1*
X1474881Y1531517D1*
X1474899Y1540583D1*
X1476450Y1549516D1*
X1479487Y1558058D1*
X1483925Y1565964D1*
X1489635Y1573006D1*
X1496453Y1578982D1*
X1504183Y1583720D1*
X1512602Y1587083D1*
X1521469Y1588975D1*
X1530528Y1589342D1*
X1539518Y1588172D1*
X1548182Y1585499D1*
X1556269Y1581401D1*
X1563547Y1575995D1*
X1569807Y1569437D1*
X1574869Y1561915D1*
X1578103Y1554720D1*
X1579487Y1558058D1*
X1583925Y1565964D1*
X1589635Y1573006D1*
X1596453Y1578982D1*
X1604183Y1583720D1*
X1612602Y1587083D1*
X1621469Y1588975D1*
X1630528Y1589342D1*
X1639518Y1588172D1*
X1648182Y1585499D1*
X1656269Y1581401D1*
X1663547Y1575995D1*
X1669807Y1569437D1*
X1674869Y1561915D1*
X1678103Y1554720D1*
X1679487Y1558058D1*
X1683925Y1565964D1*
X1689635Y1573006D1*
X1696453Y1578982D1*
X1704183Y1583720D1*
X1712602Y1587083D1*
X1721469Y1588975D1*
X1730528Y1589342D1*
X1739518Y1588172D1*
X1748182Y1585499D1*
X1756269Y1581401D1*
X1763547Y1575995D1*
X1769807Y1569437D1*
X1774869Y1561915D1*
X1778586Y1553646D1*
X1780853Y1544867D1*
X1781603Y1535941D1*
X1780816Y1526800D1*
X1778513Y1518031D1*
X1774762Y1509777D1*
X1769670Y1502276D1*
X1763383Y1495744D1*
X1756083Y1490368D1*
X1747979Y1486302D1*
X1746937Y1485986D1*
X1748182Y1485499D1*
X1756269Y1481401D1*
X1763547Y1475995D1*
X1769807Y1469437D1*
X1774869Y1461915D1*
X1778103Y1454720D1*
X1779487Y1458058D1*
X1783925Y1465964D1*
X1789635Y1473006D1*
X1796453Y1478982D1*
X1804183Y1483720D1*
X1812602Y1487083D1*
X1821469Y1488975D1*
X1830528Y1489342D1*
X1839518Y1488172D1*
X1848182Y1485499D1*
X1856269Y1481401D1*
X1863547Y1475995D1*
X1869807Y1469437D1*
X1874869Y1461915D1*
X1878103Y1454720D1*
X1879487Y1458058D1*
X1883925Y1465964D1*
X1889635Y1473006D1*
X1896453Y1478982D1*
X1904183Y1483720D1*
X1909503Y1485845D1*
X1903988Y1488261D1*
X1896277Y1493030D1*
X1889484Y1499034D1*
X1883803Y1506100D1*
X1879397Y1514024D1*
X1876394Y1522578D1*
X1874881Y1531517D1*
X1874899Y1540583D1*
X1876450Y1549516D1*
X1879487Y1558058D1*
X1883925Y1565964D1*
X1889635Y1573006D1*
X1896453Y1578982D1*
X1904183Y1583720D1*
X1912602Y1587083D1*
X1921469Y1588975D1*
X1930528Y1589342D1*
X1939518Y1588172D1*
X1948182Y1585499D1*
X1956269Y1581401D1*
X1963547Y1575995D1*
X1969807Y1569437D1*
X1974869Y1561915D1*
X1978103Y1554720D1*
X1979487Y1558058D1*
X1983925Y1565964D1*
X1989635Y1573006D1*
X1996453Y1578982D1*
X2004183Y1583720D1*
X2012602Y1587083D1*
X2021469Y1588975D1*
X2030528Y1589342D1*
X2039518Y1588172D1*
X2048182Y1585499D1*
X2056269Y1581401D1*
X2063547Y1575995D1*
X2069807Y1569437D1*
X2074869Y1561915D1*
X2078586Y1553646D1*
X2080853Y1544867D1*
X2081603Y1535941D1*
X2080816Y1526800D1*
X2078513Y1518031D1*
X2074762Y1509777D1*
X2069670Y1502276D1*
X2063383Y1495744D1*
X2056083Y1490368D1*
X2047979Y1486302D1*
X2046937Y1485986D1*
X2048182Y1485499D1*
X2056269Y1481401D1*
X2063547Y1475995D1*
X2069807Y1469437D1*
X2074869Y1461915D1*
X2078103Y1454720D1*
X2079487Y1458058D1*
X2083925Y1465964D1*
X2089635Y1473006D1*
X2096453Y1478982D1*
X2104183Y1483720D1*
X2112602Y1487083D1*
X2121469Y1488975D1*
X2130528Y1489342D1*
X2139518Y1488172D1*
X2148182Y1485499D1*
X2156269Y1481401D1*
X2163547Y1475995D1*
X2169807Y1469437D1*
X2174869Y1461915D1*
X2178103Y1454720D1*
X2179487Y1458058D1*
X2183925Y1465964D1*
X2189635Y1473006D1*
X2196453Y1478982D1*
X2204183Y1483720D1*
X2209503Y1485845D1*
X2203988Y1488261D1*
X2196277Y1493030D1*
X2189484Y1499034D1*
X2183803Y1506100D1*
X2179397Y1514024D1*
X2176394Y1522578D1*
X2174881Y1531517D1*
X2174899Y1540583D1*
X2176450Y1549516D1*
X2179487Y1558058D1*
X2183925Y1565964D1*
X2189635Y1573006D1*
X2196453Y1578982D1*
X2204183Y1583720D1*
X2212602Y1587083D1*
X2221469Y1588975D1*
X2230528Y1589342D1*
X2239518Y1588172D1*
X2248182Y1585499D1*
X2256269Y1581401D1*
X2263547Y1575995D1*
X2269807Y1569437D1*
X2274869Y1561915D1*
X2278103Y1554720D1*
X2279487Y1558058D1*
X2283925Y1565964D1*
X2289635Y1573006D1*
X2296453Y1578982D1*
X2304183Y1583720D1*
X2312602Y1587083D1*
X2321469Y1588975D1*
X2330528Y1589342D1*
X2339518Y1588172D1*
X2348182Y1585499D1*
X2356269Y1581401D1*
X2363547Y1575995D1*
X2369807Y1569437D1*
X2374869Y1561915D1*
X2378103Y1554720D1*
X2379487Y1558058D1*
X2383925Y1565964D1*
X2389635Y1573006D1*
X2396453Y1578982D1*
X2404183Y1583720D1*
X2412602Y1587083D1*
X2421469Y1588975D1*
X2430528Y1589342D1*
X2439518Y1588172D1*
X2448182Y1585499D1*
X2456269Y1581401D1*
X2463547Y1575995D1*
X2469807Y1569437D1*
X2474869Y1561915D1*
X2478103Y1554720D1*
X2479487Y1558058D1*
X2483925Y1565964D1*
X2489635Y1573006D1*
X2496453Y1578982D1*
X2504183Y1583720D1*
X2512602Y1587083D1*
X2521469Y1588975D1*
X2530528Y1589342D1*
X2539518Y1588172D1*
X2548182Y1585499D1*
X2556269Y1581401D1*
X2563547Y1575995D1*
X2569807Y1569437D1*
X2574869Y1561915D1*
X2578586Y1553646D1*
X2580853Y1544867D1*
X2581603Y1535941D1*
X2580816Y1526800D1*
X2578513Y1518031D1*
X2574762Y1509777D1*
X2569670Y1502276D1*
X2563383Y1495744D1*
X2556083Y1490368D1*
X2547979Y1486302D1*
X2546937Y1485986D1*
X2548182Y1485499D1*
X2556269Y1481401D1*
X2563547Y1475995D1*
X2569807Y1469437D1*
X2574869Y1461915D1*
X2578103Y1454720D1*
X2579487Y1458058D1*
X2583925Y1465964D1*
X2589635Y1473006D1*
X2596453Y1478982D1*
X2604183Y1483720D1*
X2612602Y1487083D1*
X2621469Y1488975D1*
X2630528Y1489342D1*
X2639518Y1488172D1*
X2648182Y1485499D1*
X2656269Y1481401D1*
X2663547Y1475995D1*
X2669807Y1469437D1*
X2674869Y1461915D1*
X2678103Y1454720D1*
X2679487Y1458058D1*
X2683925Y1465964D1*
X2689635Y1473006D1*
X2696453Y1478982D1*
X2704183Y1483720D1*
X2709503Y1485845D1*
X2703988Y1488261D1*
X2696277Y1493030D1*
X2689484Y1499034D1*
X2683803Y1506100D1*
X2679397Y1514024D1*
X2676394Y1522578D1*
X2674881Y1531517D1*
X2674899Y1540583D1*
X2676450Y1549516D1*
X2679487Y1558058D1*
X2683925Y1565964D1*
X2689635Y1573006D1*
X2696453Y1578982D1*
X2704183Y1583720D1*
X2712602Y1587083D1*
X2721469Y1588975D1*
X2730528Y1589342D1*
X2739518Y1588172D1*
X2748182Y1585499D1*
X2756269Y1581401D1*
X2763547Y1575995D1*
X2769807Y1569437D1*
X2774869Y1561915D1*
X2778586Y1553646D1*
X2780853Y1544867D1*
X2781603Y1535941D1*
X2780816Y1526800D1*
X2778513Y1518031D1*
X2774762Y1509777D1*
X2769670Y1502276D1*
X2763383Y1495744D1*
X2756083Y1490368D1*
X2747979Y1486302D1*
X2746937Y1485986D1*
X2748182Y1485499D1*
X2756269Y1481401D1*
X2763547Y1475995D1*
X2769807Y1469437D1*
X2774869Y1461915D1*
X2778103Y1454720D1*
X2779487Y1458058D1*
X2783925Y1465964D1*
X2789635Y1473006D1*
X2796453Y1478982D1*
X2804183Y1483720D1*
X2812602Y1487083D1*
X2821469Y1488975D1*
X2830528Y1489342D1*
X2839518Y1488172D1*
X2848182Y1485499D1*
X2856269Y1481401D1*
X2863547Y1475995D1*
X2869807Y1469437D1*
X2874869Y1461915D1*
X2878103Y1454720D1*
X2879487Y1458058D1*
X2883925Y1465964D1*
X2889635Y1473006D1*
X2896453Y1478982D1*
X2904183Y1483720D1*
X2909503Y1485845D1*
X2903988Y1488261D1*
X2896277Y1493030D1*
X2889484Y1499034D1*
X2883803Y1506100D1*
X2879397Y1514024D1*
X2876394Y1522578D1*
X2874881Y1531517D1*
X2874892Y1537033D1*
X2872969Y1537082D1*
X2863779Y1538465D1*
X2855055Y1541669D1*
X2847154Y1546564D1*
X2840401Y1552949D1*
X2835071Y1560563D1*
X2831383Y1569094D1*
X2829487Y1578193D1*
X2829462Y1587487D1*
X2831309Y1596595D1*
X2834951Y1605146D1*
X2840240Y1612788D1*
X2846959Y1619210D1*
X2854833Y1624147D1*
X2863540Y1627398D1*
X2872723Y1628830D1*
X2882006Y1628385D1*
X2891009Y1626079D1*
X2899365Y1622009D1*
X2906729Y1616340D1*
X2912802Y1609304D1*
X2917334Y1601190D1*
X2920140Y1592330D1*
X2920505Y1588836D1*
X2921469Y1588975D1*
X2930528Y1589342D1*
X2939518Y1588172D1*
X2948182Y1585499D1*
X2956269Y1581401D1*
X2963547Y1575995D1*
X2969807Y1569437D1*
X2974869Y1561915D1*
X2978103Y1554720D1*
X2979487Y1558058D1*
X2983925Y1565964D1*
X2989635Y1573006D1*
X2996453Y1578982D1*
X3004183Y1583720D1*
X3012602Y1587083D1*
X3021469Y1588975D1*
X3030528Y1589342D1*
X3039518Y1588172D1*
X3048182Y1585499D1*
X3056269Y1581401D1*
X3063547Y1575995D1*
X3069807Y1569437D1*
X3074869Y1561915D1*
X3078103Y1554720D1*
X3079487Y1558058D1*
X3083925Y1565964D1*
X3089635Y1573006D1*
X3096453Y1578982D1*
X3104183Y1583720D1*
X3112602Y1587083D1*
X3121469Y1588975D1*
X3130528Y1589342D1*
X3139518Y1588172D1*
X3148182Y1585499D1*
X3156269Y1581401D1*
X3163547Y1575995D1*
X3169807Y1569437D1*
X3174869Y1561915D1*
X3178586Y1553646D1*
X3180853Y1544867D1*
X3181603Y1535941D1*
X3180816Y1526800D1*
X3178513Y1518031D1*
X3174762Y1509777D1*
X3169670Y1502276D1*
X3163383Y1495744D1*
X3156083Y1490368D1*
X3147979Y1486302D1*
X3139305Y1483665D1*
X3130310Y1482532D1*
X3121252Y1482935D1*
X3112394Y1484864D1*
X3103988Y1488261D1*
X3096277Y1493030D1*
X3089484Y1499034D1*
X3083803Y1506100D1*
X3079397Y1514024D1*
X3078245Y1517307D1*
X3074762Y1509777D1*
X3069670Y1502276D1*
X3063383Y1495744D1*
X3056083Y1490368D1*
X3047979Y1486302D1*
X3046937Y1485986D1*
X3051833Y1483862D1*
X3059591Y1479170D1*
X3066444Y1473235D1*
X3072196Y1466227D1*
X3076680Y1458348D1*
X3079769Y1449824D1*
X3081373Y1440900D1*
X3081603Y1435941D1*
X3080816Y1426800D1*
X3078513Y1418031D1*
X3074762Y1409777D1*
X3069670Y1402276D1*
X3063383Y1395744D1*
X3056083Y1390368D1*
X3048319Y1386473D1*
X3056639Y1382303D1*
X3064075Y1376818D1*
X3070476Y1370155D1*
X3075659Y1362506D1*
X3078033Y1357271D1*
X3081823Y1364573D1*
X3087338Y1371987D1*
X3094027Y1378361D1*
X3101697Y1383514D1*
X3110127Y1387296D1*
X3119075Y1389600D1*
X3128284Y1390358D1*
X3137488Y1389548D1*
X3146424Y1387195D1*
X3154833Y1383366D1*
X3162473Y1378170D1*
X3169126Y1371758D1*
X3174600Y1364314D1*
X3178737Y1356052D1*
X3181418Y1347209D1*
X3182566Y1338041D1*
X3182608Y1335881D1*
X3181836Y1326738D1*
X3179518Y1317794D1*
X3175722Y1309370D1*
X3170557Y1301708D1*
X3164172Y1295030D1*
X3156749Y1289527D1*
X3148504Y1285357D1*
X3139672Y1282641D1*
X3130508Y1281456D1*
X3121276Y1281838D1*
X3112242Y1283773D1*
X3103664Y1287208D1*
X3095790Y1292044D1*
X3088847Y1298140D1*
X3083034Y1305322D1*
X3078518Y1313383D1*
X3078177Y1314344D1*
X3078032Y1314495D1*
X3075722Y1309370D1*
X3070557Y1301708D1*
X3064172Y1295030D1*
X3056749Y1289527D1*
X3048504Y1285357D1*
X3039672Y1282641D1*
X3030508Y1281456D1*
X3021276Y1281838D1*
X3012242Y1283773D1*
X3003664Y1287208D1*
X2995790Y1292044D1*
X2988847Y1298140D1*
X2983034Y1305322D1*
X2978518Y1313383D1*
X2975429Y1322092D1*
X2973857Y1331197D1*
X2973846Y1340437D1*
X2975397Y1349545D1*
X2978464Y1358261D1*
X2982961Y1366333D1*
X2988757Y1373529D1*
X2995686Y1379642D1*
X3003548Y1384496D1*
X3008176Y1386362D1*
X859796Y1223063D2*
X857592Y1214055D1*
X853972Y1205517D1*
X849028Y1197670D1*
X842890Y1190718D1*
X835717Y1184841D1*
X831368Y1182320D1*
X835556Y1179691D1*
X842749Y1173838D1*
X848911Y1166907D1*
X853881Y1159077D1*
X857530Y1150551D1*
X859765Y1141551D1*
X860527Y1132210D1*
X859796Y1123063D1*
X857592Y1114055D1*
X853972Y1105517D1*
X849028Y1097670D1*
X842890Y1090718D1*
X835717Y1084841D1*
X831368Y1082320D1*
X835556Y1079691D1*
X842749Y1073838D1*
X848911Y1066907D1*
X853881Y1059077D1*
X857530Y1050551D1*
X859765Y1041551D1*
X860527Y1032210D1*
X859796Y1023063D1*
X857592Y1014055D1*
X853972Y1005517D1*
X849028Y997670D1*
X842890Y990718D1*
X835717Y984841D1*
X827693Y980190D1*
X819027Y976887D1*
X809944Y975016D1*
X800678Y974627D1*
X791470Y975729D1*
X782558Y978294D1*
X774172Y982256D1*
X766531Y987511D1*
X759832Y993924D1*
X754248Y1001329D1*
X749924Y1009533D1*
X746973Y1018325D1*
X745469Y1027476D1*
X745454Y1036750D1*
X746926Y1045907D1*
X749848Y1054708D1*
X754144Y1062927D1*
X759702Y1070351D1*
X766380Y1076786D1*
X774003Y1082067D1*
X774273Y1082196D1*
X766531Y1087511D1*
X759832Y1093924D1*
X754248Y1101329D1*
X749924Y1109533D1*
X746973Y1118325D1*
X745469Y1127476D1*
X745454Y1136750D1*
X746926Y1145907D1*
X749848Y1154708D1*
X754144Y1162927D1*
X759702Y1170351D1*
X766380Y1176786D1*
X774003Y1182067D1*
X774273Y1182196D1*
X766531Y1187511D1*
X759832Y1193924D1*
X754248Y1201329D1*
X749924Y1209533D1*
X746973Y1218325D1*
X745469Y1227476D1*
X745454Y1236750D1*
X746926Y1245907D1*
X749848Y1254708D1*
X754144Y1262927D1*
X759702Y1270351D1*
X766380Y1276786D1*
X774003Y1282067D1*
X782375Y1286057D1*
X791278Y1288653D1*
X800483Y1289786D1*
X809750Y1289428D1*
X818840Y1287589D1*
X827516Y1284315D1*
X835556Y1279691D1*
X842749Y1273838D1*
X848911Y1266907D1*
X853881Y1259077D1*
X857530Y1250551D1*
X859765Y1241551D1*
X860527Y1232210D1*
X859796Y1223063D1*
X3794711Y1623887D2*
X3792710Y1614860D1*
X3789417Y1606220D1*
X3784900Y1598152D1*
X3779257Y1590827D1*
X3772607Y1584403D1*
X3765093Y1579015D1*
X3756875Y1574778D1*
X3748127Y1571783D1*
X3739036Y1570094D1*
X3729796Y1569746D1*
X3720604Y1570747D1*
X3711656Y1573077D1*
X3703142Y1576684D1*
X3695245Y1581492D1*
X3688131Y1587399D1*
X3681954Y1594279D1*
X3676843Y1601985D1*
X3672910Y1610352D1*
X3670236Y1619204D1*
X3668880Y1628350D1*
X3668870Y1637596D1*
X3670207Y1646746D1*
X3672861Y1655603D1*
X3676777Y1663979D1*
X3681870Y1671696D1*
X3688033Y1678589D1*
X3693268Y1682955D1*
X3688131Y1687399D1*
X3681954Y1694279D1*
X3676843Y1701985D1*
X3672910Y1710352D1*
X3670236Y1719204D1*
X3668880Y1728350D1*
X3668870Y1737596D1*
X3670207Y1746746D1*
X3672861Y1755603D1*
X3676777Y1763979D1*
X3681870Y1771696D1*
X3688033Y1778589D1*
X3693268Y1782955D1*
X3688131Y1787399D1*
X3681954Y1794279D1*
X3676843Y1801985D1*
X3672910Y1810352D1*
X3670236Y1819204D1*
X3668880Y1828350D1*
X3668870Y1837596D1*
X3670207Y1846746D1*
X3672861Y1855603D1*
X3676777Y1863979D1*
X3681870Y1871696D1*
X3688033Y1878589D1*
X3695134Y1884511D1*
X3703021Y1889336D1*
X3711527Y1892962D1*
X3720470Y1895310D1*
X3729660Y1896331D1*
X3738900Y1896004D1*
X3747995Y1894334D1*
X3756749Y1891358D1*
X3764977Y1887139D1*
X3772502Y1881767D1*
X3779166Y1875357D1*
X3784825Y1868044D1*
X3789359Y1859986D1*
X3792671Y1851353D1*
X3794691Y1842330D1*
X3795376Y1833041D1*
X3794711Y1823887D1*
X3792710Y1814860D1*
X3789417Y1806220D1*
X3784900Y1798152D1*
X3779257Y1790827D1*
X3772607Y1784403D1*
X3770824Y1783124D1*
X3772502Y1781767D1*
X3779166Y1775357D1*
X3784825Y1768044D1*
X3789359Y1759986D1*
X3792671Y1751353D1*
X3794691Y1742330D1*
X3795376Y1733041D1*
X3794711Y1723887D1*
X3792710Y1714860D1*
X3789417Y1706220D1*
X3784900Y1698152D1*
X3779257Y1690827D1*
X3772607Y1684403D1*
X3770824Y1683124D1*
X3772502Y1681767D1*
X3779166Y1675357D1*
X3784825Y1668044D1*
X3789359Y1659986D1*
X3792671Y1651353D1*
X3794691Y1642330D1*
X3795376Y1633041D1*
X3794711Y1623887D1*
Y2023887D2*
X3792710Y2014860D1*
X3789417Y2006220D1*
X3784900Y1998152D1*
X3779257Y1990827D1*
X3772607Y1984403D1*
X3765093Y1979015D1*
X3756875Y1974778D1*
X3748127Y1971783D1*
X3739036Y1970094D1*
X3729796Y1969746D1*
X3720604Y1970747D1*
X3711656Y1973077D1*
X3703142Y1976684D1*
X3695245Y1981492D1*
X3688131Y1987399D1*
X3681954Y1994279D1*
X3676843Y2001985D1*
X3672910Y2010352D1*
X3670236Y2019204D1*
X3668880Y2028350D1*
X3668870Y2037596D1*
X3670207Y2046746D1*
X3672861Y2055603D1*
X3676777Y2063979D1*
X3681870Y2071696D1*
X3688033Y2078589D1*
X3693268Y2082955D1*
X3688131Y2087399D1*
X3681954Y2094279D1*
X3676843Y2101985D1*
X3672910Y2110352D1*
X3670236Y2119204D1*
X3668880Y2128350D1*
X3668870Y2137596D1*
X3670207Y2146746D1*
X3672861Y2155603D1*
X3676777Y2163979D1*
X3681870Y2171696D1*
X3688033Y2178589D1*
X3693268Y2182955D1*
X3688131Y2187399D1*
X3681954Y2194279D1*
X3676843Y2201985D1*
X3672910Y2210352D1*
X3670236Y2219204D1*
X3668880Y2228350D1*
X3668870Y2237596D1*
X3670207Y2246746D1*
X3672861Y2255603D1*
X3676777Y2263979D1*
X3681870Y2271696D1*
X3688033Y2278589D1*
X3695134Y2284511D1*
X3703021Y2289336D1*
X3711527Y2292962D1*
X3720470Y2295310D1*
X3729660Y2296331D1*
X3738900Y2296004D1*
X3747995Y2294334D1*
X3756749Y2291358D1*
X3764977Y2287139D1*
X3772502Y2281767D1*
X3779166Y2275357D1*
X3784825Y2268044D1*
X3789359Y2259986D1*
X3792671Y2251353D1*
X3794691Y2242330D1*
X3795376Y2233041D1*
X3794711Y2223887D1*
X3792710Y2214860D1*
X3789417Y2206220D1*
X3784900Y2198152D1*
X3779257Y2190827D1*
X3772607Y2184403D1*
X3770824Y2183124D1*
X3772502Y2181767D1*
X3779166Y2175357D1*
X3784825Y2168044D1*
X3789359Y2159986D1*
X3792671Y2151353D1*
X3794691Y2142330D1*
X3795376Y2133041D1*
X3794711Y2123887D1*
X3792710Y2114860D1*
X3789417Y2106220D1*
X3784900Y2098152D1*
X3779257Y2090827D1*
X3772607Y2084403D1*
X3770824Y2083124D1*
X3772502Y2081767D1*
X3779166Y2075357D1*
X3784825Y2068044D1*
X3789359Y2059986D1*
X3792671Y2051353D1*
X3794691Y2042330D1*
X3795376Y2033041D1*
X3794711Y2023887D1*
Y2423887D2*
X3792710Y2414860D1*
X3789417Y2406220D1*
X3784900Y2398152D1*
X3779257Y2390827D1*
X3772607Y2384403D1*
X3765093Y2379015D1*
X3756875Y2374778D1*
X3748127Y2371783D1*
X3739036Y2370094D1*
X3729796Y2369746D1*
X3720604Y2370747D1*
X3711656Y2373077D1*
X3703142Y2376684D1*
X3695245Y2381492D1*
X3688131Y2387399D1*
X3681954Y2394279D1*
X3676843Y2401985D1*
X3672910Y2410352D1*
X3670236Y2419204D1*
X3668880Y2428350D1*
X3668870Y2437596D1*
X3670207Y2446746D1*
X3672861Y2455603D1*
X3676777Y2463979D1*
X3681870Y2471696D1*
X3688033Y2478589D1*
X3695134Y2484511D1*
X3703021Y2489336D1*
X3711527Y2492962D1*
X3720470Y2495310D1*
X3729660Y2496331D1*
X3738900Y2496004D1*
X3747995Y2494334D1*
X3756749Y2491358D1*
X3764977Y2487139D1*
X3772502Y2481767D1*
X3779166Y2475357D1*
X3784825Y2468044D1*
X3789359Y2459986D1*
X3792671Y2451353D1*
X3794691Y2442330D1*
X3795376Y2433041D1*
X3794711Y2423887D1*
X3794261Y547517D2*
X3792260Y538490D1*
X3788966Y529850D1*
X3784450Y521782D1*
X3778807Y514457D1*
X3772157Y508033D1*
X3764643Y502644D1*
X3756424Y498408D1*
X3747677Y495413D1*
X3738586Y493724D1*
X3729346Y493376D1*
X3720154Y494377D1*
X3711206Y496706D1*
X3702692Y500314D1*
X3694795Y505122D1*
X3687681Y511029D1*
X3681503Y517909D1*
X3676393Y525614D1*
X3672460Y533982D1*
X3669786Y542834D1*
X3668430Y551980D1*
X3668420Y561226D1*
X3669757Y570375D1*
X3672411Y579233D1*
X3676327Y587609D1*
X3681420Y595326D1*
X3687583Y602219D1*
X3692818Y606585D1*
X3687681Y611029D1*
X3681503Y617909D1*
X3676393Y625614D1*
X3672460Y633982D1*
X3669786Y642834D1*
X3668430Y651980D1*
X3668420Y661226D1*
X3669757Y670375D1*
X3672411Y679233D1*
X3676327Y687609D1*
X3681420Y695326D1*
X3687583Y702219D1*
X3692818Y706585D1*
X3687681Y711029D1*
X3681503Y717909D1*
X3676393Y725614D1*
X3672460Y733982D1*
X3669786Y742834D1*
X3668430Y751980D1*
X3668420Y761226D1*
X3669757Y770375D1*
X3672411Y779233D1*
X3676327Y787609D1*
X3681420Y795326D1*
X3687583Y802219D1*
X3694684Y808141D1*
X3702571Y812966D1*
X3711077Y816592D1*
X3720020Y818940D1*
X3729210Y819961D1*
X3738450Y819634D1*
X3747545Y817964D1*
X3756299Y814988D1*
X3764527Y810769D1*
X3772052Y805397D1*
X3778716Y798986D1*
X3784375Y791674D1*
X3788909Y783616D1*
X3792221Y774983D1*
X3794241Y765960D1*
X3794926Y756671D1*
X3794261Y747517D1*
X3792260Y738490D1*
X3788966Y729850D1*
X3784450Y721782D1*
X3778807Y714457D1*
X3772157Y708033D1*
X3770374Y706754D1*
X3772052Y705397D1*
X3778716Y698986D1*
X3784375Y691674D1*
X3788909Y683616D1*
X3792221Y674983D1*
X3794241Y665960D1*
X3794926Y656671D1*
X3794261Y647517D1*
X3792260Y638490D1*
X3788966Y629850D1*
X3784450Y621782D1*
X3778807Y614457D1*
X3772157Y608033D1*
X3770374Y606754D1*
X3772052Y605397D1*
X3778716Y598986D1*
X3784375Y591674D1*
X3788909Y583616D1*
X3792221Y574983D1*
X3794241Y565960D1*
X3794926Y556671D1*
X3794261Y547517D1*
Y947517D2*
X3792260Y938490D1*
X3788966Y929850D1*
X3784450Y921782D1*
X3778807Y914457D1*
X3772157Y908033D1*
X3764643Y902644D1*
X3756424Y898408D1*
X3747677Y895413D1*
X3738586Y893724D1*
X3729346Y893376D1*
X3720154Y894377D1*
X3711206Y896706D1*
X3702692Y900314D1*
X3694795Y905122D1*
X3687681Y911029D1*
X3681503Y917909D1*
X3676393Y925614D1*
X3672460Y933982D1*
X3669786Y942834D1*
X3668430Y951980D1*
X3668420Y961226D1*
X3669757Y970375D1*
X3672411Y979233D1*
X3676327Y987609D1*
X3681420Y995326D1*
X3687583Y1002219D1*
X3692818Y1006585D1*
X3687681Y1011029D1*
X3681503Y1017909D1*
X3676393Y1025614D1*
X3672460Y1033982D1*
X3669786Y1042834D1*
X3668430Y1051980D1*
X3668420Y1061226D1*
X3669757Y1070375D1*
X3672411Y1079233D1*
X3676327Y1087609D1*
X3681420Y1095326D1*
X3687583Y1102219D1*
X3692818Y1106585D1*
X3687681Y1111029D1*
X3681503Y1117909D1*
X3676393Y1125614D1*
X3672460Y1133982D1*
X3669786Y1142834D1*
X3668430Y1151980D1*
X3668420Y1161226D1*
X3669757Y1170375D1*
X3672411Y1179233D1*
X3676327Y1187609D1*
X3681420Y1195326D1*
X3687583Y1202219D1*
X3692818Y1206585D1*
X3687681Y1211029D1*
X3681503Y1217909D1*
X3676393Y1225614D1*
X3672460Y1233982D1*
X3669786Y1242834D1*
X3668430Y1251980D1*
X3668420Y1261226D1*
X3669757Y1270375D1*
X3672411Y1279233D1*
X3676327Y1287609D1*
X3681420Y1295326D1*
X3687583Y1302219D1*
X3692818Y1306585D1*
X3687681Y1311029D1*
X3681503Y1317909D1*
X3676393Y1325614D1*
X3672460Y1333982D1*
X3669786Y1342834D1*
X3668430Y1351980D1*
X3668420Y1361226D1*
X3669757Y1370375D1*
X3672411Y1379233D1*
X3676327Y1387609D1*
X3681420Y1395326D1*
X3687583Y1402219D1*
X3694684Y1408141D1*
X3702571Y1412966D1*
X3711077Y1416592D1*
X3720020Y1418940D1*
X3729210Y1419961D1*
X3738450Y1419634D1*
X3747545Y1417964D1*
X3756299Y1414988D1*
X3764527Y1410769D1*
X3772052Y1405397D1*
X3778716Y1398986D1*
X3784375Y1391674D1*
X3788909Y1383616D1*
X3792221Y1374983D1*
X3794241Y1365960D1*
X3794926Y1356671D1*
X3794261Y1347517D1*
X3792260Y1338490D1*
X3788966Y1329850D1*
X3784450Y1321782D1*
X3778807Y1314457D1*
X3772157Y1308033D1*
X3770374Y1306754D1*
X3772052Y1305397D1*
X3778716Y1298986D1*
X3784375Y1291674D1*
X3788909Y1283616D1*
X3792221Y1274983D1*
X3794241Y1265960D1*
X3794926Y1256671D1*
X3794261Y1247517D1*
X3792260Y1238490D1*
X3788966Y1229850D1*
X3784450Y1221782D1*
X3778807Y1214457D1*
X3772157Y1208033D1*
X3770374Y1206754D1*
X3772052Y1205397D1*
X3778716Y1198986D1*
X3784375Y1191674D1*
X3788909Y1183616D1*
X3792221Y1174983D1*
X3794241Y1165960D1*
X3794926Y1156671D1*
X3794261Y1147517D1*
X3792260Y1138490D1*
X3788966Y1129850D1*
X3784450Y1121782D1*
X3778807Y1114457D1*
X3772157Y1108033D1*
X3770374Y1106754D1*
X3772052Y1105397D1*
X3778716Y1098986D1*
X3784375Y1091674D1*
X3788909Y1083616D1*
X3792221Y1074983D1*
X3794241Y1065960D1*
X3794926Y1056671D1*
X3794261Y1047517D1*
X3792260Y1038490D1*
X3788966Y1029850D1*
X3784450Y1021782D1*
X3778807Y1014457D1*
X3772157Y1008033D1*
X3770374Y1006754D1*
X3772052Y1005397D1*
X3778716Y998986D1*
X3784375Y991674D1*
X3788909Y983616D1*
X3792221Y974983D1*
X3794241Y965960D1*
X3794926Y956671D1*
X3794261Y947517D1*
X2131461Y2880534D2*
X2129151Y2875409D1*
X2123986Y2867747D1*
X2117601Y2861069D1*
X2110178Y2855566D1*
X2101933Y2851396D1*
X2093101Y2848680D1*
X2083938Y2847496D1*
X2074706Y2847877D1*
X2065671Y2849813D1*
X2057093Y2853248D1*
X2049219Y2858083D1*
X2042276Y2864179D1*
X2036463Y2871361D1*
X2031947Y2879423D1*
X2028858Y2888131D1*
X2027286Y2897236D1*
X2027275Y2906476D1*
X2028826Y2915585D1*
X2031894Y2924301D1*
X2036390Y2932372D1*
X2042186Y2939568D1*
X2049115Y2945681D1*
X2056978Y2950535D1*
X2065547Y2953990D1*
X2074577Y2955948D1*
X2083808Y2956351D1*
X2092975Y2955188D1*
X2101813Y2952493D1*
X2110068Y2948343D1*
X2117504Y2942857D1*
X2123905Y2936194D1*
X2129088Y2928545D1*
X2131462Y2923310D1*
X2135252Y2930613D1*
X2140768Y2938026D1*
X2147456Y2944401D1*
X2155126Y2949553D1*
X2163556Y2953336D1*
X2172504Y2955639D1*
X2181713Y2956397D1*
X2190918Y2955588D1*
X2199853Y2953234D1*
X2208262Y2949405D1*
X2215903Y2944209D1*
X2222555Y2937797D1*
X2228029Y2930353D1*
X2232166Y2922091D1*
X2234847Y2913249D1*
X2235995Y2904080D1*
X2236038Y2901920D1*
X2235265Y2892778D1*
X2232947Y2883833D1*
X2229151Y2875409D1*
X2223986Y2867747D1*
X2217601Y2861069D1*
X2210178Y2855566D1*
X2201933Y2851396D1*
X2193101Y2848680D1*
X2183938Y2847496D1*
X2174706Y2847877D1*
X2165671Y2849813D1*
X2157093Y2853248D1*
X2149219Y2858083D1*
X2142276Y2864179D1*
X2136463Y2871361D1*
X2131947Y2879423D1*
X2131606Y2880384D1*
X1278306Y1892230D2*
X1275663Y1887918D1*
X1269708Y1880949D1*
X1262737Y1874998D1*
X1254921Y1870210D1*
X1246452Y1866704D1*
X1237539Y1864566D1*
X1228401Y1863848D1*
X1219263Y1864569D1*
X1210350Y1866710D1*
X1201882Y1870220D1*
X1194068Y1875010D1*
X1187099Y1880965D1*
X1181147Y1887936D1*
X1176359Y1895752D1*
X1172853Y1904221D1*
X1170715Y1913134D1*
X1169998Y1922272D1*
X1170718Y1931410D1*
X1172860Y1940323D1*
X1176369Y1948791D1*
X1181160Y1956605D1*
X1187114Y1963574D1*
X1194085Y1969526D1*
X1198383Y1972158D1*
X1194068Y1975010D1*
X1187099Y1980965D1*
X1181147Y1987936D1*
X1176359Y1995752D1*
X1172853Y2004221D1*
X1170715Y2013134D1*
X1169998Y2022272D1*
X1170718Y2031410D1*
X1172860Y2040323D1*
X1176369Y2048791D1*
X1181160Y2056605D1*
X1187114Y2063574D1*
X1194085Y2069526D1*
X1201902Y2074314D1*
X1210371Y2077820D1*
X1219284Y2079958D1*
X1228422Y2080675D1*
X1237560Y2079954D1*
X1246472Y2077813D1*
X1254940Y2074304D1*
X1262755Y2069513D1*
X1269724Y2063559D1*
X1275675Y2056588D1*
X1278308Y2052290D1*
X1281160Y2056605D1*
X1287114Y2063574D1*
X1294085Y2069526D1*
X1301902Y2074314D1*
X1310371Y2077820D1*
X1319284Y2079958D1*
X1328422Y2080675D1*
X1337560Y2079954D1*
X1346472Y2077813D1*
X1354940Y2074304D1*
X1362755Y2069513D1*
X1369724Y2063559D1*
X1375675Y2056588D1*
X1380463Y2048771D1*
X1383969Y2040302D1*
X1386107Y2031389D1*
X1386825Y2022262D1*
X1386104Y2013113D1*
X1383963Y2004201D1*
X1380453Y1995733D1*
X1375663Y1987918D1*
X1369708Y1980949D1*
X1362737Y1974998D1*
X1358440Y1972365D1*
X1362755Y1969513D1*
X1369724Y1963559D1*
X1375675Y1956588D1*
X1378308Y1952290D1*
X1381160Y1956605D1*
X1387114Y1963574D1*
X1394085Y1969526D1*
X1401902Y1974314D1*
X1410371Y1977820D1*
X1419284Y1979958D1*
X1428422Y1980675D1*
X1437560Y1979954D1*
X1446472Y1977813D1*
X1454940Y1974304D1*
X1462755Y1969513D1*
X1469724Y1963559D1*
X1475675Y1956588D1*
X1478308Y1952290D1*
X1481160Y1956605D1*
X1487114Y1963574D1*
X1494085Y1969526D1*
X1498383Y1972158D1*
X1494068Y1975010D1*
X1487099Y1980965D1*
X1481147Y1987936D1*
X1476359Y1995752D1*
X1472853Y2004221D1*
X1470715Y2013134D1*
X1469998Y2022272D1*
X1470718Y2031410D1*
X1472860Y2040323D1*
X1476369Y2048791D1*
X1481160Y2056605D1*
X1487114Y2063574D1*
X1494085Y2069526D1*
X1501902Y2074314D1*
X1510371Y2077820D1*
X1519284Y2079958D1*
X1528422Y2080675D1*
X1537560Y2079954D1*
X1546472Y2077813D1*
X1554940Y2074304D1*
X1562755Y2069513D1*
X1569724Y2063559D1*
X1575675Y2056588D1*
X1578308Y2052290D1*
X1581160Y2056605D1*
X1587114Y2063574D1*
X1594085Y2069526D1*
X1601902Y2074314D1*
X1610371Y2077820D1*
X1619284Y2079958D1*
X1628422Y2080675D1*
X1637560Y2079954D1*
X1646472Y2077813D1*
X1654940Y2074304D1*
X1662755Y2069513D1*
X1669724Y2063559D1*
X1675675Y2056588D1*
X1678308Y2052290D1*
X1681160Y2056605D1*
X1687114Y2063574D1*
X1694085Y2069526D1*
X1701902Y2074314D1*
X1710371Y2077820D1*
X1719284Y2079958D1*
X1728422Y2080675D1*
X1737560Y2079954D1*
X1746472Y2077813D1*
X1754940Y2074304D1*
X1762755Y2069513D1*
X1769724Y2063559D1*
X1775675Y2056588D1*
X1780463Y2048771D1*
X1783969Y2040302D1*
X1786107Y2031389D1*
X1786825Y2022262D1*
X1786104Y2013113D1*
X1783963Y2004201D1*
X1780453Y1995733D1*
X1775663Y1987918D1*
X1769708Y1980949D1*
X1762737Y1974998D1*
X1758440Y1972365D1*
X1762755Y1969513D1*
X1769724Y1963559D1*
X1775675Y1956588D1*
X1778308Y1952290D1*
X1781160Y1956605D1*
X1787114Y1963574D1*
X1794085Y1969526D1*
X1801902Y1974314D1*
X1810371Y1977820D1*
X1819284Y1979958D1*
X1828422Y1980675D1*
X1837560Y1979954D1*
X1846472Y1977813D1*
X1854940Y1974304D1*
X1862755Y1969513D1*
X1869724Y1963559D1*
X1875675Y1956588D1*
X1878308Y1952290D1*
X1881160Y1956605D1*
X1887114Y1963574D1*
X1894085Y1969526D1*
X1898383Y1972158D1*
X1894068Y1975010D1*
X1887099Y1980965D1*
X1881147Y1987936D1*
X1876359Y1995752D1*
X1872853Y2004221D1*
X1870715Y2013134D1*
X1869998Y2022272D1*
X1870718Y2031410D1*
X1872860Y2040323D1*
X1876369Y2048791D1*
X1881160Y2056605D1*
X1887114Y2063574D1*
X1894085Y2069526D1*
X1901902Y2074314D1*
X1910371Y2077820D1*
X1919284Y2079958D1*
X1928422Y2080675D1*
X1937560Y2079954D1*
X1946472Y2077813D1*
X1954940Y2074304D1*
X1962755Y2069513D1*
X1969724Y2063559D1*
X1975675Y2056588D1*
X1978308Y2052290D1*
X1981160Y2056605D1*
X1987114Y2063574D1*
X1994085Y2069526D1*
X2001902Y2074314D1*
X2010371Y2077820D1*
X2019284Y2079958D1*
X2028422Y2080675D1*
X2037560Y2079954D1*
X2046472Y2077813D1*
X2054940Y2074304D1*
X2062755Y2069513D1*
X2069724Y2063559D1*
X2075675Y2056588D1*
X2080463Y2048771D1*
X2083969Y2040302D1*
X2086107Y2031389D1*
X2086825Y2022262D1*
X2086104Y2013113D1*
X2083963Y2004201D1*
X2080453Y1995733D1*
X2075663Y1987918D1*
X2069708Y1980949D1*
X2062737Y1974998D1*
X2058440Y1972365D1*
X2064258Y1968383D1*
X2071031Y1962208D1*
X2076755Y1955049D1*
X2078318Y1952303D1*
X2081160Y1956605D1*
X2087114Y1963574D1*
X2094085Y1969526D1*
X2101902Y1974314D1*
X2110371Y1977820D1*
X2119284Y1979958D1*
X2128422Y1980675D1*
X2137560Y1979954D1*
X2146472Y1977813D1*
X2154940Y1974304D1*
X2162755Y1969513D1*
X2169724Y1963559D1*
X2175675Y1956588D1*
X2178308Y1952290D1*
X2181160Y1956605D1*
X2187114Y1963574D1*
X2194085Y1969526D1*
X2198383Y1972158D1*
X2194068Y1975010D1*
X2187099Y1980965D1*
X2181147Y1987936D1*
X2176359Y1995752D1*
X2172853Y2004221D1*
X2170715Y2013134D1*
X2169998Y2022272D1*
X2170718Y2031410D1*
X2172860Y2040323D1*
X2176369Y2048791D1*
X2181160Y2056605D1*
X2187114Y2063574D1*
X2194085Y2069526D1*
X2201902Y2074314D1*
X2210371Y2077820D1*
X2219284Y2079958D1*
X2228422Y2080675D1*
X2237560Y2079954D1*
X2246472Y2077813D1*
X2254940Y2074304D1*
X2262755Y2069513D1*
X2269724Y2063559D1*
X2275675Y2056588D1*
X2278308Y2052290D1*
X2281160Y2056605D1*
X2287114Y2063574D1*
X2294085Y2069526D1*
X2301902Y2074314D1*
X2310371Y2077820D1*
X2319284Y2079958D1*
X2328422Y2080675D1*
X2337560Y2079954D1*
X2346472Y2077813D1*
X2354940Y2074304D1*
X2362755Y2069513D1*
X2369724Y2063559D1*
X2375675Y2056588D1*
X2378308Y2052290D1*
X2381160Y2056605D1*
X2387114Y2063574D1*
X2394085Y2069526D1*
X2401902Y2074314D1*
X2410371Y2077820D1*
X2419284Y2079958D1*
X2428422Y2080675D1*
X2437560Y2079954D1*
X2446472Y2077813D1*
X2454940Y2074304D1*
X2462755Y2069513D1*
X2469724Y2063559D1*
X2475675Y2056588D1*
X2478308Y2052290D1*
X2481160Y2056605D1*
X2487114Y2063574D1*
X2494085Y2069526D1*
X2501902Y2074314D1*
X2510371Y2077820D1*
X2519284Y2079958D1*
X2528422Y2080675D1*
X2537560Y2079954D1*
X2546472Y2077813D1*
X2554940Y2074304D1*
X2562755Y2069513D1*
X2569724Y2063559D1*
X2575675Y2056588D1*
X2580463Y2048771D1*
X2583969Y2040302D1*
X2586107Y2031389D1*
X2586825Y2022262D1*
X2586104Y2013113D1*
X2583963Y2004201D1*
X2580453Y1995733D1*
X2575663Y1987918D1*
X2569708Y1980949D1*
X2562737Y1974998D1*
X2558440Y1972365D1*
X2562755Y1969513D1*
X2569724Y1963559D1*
X2575675Y1956588D1*
X2578308Y1952290D1*
X2581160Y1956605D1*
X2587114Y1963574D1*
X2594085Y1969526D1*
X2601902Y1974314D1*
X2610371Y1977820D1*
X2619284Y1979958D1*
X2628422Y1980675D1*
X2637560Y1979954D1*
X2646472Y1977813D1*
X2654940Y1974304D1*
X2662755Y1969513D1*
X2669724Y1963559D1*
X2675675Y1956588D1*
X2678308Y1952290D1*
X2681160Y1956605D1*
X2687114Y1963574D1*
X2694085Y1969526D1*
X2698383Y1972158D1*
X2694068Y1975010D1*
X2687099Y1980965D1*
X2681147Y1987936D1*
X2676359Y1995752D1*
X2672853Y2004221D1*
X2670715Y2013134D1*
X2669998Y2022272D1*
X2670718Y2031410D1*
X2672860Y2040323D1*
X2676369Y2048791D1*
X2681160Y2056605D1*
X2687114Y2063574D1*
X2694085Y2069526D1*
X2701902Y2074314D1*
X2710371Y2077820D1*
X2719284Y2079958D1*
X2728422Y2080675D1*
X2737560Y2079954D1*
X2746472Y2077813D1*
X2754940Y2074304D1*
X2762755Y2069513D1*
X2769724Y2063559D1*
X2775675Y2056588D1*
X2780463Y2048771D1*
X2783969Y2040302D1*
X2786107Y2031389D1*
X2786825Y2022262D1*
X2786104Y2013113D1*
X2783963Y2004201D1*
X2780453Y1995733D1*
X2775663Y1987918D1*
X2769708Y1980949D1*
X2762737Y1974998D1*
X2758440Y1972365D1*
X2762755Y1969513D1*
X2769724Y1963559D1*
X2775675Y1956588D1*
X2778308Y1952290D1*
X2781160Y1956605D1*
X2787114Y1963574D1*
X2794085Y1969526D1*
X2801902Y1974314D1*
X2810371Y1977820D1*
X2819284Y1979958D1*
X2828422Y1980675D1*
X2837560Y1979954D1*
X2846472Y1977813D1*
X2854940Y1974304D1*
X2862755Y1969513D1*
X2869724Y1963559D1*
X2875675Y1956588D1*
X2878308Y1952290D1*
X2881160Y1956605D1*
X2887114Y1963574D1*
X2894085Y1969526D1*
X2898383Y1972158D1*
X2894068Y1975010D1*
X2887099Y1980965D1*
X2881147Y1987936D1*
X2876359Y1995752D1*
X2872853Y2004221D1*
X2870715Y2013134D1*
X2869998Y2022272D1*
X2870718Y2031410D1*
X2872860Y2040323D1*
X2876369Y2048791D1*
X2881160Y2056605D1*
X2887114Y2063574D1*
X2894085Y2069526D1*
X2901902Y2074314D1*
X2910371Y2077820D1*
X2919284Y2079958D1*
X2928422Y2080675D1*
X2937560Y2079954D1*
X2946472Y2077813D1*
X2954940Y2074304D1*
X2962755Y2069513D1*
X2969724Y2063559D1*
X2975675Y2056588D1*
X2978308Y2052290D1*
X2981160Y2056605D1*
X2987114Y2063574D1*
X2994085Y2069526D1*
X3001902Y2074314D1*
X3010371Y2077820D1*
X3019284Y2079958D1*
X3028422Y2080675D1*
X3037560Y2079954D1*
X3046472Y2077813D1*
X3054940Y2074304D1*
X3062755Y2069513D1*
X3069724Y2063559D1*
X3075675Y2056588D1*
X3078308Y2052290D1*
X3081160Y2056605D1*
X3087114Y2063574D1*
X3094085Y2069526D1*
X3101902Y2074314D1*
X3110371Y2077820D1*
X3119284Y2079958D1*
X3128422Y2080675D1*
X3137560Y2079954D1*
X3146472Y2077813D1*
X3154940Y2074304D1*
X3162755Y2069513D1*
X3169724Y2063559D1*
X3175675Y2056588D1*
X3180463Y2048771D1*
X3183969Y2040302D1*
X3186107Y2031389D1*
X3186825Y2022262D1*
X3186104Y2013113D1*
X3183963Y2004201D1*
X3180453Y1995733D1*
X3175663Y1987918D1*
X3169708Y1980949D1*
X3162737Y1974998D1*
X3154921Y1970210D1*
X3146452Y1966704D1*
X3137539Y1964566D1*
X3128401Y1963848D1*
X3119263Y1964569D1*
X3110350Y1966710D1*
X3101882Y1970220D1*
X3094068Y1975010D1*
X3087099Y1980965D1*
X3081147Y1987936D1*
X3078515Y1992233D1*
X3075663Y1987918D1*
X3069708Y1980949D1*
X3062737Y1974998D1*
X3058440Y1972365D1*
X3062755Y1969513D1*
X3069724Y1963559D1*
X3075675Y1956588D1*
X3080463Y1948771D1*
X3083969Y1940302D1*
X3086107Y1931389D1*
X3086825Y1922262D1*
X3086104Y1913113D1*
X3083963Y1904201D1*
X3080453Y1895733D1*
X3075663Y1887918D1*
X3069708Y1880949D1*
X3062737Y1874998D1*
X3054921Y1870210D1*
X3046452Y1866704D1*
X3037539Y1864566D1*
X3028401Y1863848D1*
X3019263Y1864569D1*
X3010350Y1866710D1*
X3001882Y1870220D1*
X2994068Y1875010D1*
X2987099Y1880965D1*
X2981147Y1887936D1*
X2978515Y1892233D1*
X2975663Y1887918D1*
X2969708Y1880949D1*
X2962737Y1874998D1*
X2954921Y1870210D1*
X2946452Y1866704D1*
X2937539Y1864566D1*
X2928401Y1863848D1*
X2919263Y1864569D1*
X2910350Y1866710D1*
X2901882Y1870220D1*
X2894068Y1875010D1*
X2887099Y1880965D1*
X2881147Y1887936D1*
X2878515Y1892233D1*
X2875663Y1887918D1*
X2869708Y1880949D1*
X2862737Y1874998D1*
X2854921Y1870210D1*
X2846452Y1866704D1*
X2837539Y1864566D1*
X2828401Y1863848D1*
X2819263Y1864569D1*
X2810350Y1866710D1*
X2801882Y1870220D1*
X2794068Y1875010D1*
X2787099Y1880965D1*
X2781147Y1887936D1*
X2778515Y1892233D1*
X2775663Y1887918D1*
X2769708Y1880949D1*
X2762737Y1874998D1*
X2754921Y1870210D1*
X2746452Y1866704D1*
X2737539Y1864566D1*
X2728401Y1863848D1*
X2719263Y1864569D1*
X2710350Y1866710D1*
X2701882Y1870220D1*
X2694068Y1875010D1*
X2687099Y1880965D1*
X2681147Y1887936D1*
X2678515Y1892233D1*
X2675663Y1887918D1*
X2669708Y1880949D1*
X2662737Y1874998D1*
X2654921Y1870210D1*
X2646452Y1866704D1*
X2637539Y1864566D1*
X2628401Y1863848D1*
X2619263Y1864569D1*
X2610350Y1866710D1*
X2601882Y1870220D1*
X2594068Y1875010D1*
X2587099Y1880965D1*
X2581147Y1887936D1*
X2578515Y1892233D1*
X2575663Y1887918D1*
X2569708Y1880949D1*
X2562737Y1874998D1*
X2554921Y1870210D1*
X2546452Y1866704D1*
X2537539Y1864566D1*
X2528401Y1863848D1*
X2519263Y1864569D1*
X2510350Y1866710D1*
X2501882Y1870220D1*
X2494068Y1875010D1*
X2487099Y1880965D1*
X2481147Y1887936D1*
X2476359Y1895752D1*
X2472853Y1904221D1*
X2470715Y1913134D1*
X2469998Y1922272D1*
X2470718Y1931410D1*
X2472860Y1940323D1*
X2476369Y1948791D1*
X2481160Y1956605D1*
X2487114Y1963574D1*
X2494085Y1969526D1*
X2498383Y1972158D1*
X2494068Y1975010D1*
X2487099Y1980965D1*
X2481147Y1987936D1*
X2478515Y1992233D1*
X2475663Y1987918D1*
X2469708Y1980949D1*
X2462737Y1974998D1*
X2454921Y1970210D1*
X2446452Y1966704D1*
X2437539Y1964566D1*
X2428401Y1963848D1*
X2419263Y1964569D1*
X2410350Y1966710D1*
X2401882Y1970220D1*
X2394068Y1975010D1*
X2387099Y1980965D1*
X2381147Y1987936D1*
X2378515Y1992233D1*
X2375663Y1987918D1*
X2369708Y1980949D1*
X2362737Y1974998D1*
X2358440Y1972365D1*
X2362755Y1969513D1*
X2369724Y1963559D1*
X2375675Y1956588D1*
X2380463Y1948771D1*
X2383969Y1940302D1*
X2386107Y1931389D1*
X2386825Y1922262D1*
X2386104Y1913113D1*
X2383963Y1904201D1*
X2380453Y1895733D1*
X2375663Y1887918D1*
X2369708Y1880949D1*
X2362737Y1874998D1*
X2354921Y1870210D1*
X2346452Y1866704D1*
X2337539Y1864566D1*
X2328401Y1863848D1*
X2319263Y1864569D1*
X2310350Y1866710D1*
X2301882Y1870220D1*
X2294068Y1875010D1*
X2287099Y1880965D1*
X2281147Y1887936D1*
X2278515Y1892233D1*
X2275663Y1887918D1*
X2269708Y1880949D1*
X2262737Y1874998D1*
X2254921Y1870210D1*
X2246452Y1866704D1*
X2237539Y1864566D1*
X2228401Y1863848D1*
X2219263Y1864569D1*
X2210350Y1866710D1*
X2201882Y1870220D1*
X2194068Y1875010D1*
X2187099Y1880965D1*
X2181147Y1887936D1*
X2178515Y1892233D1*
X2175663Y1887918D1*
X2169708Y1880949D1*
X2162737Y1874998D1*
X2154921Y1870210D1*
X2146452Y1866704D1*
X2137539Y1864566D1*
X2128401Y1863848D1*
X2119263Y1864569D1*
X2110350Y1866710D1*
X2101882Y1870220D1*
X2094068Y1875010D1*
X2087099Y1880965D1*
X2081147Y1887936D1*
X2078515Y1892233D1*
X2075663Y1887918D1*
X2069708Y1880949D1*
X2062737Y1874998D1*
X2054921Y1870210D1*
X2046452Y1866704D1*
X2044696Y1866164D1*
X2042924Y1865679D1*
X2041137Y1865251D1*
X2038555Y1864743D1*
X2040982Y1864258D1*
X2042765Y1863814D1*
X2044528Y1863300D1*
X2046270Y1862715D1*
X2047987Y1862061D1*
X2056208Y1857726D1*
X2063388Y1851824D1*
X2069233Y1844599D1*
X2073504Y1836344D1*
X2076026Y1827399D1*
X2076715Y1819472D1*
X2075799Y1810346D1*
X2073041Y1801471D1*
X2068552Y1793333D1*
X2067462Y1792056D1*
X2070848Y1793087D1*
X2080031Y1794519D1*
X2089314Y1794074D1*
X2098318Y1791768D1*
X2106673Y1787698D1*
X2114038Y1782029D1*
X2120111Y1774993D1*
X2124643Y1766879D1*
X2127449Y1758019D1*
X2128414Y1748651D1*
X2127499Y1739526D1*
X2124740Y1730651D1*
X2120252Y1722513D1*
X2114217Y1715445D1*
X2106883Y1709736D1*
X2098550Y1705620D1*
X2089559Y1703267D1*
X2080278Y1702771D1*
X2071087Y1704154D1*
X2062363Y1707358D1*
X2054463Y1712253D1*
X2047709Y1718638D1*
X2042379Y1726252D1*
X2038691Y1734783D1*
X2036796Y1743882D1*
X2036771Y1753175D1*
X2038617Y1762284D1*
X2042259Y1770835D1*
X2045901Y1776096D1*
X2037859Y1774087D1*
X2028578Y1773591D1*
X2019388Y1774974D1*
X2010664Y1778178D1*
X2002763Y1783073D1*
X1996010Y1789458D1*
X1990680Y1797072D1*
X1986992Y1805603D1*
X1985096Y1814702D1*
X1985071Y1823996D1*
X1986918Y1833104D1*
X1990560Y1841655D1*
X1995849Y1849297D1*
X2002568Y1855719D1*
X2010442Y1860656D1*
X2019148Y1863908D1*
X2020912Y1864332D1*
X2019231Y1864574D1*
X2017421Y1864891D1*
X2015623Y1865265D1*
X2013836Y1865696D1*
X2012065Y1866182D1*
X2010309Y1866724D1*
X2008572Y1867320D1*
X2000221Y1871100D1*
X1992565Y1876140D1*
X1985791Y1882316D1*
X1980067Y1889475D1*
X1978504Y1892221D1*
X1975663Y1887918D1*
X1969708Y1880949D1*
X1962737Y1874998D1*
X1954921Y1870210D1*
X1946452Y1866704D1*
X1937539Y1864566D1*
X1928401Y1863848D1*
X1919263Y1864569D1*
X1910350Y1866710D1*
X1901882Y1870220D1*
X1894068Y1875010D1*
X1887099Y1880965D1*
X1881147Y1887936D1*
X1878515Y1892233D1*
X1875663Y1887918D1*
X1869708Y1880949D1*
X1862737Y1874998D1*
X1854921Y1870210D1*
X1846452Y1866704D1*
X1837539Y1864566D1*
X1828401Y1863848D1*
X1819263Y1864569D1*
X1810350Y1866710D1*
X1801882Y1870220D1*
X1794068Y1875010D1*
X1787099Y1880965D1*
X1781147Y1887936D1*
X1778515Y1892233D1*
X1775663Y1887918D1*
X1769708Y1880949D1*
X1762737Y1874998D1*
X1754921Y1870210D1*
X1746452Y1866704D1*
X1737539Y1864566D1*
X1728401Y1863848D1*
X1719263Y1864569D1*
X1710350Y1866710D1*
X1701882Y1870220D1*
X1694068Y1875010D1*
X1687099Y1880965D1*
X1681147Y1887936D1*
X1676359Y1895752D1*
X1672853Y1904221D1*
X1670715Y1913134D1*
X1669998Y1922272D1*
X1670718Y1931410D1*
X1672860Y1940323D1*
X1676369Y1948791D1*
X1681160Y1956605D1*
X1687114Y1963574D1*
X1694085Y1969526D1*
X1698383Y1972158D1*
X1694068Y1975010D1*
X1687099Y1980965D1*
X1681147Y1987936D1*
X1678515Y1992233D1*
X1675663Y1987918D1*
X1669708Y1980949D1*
X1662737Y1974998D1*
X1654921Y1970210D1*
X1646452Y1966704D1*
X1637539Y1964566D1*
X1628401Y1963848D1*
X1619263Y1964569D1*
X1610350Y1966710D1*
X1601882Y1970220D1*
X1594068Y1975010D1*
X1587099Y1980965D1*
X1581147Y1987936D1*
X1578515Y1992233D1*
X1575663Y1987918D1*
X1569708Y1980949D1*
X1562737Y1974998D1*
X1558440Y1972365D1*
X1562755Y1969513D1*
X1569724Y1963559D1*
X1575675Y1956588D1*
X1580463Y1948771D1*
X1583969Y1940302D1*
X1586107Y1931389D1*
X1586825Y1922262D1*
X1586104Y1913113D1*
X1583963Y1904201D1*
X1580453Y1895733D1*
X1575663Y1887918D1*
X1569708Y1880949D1*
X1562737Y1874998D1*
X1554921Y1870210D1*
X1546452Y1866704D1*
X1537539Y1864566D1*
X1528401Y1863848D1*
X1519263Y1864569D1*
X1510350Y1866710D1*
X1501882Y1870220D1*
X1494068Y1875010D1*
X1487099Y1880965D1*
X1481147Y1887936D1*
X1478515Y1892233D1*
X1475663Y1887918D1*
X1469708Y1880949D1*
X1462737Y1874998D1*
X1454921Y1870210D1*
X1446452Y1866704D1*
X1437539Y1864566D1*
X1428401Y1863848D1*
X1419263Y1864569D1*
X1410350Y1866710D1*
X1401882Y1870220D1*
X1394068Y1875010D1*
X1387099Y1880965D1*
X1381147Y1887936D1*
X1378515Y1892233D1*
X1375663Y1887918D1*
X1369708Y1880949D1*
X1362737Y1874998D1*
X1354921Y1870210D1*
X1346452Y1866704D1*
X1337539Y1864566D1*
X1328401Y1863848D1*
X1319263Y1864569D1*
X1310350Y1866710D1*
X1301882Y1870220D1*
X1294068Y1875010D1*
X1287099Y1880965D1*
X1281147Y1887936D1*
X1278515Y1892233D1*
X1258443Y1972156D2*
X1262755Y1969513D1*
X1269724Y1963559D1*
X1275675Y1956588D1*
X1278308Y1952290D1*
X1281160Y1956605D1*
X1287114Y1963574D1*
X1294085Y1969526D1*
X1298383Y1972158D1*
X1294068Y1975010D1*
X1287099Y1980965D1*
X1281147Y1987936D1*
X1278515Y1992233D1*
X1275663Y1987918D1*
X1269708Y1980949D1*
X1262737Y1974998D1*
X1258440Y1972365D1*
X1958443Y1972156D2*
X1962755Y1969513D1*
X1969724Y1963559D1*
X1975675Y1956588D1*
X1978308Y1952290D1*
X1982290Y1958108D1*
X1988465Y1964882D1*
X1995624Y1970606D1*
X1998370Y1972169D1*
X1994068Y1975010D1*
X1987099Y1980965D1*
X1981147Y1987936D1*
X1978515Y1992233D1*
X1975663Y1987918D1*
X1969708Y1980949D1*
X1962737Y1974998D1*
X1958440Y1972365D1*
X2258443Y1972156D2*
X2262755Y1969513D1*
X2269724Y1963559D1*
X2275675Y1956588D1*
X2278308Y1952290D1*
X2281160Y1956605D1*
X2287114Y1963574D1*
X2294085Y1969526D1*
X2298383Y1972158D1*
X2294068Y1975010D1*
X2287099Y1980965D1*
X2281147Y1987936D1*
X2278515Y1992233D1*
X2275663Y1987918D1*
X2269708Y1980949D1*
X2262737Y1974998D1*
X2258440Y1972365D1*
X2958443Y1972156D2*
X2962755Y1969513D1*
X2969724Y1963559D1*
X2975675Y1956588D1*
X2978308Y1952290D1*
X2981160Y1956605D1*
X2987114Y1963574D1*
X2994085Y1969526D1*
X2998383Y1972158D1*
X2994068Y1975010D1*
X2987099Y1980965D1*
X2981147Y1987936D1*
X2978515Y1992233D1*
X2975663Y1987918D1*
X2969708Y1980949D1*
X2962737Y1974998D1*
X2958440Y1972365D1*
X3446850Y570183D2*
X3445845Y561040D1*
X3444175Y551994D1*
X3441849Y543094D1*
X3438880Y534388D1*
X3435283Y525921D1*
X3431078Y517740D1*
X3426287Y509887D1*
X3420936Y502406D1*
X3415052Y495334D1*
X3408669Y488712D1*
X3401818Y482572D1*
X3394538Y476949D1*
X3386867Y471873D1*
X3378846Y467370D1*
X3370518Y463465D1*
X3361926Y460178D1*
X3353118Y457527D1*
X3344139Y455526D1*
X3335039Y454185D1*
X3325865Y453513D1*
X3316666Y453512D1*
X3307492Y454182D1*
X3298391Y455520D1*
X3289412Y457519D1*
X3280603Y460168D1*
X3272011Y463454D1*
X3263682Y467357D1*
X3255660Y471858D1*
X3247987Y476933D1*
X3240706Y482554D1*
X3233854Y488692D1*
X3227469Y495313D1*
X3221584Y502383D1*
X3216231Y509863D1*
X3211438Y517715D1*
X3207231Y525895D1*
X3203633Y534361D1*
X3200661Y543066D1*
X3198334Y551966D1*
X3196662Y561011D1*
X3195655Y570155D1*
X3195318Y579347D1*
X3195653Y588540D1*
X3196658Y597683D1*
X3198328Y606729D1*
X3200653Y615629D1*
X3203622Y624335D1*
X3207219Y632802D1*
X3211424Y640983D1*
X3216215Y648835D1*
X3221567Y656317D1*
X3227450Y663388D1*
X3233834Y670011D1*
X3240684Y676151D1*
X3247964Y681773D1*
X3255635Y686850D1*
X3263656Y691353D1*
X3271985Y695258D1*
X3280576Y698545D1*
X3289385Y701196D1*
X3298363Y703197D1*
X3307463Y704538D1*
X3316637Y705210D1*
X3325836Y705211D1*
X3335010Y704541D1*
X3344111Y703203D1*
X3353090Y701203D1*
X3361899Y698554D1*
X3370491Y695269D1*
X3378820Y691366D1*
X3386843Y686865D1*
X3394515Y681790D1*
X3401796Y676169D1*
X3408648Y670031D1*
X3415033Y663410D1*
X3420918Y656340D1*
X3426271Y648859D1*
X3431064Y641008D1*
X3435271Y632828D1*
X3438870Y624362D1*
X3441841Y615656D1*
X3444169Y606757D1*
X3445840Y597712D1*
X3446848Y588568D1*
X3447185Y579361D1*
X3446850Y570183D1*
X3855071Y3861140D2*
X3849137Y3855822D1*
X3841857Y3850199D1*
X3834186Y3845122D1*
X3826165Y3840620D1*
X3817836Y3836714D1*
X3809245Y3833427D1*
X3800437Y3830776D1*
X3791458Y3828775D1*
X3782358Y3827434D1*
X3773184Y3826762D1*
X3763985Y3826761D1*
X3754811Y3827431D1*
X3745710Y3828770D1*
X3736731Y3830769D1*
X3727922Y3833418D1*
X3719330Y3836703D1*
X3711001Y3840606D1*
X3702979Y3845107D1*
X3695306Y3850182D1*
X3688025Y3855803D1*
X3681173Y3861941D1*
X3674788Y3868562D1*
X3668903Y3875632D1*
X3663550Y3883113D1*
X3658757Y3890964D1*
X3654550Y3899144D1*
X3650951Y3907610D1*
X3647980Y3916316D1*
X3645653Y3925215D1*
X3643981Y3934260D1*
X3642974Y3943404D1*
X3642637Y3952596D1*
X3642972Y3961789D1*
X3643977Y3970933D1*
X3645646Y3979978D1*
X3647972Y3988878D1*
X3650941Y3997585D1*
X3654538Y4006051D1*
X3658743Y4014232D1*
X3663534Y4022085D1*
X3668886Y4029567D1*
X3674769Y4036638D1*
X3677518Y4039490D1*
X3527669Y4039764D1*
X1082552Y4044130D1*
X1087954Y4038169D1*
X1093362Y4030728D1*
X1097887Y4022720D1*
X1101469Y4014248D1*
X1104062Y4005423D1*
X1105633Y3996360D1*
X1106160Y3987161D1*
X1105636Y3977994D1*
X1104070Y3968930D1*
X1101480Y3960104D1*
X1097901Y3951631D1*
X1093380Y3943621D1*
X1087975Y3936179D1*
X1081757Y3929401D1*
X1074807Y3923376D1*
X1067215Y3918182D1*
X1059081Y3913888D1*
X1050510Y3910549D1*
X1041615Y3908209D1*
X1032511Y3906898D1*
X1023317Y3906634D1*
X1014152Y3907419D1*
X1005137Y3909244D1*
X996388Y3912084D1*
X988021Y3915904D1*
X980143Y3920652D1*
X972858Y3926267D1*
X966260Y3932676D1*
X960436Y3939796D1*
X955462Y3947532D1*
X951402Y3955786D1*
X948309Y3964448D1*
X946224Y3973407D1*
X945173Y3982545D1*
X945171Y3991743D1*
X946218Y4000881D1*
X948299Y4009841D1*
X951389Y4018505D1*
X955445Y4026760D1*
X960417Y4034499D1*
X966238Y4041620D1*
X969026Y4044332D1*
X882193Y4044488D1*
X887954Y4038169D1*
X893362Y4030728D1*
X897887Y4022720D1*
X901469Y4014248D1*
X904062Y4005423D1*
X905633Y3996360D1*
X906160Y3987161D1*
X905636Y3977994D1*
X904070Y3968930D1*
X901480Y3960104D1*
X897901Y3951631D1*
X893380Y3943621D1*
X887975Y3936179D1*
X881757Y3929401D1*
X874807Y3923376D1*
X867215Y3918182D1*
X859081Y3913888D1*
X850510Y3910549D1*
X841615Y3908209D1*
X832511Y3906898D1*
X823317Y3906634D1*
X814152Y3907419D1*
X805137Y3909244D1*
X796388Y3912084D1*
X788021Y3915904D1*
X780143Y3920652D1*
X772858Y3926267D1*
X766260Y3932676D1*
X760436Y3939796D1*
X755462Y3947532D1*
X751402Y3955786D1*
X748309Y3964448D1*
X746224Y3973407D1*
X745173Y3982545D1*
X745171Y3991743D1*
X746218Y4000881D1*
X748299Y4009841D1*
X751389Y4018505D1*
X755445Y4026760D1*
X760417Y4034499D1*
X766238Y4041620D1*
X769400Y4044695D1*
X612595Y4044969D1*
X614388Y4043281D1*
X620773Y4036659D1*
X626658Y4029589D1*
X632012Y4022109D1*
X636804Y4014257D1*
X641011Y4006077D1*
X644610Y3997611D1*
X647581Y3988906D1*
X649909Y3980006D1*
X651581Y3970961D1*
X652588Y3961818D1*
X652925Y3952611D1*
X652590Y3943433D1*
X651585Y3934289D1*
X649915Y3925243D1*
X647589Y3916343D1*
X644620Y3907637D1*
X641024Y3899171D1*
X636818Y3890989D1*
X632027Y3883137D1*
X626676Y3875655D1*
X620793Y3868584D1*
X614409Y3861961D1*
X607559Y3855822D1*
X600278Y3850199D1*
X592607Y3845122D1*
X584586Y3840620D1*
X576258Y3836714D1*
X567666Y3833427D1*
X558858Y3830776D1*
X549880Y3828775D1*
X540779Y3827434D1*
X531605Y3826762D1*
X522406Y3826761D1*
X513232Y3827431D1*
X504131Y3828770D1*
X495153Y3830769D1*
X486344Y3833418D1*
X477751Y3836703D1*
X469422Y3840606D1*
X461400Y3845107D1*
X453728Y3850182D1*
X446446Y3855803D1*
X439595Y3861941D1*
X433209Y3868562D1*
X432089Y3869909D1*
X432153Y3322910D1*
X432466Y433614D1*
X557746Y433624D1*
X3855117Y433691D1*
X3855073Y3861093D1*
X1161060Y568553D2*
X1160055Y559410D1*
X1158385Y550364D1*
X1156059Y541464D1*
X1153090Y532758D1*
X1149493Y524291D1*
X1145288Y516110D1*
X1140497Y508258D1*
X1135146Y500776D1*
X1129262Y493705D1*
X1122879Y487082D1*
X1116028Y480942D1*
X1108748Y475320D1*
X1101077Y470243D1*
X1093056Y465740D1*
X1084728Y461835D1*
X1076136Y458548D1*
X1067328Y455897D1*
X1058349Y453896D1*
X1049249Y452555D1*
X1040075Y451883D1*
X1030876Y451882D1*
X1021702Y452552D1*
X1012601Y453890D1*
X1003622Y455889D1*
X994813Y458539D1*
X986221Y461824D1*
X977892Y465727D1*
X969870Y470228D1*
X962197Y475303D1*
X954916Y480924D1*
X948064Y487062D1*
X941679Y493683D1*
X935794Y500753D1*
X930441Y508234D1*
X925648Y516085D1*
X921441Y524265D1*
X917843Y532731D1*
X914871Y541436D1*
X912544Y550336D1*
X910872Y559381D1*
X909865Y568525D1*
X909528Y577717D1*
X909863Y586910D1*
X910868Y596053D1*
X912538Y605099D1*
X914863Y613999D1*
X917832Y622705D1*
X921429Y631172D1*
X925634Y639353D1*
X930425Y647205D1*
X935777Y654687D1*
X941660Y661758D1*
X948044Y668381D1*
X954894Y674521D1*
X962174Y680143D1*
X969845Y685220D1*
X977866Y689723D1*
X986195Y693628D1*
X994786Y696915D1*
X1003595Y699566D1*
X1012573Y701567D1*
X1021673Y702908D1*
X1030847Y703580D1*
X1040046Y703581D1*
X1049220Y702911D1*
X1058321Y701573D1*
X1067300Y699574D1*
X1076109Y696924D1*
X1084701Y693639D1*
X1093030Y689736D1*
X1101053Y685235D1*
X1108725Y680160D1*
X1116006Y674539D1*
X1122858Y668401D1*
X1129243Y661780D1*
X1135128Y654710D1*
X1140481Y647229D1*
X1145274Y639378D1*
X1149481Y631198D1*
X1153080Y622732D1*
X1156051Y614027D1*
X1158379Y605127D1*
X1160050Y596082D1*
X1161057Y586938D1*
X1161394Y577731D1*
X1161060Y568553D1*
X820597Y3477994D2*
X819030Y3468930D1*
X816441Y3460104D1*
X812862Y3451631D1*
X808341Y3443621D1*
X802936Y3436179D1*
X796718Y3429401D1*
X789768Y3423376D1*
X782176Y3418182D1*
X774042Y3413888D1*
X765471Y3410549D1*
X756576Y3408209D1*
X747471Y3406898D1*
X738277Y3406634D1*
X729113Y3407419D1*
X720097Y3409244D1*
X711349Y3412084D1*
X702981Y3415904D1*
X695104Y3420652D1*
X687818Y3426267D1*
X681221Y3432676D1*
X675397Y3439796D1*
X670422Y3447532D1*
X666362Y3455786D1*
X663270Y3464448D1*
X661184Y3473407D1*
X660134Y3482545D1*
X660132Y3491743D1*
X661179Y3500881D1*
X663260Y3509841D1*
X666349Y3518505D1*
X670406Y3526760D1*
X675377Y3534499D1*
X681198Y3541620D1*
X687793Y3548032D1*
X695076Y3553651D1*
X702952Y3558402D1*
X711318Y3562225D1*
X720065Y3565069D1*
X729080Y3566898D1*
X738244Y3567687D1*
X747438Y3567426D1*
X756543Y3566119D1*
X765439Y3563782D1*
X774011Y3560447D1*
X782147Y3556156D1*
X789741Y3550966D1*
X796694Y3544944D1*
X802915Y3538169D1*
X808323Y3530728D1*
X812847Y3522720D1*
X816430Y3514248D1*
X819023Y3505423D1*
X820593Y3496360D1*
X821120Y3487161D1*
X820597Y3477994D1*
X1005636D2*
X1004070Y3468930D1*
X1001480Y3460104D1*
X997901Y3451631D1*
X993380Y3443621D1*
X987975Y3436179D1*
X981757Y3429401D1*
X974807Y3423376D1*
X967215Y3418182D1*
X959081Y3413888D1*
X950510Y3410549D1*
X941615Y3408209D1*
X932511Y3406898D1*
X923317Y3406634D1*
X914152Y3407419D1*
X905137Y3409244D1*
X896388Y3412084D1*
X888021Y3415904D1*
X880143Y3420652D1*
X872858Y3426267D1*
X866260Y3432676D1*
X860436Y3439796D1*
X855462Y3447532D1*
X851402Y3455786D1*
X848309Y3464448D1*
X846224Y3473407D1*
X845173Y3482545D1*
X845171Y3491743D1*
X846218Y3500881D1*
X848299Y3509841D1*
X851389Y3518505D1*
X855445Y3526760D1*
X860417Y3534499D1*
X866238Y3541620D1*
X872832Y3548032D1*
X880115Y3553651D1*
X887991Y3558402D1*
X896357Y3562225D1*
X905104Y3565069D1*
X914119Y3566898D1*
X923283Y3567687D1*
X932477Y3567426D1*
X941582Y3566119D1*
X950479Y3563782D1*
X959051Y3560447D1*
X967187Y3556156D1*
X974780Y3550966D1*
X981733Y3544944D1*
X987954Y3538169D1*
X993362Y3530728D1*
X997887Y3522720D1*
X1001469Y3514248D1*
X1004062Y3505423D1*
X1005633Y3496360D1*
X1006160Y3487161D1*
X1005636Y3477994D1*
X1190676D2*
X1189109Y3468930D1*
X1186520Y3460104D1*
X1182941Y3451631D1*
X1178419Y3443621D1*
X1173015Y3436179D1*
X1166796Y3429401D1*
X1159846Y3423376D1*
X1152255Y3418182D1*
X1144120Y3413888D1*
X1135550Y3410549D1*
X1126654Y3408209D1*
X1117550Y3406898D1*
X1108356Y3406634D1*
X1099191Y3407419D1*
X1090176Y3409244D1*
X1081428Y3412084D1*
X1073060Y3415904D1*
X1065182Y3420652D1*
X1057897Y3426267D1*
X1051300Y3432676D1*
X1045476Y3439796D1*
X1040501Y3447532D1*
X1036441Y3455786D1*
X1033348Y3464448D1*
X1031263Y3473407D1*
X1030213Y3482545D1*
X1030211Y3491743D1*
X1031257Y3500881D1*
X1033339Y3509841D1*
X1036428Y3518505D1*
X1040485Y3526760D1*
X1045456Y3534499D1*
X1051277Y3541620D1*
X1057872Y3548032D1*
X1065155Y3553651D1*
X1073030Y3558402D1*
X1081397Y3562225D1*
X1090144Y3565069D1*
X1099158Y3566898D1*
X1108322Y3567687D1*
X1117517Y3567426D1*
X1126622Y3566119D1*
X1135518Y3563782D1*
X1144090Y3560447D1*
X1152226Y3556156D1*
X1159820Y3550966D1*
X1166772Y3544944D1*
X1172993Y3538169D1*
X1178401Y3530728D1*
X1182926Y3522720D1*
X1186508Y3514248D1*
X1189102Y3505423D1*
X1190672Y3496360D1*
X1191199Y3487161D1*
X1190676Y3477994D1*
X2744564Y2747813D2*
X2742940Y2748927D1*
X2740531Y2750829D1*
X2738254Y2752888D1*
X2736119Y2755094D1*
X2734137Y2757438D1*
X2732316Y2759909D1*
X2730663Y2762496D1*
X2729188Y2765188D1*
X2727895Y2767972D1*
X2726791Y2770836D1*
X2725881Y2773768D1*
X2725169Y2776754D1*
X2724658Y2779781D1*
X2724350Y2782835D1*
X2724247Y2785903D1*
X2724349Y2788971D1*
X2724656Y2792025D1*
X2725166Y2795053D1*
X2725877Y2798039D1*
X2726786Y2800971D1*
X2727889Y2803836D1*
X2729180Y2806620D1*
X2730655Y2809313D1*
X2732306Y2811900D1*
X2734127Y2814372D1*
X2736108Y2816717D1*
X2738242Y2818924D1*
X2740518Y2820983D1*
X2742927Y2822886D1*
X2745458Y2824624D1*
X2748098Y2826189D1*
X2750838Y2827574D1*
X2753664Y2828772D1*
X2756564Y2829780D1*
X2759524Y2830591D1*
X2762532Y2831203D1*
X2765574Y2831613D1*
X2768637Y2831819D1*
X2771707D1*
X2774770Y2831615D1*
X2777812Y2831206D1*
X2780821Y2830595D1*
X2783781Y2829785D1*
X2786681Y2828778D1*
X2789508Y2827580D1*
X2792248Y2826196D1*
X2794889Y2824633D1*
X2797420Y2822896D1*
X2798373Y2822143D1*
X2801369Y2823938D1*
X2804108Y2825323D1*
X2806934Y2826522D1*
X2809834Y2827529D1*
X2812794Y2828341D1*
X2815803Y2828953D1*
X2818845Y2829362D1*
X2821908Y2829568D1*
X2824977Y2829569D1*
X2828040Y2829364D1*
X2831083Y2828955D1*
X2834091Y2828345D1*
X2837052Y2827534D1*
X2839952Y2826528D1*
X2842778Y2825330D1*
X2845518Y2823946D1*
X2848160Y2822382D1*
X2850691Y2820645D1*
X2853100Y2818743D1*
X2855377Y2816684D1*
X2857512Y2814478D1*
X2859494Y2812134D1*
X2861315Y2809663D1*
X2862968Y2807076D1*
X2864443Y2804384D1*
X2865736Y2801600D1*
X2866840Y2798736D1*
X2867750Y2795804D1*
X2868462Y2792818D1*
X2868522Y2792460D1*
X2871490Y2792745D1*
X2874543Y2792870D1*
X2877599Y2792828D1*
X2880647Y2792619D1*
X2883680Y2792244D1*
X2886687Y2791704D1*
X2889661Y2791000D1*
X2892591Y2790135D1*
X2895470Y2789112D1*
X2898289Y2787932D1*
X2901039Y2786601D1*
X2903713Y2785121D1*
X2906302Y2783498D1*
X2908798Y2781736D1*
X2911194Y2779839D1*
X2913483Y2777815D1*
X2915658Y2775669D1*
X2917713Y2773408D1*
X2919641Y2771037D1*
X2921437Y2768565D1*
X2923095Y2765998D1*
X2924610Y2763345D1*
X2925979Y2760613D1*
X2927196Y2757810D1*
X2928258Y2754945D1*
X2929162Y2752026D1*
X2929905Y2749062D1*
X2930486Y2746062D1*
X2930901Y2743035D1*
X2931151Y2739990D1*
X2931234Y2736941D1*
X2931151Y2733881D1*
X2930900Y2730836D1*
X2930484Y2727808D1*
X2929903Y2724809D1*
X2929159Y2721845D1*
X2928254Y2718926D1*
X2927191Y2716062D1*
X2925973Y2713259D1*
X2924604Y2710527D1*
X2923088Y2707874D1*
X2921430Y2705308D1*
X2919633Y2702836D1*
X2917705Y2700466D1*
X2915650Y2698205D1*
X2913474Y2696059D1*
X2911185Y2694036D1*
X2908788Y2692140D1*
X2906291Y2690378D1*
X2903702Y2688755D1*
X2901029Y2687276D1*
X2898278Y2685945D1*
X2895459Y2684767D1*
X2892580Y2683744D1*
X2889649Y2682880D1*
X2886675Y2682177D1*
X2883667Y2681637D1*
X2880635Y2681263D1*
X2877586Y2681055D1*
X2874531Y2681013D1*
X2871478Y2681139D1*
X2868436Y2681431D1*
X2865415Y2681889D1*
X2862300Y2682544D1*
X2861626Y2681360D1*
X2859974Y2678773D1*
X2858154Y2676301D1*
X2856172Y2673956D1*
X2854039Y2671749D1*
X2851762Y2669690D1*
X2849354Y2667787D1*
X2846823Y2666049D1*
X2844182Y2664484D1*
X2841443Y2663099D1*
X2838617Y2661901D1*
X2835717Y2660893D1*
X2832756Y2660082D1*
X2829748Y2659470D1*
X2826706Y2659060D1*
X2823643Y2658854D1*
X2820574D1*
X2817511Y2659058D1*
X2814468Y2659467D1*
X2811460Y2660078D1*
X2808499Y2660888D1*
X2805599Y2661895D1*
X2802773Y2663093D1*
X2800033Y2664477D1*
X2797391Y2666040D1*
X2794860Y2667777D1*
X2792364Y2669758D1*
X2791163Y2669179D1*
X2788337Y2667981D1*
X2785437Y2666973D1*
X2782477Y2666162D1*
X2779469Y2665550D1*
X2776427Y2665140D1*
X2773364Y2664934D1*
X2770294D1*
X2767231Y2665138D1*
X2764189Y2665547D1*
X2761180Y2666158D1*
X2758220Y2666968D1*
X2755320Y2667975D1*
X2752493Y2669173D1*
X2749753Y2670557D1*
X2747112Y2672120D1*
X2744581Y2673857D1*
X2742171Y2675759D1*
X2739894Y2677818D1*
X2737760Y2680024D1*
X2735777Y2682368D1*
X2733956Y2684839D1*
X2732304Y2687426D1*
X2730828Y2690118D1*
X2729535Y2692902D1*
X2728432Y2695767D1*
X2727522Y2698698D1*
X2726809Y2701684D1*
X2726298Y2704711D1*
X2725991Y2707766D1*
X2725887Y2710834D1*
X2725989Y2713902D1*
X2726296Y2716956D1*
X2726806Y2719983D1*
X2727517Y2722969D1*
X2728426Y2725901D1*
X2729529Y2728766D1*
X2730821Y2731551D1*
X2732295Y2734243D1*
X2733947Y2736831D1*
X2735767Y2739302D1*
X2737749Y2741647D1*
X2739882Y2743854D1*
X2742159Y2745914D1*
X2744542Y2747796D1*
X2376152Y3502451D2*
X2375845Y3499397D1*
X2375335Y3496370D1*
X2374624Y3493384D1*
X2373715Y3490451D1*
X2372612Y3487587D1*
X2371321Y3484802D1*
X2369846Y3482110D1*
X2368195Y3479522D1*
X2366374Y3477050D1*
X2364393Y3474706D1*
X2362259Y3472499D1*
X2359983Y3470439D1*
X2357574Y3468536D1*
X2355044Y3466799D1*
X2352403Y3465234D1*
X2349663Y3463849D1*
X2346837Y3462650D1*
X2343937Y3461642D1*
X2340977Y3460831D1*
X2337969Y3460219D1*
X2334927Y3459809D1*
X2331864Y3459604D1*
X2328794Y3459603D1*
X2325731Y3459808D1*
X2322689Y3460216D1*
X2319680Y3460827D1*
X2316720Y3461638D1*
X2313820Y3462644D1*
X2310993Y3463842D1*
X2308253Y3465226D1*
X2305612Y3466790D1*
X2303081Y3468527D1*
X2300671Y3470429D1*
X2298394Y3472487D1*
X2296260Y3474694D1*
X2294277Y3477037D1*
X2292456Y3479508D1*
X2290804Y3482096D1*
X2289328Y3484787D1*
X2288035Y3487572D1*
X2286932Y3490436D1*
X2286022Y3493368D1*
X2285309Y3496354D1*
X2284798Y3499381D1*
X2284491Y3502435D1*
X2284387Y3505503D1*
X2284489Y3508571D1*
X2284796Y3511625D1*
X2285306Y3514652D1*
X2286017Y3517639D1*
X2286926Y3520571D1*
X2288029Y3523435D1*
X2289321Y3526220D1*
X2290795Y3528912D1*
X2292447Y3531500D1*
X2294267Y3533972D1*
X2296249Y3536316D1*
X2298382Y3538523D1*
X2300659Y3540583D1*
X2303067Y3542486D1*
X2305598Y3544223D1*
X2308239Y3545788D1*
X2310978Y3547173D1*
X2313804Y3548372D1*
X2316704Y3549380D1*
X2319665Y3550191D1*
X2322673Y3550803D1*
X2325715Y3551213D1*
X2328778Y3551418D1*
X2331847Y3551419D1*
X2334910Y3551214D1*
X2337953Y3550806D1*
X2340961Y3550195D1*
X2343922Y3549384D1*
X2346822Y3548378D1*
X2349648Y3547180D1*
X2352388Y3545796D1*
X2355030Y3544232D1*
X2357561Y3542495D1*
X2359970Y3540593D1*
X2362247Y3538535D1*
X2364382Y3536328D1*
X2366364Y3533985D1*
X2368185Y3531514D1*
X2369838Y3528926D1*
X2371313Y3526235D1*
X2372606Y3523450D1*
X2373710Y3520586D1*
X2374620Y3517654D1*
X2375332Y3514668D1*
X2375843Y3511641D1*
X2376151Y3508587D1*
X2376254Y3505511D1*
X2376152Y3502451D1*
X1472905Y3233883D2*
X1469981Y3228582D1*
X1463946Y3221514D1*
X1456612Y3215805D1*
X1448279Y3211690D1*
X1439288Y3209336D1*
X1430007Y3208841D1*
X1420817Y3210223D1*
X1412093Y3213428D1*
X1404192Y3218323D1*
X1397439Y3224708D1*
X1392109Y3232321D1*
X1388421Y3240852D1*
X1386526Y3249951D1*
X1386500Y3259245D1*
X1388347Y3268354D1*
X1391989Y3276904D1*
X1397278Y3284547D1*
X1403997Y3290968D1*
X1411871Y3295906D1*
X1420578Y3299157D1*
X1429761Y3300589D1*
X1439044Y3300143D1*
X1448047Y3297838D1*
X1456403Y3293767D1*
X1463767Y3288098D1*
X1469840Y3281063D1*
X1472651Y3276031D1*
X1473370Y3277394D1*
X1478658Y3285036D1*
X1485377Y3291458D1*
X1493251Y3296395D1*
X1501958Y3299646D1*
X1511141Y3301078D1*
X1520424Y3300633D1*
X1529428Y3298327D1*
X1537783Y3294257D1*
X1545148Y3288588D1*
X1551221Y3281552D1*
X1553748Y3277028D1*
X1555398Y3279528D1*
X1561508Y3286532D1*
X1568902Y3292163D1*
X1577278Y3296190D1*
X1586293Y3298448D1*
X1595579Y3298846D1*
X1604754Y3297366D1*
X1613444Y3294070D1*
X1621292Y3289091D1*
X1627978Y3282635D1*
X1633227Y3274965D1*
X1636824Y3266396D1*
X1638623Y3257277D1*
X1638824Y3252991D1*
X1637908Y3243866D1*
X1635150Y3234991D1*
X1630661Y3226853D1*
X1624626Y3219784D1*
X1617292Y3214076D1*
X1608959Y3209960D1*
X1599968Y3207607D1*
X1590687Y3207111D1*
X1581497Y3208494D1*
X1572773Y3211698D1*
X1564872Y3216593D1*
X1558119Y3222978D1*
X1552789Y3230592D1*
X1552619Y3230983D1*
X1551362Y3229072D1*
X1545327Y3222004D1*
X1537993Y3216295D1*
X1529660Y3212179D1*
X1520669Y3209826D1*
X1511388Y3209330D1*
X1502197Y3210713D1*
X1493473Y3213917D1*
X1485573Y3218812D1*
X1478819Y3225197D1*
X1473490Y3232811D1*
X1473083Y3233752D1*
X2657912Y3502891D2*
X2657605Y3499836D1*
X2657095Y3496809D1*
X2656384Y3493823D1*
X2655475Y3490891D1*
X2654372Y3488026D1*
X2653081Y3485242D1*
X2651606Y3482549D1*
X2649955Y3479962D1*
X2648134Y3477490D1*
X2646153Y3475145D1*
X2644019Y3472938D1*
X2641743Y3470879D1*
X2639334Y3468976D1*
X2636803Y3467238D1*
X2634162Y3465673D1*
X2631423Y3464288D1*
X2628597Y3463089D1*
X2625697Y3462082D1*
X2622737Y3461271D1*
X2619729Y3460659D1*
X2616686Y3460249D1*
X2613624Y3460043D1*
X2610554D1*
X2607491Y3460247D1*
X2604449Y3460656D1*
X2601440Y3461267D1*
X2598479Y3462077D1*
X2595579Y3463084D1*
X2592753Y3464282D1*
X2590013Y3465665D1*
X2587372Y3467229D1*
X2584840Y3468966D1*
X2582431Y3470868D1*
X2580154Y3472927D1*
X2578020Y3475133D1*
X2576037Y3477477D1*
X2574216Y3479948D1*
X2572564Y3482535D1*
X2571088Y3485227D1*
X2569795Y3488011D1*
X2568691Y3490876D1*
X2567781Y3493807D1*
X2567069Y3496793D1*
X2566558Y3499820D1*
X2566250Y3502874D1*
X2566147Y3505942D1*
X2566249Y3509011D1*
X2566556Y3512065D1*
X2567066Y3515092D1*
X2567777Y3518078D1*
X2568686Y3521010D1*
X2569789Y3523875D1*
X2571081Y3526660D1*
X2572555Y3529352D1*
X2574207Y3531940D1*
X2576027Y3534411D1*
X2578009Y3536756D1*
X2580142Y3538963D1*
X2582418Y3541022D1*
X2584827Y3542925D1*
X2587358Y3544663D1*
X2589999Y3546228D1*
X2592738Y3547613D1*
X2595564Y3548812D1*
X2598464Y3549819D1*
X2601424Y3550631D1*
X2604432Y3551243D1*
X2607475Y3551652D1*
X2610538Y3551858D1*
X2613607Y3551859D1*
X2616670Y3551654D1*
X2619713Y3551246D1*
X2622721Y3550635D1*
X2625682Y3549824D1*
X2628582Y3548818D1*
X2631408Y3547620D1*
X2634148Y3546236D1*
X2636790Y3544672D1*
X2639321Y3542935D1*
X2641730Y3541033D1*
X2644007Y3538974D1*
X2646142Y3536768D1*
X2648124Y3534424D1*
X2649945Y3531953D1*
X2651598Y3529366D1*
X2653073Y3526674D1*
X2654366Y3523890D1*
X2655470Y3521026D1*
X2656380Y3518094D1*
X2657092Y3515108D1*
X2657603Y3512081D1*
X2657911Y3509027D1*
X2658014Y3505951D1*
X2657912Y3502891D1*
X2303323Y3436141D2*
X2303016Y3433087D1*
X2302506Y3430060D1*
X2301795Y3427074D1*
X2300886Y3424142D1*
X2299783Y3421277D1*
X2298491Y3418492D1*
X2297017Y3415800D1*
X2295365Y3413212D1*
X2293545Y3410741D1*
X2291563Y3408396D1*
X2289430Y3406189D1*
X2287153Y3404130D1*
X2284745Y3402227D1*
X2282214Y3400489D1*
X2279573Y3398924D1*
X2276834Y3397539D1*
X2274008Y3396340D1*
X2271108Y3395333D1*
X2268148Y3394521D1*
X2265139Y3393909D1*
X2262097Y3393499D1*
X2259034Y3393294D1*
X2255965Y3393293D1*
X2252902Y3393498D1*
X2249859Y3393906D1*
X2246851Y3394517D1*
X2243890Y3395328D1*
X2240990Y3396334D1*
X2238164Y3397532D1*
X2235424Y3398916D1*
X2232782Y3400480D1*
X2230251Y3402217D1*
X2227842Y3404119D1*
X2225565Y3406178D1*
X2223430Y3408384D1*
X2221448Y3410728D1*
X2219627Y3413199D1*
X2217974Y3415786D1*
X2216499Y3418478D1*
X2215206Y3421262D1*
X2214102Y3424126D1*
X2213192Y3427058D1*
X2212480Y3430044D1*
X2211969Y3433071D1*
X2211661Y3436125D1*
X2211558Y3439193D1*
X2211660Y3442261D1*
X2211967Y3445316D1*
X2212477Y3448343D1*
X2213188Y3451329D1*
X2214097Y3454261D1*
X2215200Y3457126D1*
X2216491Y3459910D1*
X2217966Y3462603D1*
X2219617Y3465190D1*
X2221438Y3467662D1*
X2223419Y3470007D1*
X2225553Y3472214D1*
X2227829Y3474273D1*
X2230238Y3476176D1*
X2232769Y3477914D1*
X2235409Y3479479D1*
X2238149Y3480864D1*
X2240975Y3482062D1*
X2243875Y3483070D1*
X2246835Y3483881D1*
X2249843Y3484493D1*
X2252885Y3484903D1*
X2255948Y3485109D1*
X2259018D1*
X2262081Y3484905D1*
X2265123Y3484496D1*
X2268132Y3483885D1*
X2271092Y3483075D1*
X2273993Y3482068D1*
X2276819Y3480870D1*
X2279559Y3479486D1*
X2282200Y3477923D1*
X2284731Y3476186D1*
X2287141Y3474284D1*
X2289418Y3472225D1*
X2291552Y3470019D1*
X2293535Y3467675D1*
X2295356Y3465204D1*
X2297008Y3462617D1*
X2298484Y3459925D1*
X2299777Y3457141D1*
X2300880Y3454276D1*
X2301790Y3451345D1*
X2302503Y3448359D1*
X2303014Y3445332D1*
X2303322Y3442277D1*
X2303425Y3439201D1*
X2303323Y3436141D1*
X2448202Y3434791D2*
X2447895Y3431737D1*
X2447385Y3428710D1*
X2446674Y3425723D1*
X2445765Y3422791D1*
X2444662Y3419927D1*
X2443371Y3417142D1*
X2441896Y3414450D1*
X2440245Y3411862D1*
X2438424Y3409390D1*
X2436443Y3407046D1*
X2434309Y3404839D1*
X2432033Y3402779D1*
X2429624Y3400876D1*
X2427093Y3399138D1*
X2424452Y3397574D1*
X2421713Y3396189D1*
X2418887Y3394990D1*
X2415987Y3393982D1*
X2413027Y3393171D1*
X2410019Y3392559D1*
X2406976Y3392149D1*
X2403914Y3391944D1*
X2400844Y3391943D1*
X2397781Y3392147D1*
X2394739Y3392556D1*
X2391730Y3393167D1*
X2388769Y3393977D1*
X2385869Y3394984D1*
X2383043Y3396182D1*
X2380303Y3397566D1*
X2377662Y3399130D1*
X2375130Y3400867D1*
X2372721Y3402769D1*
X2370444Y3404827D1*
X2368310Y3407033D1*
X2366327Y3409377D1*
X2364506Y3411848D1*
X2362854Y3414435D1*
X2361378Y3417127D1*
X2360085Y3419912D1*
X2358981Y3422776D1*
X2358071Y3425708D1*
X2357359Y3428694D1*
X2356848Y3431721D1*
X2356540Y3434775D1*
X2356437Y3437843D1*
X2356539Y3440911D1*
X2356846Y3443965D1*
X2357356Y3446992D1*
X2358067Y3449978D1*
X2358976Y3452910D1*
X2360079Y3455775D1*
X2361371Y3458560D1*
X2362845Y3461252D1*
X2364497Y3463840D1*
X2366317Y3466312D1*
X2368299Y3468656D1*
X2370432Y3470863D1*
X2372709Y3472923D1*
X2375117Y3474826D1*
X2377648Y3476563D1*
X2380289Y3478128D1*
X2383028Y3479513D1*
X2385854Y3480712D1*
X2388754Y3481720D1*
X2391714Y3482531D1*
X2394722Y3483143D1*
X2397765Y3483553D1*
X2400828Y3483758D1*
X2403897Y3483759D1*
X2406960Y3483554D1*
X2410003Y3483146D1*
X2413011Y3482535D1*
X2415972Y3481724D1*
X2418872Y3480718D1*
X2421698Y3479520D1*
X2424438Y3478136D1*
X2427080Y3476572D1*
X2429611Y3474835D1*
X2432020Y3472933D1*
X2434297Y3470875D1*
X2436432Y3468668D1*
X2438414Y3466325D1*
X2440235Y3463853D1*
X2441888Y3461266D1*
X2443363Y3458575D1*
X2444656Y3455790D1*
X2445760Y3452926D1*
X2446670Y3449994D1*
X2447382Y3447008D1*
X2447893Y3443981D1*
X2448201Y3440927D1*
X2448304Y3437851D1*
X2448202Y3434791D1*
X2304981Y3699371D2*
X2304675Y3696317D1*
X2304165Y3693290D1*
X2303454Y3690303D1*
X2302545Y3687371D1*
X2301442Y3684507D1*
X2300150Y3681722D1*
X2298675Y3679030D1*
X2297024Y3676442D1*
X2295204Y3673970D1*
X2293222Y3671626D1*
X2291089Y3669419D1*
X2288812Y3667359D1*
X2286403Y3665456D1*
X2283873Y3663719D1*
X2281232Y3662154D1*
X2278492Y3660769D1*
X2275667Y3659570D1*
X2272767Y3658562D1*
X2269806Y3657751D1*
X2266798Y3657139D1*
X2263756Y3656729D1*
X2260693Y3656524D1*
X2257623Y3656523D1*
X2254561Y3656728D1*
X2251518Y3657136D1*
X2248510Y3657747D1*
X2245549Y3658558D1*
X2242649Y3659564D1*
X2239823Y3660762D1*
X2237083Y3662146D1*
X2234441Y3663710D1*
X2231910Y3665447D1*
X2229501Y3667349D1*
X2227224Y3669407D1*
X2225089Y3671614D1*
X2223107Y3673957D1*
X2221285Y3676428D1*
X2219633Y3679016D1*
X2218157Y3681707D1*
X2216865Y3684492D1*
X2215761Y3687356D1*
X2214851Y3690288D1*
X2214139Y3693274D1*
X2213628Y3696301D1*
X2213320Y3699355D1*
X2213217Y3702423D1*
X2213319Y3705491D1*
X2213626Y3708545D1*
X2214136Y3711572D1*
X2214847Y3714558D1*
X2215756Y3717491D1*
X2216858Y3720355D1*
X2218150Y3723140D1*
X2219625Y3725832D1*
X2221276Y3728420D1*
X2223097Y3730892D1*
X2225078Y3733236D1*
X2227212Y3735443D1*
X2229488Y3737503D1*
X2231897Y3739406D1*
X2234427Y3741143D1*
X2237068Y3742708D1*
X2239808Y3744093D1*
X2242634Y3745292D1*
X2245533Y3746300D1*
X2248494Y3747111D1*
X2251502Y3747723D1*
X2254544Y3748133D1*
X2257607Y3748338D1*
X2260677Y3748339D1*
X2263740Y3748134D1*
X2266782Y3747726D1*
X2269790Y3747115D1*
X2272751Y3746304D1*
X2275651Y3745298D1*
X2278478Y3744100D1*
X2281218Y3742716D1*
X2283859Y3741152D1*
X2286390Y3739415D1*
X2288800Y3737513D1*
X2291077Y3735455D1*
X2293211Y3733248D1*
X2295194Y3730905D1*
X2297015Y3728434D1*
X2298667Y3725846D1*
X2300143Y3723155D1*
X2301435Y3720370D1*
X2302539Y3717506D1*
X2303449Y3714574D1*
X2304161Y3711588D1*
X2304673Y3708561D1*
X2304980Y3705507D1*
X2305083Y3702431D1*
X2304981Y3699371D1*
X1553206Y3125363D2*
X1552842Y3124703D1*
X1546807Y3117635D1*
X1539473Y3111926D1*
X1531140Y3107811D1*
X1522149Y3105457D1*
X1512868Y3104961D1*
X1503678Y3106344D1*
X1494954Y3109548D1*
X1487053Y3114443D1*
X1480300Y3120828D1*
X1476349Y3126472D1*
X1474291Y3123223D1*
X1468256Y3116155D1*
X1460922Y3110446D1*
X1452589Y3106330D1*
X1443598Y3103977D1*
X1434317Y3103481D1*
X1425127Y3104864D1*
X1416402Y3108068D1*
X1408502Y3112963D1*
X1401749Y3119348D1*
X1396419Y3126962D1*
X1392731Y3135493D1*
X1390835Y3144591D1*
X1390810Y3153885D1*
X1392657Y3162994D1*
X1396299Y3171545D1*
X1401588Y3179187D1*
X1408307Y3185609D1*
X1416181Y3190546D1*
X1424887Y3193797D1*
X1434070Y3195229D1*
X1443354Y3194784D1*
X1452357Y3192478D1*
X1460712Y3188408D1*
X1468077Y3182739D1*
X1474150Y3175703D1*
X1475252Y3173730D1*
X1480139Y3180668D1*
X1486858Y3187089D1*
X1494732Y3192026D1*
X1503438Y3195278D1*
X1512622Y3196710D1*
X1521905Y3196264D1*
X1530908Y3193959D1*
X1539264Y3189888D1*
X1546628Y3184219D1*
X1552470Y3177451D1*
X1555738Y3181767D1*
X1562457Y3188189D1*
X1570331Y3193126D1*
X1579038Y3196377D1*
X1588221Y3197809D1*
X1597505Y3197364D1*
X1606508Y3195058D1*
X1614863Y3190988D1*
X1622228Y3185319D1*
X1628301Y3178283D1*
X1632833Y3170169D1*
X1635639Y3161309D1*
X1636604Y3151941D1*
X1635689Y3142816D1*
X1632931Y3133941D1*
X1628442Y3125803D1*
X1622407Y3118735D1*
X1615073Y3113026D1*
X1606740Y3108910D1*
X1597749Y3106557D1*
X1588468Y3106061D1*
X1579277Y3107444D1*
X1570553Y3110648D1*
X1562653Y3115543D1*
X1555899Y3121928D1*
X1553385Y3125519D1*
X2729412Y3565311D2*
X2729105Y3562256D1*
X2728595Y3559229D1*
X2727884Y3556243D1*
X2726975Y3553311D1*
X2725872Y3550446D1*
X2724581Y3547662D1*
X2723106Y3544969D1*
X2721455Y3542382D1*
X2719634Y3539910D1*
X2717653Y3537565D1*
X2715519Y3535358D1*
X2713243Y3533299D1*
X2710834Y3531396D1*
X2708303Y3529658D1*
X2705662Y3528093D1*
X2702923Y3526708D1*
X2700097Y3525509D1*
X2697197Y3524502D1*
X2694237Y3523690D1*
X2691229Y3523078D1*
X2688186Y3522669D1*
X2685124Y3522463D1*
X2682054D1*
X2678991Y3522667D1*
X2675949Y3523076D1*
X2672940Y3523687D1*
X2669979Y3524497D1*
X2667079Y3525504D1*
X2664253Y3526701D1*
X2661513Y3528085D1*
X2658872Y3529649D1*
X2656340Y3531386D1*
X2653931Y3533288D1*
X2651654Y3535347D1*
X2649520Y3537553D1*
X2647537Y3539897D1*
X2645716Y3542368D1*
X2644064Y3544955D1*
X2642588Y3547647D1*
X2641295Y3550431D1*
X2640191Y3553296D1*
X2639281Y3556227D1*
X2638569Y3559213D1*
X2638058Y3562240D1*
X2637750Y3565294D1*
X2637647Y3568362D1*
X2637749Y3571430D1*
X2638056Y3574485D1*
X2638566Y3577512D1*
X2639277Y3580498D1*
X2640186Y3583430D1*
X2641289Y3586295D1*
X2642581Y3589080D1*
X2644055Y3591772D1*
X2645707Y3594360D1*
X2647527Y3596831D1*
X2649509Y3599176D1*
X2651642Y3601383D1*
X2653918Y3603442D1*
X2656327Y3605345D1*
X2658858Y3607083D1*
X2661499Y3608648D1*
X2664238Y3610033D1*
X2667064Y3611232D1*
X2669964Y3612239D1*
X2672924Y3613051D1*
X2675932Y3613663D1*
X2678975Y3614072D1*
X2682038Y3614278D1*
X2685107Y3614279D1*
X2688170Y3614074D1*
X2691213Y3613665D1*
X2694221Y3613055D1*
X2697182Y3612244D1*
X2700082Y3611238D1*
X2702908Y3610040D1*
X2705648Y3608656D1*
X2708290Y3607092D1*
X2710821Y3605355D1*
X2713230Y3603453D1*
X2715507Y3601394D1*
X2717642Y3599188D1*
X2719624Y3596844D1*
X2721445Y3594373D1*
X2723098Y3591786D1*
X2724573Y3589094D1*
X2725866Y3586310D1*
X2726970Y3583446D1*
X2727880Y3580514D1*
X2728592Y3577528D1*
X2729103Y3574501D1*
X2729411Y3571447D1*
X2729514Y3568371D1*
X2729412Y3565311D1*
X1840379Y3483966D2*
X1837621Y3475091D1*
X1833132Y3466952D1*
X1827097Y3459884D1*
X1819763Y3454176D1*
X1811430Y3450060D1*
X1802439Y3447706D1*
X1793158Y3447211D1*
X1783968Y3448593D1*
X1775244Y3451798D1*
X1767343Y3456693D1*
X1760590Y3463078D1*
X1755260Y3470692D1*
X1751572Y3479222D1*
X1749676Y3488321D1*
X1749651Y3497615D1*
X1751498Y3506724D1*
X1755140Y3515274D1*
X1760429Y3522917D1*
X1767148Y3529338D1*
X1775022Y3534276D1*
X1783729Y3537527D1*
X1792912Y3538959D1*
X1802195Y3538513D1*
X1811198Y3536208D1*
X1819554Y3532137D1*
X1826918Y3526468D1*
X1832991Y3519433D1*
X1837523Y3511319D1*
X1840329Y3502458D1*
X1841295Y3493091D1*
X1840379Y3483966D1*
X2659052Y3633311D2*
X2658746Y3630256D1*
X2658236Y3627229D1*
X2657524Y3624243D1*
X2656615Y3621311D1*
X2655513Y3618446D1*
X2654221Y3615662D1*
X2652746Y3612969D1*
X2651095Y3610382D1*
X2649275Y3607910D1*
X2647293Y3605565D1*
X2645159Y3603358D1*
X2642883Y3601299D1*
X2640474Y3599396D1*
X2637944Y3597658D1*
X2635303Y3596093D1*
X2632563Y3594708D1*
X2629737Y3593509D1*
X2626838Y3592502D1*
X2623877Y3591690D1*
X2620869Y3591078D1*
X2617827Y3590669D1*
X2614764Y3590463D1*
X2611694D1*
X2608631Y3590667D1*
X2605589Y3591076D1*
X2602581Y3591687D1*
X2599620Y3592497D1*
X2596720Y3593504D1*
X2593893Y3594701D1*
X2591153Y3596085D1*
X2588512Y3597649D1*
X2585981Y3599386D1*
X2583571Y3601288D1*
X2581294Y3603347D1*
X2579160Y3605553D1*
X2577178Y3607897D1*
X2575356Y3610368D1*
X2573704Y3612955D1*
X2572228Y3615647D1*
X2570936Y3618431D1*
X2569832Y3621296D1*
X2568922Y3624227D1*
X2568210Y3627213D1*
X2567699Y3630240D1*
X2567391Y3633294D1*
X2567288Y3636362D1*
X2567390Y3639430D1*
X2567696Y3642485D1*
X2568206Y3645512D1*
X2568918Y3648498D1*
X2569827Y3651430D1*
X2570929Y3654295D1*
X2572221Y3657080D1*
X2573696Y3659772D1*
X2575347Y3662360D1*
X2577167Y3664831D1*
X2579149Y3667176D1*
X2581283Y3669383D1*
X2583559Y3671442D1*
X2585968Y3673345D1*
X2588498Y3675083D1*
X2591139Y3676648D1*
X2593879Y3678033D1*
X2596705Y3679232D1*
X2599604Y3680239D1*
X2602565Y3681051D1*
X2605573Y3681663D1*
X2608615Y3682072D1*
X2611678Y3682278D1*
X2614748Y3682279D1*
X2617811Y3682074D1*
X2620853Y3681665D1*
X2623861Y3681055D1*
X2626822Y3680244D1*
X2629722Y3679238D1*
X2632549Y3678040D1*
X2635289Y3676656D1*
X2637930Y3675092D1*
X2640461Y3673355D1*
X2642871Y3671453D1*
X2645148Y3669394D1*
X2647282Y3667188D1*
X2649264Y3664844D1*
X2651086Y3662373D1*
X2652738Y3659786D1*
X2654214Y3657094D1*
X2655506Y3654310D1*
X2656610Y3651446D1*
X2657520Y3648514D1*
X2658232Y3645528D1*
X2658743Y3642501D1*
X2659051Y3639447D1*
X2659154Y3636371D1*
X2659052Y3633311D1*
X2516243Y3635122D2*
X2515936Y3632067D1*
X2515426Y3629040D1*
X2514715Y3626054D1*
X2513806Y3623122D1*
X2512703Y3620257D1*
X2511411Y3617473D1*
X2509937Y3614780D1*
X2508285Y3612193D1*
X2506465Y3609721D1*
X2504483Y3607376D1*
X2502350Y3605169D1*
X2500073Y3603110D1*
X2497665Y3601207D1*
X2495134Y3599469D1*
X2492493Y3597904D1*
X2489754Y3596519D1*
X2486928Y3595320D1*
X2484028Y3594313D1*
X2481068Y3593501D1*
X2478059Y3592889D1*
X2475017Y3592480D1*
X2471954Y3592274D1*
X2468885D1*
X2465822Y3592478D1*
X2462779Y3592887D1*
X2459771Y3593498D1*
X2456810Y3594308D1*
X2453910Y3595315D1*
X2451084Y3596512D1*
X2448344Y3597896D1*
X2445702Y3599460D1*
X2443171Y3601197D1*
X2440762Y3603099D1*
X2438485Y3605158D1*
X2436350Y3607364D1*
X2434368Y3609708D1*
X2432547Y3612179D1*
X2430894Y3614766D1*
X2429419Y3617458D1*
X2428126Y3620242D1*
X2427022Y3623107D1*
X2426112Y3626038D1*
X2425400Y3629024D1*
X2424889Y3632051D1*
X2424581Y3635105D1*
X2424478Y3638173D1*
X2424580Y3641241D1*
X2424887Y3644296D1*
X2425397Y3647323D1*
X2426108Y3650309D1*
X2427017Y3653241D1*
X2428120Y3656106D1*
X2429411Y3658891D1*
X2430886Y3661583D1*
X2432537Y3664171D1*
X2434358Y3666642D1*
X2436339Y3668987D1*
X2438473Y3671194D1*
X2440749Y3673253D1*
X2443158Y3675156D1*
X2445688Y3676894D1*
X2448329Y3678459D1*
X2451069Y3679844D1*
X2453895Y3681043D1*
X2456795Y3682050D1*
X2459755Y3682862D1*
X2462763Y3683474D1*
X2465805Y3683883D1*
X2468868Y3684089D1*
X2471938Y3684090D1*
X2475001Y3683885D1*
X2478043Y3683476D1*
X2481052Y3682866D1*
X2484012Y3682055D1*
X2486912Y3681049D1*
X2489739Y3679851D1*
X2492479Y3678467D1*
X2495120Y3676903D1*
X2497651Y3675166D1*
X2500061Y3673264D1*
X2502338Y3671205D1*
X2504472Y3668999D1*
X2506455Y3666655D1*
X2508276Y3664184D1*
X2509928Y3661597D1*
X2511404Y3658905D1*
X2512697Y3656121D1*
X2513800Y3653257D1*
X2514710Y3650325D1*
X2515423Y3647339D1*
X2515934Y3644312D1*
X2516241Y3641258D1*
X2516345Y3638182D1*
X2516243Y3635122D1*
X2516743Y3506042D2*
X2516436Y3502987D1*
X2515926Y3499960D1*
X2515215Y3496974D1*
X2514306Y3494042D1*
X2513203Y3491177D1*
X2511911Y3488392D1*
X2510437Y3485700D1*
X2508785Y3483112D1*
X2506965Y3480641D1*
X2504983Y3478296D1*
X2502850Y3476089D1*
X2500573Y3474030D1*
X2498165Y3472127D1*
X2495634Y3470389D1*
X2492993Y3468824D1*
X2490254Y3467439D1*
X2487428Y3466240D1*
X2484528Y3465233D1*
X2481568Y3464421D1*
X2478559Y3463809D1*
X2475517Y3463400D1*
X2472454Y3463194D1*
X2469385D1*
X2466322Y3463398D1*
X2463279Y3463807D1*
X2460271Y3464418D1*
X2457310Y3465228D1*
X2454410Y3466235D1*
X2451584Y3467432D1*
X2448844Y3468816D1*
X2446202Y3470380D1*
X2443671Y3472117D1*
X2441262Y3474019D1*
X2438985Y3476078D1*
X2436850Y3478284D1*
X2434868Y3480628D1*
X2433047Y3483099D1*
X2431394Y3485686D1*
X2429919Y3488378D1*
X2428626Y3491162D1*
X2427522Y3494027D1*
X2426612Y3496958D1*
X2425900Y3499944D1*
X2425389Y3502971D1*
X2425081Y3506025D1*
X2424978Y3509093D1*
X2425080Y3512161D1*
X2425387Y3515216D1*
X2425897Y3518243D1*
X2426608Y3521229D1*
X2427517Y3524161D1*
X2428620Y3527026D1*
X2429911Y3529811D1*
X2430624Y3531166D1*
X2431382Y3532496D1*
X2432183Y3533800D1*
X2433028Y3535077D1*
X2433915Y3536325D1*
X2434664Y3537309D1*
X2432780Y3535621D1*
X2431596Y3534650D1*
X2430380Y3533720D1*
X2429134Y3532831D1*
X2427858Y3531983D1*
X2426556Y3531179D1*
X2425227Y3530419D1*
X2423874Y3529703D1*
X2421091Y3528406D1*
X2418229Y3527297D1*
X2415299Y3526382D1*
X2412314Y3525665D1*
X2409288Y3525149D1*
X2406234Y3524836D1*
X2403166Y3524727D1*
X2400098Y3524824D1*
X2397043Y3525126D1*
X2394015Y3525631D1*
X2391028Y3526337D1*
X2388094Y3527241D1*
X2385228Y3528339D1*
X2382441Y3529626D1*
X2379746Y3531096D1*
X2377156Y3532743D1*
X2374681Y3534559D1*
X2372333Y3536537D1*
X2370122Y3538666D1*
X2368059Y3540939D1*
X2366152Y3543345D1*
X2364410Y3545872D1*
X2362841Y3548511D1*
X2361451Y3551248D1*
X2360247Y3554072D1*
X2359235Y3556970D1*
X2358419Y3559929D1*
X2357801Y3562936D1*
X2357387Y3565977D1*
X2357176Y3569040D1*
X2357170Y3572110D1*
X2357369Y3575173D1*
X2357773Y3578216D1*
X2358379Y3581225D1*
X2359184Y3584188D1*
X2360186Y3587089D1*
X2361379Y3589918D1*
X2362758Y3592660D1*
X2364318Y3595304D1*
X2366050Y3597838D1*
X2367948Y3600251D1*
X2370003Y3602531D1*
X2372206Y3604670D1*
X2374546Y3606656D1*
X2377014Y3608481D1*
X2379598Y3610138D1*
X2382288Y3611618D1*
X2385070Y3612916D1*
X2387932Y3614024D1*
X2390862Y3614939D1*
X2393847Y3615656D1*
X2396873Y3616173D1*
X2399927Y3616486D1*
X2402995Y3616594D1*
X2406063Y3616497D1*
X2409118Y3616195D1*
X2412146Y3615691D1*
X2415133Y3614985D1*
X2418067Y3614081D1*
X2420933Y3612983D1*
X2423720Y3611696D1*
X2426415Y3610225D1*
X2429006Y3608579D1*
X2431480Y3606762D1*
X2433828Y3604785D1*
X2436039Y3602655D1*
X2438102Y3600382D1*
X2440009Y3597976D1*
X2441751Y3595449D1*
X2443320Y3592811D1*
X2444710Y3590073D1*
X2445914Y3587250D1*
X2446926Y3584352D1*
X2447743Y3581392D1*
X2448360Y3578385D1*
X2448775Y3575344D1*
X2448985Y3572281D1*
X2449014Y3570661D1*
X2448912Y3567601D1*
X2448605Y3564546D1*
X2448095Y3561519D1*
X2447384Y3558533D1*
X2446475Y3555601D1*
X2445372Y3552736D1*
X2444081Y3549952D1*
X2443368Y3548597D1*
X2442610Y3547266D1*
X2441808Y3545962D1*
X2440964Y3544685D1*
X2440077Y3543437D1*
X2439328Y3542453D1*
X2441212Y3544142D1*
X2442396Y3545112D1*
X2443612Y3546042D1*
X2444858Y3546932D1*
X2446133Y3547779D1*
X2447436Y3548583D1*
X2448765Y3549343D1*
X2450118Y3550059D1*
X2452900Y3551357D1*
X2455763Y3552465D1*
X2458693Y3553380D1*
X2461678Y3554097D1*
X2464704Y3554614D1*
X2467758Y3554927D1*
X2470825Y3555035D1*
X2473894Y3554938D1*
X2476948Y3554636D1*
X2479976Y3554132D1*
X2482964Y3553425D1*
X2485897Y3552521D1*
X2488764Y3551424D1*
X2491551Y3550137D1*
X2494246Y3548666D1*
X2496836Y3547019D1*
X2499311Y3545203D1*
X2501659Y3543226D1*
X2503870Y3541096D1*
X2505933Y3538823D1*
X2507840Y3536417D1*
X2509582Y3533890D1*
X2511151Y3531252D1*
X2512541Y3528514D1*
X2513744Y3525690D1*
X2514757Y3522792D1*
X2515573Y3519833D1*
X2516190Y3516826D1*
X2516605Y3513785D1*
X2516816Y3510722D1*
X2516845Y3509102D1*
X2516743Y3506042D1*
X2447702Y3700271D2*
X2447395Y3697217D1*
X2446885Y3694190D1*
X2446174Y3691204D1*
X2445265Y3688272D1*
X2444162Y3685407D1*
X2442871Y3682622D1*
X2441396Y3679930D1*
X2439745Y3677342D1*
X2437924Y3674870D1*
X2435943Y3672526D1*
X2433809Y3670319D1*
X2431533Y3668259D1*
X2429124Y3666357D1*
X2426593Y3664619D1*
X2423952Y3663054D1*
X2421213Y3661669D1*
X2418387Y3660470D1*
X2415487Y3659463D1*
X2412527Y3658651D1*
X2409519Y3658039D1*
X2406476Y3657629D1*
X2403414Y3657424D1*
X2400344Y3657423D1*
X2397281Y3657628D1*
X2394239Y3658036D1*
X2391230Y3658647D1*
X2388269Y3659458D1*
X2385369Y3660464D1*
X2382543Y3661662D1*
X2379803Y3663046D1*
X2377162Y3664610D1*
X2374630Y3666347D1*
X2372221Y3668249D1*
X2369944Y3670308D1*
X2367810Y3672514D1*
X2365827Y3674858D1*
X2364006Y3677329D1*
X2362354Y3679916D1*
X2360878Y3682608D1*
X2359585Y3685392D1*
X2358481Y3688256D1*
X2357571Y3691188D1*
X2356859Y3694174D1*
X2356348Y3697201D1*
X2356040Y3700255D1*
X2355937Y3703323D1*
X2356039Y3706391D1*
X2356346Y3709445D1*
X2356856Y3712472D1*
X2357567Y3715459D1*
X2358476Y3718391D1*
X2359579Y3721256D1*
X2360871Y3724040D1*
X2362345Y3726733D1*
X2363997Y3729320D1*
X2365817Y3731792D1*
X2367799Y3734137D1*
X2369932Y3736344D1*
X2372209Y3738403D1*
X2374617Y3740306D1*
X2377148Y3742044D1*
X2379789Y3743609D1*
X2382528Y3744994D1*
X2385354Y3746192D1*
X2388254Y3747200D1*
X2391214Y3748011D1*
X2394222Y3748623D1*
X2397265Y3749033D1*
X2400328Y3749239D1*
X2403397D1*
X2406460Y3749035D1*
X2409503Y3748626D1*
X2412511Y3748015D1*
X2415472Y3747205D1*
X2418372Y3746198D1*
X2421198Y3745000D1*
X2423938Y3743616D1*
X2426580Y3742052D1*
X2429111Y3740316D1*
X2431520Y3738414D1*
X2433797Y3736355D1*
X2435932Y3734149D1*
X2437914Y3731805D1*
X2439735Y3729334D1*
X2441388Y3726747D1*
X2442863Y3724055D1*
X2444156Y3721271D1*
X2445260Y3718406D1*
X2446170Y3715474D1*
X2446882Y3712489D1*
X2447393Y3709462D1*
X2447701Y3706407D1*
X2447804Y3703331D1*
X2447702Y3700271D1*
X1475093Y2863053D2*
X1470802Y2855273D1*
X1464767Y2848204D1*
X1457433Y2842496D1*
X1449099Y2838380D1*
X1440108Y2836027D1*
X1430828Y2835531D1*
X1421637Y2836913D1*
X1412913Y2840118D1*
X1405012Y2845013D1*
X1398259Y2851398D1*
X1392929Y2859012D1*
X1389241Y2867543D1*
X1387346Y2876641D1*
X1387321Y2885935D1*
X1389167Y2895044D1*
X1392809Y2903595D1*
X1398098Y2911237D1*
X1404817Y2917658D1*
X1412691Y2922596D1*
X1421398Y2925847D1*
X1430581Y2927279D1*
X1439864Y2926833D1*
X1448868Y2924528D1*
X1457223Y2920458D1*
X1464588Y2914788D1*
X1470660Y2907753D1*
X1474976Y2900027D1*
X1476859Y2903844D1*
X1482148Y2911486D1*
X1488867Y2917908D1*
X1496741Y2922845D1*
X1505448Y2926097D1*
X1514631Y2927529D1*
X1523914Y2927083D1*
X1532918Y2924777D1*
X1541273Y2920707D1*
X1548637Y2915038D1*
X1554710Y2908002D1*
X1556326Y2905110D1*
X1557678Y2907337D1*
X1563502Y2914580D1*
X1570665Y2920502D1*
X1578874Y2924861D1*
X1587792Y2927478D1*
X1597054Y2928246D1*
X1606281Y2927134D1*
X1615096Y2924188D1*
X1623137Y2919528D1*
X1630075Y2913344D1*
X1635627Y2905890D1*
X1639564Y2897471D1*
X1641726Y2888432D1*
X1642135Y2882321D1*
X1641219Y2873195D1*
X1638461Y2864320D1*
X1633972Y2856182D1*
X1627937Y2849114D1*
X1620603Y2843405D1*
X1612270Y2839290D1*
X1603279Y2836936D1*
X1593998Y2836440D1*
X1584808Y2837823D1*
X1576084Y2841027D1*
X1568183Y2845922D1*
X1561430Y2852307D1*
X1556907Y2858769D1*
X1554851Y2855522D1*
X1548817Y2848454D1*
X1541482Y2842745D1*
X1533149Y2838630D1*
X1524158Y2836276D1*
X1514878Y2835780D1*
X1505687Y2837163D1*
X1496963Y2840367D1*
X1489062Y2845262D1*
X1482309Y2851647D1*
X1476979Y2859261D1*
X1475239Y2863285D1*
X2588472Y3701481D2*
X2588166Y3698427D1*
X2587655Y3695400D1*
X2586944Y3692414D1*
X2586035Y3689482D1*
X2584933Y3686617D1*
X2583641Y3683832D1*
X2582166Y3681140D1*
X2580515Y3678552D1*
X2578694Y3676080D1*
X2576713Y3673736D1*
X2574579Y3671529D1*
X2572303Y3669469D1*
X2569894Y3667567D1*
X2567364Y3665829D1*
X2564723Y3664264D1*
X2561983Y3662879D1*
X2559157Y3661680D1*
X2556258Y3660673D1*
X2553297Y3659861D1*
X2550289Y3659249D1*
X2547247Y3658839D1*
X2544184Y3658634D1*
X2541114Y3658633D1*
X2538051Y3658838D1*
X2535009Y3659246D1*
X2532001Y3659857D1*
X2529040Y3660668D1*
X2526140Y3661674D1*
X2523313Y3662872D1*
X2520573Y3664256D1*
X2517932Y3665820D1*
X2515401Y3667557D1*
X2512991Y3669459D1*
X2510714Y3671518D1*
X2508580Y3673724D1*
X2506598Y3676068D1*
X2504776Y3678539D1*
X2503124Y3681126D1*
X2501648Y3683818D1*
X2500356Y3686602D1*
X2499252Y3689466D1*
X2498342Y3692398D1*
X2497630Y3695384D1*
X2497119Y3698411D1*
X2496811Y3701465D1*
X2496708Y3704533D1*
X2496810Y3707601D1*
X2497116Y3710655D1*
X2497626Y3713682D1*
X2498338Y3716669D1*
X2499246Y3719601D1*
X2500349Y3722466D1*
X2501641Y3725250D1*
X2503116Y3727943D1*
X2504767Y3730530D1*
X2506587Y3733002D1*
X2508569Y3735347D1*
X2510703Y3737553D1*
X2512979Y3739613D1*
X2515388Y3741516D1*
X2517918Y3743254D1*
X2520559Y3744819D1*
X2523299Y3746203D1*
X2526125Y3747402D1*
X2529024Y3748410D1*
X2531985Y3749221D1*
X2534993Y3749833D1*
X2538035Y3750243D1*
X2541098Y3750449D1*
X2544168D1*
X2547231Y3750245D1*
X2550273Y3749836D1*
X2553281Y3749225D1*
X2556242Y3748415D1*
X2559142Y3747408D1*
X2561968Y3746210D1*
X2564708Y3744826D1*
X2567350Y3743262D1*
X2569881Y3741526D1*
X2572291Y3739624D1*
X2574568Y3737565D1*
X2576702Y3735359D1*
X2578684Y3733015D1*
X2580506Y3730544D1*
X2582158Y3727957D1*
X2583634Y3725265D1*
X2584926Y3722481D1*
X2586030Y3719616D1*
X2586940Y3716684D1*
X2587652Y3713698D1*
X2588163Y3710672D1*
X2588471Y3707617D1*
X2588574Y3704541D1*
X2588472Y3701481D1*
X2377512Y3633731D2*
X2377205Y3630676D1*
X2376695Y3627649D1*
X2375984Y3624663D1*
X2375075Y3621731D1*
X2373972Y3618866D1*
X2372680Y3616081D1*
X2371206Y3613389D1*
X2369554Y3610801D1*
X2367734Y3608330D1*
X2365752Y3605985D1*
X2363619Y3603778D1*
X2361342Y3601719D1*
X2358934Y3599816D1*
X2356403Y3598078D1*
X2353762Y3596513D1*
X2351023Y3595128D1*
X2348197Y3593929D1*
X2345297Y3592922D1*
X2342337Y3592110D1*
X2339328Y3591498D1*
X2336286Y3591089D1*
X2333223Y3590883D1*
X2330154D1*
X2327091Y3591087D1*
X2324048Y3591496D1*
X2321040Y3592107D1*
X2318079Y3592917D1*
X2315179Y3593924D1*
X2312353Y3595121D1*
X2309613Y3596505D1*
X2306971Y3598069D1*
X2304440Y3599806D1*
X2302031Y3601708D1*
X2299754Y3603767D1*
X2297619Y3605973D1*
X2295637Y3608317D1*
X2293816Y3610788D1*
X2292163Y3613375D1*
X2290688Y3616067D1*
X2289395Y3618851D1*
X2288291Y3621716D1*
X2287381Y3624647D1*
X2286669Y3627633D1*
X2286158Y3630660D1*
X2285850Y3633714D1*
X2285747Y3636782D1*
X2285849Y3639850D1*
X2286156Y3642905D1*
X2286666Y3645932D1*
X2287377Y3648918D1*
X2288286Y3651850D1*
X2289389Y3654715D1*
X2290680Y3657500D1*
X2292155Y3660192D1*
X2293806Y3662780D1*
X2295627Y3665251D1*
X2297608Y3667596D1*
X2299742Y3669803D1*
X2302018Y3671862D1*
X2304427Y3673765D1*
X2306958Y3675503D1*
X2309598Y3677068D1*
X2312338Y3678453D1*
X2315164Y3679652D1*
X2318064Y3680659D1*
X2321024Y3681471D1*
X2324032Y3682083D1*
X2327074Y3682492D1*
X2330137Y3682698D1*
X2333207Y3682699D1*
X2336270Y3682494D1*
X2339312Y3682085D1*
X2342321Y3681474D1*
X2345281Y3680664D1*
X2348181Y3679658D1*
X2351008Y3678460D1*
X2353748Y3677076D1*
X2356389Y3675512D1*
X2358920Y3673775D1*
X2361330Y3671873D1*
X2363607Y3669814D1*
X2365741Y3667608D1*
X2367724Y3665264D1*
X2369545Y3662793D1*
X2371197Y3660206D1*
X2372673Y3657514D1*
X2373966Y3654730D1*
X2375069Y3651866D1*
X2375979Y3648934D1*
X2376692Y3645948D1*
X2377203Y3642921D1*
X2377511Y3639867D1*
X2377614Y3636791D1*
X2377512Y3633731D1*
X2304092Y3567611D2*
X2303785Y3564557D1*
X2303275Y3561530D1*
X2302564Y3558544D1*
X2301655Y3555612D1*
X2300552Y3552747D1*
X2299260Y3549962D1*
X2297786Y3547270D1*
X2296134Y3544682D1*
X2294314Y3542210D1*
X2292332Y3539866D1*
X2290199Y3537659D1*
X2287922Y3535599D1*
X2285514Y3533696D1*
X2282983Y3531959D1*
X2280342Y3530394D1*
X2277603Y3529009D1*
X2274777Y3527810D1*
X2271877Y3526803D1*
X2268917Y3525991D1*
X2265908Y3525379D1*
X2262866Y3524969D1*
X2259803Y3524764D1*
X2256734Y3524763D1*
X2253671Y3524968D1*
X2250628Y3525376D1*
X2247620Y3525987D1*
X2244659Y3526798D1*
X2241759Y3527804D1*
X2238933Y3529002D1*
X2236193Y3530386D1*
X2233551Y3531950D1*
X2231020Y3533687D1*
X2228611Y3535589D1*
X2226334Y3537647D1*
X2224199Y3539854D1*
X2222217Y3542198D1*
X2220396Y3544669D1*
X2218743Y3547256D1*
X2217268Y3549947D1*
X2215975Y3552732D1*
X2214871Y3555596D1*
X2213961Y3558528D1*
X2213249Y3561514D1*
X2212738Y3564541D1*
X2212430Y3567595D1*
X2212327Y3570663D1*
X2212429Y3573731D1*
X2212736Y3576785D1*
X2213246Y3579812D1*
X2213957Y3582799D1*
X2214866Y3585731D1*
X2215969Y3588595D1*
X2217260Y3591380D1*
X2218735Y3594072D1*
X2220386Y3596660D1*
X2222207Y3599132D1*
X2224188Y3601476D1*
X2226322Y3603683D1*
X2228598Y3605743D1*
X2231007Y3607646D1*
X2233538Y3609384D1*
X2236178Y3610948D1*
X2238918Y3612333D1*
X2241744Y3613532D1*
X2244644Y3614540D1*
X2247604Y3615351D1*
X2250612Y3615963D1*
X2253655Y3616373D1*
X2256717Y3616579D1*
X2259787D1*
X2262850Y3616375D1*
X2265892Y3615966D1*
X2268901Y3615355D1*
X2271861Y3614545D1*
X2274762Y3613538D1*
X2277588Y3612340D1*
X2280328Y3610956D1*
X2282969Y3609392D1*
X2285501Y3607656D1*
X2287910Y3605753D1*
X2290187Y3603695D1*
X2292321Y3601489D1*
X2294304Y3599145D1*
X2296125Y3596674D1*
X2297777Y3594087D1*
X2299253Y3591395D1*
X2300546Y3588611D1*
X2301649Y3585746D1*
X2302559Y3582814D1*
X2303272Y3579828D1*
X2303783Y3576802D1*
X2304091Y3573747D1*
X2304194Y3570671D1*
X2304092Y3567611D1*
X1472374Y2756402D2*
X1467951Y2748383D1*
X1461916Y2741315D1*
X1454582Y2735606D1*
X1446249Y2731491D1*
X1437258Y2729137D1*
X1427977Y2728641D1*
X1418787Y2730024D1*
X1410063Y2733228D1*
X1402162Y2738123D1*
X1395409Y2744508D1*
X1390079Y2752122D1*
X1386391Y2760653D1*
X1384495Y2769752D1*
X1384470Y2779046D1*
X1386317Y2788154D1*
X1389959Y2796705D1*
X1395248Y2804347D1*
X1401967Y2810769D1*
X1409841Y2815706D1*
X1418547Y2818957D1*
X1427730Y2820389D1*
X1437014Y2819944D1*
X1446017Y2817638D1*
X1454372Y2813568D1*
X1461737Y2807899D1*
X1467810Y2800863D1*
X1472037Y2793296D1*
X1474049Y2797424D1*
X1479338Y2805067D1*
X1486057Y2811488D1*
X1493931Y2816425D1*
X1502638Y2819677D1*
X1511821Y2821109D1*
X1521104Y2820663D1*
X1530108Y2818358D1*
X1538463Y2814287D1*
X1545828Y2808618D1*
X1551901Y2801582D1*
X1555127Y2795806D1*
X1555980Y2797415D1*
X1561269Y2805057D1*
X1567988Y2811479D1*
X1575862Y2816416D1*
X1584568Y2819667D1*
X1593751Y2821099D1*
X1603035Y2820654D1*
X1612038Y2818348D1*
X1620393Y2814278D1*
X1627758Y2808609D1*
X1633831Y2801573D1*
X1638363Y2793459D1*
X1641169Y2784599D1*
X1642135Y2775231D1*
X1641219Y2766106D1*
X1638461Y2757231D1*
X1633972Y2749093D1*
X1627937Y2742025D1*
X1620603Y2736316D1*
X1612270Y2732200D1*
X1603279Y2729847D1*
X1593998Y2729351D1*
X1584808Y2730734D1*
X1576084Y2733938D1*
X1568183Y2738833D1*
X1561430Y2745218D1*
X1556100Y2752832D1*
X1555318Y2754640D1*
X1552042Y2749102D1*
X1546007Y2742034D1*
X1538673Y2736325D1*
X1530340Y2732210D1*
X1521349Y2729856D1*
X1512068Y2729360D1*
X1502877Y2730743D1*
X1494153Y2733947D1*
X1486253Y2738842D1*
X1479499Y2745227D1*
X1474169Y2752841D1*
X1472509Y2756682D1*
X2730862Y3697832D2*
X2730555Y3694777D1*
X2730045Y3691750D1*
X2729334Y3688764D1*
X2728425Y3685832D1*
X2727322Y3682967D1*
X2726031Y3680183D1*
X2724556Y3677490D1*
X2722905Y3674903D1*
X2721084Y3672431D1*
X2719103Y3670086D1*
X2716969Y3667879D1*
X2714693Y3665820D1*
X2712284Y3663917D1*
X2709754Y3662179D1*
X2707113Y3660614D1*
X2704373Y3659229D1*
X2701547Y3658030D1*
X2698647Y3657023D1*
X2695687Y3656211D1*
X2692679Y3655599D1*
X2689637Y3655190D1*
X2686574Y3654984D1*
X2683504D1*
X2680441Y3655188D1*
X2677399Y3655597D1*
X2674390Y3656208D1*
X2671430Y3657018D1*
X2668530Y3658025D1*
X2665703Y3659222D1*
X2662963Y3660606D1*
X2660322Y3662170D1*
X2657791Y3663907D1*
X2655381Y3665809D1*
X2653104Y3667868D1*
X2650970Y3670074D1*
X2648987Y3672418D1*
X2647166Y3674889D1*
X2645514Y3677476D1*
X2644038Y3680168D1*
X2642745Y3682952D1*
X2641642Y3685817D1*
X2640732Y3688748D1*
X2640019Y3691734D1*
X2639508Y3694761D1*
X2639200Y3697815D1*
X2639097Y3700883D1*
X2639199Y3703951D1*
X2639506Y3707006D1*
X2640016Y3710033D1*
X2640727Y3713019D1*
X2641636Y3715951D1*
X2642739Y3718816D1*
X2644031Y3721601D1*
X2645505Y3724293D1*
X2647157Y3726881D1*
X2648977Y3729352D1*
X2650959Y3731697D1*
X2653092Y3733904D1*
X2655369Y3735963D1*
X2657777Y3737866D1*
X2660308Y3739604D1*
X2662949Y3741169D1*
X2665688Y3742554D1*
X2668514Y3743753D1*
X2671414Y3744760D1*
X2674374Y3745572D1*
X2677383Y3746184D1*
X2680425Y3746593D1*
X2683488Y3746799D1*
X2686557Y3746800D1*
X2689620Y3746595D1*
X2692663Y3746186D1*
X2695671Y3745576D1*
X2698632Y3744765D1*
X2701532Y3743759D1*
X2704358Y3742561D1*
X2707098Y3741177D1*
X2709740Y3739613D1*
X2712271Y3737876D1*
X2714680Y3735974D1*
X2716957Y3733915D1*
X2719092Y3731709D1*
X2721074Y3729365D1*
X2722895Y3726894D1*
X2724548Y3724307D1*
X2726023Y3721615D1*
X2727316Y3718831D1*
X2728420Y3715967D1*
X2729330Y3713035D1*
X2730042Y3710049D1*
X2730553Y3707022D1*
X2730861Y3703968D1*
X2730964Y3700892D1*
X2730862Y3697832D1*
X2586042Y3568012D2*
X2585735Y3564957D1*
X2585225Y3561930D1*
X2584514Y3558944D1*
X2583605Y3556012D1*
X2582502Y3553147D1*
X2581211Y3550362D1*
X2579736Y3547670D1*
X2578084Y3545082D1*
X2576264Y3542611D1*
X2574283Y3540266D1*
X2572149Y3538059D1*
X2569873Y3536000D1*
X2567464Y3534097D1*
X2564933Y3532359D1*
X2562292Y3530794D1*
X2559553Y3529409D1*
X2556727Y3528210D1*
X2553827Y3527203D1*
X2550867Y3526391D1*
X2547859Y3525779D1*
X2544816Y3525370D1*
X2541754Y3525164D1*
X2538684Y3525163D1*
X2535621Y3525368D1*
X2532579Y3525777D1*
X2529570Y3526387D1*
X2526609Y3527198D1*
X2523709Y3528204D1*
X2520883Y3529402D1*
X2518143Y3530786D1*
X2515501Y3532350D1*
X2512970Y3534087D1*
X2510561Y3535989D1*
X2508284Y3538048D1*
X2506149Y3540254D1*
X2504167Y3542598D1*
X2502346Y3545069D1*
X2500694Y3547656D1*
X2499218Y3550348D1*
X2497925Y3553132D1*
X2496821Y3555996D1*
X2495911Y3558928D1*
X2495199Y3561914D1*
X2494688Y3564941D1*
X2494380Y3567995D1*
X2494277Y3571063D1*
X2494379Y3574131D1*
X2494686Y3577186D1*
X2495196Y3580213D1*
X2495907Y3583199D1*
X2496816Y3586131D1*
X2497919Y3588996D1*
X2499210Y3591780D1*
X2500685Y3594473D1*
X2502337Y3597060D1*
X2504157Y3599532D1*
X2506138Y3601877D1*
X2508272Y3604084D1*
X2510548Y3606143D1*
X2512957Y3608046D1*
X2515488Y3609784D1*
X2518129Y3611349D1*
X2520868Y3612734D1*
X2523694Y3613933D1*
X2526594Y3614940D1*
X2529554Y3615752D1*
X2532562Y3616364D1*
X2535605Y3616773D1*
X2538667Y3616979D1*
X2541737D1*
X2544800Y3616775D1*
X2547842Y3616366D1*
X2550851Y3615755D1*
X2553812Y3614945D1*
X2556712Y3613938D1*
X2559538Y3612741D1*
X2562278Y3611357D1*
X2564920Y3609793D1*
X2567451Y3608056D1*
X2569860Y3606154D1*
X2572137Y3604095D1*
X2574272Y3601889D1*
X2576254Y3599545D1*
X2578075Y3597074D1*
X2579727Y3594487D1*
X2581203Y3591795D1*
X2582496Y3589011D1*
X2583600Y3586146D1*
X2584510Y3583215D1*
X2585222Y3580229D1*
X2585733Y3577202D1*
X2586041Y3574148D1*
X2586144Y3571071D1*
X2586042Y3568012D1*
X1470099Y2492778D2*
X1469671Y2491400D1*
X1465182Y2483262D1*
X1459147Y2476194D1*
X1451813Y2470485D1*
X1443480Y2466370D1*
X1434489Y2464016D1*
X1425208Y2463520D1*
X1416018Y2464903D1*
X1407294Y2468107D1*
X1399393Y2473002D1*
X1392640Y2479387D1*
X1387310Y2487001D1*
X1383622Y2495532D1*
X1381726Y2504631D1*
X1381701Y2513925D1*
X1383548Y2523034D1*
X1387190Y2531584D1*
X1392479Y2539227D1*
X1399198Y2545648D1*
X1407072Y2550585D1*
X1415778Y2553837D1*
X1424961Y2555269D1*
X1434245Y2554823D1*
X1443248Y2552518D1*
X1451603Y2548447D1*
X1458968Y2542778D1*
X1465041Y2535742D1*
X1469573Y2527628D1*
X1470732Y2523968D1*
X1473389Y2529675D1*
X1478678Y2537317D1*
X1485397Y2543739D1*
X1493271Y2548676D1*
X1501978Y2551927D1*
X1511161Y2553359D1*
X1520444Y2552914D1*
X1529448Y2550608D1*
X1537803Y2546538D1*
X1545168Y2540869D1*
X1551240Y2533833D1*
X1554980Y2527137D1*
X1557669Y2532945D1*
X1562958Y2540588D1*
X1569677Y2547009D1*
X1577551Y2551946D1*
X1586257Y2555198D1*
X1595440Y2556630D1*
X1604724Y2556184D1*
X1613727Y2553879D1*
X1622082Y2549808D1*
X1629447Y2544139D1*
X1635520Y2537103D1*
X1640052Y2528989D1*
X1642858Y2520129D1*
X1643824Y2510762D1*
X1642908Y2501636D1*
X1640150Y2492761D1*
X1635661Y2484623D1*
X1629626Y2477555D1*
X1622292Y2471846D1*
X1613959Y2467731D1*
X1604968Y2465377D1*
X1595687Y2464881D1*
X1586497Y2466264D1*
X1577773Y2469468D1*
X1569872Y2474363D1*
X1563119Y2480748D1*
X1557789Y2488362D1*
X1556561Y2491203D1*
X1555870Y2489491D1*
X1551382Y2481353D1*
X1545347Y2474284D1*
X1538013Y2468576D1*
X1529679Y2464460D1*
X1520688Y2462107D1*
X1511408Y2461611D1*
X1502217Y2462994D1*
X1493493Y2466198D1*
X1485593Y2471093D1*
X1478839Y2477478D1*
X1473509Y2485092D1*
X1470206Y2492731D1*
X2731672Y3436572D2*
X2731365Y3433518D1*
X2730855Y3430490D1*
X2730144Y3427504D1*
X2729235Y3424572D1*
X2728132Y3421707D1*
X2726840Y3418923D1*
X2725366Y3416230D1*
X2723714Y3413643D1*
X2721894Y3411171D1*
X2719912Y3408826D1*
X2717779Y3406619D1*
X2715503Y3404560D1*
X2713094Y3402657D1*
X2710563Y3400919D1*
X2707922Y3399354D1*
X2705183Y3397969D1*
X2702357Y3396771D1*
X2699457Y3395763D1*
X2696497Y3394952D1*
X2693489Y3394340D1*
X2690446Y3393930D1*
X2687383Y3393724D1*
X2684314D1*
X2681251Y3393928D1*
X2678208Y3394337D1*
X2675200Y3394948D1*
X2672239Y3395758D1*
X2669339Y3396765D1*
X2666513Y3397963D1*
X2663773Y3399347D1*
X2661131Y3400911D1*
X2658600Y3402647D1*
X2656191Y3404549D1*
X2653914Y3406608D1*
X2651779Y3408814D1*
X2649797Y3411158D1*
X2647976Y3413629D1*
X2646323Y3416216D1*
X2644848Y3418908D1*
X2643555Y3421692D1*
X2642451Y3424557D1*
X2641541Y3427488D1*
X2640829Y3430474D1*
X2640318Y3433501D1*
X2640010Y3436556D1*
X2639907Y3439624D1*
X2640009Y3442692D1*
X2640316Y3445746D1*
X2640826Y3448773D1*
X2641537Y3451759D1*
X2642446Y3454691D1*
X2643549Y3457556D1*
X2644840Y3460341D1*
X2646315Y3463033D1*
X2647966Y3465621D1*
X2649787Y3468093D1*
X2651768Y3470437D1*
X2653902Y3472644D1*
X2656178Y3474704D1*
X2658587Y3476606D1*
X2661118Y3478344D1*
X2663759Y3479909D1*
X2666498Y3481294D1*
X2669324Y3482493D1*
X2672224Y3483500D1*
X2675184Y3484312D1*
X2678192Y3484924D1*
X2681235Y3485334D1*
X2684297Y3485539D1*
X2687367Y3485540D1*
X2690430Y3485335D1*
X2693472Y3484927D1*
X2696481Y3484316D1*
X2699442Y3483505D1*
X2702342Y3482499D1*
X2705168Y3481301D1*
X2707908Y3479917D1*
X2710549Y3478353D1*
X2713081Y3476616D1*
X2715490Y3474714D1*
X2717767Y3472655D1*
X2719901Y3470449D1*
X2721884Y3468105D1*
X2723705Y3465634D1*
X2725357Y3463047D1*
X2726833Y3460355D1*
X2728126Y3457571D1*
X2729230Y3454707D1*
X2730140Y3451775D1*
X2730852Y3448789D1*
X2731363Y3445762D1*
X2731671Y3442708D1*
X2731774Y3439632D1*
X2731672Y3436572D1*
X2375492Y3368421D2*
X2375185Y3365367D1*
X2374675Y3362340D1*
X2373964Y3359353D1*
X2373055Y3356421D1*
X2371952Y3353556D1*
X2370661Y3350772D1*
X2369186Y3348079D1*
X2367535Y3345492D1*
X2365714Y3343020D1*
X2363733Y3340676D1*
X2361599Y3338469D1*
X2359323Y3336409D1*
X2356914Y3334506D1*
X2354383Y3332768D1*
X2351743Y3331204D1*
X2349003Y3329819D1*
X2346177Y3328620D1*
X2343277Y3327612D1*
X2340317Y3326801D1*
X2337309Y3326189D1*
X2334266Y3325779D1*
X2331204Y3325573D1*
X2328134D1*
X2325071Y3325777D1*
X2322029Y3326186D1*
X2319020Y3326797D1*
X2316060Y3327607D1*
X2313159Y3328614D1*
X2310333Y3329812D1*
X2307593Y3331196D1*
X2304952Y3332760D1*
X2302420Y3334496D1*
X2300011Y3336398D1*
X2297734Y3338457D1*
X2295600Y3340663D1*
X2293617Y3343007D1*
X2291796Y3345478D1*
X2290144Y3348065D1*
X2288668Y3350757D1*
X2287375Y3353541D1*
X2286272Y3356406D1*
X2285362Y3359338D1*
X2284649Y3362324D1*
X2284138Y3365350D1*
X2283830Y3368405D1*
X2283727Y3371473D1*
X2283829Y3374541D1*
X2284136Y3377595D1*
X2284646Y3380622D1*
X2285357Y3383608D1*
X2286266Y3386540D1*
X2287369Y3389405D1*
X2288661Y3392190D1*
X2290135Y3394882D1*
X2291787Y3397470D1*
X2293607Y3399942D1*
X2295589Y3402286D1*
X2297722Y3404493D1*
X2299999Y3406553D1*
X2302407Y3408456D1*
X2304938Y3410193D1*
X2307579Y3411758D1*
X2310318Y3413143D1*
X2313144Y3414342D1*
X2316044Y3415349D1*
X2319004Y3416161D1*
X2322013Y3416773D1*
X2325055Y3417183D1*
X2328118Y3417388D1*
X2331187Y3417389D1*
X2334250Y3417184D1*
X2337293Y3416776D1*
X2340301Y3416165D1*
X2343262Y3415354D1*
X2346162Y3414348D1*
X2348988Y3413150D1*
X2351728Y3411766D1*
X2354370Y3410202D1*
X2356901Y3408465D1*
X2359310Y3406563D1*
X2361587Y3404504D1*
X2363722Y3402298D1*
X2365704Y3399954D1*
X2367525Y3397483D1*
X2369178Y3394896D1*
X2370653Y3392205D1*
X2371946Y3389420D1*
X2373050Y3386556D1*
X2373960Y3383624D1*
X2374672Y3380638D1*
X2375183Y3377611D1*
X2375491Y3374557D1*
X2375594Y3371481D1*
X2375492Y3368421D1*
X2516252D2*
X2515945Y3365367D1*
X2515435Y3362340D1*
X2514724Y3359353D1*
X2513815Y3356421D1*
X2512712Y3353556D1*
X2511421Y3350772D1*
X2509946Y3348079D1*
X2508294Y3345492D1*
X2506474Y3343020D1*
X2504493Y3340676D1*
X2502359Y3338469D1*
X2500083Y3336409D1*
X2497674Y3334506D1*
X2495143Y3332768D1*
X2492502Y3331204D1*
X2489763Y3329819D1*
X2486937Y3328620D1*
X2484037Y3327612D1*
X2481077Y3326801D1*
X2478069Y3326189D1*
X2475026Y3325779D1*
X2471964Y3325573D1*
X2468894D1*
X2465831Y3325777D1*
X2462788Y3326186D1*
X2459780Y3326797D1*
X2456819Y3327607D1*
X2453919Y3328614D1*
X2451093Y3329812D1*
X2448353Y3331196D1*
X2445711Y3332760D1*
X2443180Y3334496D1*
X2440771Y3336398D1*
X2438494Y3338457D1*
X2436359Y3340663D1*
X2434377Y3343007D1*
X2432556Y3345478D1*
X2430904Y3348065D1*
X2429428Y3350757D1*
X2428135Y3353541D1*
X2427031Y3356406D1*
X2426121Y3359338D1*
X2425409Y3362324D1*
X2424898Y3365350D1*
X2424590Y3368405D1*
X2424487Y3371473D1*
X2424589Y3374541D1*
X2424896Y3377595D1*
X2425406Y3380622D1*
X2426117Y3383608D1*
X2427026Y3386540D1*
X2428129Y3389405D1*
X2429420Y3392190D1*
X2430895Y3394882D1*
X2432546Y3397470D1*
X2434367Y3399942D1*
X2436348Y3402286D1*
X2438482Y3404493D1*
X2440758Y3406553D1*
X2443167Y3408456D1*
X2445698Y3410193D1*
X2448339Y3411758D1*
X2451078Y3413143D1*
X2453904Y3414342D1*
X2456804Y3415349D1*
X2459764Y3416161D1*
X2462772Y3416773D1*
X2465815Y3417183D1*
X2468877Y3417388D1*
X2471947Y3417389D1*
X2475010Y3417184D1*
X2478052Y3416776D1*
X2481061Y3416165D1*
X2484022Y3415354D1*
X2486922Y3414348D1*
X2489748Y3413150D1*
X2492488Y3411766D1*
X2495129Y3410202D1*
X2497661Y3408465D1*
X2500070Y3406563D1*
X2502347Y3404504D1*
X2504482Y3402298D1*
X2506464Y3399954D1*
X2508285Y3397483D1*
X2509937Y3394896D1*
X2511413Y3392205D1*
X2512706Y3389420D1*
X2513810Y3386556D1*
X2514720Y3383624D1*
X2515432Y3380638D1*
X2515943Y3377611D1*
X2516251Y3374557D1*
X2516354Y3371481D1*
X2516252Y3368421D1*
X1472381Y2377583D2*
X1469072Y2371582D1*
X1463037Y2364514D1*
X1455703Y2358805D1*
X1447370Y2354690D1*
X1438379Y2352336D1*
X1429098Y2351841D1*
X1419907Y2353223D1*
X1411183Y2356428D1*
X1403283Y2361323D1*
X1396529Y2367708D1*
X1391200Y2375321D1*
X1387511Y2383852D1*
X1385616Y2392951D1*
X1385591Y2402245D1*
X1387437Y2411354D1*
X1391080Y2419904D1*
X1396368Y2427547D1*
X1403087Y2433968D1*
X1410961Y2438906D1*
X1419668Y2442157D1*
X1428851Y2443589D1*
X1438134Y2443143D1*
X1447138Y2440838D1*
X1455493Y2436767D1*
X1462858Y2431098D1*
X1468931Y2424063D1*
X1473051Y2416685D1*
X1474049Y2418604D1*
X1479338Y2426246D1*
X1486057Y2432668D1*
X1493931Y2437605D1*
X1502638Y2440856D1*
X1511821Y2442288D1*
X1521104Y2441843D1*
X1530108Y2439537D1*
X1538463Y2435467D1*
X1545828Y2429798D1*
X1551901Y2422762D1*
X1555030Y2417160D1*
X1557019Y2421214D1*
X1562308Y2428857D1*
X1569027Y2435278D1*
X1576901Y2440215D1*
X1585608Y2443467D1*
X1594791Y2444899D1*
X1604074Y2444453D1*
X1613078Y2442148D1*
X1621433Y2438077D1*
X1628798Y2432408D1*
X1634870Y2425372D1*
X1639403Y2417258D1*
X1642209Y2408398D1*
X1643174Y2399031D1*
X1642258Y2389905D1*
X1639500Y2381030D1*
X1635012Y2372892D1*
X1628977Y2365824D1*
X1621643Y2360115D1*
X1613309Y2356000D1*
X1604318Y2353646D1*
X1595038Y2353150D1*
X1585847Y2354533D1*
X1577123Y2357737D1*
X1569222Y2362632D1*
X1562469Y2369017D1*
X1557139Y2376631D1*
X1556451Y2378222D1*
X1552042Y2370282D1*
X1546007Y2363214D1*
X1538673Y2357505D1*
X1530340Y2353389D1*
X1521349Y2351036D1*
X1512068Y2350540D1*
X1502877Y2351923D1*
X1494153Y2355127D1*
X1486253Y2360022D1*
X1479499Y2366407D1*
X1474169Y2374021D1*
X1472610Y2377628D1*
X2657432Y3370851D2*
X2657125Y3367797D1*
X2656615Y3364770D1*
X2655904Y3361784D1*
X2654995Y3358852D1*
X2653892Y3355987D1*
X2652600Y3353202D1*
X2651126Y3350510D1*
X2649474Y3347922D1*
X2647654Y3345451D1*
X2645672Y3343106D1*
X2643539Y3340899D1*
X2641262Y3338839D1*
X2638854Y3336937D1*
X2636323Y3335199D1*
X2633682Y3333634D1*
X2630943Y3332249D1*
X2628117Y3331050D1*
X2625217Y3330043D1*
X2622256Y3329231D1*
X2619248Y3328619D1*
X2616206Y3328209D1*
X2613143Y3328004D1*
X2610074Y3328003D1*
X2607011Y3328208D1*
X2603968Y3328616D1*
X2600960Y3329227D1*
X2597999Y3330038D1*
X2595099Y3331044D1*
X2592273Y3332242D1*
X2589533Y3333626D1*
X2586891Y3335190D1*
X2584360Y3336927D1*
X2581951Y3338829D1*
X2579674Y3340888D1*
X2577539Y3343094D1*
X2575557Y3345438D1*
X2573736Y3347909D1*
X2572083Y3350496D1*
X2570608Y3353188D1*
X2569315Y3355972D1*
X2568211Y3358836D1*
X2567301Y3361768D1*
X2566589Y3364754D1*
X2566078Y3367781D1*
X2565770Y3370835D1*
X2565667Y3373903D1*
X2565769Y3376971D1*
X2566076Y3380025D1*
X2566586Y3383053D1*
X2567297Y3386039D1*
X2568206Y3388971D1*
X2569309Y3391836D1*
X2570600Y3394620D1*
X2572075Y3397313D1*
X2573726Y3399900D1*
X2575547Y3402372D1*
X2577528Y3404717D1*
X2579662Y3406924D1*
X2581938Y3408983D1*
X2584347Y3410886D1*
X2586877Y3412624D1*
X2589518Y3414189D1*
X2592258Y3415574D1*
X2595084Y3416772D1*
X2597984Y3417780D1*
X2600944Y3418591D1*
X2603952Y3419203D1*
X2606994Y3419613D1*
X2610057Y3419819D1*
X2613127D1*
X2616190Y3419615D1*
X2619232Y3419206D1*
X2622241Y3418595D1*
X2625201Y3417785D1*
X2628101Y3416778D1*
X2630928Y3415580D1*
X2633668Y3414196D1*
X2636309Y3412633D1*
X2638840Y3410896D1*
X2641250Y3408994D1*
X2643527Y3406935D1*
X2645661Y3404729D1*
X2647644Y3402385D1*
X2649465Y3399914D1*
X2651117Y3397327D1*
X2652593Y3394635D1*
X2653886Y3391851D1*
X2654989Y3388986D1*
X2655899Y3386055D1*
X2656612Y3383069D1*
X2657123Y3380042D1*
X2657430Y3376987D1*
X2657534Y3373911D1*
X2657432Y3370851D1*
X2586852Y3435351D2*
X2586545Y3432297D1*
X2586035Y3429270D1*
X2585324Y3426284D1*
X2584415Y3423352D1*
X2583312Y3420487D1*
X2582020Y3417702D1*
X2580545Y3415010D1*
X2578894Y3412422D1*
X2577074Y3409951D1*
X2575092Y3407606D1*
X2572959Y3405399D1*
X2570682Y3403339D1*
X2568274Y3401437D1*
X2565743Y3399699D1*
X2563102Y3398134D1*
X2560363Y3396749D1*
X2557537Y3395550D1*
X2554637Y3394543D1*
X2551676Y3393731D1*
X2548668Y3393119D1*
X2545626Y3392709D1*
X2542563Y3392504D1*
X2539494Y3392503D1*
X2536431Y3392708D1*
X2533388Y3393116D1*
X2530380Y3393727D1*
X2527419Y3394538D1*
X2524519Y3395544D1*
X2521693Y3396742D1*
X2518953Y3398126D1*
X2516311Y3399690D1*
X2513780Y3401427D1*
X2511371Y3403329D1*
X2509094Y3405388D1*
X2506959Y3407594D1*
X2504977Y3409938D1*
X2503155Y3412409D1*
X2501503Y3414996D1*
X2500028Y3417688D1*
X2498735Y3420472D1*
X2497631Y3423336D1*
X2496721Y3426268D1*
X2496009Y3429254D1*
X2495498Y3432281D1*
X2495190Y3435335D1*
X2495087Y3438403D1*
X2495189Y3441471D1*
X2495496Y3444525D1*
X2496006Y3447553D1*
X2496717Y3450539D1*
X2497626Y3453471D1*
X2498729Y3456336D1*
X2500020Y3459120D1*
X2501495Y3461813D1*
X2503146Y3464400D1*
X2504967Y3466872D1*
X2506948Y3469217D1*
X2509082Y3471424D1*
X2511358Y3473483D1*
X2513767Y3475386D1*
X2516297Y3477124D1*
X2518938Y3478689D1*
X2521678Y3480074D1*
X2524504Y3481272D1*
X2527403Y3482280D1*
X2530364Y3483091D1*
X2533372Y3483703D1*
X2536414Y3484113D1*
X2539477Y3484319D1*
X2542547D1*
X2545610Y3484115D1*
X2548652Y3483706D1*
X2551661Y3483095D1*
X2554621Y3482285D1*
X2557521Y3481278D1*
X2560348Y3480080D1*
X2563088Y3478696D1*
X2565729Y3477133D1*
X2568260Y3475396D1*
X2570670Y3473494D1*
X2572947Y3471435D1*
X2575081Y3469229D1*
X2577064Y3466885D1*
X2578885Y3464414D1*
X2580537Y3461827D1*
X2582013Y3459135D1*
X2583306Y3456351D1*
X2584409Y3453486D1*
X2585319Y3450555D1*
X2586031Y3447569D1*
X2586543Y3444542D1*
X2586850Y3441487D1*
X2586954Y3438411D1*
X2586852Y3435351D1*
X2371419Y1742846D2*
X2368660Y1733971D1*
X2364172Y1725833D1*
X2358137Y1718765D1*
X2350803Y1713056D1*
X2342469Y1708941D1*
X2333478Y1706587D1*
X2324198Y1706091D1*
X2315007Y1707474D1*
X2306283Y1710678D1*
X2298383Y1715573D1*
X2291629Y1721958D1*
X2286299Y1729572D1*
X2282611Y1738103D1*
X2280716Y1747202D1*
X2280706Y1750823D1*
X2272247Y1752163D1*
X2263523Y1755367D1*
X2255623Y1760262D1*
X2248869Y1766647D1*
X2243539Y1774261D1*
X2239851Y1782792D1*
X2237956Y1791891D1*
X2237931Y1801185D1*
X2239777Y1810293D1*
X2243419Y1818844D1*
X2248708Y1826486D1*
X2255427Y1832908D1*
X2263301Y1837845D1*
X2272008Y1841097D1*
X2281191Y1842529D1*
X2290474Y1842083D1*
X2299478Y1839777D1*
X2307833Y1835707D1*
X2315198Y1830038D1*
X2321271Y1823002D1*
X2325803Y1814888D1*
X2328609Y1806028D1*
X2329468Y1797804D1*
X2333234Y1797394D1*
X2342238Y1795088D1*
X2350593Y1791018D1*
X2357958Y1785349D1*
X2364030Y1778313D1*
X2368563Y1770199D1*
X2371369Y1761339D1*
X2372334Y1751972D1*
X2371419Y1742846D1*
X2507192Y2847236D2*
X2504934Y2838278D1*
X2501232Y2829814D1*
X2496188Y2822075D1*
X2489939Y2815272D1*
X2482656Y2809590D1*
X2474536Y2805184D1*
X2465802Y2802175D1*
X2456692Y2800644D1*
X2447454Y2800634D1*
X2438340Y2802144D1*
X2429600Y2805134D1*
X2421470Y2809522D1*
X2414174Y2815188D1*
X2407910Y2821977D1*
X2402849Y2829705D1*
X2399128Y2838161D1*
X2396851Y2847114D1*
X2396078Y2856319D1*
X2396830Y2865526D1*
X2399088Y2874484D1*
X2402790Y2882948D1*
X2407834Y2890687D1*
X2414083Y2897491D1*
X2421366Y2903173D1*
X2428749Y2907178D1*
X2428559Y2907521D1*
X2424871Y2916052D1*
X2422976Y2925151D1*
X2422951Y2934445D1*
X2424797Y2943553D1*
X2428439Y2952104D1*
X2433728Y2959746D1*
X2440447Y2966168D1*
X2448321Y2971105D1*
X2457028Y2974356D1*
X2466211Y2975788D1*
X2475494Y2975343D1*
X2484498Y2973037D1*
X2492853Y2968967D1*
X2500217Y2963298D1*
X2506290Y2956262D1*
X2510823Y2948148D1*
X2513629Y2939288D1*
X2514594Y2929920D1*
X2513678Y2920795D1*
X2510920Y2911920D1*
X2506431Y2903782D1*
X2500397Y2896714D1*
X2494817Y2892371D1*
X2496112Y2890785D1*
X2501173Y2883057D1*
X2504894Y2874601D1*
X2507171Y2865649D1*
X2507944Y2856381D1*
X2507192Y2847236D1*
X1748018Y2699366D2*
X1745260Y2690491D1*
X1740771Y2682353D1*
X1734737Y2675284D1*
X1727402Y2669576D1*
X1719069Y2665460D1*
X1710078Y2663107D1*
X1700797Y2662611D1*
X1691607Y2663994D1*
X1682883Y2667198D1*
X1674982Y2672093D1*
X1668229Y2678478D1*
X1662899Y2686092D1*
X1659211Y2694623D1*
X1657316Y2703721D1*
X1657291Y2713015D1*
X1659137Y2722124D1*
X1662779Y2730675D1*
X1668068Y2738317D1*
X1674787Y2744739D1*
X1682661Y2749676D1*
X1691368Y2752927D1*
X1700551Y2754359D1*
X1709834Y2753914D1*
X1718837Y2751608D1*
X1727193Y2747538D1*
X1734557Y2741869D1*
X1740630Y2734833D1*
X1745162Y2726719D1*
X1747969Y2717859D1*
X1748934Y2708491D1*
X1748018Y2699366D1*
X1808289Y2810325D2*
X1805530Y2801450D1*
X1801042Y2793312D1*
X1795007Y2786244D1*
X1787673Y2780535D1*
X1779340Y2776420D1*
X1770349Y2774066D1*
X1761068Y2773570D1*
X1751877Y2774953D1*
X1743153Y2778157D1*
X1735253Y2783052D1*
X1728499Y2789437D1*
X1723169Y2797051D1*
X1719481Y2805582D1*
X1717586Y2814681D1*
X1717561Y2823975D1*
X1719407Y2833083D1*
X1723049Y2841634D1*
X1728338Y2849276D1*
X1735057Y2855698D1*
X1742931Y2860635D1*
X1751638Y2863887D1*
X1760821Y2865319D1*
X1770104Y2864873D1*
X1779108Y2862567D1*
X1787463Y2858497D1*
X1794828Y2852828D1*
X1800901Y2845792D1*
X1805433Y2837678D1*
X1808239Y2828818D1*
X1809204Y2819451D1*
X1808289Y2810325D1*
X3309248Y3277306D2*
X3306490Y3268431D1*
X3302001Y3260292D1*
X3295966Y3253224D1*
X3288632Y3247515D1*
X3280299Y3243400D1*
X3271308Y3241046D1*
X3262027Y3240551D1*
X3252837Y3241933D1*
X3244112Y3245138D1*
X3236212Y3250032D1*
X3229459Y3256418D1*
X3224129Y3264031D1*
X3220441Y3272562D1*
X3218545Y3281661D1*
X3218520Y3290955D1*
X3220367Y3300064D1*
X3224009Y3308614D1*
X3229298Y3316257D1*
X3236016Y3322678D1*
X3243891Y3327616D1*
X3252597Y3330867D1*
X3261780Y3332299D1*
X3271064Y3331853D1*
X3280067Y3329548D1*
X3288422Y3325477D1*
X3295787Y3319808D1*
X3301860Y3312773D1*
X3306392Y3304659D1*
X3309198Y3295798D1*
X3310164Y3286431D1*
X3309248Y3277306D1*
X3336447Y2799925D2*
X3333689Y2791050D1*
X3329201Y2782912D1*
X3323166Y2775844D1*
X3315832Y2770135D1*
X3307498Y2766019D1*
X3298507Y2763666D1*
X3289227Y2763170D1*
X3280036Y2764553D1*
X3271312Y2767757D1*
X3263411Y2772652D1*
X3256658Y2779037D1*
X3251328Y2786651D1*
X3247640Y2795182D1*
X3245745Y2804280D1*
X3245720Y2813574D1*
X3247566Y2822683D1*
X3251208Y2831234D1*
X3256497Y2838876D1*
X3263216Y2845298D1*
X3271090Y2850235D1*
X3279797Y2853486D1*
X3288980Y2854918D1*
X3298263Y2854473D1*
X3307267Y2852167D1*
X3315622Y2848097D1*
X3322987Y2842428D1*
X3329059Y2835392D1*
X3333592Y2827278D1*
X3336398Y2818418D1*
X3337363Y2809050D1*
X3336447Y2799925D1*
X2517316Y2666306D2*
X2514558Y2657431D1*
X2510069Y2649292D1*
X2504034Y2642224D1*
X2496700Y2636515D1*
X2488367Y2632400D1*
X2479376Y2630046D1*
X2470095Y2629551D1*
X2460905Y2630933D1*
X2452181Y2634138D1*
X2444280Y2639032D1*
X2437527Y2645418D1*
X2432197Y2653031D1*
X2428509Y2661562D1*
X2426613Y2670661D1*
X2426588Y2679955D1*
X2428435Y2689064D1*
X2432077Y2697614D1*
X2437366Y2705257D1*
X2444085Y2711678D1*
X2451959Y2716616D1*
X2460666Y2719867D1*
X2469849Y2721299D1*
X2479132Y2720853D1*
X2488135Y2718548D1*
X2496491Y2714477D1*
X2503855Y2708808D1*
X2509928Y2701773D1*
X2514460Y2693659D1*
X2517266Y2684798D1*
X2518232Y2675431D1*
X2517316Y2666306D1*
X1825147Y2329215D2*
X1822389Y2320340D1*
X1817900Y2312202D1*
X1811865Y2305134D1*
X1804531Y2299425D1*
X1796198Y2295309D1*
X1787207Y2292956D1*
X1777926Y2292460D1*
X1768735Y2293843D1*
X1760011Y2297047D1*
X1752111Y2301942D1*
X1745357Y2308327D1*
X1740028Y2315941D1*
X1736339Y2324472D1*
X1734444Y2333571D1*
X1734419Y2342864D1*
X1736266Y2351973D1*
X1739908Y2360524D1*
X1745196Y2368166D1*
X1751915Y2374588D1*
X1759789Y2379525D1*
X1768496Y2382776D1*
X1777679Y2384208D1*
X1786963Y2383763D1*
X1795966Y2381457D1*
X1804321Y2377387D1*
X1811686Y2371718D1*
X1817759Y2364682D1*
X1822291Y2356568D1*
X1825097Y2347708D1*
X1826062Y2338340D1*
X1825147Y2329215D1*
X2031589Y3133295D2*
X2028831Y3124420D1*
X2024342Y3116282D1*
X2018307Y3109214D1*
X2010973Y3103505D1*
X2002640Y3099389D1*
X1993649Y3097036D1*
X1984368Y3096540D1*
X1975178Y3097923D1*
X1966454Y3101127D1*
X1958553Y3106022D1*
X1951800Y3112407D1*
X1946470Y3120021D1*
X1942782Y3128552D1*
X1940886Y3137651D1*
X1940861Y3146945D1*
X1942708Y3156053D1*
X1946350Y3164604D1*
X1951639Y3172246D1*
X1958358Y3178668D1*
X1966232Y3183605D1*
X1974938Y3186856D1*
X1984122Y3188288D1*
X1993405Y3187843D1*
X2002408Y3185537D1*
X2010764Y3181467D1*
X2018128Y3175798D1*
X2024201Y3168762D1*
X2028733Y3160648D1*
X2031539Y3151788D1*
X2032505Y3142420D1*
X2031589Y3133295D1*
X2209627Y3287005D2*
X2206869Y3278130D1*
X2202380Y3269992D1*
X2196345Y3262924D1*
X2189011Y3257215D1*
X2180678Y3253099D1*
X2171687Y3250746D1*
X2162406Y3250250D1*
X2153216Y3251633D1*
X2144492Y3254837D1*
X2136591Y3259732D1*
X2129838Y3266117D1*
X2124508Y3273731D1*
X2120820Y3282262D1*
X2118924Y3291361D1*
X2118899Y3300654D1*
X2120746Y3309763D1*
X2124388Y3318314D1*
X2129677Y3325956D1*
X2136396Y3332378D1*
X2144270Y3337315D1*
X2152977Y3340566D1*
X2162160Y3341998D1*
X2171443Y3341553D1*
X2180446Y3339247D1*
X2188802Y3335177D1*
X2196166Y3329508D1*
X2202239Y3322472D1*
X2206771Y3314358D1*
X2209577Y3305498D1*
X2210543Y3296130D1*
X2209627Y3287005D1*
X2583118Y3011466D2*
X2580360Y3002591D1*
X2575871Y2994452D1*
X2569836Y2987384D1*
X2562502Y2981676D1*
X2554169Y2977560D1*
X2545178Y2975206D1*
X2535897Y2974711D1*
X2526707Y2976093D1*
X2517983Y2979298D1*
X2510082Y2984193D1*
X2503329Y2990578D1*
X2497999Y2998192D1*
X2494311Y3006722D1*
X2492415Y3015821D1*
X2492390Y3025115D1*
X2494237Y3034224D1*
X2497879Y3042774D1*
X2503168Y3050417D1*
X2509887Y3056838D1*
X2517761Y3061776D1*
X2526467Y3065027D1*
X2535650Y3066459D1*
X2544934Y3066013D1*
X2553937Y3063708D1*
X2562292Y3059637D1*
X2569657Y3053968D1*
X2575730Y3046933D1*
X2580262Y3038819D1*
X2583068Y3029958D1*
X2584034Y3020591D1*
X2583118Y3011466D1*
X2615869Y2885426D2*
X2613110Y2876551D1*
X2608622Y2868413D1*
X2602587Y2861345D1*
X2595253Y2855636D1*
X2586920Y2851521D1*
X2577929Y2849167D1*
X2568648Y2848671D1*
X2559457Y2850054D1*
X2550733Y2853258D1*
X2542833Y2858153D1*
X2536079Y2864538D1*
X2530749Y2872152D1*
X2527061Y2880683D1*
X2525166Y2889782D1*
X2525141Y2899076D1*
X2526987Y2908184D1*
X2530629Y2916735D1*
X2535918Y2924378D1*
X2542637Y2930799D1*
X2550511Y2935736D1*
X2559218Y2938988D1*
X2568401Y2940420D1*
X2577684Y2939974D1*
X2586688Y2937669D1*
X2595043Y2933598D1*
X2602408Y2927929D1*
X2608481Y2920893D1*
X2613013Y2912779D1*
X2615819Y2903919D1*
X2616784Y2894552D1*
X2615869Y2885426D1*
X3838066Y3477166D2*
X3836865Y3468002D1*
X3834869Y3458979D1*
X3832095Y3450164D1*
X3828563Y3441624D1*
X3824301Y3433424D1*
X3819340Y3425627D1*
X3813718Y3418292D1*
X3807478Y3411475D1*
X3800668Y3405228D1*
X3793339Y3399598D1*
X3785548Y3394629D1*
X3777353Y3390357D1*
X3768817Y3386816D1*
X3760004Y3384032D1*
X3750983Y3382027D1*
X3741821Y3380815D1*
X3732589Y3380407D1*
X3723356Y3380805D1*
X3714193Y3382006D1*
X3705169Y3384002D1*
X3696354Y3386776D1*
X3687814Y3390308D1*
X3679614Y3394570D1*
X3671817Y3399532D1*
X3664483Y3405153D1*
X3657666Y3411393D1*
X3651418Y3418203D1*
X3645789Y3425532D1*
X3640819Y3433323D1*
X3636547Y3441518D1*
X3633006Y3450055D1*
X3630222Y3458867D1*
X3628217Y3467888D1*
X3627006Y3477050D1*
X3626597Y3486282D1*
X3626995Y3495515D1*
X3628197Y3504678D1*
X3630192Y3513702D1*
X3632966Y3522517D1*
X3636498Y3531057D1*
X3640761Y3539257D1*
X3645722Y3547054D1*
X3651344Y3554389D1*
X3657583Y3561206D1*
X3664394Y3567453D1*
X3671722Y3573083D1*
X3679514Y3578052D1*
X3687709Y3582324D1*
X3696245Y3585865D1*
X3705057Y3588649D1*
X3714078Y3590654D1*
X3723240Y3591866D1*
X3732473Y3592274D1*
X3741706Y3591876D1*
X3750869Y3590674D1*
X3759892Y3588679D1*
X3768707Y3585905D1*
X3777247Y3582373D1*
X3785447Y3578110D1*
X3793244Y3573149D1*
X3800579Y3567527D1*
X3807396Y3561288D1*
X3813643Y3554478D1*
X3819273Y3547149D1*
X3824243Y3539357D1*
X3828514Y3531162D1*
X3832056Y3522626D1*
X3834839Y3513814D1*
X3836845Y3504793D1*
X3838056Y3495631D1*
X3838464Y3486340D1*
X3838066Y3477166D1*
X3580671Y1820510D2*
X3577912Y1811635D1*
X3573424Y1803497D1*
X3567389Y1796429D1*
X3560055Y1790720D1*
X3551721Y1786605D1*
X3542730Y1784251D1*
X3533450Y1783755D1*
X3524259Y1785138D1*
X3515535Y1788342D1*
X3507635Y1793237D1*
X3500881Y1799622D1*
X3495551Y1807236D1*
X3491863Y1815767D1*
X3489968Y1824866D1*
X3489943Y1834160D1*
X3491789Y1843268D1*
X3495431Y1851819D1*
X3500720Y1859462D1*
X3507439Y1865883D1*
X3515313Y1870820D1*
X3524020Y1874072D1*
X3533203Y1875504D1*
X3542486Y1875058D1*
X3551490Y1872753D1*
X3559845Y1868682D1*
X3567210Y1863013D1*
X3573282Y1855977D1*
X3577815Y1847863D1*
X3580621Y1839003D1*
X3581586Y1829636D1*
X3580671Y1820510D1*
X2470411D2*
X2467652Y1811635D1*
X2463164Y1803497D1*
X2457129Y1796429D1*
X2449795Y1790720D1*
X2441462Y1786605D1*
X2432471Y1784251D1*
X2423190Y1783755D1*
X2413999Y1785138D1*
X2405275Y1788342D1*
X2397375Y1793237D1*
X2390621Y1799622D1*
X2385291Y1807236D1*
X2381603Y1815767D1*
X2379708Y1824866D1*
X2379683Y1834160D1*
X2381529Y1843268D1*
X2385171Y1851819D1*
X2390460Y1859462D1*
X2397179Y1865883D1*
X2405053Y1870820D1*
X2413760Y1874072D1*
X2422943Y1875504D1*
X2432226Y1875058D1*
X2441230Y1872753D1*
X2449585Y1868682D1*
X2456950Y1863013D1*
X2463023Y1855977D1*
X2467555Y1847863D1*
X2470361Y1839003D1*
X2471326Y1829636D1*
X2470411Y1820510D1*
X1780690Y1161211D2*
X1777932Y1152336D1*
X1773443Y1144198D1*
X1767408Y1137130D1*
X1760074Y1131421D1*
X1751741Y1127305D1*
X1742750Y1124952D1*
X1733469Y1124456D1*
X1724279Y1125839D1*
X1715555Y1129043D1*
X1707654Y1133938D1*
X1700901Y1140323D1*
X1695571Y1147937D1*
X1691883Y1156468D1*
X1689987Y1165567D1*
X1689962Y1174861D1*
X1691809Y1183969D1*
X1695451Y1192520D1*
X1700740Y1200162D1*
X1707459Y1206584D1*
X1715333Y1211521D1*
X1724040Y1214772D1*
X1733223Y1216204D1*
X1742506Y1215759D1*
X1751509Y1213453D1*
X1759865Y1209383D1*
X1767229Y1203714D1*
X1773302Y1196678D1*
X1777834Y1188564D1*
X1780640Y1179704D1*
X1781606Y1170336D1*
X1780690Y1161211D1*
X1186518Y3042825D2*
X1183760Y3033950D1*
X1179271Y3025812D1*
X1173237Y3018744D1*
X1165902Y3013035D1*
X1157569Y3008920D1*
X1148578Y3006566D1*
X1139297Y3006070D1*
X1130107Y3007453D1*
X1121383Y3010657D1*
X1113482Y3015552D1*
X1106729Y3021937D1*
X1101399Y3029551D1*
X1097711Y3038082D1*
X1095816Y3047181D1*
X1095791Y3056475D1*
X1097637Y3065583D1*
X1101279Y3074134D1*
X1106568Y3081776D1*
X1113287Y3088198D1*
X1121161Y3093135D1*
X1129868Y3096387D1*
X1139051Y3097819D1*
X1148334Y3097373D1*
X1157337Y3095067D1*
X1165693Y3090997D1*
X1173057Y3085328D1*
X1179130Y3078292D1*
X1183662Y3070178D1*
X1186469Y3061318D1*
X1187434Y3051951D1*
X1186518Y3042825D1*
X1124239Y2739575D2*
X1121480Y2730700D1*
X1116992Y2722561D1*
X1110957Y2715493D1*
X1103623Y2709784D1*
X1095290Y2705669D1*
X1086299Y2703315D1*
X1077018Y2702820D1*
X1067827Y2704202D1*
X1059103Y2707407D1*
X1051203Y2712302D1*
X1044449Y2718687D1*
X1039119Y2726300D1*
X1035431Y2734831D1*
X1033536Y2743930D1*
X1033511Y2753224D1*
X1035357Y2762333D1*
X1039000Y2770883D1*
X1044288Y2778526D1*
X1051007Y2784947D1*
X1058881Y2789885D1*
X1067588Y2793136D1*
X1076771Y2794568D1*
X1086054Y2794122D1*
X1095058Y2791817D1*
X1103413Y2787746D1*
X1110778Y2782077D1*
X1116851Y2775042D1*
X1121383Y2766928D1*
X1124189Y2758067D1*
X1125154Y2748700D1*
X1124239Y2739575D1*
X961018Y2391745D2*
X958260Y2382870D1*
X953771Y2374732D1*
X947737Y2367664D1*
X940402Y2361955D1*
X932069Y2357840D1*
X923078Y2355486D1*
X913797Y2354990D1*
X904607Y2356373D1*
X895883Y2359577D1*
X887982Y2364472D1*
X881229Y2370857D1*
X875899Y2378471D1*
X872211Y2387002D1*
X870316Y2396101D1*
X870291Y2405395D1*
X872137Y2414503D1*
X875779Y2423054D1*
X881068Y2430696D1*
X887787Y2437118D1*
X895661Y2442055D1*
X904368Y2445306D1*
X913551Y2446739D1*
X922834Y2446293D1*
X931837Y2443987D1*
X940193Y2439917D1*
X947557Y2434248D1*
X953630Y2427212D1*
X958162Y2419098D1*
X960969Y2410238D1*
X961934Y2400871D1*
X961018Y2391745D1*
X2020190Y1261298D2*
X2017432Y1252423D1*
X2012943Y1244284D1*
X2006908Y1237216D1*
X1999574Y1231508D1*
X1991241Y1227392D1*
X1982250Y1225038D1*
X1972969Y1224543D1*
X1963779Y1225925D1*
X1955055Y1229130D1*
X1947154Y1234025D1*
X1940401Y1240410D1*
X1935071Y1248024D1*
X1931383Y1256554D1*
X1929487Y1265653D1*
X1929462Y1274947D1*
X1931309Y1284056D1*
X1934951Y1292607D1*
X1940240Y1300249D1*
X1946959Y1306670D1*
X1954833Y1311608D1*
X1963540Y1314859D1*
X1972723Y1316291D1*
X1982006Y1315845D1*
X1991009Y1313540D1*
X1999365Y1309469D1*
X2006729Y1303800D1*
X2012802Y1296765D1*
X2017334Y1288651D1*
X2020140Y1279790D1*
X2021106Y1270423D1*
X2020190Y1261298D1*
X3096438Y1657386D2*
X3093680Y1648511D1*
X3089191Y1640372D1*
X3083156Y1633304D1*
X3075822Y1627595D1*
X3067489Y1623480D1*
X3058498Y1621126D1*
X3049217Y1620631D1*
X3040027Y1622013D1*
X3031303Y1625218D1*
X3023402Y1630113D1*
X3016649Y1636498D1*
X3011319Y1644112D1*
X3007631Y1652642D1*
X3005735Y1661741D1*
X3005710Y1671035D1*
X3007557Y1680144D1*
X3011199Y1688694D1*
X3016488Y1696337D1*
X3023207Y1702758D1*
X3031081Y1707696D1*
X3039788Y1710947D1*
X3048971Y1712379D1*
X3058254Y1711933D1*
X3067257Y1709628D1*
X3075613Y1705557D1*
X3082977Y1699888D1*
X3089050Y1692853D1*
X3093582Y1684739D1*
X3096389Y1675878D1*
X3097354Y1666511D1*
X3096438Y1657386D1*
X3302875Y2320365D2*
X3294178Y2321673D1*
X3285454Y2324878D1*
X3277553Y2329773D1*
X3270800Y2336158D1*
X3265470Y2343772D1*
X3261782Y2352303D1*
X3259886Y2361401D1*
X3259861Y2370695D1*
X3261708Y2379804D1*
X3265350Y2388355D1*
X3270639Y2395997D1*
X3277358Y2402418D1*
X3285232Y2407356D1*
X3293938Y2410607D1*
X3303122Y2412039D1*
X3312405Y2411593D1*
X3321408Y2409288D1*
X3329764Y2405217D1*
X3337128Y2399548D1*
X3343201Y2392513D1*
X3347733Y2384399D1*
X3350539Y2375538D1*
X3351505Y2366171D1*
X3350781Y2358962D1*
X3355054Y2358513D1*
X3364058Y2356208D1*
X3372413Y2352137D1*
X3379778Y2346468D1*
X3385851Y2339433D1*
X3390383Y2331319D1*
X3393189Y2322458D1*
X3394154Y2313091D1*
X3393239Y2303966D1*
X3390480Y2295091D1*
X3385992Y2286952D1*
X3379957Y2279884D1*
X3372623Y2274176D1*
X3364290Y2270060D1*
X3355299Y2267706D1*
X3346018Y2267211D1*
X3336827Y2268593D1*
X3328103Y2271798D1*
X3320203Y2276693D1*
X3313449Y2283078D1*
X3308119Y2290692D1*
X3304431Y2299222D1*
X3302536Y2308321D1*
X3302511Y2317615D1*
X3303057Y2320310D1*
X1520190Y1300798D2*
X1517432Y1291923D1*
X1512943Y1283784D1*
X1506908Y1276716D1*
X1499574Y1271008D1*
X1491241Y1266892D1*
X1482250Y1264538D1*
X1472969Y1264043D1*
X1463779Y1265425D1*
X1455055Y1268630D1*
X1447154Y1273525D1*
X1440401Y1279910D1*
X1435071Y1287524D1*
X1431383Y1296054D1*
X1429487Y1305153D1*
X1429462Y1314447D1*
X1431309Y1323556D1*
X1434951Y1332107D1*
X1440240Y1339749D1*
X1446959Y1346170D1*
X1454833Y1351108D1*
X1463540Y1354359D1*
X1472723Y1355791D1*
X1482006Y1355345D1*
X1491009Y1353040D1*
X1499365Y1348969D1*
X1506729Y1343300D1*
X1512802Y1336265D1*
X1517334Y1328151D1*
X1520140Y1319290D1*
X1521106Y1309923D1*
X1520190Y1300798D1*
X1091446Y1613337D2*
X1088688Y1604462D1*
X1084199Y1596324D1*
X1078164Y1589256D1*
X1070830Y1583547D1*
X1062497Y1579431D1*
X1053506Y1577078D1*
X1044225Y1576582D1*
X1035035Y1577965D1*
X1026311Y1581169D1*
X1018410Y1586064D1*
X1011657Y1592449D1*
X1006327Y1600063D1*
X1002639Y1608594D1*
X1000743Y1617693D1*
X1000718Y1626987D1*
X1002565Y1636095D1*
X1006207Y1644646D1*
X1011496Y1652288D1*
X1018215Y1658710D1*
X1026089Y1663647D1*
X1034795Y1666898D1*
X1043978Y1668330D1*
X1053262Y1667885D1*
X1062265Y1665579D1*
X1070620Y1661509D1*
X1077985Y1655840D1*
X1084058Y1648804D1*
X1088590Y1640690D1*
X1091396Y1631830D1*
X1092362Y1622462D1*
X1091446Y1613337D1*
X3262367Y2654535D2*
X3259609Y2645660D1*
X3255120Y2637522D1*
X3249086Y2630454D1*
X3241751Y2624745D1*
X3233418Y2620630D1*
X3224427Y2618276D1*
X3215147Y2617780D1*
X3205956Y2619163D1*
X3197232Y2622367D1*
X3189331Y2627262D1*
X3182578Y2633647D1*
X3177248Y2641261D1*
X3173560Y2649792D1*
X3171665Y2658891D1*
X3171640Y2668185D1*
X3173486Y2677293D1*
X3177128Y2685844D1*
X3182417Y2693486D1*
X3189136Y2699908D1*
X3197010Y2704845D1*
X3205717Y2708097D1*
X3214900Y2709529D1*
X3224183Y2709083D1*
X3233187Y2706777D1*
X3241542Y2702707D1*
X3248906Y2697038D1*
X3254979Y2690002D1*
X3259512Y2681888D1*
X3262318Y2673028D1*
X3263283Y2663661D1*
X3262367Y2654535D1*
X899688Y2834604D2*
X897251Y2825804D1*
X893282Y2817580D1*
X887909Y2810197D1*
X881304Y2803893D1*
X873679Y2798869D1*
X865279Y2795287D1*
X856375Y2793263D1*
X847253Y2792861D1*
X838205Y2794094D1*
X829523Y2796923D1*
X821486Y2801257D1*
X814352Y2806956D1*
X808349Y2813837D1*
X803673Y2821680D1*
X800471Y2830232D1*
X798848Y2839218D1*
X798856Y2848349D1*
X800494Y2857332D1*
X803710Y2865878D1*
X808400Y2873713D1*
X814413Y2880585D1*
X821557Y2886272D1*
X829602Y2890592D1*
X838289Y2893407D1*
X847338Y2894625D1*
X856460Y2894207D1*
X865361Y2892168D1*
X873754Y2888572D1*
X881370Y2883535D1*
X887965Y2877219D1*
X893326Y2869828D1*
X897281Y2861597D1*
X899703Y2852793D1*
X900514Y2843741D1*
X899688Y2834604D1*
X651416Y3576144D2*
X649506Y3567146D1*
X646362Y3558502D1*
X642046Y3550378D1*
X636642Y3542935D1*
X630254Y3536316D1*
X623007Y3530651D1*
X615042Y3526049D1*
X606514Y3522601D1*
X597590Y3520373D1*
X588442Y3519409D1*
X579249Y3519727D1*
X570190Y3521321D1*
X561440Y3524161D1*
X553172Y3528191D1*
X545544Y3533333D1*
X538706Y3539486D1*
X532792Y3546530D1*
X527915Y3554330D1*
X524171Y3562732D1*
X521633Y3571573D1*
X520350Y3580682D1*
X520347Y3589881D1*
X521625Y3598990D1*
X524157Y3607833D1*
X527896Y3616237D1*
X532769Y3624040D1*
X538679Y3631088D1*
X545513Y3637245D1*
X553138Y3642391D1*
X561404Y3646426D1*
X570151Y3649271D1*
X579210Y3650871D1*
X588403Y3651195D1*
X597551Y3650236D1*
X606477Y3648013D1*
X615007Y3644570D1*
X622974Y3639973D1*
X630225Y3634312D1*
X636616Y3627697D1*
X642025Y3620257D1*
X646346Y3612137D1*
X649495Y3603494D1*
X651410Y3594497D1*
X652055Y3585301D1*
X651416Y3576144D1*
X1029837Y3019784D2*
X1027401Y3010984D1*
X1023432Y3002760D1*
X1018058Y2995377D1*
X1011453Y2989073D1*
X1003828Y2984049D1*
X995429Y2980467D1*
X986525Y2978442D1*
X977402Y2978040D1*
X968355Y2979274D1*
X959673Y2982103D1*
X951635Y2986436D1*
X944501Y2992136D1*
X938499Y2999017D1*
X933822Y3006860D1*
X930621Y3015412D1*
X928998Y3024397D1*
X929006Y3033529D1*
X930644Y3042512D1*
X933859Y3051058D1*
X938549Y3058893D1*
X944563Y3065764D1*
X951707Y3071452D1*
X959751Y3075772D1*
X968438Y3078586D1*
X977488Y3079804D1*
X986610Y3079387D1*
X995510Y3077348D1*
X1003904Y3073752D1*
X1011520Y3068715D1*
X1018115Y3062399D1*
X1023476Y3055007D1*
X1027431Y3046777D1*
X1029853Y3037973D1*
X1030664Y3028920D1*
X1029837Y3019784D1*
X3205929Y2945707D2*
X3204275Y2936688D1*
X3201545Y2927934D1*
X3197781Y2919573D1*
X3193036Y2911726D1*
X3187380Y2904509D1*
X3180895Y2898026D1*
X3173676Y2892372D1*
X3165828Y2887630D1*
X3157466Y2883868D1*
X3148711Y2881141D1*
X3139692Y2879490D1*
X3130539Y2878937D1*
X3121386Y2879492D1*
X3112367Y2881146D1*
X3103614Y2883876D1*
X3095252Y2887640D1*
X3087406Y2892385D1*
X3080189Y2898041D1*
X3073706Y2904526D1*
X3068052Y2911745D1*
X3063310Y2919593D1*
X3059547Y2927955D1*
X3056821Y2936710D1*
X3055169Y2945729D1*
X3054617Y2954882D1*
X3055172Y2964035D1*
X3056826Y2973054D1*
X3059555Y2981807D1*
X3063320Y2990169D1*
X3068065Y2998015D1*
X3073721Y3005232D1*
X3080206Y3011715D1*
X3087425Y3017369D1*
X3095272Y3022111D1*
X3103635Y3025874D1*
X3112389Y3028600D1*
X3121409Y3030252D1*
X3130562Y3030804D1*
X3139714Y3030249D1*
X3148733Y3028595D1*
X3157487Y3025865D1*
X3165848Y3022101D1*
X3173695Y3017356D1*
X3180912Y3011700D1*
X3187395Y3005215D1*
X3193049Y2997996D1*
X3197791Y2990149D1*
X3201553Y2981786D1*
X3204280Y2973032D1*
X3205931Y2964012D1*
X3206484Y2954871D1*
X3205929Y2945707D1*
X2383510Y3199429D2*
X2380752Y3190554D1*
X2376264Y3182416D1*
X2370229Y3175347D1*
X2362895Y3169639D1*
X2354561Y3165523D1*
X2345570Y3163170D1*
X2336290Y3162674D1*
X2327099Y3164057D1*
X2318375Y3167261D1*
X2310474Y3172156D1*
X2303721Y3178541D1*
X2298391Y3186155D1*
X2294703Y3194686D1*
X2292808Y3203784D1*
X2292783Y3213078D1*
X2294629Y3222187D1*
X2298271Y3230738D1*
X2303560Y3238380D1*
X2310279Y3244802D1*
X2318153Y3249739D1*
X2326860Y3252990D1*
X2336043Y3254422D1*
X2345326Y3253977D1*
X2354330Y3251671D1*
X2362685Y3247601D1*
X2370050Y3241931D1*
X2376122Y3234896D1*
X2380655Y3226782D1*
X2383461Y3217922D1*
X2384426Y3208554D1*
X2383510Y3199429D1*
X3143928Y3146035D2*
X3141169Y3137160D1*
X3136681Y3129022D1*
X3130646Y3121954D1*
X3123312Y3116245D1*
X3114979Y3112130D1*
X3105988Y3109776D1*
X3096707Y3109280D1*
X3087516Y3110663D1*
X3078792Y3113867D1*
X3070892Y3118762D1*
X3064138Y3125147D1*
X3058808Y3132761D1*
X3055120Y3141292D1*
X3053225Y3150391D1*
X3053200Y3159685D1*
X3055046Y3168793D1*
X3058688Y3177344D1*
X3063977Y3184986D1*
X3070696Y3191408D1*
X3078570Y3196345D1*
X3087277Y3199597D1*
X3096460Y3201029D1*
X3105743Y3200583D1*
X3114747Y3198277D1*
X3123102Y3194207D1*
X3130467Y3188538D1*
X3136540Y3181502D1*
X3141072Y3173388D1*
X3143878Y3164528D1*
X3144843Y3155161D1*
X3143928Y3146035D1*
X791349Y1758356D2*
X788591Y1749480D1*
X784102Y1741342D1*
X778067Y1734274D1*
X770733Y1728565D1*
X762400Y1724450D1*
X753409Y1722096D1*
X744128Y1721600D1*
X734938Y1722983D1*
X726213Y1726187D1*
X718313Y1731082D1*
X711560Y1737467D1*
X706230Y1745081D1*
X702542Y1753612D1*
X700646Y1762711D1*
X700621Y1772005D1*
X702468Y1781114D1*
X706110Y1789664D1*
X711399Y1797307D1*
X718118Y1803728D1*
X725992Y1808665D1*
X734698Y1811917D1*
X743881Y1813349D1*
X753165Y1812903D1*
X762168Y1810598D1*
X770523Y1806527D1*
X777888Y1800858D1*
X783961Y1793822D1*
X788493Y1785708D1*
X791299Y1776848D1*
X792265Y1767481D1*
X791349Y1758356D1*
Y2307365D2*
X788591Y2298490D1*
X784102Y2290351D1*
X778067Y2283283D1*
X770733Y2277574D1*
X762400Y2273459D1*
X753409Y2271105D1*
X744128Y2270610D1*
X734938Y2271992D1*
X726213Y2275197D1*
X718313Y2280092D1*
X711560Y2286477D1*
X706230Y2294091D1*
X702542Y2302621D1*
X700646Y2311720D1*
X700621Y2321014D1*
X702468Y2330123D1*
X706110Y2338673D1*
X711399Y2346316D1*
X718118Y2352737D1*
X725992Y2357675D1*
X734698Y2360926D1*
X743881Y2362358D1*
X753165Y2361912D1*
X762168Y2359607D1*
X770523Y2355536D1*
X777888Y2349867D1*
X783961Y2342832D1*
X788493Y2334718D1*
X791299Y2325857D1*
X792265Y2316490D1*
X791349Y2307365D1*
X2737726Y2818366D2*
D15*
X2770180Y2785911D1*
X2802635Y2818366D2*
X2737726Y2753457D1*
X2330321Y3551408D2*
Y3459614D1*
X2284423Y3505511D2*
X2376218D1*
X2790996Y2816115D2*
X2823451Y2783661D1*
X2855905Y2816115D2*
X2823451Y2783661D1*
X2739366Y2743296D2*
X2771821Y2710842D1*
X2739366Y2678387D1*
X2822100Y2704762D2*
X2854555Y2672307D1*
X2822100Y2704762D2*
X2789646Y2672307D1*
X2612081Y3551848D2*
Y3460053D1*
X2566183Y3505951D2*
X2657978D1*
X2257491Y3485099D2*
Y3393304D1*
X2211594Y3439201D2*
X2303389D1*
X2402371Y3483748D2*
Y3391953D1*
X2356473Y3437851D2*
X2448268D1*
X2259150Y3748328D2*
Y3656534D1*
X2213253Y3702431D2*
X2305048D1*
X2683581Y3614268D2*
Y3522473D1*
X2637683Y3568371D2*
X2729478D1*
X2613221Y3682268D2*
Y3590473D1*
X2567324Y3636371D2*
X2659118D1*
X2470411Y3684079D2*
Y3592284D1*
X2424514Y3638182D2*
X2516309D1*
X2470911Y3554999D2*
Y3463204D1*
X2425014Y3509102D2*
X2516809D1*
X2401871Y3749229D2*
Y3657434D1*
X2355973Y3703331D2*
X2447768D1*
X2542641Y3750439D2*
Y3658644D1*
X2496743Y3704541D2*
X2588538D1*
X2331680Y3682688D2*
Y3590893D1*
X2285783Y3636791D2*
X2377578D1*
X2258260Y3616569D2*
Y3524774D1*
X2212363Y3570671D2*
X2304158D1*
X2403081Y3616558D2*
Y3524763D1*
X2357183Y3570661D2*
X2448978D1*
X2685031Y3746789D2*
Y3654994D1*
X2639133Y3700892D2*
X2730928D1*
X2540210Y3616969D2*
Y3525174D1*
X2494313Y3571071D2*
X2586108D1*
X2685840Y3485529D2*
Y3393734D1*
X2639943Y3439632D2*
X2731738D1*
X2329661Y3417378D2*
Y3325583D1*
X2283763Y3371481D2*
X2375558D1*
X2470420Y3417378D2*
Y3325583D1*
X2424523Y3371481D2*
X2516318D1*
X2611600Y3419809D2*
Y3328014D1*
X2565703Y3373911D2*
X2657498D1*
X2541020Y3484309D2*
Y3392514D1*
X2495123Y3438411D2*
X2586918D1*
X2875301Y2792839D2*
Y2681044D1*
Y2736941D2*
X2931198D1*
D24*
X1956070Y3741686D3*
Y3938536D3*
D36*
X553790Y3302471D3*
X553801Y3202471D3*
X553710Y3056210D3*
Y2956210D3*
X553727Y2809450D3*
X553738Y2709450D3*
X3734611Y3216881D3*
Y3316881D3*
X3734822Y2970120D3*
Y3070120D3*
X3734420Y2723351D3*
Y2823351D3*
X553399Y2562620D3*
Y2462620D3*
X554191Y2316490D3*
Y2216490D3*
X553999Y2069090D3*
Y1969090D3*
X1399039Y3530757D2*
D41*
X1501401D1*
X1261244Y3601623D2*
Y3688237D1*
X1406913Y3778789D2*
X1493527D1*
D45*
X1228150Y1535941D3*
X1328150D3*
X1428150D3*
X1528150D3*
X1628150D3*
X1728150D3*
X1828150D3*
X1928150D3*
X2028150D3*
X2128150D3*
X2228150D3*
X2328150D3*
X2428150D3*
X2528150D3*
X2628150D3*
X2728150D3*
X2828150D3*
X2928150D3*
X3028150D3*
X3128150D3*
X1228150Y1435941D3*
X1328150D3*
X1428150D3*
X1528150D3*
X1628150D3*
X1728150D3*
X1828150D3*
X1928150D3*
X2028150D3*
X2128150D3*
X2228150D3*
X2328150D3*
X2428150D3*
X2528150D3*
X2628150D3*
X2728150D3*
X2828150D3*
X2928150D3*
X3028150D3*
X3128150D3*
D48*
X802901Y1332210D3*
Y1232210D3*
Y1132210D3*
Y1032210D3*
D51*
X3028132Y1335881D3*
X3128132D3*
D36*
X3732041Y1633041D3*
Y1733041D3*
Y1833041D3*
Y1933041D3*
Y2033041D3*
Y2133041D3*
Y2233041D3*
Y2333041D3*
Y2433041D3*
Y2533041D3*
X3731591Y556671D3*
Y656671D3*
Y756671D3*
Y856671D3*
Y956671D3*
Y1056671D3*
Y1156671D3*
Y1256671D3*
Y1356671D3*
Y1456671D3*
D51*
X2081561Y2901920D3*
X2181561D3*
D55*
X1228411Y1922262D3*
Y2022262D3*
X1328411Y1922262D3*
Y2022262D3*
X1428411Y1922262D3*
Y2022262D3*
X1528411Y1922262D3*
Y2022262D3*
X1628411D3*
Y1922262D3*
X1728411Y2022262D3*
Y1922262D3*
X1828411Y2022262D3*
Y1922262D3*
X1928411D3*
Y2022262D3*
X2028411Y1922262D3*
Y2022262D3*
X2128411Y1922262D3*
Y2022262D3*
X2228411Y1922262D3*
Y2022262D3*
X2328411Y1922262D3*
Y2022262D3*
X2428411Y1922262D3*
Y2022262D3*
X2528411Y1922262D3*
Y2022262D3*
X2628411Y1922262D3*
Y2022262D3*
X2728411Y1922262D3*
Y2022262D3*
X2828411Y1922262D3*
Y2022262D3*
X2928411Y1922262D3*
Y2022262D3*
X3028411Y1922262D3*
Y2022262D3*
X3128411Y1922262D3*
Y2022262D3*
D56*
X3321251Y579361D3*
X3768570Y3952611D3*
X526991D3*
X1035461Y577731D3*
D64*
X740561Y3487161D3*
X925600D3*
X1110640D3*
X825600Y3987161D3*
X1025600D3*
M02*
