G04 DipTrace 4.3.0.5*
G04 3 - Power Plane.gbr*
%MOIN*%
G04 #@! TF.FileFunction,Copper,L3,Inr*
G04 #@! TF.Part,Single*
%ADD24C,0.047244*%
%ADD36C,0.074803*%
%ADD41C,0.070866*%
%ADD45C,0.055039*%
%ADD48C,0.063386*%
%ADD51C,0.057087*%
%ADD55C,0.064961*%
%ADD56C,0.2*%
%ADD64C,0.109252*%
G04 #@! TA.AperFunction,ViaPad*
%ADD16C,0.04*%
G04 #@! TA.AperFunction,CopperBalancing*
%ADD18C,0.025*%
G04 #@! TA.AperFunction,ViaPad*
%ADD19C,0.1*%
%ADD20C,0.05*%
%ADD69C,0.06*%
%ADD70C,0.08*%
%ADD71C,0.16*%
%FSLAX26Y26*%
G04*
G70*
G90*
G75*
G01*
G04 Inner2_Plane*
%LPD*%
D16*
X746331Y1767481D3*
Y2316490D3*
X2770180Y2785911D3*
X2330321Y3505511D3*
X2823451Y2783661D3*
X2771821Y2710842D3*
X2822100Y2704762D3*
X1432210Y3254721D3*
X2612081Y3505951D3*
X2257491Y3439201D3*
X1513591Y3255210D3*
X2402371Y3437851D3*
X2259150Y3702431D3*
X1592890Y3252991D3*
X1515071Y3150842D3*
X2683581Y3568371D3*
X1795361Y3493091D3*
X1590671Y3151941D3*
X2613221Y3636371D3*
X2470411Y3638182D3*
X2470911Y3509102D3*
X1436520Y3149361D3*
X2401871Y3703331D3*
X1433031Y2881411D3*
X2542641Y3704541D3*
X1517081Y2881661D3*
X1596201Y2882321D3*
X2331680Y3636791D3*
X2258260Y3570671D3*
X1430180Y2774522D3*
X2403081Y3570661D3*
X2685031Y3700892D3*
X1514271Y2775241D3*
X2540210Y3571071D3*
X1596201Y2775231D3*
X1427411Y2509401D3*
X2685840Y3439632D3*
X1513611Y2507491D3*
X2329661Y3371481D3*
X1597890Y2510762D3*
X2470420Y3371481D3*
X1431301Y2397721D3*
X2611600Y3373911D3*
X2541020Y3438411D3*
X1514271Y2396420D3*
X1597241Y2399031D3*
X2326401Y1751972D3*
X2082481Y1748651D3*
D69*
X2452011Y2856381D3*
D16*
X1703001Y2708491D3*
X1763271Y2819451D3*
X2468661Y2929920D3*
X3264230Y3286431D3*
X3291430Y2809050D3*
X2348630Y2641511D3*
D19*
X2821001Y3224661D3*
D70*
X1255141Y3026481D3*
D20*
X1148161Y2362241D3*
X1147050Y2737052D3*
D16*
X1667046Y3401742D3*
X2661851Y3135151D3*
D20*
X2418230Y3028661D3*
D16*
X2349260Y2701361D3*
X1823106Y2433970D3*
X1819357Y2965592D3*
D19*
X2827671Y3340411D3*
D69*
X2875301Y2736941D3*
D16*
X2476781Y2739241D3*
X2329611Y2761381D3*
X2472298Y2675431D3*
X1780129Y2338340D3*
X1986571Y3142420D3*
X2164609Y3296130D3*
X2538100Y3020591D3*
X2570851Y2894552D3*
D71*
X3732531Y3486340D3*
D16*
X1334913Y1624632D3*
X3535653Y1829636D3*
X2425393D3*
X2875172Y1582962D3*
X1735672Y1170336D3*
X1141501Y3051951D3*
X1079221Y2748700D3*
X916001Y2400871D3*
X1975172Y1270423D3*
X3051420Y1666511D3*
X3305571Y2366171D3*
X3348221Y2313091D3*
X2283641Y1796661D3*
X2030781Y1819472D3*
X1475172Y1309923D3*
X1145451Y1479641D3*
X1046428Y1622462D3*
X1228149D3*
X2006730Y3486751D3*
X3217350Y2663661D3*
D20*
X849581Y2843741D3*
D70*
X586121Y3585301D3*
D20*
X979730Y3028920D3*
D19*
X3130550Y2954871D3*
D16*
X2338493Y3208554D3*
X3098910Y3155161D3*
X458688Y2867712D2*
D18*
X526389D1*
X581071D2*
X828086D1*
X3782120D2*
X3814978D1*
X458760Y2842843D2*
X497413D1*
X610048D2*
X930786D1*
X3472116D2*
X3671656D1*
X3797173D2*
X3814996D1*
X458832Y2817974D2*
X488460D1*
X618983D2*
X931109D1*
X3233074D2*
X3668821D1*
X3800026D2*
X3815014D1*
X458921Y2793106D2*
X490039D1*
X617422D2*
X931432D1*
X3052271D2*
X3676267D1*
X3792562D2*
X3815014D1*
X458993Y2768237D2*
X503136D1*
X604324D2*
X931755D1*
X2924165D2*
X3687230D1*
X3781600D2*
X3815032D1*
X459065Y2743368D2*
X497754D1*
X609725D2*
X932096D1*
X2690684D2*
X2736891D1*
X2933369D2*
X3671836D1*
X3797012D2*
X3815049D1*
X459137Y2718499D2*
X488550D1*
X618929D2*
X932419D1*
X2520270D2*
X2724027D1*
X2930606D2*
X3668768D1*
X3800062D2*
X3815067D1*
X459226Y2693630D2*
X489913D1*
X617565D2*
X932742D1*
X2215650D2*
X2301490D1*
X2397044D2*
X2468836D1*
X2484727D2*
X2726736D1*
X2913202D2*
X3675998D1*
X3792849D2*
X3815085D1*
X459298Y2668762D2*
X502706D1*
X604773D2*
X933065D1*
X2215775D2*
X2309152D1*
X2388109D2*
X2750904D1*
X2853132D2*
X3699807D1*
X3769040D2*
X3815103D1*
X459370Y2643893D2*
X933388D1*
X2215901D2*
X2300252D1*
X2397008D2*
X3815103D1*
X459442Y2619024D2*
X522083D1*
X584713D2*
X933729D1*
X2216026D2*
X2306084D1*
X2391177D2*
X3815121D1*
X459531Y2594155D2*
X495978D1*
X610819D2*
X934052D1*
X2216152D2*
X3712923D1*
X3751170D2*
X3815139D1*
X459603Y2569287D2*
X487922D1*
X618875D2*
X1799704D1*
X2215973D2*
X3677595D1*
X3786480D2*
X3815157D1*
X459675Y2544418D2*
X490236D1*
X616560D2*
X1395181D1*
X1459642D2*
X1483797D1*
X1543431D2*
X1564124D1*
X1631652D2*
X3667242D1*
X3796850D2*
X3815175D1*
X459747Y2519549D2*
X504464D1*
X602332D2*
X1380110D1*
X1645468D2*
X3667655D1*
X3796420D2*
X3815193D1*
X459836Y2494680D2*
X496283D1*
X610514D2*
X1381402D1*
X1643422D2*
X3679138D1*
X3784937D2*
X3815193D1*
X459908Y2469812D2*
X487975D1*
X618821D2*
X1401623D1*
X1453200D2*
X1484838D1*
X1542373D2*
X1574584D1*
X1621192D2*
X1791881D1*
X1854332D2*
X3677972D1*
X3786103D2*
X3815211D1*
X459980Y2444943D2*
X490075D1*
X616722D2*
X900554D1*
X931444D2*
X1776002D1*
X1870210D2*
X3667332D1*
X3796743D2*
X3815229D1*
X460070Y2420074D2*
X503980D1*
X602817D2*
X871775D1*
X960223D2*
X1388668D1*
X1640570D2*
X1776828D1*
X1869385D2*
X3667548D1*
X3796527D2*
X3815247D1*
X460141Y2395205D2*
X867917D1*
X964081D2*
X1106834D1*
X1189487D2*
X1382945D1*
X1645522D2*
X1795972D1*
X1850241D2*
X3267475D1*
X3343669D2*
X3678743D1*
X3785332D2*
X3815265D1*
X460213Y2370336D2*
X518351D1*
X590042D2*
X879185D1*
X952813D2*
X1095369D1*
X1200952D2*
X1391916D1*
X1635618D2*
X3257319D1*
X3353824D2*
X3678349D1*
X3785726D2*
X3815283D1*
X460285Y2345468D2*
X495367D1*
X613008D2*
X708197D1*
X784463D2*
X1097576D1*
X1198746D2*
X3262074D1*
X3383303D2*
X3667440D1*
X3796653D2*
X3815283D1*
X460375Y2320599D2*
X488496D1*
X619898D2*
X698077D1*
X794582D2*
X1116325D1*
X1179996D2*
X3297330D1*
X3396042D2*
X3667440D1*
X3796635D2*
X3815301D1*
X460446Y2295730D2*
X491851D1*
X616525D2*
X702850D1*
X789809D2*
X3303197D1*
X3393243D2*
X3678367D1*
X3785726D2*
X3815319D1*
X460518Y2270861D2*
X507765D1*
X600610D2*
X738555D1*
X754105D2*
X3327652D1*
X3368788D2*
X3678743D1*
X3785349D2*
X3815337D1*
X460590Y2245993D2*
X495655D1*
X612739D2*
X3667548D1*
X3796545D2*
X3815354D1*
X460680Y2221124D2*
X488532D1*
X619862D2*
X3667332D1*
X3796743D2*
X3815372D1*
X460751Y2196255D2*
X491671D1*
X616704D2*
X3677990D1*
X3786103D2*
X3815372D1*
X460823Y2171386D2*
X507227D1*
X601148D2*
X3679138D1*
X3784955D2*
X3815390D1*
X460895Y2146518D2*
X3667655D1*
X3796420D2*
X3815408D1*
X460985Y2121649D2*
X516162D1*
X591836D2*
X3667242D1*
X3796850D2*
X3815426D1*
X461056Y2096780D2*
X494542D1*
X613457D2*
X3677613D1*
X3786462D2*
X3815444D1*
X461128Y2071911D2*
X488227D1*
X619772D2*
X1195145D1*
X1261686D2*
X1295136D1*
X1361678D2*
X1395146D1*
X1461687D2*
X1495137D1*
X1561678D2*
X1595128D1*
X1661687D2*
X1695137D1*
X1761679D2*
X1795129D1*
X1861688D2*
X1895138D1*
X1961679D2*
X1995129D1*
X2061688D2*
X2095138D1*
X2161680D2*
X2195130D1*
X2261689D2*
X2295139D1*
X2361680D2*
X2395130D1*
X2461689D2*
X2495139D1*
X2561681D2*
X2595131D1*
X2661690D2*
X2695140D1*
X2761681D2*
X2795131D1*
X2861690D2*
X2895140D1*
X2961682D2*
X2995132D1*
X3061691D2*
X3095141D1*
X3161682D2*
X3679533D1*
X3784542D2*
X3815462D1*
X461200Y2047043D2*
X492120D1*
X615879D2*
X1173022D1*
X3183805D2*
X3667781D1*
X3796312D2*
X3815462D1*
X461290Y2022174D2*
X508950D1*
X599049D2*
X1167496D1*
X3189331D2*
X3667153D1*
X3796940D2*
X3815480D1*
X461361Y1997305D2*
X494793D1*
X613205D2*
X1173094D1*
X3183733D2*
X3677254D1*
X3786839D2*
X3815498D1*
X461433Y1972436D2*
X488244D1*
X619754D2*
X1195414D1*
X1261399D2*
X1295423D1*
X1361409D2*
X1395415D1*
X1461400D2*
X1495424D1*
X1561409D2*
X1595415D1*
X1661400D2*
X1695424D1*
X1761392D2*
X1795416D1*
X1861401D2*
X1895425D1*
X1961392D2*
X1995416D1*
X2061401D2*
X2095425D1*
X2161393D2*
X2195417D1*
X2261402D2*
X2295426D1*
X2361393D2*
X2395417D1*
X2461402D2*
X2495426D1*
X2561394D2*
X2595418D1*
X2661403D2*
X2695427D1*
X2761394D2*
X2795418D1*
X2861403D2*
X2895427D1*
X2961395D2*
X2995419D1*
X3061404D2*
X3095428D1*
X3161395D2*
X3679945D1*
X3784129D2*
X3815516D1*
X461505Y1947567D2*
X491941D1*
X616058D2*
X1173256D1*
X3183554D2*
X3667888D1*
X3796186D2*
X3815534D1*
X461595Y1922699D2*
X508376D1*
X599623D2*
X1167496D1*
X3189331D2*
X3667063D1*
X3797030D2*
X3815552D1*
X461666Y1897830D2*
X1172861D1*
X3183966D2*
X3676895D1*
X3787180D2*
X3815552D1*
X461738Y1872961D2*
X751886D1*
X1039186D2*
X1194589D1*
X1262243D2*
X1294580D1*
X1362234D2*
X1394589D1*
X1462243D2*
X1494581D1*
X1562234D2*
X1594572D1*
X1662244D2*
X1694581D1*
X1762235D2*
X1794572D1*
X1862244D2*
X1894582D1*
X1962235D2*
X1994573D1*
X2062245D2*
X2094582D1*
X2162236D2*
X2194573D1*
X2262245D2*
X2294583D1*
X2362236D2*
X2394574D1*
X2462246D2*
X2494583D1*
X2562237D2*
X2594574D1*
X2662246D2*
X2694584D1*
X2762237D2*
X2794575D1*
X2862247D2*
X2894584D1*
X2962238D2*
X2994575D1*
X3062247D2*
X3094585D1*
X3162238D2*
X3517893D1*
X3553412D2*
X3680376D1*
X3783717D2*
X3815570D1*
X1174147Y1848092D2*
X1992348D1*
X2069206D2*
X2380830D1*
X2469961D2*
X3491087D1*
X3580218D2*
X3668014D1*
X3796061D2*
X3815588D1*
X1162913Y1823224D2*
X1982498D1*
X2079056D2*
X2243663D1*
X2323607D2*
X2377403D1*
X2473370D2*
X3487678D1*
X3583644D2*
X3666973D1*
X3797119D2*
X3815606D1*
X1156169Y1798355D2*
X1987486D1*
X2074068D2*
X2235230D1*
X2332040D2*
X2389263D1*
X2461528D2*
X3499520D1*
X3571785D2*
X3676554D1*
X3787538D2*
X3815624D1*
X1153711Y1773486D2*
X2041348D1*
X2123625D2*
X2241474D1*
X2369485D2*
X3680807D1*
X3783286D2*
X3815642D1*
X1151235Y1748617D2*
X2034046D1*
X2130909D2*
X2278094D1*
X2374706D2*
X3668158D1*
X3795935D2*
X3815642D1*
X1148777Y1723749D2*
X2041384D1*
X2123571D2*
X2287657D1*
X2365143D2*
X3666884D1*
X3797191D2*
X3815659D1*
X1146319Y1698880D2*
X3016321D1*
X3086505D2*
X3676214D1*
X3787879D2*
X3815677D1*
X1127013Y1674011D2*
X3003600D1*
X3099244D2*
X3681237D1*
X3782838D2*
X3815695D1*
X1125093Y1649142D2*
X1188255D1*
X1268038D2*
X1293557D1*
X1376265D2*
X3006399D1*
X3096445D2*
X3668283D1*
X3795792D2*
X3815713D1*
X1123191Y1624273D2*
X1179751D1*
X1276542D2*
X1286488D1*
X1383352D2*
X2852600D1*
X2897754D2*
X3030872D1*
X3071972D2*
X3666812D1*
X3797263D2*
X3815731D1*
X1121290Y1599405D2*
X1185923D1*
X1270370D2*
X1294024D1*
X1375798D2*
X2829777D1*
X2920559D2*
X3675873D1*
X3788202D2*
X3815731D1*
X1119388Y1574536D2*
X1188668D1*
X1267625D2*
X1288659D1*
X1367634D2*
X1388668D1*
X1467626D2*
X1488660D1*
X1567635D2*
X1588669D1*
X1667626D2*
X1688660D1*
X1767635D2*
X1788669D1*
X1867627D2*
X1888661D1*
X1967636D2*
X1988670D1*
X2067627D2*
X2088661D1*
X2167637D2*
X2188670D1*
X2267628D2*
X2288662D1*
X2367637D2*
X2388671D1*
X2467628D2*
X2488662D1*
X2567638D2*
X2588672D1*
X2667629D2*
X2688663D1*
X2767638D2*
X2788672D1*
X2967639D2*
X2988673D1*
X3067630D2*
X3088664D1*
X3167639D2*
X3705280D1*
X3758795D2*
X3815749D1*
X1117486Y1549667D2*
X1173991D1*
X3182316D2*
X3815767D1*
X1115566Y1524798D2*
X1134537D1*
X1156366D2*
X1173363D1*
X3182926D2*
X3815785D1*
X1270155Y1499930D2*
X1286147D1*
X1370146D2*
X1386157D1*
X1470156D2*
X1486148D1*
X1570147D2*
X1586157D1*
X1670156D2*
X1686148D1*
X1770147D2*
X1786140D1*
X1870157D2*
X1886149D1*
X1970148D2*
X1986140D1*
X2070157D2*
X2086149D1*
X2170148D2*
X2186141D1*
X2270158D2*
X2286150D1*
X2370149D2*
X2386141D1*
X2470158D2*
X2486150D1*
X2570149D2*
X2586142D1*
X2670159D2*
X2686151D1*
X2770150D2*
X2786142D1*
X2870159D2*
X2886151D1*
X2970150D2*
X2986143D1*
X3070160D2*
X3086152D1*
X3170151D2*
X3682834D1*
X3780344D2*
X3815803D1*
X1267069Y1475061D2*
X1289215D1*
X1367078D2*
X1389225D1*
X1467070D2*
X1489216D1*
X1567079D2*
X1589225D1*
X1667070D2*
X1689216D1*
X1767079D2*
X1789226D1*
X1867071D2*
X1889217D1*
X1967080D2*
X1989226D1*
X2067071D2*
X2089217D1*
X2167080D2*
X2189227D1*
X2267072D2*
X2289218D1*
X2367081D2*
X2389227D1*
X2467072D2*
X2489218D1*
X2567081D2*
X2589228D1*
X2667073D2*
X2689219D1*
X2767082D2*
X2789228D1*
X2867073D2*
X2889220D1*
X2967082D2*
X2989229D1*
X3067074D2*
X3089220D1*
X3167083D2*
X3668481D1*
X3794697D2*
X3815821D1*
X3182172Y1450192D2*
X3666094D1*
X3797102D2*
X3815821D1*
X1143627Y1425323D2*
X1173256D1*
X3183033D2*
X3674060D1*
X3789117D2*
X3815839D1*
X1153388Y1400455D2*
X1185672D1*
X1270622D2*
X1285681D1*
X1370631D2*
X1385672D1*
X1470622D2*
X1485681D1*
X1570631D2*
X1585673D1*
X1670623D2*
X1685682D1*
X1770632D2*
X1785673D1*
X1870623D2*
X1885682D1*
X1970632D2*
X1985674D1*
X2070624D2*
X2085683D1*
X2170633D2*
X2185674D1*
X2270624D2*
X2285683D1*
X2370615D2*
X2385675D1*
X2470625D2*
X2485684D1*
X2570616D2*
X2585675D1*
X2670625D2*
X2685684D1*
X2770616D2*
X2785676D1*
X2870626D2*
X2885685D1*
X2970617D2*
X2985676D1*
X3070626D2*
X3085667D1*
X3170617D2*
X3683319D1*
X3779859D2*
X3815857D1*
X1163148Y1375586D2*
X2988332D1*
X3067935D2*
X3088341D1*
X3167926D2*
X3668642D1*
X3794536D2*
X3815875D1*
X1172927Y1350717D2*
X1451555D1*
X1498791D2*
X2973206D1*
X3183051D2*
X3666040D1*
X3797137D2*
X3815893D1*
X1134620Y1325848D2*
X1429594D1*
X1520752D2*
X2972094D1*
X3184182D2*
X3673755D1*
X3789422D2*
X3815911D1*
X1088725Y1300980D2*
X1427621D1*
X1522726D2*
X1938378D1*
X2011971D2*
X2983810D1*
X3072456D2*
X3083802D1*
X3172465D2*
X3683839D1*
X3779339D2*
X3815911D1*
X1042829Y1276111D2*
X1441580D1*
X1508767D2*
X1927093D1*
X2023256D2*
X3668821D1*
X3794374D2*
X3815929D1*
X996915Y1251242D2*
X1930932D1*
X2019417D2*
X3665987D1*
X3797191D2*
X3815947D1*
X951019Y1226373D2*
X1959658D1*
X1990692D2*
X3673468D1*
X3789709D2*
X3815965D1*
X905105Y1201504D2*
X1699425D1*
X1771906D2*
X3684359D1*
X3778819D2*
X3815982D1*
X859209Y1176636D2*
X1687673D1*
X1783676D2*
X3668983D1*
X3794195D2*
X3816000D1*
X859604Y1151767D2*
X1691154D1*
X1780177D2*
X3665951D1*
X3797227D2*
X3816000D1*
X862780Y1126898D2*
X1718247D1*
X1753102D2*
X3673199D1*
X3789996D2*
X3816018D1*
X721486Y1102029D2*
X751311D1*
X854491D2*
X3684880D1*
X3778298D2*
X3816036D1*
X675590Y1077161D2*
X764337D1*
X841465D2*
X3669162D1*
X3794015D2*
X3816054D1*
X629676Y1052292D2*
X746395D1*
X859407D2*
X3665915D1*
X3797281D2*
X3816072D1*
X583780Y1027423D2*
X742968D1*
X862834D2*
X3672912D1*
X3790266D2*
X3816090D1*
X537866Y1002554D2*
X750988D1*
X854814D2*
X3685436D1*
X3777742D2*
X3816090D1*
X491971Y977686D2*
X781759D1*
X824043D2*
X3669342D1*
X3793836D2*
X3816108D1*
X464412Y952817D2*
X3665879D1*
X3797317D2*
X3816126D1*
X464250Y927948D2*
X3672643D1*
X3790535D2*
X3816144D1*
X464071Y903079D2*
X3685992D1*
X3777186D2*
X3816162D1*
X463891Y878210D2*
X3669539D1*
X3793657D2*
X3816180D1*
X463730Y853342D2*
X3665843D1*
X3797335D2*
X3816180D1*
X463550Y828473D2*
X3672374D1*
X3790804D2*
X3816198D1*
X463371Y803604D2*
X3686566D1*
X3776612D2*
X3816216D1*
X463191Y778735D2*
X3669719D1*
X3793459D2*
X3816234D1*
X463030Y753867D2*
X3665825D1*
X3797371D2*
X3816252D1*
X462851Y728998D2*
X3672123D1*
X3791055D2*
X3816270D1*
X462671Y704129D2*
X3301654D1*
X3340852D2*
X3687158D1*
X3776038D2*
X3816270D1*
X462510Y679260D2*
X958453D1*
X1112462D2*
X3242069D1*
X3400420D2*
X3669916D1*
X3793262D2*
X3816287D1*
X462330Y654392D2*
X933047D1*
X1137868D2*
X3217614D1*
X3424893D2*
X3665789D1*
X3797389D2*
X3816305D1*
X462151Y629523D2*
X918173D1*
X1152760D2*
X3203242D1*
X3439264D2*
X3671872D1*
X3791306D2*
X3816323D1*
X461971Y604654D2*
X909938D1*
X1160977D2*
X3195383D1*
X3447123D2*
X3687750D1*
X3775427D2*
X3816341D1*
X461810Y579785D2*
X907049D1*
X1163884D2*
X3192818D1*
X3449689D2*
X3670131D1*
X3793065D2*
X3816359D1*
X461631Y554917D2*
X909112D1*
X1161803D2*
X3195222D1*
X3447285D2*
X3665789D1*
X3797407D2*
X3816359D1*
X461451Y530048D2*
X916397D1*
X1154518D2*
X3202883D1*
X3439623D2*
X3671620D1*
X3791557D2*
X3816377D1*
X461290Y505179D2*
X930033D1*
X1140900D2*
X3216986D1*
X3425521D2*
X3692218D1*
X3770960D2*
X3816395D1*
X461110Y480310D2*
X953160D1*
X1117755D2*
X3240974D1*
X3401514D2*
X3816413D1*
X460931Y455441D2*
X1002895D1*
X1068037D2*
X1944514D1*
X616397Y2800296D2*
X614396Y2791269D1*
X611103Y2782629D1*
X606586Y2774561D1*
X600943Y2767236D1*
X594293Y2760812D1*
X592510Y2759533D1*
X594200Y2758176D1*
X600863Y2751765D1*
X606522Y2744453D1*
X611056Y2736395D1*
X614368Y2727762D1*
X616388Y2718739D1*
X617073Y2709450D1*
X616408Y2700296D1*
X614408Y2691269D1*
X611114Y2682629D1*
X606597Y2674561D1*
X600954Y2667236D1*
X594304Y2660812D1*
X586790Y2655423D1*
X578572Y2651187D1*
X569824Y2648192D1*
X560733Y2646503D1*
X551493Y2646155D1*
X542301Y2647156D1*
X533353Y2649485D1*
X524840Y2653093D1*
X516942Y2657901D1*
X509828Y2663808D1*
X503651Y2670687D1*
X498541Y2678393D1*
X494607Y2686761D1*
X491934Y2695613D1*
X490577Y2704759D1*
X490567Y2714005D1*
X491904Y2723154D1*
X494558Y2732012D1*
X498474Y2740388D1*
X503567Y2748105D1*
X509730Y2754998D1*
X514966Y2759364D1*
X509817Y2763808D1*
X503640Y2770687D1*
X498529Y2778393D1*
X494596Y2786761D1*
X491922Y2795613D1*
X490566Y2804759D1*
X490556Y2814005D1*
X491893Y2823154D1*
X494547Y2832012D1*
X498463Y2840388D1*
X503556Y2848105D1*
X509719Y2854998D1*
X516820Y2860920D1*
X524707Y2865745D1*
X533213Y2869371D1*
X542156Y2871719D1*
X551346Y2872740D1*
X560586Y2872412D1*
X569681Y2870743D1*
X578435Y2867767D1*
X586663Y2863548D1*
X594188Y2858176D1*
X600852Y2851765D1*
X606511Y2844453D1*
X611045Y2836395D1*
X614357Y2827762D1*
X616377Y2818739D1*
X617062Y2809450D1*
X616397Y2800296D1*
X616069Y2553466D2*
X614069Y2544439D1*
X610775Y2535799D1*
X606258Y2527731D1*
X600615Y2520406D1*
X593965Y2513981D1*
X592182Y2512703D1*
X593861Y2511346D1*
X600524Y2504935D1*
X606183Y2497623D1*
X610717Y2489565D1*
X614029Y2480932D1*
X616049Y2471909D1*
X616734Y2462620D1*
X616069Y2453466D1*
X614069Y2444439D1*
X610775Y2435799D1*
X606258Y2427731D1*
X600615Y2420406D1*
X593965Y2413981D1*
X586451Y2408593D1*
X578233Y2404357D1*
X569485Y2401362D1*
X560394Y2399672D1*
X551154Y2399325D1*
X541963Y2400326D1*
X533014Y2402655D1*
X524501Y2406262D1*
X516603Y2411071D1*
X509489Y2416978D1*
X503312Y2423857D1*
X498202Y2431563D1*
X494268Y2439931D1*
X491595Y2448782D1*
X490239Y2457929D1*
X490229Y2467175D1*
X491565Y2476324D1*
X494219Y2485181D1*
X498135Y2493558D1*
X503228Y2501275D1*
X509391Y2508168D1*
X514627Y2512534D1*
X509489Y2516978D1*
X503312Y2523857D1*
X498202Y2531563D1*
X494268Y2539931D1*
X491595Y2548782D1*
X490239Y2557929D1*
X490229Y2567175D1*
X491565Y2576324D1*
X494219Y2585181D1*
X498135Y2593558D1*
X503228Y2601275D1*
X509391Y2608168D1*
X516492Y2614090D1*
X524379Y2618915D1*
X532885Y2622541D1*
X541828Y2624889D1*
X551018Y2625910D1*
X560259Y2625582D1*
X569353Y2623913D1*
X578107Y2620937D1*
X586335Y2616718D1*
X593861Y2611346D1*
X600524Y2604935D1*
X606183Y2597623D1*
X610717Y2589565D1*
X614029Y2580932D1*
X616049Y2571909D1*
X616734Y2562620D1*
X616069Y2553466D1*
X616861Y2307336D2*
X614860Y2298309D1*
X611566Y2289669D1*
X607050Y2281601D1*
X601406Y2274276D1*
X594757Y2267851D1*
X592974Y2266573D1*
X594652Y2265216D1*
X601315Y2258805D1*
X606974Y2251493D1*
X611508Y2243435D1*
X614821Y2234802D1*
X616841Y2225779D1*
X617526Y2216490D1*
X616861Y2207336D1*
X614860Y2198309D1*
X611566Y2189669D1*
X607050Y2181601D1*
X601406Y2174276D1*
X594757Y2167851D1*
X587243Y2162463D1*
X579024Y2158227D1*
X570276Y2155232D1*
X561186Y2153543D1*
X551946Y2153195D1*
X542754Y2154196D1*
X533806Y2156525D1*
X525292Y2160132D1*
X517394Y2164941D1*
X510281Y2170848D1*
X504103Y2177727D1*
X498993Y2185433D1*
X495059Y2193801D1*
X492386Y2202653D1*
X491030Y2211799D1*
X491020Y2221045D1*
X492356Y2230194D1*
X495011Y2239052D1*
X498926Y2247428D1*
X504020Y2255145D1*
X510183Y2262038D1*
X515418Y2266404D1*
X510281Y2270848D1*
X504103Y2277727D1*
X498993Y2285433D1*
X495059Y2293801D1*
X492386Y2302653D1*
X491030Y2311799D1*
X491020Y2321045D1*
X492356Y2330194D1*
X495011Y2339052D1*
X498926Y2347428D1*
X504020Y2355145D1*
X510183Y2362038D1*
X517283Y2367960D1*
X525171Y2372785D1*
X533677Y2376411D1*
X542620Y2378759D1*
X551810Y2379780D1*
X561050Y2379452D1*
X570144Y2377783D1*
X578899Y2374807D1*
X587126Y2370588D1*
X594652Y2365216D1*
X601315Y2358805D1*
X606974Y2351493D1*
X611508Y2343435D1*
X614821Y2334802D1*
X616841Y2325779D1*
X617526Y2316490D1*
X616861Y2307336D1*
X616669Y2059936D2*
X614668Y2050908D1*
X611375Y2042269D1*
X606858Y2034200D1*
X601215Y2026876D1*
X594565Y2020451D1*
X592782Y2019173D1*
X594460Y2017816D1*
X601124Y2011405D1*
X606783Y2004093D1*
X611317Y1996034D1*
X614629Y1987402D1*
X616649Y1978379D1*
X617334Y1969090D1*
X616669Y1959936D1*
X614668Y1950908D1*
X611375Y1942269D1*
X606858Y1934200D1*
X601215Y1926876D1*
X594565Y1920451D1*
X587051Y1915063D1*
X578833Y1910826D1*
X570085Y1907832D1*
X560994Y1906142D1*
X551754Y1905795D1*
X542562Y1906796D1*
X533614Y1909125D1*
X525100Y1912732D1*
X517203Y1917540D1*
X510089Y1923447D1*
X503912Y1930327D1*
X498801Y1938033D1*
X494868Y1946401D1*
X492194Y1955252D1*
X490838Y1964399D1*
X490828Y1973645D1*
X492165Y1982794D1*
X494819Y1991651D1*
X498735Y2000028D1*
X503828Y2007744D1*
X509991Y2014637D1*
X515226Y2019004D1*
X510089Y2023447D1*
X503912Y2030327D1*
X498801Y2038033D1*
X494868Y2046401D1*
X492194Y2055252D1*
X490838Y2064399D1*
X490828Y2073645D1*
X492165Y2082794D1*
X494819Y2091651D1*
X498735Y2100028D1*
X503828Y2107744D1*
X509991Y2114637D1*
X517092Y2120560D1*
X524979Y2125385D1*
X533485Y2129010D1*
X542428Y2131359D1*
X551618Y2132380D1*
X560858Y2132052D1*
X569953Y2130382D1*
X578707Y2127406D1*
X586935Y2123187D1*
X594460Y2117816D1*
X601124Y2111405D1*
X606783Y2104093D1*
X611317Y2096034D1*
X614629Y2087402D1*
X616649Y2078379D1*
X617334Y2069090D1*
X616669Y2059936D1*
X1278114Y1517153D2*
X1274762Y1509777D1*
X1269670Y1502276D1*
X1263383Y1495744D1*
X1256083Y1490368D1*
X1247979Y1486302D1*
X1246937Y1485986D1*
X1248182Y1485499D1*
X1256269Y1481401D1*
X1263547Y1475995D1*
X1269807Y1469437D1*
X1274869Y1461915D1*
X1278103Y1454720D1*
X1279487Y1458058D1*
X1283925Y1465964D1*
X1289635Y1473006D1*
X1296453Y1478982D1*
X1304183Y1483720D1*
X1309503Y1485845D1*
X1303988Y1488261D1*
X1296277Y1493030D1*
X1289484Y1499034D1*
X1283803Y1506100D1*
X1279397Y1514024D1*
X1278245Y1517307D1*
X1378114Y1517153D2*
X1374762Y1509777D1*
X1369670Y1502276D1*
X1363383Y1495744D1*
X1356083Y1490368D1*
X1347979Y1486302D1*
X1346937Y1485986D1*
X1348182Y1485499D1*
X1356269Y1481401D1*
X1363547Y1475995D1*
X1369807Y1469437D1*
X1374869Y1461915D1*
X1378103Y1454720D1*
X1379487Y1458058D1*
X1383925Y1465964D1*
X1389635Y1473006D1*
X1396453Y1478982D1*
X1404183Y1483720D1*
X1409503Y1485845D1*
X1403988Y1488261D1*
X1396277Y1493030D1*
X1389484Y1499034D1*
X1383803Y1506100D1*
X1379397Y1514024D1*
X1378245Y1517307D1*
X1478114Y1517153D2*
X1474762Y1509777D1*
X1469670Y1502276D1*
X1463383Y1495744D1*
X1456083Y1490368D1*
X1447979Y1486302D1*
X1446937Y1485986D1*
X1448182Y1485499D1*
X1456269Y1481401D1*
X1463547Y1475995D1*
X1469807Y1469437D1*
X1474869Y1461915D1*
X1478103Y1454720D1*
X1479487Y1458058D1*
X1483925Y1465964D1*
X1489635Y1473006D1*
X1496453Y1478982D1*
X1504183Y1483720D1*
X1509503Y1485845D1*
X1503988Y1488261D1*
X1496277Y1493030D1*
X1489484Y1499034D1*
X1483803Y1506100D1*
X1479397Y1514024D1*
X1478245Y1517307D1*
X1578114Y1517153D2*
X1574762Y1509777D1*
X1569670Y1502276D1*
X1563383Y1495744D1*
X1556083Y1490368D1*
X1547979Y1486302D1*
X1546937Y1485986D1*
X1548182Y1485499D1*
X1556269Y1481401D1*
X1563547Y1475995D1*
X1569807Y1469437D1*
X1574869Y1461915D1*
X1578103Y1454720D1*
X1579487Y1458058D1*
X1583925Y1465964D1*
X1589635Y1473006D1*
X1596453Y1478982D1*
X1604183Y1483720D1*
X1609503Y1485845D1*
X1603988Y1488261D1*
X1596277Y1493030D1*
X1589484Y1499034D1*
X1583803Y1506100D1*
X1579397Y1514024D1*
X1578245Y1517307D1*
X1678114Y1517153D2*
X1674762Y1509777D1*
X1669670Y1502276D1*
X1663383Y1495744D1*
X1656083Y1490368D1*
X1647979Y1486302D1*
X1646937Y1485986D1*
X1648182Y1485499D1*
X1656269Y1481401D1*
X1663547Y1475995D1*
X1669807Y1469437D1*
X1674869Y1461915D1*
X1678103Y1454720D1*
X1679487Y1458058D1*
X1683925Y1465964D1*
X1689635Y1473006D1*
X1696453Y1478982D1*
X1704183Y1483720D1*
X1709503Y1485845D1*
X1703988Y1488261D1*
X1696277Y1493030D1*
X1689484Y1499034D1*
X1683803Y1506100D1*
X1679397Y1514024D1*
X1678245Y1517307D1*
X1778114Y1517153D2*
X1774762Y1509777D1*
X1769670Y1502276D1*
X1763383Y1495744D1*
X1756083Y1490368D1*
X1747979Y1486302D1*
X1746937Y1485986D1*
X1748182Y1485499D1*
X1756269Y1481401D1*
X1763547Y1475995D1*
X1769807Y1469437D1*
X1774869Y1461915D1*
X1778103Y1454720D1*
X1779487Y1458058D1*
X1783925Y1465964D1*
X1789635Y1473006D1*
X1796453Y1478982D1*
X1804183Y1483720D1*
X1809503Y1485845D1*
X1803988Y1488261D1*
X1796277Y1493030D1*
X1789484Y1499034D1*
X1783803Y1506100D1*
X1779397Y1514024D1*
X1778245Y1517307D1*
X1878114Y1517153D2*
X1874762Y1509777D1*
X1869670Y1502276D1*
X1863383Y1495744D1*
X1856083Y1490368D1*
X1847979Y1486302D1*
X1846937Y1485986D1*
X1848182Y1485499D1*
X1856269Y1481401D1*
X1863547Y1475995D1*
X1869807Y1469437D1*
X1874869Y1461915D1*
X1878103Y1454720D1*
X1879487Y1458058D1*
X1883925Y1465964D1*
X1889635Y1473006D1*
X1896453Y1478982D1*
X1904183Y1483720D1*
X1909503Y1485845D1*
X1903988Y1488261D1*
X1896277Y1493030D1*
X1889484Y1499034D1*
X1883803Y1506100D1*
X1879397Y1514024D1*
X1878245Y1517307D1*
X1978114Y1517153D2*
X1974762Y1509777D1*
X1969670Y1502276D1*
X1963383Y1495744D1*
X1956083Y1490368D1*
X1947979Y1486302D1*
X1946937Y1485986D1*
X1948182Y1485499D1*
X1956269Y1481401D1*
X1963547Y1475995D1*
X1969807Y1469437D1*
X1974869Y1461915D1*
X1978103Y1454720D1*
X1979487Y1458058D1*
X1983925Y1465964D1*
X1989635Y1473006D1*
X1996453Y1478982D1*
X2004183Y1483720D1*
X2009503Y1485845D1*
X2003988Y1488261D1*
X1996277Y1493030D1*
X1989484Y1499034D1*
X1983803Y1506100D1*
X1979397Y1514024D1*
X1978245Y1517307D1*
X2078114Y1517153D2*
X2074762Y1509777D1*
X2069670Y1502276D1*
X2063383Y1495744D1*
X2056083Y1490368D1*
X2047979Y1486302D1*
X2046937Y1485986D1*
X2048182Y1485499D1*
X2056269Y1481401D1*
X2063547Y1475995D1*
X2069807Y1469437D1*
X2074869Y1461915D1*
X2078103Y1454720D1*
X2079487Y1458058D1*
X2083925Y1465964D1*
X2089635Y1473006D1*
X2096453Y1478982D1*
X2104183Y1483720D1*
X2109503Y1485845D1*
X2103988Y1488261D1*
X2096277Y1493030D1*
X2089484Y1499034D1*
X2083803Y1506100D1*
X2079397Y1514024D1*
X2078245Y1517307D1*
X2178114Y1517153D2*
X2174762Y1509777D1*
X2169670Y1502276D1*
X2163383Y1495744D1*
X2156083Y1490368D1*
X2147979Y1486302D1*
X2146937Y1485986D1*
X2148182Y1485499D1*
X2156269Y1481401D1*
X2163547Y1475995D1*
X2169807Y1469437D1*
X2174869Y1461915D1*
X2178103Y1454720D1*
X2179487Y1458058D1*
X2183925Y1465964D1*
X2189635Y1473006D1*
X2196453Y1478982D1*
X2204183Y1483720D1*
X2209503Y1485845D1*
X2203988Y1488261D1*
X2196277Y1493030D1*
X2189484Y1499034D1*
X2183803Y1506100D1*
X2179397Y1514024D1*
X2178245Y1517307D1*
X2278114Y1517153D2*
X2274762Y1509777D1*
X2269670Y1502276D1*
X2263383Y1495744D1*
X2256083Y1490368D1*
X2247979Y1486302D1*
X2246937Y1485986D1*
X2248182Y1485499D1*
X2256269Y1481401D1*
X2263547Y1475995D1*
X2269807Y1469437D1*
X2274869Y1461915D1*
X2278103Y1454720D1*
X2279487Y1458058D1*
X2283925Y1465964D1*
X2289635Y1473006D1*
X2296453Y1478982D1*
X2304183Y1483720D1*
X2309503Y1485845D1*
X2303988Y1488261D1*
X2296277Y1493030D1*
X2289484Y1499034D1*
X2283803Y1506100D1*
X2279397Y1514024D1*
X2278245Y1517307D1*
X2378114Y1517153D2*
X2374762Y1509777D1*
X2369670Y1502276D1*
X2363383Y1495744D1*
X2356083Y1490368D1*
X2347979Y1486302D1*
X2346937Y1485986D1*
X2348182Y1485499D1*
X2356269Y1481401D1*
X2363547Y1475995D1*
X2369807Y1469437D1*
X2374869Y1461915D1*
X2378103Y1454720D1*
X2379487Y1458058D1*
X2383925Y1465964D1*
X2389635Y1473006D1*
X2396453Y1478982D1*
X2404183Y1483720D1*
X2409503Y1485845D1*
X2403988Y1488261D1*
X2396277Y1493030D1*
X2389484Y1499034D1*
X2383803Y1506100D1*
X2379397Y1514024D1*
X2378245Y1517307D1*
X2478114Y1517153D2*
X2474762Y1509777D1*
X2469670Y1502276D1*
X2463383Y1495744D1*
X2456083Y1490368D1*
X2447979Y1486302D1*
X2446937Y1485986D1*
X2448182Y1485499D1*
X2456269Y1481401D1*
X2463547Y1475995D1*
X2469807Y1469437D1*
X2474869Y1461915D1*
X2478103Y1454720D1*
X2479487Y1458058D1*
X2483925Y1465964D1*
X2489635Y1473006D1*
X2496453Y1478982D1*
X2504183Y1483720D1*
X2509503Y1485845D1*
X2503988Y1488261D1*
X2496277Y1493030D1*
X2489484Y1499034D1*
X2483803Y1506100D1*
X2479397Y1514024D1*
X2478245Y1517307D1*
X2578114Y1517153D2*
X2574762Y1509777D1*
X2569670Y1502276D1*
X2563383Y1495744D1*
X2556083Y1490368D1*
X2547979Y1486302D1*
X2546937Y1485986D1*
X2548182Y1485499D1*
X2556269Y1481401D1*
X2563547Y1475995D1*
X2569807Y1469437D1*
X2574869Y1461915D1*
X2578103Y1454720D1*
X2579487Y1458058D1*
X2583925Y1465964D1*
X2589635Y1473006D1*
X2596453Y1478982D1*
X2604183Y1483720D1*
X2609503Y1485845D1*
X2603988Y1488261D1*
X2596277Y1493030D1*
X2589484Y1499034D1*
X2583803Y1506100D1*
X2579397Y1514024D1*
X2578245Y1517307D1*
X2678114Y1517153D2*
X2674762Y1509777D1*
X2669670Y1502276D1*
X2663383Y1495744D1*
X2656083Y1490368D1*
X2647979Y1486302D1*
X2646937Y1485986D1*
X2648182Y1485499D1*
X2656269Y1481401D1*
X2663547Y1475995D1*
X2669807Y1469437D1*
X2674869Y1461915D1*
X2678103Y1454720D1*
X2679487Y1458058D1*
X2683925Y1465964D1*
X2689635Y1473006D1*
X2696453Y1478982D1*
X2704183Y1483720D1*
X2709503Y1485845D1*
X2703988Y1488261D1*
X2696277Y1493030D1*
X2689484Y1499034D1*
X2683803Y1506100D1*
X2679397Y1514024D1*
X2678245Y1517307D1*
X2778114Y1517153D2*
X2774762Y1509777D1*
X2769670Y1502276D1*
X2763383Y1495744D1*
X2756083Y1490368D1*
X2747979Y1486302D1*
X2746937Y1485986D1*
X2748182Y1485499D1*
X2756269Y1481401D1*
X2763547Y1475995D1*
X2769807Y1469437D1*
X2774869Y1461915D1*
X2778103Y1454720D1*
X2779487Y1458058D1*
X2783925Y1465964D1*
X2789635Y1473006D1*
X2796453Y1478982D1*
X2804183Y1483720D1*
X2809503Y1485845D1*
X2803988Y1488261D1*
X2796277Y1493030D1*
X2789484Y1499034D1*
X2783803Y1506100D1*
X2779397Y1514024D1*
X2778245Y1517307D1*
X2878114Y1517153D2*
X2874762Y1509777D1*
X2869670Y1502276D1*
X2863383Y1495744D1*
X2856083Y1490368D1*
X2847979Y1486302D1*
X2846937Y1485986D1*
X2848182Y1485499D1*
X2856269Y1481401D1*
X2863547Y1475995D1*
X2869807Y1469437D1*
X2874869Y1461915D1*
X2878103Y1454720D1*
X2879487Y1458058D1*
X2883925Y1465964D1*
X2889635Y1473006D1*
X2896453Y1478982D1*
X2904183Y1483720D1*
X2909503Y1485845D1*
X2903988Y1488261D1*
X2896277Y1493030D1*
X2889484Y1499034D1*
X2883803Y1506100D1*
X2879397Y1514024D1*
X2878245Y1517307D1*
X2978114Y1517153D2*
X2974762Y1509777D1*
X2969670Y1502276D1*
X2963383Y1495744D1*
X2956083Y1490368D1*
X2947979Y1486302D1*
X2946937Y1485986D1*
X2948182Y1485499D1*
X2956269Y1481401D1*
X2963547Y1475995D1*
X2969807Y1469437D1*
X2974869Y1461915D1*
X2978103Y1454720D1*
X2981278Y1461636D1*
X2986295Y1469188D1*
X2992515Y1475784D1*
X2999761Y1481233D1*
X3007824Y1485379D1*
X3009420Y1485882D1*
X3003988Y1488261D1*
X2996277Y1493030D1*
X2989484Y1499034D1*
X2983803Y1506100D1*
X2979397Y1514024D1*
X2978245Y1517307D1*
X3078114Y1517153D2*
X3074762Y1509777D1*
X3069670Y1502276D1*
X3063383Y1495744D1*
X3056083Y1490368D1*
X3047979Y1486302D1*
X3046937Y1485986D1*
X3051833Y1483862D1*
X3059591Y1479170D1*
X3066444Y1473235D1*
X3072196Y1466227D1*
X3076680Y1458348D1*
X3078047Y1454577D1*
X3081278Y1461636D1*
X3086295Y1469188D1*
X3092515Y1475784D1*
X3099761Y1481233D1*
X3107824Y1485379D1*
X3109420Y1485882D1*
X3103988Y1488261D1*
X3096277Y1493030D1*
X3089484Y1499034D1*
X3083803Y1506100D1*
X3079397Y1514024D1*
X3078245Y1517307D1*
X3107990Y1386495D2*
X3100489Y1390202D1*
X3093157Y1395535D1*
X3086832Y1402030D1*
X3081695Y1409500D1*
X3078180Y1417113D1*
X3078114Y1417153D1*
X3074762Y1409777D1*
X3069670Y1402276D1*
X3063383Y1395744D1*
X3056083Y1390368D1*
X3048319Y1386473D1*
X3056639Y1382303D1*
X3064075Y1376818D1*
X3070476Y1370155D1*
X3075659Y1362506D1*
X3078033Y1357271D1*
X3081823Y1364573D1*
X3087338Y1371987D1*
X3094027Y1378361D1*
X3101697Y1383514D1*
X3108110Y1386391D1*
X3794711Y1623887D2*
X3792710Y1614860D1*
X3789417Y1606220D1*
X3784900Y1598152D1*
X3779257Y1590827D1*
X3772607Y1584403D1*
X3765093Y1579015D1*
X3756875Y1574778D1*
X3748127Y1571783D1*
X3739036Y1570094D1*
X3729796Y1569746D1*
X3720604Y1570747D1*
X3711656Y1573077D1*
X3703142Y1576684D1*
X3695245Y1581492D1*
X3688131Y1587399D1*
X3681954Y1594279D1*
X3676843Y1601985D1*
X3672910Y1610352D1*
X3670236Y1619204D1*
X3668880Y1628350D1*
X3668870Y1637596D1*
X3670207Y1646746D1*
X3672861Y1655603D1*
X3676777Y1663979D1*
X3681870Y1671696D1*
X3688033Y1678589D1*
X3693268Y1682955D1*
X3688131Y1687399D1*
X3681954Y1694279D1*
X3676843Y1701985D1*
X3672910Y1710352D1*
X3670236Y1719204D1*
X3668880Y1728350D1*
X3668870Y1737596D1*
X3670207Y1746746D1*
X3672861Y1755603D1*
X3676777Y1763979D1*
X3681870Y1771696D1*
X3688033Y1778589D1*
X3693268Y1782955D1*
X3688131Y1787399D1*
X3681954Y1794279D1*
X3676843Y1801985D1*
X3672910Y1810352D1*
X3670236Y1819204D1*
X3668880Y1828350D1*
X3668870Y1837596D1*
X3670207Y1846746D1*
X3672861Y1855603D1*
X3676777Y1863979D1*
X3681870Y1871696D1*
X3688033Y1878589D1*
X3693268Y1882955D1*
X3688131Y1887399D1*
X3681954Y1894279D1*
X3676843Y1901985D1*
X3672910Y1910352D1*
X3670236Y1919204D1*
X3668880Y1928350D1*
X3668870Y1937596D1*
X3670207Y1946746D1*
X3672861Y1955603D1*
X3676777Y1963979D1*
X3681870Y1971696D1*
X3688033Y1978589D1*
X3693268Y1982955D1*
X3688131Y1987399D1*
X3681954Y1994279D1*
X3676843Y2001985D1*
X3672910Y2010352D1*
X3670236Y2019204D1*
X3668880Y2028350D1*
X3668870Y2037596D1*
X3670207Y2046746D1*
X3672861Y2055603D1*
X3676777Y2063979D1*
X3681870Y2071696D1*
X3688033Y2078589D1*
X3693268Y2082955D1*
X3688131Y2087399D1*
X3681954Y2094279D1*
X3676843Y2101985D1*
X3672910Y2110352D1*
X3670236Y2119204D1*
X3668880Y2128350D1*
X3668870Y2137596D1*
X3670207Y2146746D1*
X3672861Y2155603D1*
X3676777Y2163979D1*
X3681870Y2171696D1*
X3688033Y2178589D1*
X3693268Y2182955D1*
X3688131Y2187399D1*
X3681954Y2194279D1*
X3676843Y2201985D1*
X3672910Y2210352D1*
X3670236Y2219204D1*
X3668880Y2228350D1*
X3668870Y2237596D1*
X3670207Y2246746D1*
X3672861Y2255603D1*
X3676777Y2263979D1*
X3681870Y2271696D1*
X3688033Y2278589D1*
X3693268Y2282955D1*
X3688131Y2287399D1*
X3681954Y2294279D1*
X3676843Y2301985D1*
X3672910Y2310352D1*
X3670236Y2319204D1*
X3668880Y2328350D1*
X3668870Y2337596D1*
X3670207Y2346746D1*
X3672861Y2355603D1*
X3676777Y2363979D1*
X3681870Y2371696D1*
X3688033Y2378589D1*
X3693268Y2382955D1*
X3688131Y2387399D1*
X3681954Y2394279D1*
X3676843Y2401985D1*
X3672910Y2410352D1*
X3670236Y2419204D1*
X3668880Y2428350D1*
X3668870Y2437596D1*
X3670207Y2446746D1*
X3672861Y2455603D1*
X3676777Y2463979D1*
X3681870Y2471696D1*
X3688033Y2478589D1*
X3693268Y2482955D1*
X3688131Y2487399D1*
X3681954Y2494279D1*
X3676843Y2501985D1*
X3672910Y2510352D1*
X3670236Y2519204D1*
X3668880Y2528350D1*
X3668870Y2537596D1*
X3670207Y2546746D1*
X3672861Y2555603D1*
X3676777Y2563979D1*
X3681870Y2571696D1*
X3688033Y2578589D1*
X3695134Y2584511D1*
X3703021Y2589336D1*
X3711527Y2592962D1*
X3720470Y2595310D1*
X3729660Y2596331D1*
X3738900Y2596004D1*
X3747995Y2594334D1*
X3756749Y2591358D1*
X3764977Y2587139D1*
X3772502Y2581767D1*
X3779166Y2575357D1*
X3784825Y2568044D1*
X3789359Y2559986D1*
X3792671Y2551353D1*
X3794691Y2542330D1*
X3795376Y2533041D1*
X3794711Y2523887D1*
X3792710Y2514860D1*
X3789417Y2506220D1*
X3784900Y2498152D1*
X3779257Y2490827D1*
X3772607Y2484403D1*
X3770824Y2483124D1*
X3772502Y2481767D1*
X3779166Y2475357D1*
X3784825Y2468044D1*
X3789359Y2459986D1*
X3792671Y2451353D1*
X3794691Y2442330D1*
X3795376Y2433041D1*
X3794711Y2423887D1*
X3792710Y2414860D1*
X3789417Y2406220D1*
X3784900Y2398152D1*
X3779257Y2390827D1*
X3772607Y2384403D1*
X3770824Y2383124D1*
X3772502Y2381767D1*
X3779166Y2375357D1*
X3784825Y2368044D1*
X3789359Y2359986D1*
X3792671Y2351353D1*
X3794691Y2342330D1*
X3795376Y2333041D1*
X3794711Y2323887D1*
X3792710Y2314860D1*
X3789417Y2306220D1*
X3784900Y2298152D1*
X3779257Y2290827D1*
X3772607Y2284403D1*
X3770824Y2283124D1*
X3772502Y2281767D1*
X3779166Y2275357D1*
X3784825Y2268044D1*
X3789359Y2259986D1*
X3792671Y2251353D1*
X3794691Y2242330D1*
X3795376Y2233041D1*
X3794711Y2223887D1*
X3792710Y2214860D1*
X3789417Y2206220D1*
X3784900Y2198152D1*
X3779257Y2190827D1*
X3772607Y2184403D1*
X3770824Y2183124D1*
X3772502Y2181767D1*
X3779166Y2175357D1*
X3784825Y2168044D1*
X3789359Y2159986D1*
X3792671Y2151353D1*
X3794691Y2142330D1*
X3795376Y2133041D1*
X3794711Y2123887D1*
X3792710Y2114860D1*
X3789417Y2106220D1*
X3784900Y2098152D1*
X3779257Y2090827D1*
X3772607Y2084403D1*
X3770824Y2083124D1*
X3772502Y2081767D1*
X3779166Y2075357D1*
X3784825Y2068044D1*
X3789359Y2059986D1*
X3792671Y2051353D1*
X3794691Y2042330D1*
X3795376Y2033041D1*
X3794711Y2023887D1*
X3792710Y2014860D1*
X3789417Y2006220D1*
X3784900Y1998152D1*
X3779257Y1990827D1*
X3772607Y1984403D1*
X3770824Y1983124D1*
X3772502Y1981767D1*
X3779166Y1975357D1*
X3784825Y1968044D1*
X3789359Y1959986D1*
X3792671Y1951353D1*
X3794691Y1942330D1*
X3795376Y1933041D1*
X3794711Y1923887D1*
X3792710Y1914860D1*
X3789417Y1906220D1*
X3784900Y1898152D1*
X3779257Y1890827D1*
X3772607Y1884403D1*
X3770824Y1883124D1*
X3772502Y1881767D1*
X3779166Y1875357D1*
X3784825Y1868044D1*
X3789359Y1859986D1*
X3792671Y1851353D1*
X3794691Y1842330D1*
X3795376Y1833041D1*
X3794711Y1823887D1*
X3792710Y1814860D1*
X3789417Y1806220D1*
X3784900Y1798152D1*
X3779257Y1790827D1*
X3772607Y1784403D1*
X3770824Y1783124D1*
X3772502Y1781767D1*
X3779166Y1775357D1*
X3784825Y1768044D1*
X3789359Y1759986D1*
X3792671Y1751353D1*
X3794691Y1742330D1*
X3795376Y1733041D1*
X3794711Y1723887D1*
X3792710Y1714860D1*
X3789417Y1706220D1*
X3784900Y1698152D1*
X3779257Y1690827D1*
X3772607Y1684403D1*
X3770824Y1683124D1*
X3772502Y1681767D1*
X3779166Y1675357D1*
X3784825Y1668044D1*
X3789359Y1659986D1*
X3792671Y1651353D1*
X3794691Y1642330D1*
X3795376Y1633041D1*
X3794711Y1623887D1*
X3794261Y547517D2*
X3792260Y538490D1*
X3788966Y529850D1*
X3784450Y521782D1*
X3778807Y514457D1*
X3772157Y508033D1*
X3764643Y502644D1*
X3756424Y498408D1*
X3747677Y495413D1*
X3738586Y493724D1*
X3729346Y493376D1*
X3720154Y494377D1*
X3711206Y496706D1*
X3702692Y500314D1*
X3694795Y505122D1*
X3687681Y511029D1*
X3681503Y517909D1*
X3676393Y525614D1*
X3672460Y533982D1*
X3669786Y542834D1*
X3668430Y551980D1*
X3668420Y561226D1*
X3669757Y570375D1*
X3672411Y579233D1*
X3676327Y587609D1*
X3681420Y595326D1*
X3687583Y602219D1*
X3692818Y606585D1*
X3687681Y611029D1*
X3681503Y617909D1*
X3676393Y625614D1*
X3672460Y633982D1*
X3669786Y642834D1*
X3668430Y651980D1*
X3668420Y661226D1*
X3669757Y670375D1*
X3672411Y679233D1*
X3676327Y687609D1*
X3681420Y695326D1*
X3687583Y702219D1*
X3692818Y706585D1*
X3687681Y711029D1*
X3681503Y717909D1*
X3676393Y725614D1*
X3672460Y733982D1*
X3669786Y742834D1*
X3668430Y751980D1*
X3668420Y761226D1*
X3669757Y770375D1*
X3672411Y779233D1*
X3676327Y787609D1*
X3681420Y795326D1*
X3687583Y802219D1*
X3692818Y806585D1*
X3687681Y811029D1*
X3681503Y817909D1*
X3676393Y825614D1*
X3672460Y833982D1*
X3669786Y842834D1*
X3668430Y851980D1*
X3668420Y861226D1*
X3669757Y870375D1*
X3672411Y879233D1*
X3676327Y887609D1*
X3681420Y895326D1*
X3687583Y902219D1*
X3692818Y906585D1*
X3687681Y911029D1*
X3681503Y917909D1*
X3676393Y925614D1*
X3672460Y933982D1*
X3669786Y942834D1*
X3668430Y951980D1*
X3668420Y961226D1*
X3669757Y970375D1*
X3672411Y979233D1*
X3676327Y987609D1*
X3681420Y995326D1*
X3687583Y1002219D1*
X3692818Y1006585D1*
X3687681Y1011029D1*
X3681503Y1017909D1*
X3676393Y1025614D1*
X3672460Y1033982D1*
X3669786Y1042834D1*
X3668430Y1051980D1*
X3668420Y1061226D1*
X3669757Y1070375D1*
X3672411Y1079233D1*
X3676327Y1087609D1*
X3681420Y1095326D1*
X3687583Y1102219D1*
X3692818Y1106585D1*
X3687681Y1111029D1*
X3681503Y1117909D1*
X3676393Y1125614D1*
X3672460Y1133982D1*
X3669786Y1142834D1*
X3668430Y1151980D1*
X3668420Y1161226D1*
X3669757Y1170375D1*
X3672411Y1179233D1*
X3676327Y1187609D1*
X3681420Y1195326D1*
X3687583Y1202219D1*
X3692818Y1206585D1*
X3687681Y1211029D1*
X3681503Y1217909D1*
X3676393Y1225614D1*
X3672460Y1233982D1*
X3669786Y1242834D1*
X3668430Y1251980D1*
X3668420Y1261226D1*
X3669757Y1270375D1*
X3672411Y1279233D1*
X3676327Y1287609D1*
X3681420Y1295326D1*
X3687583Y1302219D1*
X3692818Y1306585D1*
X3687681Y1311029D1*
X3681503Y1317909D1*
X3676393Y1325614D1*
X3672460Y1333982D1*
X3669786Y1342834D1*
X3668430Y1351980D1*
X3668420Y1361226D1*
X3669757Y1370375D1*
X3672411Y1379233D1*
X3676327Y1387609D1*
X3681420Y1395326D1*
X3687583Y1402219D1*
X3692818Y1406585D1*
X3687681Y1411029D1*
X3681503Y1417909D1*
X3676393Y1425614D1*
X3672460Y1433982D1*
X3669786Y1442834D1*
X3668430Y1451980D1*
X3668420Y1461226D1*
X3669757Y1470375D1*
X3672411Y1479233D1*
X3676327Y1487609D1*
X3681420Y1495326D1*
X3687583Y1502219D1*
X3694684Y1508141D1*
X3702571Y1512966D1*
X3711077Y1516592D1*
X3720020Y1518940D1*
X3729210Y1519961D1*
X3738450Y1519634D1*
X3747545Y1517964D1*
X3756299Y1514988D1*
X3764527Y1510769D1*
X3772052Y1505397D1*
X3778716Y1498986D1*
X3784375Y1491674D1*
X3788909Y1483616D1*
X3792221Y1474983D1*
X3794241Y1465960D1*
X3794926Y1456671D1*
X3794261Y1447517D1*
X3792260Y1438490D1*
X3788966Y1429850D1*
X3784450Y1421782D1*
X3778807Y1414457D1*
X3772157Y1408033D1*
X3770374Y1406754D1*
X3772052Y1405397D1*
X3778716Y1398986D1*
X3784375Y1391674D1*
X3788909Y1383616D1*
X3792221Y1374983D1*
X3794241Y1365960D1*
X3794926Y1356671D1*
X3794261Y1347517D1*
X3792260Y1338490D1*
X3788966Y1329850D1*
X3784450Y1321782D1*
X3778807Y1314457D1*
X3772157Y1308033D1*
X3770374Y1306754D1*
X3772052Y1305397D1*
X3778716Y1298986D1*
X3784375Y1291674D1*
X3788909Y1283616D1*
X3792221Y1274983D1*
X3794241Y1265960D1*
X3794926Y1256671D1*
X3794261Y1247517D1*
X3792260Y1238490D1*
X3788966Y1229850D1*
X3784450Y1221782D1*
X3778807Y1214457D1*
X3772157Y1208033D1*
X3770374Y1206754D1*
X3772052Y1205397D1*
X3778716Y1198986D1*
X3784375Y1191674D1*
X3788909Y1183616D1*
X3792221Y1174983D1*
X3794241Y1165960D1*
X3794926Y1156671D1*
X3794261Y1147517D1*
X3792260Y1138490D1*
X3788966Y1129850D1*
X3784450Y1121782D1*
X3778807Y1114457D1*
X3772157Y1108033D1*
X3770374Y1106754D1*
X3772052Y1105397D1*
X3778716Y1098986D1*
X3784375Y1091674D1*
X3788909Y1083616D1*
X3792221Y1074983D1*
X3794241Y1065960D1*
X3794926Y1056671D1*
X3794261Y1047517D1*
X3792260Y1038490D1*
X3788966Y1029850D1*
X3784450Y1021782D1*
X3778807Y1014457D1*
X3772157Y1008033D1*
X3770374Y1006754D1*
X3772052Y1005397D1*
X3778716Y998986D1*
X3784375Y991674D1*
X3788909Y983616D1*
X3792221Y974983D1*
X3794241Y965960D1*
X3794926Y956671D1*
X3794261Y947517D1*
X3792260Y938490D1*
X3788966Y929850D1*
X3784450Y921782D1*
X3778807Y914457D1*
X3772157Y908033D1*
X3770374Y906754D1*
X3772052Y905397D1*
X3778716Y898986D1*
X3784375Y891674D1*
X3788909Y883616D1*
X3792221Y874983D1*
X3794241Y865960D1*
X3794926Y856671D1*
X3794261Y847517D1*
X3792260Y838490D1*
X3788966Y829850D1*
X3784450Y821782D1*
X3778807Y814457D1*
X3772157Y808033D1*
X3770374Y806754D1*
X3772052Y805397D1*
X3778716Y798986D1*
X3784375Y791674D1*
X3788909Y783616D1*
X3792221Y774983D1*
X3794241Y765960D1*
X3794926Y756671D1*
X3794261Y747517D1*
X3792260Y738490D1*
X3788966Y729850D1*
X3784450Y721782D1*
X3778807Y714457D1*
X3772157Y708033D1*
X3770374Y706754D1*
X3772052Y705397D1*
X3778716Y698986D1*
X3784375Y691674D1*
X3788909Y683616D1*
X3792221Y674983D1*
X3794241Y665960D1*
X3794926Y656671D1*
X3794261Y647517D1*
X3792260Y638490D1*
X3788966Y629850D1*
X3784450Y621782D1*
X3778807Y614457D1*
X3772157Y608033D1*
X3770374Y606754D1*
X3772052Y605397D1*
X3778716Y598986D1*
X3784375Y591674D1*
X3788909Y583616D1*
X3792221Y574983D1*
X3794241Y565960D1*
X3794926Y556671D1*
X3794261Y547517D1*
X1278306Y1892230D2*
X1275663Y1887918D1*
X1269708Y1880949D1*
X1262737Y1874998D1*
X1254921Y1870210D1*
X1246452Y1866704D1*
X1237539Y1864566D1*
X1228401Y1863848D1*
X1219263Y1864569D1*
X1210350Y1866710D1*
X1201882Y1870220D1*
X1194068Y1875010D1*
X1187099Y1880965D1*
X1181147Y1887936D1*
X1176359Y1895752D1*
X1172853Y1904221D1*
X1170715Y1913134D1*
X1169998Y1922272D1*
X1170718Y1931410D1*
X1172860Y1940323D1*
X1176369Y1948791D1*
X1181160Y1956605D1*
X1187114Y1963574D1*
X1194085Y1969526D1*
X1198383Y1972158D1*
X1194068Y1975010D1*
X1187099Y1980965D1*
X1181147Y1987936D1*
X1176359Y1995752D1*
X1172853Y2004221D1*
X1170715Y2013134D1*
X1169998Y2022272D1*
X1170718Y2031410D1*
X1172860Y2040323D1*
X1176369Y2048791D1*
X1181160Y2056605D1*
X1187114Y2063574D1*
X1194085Y2069526D1*
X1201902Y2074314D1*
X1210371Y2077820D1*
X1219284Y2079958D1*
X1228422Y2080675D1*
X1237560Y2079954D1*
X1246472Y2077813D1*
X1254940Y2074304D1*
X1262755Y2069513D1*
X1269724Y2063559D1*
X1275675Y2056588D1*
X1278308Y2052290D1*
X1281160Y2056605D1*
X1287114Y2063574D1*
X1294085Y2069526D1*
X1301902Y2074314D1*
X1310371Y2077820D1*
X1319284Y2079958D1*
X1328422Y2080675D1*
X1337560Y2079954D1*
X1346472Y2077813D1*
X1354940Y2074304D1*
X1362755Y2069513D1*
X1369724Y2063559D1*
X1375675Y2056588D1*
X1378308Y2052290D1*
X1381160Y2056605D1*
X1387114Y2063574D1*
X1394085Y2069526D1*
X1401902Y2074314D1*
X1410371Y2077820D1*
X1419284Y2079958D1*
X1428422Y2080675D1*
X1437560Y2079954D1*
X1446472Y2077813D1*
X1454940Y2074304D1*
X1462755Y2069513D1*
X1469724Y2063559D1*
X1475675Y2056588D1*
X1478308Y2052290D1*
X1481160Y2056605D1*
X1487114Y2063574D1*
X1494085Y2069526D1*
X1501902Y2074314D1*
X1510371Y2077820D1*
X1519284Y2079958D1*
X1528422Y2080675D1*
X1537560Y2079954D1*
X1546472Y2077813D1*
X1554940Y2074304D1*
X1562755Y2069513D1*
X1569724Y2063559D1*
X1575675Y2056588D1*
X1578308Y2052290D1*
X1581160Y2056605D1*
X1587114Y2063574D1*
X1594085Y2069526D1*
X1601902Y2074314D1*
X1610371Y2077820D1*
X1619284Y2079958D1*
X1628422Y2080675D1*
X1637560Y2079954D1*
X1646472Y2077813D1*
X1654940Y2074304D1*
X1662755Y2069513D1*
X1669724Y2063559D1*
X1675675Y2056588D1*
X1678308Y2052290D1*
X1681160Y2056605D1*
X1687114Y2063574D1*
X1694085Y2069526D1*
X1701902Y2074314D1*
X1710371Y2077820D1*
X1719284Y2079958D1*
X1728422Y2080675D1*
X1737560Y2079954D1*
X1746472Y2077813D1*
X1754940Y2074304D1*
X1762755Y2069513D1*
X1769724Y2063559D1*
X1775675Y2056588D1*
X1778308Y2052290D1*
X1781160Y2056605D1*
X1787114Y2063574D1*
X1794085Y2069526D1*
X1801902Y2074314D1*
X1810371Y2077820D1*
X1819284Y2079958D1*
X1828422Y2080675D1*
X1837560Y2079954D1*
X1846472Y2077813D1*
X1854940Y2074304D1*
X1862755Y2069513D1*
X1869724Y2063559D1*
X1875675Y2056588D1*
X1878308Y2052290D1*
X1881160Y2056605D1*
X1887114Y2063574D1*
X1894085Y2069526D1*
X1901902Y2074314D1*
X1910371Y2077820D1*
X1919284Y2079958D1*
X1928422Y2080675D1*
X1937560Y2079954D1*
X1946472Y2077813D1*
X1954940Y2074304D1*
X1962755Y2069513D1*
X1969724Y2063559D1*
X1975675Y2056588D1*
X1978308Y2052290D1*
X1981160Y2056605D1*
X1987114Y2063574D1*
X1994085Y2069526D1*
X2001902Y2074314D1*
X2010371Y2077820D1*
X2019284Y2079958D1*
X2028422Y2080675D1*
X2037560Y2079954D1*
X2046472Y2077813D1*
X2054940Y2074304D1*
X2062755Y2069513D1*
X2069724Y2063559D1*
X2075675Y2056588D1*
X2078308Y2052290D1*
X2081160Y2056605D1*
X2087114Y2063574D1*
X2094085Y2069526D1*
X2101902Y2074314D1*
X2110371Y2077820D1*
X2119284Y2079958D1*
X2128422Y2080675D1*
X2137560Y2079954D1*
X2146472Y2077813D1*
X2154940Y2074304D1*
X2162755Y2069513D1*
X2169724Y2063559D1*
X2175675Y2056588D1*
X2178308Y2052290D1*
X2181160Y2056605D1*
X2187114Y2063574D1*
X2194085Y2069526D1*
X2201902Y2074314D1*
X2210371Y2077820D1*
X2219284Y2079958D1*
X2228422Y2080675D1*
X2237560Y2079954D1*
X2246472Y2077813D1*
X2254940Y2074304D1*
X2262755Y2069513D1*
X2269724Y2063559D1*
X2275675Y2056588D1*
X2278308Y2052290D1*
X2281160Y2056605D1*
X2287114Y2063574D1*
X2294085Y2069526D1*
X2301902Y2074314D1*
X2310371Y2077820D1*
X2319284Y2079958D1*
X2328422Y2080675D1*
X2337560Y2079954D1*
X2346472Y2077813D1*
X2354940Y2074304D1*
X2362755Y2069513D1*
X2369724Y2063559D1*
X2375675Y2056588D1*
X2378308Y2052290D1*
X2381160Y2056605D1*
X2387114Y2063574D1*
X2394085Y2069526D1*
X2401902Y2074314D1*
X2410371Y2077820D1*
X2419284Y2079958D1*
X2428422Y2080675D1*
X2437560Y2079954D1*
X2446472Y2077813D1*
X2454940Y2074304D1*
X2462755Y2069513D1*
X2469724Y2063559D1*
X2475675Y2056588D1*
X2478308Y2052290D1*
X2481160Y2056605D1*
X2487114Y2063574D1*
X2494085Y2069526D1*
X2501902Y2074314D1*
X2510371Y2077820D1*
X2519284Y2079958D1*
X2528422Y2080675D1*
X2537560Y2079954D1*
X2546472Y2077813D1*
X2554940Y2074304D1*
X2562755Y2069513D1*
X2569724Y2063559D1*
X2575675Y2056588D1*
X2578308Y2052290D1*
X2581160Y2056605D1*
X2587114Y2063574D1*
X2594085Y2069526D1*
X2601902Y2074314D1*
X2610371Y2077820D1*
X2619284Y2079958D1*
X2628422Y2080675D1*
X2637560Y2079954D1*
X2646472Y2077813D1*
X2654940Y2074304D1*
X2662755Y2069513D1*
X2669724Y2063559D1*
X2675675Y2056588D1*
X2678308Y2052290D1*
X2681160Y2056605D1*
X2687114Y2063574D1*
X2694085Y2069526D1*
X2701902Y2074314D1*
X2710371Y2077820D1*
X2719284Y2079958D1*
X2728422Y2080675D1*
X2737560Y2079954D1*
X2746472Y2077813D1*
X2754940Y2074304D1*
X2762755Y2069513D1*
X2769724Y2063559D1*
X2775675Y2056588D1*
X2778308Y2052290D1*
X2781160Y2056605D1*
X2787114Y2063574D1*
X2794085Y2069526D1*
X2801902Y2074314D1*
X2810371Y2077820D1*
X2819284Y2079958D1*
X2828422Y2080675D1*
X2837560Y2079954D1*
X2846472Y2077813D1*
X2854940Y2074304D1*
X2862755Y2069513D1*
X2869724Y2063559D1*
X2875675Y2056588D1*
X2878308Y2052290D1*
X2881160Y2056605D1*
X2887114Y2063574D1*
X2894085Y2069526D1*
X2901902Y2074314D1*
X2910371Y2077820D1*
X2919284Y2079958D1*
X2928422Y2080675D1*
X2937560Y2079954D1*
X2946472Y2077813D1*
X2954940Y2074304D1*
X2962755Y2069513D1*
X2969724Y2063559D1*
X2975675Y2056588D1*
X2978308Y2052290D1*
X2981160Y2056605D1*
X2987114Y2063574D1*
X2994085Y2069526D1*
X3001902Y2074314D1*
X3010371Y2077820D1*
X3019284Y2079958D1*
X3028422Y2080675D1*
X3037560Y2079954D1*
X3046472Y2077813D1*
X3054940Y2074304D1*
X3062755Y2069513D1*
X3069724Y2063559D1*
X3075675Y2056588D1*
X3078308Y2052290D1*
X3081160Y2056605D1*
X3087114Y2063574D1*
X3094085Y2069526D1*
X3101902Y2074314D1*
X3110371Y2077820D1*
X3119284Y2079958D1*
X3128422Y2080675D1*
X3137560Y2079954D1*
X3146472Y2077813D1*
X3154940Y2074304D1*
X3162755Y2069513D1*
X3169724Y2063559D1*
X3175675Y2056588D1*
X3180463Y2048771D1*
X3183969Y2040302D1*
X3186107Y2031389D1*
X3186825Y2022262D1*
X3186104Y2013113D1*
X3183963Y2004201D1*
X3180453Y1995733D1*
X3175663Y1987918D1*
X3169708Y1980949D1*
X3162737Y1974998D1*
X3158440Y1972365D1*
X3162755Y1969513D1*
X3169724Y1963559D1*
X3175675Y1956588D1*
X3180463Y1948771D1*
X3183969Y1940302D1*
X3186107Y1931389D1*
X3186825Y1922262D1*
X3186104Y1913113D1*
X3183963Y1904201D1*
X3180453Y1895733D1*
X3175663Y1887918D1*
X3169708Y1880949D1*
X3162737Y1874998D1*
X3154921Y1870210D1*
X3146452Y1866704D1*
X3137539Y1864566D1*
X3128401Y1863848D1*
X3119263Y1864569D1*
X3110350Y1866710D1*
X3101882Y1870220D1*
X3094068Y1875010D1*
X3087099Y1880965D1*
X3081147Y1887936D1*
X3078515Y1892233D1*
X3075663Y1887918D1*
X3069708Y1880949D1*
X3062737Y1874998D1*
X3054921Y1870210D1*
X3046452Y1866704D1*
X3037539Y1864566D1*
X3028401Y1863848D1*
X3019263Y1864569D1*
X3010350Y1866710D1*
X3001882Y1870220D1*
X2994068Y1875010D1*
X2987099Y1880965D1*
X2981147Y1887936D1*
X2978515Y1892233D1*
X2975663Y1887918D1*
X2969708Y1880949D1*
X2962737Y1874998D1*
X2954921Y1870210D1*
X2946452Y1866704D1*
X2937539Y1864566D1*
X2928401Y1863848D1*
X2919263Y1864569D1*
X2910350Y1866710D1*
X2901882Y1870220D1*
X2894068Y1875010D1*
X2887099Y1880965D1*
X2881147Y1887936D1*
X2878515Y1892233D1*
X2875663Y1887918D1*
X2869708Y1880949D1*
X2862737Y1874998D1*
X2854921Y1870210D1*
X2846452Y1866704D1*
X2837539Y1864566D1*
X2828401Y1863848D1*
X2819263Y1864569D1*
X2810350Y1866710D1*
X2801882Y1870220D1*
X2794068Y1875010D1*
X2787099Y1880965D1*
X2781147Y1887936D1*
X2778515Y1892233D1*
X2775663Y1887918D1*
X2769708Y1880949D1*
X2762737Y1874998D1*
X2754921Y1870210D1*
X2746452Y1866704D1*
X2737539Y1864566D1*
X2728401Y1863848D1*
X2719263Y1864569D1*
X2710350Y1866710D1*
X2701882Y1870220D1*
X2694068Y1875010D1*
X2687099Y1880965D1*
X2681147Y1887936D1*
X2678515Y1892233D1*
X2675663Y1887918D1*
X2669708Y1880949D1*
X2662737Y1874998D1*
X2654921Y1870210D1*
X2646452Y1866704D1*
X2637539Y1864566D1*
X2628401Y1863848D1*
X2619263Y1864569D1*
X2610350Y1866710D1*
X2601882Y1870220D1*
X2594068Y1875010D1*
X2587099Y1880965D1*
X2581147Y1887936D1*
X2578515Y1892233D1*
X2575663Y1887918D1*
X2569708Y1880949D1*
X2562737Y1874998D1*
X2554921Y1870210D1*
X2546452Y1866704D1*
X2537539Y1864566D1*
X2528401Y1863848D1*
X2519263Y1864569D1*
X2510350Y1866710D1*
X2501882Y1870220D1*
X2494068Y1875010D1*
X2487099Y1880965D1*
X2481147Y1887936D1*
X2478515Y1892233D1*
X2475663Y1887918D1*
X2469708Y1880949D1*
X2462737Y1874998D1*
X2454921Y1870210D1*
X2450232Y1868268D1*
X2452329Y1866842D1*
X2459267Y1860659D1*
X2464818Y1853205D1*
X2468756Y1844786D1*
X2470918Y1835747D1*
X2471326Y1829636D1*
X2470411Y1820510D1*
X2467652Y1811635D1*
X2463164Y1803497D1*
X2457129Y1796429D1*
X2449795Y1790720D1*
X2441462Y1786605D1*
X2432471Y1784251D1*
X2423190Y1783755D1*
X2413999Y1785138D1*
X2405275Y1788342D1*
X2397375Y1793237D1*
X2390621Y1799622D1*
X2385291Y1807236D1*
X2381603Y1815767D1*
X2379708Y1824866D1*
X2379683Y1834160D1*
X2381529Y1843268D1*
X2385171Y1851819D1*
X2390460Y1859462D1*
X2397179Y1865883D1*
X2403123Y1869610D1*
X2398636Y1872007D1*
X2391141Y1877283D1*
X2384563Y1883668D1*
X2379066Y1891002D1*
X2378459Y1892150D1*
X2375663Y1887918D1*
X2369708Y1880949D1*
X2362737Y1874998D1*
X2354921Y1870210D1*
X2346452Y1866704D1*
X2337539Y1864566D1*
X2328401Y1863848D1*
X2319263Y1864569D1*
X2310350Y1866710D1*
X2301882Y1870220D1*
X2294068Y1875010D1*
X2287099Y1880965D1*
X2281147Y1887936D1*
X2278515Y1892233D1*
X2275663Y1887918D1*
X2269708Y1880949D1*
X2262737Y1874998D1*
X2254921Y1870210D1*
X2246452Y1866704D1*
X2237539Y1864566D1*
X2228401Y1863848D1*
X2219263Y1864569D1*
X2210350Y1866710D1*
X2201882Y1870220D1*
X2194068Y1875010D1*
X2187099Y1880965D1*
X2181147Y1887936D1*
X2178515Y1892233D1*
X2175663Y1887918D1*
X2169708Y1880949D1*
X2162737Y1874998D1*
X2154921Y1870210D1*
X2146452Y1866704D1*
X2137539Y1864566D1*
X2128401Y1863848D1*
X2119263Y1864569D1*
X2110350Y1866710D1*
X2101882Y1870220D1*
X2094068Y1875010D1*
X2087099Y1880965D1*
X2081147Y1887936D1*
X2078515Y1892233D1*
X2075663Y1887918D1*
X2069708Y1880949D1*
X2062737Y1874998D1*
X2054921Y1870210D1*
X2046452Y1866704D1*
X2044696Y1866164D1*
X2042924Y1865679D1*
X2041137Y1865251D1*
X2038555Y1864743D1*
X2040982Y1864258D1*
X2042765Y1863814D1*
X2044528Y1863300D1*
X2046270Y1862715D1*
X2047987Y1862061D1*
X2056208Y1857726D1*
X2063388Y1851824D1*
X2069233Y1844599D1*
X2073504Y1836344D1*
X2076026Y1827399D1*
X2076715Y1819472D1*
X2075799Y1810346D1*
X2073041Y1801471D1*
X2068552Y1793333D1*
X2067462Y1792056D1*
X2070848Y1793087D1*
X2080031Y1794519D1*
X2089314Y1794074D1*
X2098318Y1791768D1*
X2106673Y1787698D1*
X2114038Y1782029D1*
X2120111Y1774993D1*
X2124643Y1766879D1*
X2127449Y1758019D1*
X2128414Y1748651D1*
X2127499Y1739526D1*
X2124740Y1730651D1*
X2120252Y1722513D1*
X2114217Y1715445D1*
X2106883Y1709736D1*
X2098550Y1705620D1*
X2089559Y1703267D1*
X2080278Y1702771D1*
X2071087Y1704154D1*
X2062363Y1707358D1*
X2054463Y1712253D1*
X2047709Y1718638D1*
X2042379Y1726252D1*
X2038691Y1734783D1*
X2036796Y1743882D1*
X2036771Y1753175D1*
X2038617Y1762284D1*
X2042259Y1770835D1*
X2045901Y1776096D1*
X2037859Y1774087D1*
X2028578Y1773591D1*
X2019388Y1774974D1*
X2010664Y1778178D1*
X2002763Y1783073D1*
X1996010Y1789458D1*
X1990680Y1797072D1*
X1986992Y1805603D1*
X1985096Y1814702D1*
X1985071Y1823996D1*
X1986918Y1833104D1*
X1990560Y1841655D1*
X1995849Y1849297D1*
X2002568Y1855719D1*
X2010442Y1860656D1*
X2019148Y1863908D1*
X2020912Y1864332D1*
X2019231Y1864574D1*
X2017421Y1864891D1*
X2015623Y1865265D1*
X2013836Y1865696D1*
X2012065Y1866182D1*
X2010309Y1866724D1*
X2008572Y1867320D1*
X2000221Y1871100D1*
X1992565Y1876140D1*
X1985791Y1882316D1*
X1980067Y1889475D1*
X1978504Y1892221D1*
X1975663Y1887918D1*
X1969708Y1880949D1*
X1962737Y1874998D1*
X1954921Y1870210D1*
X1946452Y1866704D1*
X1937539Y1864566D1*
X1928401Y1863848D1*
X1919263Y1864569D1*
X1910350Y1866710D1*
X1901882Y1870220D1*
X1894068Y1875010D1*
X1887099Y1880965D1*
X1881147Y1887936D1*
X1878515Y1892233D1*
X1875663Y1887918D1*
X1869708Y1880949D1*
X1862737Y1874998D1*
X1854921Y1870210D1*
X1846452Y1866704D1*
X1837539Y1864566D1*
X1828401Y1863848D1*
X1819263Y1864569D1*
X1810350Y1866710D1*
X1801882Y1870220D1*
X1794068Y1875010D1*
X1787099Y1880965D1*
X1781147Y1887936D1*
X1778515Y1892233D1*
X1775663Y1887918D1*
X1769708Y1880949D1*
X1762737Y1874998D1*
X1754921Y1870210D1*
X1746452Y1866704D1*
X1737539Y1864566D1*
X1728401Y1863848D1*
X1719263Y1864569D1*
X1710350Y1866710D1*
X1701882Y1870220D1*
X1694068Y1875010D1*
X1687099Y1880965D1*
X1681147Y1887936D1*
X1678515Y1892233D1*
X1675663Y1887918D1*
X1669708Y1880949D1*
X1662737Y1874998D1*
X1654921Y1870210D1*
X1646452Y1866704D1*
X1637539Y1864566D1*
X1628401Y1863848D1*
X1619263Y1864569D1*
X1610350Y1866710D1*
X1601882Y1870220D1*
X1594068Y1875010D1*
X1587099Y1880965D1*
X1581147Y1887936D1*
X1578515Y1892233D1*
X1575663Y1887918D1*
X1569708Y1880949D1*
X1562737Y1874998D1*
X1554921Y1870210D1*
X1546452Y1866704D1*
X1537539Y1864566D1*
X1528401Y1863848D1*
X1519263Y1864569D1*
X1510350Y1866710D1*
X1501882Y1870220D1*
X1494068Y1875010D1*
X1487099Y1880965D1*
X1481147Y1887936D1*
X1478515Y1892233D1*
X1475663Y1887918D1*
X1469708Y1880949D1*
X1462737Y1874998D1*
X1454921Y1870210D1*
X1446452Y1866704D1*
X1437539Y1864566D1*
X1428401Y1863848D1*
X1419263Y1864569D1*
X1410350Y1866710D1*
X1401882Y1870220D1*
X1394068Y1875010D1*
X1387099Y1880965D1*
X1381147Y1887936D1*
X1378515Y1892233D1*
X1375663Y1887918D1*
X1369708Y1880949D1*
X1362737Y1874998D1*
X1354921Y1870210D1*
X1346452Y1866704D1*
X1337539Y1864566D1*
X1328401Y1863848D1*
X1319263Y1864569D1*
X1310350Y1866710D1*
X1301882Y1870220D1*
X1294068Y1875010D1*
X1287099Y1880965D1*
X1281147Y1887936D1*
X1278515Y1892233D1*
X1258443Y1972156D2*
X1262755Y1969513D1*
X1269724Y1963559D1*
X1275675Y1956588D1*
X1278308Y1952290D1*
X1281160Y1956605D1*
X1287114Y1963574D1*
X1294085Y1969526D1*
X1298383Y1972158D1*
X1294068Y1975010D1*
X1287099Y1980965D1*
X1281147Y1987936D1*
X1278515Y1992233D1*
X1275663Y1987918D1*
X1269708Y1980949D1*
X1262737Y1974998D1*
X1258440Y1972365D1*
X1358443Y1972156D2*
X1362755Y1969513D1*
X1369724Y1963559D1*
X1375675Y1956588D1*
X1378308Y1952290D1*
X1381160Y1956605D1*
X1387114Y1963574D1*
X1394085Y1969526D1*
X1398383Y1972158D1*
X1394068Y1975010D1*
X1387099Y1980965D1*
X1381147Y1987936D1*
X1378515Y1992233D1*
X1375663Y1987918D1*
X1369708Y1980949D1*
X1362737Y1974998D1*
X1358440Y1972365D1*
X1458443Y1972156D2*
X1462755Y1969513D1*
X1469724Y1963559D1*
X1475675Y1956588D1*
X1478308Y1952290D1*
X1481160Y1956605D1*
X1487114Y1963574D1*
X1494085Y1969526D1*
X1498383Y1972158D1*
X1494068Y1975010D1*
X1487099Y1980965D1*
X1481147Y1987936D1*
X1478515Y1992233D1*
X1475663Y1987918D1*
X1469708Y1980949D1*
X1462737Y1974998D1*
X1458440Y1972365D1*
X1558443Y1972156D2*
X1562755Y1969513D1*
X1569724Y1963559D1*
X1575675Y1956588D1*
X1578308Y1952290D1*
X1581160Y1956605D1*
X1587114Y1963574D1*
X1594085Y1969526D1*
X1598383Y1972158D1*
X1594068Y1975010D1*
X1587099Y1980965D1*
X1581147Y1987936D1*
X1578515Y1992233D1*
X1575663Y1987918D1*
X1569708Y1980949D1*
X1562737Y1974998D1*
X1558440Y1972365D1*
X1678306Y1992230D2*
X1675663Y1987918D1*
X1669708Y1980949D1*
X1662737Y1974998D1*
X1658440Y1972365D1*
X1662755Y1969513D1*
X1669724Y1963559D1*
X1675675Y1956588D1*
X1678308Y1952290D1*
X1681160Y1956605D1*
X1687114Y1963574D1*
X1694085Y1969526D1*
X1698383Y1972158D1*
X1694068Y1975010D1*
X1687099Y1980965D1*
X1681147Y1987936D1*
X1678515Y1992233D1*
X1778306Y1992230D2*
X1775663Y1987918D1*
X1769708Y1980949D1*
X1762737Y1974998D1*
X1758440Y1972365D1*
X1762755Y1969513D1*
X1769724Y1963559D1*
X1775675Y1956588D1*
X1778308Y1952290D1*
X1781160Y1956605D1*
X1787114Y1963574D1*
X1794085Y1969526D1*
X1798383Y1972158D1*
X1794068Y1975010D1*
X1787099Y1980965D1*
X1781147Y1987936D1*
X1778515Y1992233D1*
X1878306Y1992230D2*
X1875663Y1987918D1*
X1869708Y1980949D1*
X1862737Y1974998D1*
X1858440Y1972365D1*
X1862755Y1969513D1*
X1869724Y1963559D1*
X1875675Y1956588D1*
X1878308Y1952290D1*
X1881160Y1956605D1*
X1887114Y1963574D1*
X1894085Y1969526D1*
X1898383Y1972158D1*
X1894068Y1975010D1*
X1887099Y1980965D1*
X1881147Y1987936D1*
X1878515Y1992233D1*
X1958443Y1972156D2*
X1962755Y1969513D1*
X1969724Y1963559D1*
X1975675Y1956588D1*
X1978308Y1952290D1*
X1982290Y1958108D1*
X1988465Y1964882D1*
X1995624Y1970606D1*
X1998370Y1972169D1*
X1994068Y1975010D1*
X1987099Y1980965D1*
X1981147Y1987936D1*
X1978515Y1992233D1*
X1975663Y1987918D1*
X1969708Y1980949D1*
X1962737Y1974998D1*
X1958440Y1972365D1*
X2058478Y1972188D2*
X2064258Y1968383D1*
X2071031Y1962208D1*
X2076755Y1955049D1*
X2078318Y1952303D1*
X2081160Y1956605D1*
X2087114Y1963574D1*
X2094085Y1969526D1*
X2098383Y1972158D1*
X2094068Y1975010D1*
X2087099Y1980965D1*
X2081147Y1987936D1*
X2078515Y1992233D1*
X2075663Y1987918D1*
X2069708Y1980949D1*
X2062737Y1974998D1*
X2058440Y1972365D1*
X2158443Y1972156D2*
X2162755Y1969513D1*
X2169724Y1963559D1*
X2175675Y1956588D1*
X2178308Y1952290D1*
X2181160Y1956605D1*
X2187114Y1963574D1*
X2194085Y1969526D1*
X2198383Y1972158D1*
X2194068Y1975010D1*
X2187099Y1980965D1*
X2181147Y1987936D1*
X2178515Y1992233D1*
X2175663Y1987918D1*
X2169708Y1980949D1*
X2162737Y1974998D1*
X2158440Y1972365D1*
X2258443Y1972156D2*
X2262755Y1969513D1*
X2269724Y1963559D1*
X2275675Y1956588D1*
X2278308Y1952290D1*
X2281160Y1956605D1*
X2287114Y1963574D1*
X2294085Y1969526D1*
X2298383Y1972158D1*
X2294068Y1975010D1*
X2287099Y1980965D1*
X2281147Y1987936D1*
X2278515Y1992233D1*
X2275663Y1987918D1*
X2269708Y1980949D1*
X2262737Y1974998D1*
X2258440Y1972365D1*
X2358443Y1972156D2*
X2362755Y1969513D1*
X2369724Y1963559D1*
X2375675Y1956588D1*
X2378308Y1952290D1*
X2383433Y1959532D1*
X2389817Y1966110D1*
X2397152Y1971607D1*
X2398299Y1972214D1*
X2394068Y1975010D1*
X2387099Y1980965D1*
X2381147Y1987936D1*
X2378515Y1992233D1*
X2375663Y1987918D1*
X2369708Y1980949D1*
X2362737Y1974998D1*
X2358440Y1972365D1*
X2458575Y1972244D2*
X2465682Y1967240D1*
X2472259Y1960856D1*
X2477757Y1953521D1*
X2478363Y1952374D1*
X2481160Y1956605D1*
X2487114Y1963574D1*
X2494085Y1969526D1*
X2498383Y1972158D1*
X2494068Y1975010D1*
X2487099Y1980965D1*
X2481147Y1987936D1*
X2478515Y1992233D1*
X2475663Y1987918D1*
X2469708Y1980949D1*
X2462737Y1974998D1*
X2458440Y1972365D1*
X2558443Y1972156D2*
X2562755Y1969513D1*
X2569724Y1963559D1*
X2575675Y1956588D1*
X2578308Y1952290D1*
X2581160Y1956605D1*
X2587114Y1963574D1*
X2594085Y1969526D1*
X2598383Y1972158D1*
X2594068Y1975010D1*
X2587099Y1980965D1*
X2581147Y1987936D1*
X2578515Y1992233D1*
X2575663Y1987918D1*
X2569708Y1980949D1*
X2562737Y1974998D1*
X2558440Y1972365D1*
X2658443Y1972156D2*
X2662755Y1969513D1*
X2669724Y1963559D1*
X2675675Y1956588D1*
X2678308Y1952290D1*
X2681160Y1956605D1*
X2687114Y1963574D1*
X2694085Y1969526D1*
X2698383Y1972158D1*
X2694068Y1975010D1*
X2687099Y1980965D1*
X2681147Y1987936D1*
X2678515Y1992233D1*
X2675663Y1987918D1*
X2669708Y1980949D1*
X2662737Y1974998D1*
X2658440Y1972365D1*
X2758443Y1972156D2*
X2762755Y1969513D1*
X2769724Y1963559D1*
X2775675Y1956588D1*
X2778308Y1952290D1*
X2781160Y1956605D1*
X2787114Y1963574D1*
X2794085Y1969526D1*
X2798383Y1972158D1*
X2794068Y1975010D1*
X2787099Y1980965D1*
X2781147Y1987936D1*
X2778515Y1992233D1*
X2775663Y1987918D1*
X2769708Y1980949D1*
X2762737Y1974998D1*
X2758440Y1972365D1*
X2858443Y1972156D2*
X2862755Y1969513D1*
X2869724Y1963559D1*
X2875675Y1956588D1*
X2878308Y1952290D1*
X2881160Y1956605D1*
X2887114Y1963574D1*
X2894085Y1969526D1*
X2898383Y1972158D1*
X2894068Y1975010D1*
X2887099Y1980965D1*
X2881147Y1987936D1*
X2878515Y1992233D1*
X2875663Y1987918D1*
X2869708Y1980949D1*
X2862737Y1974998D1*
X2858440Y1972365D1*
X2958443Y1972156D2*
X2962755Y1969513D1*
X2969724Y1963559D1*
X2975675Y1956588D1*
X2978308Y1952290D1*
X2981160Y1956605D1*
X2987114Y1963574D1*
X2994085Y1969526D1*
X2998383Y1972158D1*
X2994068Y1975010D1*
X2987099Y1980965D1*
X2981147Y1987936D1*
X2978515Y1992233D1*
X2975663Y1987918D1*
X2969708Y1980949D1*
X2962737Y1974998D1*
X2958440Y1972365D1*
X3058443Y1972156D2*
X3062755Y1969513D1*
X3069724Y1963559D1*
X3075675Y1956588D1*
X3078308Y1952290D1*
X3081160Y1956605D1*
X3087114Y1963574D1*
X3094085Y1969526D1*
X3098383Y1972158D1*
X3094068Y1975010D1*
X3087099Y1980965D1*
X3081147Y1987936D1*
X3078515Y1992233D1*
X3075663Y1987918D1*
X3069708Y1980949D1*
X3062737Y1974998D1*
X3058440Y1972365D1*
X1161060Y568553D2*
X1160055Y559410D1*
X1158385Y550364D1*
X1156059Y541464D1*
X1153090Y532758D1*
X1149493Y524291D1*
X1145288Y516110D1*
X1140497Y508258D1*
X1135146Y500776D1*
X1129262Y493705D1*
X1122879Y487082D1*
X1116028Y480942D1*
X1108748Y475320D1*
X1101077Y470243D1*
X1093056Y465740D1*
X1084728Y461835D1*
X1076136Y458548D1*
X1067328Y455897D1*
X1058349Y453896D1*
X1049249Y452555D1*
X1040075Y451883D1*
X1030876Y451882D1*
X1021702Y452552D1*
X1012601Y453890D1*
X1003622Y455889D1*
X994813Y458539D1*
X986221Y461824D1*
X977892Y465727D1*
X969870Y470228D1*
X962197Y475303D1*
X954916Y480924D1*
X948064Y487062D1*
X941679Y493683D1*
X935794Y500753D1*
X930441Y508234D1*
X925648Y516085D1*
X921441Y524265D1*
X917843Y532731D1*
X914871Y541436D1*
X912544Y550336D1*
X910872Y559381D1*
X909865Y568525D1*
X909528Y577717D1*
X909863Y586910D1*
X910868Y596053D1*
X912538Y605099D1*
X914863Y613999D1*
X917832Y622705D1*
X921429Y631172D1*
X925634Y639353D1*
X930425Y647205D1*
X935777Y654687D1*
X941660Y661758D1*
X948044Y668381D1*
X954894Y674521D1*
X962174Y680143D1*
X969845Y685220D1*
X977866Y689723D1*
X986195Y693628D1*
X994786Y696915D1*
X1003595Y699566D1*
X1012573Y701567D1*
X1021673Y702908D1*
X1030847Y703580D1*
X1040046Y703581D1*
X1049220Y702911D1*
X1058321Y701573D1*
X1067300Y699574D1*
X1076109Y696924D1*
X1084701Y693639D1*
X1093030Y689736D1*
X1101053Y685235D1*
X1108725Y680160D1*
X1116006Y674539D1*
X1122858Y668401D1*
X1129243Y661780D1*
X1135128Y654710D1*
X1140481Y647229D1*
X1145274Y639378D1*
X1149481Y631198D1*
X1153080Y622732D1*
X1156051Y614027D1*
X1158379Y605127D1*
X1160050Y596082D1*
X1161057Y586938D1*
X1161394Y577731D1*
X1161060Y568553D1*
X1470099Y2492778D2*
X1469671Y2491400D1*
X1465182Y2483262D1*
X1459147Y2476194D1*
X1451813Y2470485D1*
X1443480Y2466370D1*
X1434489Y2464016D1*
X1425208Y2463520D1*
X1416018Y2464903D1*
X1407294Y2468107D1*
X1399393Y2473002D1*
X1392640Y2479387D1*
X1387310Y2487001D1*
X1383622Y2495532D1*
X1381726Y2504631D1*
X1381701Y2513925D1*
X1383548Y2523034D1*
X1387190Y2531584D1*
X1392479Y2539227D1*
X1399198Y2545648D1*
X1407072Y2550585D1*
X1415778Y2553837D1*
X1424961Y2555269D1*
X1434245Y2554823D1*
X1443248Y2552518D1*
X1451603Y2548447D1*
X1458968Y2542778D1*
X1465041Y2535742D1*
X1469573Y2527628D1*
X1470732Y2523968D1*
X1473389Y2529675D1*
X1478678Y2537317D1*
X1485397Y2543739D1*
X1493271Y2548676D1*
X1501978Y2551927D1*
X1511161Y2553359D1*
X1520444Y2552914D1*
X1529448Y2550608D1*
X1537803Y2546538D1*
X1545168Y2540869D1*
X1551240Y2533833D1*
X1554980Y2527137D1*
X1557669Y2532945D1*
X1562958Y2540588D1*
X1569677Y2547009D1*
X1577551Y2551946D1*
X1586257Y2555198D1*
X1595440Y2556630D1*
X1604724Y2556184D1*
X1613727Y2553879D1*
X1622082Y2549808D1*
X1629447Y2544139D1*
X1635520Y2537103D1*
X1640052Y2528989D1*
X1642858Y2520129D1*
X1643824Y2510762D1*
X1642908Y2501636D1*
X1640150Y2492761D1*
X1635661Y2484623D1*
X1629626Y2477555D1*
X1622292Y2471846D1*
X1613959Y2467731D1*
X1604968Y2465377D1*
X1595687Y2464881D1*
X1586497Y2466264D1*
X1577773Y2469468D1*
X1569872Y2474363D1*
X1563119Y2480748D1*
X1557789Y2488362D1*
X1556561Y2491203D1*
X1555870Y2489491D1*
X1551382Y2481353D1*
X1545347Y2474284D1*
X1538013Y2468576D1*
X1529679Y2464460D1*
X1520688Y2462107D1*
X1511408Y2461611D1*
X1502217Y2462994D1*
X1493493Y2466198D1*
X1485593Y2471093D1*
X1478839Y2477478D1*
X1473509Y2485092D1*
X1470206Y2492731D1*
X1472381Y2377583D2*
X1469072Y2371582D1*
X1463037Y2364514D1*
X1455703Y2358805D1*
X1447370Y2354690D1*
X1438379Y2352336D1*
X1429098Y2351841D1*
X1419907Y2353223D1*
X1411183Y2356428D1*
X1403283Y2361323D1*
X1396529Y2367708D1*
X1391200Y2375321D1*
X1387511Y2383852D1*
X1385616Y2392951D1*
X1385591Y2402245D1*
X1387437Y2411354D1*
X1391080Y2419904D1*
X1396368Y2427547D1*
X1403087Y2433968D1*
X1410961Y2438906D1*
X1419668Y2442157D1*
X1428851Y2443589D1*
X1438134Y2443143D1*
X1447138Y2440838D1*
X1455493Y2436767D1*
X1462858Y2431098D1*
X1468931Y2424063D1*
X1473051Y2416685D1*
X1474049Y2418604D1*
X1479338Y2426246D1*
X1486057Y2432668D1*
X1493931Y2437605D1*
X1502638Y2440856D1*
X1511821Y2442288D1*
X1521104Y2441843D1*
X1530108Y2439537D1*
X1538463Y2435467D1*
X1545828Y2429798D1*
X1551901Y2422762D1*
X1555030Y2417160D1*
X1557019Y2421214D1*
X1562308Y2428857D1*
X1569027Y2435278D1*
X1576901Y2440215D1*
X1585608Y2443467D1*
X1594791Y2444899D1*
X1604074Y2444453D1*
X1613078Y2442148D1*
X1621433Y2438077D1*
X1628798Y2432408D1*
X1634870Y2425372D1*
X1639403Y2417258D1*
X1642209Y2408398D1*
X1643174Y2399031D1*
X1642258Y2389905D1*
X1639500Y2381030D1*
X1635012Y2372892D1*
X1628977Y2365824D1*
X1621643Y2360115D1*
X1613309Y2356000D1*
X1604318Y2353646D1*
X1595038Y2353150D1*
X1585847Y2354533D1*
X1577123Y2357737D1*
X1569222Y2362632D1*
X1562469Y2369017D1*
X1557139Y2376631D1*
X1556451Y2378222D1*
X1552042Y2370282D1*
X1546007Y2363214D1*
X1538673Y2357505D1*
X1530340Y2353389D1*
X1521349Y2351036D1*
X1512068Y2350540D1*
X1502877Y2351923D1*
X1494153Y2355127D1*
X1486253Y2360022D1*
X1479499Y2366407D1*
X1474169Y2374021D1*
X1472610Y2377628D1*
X2371419Y1742846D2*
X2368660Y1733971D1*
X2364172Y1725833D1*
X2358137Y1718765D1*
X2350803Y1713056D1*
X2342469Y1708941D1*
X2333478Y1706587D1*
X2324198Y1706091D1*
X2315007Y1707474D1*
X2306283Y1710678D1*
X2298383Y1715573D1*
X2291629Y1721958D1*
X2286299Y1729572D1*
X2282611Y1738103D1*
X2280716Y1747202D1*
X2280706Y1750823D1*
X2272247Y1752163D1*
X2263523Y1755367D1*
X2255623Y1760262D1*
X2248869Y1766647D1*
X2243539Y1774261D1*
X2239851Y1782792D1*
X2237956Y1791891D1*
X2237931Y1801185D1*
X2239777Y1810293D1*
X2243419Y1818844D1*
X2248708Y1826486D1*
X2255427Y1832908D1*
X2263301Y1837845D1*
X2272008Y1841097D1*
X2281191Y1842529D1*
X2290474Y1842083D1*
X2299478Y1839777D1*
X2307833Y1835707D1*
X2315198Y1830038D1*
X2321271Y1823002D1*
X2325803Y1814888D1*
X2328609Y1806028D1*
X2329468Y1797804D1*
X2333234Y1797394D1*
X2342238Y1795088D1*
X2350593Y1791018D1*
X2357958Y1785349D1*
X2364030Y1778313D1*
X2368563Y1770199D1*
X2371369Y1761339D1*
X2372334Y1751972D1*
X2371419Y1742846D1*
X1198268Y2353104D2*
X1195831Y2344304D1*
X1191862Y2336080D1*
X1186489Y2328697D1*
X1179884Y2322393D1*
X1172259Y2317369D1*
X1163859Y2313787D1*
X1154955Y2311763D1*
X1145833Y2311361D1*
X1136785Y2312594D1*
X1128103Y2315423D1*
X1120066Y2319757D1*
X1112932Y2325456D1*
X1106930Y2332337D1*
X1102253Y2340180D1*
X1099051Y2348732D1*
X1097429Y2357718D1*
X1097436Y2366849D1*
X1099074Y2375832D1*
X1102290Y2384378D1*
X1106980Y2392213D1*
X1112993Y2399085D1*
X1120137Y2404772D1*
X1128182Y2409092D1*
X1136869Y2411907D1*
X1145918Y2413125D1*
X1155040Y2412707D1*
X1163941Y2410668D1*
X1172334Y2407072D1*
X1179951Y2402035D1*
X1186545Y2395719D1*
X1191906Y2388328D1*
X1195861Y2380097D1*
X1198283Y2371293D1*
X1199094Y2362241D1*
X1198268Y2353104D1*
X1868123Y2424845D2*
X1865365Y2415970D1*
X1860876Y2407832D1*
X1854842Y2400763D1*
X1847507Y2395055D1*
X1839174Y2390939D1*
X1830183Y2388586D1*
X1820902Y2388090D1*
X1811712Y2389473D1*
X1802988Y2392677D1*
X1795087Y2397572D1*
X1788334Y2403957D1*
X1783004Y2411571D1*
X1779316Y2420102D1*
X1777421Y2429200D1*
X1777396Y2438494D1*
X1779242Y2447603D1*
X1782884Y2456154D1*
X1788173Y2463796D1*
X1794892Y2470218D1*
X1802766Y2475155D1*
X1811473Y2478406D1*
X1820656Y2479838D1*
X1829939Y2479393D1*
X1838942Y2477087D1*
X1847298Y2473017D1*
X1854662Y2467348D1*
X1860735Y2460312D1*
X1865267Y2452198D1*
X1868074Y2443338D1*
X1869039Y2433970D1*
X1868123Y2424845D1*
X3580671Y1820510D2*
X3577912Y1811635D1*
X3573424Y1803497D1*
X3567389Y1796429D1*
X3560055Y1790720D1*
X3551721Y1786605D1*
X3542730Y1784251D1*
X3533450Y1783755D1*
X3524259Y1785138D1*
X3515535Y1788342D1*
X3507635Y1793237D1*
X3500881Y1799622D1*
X3495551Y1807236D1*
X3491863Y1815767D1*
X3489968Y1824866D1*
X3489943Y1834160D1*
X3491789Y1843268D1*
X3495431Y1851819D1*
X3500720Y1859462D1*
X3507439Y1865883D1*
X3515313Y1870820D1*
X3524020Y1874072D1*
X3533203Y1875504D1*
X3542486Y1875058D1*
X3551490Y1872753D1*
X3559845Y1868682D1*
X3567210Y1863013D1*
X3573282Y1855977D1*
X3577815Y1847863D1*
X3580621Y1839003D1*
X3581586Y1829636D1*
X3580671Y1820510D1*
X1780690Y1161211D2*
X1777932Y1152336D1*
X1773443Y1144198D1*
X1767408Y1137130D1*
X1760074Y1131421D1*
X1751741Y1127305D1*
X1742750Y1124952D1*
X1733469Y1124456D1*
X1724279Y1125839D1*
X1715555Y1129043D1*
X1707654Y1133938D1*
X1700901Y1140323D1*
X1695571Y1147937D1*
X1691883Y1156468D1*
X1689987Y1165567D1*
X1689962Y1174861D1*
X1691809Y1183969D1*
X1695451Y1192520D1*
X1700740Y1200162D1*
X1707459Y1206584D1*
X1715333Y1211521D1*
X1724040Y1214772D1*
X1733223Y1216204D1*
X1742506Y1215759D1*
X1751509Y1213453D1*
X1759865Y1209383D1*
X1767229Y1203714D1*
X1773302Y1196678D1*
X1777834Y1188564D1*
X1780640Y1179704D1*
X1781606Y1170336D1*
X1780690Y1161211D1*
X961018Y2391745D2*
X958260Y2382870D1*
X953771Y2374732D1*
X947737Y2367664D1*
X940402Y2361955D1*
X932069Y2357840D1*
X923078Y2355486D1*
X913797Y2354990D1*
X904607Y2356373D1*
X895883Y2359577D1*
X887982Y2364472D1*
X881229Y2370857D1*
X875899Y2378471D1*
X872211Y2387002D1*
X870316Y2396101D1*
X870291Y2405395D1*
X872137Y2414503D1*
X875779Y2423054D1*
X881068Y2430696D1*
X887787Y2437118D1*
X895661Y2442055D1*
X904368Y2445306D1*
X913551Y2446739D1*
X922834Y2446293D1*
X931837Y2443987D1*
X940193Y2439917D1*
X947557Y2434248D1*
X953630Y2427212D1*
X958162Y2419098D1*
X960969Y2410238D1*
X961934Y2400871D1*
X961018Y2391745D1*
X2020190Y1261298D2*
X2017432Y1252423D1*
X2012943Y1244284D1*
X2006908Y1237216D1*
X1999574Y1231508D1*
X1991241Y1227392D1*
X1982250Y1225038D1*
X1972969Y1224543D1*
X1963779Y1225925D1*
X1955055Y1229130D1*
X1947154Y1234025D1*
X1940401Y1240410D1*
X1935071Y1248024D1*
X1931383Y1256554D1*
X1929487Y1265653D1*
X1929462Y1274947D1*
X1931309Y1284056D1*
X1934951Y1292607D1*
X1940240Y1300249D1*
X1946959Y1306670D1*
X1954833Y1311608D1*
X1963540Y1314859D1*
X1972723Y1316291D1*
X1982006Y1315845D1*
X1991009Y1313540D1*
X1999365Y1309469D1*
X2006729Y1303800D1*
X2012802Y1296765D1*
X2017334Y1288651D1*
X2020140Y1279790D1*
X2021106Y1270423D1*
X2020190Y1261298D1*
X3096438Y1657386D2*
X3093680Y1648511D1*
X3089191Y1640372D1*
X3083156Y1633304D1*
X3075822Y1627595D1*
X3067489Y1623480D1*
X3058498Y1621126D1*
X3049217Y1620631D1*
X3040027Y1622013D1*
X3031303Y1625218D1*
X3023402Y1630113D1*
X3016649Y1636498D1*
X3011319Y1644112D1*
X3007631Y1652642D1*
X3005735Y1661741D1*
X3005710Y1671035D1*
X3007557Y1680144D1*
X3011199Y1688694D1*
X3016488Y1696337D1*
X3023207Y1702758D1*
X3031081Y1707696D1*
X3039788Y1710947D1*
X3048971Y1712379D1*
X3058254Y1711933D1*
X3067257Y1709628D1*
X3075613Y1705557D1*
X3082977Y1699888D1*
X3089050Y1692853D1*
X3093582Y1684739D1*
X3096389Y1675878D1*
X3097354Y1666511D1*
X3096438Y1657386D1*
X3302875Y2320365D2*
X3294178Y2321673D1*
X3285454Y2324878D1*
X3277553Y2329773D1*
X3270800Y2336158D1*
X3265470Y2343772D1*
X3261782Y2352303D1*
X3259886Y2361401D1*
X3259861Y2370695D1*
X3261708Y2379804D1*
X3265350Y2388355D1*
X3270639Y2395997D1*
X3277358Y2402418D1*
X3285232Y2407356D1*
X3293938Y2410607D1*
X3303122Y2412039D1*
X3312405Y2411593D1*
X3321408Y2409288D1*
X3329764Y2405217D1*
X3337128Y2399548D1*
X3343201Y2392513D1*
X3347733Y2384399D1*
X3350539Y2375538D1*
X3351505Y2366171D1*
X3350781Y2358962D1*
X3355054Y2358513D1*
X3364058Y2356208D1*
X3372413Y2352137D1*
X3379778Y2346468D1*
X3385851Y2339433D1*
X3390383Y2331319D1*
X3393189Y2322458D1*
X3394154Y2313091D1*
X3393239Y2303966D1*
X3390480Y2295091D1*
X3385992Y2286952D1*
X3379957Y2279884D1*
X3372623Y2274176D1*
X3364290Y2270060D1*
X3355299Y2267706D1*
X3346018Y2267211D1*
X3336827Y2268593D1*
X3328103Y2271798D1*
X3320203Y2276693D1*
X3313449Y2283078D1*
X3308119Y2290692D1*
X3304431Y2299222D1*
X3302536Y2308321D1*
X3302511Y2317615D1*
X3303057Y2320310D1*
X1520190Y1300798D2*
X1517432Y1291923D1*
X1512943Y1283784D1*
X1506908Y1276716D1*
X1499574Y1271008D1*
X1491241Y1266892D1*
X1482250Y1264538D1*
X1472969Y1264043D1*
X1463779Y1265425D1*
X1455055Y1268630D1*
X1447154Y1273525D1*
X1440401Y1279910D1*
X1435071Y1287524D1*
X1431383Y1296054D1*
X1429487Y1305153D1*
X1429462Y1314447D1*
X1431309Y1323556D1*
X1434951Y1332107D1*
X1440240Y1339749D1*
X1446959Y1346170D1*
X1454833Y1351108D1*
X1463540Y1354359D1*
X1472723Y1355791D1*
X1482006Y1355345D1*
X1491009Y1353040D1*
X1499365Y1348969D1*
X1506729Y1343300D1*
X1512802Y1336265D1*
X1517334Y1328151D1*
X1520140Y1319290D1*
X1521106Y1309923D1*
X1520190Y1300798D1*
X791349Y2307365D2*
X788591Y2298490D1*
X784102Y2290351D1*
X778067Y2283283D1*
X770733Y2277574D1*
X762400Y2273459D1*
X753409Y2271105D1*
X744128Y2270610D1*
X734938Y2271992D1*
X726213Y2275197D1*
X718313Y2280092D1*
X711560Y2286477D1*
X706230Y2294091D1*
X702542Y2302621D1*
X700646Y2311720D1*
X700621Y2321014D1*
X702468Y2330123D1*
X706110Y2338673D1*
X711399Y2346316D1*
X718118Y2352737D1*
X725992Y2357675D1*
X734698Y2360926D1*
X743881Y2362358D1*
X753165Y2361912D1*
X762168Y2359607D1*
X770523Y2355536D1*
X777888Y2349867D1*
X783961Y2342832D1*
X788493Y2334718D1*
X791299Y2325857D1*
X792265Y2316490D1*
X791349Y2307365D1*
X1167702Y1831444D2*
X1171754Y1835830D1*
X1173307Y1841589D1*
X1172014Y1847413D1*
X1168169Y1851975D1*
X1162648Y1854235D1*
X976761Y1881869D1*
X965459Y1883306D1*
X686717Y1869644D1*
X459244Y1872224D1*
X456109Y2892483D1*
X727978Y2890372D1*
X933252Y2845044D1*
X936420Y2603896D1*
X936621Y2593353D1*
X938688Y2587757D1*
X943114Y2583756D1*
X948890Y2582263D1*
X1594826Y2574416D1*
X2191756Y2559652D1*
X2202882Y2559526D1*
X2208442Y2561689D1*
X2212366Y2566183D1*
X2213760Y2571984D1*
X2213060Y2710249D1*
X2304930Y2712690D1*
X2303550Y2705885D1*
X2303575Y2696591D1*
X2305471Y2687493D1*
X2309159Y2678962D1*
X2314137Y2671757D1*
X2313698Y2671337D1*
X2308409Y2663694D1*
X2304767Y2655144D1*
X2302920Y2646035D1*
X2302945Y2636741D1*
X2304841Y2627642D1*
X2308529Y2619112D1*
X2313859Y2611498D1*
X2320612Y2605113D1*
X2328513Y2600218D1*
X2337237Y2597013D1*
X2346427Y2595631D1*
X2355708Y2596126D1*
X2364699Y2598480D1*
X2373032Y2602595D1*
X2380366Y2608304D1*
X2386401Y2615372D1*
X2390890Y2623511D1*
X2393648Y2632386D1*
X2394564Y2641635D1*
X2393598Y2650878D1*
X2390792Y2659739D1*
X2386260Y2667853D1*
X2383643Y2671254D1*
X2387031Y2675223D1*
X2391520Y2683361D1*
X2394278Y2692236D1*
X2395194Y2701485D1*
X2394228Y2710729D1*
X2393117Y2715028D1*
X2437133Y2716194D1*
X2442010Y2709227D1*
X2448763Y2702842D1*
X2456664Y2697947D1*
X2465388Y2694743D1*
X2474578Y2693360D1*
X2483859Y2693856D1*
X2492850Y2696210D1*
X2501183Y2700325D1*
X2508517Y2706034D1*
X2514552Y2713102D1*
X2518512Y2720031D1*
X2740982Y2750629D1*
X2742162Y2749513D1*
X2744551Y2747794D1*
X2743607Y2747089D1*
X2736888Y2740668D1*
X2731599Y2733025D1*
X2727957Y2724475D1*
X2726111Y2715366D1*
X2726136Y2706072D1*
X2728031Y2696973D1*
X2731719Y2688442D1*
X2737049Y2680828D1*
X2743802Y2674443D1*
X2751703Y2669548D1*
X2760427Y2666344D1*
X2769618Y2664961D1*
X2778898Y2665457D1*
X2787889Y2667811D1*
X2792519Y2669841D1*
X2794082Y2668363D1*
X2801983Y2663468D1*
X2810707Y2660264D1*
X2819897Y2658881D1*
X2829178Y2659377D1*
X2838169Y2661731D1*
X2846502Y2665846D1*
X2853836Y2671555D1*
X2859871Y2678623D1*
X2862333Y2682588D1*
X2870744Y2681194D1*
X2879982Y2681204D1*
X2889092Y2682735D1*
X2897826Y2685744D1*
X2905946Y2690150D1*
X2913229Y2695832D1*
X2919478Y2702635D1*
X2924522Y2710375D1*
X2928224Y2718839D1*
X2930482Y2727796D1*
X2931234Y2737004D1*
X2930461Y2746209D1*
X2928184Y2755162D1*
X2924463Y2763617D1*
X2919402Y2771345D1*
X2916506Y2774775D1*
X3235324Y2818629D1*
X3687229Y2865338D1*
X3684249Y2862006D1*
X3679156Y2854289D1*
X3675240Y2845912D1*
X3672586Y2837055D1*
X3671250Y2827906D1*
X3671260Y2818660D1*
X3672616Y2809513D1*
X3675289Y2800662D1*
X3679223Y2792294D1*
X3684333Y2784588D1*
X3690510Y2777709D1*
X3695648Y2773265D1*
X3690412Y2768899D1*
X3684249Y2762006D1*
X3679156Y2754289D1*
X3675240Y2745912D1*
X3672586Y2737055D1*
X3671250Y2727906D1*
X3671260Y2718660D1*
X3672616Y2709513D1*
X3675289Y2700662D1*
X3679223Y2692294D1*
X3684333Y2684588D1*
X3690510Y2677709D1*
X3697624Y2671802D1*
X3705522Y2666993D1*
X3714035Y2663386D1*
X3722984Y2661057D1*
X3732175Y2660056D1*
X3741415Y2660403D1*
X3750506Y2662093D1*
X3759254Y2665088D1*
X3767472Y2669324D1*
X3774986Y2674712D1*
X3781636Y2681137D1*
X3787279Y2688462D1*
X3791796Y2696530D1*
X3795090Y2705169D1*
X3797090Y2714197D1*
X3797755Y2723419D1*
X3797070Y2732640D1*
X3795050Y2741663D1*
X3791738Y2750296D1*
X3787204Y2758354D1*
X3781545Y2765666D1*
X3774882Y2772077D1*
X3773199Y2773278D1*
X3773203Y2773434D1*
X3774986Y2774712D1*
X3781636Y2781137D1*
X3787279Y2788462D1*
X3791796Y2796530D1*
X3795090Y2805169D1*
X3797090Y2814197D1*
X3797755Y2823419D1*
X3797070Y2832640D1*
X3795050Y2841663D1*
X3791738Y2850296D1*
X3787204Y2858354D1*
X3781545Y2865666D1*
X3774882Y2872077D1*
X3772052Y2874096D1*
X3817469Y2878802D1*
X3818922Y477772D1*
X3388013Y472632D1*
X3394538Y476949D1*
X3401818Y482572D1*
X3408669Y488712D1*
X3415052Y495334D1*
X3420936Y502406D1*
X3426287Y509887D1*
X3431078Y517740D1*
X3435283Y525921D1*
X3438880Y534388D1*
X3441849Y543094D1*
X3444175Y551994D1*
X3445845Y561040D1*
X3446850Y570183D1*
X3447185Y579376D1*
X3446848Y588568D1*
X3445840Y597712D1*
X3444169Y606757D1*
X3441841Y615656D1*
X3438870Y624362D1*
X3435271Y632828D1*
X3431064Y641008D1*
X3426271Y648859D1*
X3420918Y656340D1*
X3415033Y663410D1*
X3408648Y670031D1*
X3401796Y676169D1*
X3394515Y681790D1*
X3386843Y686865D1*
X3378820Y691366D1*
X3370491Y695269D1*
X3361899Y698554D1*
X3353090Y701203D1*
X3344111Y703203D1*
X3335010Y704541D1*
X3325836Y705211D1*
X3316637Y705210D1*
X3307463Y704538D1*
X3298363Y703197D1*
X3289385Y701196D1*
X3280576Y698545D1*
X3271985Y695258D1*
X3263656Y691353D1*
X3255635Y686850D1*
X3247964Y681773D1*
X3240684Y676151D1*
X3233834Y670011D1*
X3227450Y663388D1*
X3221567Y656317D1*
X3216215Y648835D1*
X3211424Y640983D1*
X3207219Y632802D1*
X3203622Y624335D1*
X3200653Y615629D1*
X3198328Y606729D1*
X3196658Y597683D1*
X3195653Y588540D1*
X3195318Y579347D1*
X3195655Y570155D1*
X3196662Y561011D1*
X3198334Y551966D1*
X3200661Y543066D1*
X3203633Y534361D1*
X3207231Y525895D1*
X3211438Y517715D1*
X3216231Y509863D1*
X3221584Y502383D1*
X3227469Y495313D1*
X3233854Y488692D1*
X3240706Y482554D1*
X3247987Y476933D1*
X3255660Y471858D1*
X3256979Y471069D1*
X458310Y437675D1*
X461994Y962801D1*
X747292Y1117372D1*
X749924Y1109533D1*
X754248Y1101329D1*
X759832Y1093924D1*
X766531Y1087511D1*
X774273Y1082196D1*
X774003Y1082067D1*
X766380Y1076786D1*
X759702Y1070351D1*
X754144Y1062927D1*
X749848Y1054708D1*
X746926Y1045907D1*
X745454Y1036750D1*
X745469Y1027476D1*
X746973Y1018325D1*
X749924Y1009533D1*
X754248Y1001329D1*
X759832Y993924D1*
X766531Y987511D1*
X774172Y982256D1*
X782558Y978294D1*
X791470Y975729D1*
X800678Y974627D1*
X809944Y975016D1*
X819027Y976887D1*
X827693Y980190D1*
X835717Y984841D1*
X842890Y990718D1*
X849028Y997670D1*
X853972Y1005517D1*
X857592Y1014055D1*
X859796Y1023063D1*
X860527Y1032308D1*
X859765Y1041551D1*
X857530Y1050551D1*
X853881Y1059077D1*
X848911Y1066907D1*
X842749Y1073838D1*
X835556Y1079691D1*
X831368Y1082320D1*
X835717Y1084841D1*
X842890Y1090718D1*
X849028Y1097670D1*
X853972Y1105517D1*
X857592Y1114055D1*
X859796Y1123063D1*
X860527Y1132308D1*
X859765Y1141551D1*
X857530Y1150551D1*
X853881Y1159077D1*
X848911Y1166907D1*
X845771Y1170713D1*
X1162065Y1342067D1*
X1166470Y1346091D1*
X1168508Y1351697D1*
X1167716Y1357610D1*
X1137477Y1434629D1*
X1143248Y1433760D1*
X1152528Y1434256D1*
X1161519Y1436610D1*
X1169853Y1440725D1*
X1175676Y1445058D1*
X1174899Y1440583D1*
X1174881Y1431517D1*
X1176394Y1422578D1*
X1179397Y1414024D1*
X1183803Y1406100D1*
X1189484Y1399034D1*
X1196277Y1393030D1*
X1203988Y1388261D1*
X1212394Y1384864D1*
X1221252Y1382935D1*
X1230310Y1382532D1*
X1239305Y1383665D1*
X1247979Y1386302D1*
X1256083Y1390368D1*
X1263383Y1395744D1*
X1269670Y1402276D1*
X1274762Y1409777D1*
X1278245Y1417307D1*
X1279397Y1414024D1*
X1283803Y1406100D1*
X1289484Y1399034D1*
X1296277Y1393030D1*
X1303988Y1388261D1*
X1312394Y1384864D1*
X1321252Y1382935D1*
X1330310Y1382532D1*
X1339305Y1383665D1*
X1347979Y1386302D1*
X1356083Y1390368D1*
X1363383Y1395744D1*
X1369670Y1402276D1*
X1374762Y1409777D1*
X1378245Y1417307D1*
X1379397Y1414024D1*
X1383803Y1406100D1*
X1389484Y1399034D1*
X1396277Y1393030D1*
X1403988Y1388261D1*
X1412394Y1384864D1*
X1421252Y1382935D1*
X1430310Y1382532D1*
X1439305Y1383665D1*
X1447979Y1386302D1*
X1456083Y1390368D1*
X1463383Y1395744D1*
X1469670Y1402276D1*
X1474762Y1409777D1*
X1478245Y1417307D1*
X1479397Y1414024D1*
X1483803Y1406100D1*
X1489484Y1399034D1*
X1496277Y1393030D1*
X1503988Y1388261D1*
X1512394Y1384864D1*
X1521252Y1382935D1*
X1530310Y1382532D1*
X1539305Y1383665D1*
X1547979Y1386302D1*
X1556083Y1390368D1*
X1563383Y1395744D1*
X1569670Y1402276D1*
X1574762Y1409777D1*
X1578245Y1417307D1*
X1579397Y1414024D1*
X1583803Y1406100D1*
X1589484Y1399034D1*
X1596277Y1393030D1*
X1603988Y1388261D1*
X1612394Y1384864D1*
X1621252Y1382935D1*
X1630310Y1382532D1*
X1639305Y1383665D1*
X1647979Y1386302D1*
X1656083Y1390368D1*
X1663383Y1395744D1*
X1669670Y1402276D1*
X1674762Y1409777D1*
X1678245Y1417307D1*
X1679397Y1414024D1*
X1683803Y1406100D1*
X1689484Y1399034D1*
X1696277Y1393030D1*
X1703988Y1388261D1*
X1712394Y1384864D1*
X1721252Y1382935D1*
X1730310Y1382532D1*
X1739305Y1383665D1*
X1747979Y1386302D1*
X1756083Y1390368D1*
X1763383Y1395744D1*
X1769670Y1402276D1*
X1774762Y1409777D1*
X1778245Y1417307D1*
X1779397Y1414024D1*
X1783803Y1406100D1*
X1789484Y1399034D1*
X1796277Y1393030D1*
X1803988Y1388261D1*
X1812394Y1384864D1*
X1821252Y1382935D1*
X1830310Y1382532D1*
X1839305Y1383665D1*
X1847979Y1386302D1*
X1856083Y1390368D1*
X1863383Y1395744D1*
X1869670Y1402276D1*
X1874762Y1409777D1*
X1878245Y1417307D1*
X1879397Y1414024D1*
X1883803Y1406100D1*
X1889484Y1399034D1*
X1896277Y1393030D1*
X1903988Y1388261D1*
X1912394Y1384864D1*
X1921252Y1382935D1*
X1930310Y1382532D1*
X1939305Y1383665D1*
X1947979Y1386302D1*
X1956083Y1390368D1*
X1963383Y1395744D1*
X1969670Y1402276D1*
X1974762Y1409777D1*
X1978245Y1417307D1*
X1979397Y1414024D1*
X1983803Y1406100D1*
X1989484Y1399034D1*
X1996277Y1393030D1*
X2003988Y1388261D1*
X2012394Y1384864D1*
X2021252Y1382935D1*
X2030310Y1382532D1*
X2039305Y1383665D1*
X2047979Y1386302D1*
X2056083Y1390368D1*
X2063383Y1395744D1*
X2069670Y1402276D1*
X2074762Y1409777D1*
X2078245Y1417307D1*
X2079397Y1414024D1*
X2083803Y1406100D1*
X2089484Y1399034D1*
X2096277Y1393030D1*
X2103988Y1388261D1*
X2112394Y1384864D1*
X2121252Y1382935D1*
X2130310Y1382532D1*
X2139305Y1383665D1*
X2147979Y1386302D1*
X2156083Y1390368D1*
X2163383Y1395744D1*
X2169670Y1402276D1*
X2174762Y1409777D1*
X2178245Y1417307D1*
X2179397Y1414024D1*
X2183803Y1406100D1*
X2189484Y1399034D1*
X2196277Y1393030D1*
X2203988Y1388261D1*
X2212394Y1384864D1*
X2221252Y1382935D1*
X2230310Y1382532D1*
X2239305Y1383665D1*
X2247979Y1386302D1*
X2256083Y1390368D1*
X2263383Y1395744D1*
X2269670Y1402276D1*
X2274762Y1409777D1*
X2278245Y1417307D1*
X2279397Y1414024D1*
X2283803Y1406100D1*
X2289484Y1399034D1*
X2296277Y1393030D1*
X2303988Y1388261D1*
X2312394Y1384864D1*
X2321252Y1382935D1*
X2330310Y1382532D1*
X2339305Y1383665D1*
X2347979Y1386302D1*
X2356083Y1390368D1*
X2363383Y1395744D1*
X2369670Y1402276D1*
X2374762Y1409777D1*
X2378245Y1417307D1*
X2379397Y1414024D1*
X2383803Y1406100D1*
X2389484Y1399034D1*
X2396277Y1393030D1*
X2403988Y1388261D1*
X2412394Y1384864D1*
X2421252Y1382935D1*
X2430310Y1382532D1*
X2439305Y1383665D1*
X2447979Y1386302D1*
X2456083Y1390368D1*
X2463383Y1395744D1*
X2469670Y1402276D1*
X2474762Y1409777D1*
X2478245Y1417307D1*
X2479397Y1414024D1*
X2483803Y1406100D1*
X2489484Y1399034D1*
X2496277Y1393030D1*
X2503988Y1388261D1*
X2512394Y1384864D1*
X2521252Y1382935D1*
X2530310Y1382532D1*
X2539305Y1383665D1*
X2547979Y1386302D1*
X2556083Y1390368D1*
X2563383Y1395744D1*
X2569670Y1402276D1*
X2574762Y1409777D1*
X2578245Y1417307D1*
X2579397Y1414024D1*
X2583803Y1406100D1*
X2589484Y1399034D1*
X2596277Y1393030D1*
X2603988Y1388261D1*
X2612394Y1384864D1*
X2621252Y1382935D1*
X2630310Y1382532D1*
X2639305Y1383665D1*
X2647979Y1386302D1*
X2656083Y1390368D1*
X2663383Y1395744D1*
X2669670Y1402276D1*
X2674762Y1409777D1*
X2678245Y1417307D1*
X2679397Y1414024D1*
X2683803Y1406100D1*
X2689484Y1399034D1*
X2696277Y1393030D1*
X2703988Y1388261D1*
X2712394Y1384864D1*
X2721252Y1382935D1*
X2730310Y1382532D1*
X2739305Y1383665D1*
X2747979Y1386302D1*
X2756083Y1390368D1*
X2763383Y1395744D1*
X2769670Y1402276D1*
X2774762Y1409777D1*
X2778245Y1417307D1*
X2779397Y1414024D1*
X2783803Y1406100D1*
X2789484Y1399034D1*
X2796277Y1393030D1*
X2803988Y1388261D1*
X2812394Y1384864D1*
X2821252Y1382935D1*
X2830310Y1382532D1*
X2839305Y1383665D1*
X2847979Y1386302D1*
X2856083Y1390368D1*
X2863383Y1395744D1*
X2869670Y1402276D1*
X2874762Y1409777D1*
X2878245Y1417307D1*
X2879397Y1414024D1*
X2883803Y1406100D1*
X2889484Y1399034D1*
X2896277Y1393030D1*
X2903988Y1388261D1*
X2912394Y1384864D1*
X2921252Y1382935D1*
X2930310Y1382532D1*
X2939305Y1383665D1*
X2947979Y1386302D1*
X2956083Y1390368D1*
X2963383Y1395744D1*
X2969670Y1402276D1*
X2974762Y1409777D1*
X2978180Y1417113D1*
X2981695Y1409500D1*
X2986832Y1402030D1*
X2993157Y1395535D1*
X3000489Y1390202D1*
X3008176Y1386362D1*
X3003548Y1384496D1*
X2995686Y1379642D1*
X2988757Y1373529D1*
X2982961Y1366333D1*
X2978464Y1358261D1*
X2975397Y1349545D1*
X2973846Y1340437D1*
X2973857Y1331197D1*
X2975429Y1322092D1*
X2978518Y1313383D1*
X2983034Y1305322D1*
X2988847Y1298140D1*
X2995790Y1292044D1*
X3003664Y1287208D1*
X3012242Y1283773D1*
X3021276Y1281838D1*
X3030508Y1281456D1*
X3039672Y1282641D1*
X3048504Y1285357D1*
X3056749Y1289527D1*
X3064172Y1295030D1*
X3070557Y1301708D1*
X3075722Y1309370D1*
X3078177Y1314344D1*
X3078518Y1313383D1*
X3083034Y1305322D1*
X3088847Y1298140D1*
X3095790Y1292044D1*
X3103664Y1287208D1*
X3112242Y1283773D1*
X3121276Y1281838D1*
X3130508Y1281456D1*
X3139672Y1282641D1*
X3148504Y1285357D1*
X3156749Y1289527D1*
X3164172Y1295030D1*
X3170557Y1301708D1*
X3175722Y1309370D1*
X3179518Y1317794D1*
X3181836Y1326738D1*
X3182608Y1335881D1*
X3182566Y1338041D1*
X3181418Y1347209D1*
X3178737Y1356052D1*
X3174600Y1364314D1*
X3169126Y1371758D1*
X3162473Y1378170D1*
X3154833Y1383366D1*
X3148319Y1386473D1*
X3156083Y1390368D1*
X3163383Y1395744D1*
X3169670Y1402276D1*
X3174762Y1409777D1*
X3178513Y1418031D1*
X3180816Y1426800D1*
X3181603Y1435941D1*
X3181373Y1440900D1*
X3179769Y1449824D1*
X3176680Y1458348D1*
X3172196Y1466227D1*
X3166444Y1473235D1*
X3159591Y1479170D1*
X3151833Y1483862D1*
X3146937Y1485986D1*
X3147979Y1486302D1*
X3156083Y1490368D1*
X3163383Y1495744D1*
X3169670Y1502276D1*
X3174762Y1509777D1*
X3178513Y1518031D1*
X3180816Y1526800D1*
X3181603Y1535941D1*
X3180853Y1544867D1*
X3178586Y1553646D1*
X3174869Y1561915D1*
X3169807Y1569437D1*
X3163547Y1575995D1*
X3156269Y1581401D1*
X3148182Y1585499D1*
X3139518Y1588172D1*
X3130528Y1589342D1*
X3121469Y1588975D1*
X3112602Y1587083D1*
X3104183Y1583720D1*
X3096453Y1578982D1*
X3089635Y1573006D1*
X3083925Y1565964D1*
X3079487Y1558058D1*
X3078103Y1554720D1*
X3074869Y1561915D1*
X3069807Y1569437D1*
X3063547Y1575995D1*
X3056269Y1581401D1*
X3048182Y1585499D1*
X3039518Y1588172D1*
X3030528Y1589342D1*
X3021469Y1588975D1*
X3012602Y1587083D1*
X3004183Y1583720D1*
X2996453Y1578982D1*
X2989635Y1573006D1*
X2983925Y1565964D1*
X2979487Y1558058D1*
X2978103Y1554720D1*
X2974869Y1561915D1*
X2969807Y1569437D1*
X2963547Y1575995D1*
X2956269Y1581401D1*
X2948182Y1585499D1*
X2939518Y1588172D1*
X2930528Y1589342D1*
X2921469Y1588975D1*
X2920505Y1588836D1*
X2920140Y1592330D1*
X2917334Y1601190D1*
X2912802Y1609304D1*
X2906729Y1616340D1*
X2899365Y1622009D1*
X2891009Y1626079D1*
X2882006Y1628385D1*
X2872723Y1628830D1*
X2863540Y1627398D1*
X2854833Y1624147D1*
X2846959Y1619210D1*
X2840240Y1612788D1*
X2834951Y1605146D1*
X2831309Y1596595D1*
X2829687Y1589308D1*
X2821469Y1588975D1*
X2812602Y1587083D1*
X2804183Y1583720D1*
X2796453Y1578982D1*
X2789635Y1573006D1*
X2783925Y1565964D1*
X2779487Y1558058D1*
X2778103Y1554720D1*
X2774869Y1561915D1*
X2769807Y1569437D1*
X2763547Y1575995D1*
X2756269Y1581401D1*
X2748182Y1585499D1*
X2739518Y1588172D1*
X2730528Y1589342D1*
X2721469Y1588975D1*
X2712602Y1587083D1*
X2704183Y1583720D1*
X2696453Y1578982D1*
X2689635Y1573006D1*
X2683925Y1565964D1*
X2679487Y1558058D1*
X2678103Y1554720D1*
X2674869Y1561915D1*
X2669807Y1569437D1*
X2663547Y1575995D1*
X2656269Y1581401D1*
X2648182Y1585499D1*
X2639518Y1588172D1*
X2630528Y1589342D1*
X2621469Y1588975D1*
X2612602Y1587083D1*
X2604183Y1583720D1*
X2596453Y1578982D1*
X2589635Y1573006D1*
X2583925Y1565964D1*
X2579487Y1558058D1*
X2578103Y1554720D1*
X2574869Y1561915D1*
X2569807Y1569437D1*
X2563547Y1575995D1*
X2556269Y1581401D1*
X2548182Y1585499D1*
X2539518Y1588172D1*
X2530528Y1589342D1*
X2521469Y1588975D1*
X2512602Y1587083D1*
X2504183Y1583720D1*
X2496453Y1578982D1*
X2489635Y1573006D1*
X2483925Y1565964D1*
X2479487Y1558058D1*
X2478103Y1554720D1*
X2474869Y1561915D1*
X2469807Y1569437D1*
X2463547Y1575995D1*
X2456269Y1581401D1*
X2448182Y1585499D1*
X2439518Y1588172D1*
X2430528Y1589342D1*
X2421469Y1588975D1*
X2412602Y1587083D1*
X2404183Y1583720D1*
X2396453Y1578982D1*
X2389635Y1573006D1*
X2383925Y1565964D1*
X2379487Y1558058D1*
X2378103Y1554720D1*
X2374869Y1561915D1*
X2369807Y1569437D1*
X2363547Y1575995D1*
X2356269Y1581401D1*
X2348182Y1585499D1*
X2339518Y1588172D1*
X2330528Y1589342D1*
X2321469Y1588975D1*
X2312602Y1587083D1*
X2304183Y1583720D1*
X2296453Y1578982D1*
X2289635Y1573006D1*
X2283925Y1565964D1*
X2279487Y1558058D1*
X2278103Y1554720D1*
X2274869Y1561915D1*
X2269807Y1569437D1*
X2263547Y1575995D1*
X2256269Y1581401D1*
X2248182Y1585499D1*
X2239518Y1588172D1*
X2230528Y1589342D1*
X2221469Y1588975D1*
X2212602Y1587083D1*
X2204183Y1583720D1*
X2196453Y1578982D1*
X2189635Y1573006D1*
X2183925Y1565964D1*
X2179487Y1558058D1*
X2178103Y1554720D1*
X2174869Y1561915D1*
X2169807Y1569437D1*
X2163547Y1575995D1*
X2156269Y1581401D1*
X2148182Y1585499D1*
X2139518Y1588172D1*
X2130528Y1589342D1*
X2121469Y1588975D1*
X2112602Y1587083D1*
X2104183Y1583720D1*
X2096453Y1578982D1*
X2089635Y1573006D1*
X2083925Y1565964D1*
X2079487Y1558058D1*
X2078103Y1554720D1*
X2074869Y1561915D1*
X2069807Y1569437D1*
X2063547Y1575995D1*
X2056269Y1581401D1*
X2048182Y1585499D1*
X2039518Y1588172D1*
X2030528Y1589342D1*
X2021469Y1588975D1*
X2012602Y1587083D1*
X2004183Y1583720D1*
X1996453Y1578982D1*
X1989635Y1573006D1*
X1983925Y1565964D1*
X1979487Y1558058D1*
X1978103Y1554720D1*
X1974869Y1561915D1*
X1969807Y1569437D1*
X1963547Y1575995D1*
X1956269Y1581401D1*
X1948182Y1585499D1*
X1939518Y1588172D1*
X1930528Y1589342D1*
X1921469Y1588975D1*
X1912602Y1587083D1*
X1904183Y1583720D1*
X1896453Y1578982D1*
X1889635Y1573006D1*
X1883925Y1565964D1*
X1879487Y1558058D1*
X1878103Y1554720D1*
X1874869Y1561915D1*
X1869807Y1569437D1*
X1863547Y1575995D1*
X1856269Y1581401D1*
X1848182Y1585499D1*
X1839518Y1588172D1*
X1830528Y1589342D1*
X1821469Y1588975D1*
X1812602Y1587083D1*
X1804183Y1583720D1*
X1796453Y1578982D1*
X1789635Y1573006D1*
X1783925Y1565964D1*
X1779487Y1558058D1*
X1778103Y1554720D1*
X1774869Y1561915D1*
X1769807Y1569437D1*
X1763547Y1575995D1*
X1756269Y1581401D1*
X1748182Y1585499D1*
X1739518Y1588172D1*
X1730528Y1589342D1*
X1721469Y1588975D1*
X1712602Y1587083D1*
X1704183Y1583720D1*
X1696453Y1578982D1*
X1689635Y1573006D1*
X1683925Y1565964D1*
X1679487Y1558058D1*
X1678103Y1554720D1*
X1674869Y1561915D1*
X1669807Y1569437D1*
X1663547Y1575995D1*
X1656269Y1581401D1*
X1648182Y1585499D1*
X1639518Y1588172D1*
X1630528Y1589342D1*
X1621469Y1588975D1*
X1612602Y1587083D1*
X1604183Y1583720D1*
X1596453Y1578982D1*
X1589635Y1573006D1*
X1583925Y1565964D1*
X1579487Y1558058D1*
X1578103Y1554720D1*
X1574869Y1561915D1*
X1569807Y1569437D1*
X1563547Y1575995D1*
X1556269Y1581401D1*
X1548182Y1585499D1*
X1539518Y1588172D1*
X1530528Y1589342D1*
X1521469Y1588975D1*
X1512602Y1587083D1*
X1504183Y1583720D1*
X1496453Y1578982D1*
X1489635Y1573006D1*
X1483925Y1565964D1*
X1479487Y1558058D1*
X1478103Y1554720D1*
X1474869Y1561915D1*
X1469807Y1569437D1*
X1463547Y1575995D1*
X1456269Y1581401D1*
X1448182Y1585499D1*
X1439518Y1588172D1*
X1430528Y1589342D1*
X1421469Y1588975D1*
X1412602Y1587083D1*
X1404183Y1583720D1*
X1396453Y1578982D1*
X1389635Y1573006D1*
X1383925Y1565964D1*
X1379487Y1558058D1*
X1378103Y1554720D1*
X1374869Y1561915D1*
X1369807Y1569437D1*
X1363547Y1575995D1*
X1356269Y1581401D1*
X1353659Y1582923D1*
X1359314Y1585716D1*
X1366649Y1591425D1*
X1372683Y1598493D1*
X1377172Y1606631D1*
X1379930Y1615507D1*
X1380846Y1624632D1*
X1380843Y1625126D1*
X1379804Y1634362D1*
X1376926Y1643199D1*
X1372328Y1651276D1*
X1366199Y1658263D1*
X1358789Y1663872D1*
X1350401Y1667875D1*
X1341379Y1670108D1*
X1332093Y1670478D1*
X1322921Y1668972D1*
X1314241Y1665651D1*
X1306407Y1660650D1*
X1299740Y1654175D1*
X1294513Y1646490D1*
X1290940Y1637910D1*
X1289168Y1628787D1*
X1289268Y1619493D1*
X1291236Y1610410D1*
X1294993Y1601909D1*
X1300384Y1594339D1*
X1307189Y1588008D1*
X1309996Y1586042D1*
X1304183Y1583720D1*
X1296453Y1578982D1*
X1289635Y1573006D1*
X1283925Y1565964D1*
X1279487Y1558058D1*
X1278141Y1554833D1*
X1278105Y1554961D1*
X1274172Y1563130D1*
X1268915Y1570517D1*
X1262486Y1576909D1*
X1255068Y1582122D1*
X1252510Y1583527D1*
X1259885Y1589256D1*
X1265920Y1596324D1*
X1270408Y1604462D1*
X1273167Y1613337D1*
X1274082Y1622586D1*
X1273117Y1631830D1*
X1270311Y1640690D1*
X1265778Y1648804D1*
X1259706Y1655840D1*
X1252341Y1661509D1*
X1243986Y1665579D1*
X1234982Y1667885D1*
X1225699Y1668330D1*
X1216516Y1666898D1*
X1207809Y1663647D1*
X1199935Y1658710D1*
X1193216Y1652288D1*
X1187927Y1644646D1*
X1184285Y1636095D1*
X1182439Y1626987D1*
X1182464Y1617693D1*
X1184359Y1608594D1*
X1188047Y1600063D1*
X1193377Y1592449D1*
X1200131Y1586064D1*
X1203828Y1583503D1*
X1196453Y1578982D1*
X1189635Y1573006D1*
X1183925Y1565964D1*
X1179487Y1558058D1*
X1176450Y1549516D1*
X1174899Y1540583D1*
X1174881Y1531517D1*
X1176394Y1522578D1*
X1179397Y1514024D1*
X1183803Y1506100D1*
X1189484Y1499034D1*
X1196277Y1493030D1*
X1203988Y1488261D1*
X1209496Y1486035D1*
X1209503Y1485845D1*
X1204183Y1483720D1*
X1196453Y1478982D1*
X1191067Y1474261D1*
X1190839Y1474214D1*
X1191384Y1479765D1*
X1190419Y1489008D1*
X1187613Y1497869D1*
X1183080Y1505983D1*
X1177008Y1513018D1*
X1169643Y1518687D1*
X1161288Y1522758D1*
X1152284Y1525063D1*
X1143001Y1525509D1*
X1133818Y1524077D1*
X1125111Y1520826D1*
X1117237Y1515888D1*
X1112007Y1510890D1*
X1124719Y1676789D1*
X1126093Y1676218D1*
X1132033Y1675669D1*
X1137552Y1677935D1*
X1141392Y1682507D1*
X1142621Y1686812D1*
X1155351Y1815390D1*
X1155268Y1818508D1*
X1152982Y1824024D1*
X1117533Y1694174D2*
X1116508Y1690914D1*
X1117533Y1694174D1*
X1117619Y1690458D2*
X1117531Y1694167D1*
X1117619Y1690458D1*
X1162569Y1829495D2*
X1148967Y1827552D1*
X472214Y1835783D2*
X1167009D1*
X471873Y1810914D2*
X728881D1*
X763773D2*
X1166578D1*
X471532Y1786045D2*
X701824D1*
X790847D2*
X1166148D1*
X471191Y1761176D2*
X698326D1*
X794328D2*
X1165717D1*
X470850Y1736308D2*
X710096D1*
X782576D2*
X1165269D1*
X470509Y1711439D2*
X1164838D1*
X470168Y1686570D2*
X1164407D1*
X469809Y1661701D2*
X1020045D1*
X1072807D2*
X1163977D1*
X469468Y1636833D2*
X1000309D1*
X1092561D2*
X1163528D1*
X469128Y1611964D2*
X999215D1*
X1093638D2*
X1163098D1*
X468787Y1587095D2*
X1014627D1*
X1078244D2*
X1162667D1*
X468446Y1562226D2*
X1162236D1*
X468105Y1537357D2*
X1161806D1*
X467764Y1512489D2*
X1110850D1*
X467405Y1487620D2*
X1097717D1*
X467064Y1462751D2*
X1100229D1*
X466723Y1437882D2*
X1123822D1*
X466382Y1413014D2*
X1159617D1*
X466041Y1388145D2*
X786547D1*
X819267D2*
X1159186D1*
X465701Y1363276D2*
X751865D1*
X853932D2*
X1167404D1*
X465360Y1338407D2*
X743109D1*
X862687D2*
X1150251D1*
X465001Y1313539D2*
X745890D1*
X859924D2*
X1101233D1*
X464660Y1288670D2*
X762648D1*
X843148D2*
X1052233D1*
X464319Y1263801D2*
X1003216D1*
X463978Y1238932D2*
X954198D1*
X463637Y1214064D2*
X905198D1*
X463296Y1189195D2*
X791822D1*
X813975D2*
X856180D1*
X462955Y1164326D2*
X752547D1*
X462615Y1139457D2*
X743235D1*
X462256Y1114588D2*
X709145D1*
X461915Y1089720D2*
X660127D1*
X461574Y1064851D2*
X611109D1*
X461233Y1039982D2*
X562109D1*
X460892Y1015113D2*
X513091D1*
X859796Y1323063D2*
X857592Y1314055D1*
X853972Y1305517D1*
X849028Y1297670D1*
X842890Y1290718D1*
X835717Y1284841D1*
X827693Y1280190D1*
X819027Y1276887D1*
X809944Y1275016D1*
X800678Y1274627D1*
X791470Y1275729D1*
X782558Y1278294D1*
X774172Y1282256D1*
X766531Y1287511D1*
X759832Y1293924D1*
X754248Y1301329D1*
X749924Y1309533D1*
X746973Y1318325D1*
X745469Y1327476D1*
X745454Y1336750D1*
X746926Y1345907D1*
X749848Y1354708D1*
X754144Y1362927D1*
X759702Y1370351D1*
X766380Y1376786D1*
X774003Y1382067D1*
X782375Y1386057D1*
X791278Y1388653D1*
X800483Y1389786D1*
X809750Y1389428D1*
X818840Y1387589D1*
X827516Y1384315D1*
X835556Y1379691D1*
X842749Y1373838D1*
X848911Y1366907D1*
X853881Y1359077D1*
X857530Y1350551D1*
X859765Y1341551D1*
X860527Y1332210D1*
X859796Y1323063D1*
X1163480Y1373469D2*
X1177609Y1351020D1*
X837249Y1178314D1*
X835556Y1179691D1*
X827516Y1184315D1*
X818840Y1187589D1*
X809750Y1189428D1*
X800483Y1189786D1*
X791278Y1188653D1*
X782375Y1186057D1*
X774003Y1182067D1*
X766380Y1176786D1*
X759702Y1170351D1*
X754144Y1162927D1*
X749848Y1154708D1*
X746926Y1145907D1*
X745454Y1136750D1*
X745462Y1131742D1*
X709849Y1113680D1*
X457986Y985885D1*
X470027Y1858331D1*
X1169950Y1860604D1*
X1164021Y1521426D1*
X1161288Y1522758D1*
X1152284Y1525063D1*
X1143001Y1525509D1*
X1133818Y1524077D1*
X1125111Y1520826D1*
X1117237Y1515888D1*
X1110518Y1509467D1*
X1105229Y1501824D1*
X1101587Y1493274D1*
X1099741Y1484165D1*
X1099766Y1474871D1*
X1101661Y1465772D1*
X1105349Y1457241D1*
X1110679Y1449628D1*
X1117432Y1443242D1*
X1125333Y1438348D1*
X1134057Y1435143D1*
X1143248Y1433760D1*
X1152528Y1434256D1*
X1161519Y1436610D1*
X1162537Y1437112D1*
X1162194Y1417044D1*
X1161552Y1380359D1*
X1161890Y1377253D1*
X1163480Y1373469D1*
X1091446Y1613337D2*
X1088688Y1604462D1*
X1084199Y1596324D1*
X1078164Y1589256D1*
X1070830Y1583547D1*
X1062497Y1579431D1*
X1053506Y1577078D1*
X1044225Y1576582D1*
X1035035Y1577965D1*
X1026311Y1581169D1*
X1018410Y1586064D1*
X1011657Y1592449D1*
X1006327Y1600063D1*
X1002639Y1608594D1*
X1000743Y1617693D1*
X1000718Y1626987D1*
X1002565Y1636095D1*
X1006207Y1644646D1*
X1011496Y1652288D1*
X1018215Y1658710D1*
X1026089Y1663647D1*
X1034795Y1666898D1*
X1043978Y1668330D1*
X1053262Y1667885D1*
X1062265Y1665579D1*
X1070620Y1661509D1*
X1077985Y1655840D1*
X1084058Y1648804D1*
X1088590Y1640690D1*
X1091396Y1631830D1*
X1092362Y1622462D1*
X1091446Y1613337D1*
X791349Y1758356D2*
X788591Y1749480D1*
X784102Y1741342D1*
X778067Y1734274D1*
X770733Y1728565D1*
X762400Y1724450D1*
X753409Y1722096D1*
X744128Y1721600D1*
X734938Y1722983D1*
X726213Y1726187D1*
X718313Y1731082D1*
X711560Y1737467D1*
X706230Y1745081D1*
X702542Y1753612D1*
X700646Y1762711D1*
X700621Y1772005D1*
X702468Y1781114D1*
X706110Y1789664D1*
X711399Y1797307D1*
X718118Y1803728D1*
X725992Y1808665D1*
X734698Y1811917D1*
X743881Y1813349D1*
X753165Y1812903D1*
X762168Y1810598D1*
X770523Y1806527D1*
X777888Y1800858D1*
X783961Y1793822D1*
X788493Y1785708D1*
X791299Y1776848D1*
X792265Y1767481D1*
X791349Y1758356D1*
X679291Y4008592D2*
X745449D1*
X905756D2*
X945449D1*
X1105756D2*
X1955840D1*
X661528Y3983724D2*
X742614D1*
X908591D2*
X942615D1*
X1108591D2*
X1933233D1*
X655266Y3958855D2*
X747674D1*
X903531D2*
X947674D1*
X1103531D2*
X1908366D1*
X654046Y3933986D2*
X762584D1*
X888621D2*
X962584D1*
X1088621D2*
X1904221D1*
X647677Y3909117D2*
X803133D1*
X848072D2*
X1003115D1*
X1048072D2*
X1913694D1*
X635261Y3884249D2*
X1957150D1*
X614143Y3859380D2*
X1957401D1*
X573217Y3834511D2*
X1378715D1*
X1521726D2*
X1957671D1*
X537171Y3809642D2*
X1351371D1*
X1549069D2*
X1957940D1*
X519391Y3784773D2*
X1343333D1*
X1557107D2*
X1958191D1*
X501628Y3759905D2*
X1346025D1*
X1554416D2*
X1958460D1*
X483865Y3735036D2*
X1219048D1*
X1303442D2*
X1361383D1*
X1539058D2*
X1958729D1*
X482609Y3710167D2*
X1201429D1*
X1321061D2*
X1958980D1*
X482861Y3685298D2*
X1197374D1*
X1325116D2*
X1959249D1*
X483112Y3660430D2*
X1197374D1*
X1325116D2*
X1959519D1*
X483363Y3635561D2*
X1197374D1*
X1325116D2*
X1959806D1*
X483614Y3610692D2*
X1197374D1*
X1325116D2*
X1960147D1*
X483865Y3585823D2*
X1199438D1*
X1323035D2*
X1369457D1*
X1530984D2*
X1960487D1*
X484116Y3560955D2*
X705743D1*
X775370D2*
X890780D1*
X960407D2*
X1212787D1*
X1309704D2*
X1343118D1*
X1557323D2*
X1960828D1*
X484368Y3536086D2*
X674057D1*
X807056D2*
X859094D1*
X992093D2*
X1335403D1*
X1565038D2*
X1961169D1*
X484619Y3511217D2*
X661175D1*
X819939D2*
X846212D1*
X1004975D2*
X1338363D1*
X1562077D2*
X1961510D1*
X484870Y3486348D2*
X657497D1*
X823617D2*
X842552D1*
X1008654D2*
X1354188D1*
X1546253D2*
X1958299D1*
X485121Y3461480D2*
X661713D1*
X819418D2*
X846750D1*
X1004455D2*
X1962192D1*
X485372Y3436611D2*
X675331D1*
X805782D2*
X860368D1*
X990819D2*
X1634641D1*
X1699442D2*
X1962533D1*
X485624Y3411742D2*
X709744D1*
X771369D2*
X894781D1*
X956424D2*
X1619713D1*
X1714370D2*
X1962874D1*
X485875Y3386873D2*
X1621095D1*
X1713006D2*
X1963215D1*
X486126Y3362004D2*
X529677D1*
X577900D2*
X1641513D1*
X1692588D2*
X1963556D1*
X486359Y3337136D2*
X498279D1*
X609298D2*
X1963896D1*
X618862Y3312267D2*
X1964237D1*
X617803Y3287398D2*
X1397429D1*
X1466984D2*
X1478330D1*
X1548854D2*
X1559966D1*
X1625826D2*
X1964578D1*
X486987Y3262529D2*
X502136D1*
X605441D2*
X1384439D1*
X1640323D2*
X1964919D1*
X487203Y3237661D2*
X498637D1*
X608958D2*
X1387058D1*
X1638690D2*
X1965260D1*
X618790Y3212792D2*
X1410957D1*
X1453474D2*
X1493473D1*
X1533711D2*
X1568166D1*
X1617608D2*
X2133162D1*
X617947Y3187923D2*
X1409055D1*
X1463970D2*
X1485471D1*
X1544674D2*
X1559625D1*
X1621717D2*
X2342493D1*
X838527Y3163054D2*
X1390180D1*
X1637739D2*
X2343713D1*
X840411Y3138186D2*
X1389462D1*
X1637004D2*
X2344933D1*
X842294Y3113317D2*
X1405556D1*
X1618039D2*
X2346153D1*
X2174692Y3088448D2*
X2347373D1*
X1492871Y3469391D2*
X1399039D1*
X1389887Y3470077D1*
X1380939Y3472120D1*
X1372397Y3475476D1*
X1364450Y3480067D1*
X1357277Y3485793D1*
X1351038Y3492524D1*
X1345873Y3500110D1*
X1341897Y3508382D1*
X1339199Y3517154D1*
X1337840Y3526231D1*
X1337849Y3535408D1*
X1339227Y3544482D1*
X1341943Y3553249D1*
X1345936Y3561512D1*
X1351117Y3569088D1*
X1357369Y3575807D1*
X1364554Y3581517D1*
X1372510Y3586093D1*
X1381059Y3589430D1*
X1390011Y3591456D1*
X1399039Y3592123D1*
X1501401D1*
X1510553Y3591437D1*
X1519501Y3589394D1*
X1528043Y3586038D1*
X1535990Y3581447D1*
X1543163Y3575722D1*
X1549402Y3568990D1*
X1554567Y3561404D1*
X1558543Y3553132D1*
X1561241Y3544360D1*
X1562600Y3535284D1*
X1562591Y3526106D1*
X1561213Y3517032D1*
X1558497Y3508265D1*
X1554504Y3500002D1*
X1549324Y3492426D1*
X1543071Y3485707D1*
X1535886Y3479997D1*
X1527930Y3475421D1*
X1519381Y3472084D1*
X1510429Y3470058D1*
X1501401Y3469391D1*
X1492871D1*
X1322610Y3679576D2*
Y3601623D1*
X1321924Y3592471D1*
X1319880Y3583524D1*
X1316525Y3574981D1*
X1311934Y3567035D1*
X1306208Y3559862D1*
X1299477Y3553623D1*
X1291891Y3548457D1*
X1283619Y3544481D1*
X1274847Y3541783D1*
X1265770Y3540424D1*
X1256592Y3540433D1*
X1247519Y3541811D1*
X1238752Y3544527D1*
X1230488Y3548520D1*
X1222913Y3553701D1*
X1216194Y3559953D1*
X1210483Y3567138D1*
X1205908Y3575094D1*
X1202570Y3583643D1*
X1200545Y3592595D1*
X1199877Y3601623D1*
Y3688237D1*
X1200564Y3697389D1*
X1202607Y3706337D1*
X1205962Y3714879D1*
X1210554Y3722826D1*
X1216279Y3729999D1*
X1223010Y3736238D1*
X1230597Y3741403D1*
X1238868Y3745379D1*
X1247641Y3748077D1*
X1256717Y3749437D1*
X1265895Y3749427D1*
X1274969Y3748049D1*
X1283735Y3745333D1*
X1291999Y3741340D1*
X1299575Y3736160D1*
X1306293Y3729907D1*
X1312004Y3722723D1*
X1316579Y3714767D1*
X1319917Y3706217D1*
X1321942Y3697266D1*
X1322610Y3688237D1*
Y3679576D1*
X1484866Y3717422D2*
X1406913D1*
X1397761Y3718108D1*
X1388814Y3720152D1*
X1380271Y3723507D1*
X1372324Y3728099D1*
X1365151Y3733824D1*
X1358912Y3740555D1*
X1353747Y3748141D1*
X1349771Y3756413D1*
X1347073Y3765185D1*
X1345714Y3774262D1*
X1345723Y3783440D1*
X1347101Y3792513D1*
X1349817Y3801280D1*
X1353810Y3809544D1*
X1358990Y3817120D1*
X1365243Y3823838D1*
X1372428Y3829549D1*
X1380384Y3834124D1*
X1388933Y3837462D1*
X1397885Y3839487D1*
X1406913Y3840155D1*
X1493527D1*
X1502679Y3839469D1*
X1511627Y3837425D1*
X1520169Y3834070D1*
X1528116Y3829478D1*
X1535289Y3823753D1*
X1541528Y3817022D1*
X1546693Y3809436D1*
X1550669Y3801164D1*
X1553367Y3792392D1*
X1554726Y3783315D1*
X1554717Y3774137D1*
X1553339Y3765064D1*
X1550623Y3756297D1*
X1546630Y3748033D1*
X1541450Y3740457D1*
X1535197Y3733739D1*
X1528012Y3728028D1*
X1520056Y3723453D1*
X1511507Y3720115D1*
X1502556Y3718090D1*
X1493527Y3717422D1*
X1484866D1*
X820597Y3477994D2*
X819030Y3468930D1*
X816441Y3460104D1*
X812862Y3451631D1*
X808341Y3443621D1*
X802936Y3436179D1*
X796718Y3429401D1*
X789768Y3423376D1*
X782176Y3418182D1*
X774042Y3413888D1*
X765471Y3410549D1*
X756576Y3408209D1*
X747471Y3406898D1*
X738277Y3406634D1*
X729113Y3407419D1*
X720097Y3409244D1*
X711349Y3412084D1*
X702981Y3415904D1*
X695104Y3420652D1*
X687818Y3426267D1*
X681221Y3432676D1*
X675397Y3439796D1*
X670422Y3447532D1*
X666362Y3455786D1*
X663270Y3464448D1*
X661184Y3473407D1*
X660134Y3482545D1*
X660132Y3491743D1*
X661179Y3500881D1*
X663260Y3509841D1*
X666349Y3518505D1*
X670406Y3526760D1*
X675377Y3534499D1*
X681198Y3541620D1*
X687793Y3548032D1*
X695076Y3553651D1*
X702952Y3558402D1*
X711318Y3562225D1*
X720065Y3565069D1*
X729080Y3566898D1*
X738244Y3567687D1*
X747438Y3567426D1*
X756543Y3566119D1*
X765439Y3563782D1*
X774011Y3560447D1*
X782147Y3556156D1*
X789741Y3550966D1*
X796694Y3544944D1*
X802915Y3538169D1*
X808323Y3530728D1*
X812847Y3522720D1*
X816430Y3514248D1*
X819023Y3505423D1*
X820593Y3496360D1*
X821120Y3487161D1*
X820597Y3477994D1*
X1005636D2*
X1004070Y3468930D1*
X1001480Y3460104D1*
X997901Y3451631D1*
X993380Y3443621D1*
X987975Y3436179D1*
X981757Y3429401D1*
X974807Y3423376D1*
X967215Y3418182D1*
X959081Y3413888D1*
X950510Y3410549D1*
X941615Y3408209D1*
X932511Y3406898D1*
X923317Y3406634D1*
X914152Y3407419D1*
X905137Y3409244D1*
X896388Y3412084D1*
X888021Y3415904D1*
X880143Y3420652D1*
X872858Y3426267D1*
X866260Y3432676D1*
X860436Y3439796D1*
X855462Y3447532D1*
X851402Y3455786D1*
X848309Y3464448D1*
X846224Y3473407D1*
X845173Y3482545D1*
X845171Y3491743D1*
X846218Y3500881D1*
X848299Y3509841D1*
X851389Y3518505D1*
X855445Y3526760D1*
X860417Y3534499D1*
X866238Y3541620D1*
X872832Y3548032D1*
X880115Y3553651D1*
X887991Y3558402D1*
X896357Y3562225D1*
X905104Y3565069D1*
X914119Y3566898D1*
X923283Y3567687D1*
X932477Y3567426D1*
X941582Y3566119D1*
X950479Y3563782D1*
X959051Y3560447D1*
X967187Y3556156D1*
X974780Y3550966D1*
X981733Y3544944D1*
X987954Y3538169D1*
X993362Y3530728D1*
X997887Y3522720D1*
X1001469Y3514248D1*
X1004062Y3505423D1*
X1005633Y3496360D1*
X1006160Y3487161D1*
X1005636Y3477994D1*
X1472905Y3233883D2*
X1469981Y3228582D1*
X1463946Y3221514D1*
X1456612Y3215805D1*
X1448279Y3211690D1*
X1439288Y3209336D1*
X1430007Y3208841D1*
X1420817Y3210223D1*
X1412093Y3213428D1*
X1404192Y3218323D1*
X1397439Y3224708D1*
X1392109Y3232321D1*
X1388421Y3240852D1*
X1386526Y3249951D1*
X1386500Y3259245D1*
X1388347Y3268354D1*
X1391989Y3276904D1*
X1397278Y3284547D1*
X1403997Y3290968D1*
X1411871Y3295906D1*
X1420578Y3299157D1*
X1429761Y3300589D1*
X1439044Y3300143D1*
X1448047Y3297838D1*
X1456403Y3293767D1*
X1463767Y3288098D1*
X1469840Y3281063D1*
X1472651Y3276031D1*
X1473370Y3277394D1*
X1478658Y3285036D1*
X1485377Y3291458D1*
X1493251Y3296395D1*
X1501958Y3299646D1*
X1511141Y3301078D1*
X1520424Y3300633D1*
X1529428Y3298327D1*
X1537783Y3294257D1*
X1545148Y3288588D1*
X1551221Y3281552D1*
X1553748Y3277028D1*
X1555398Y3279528D1*
X1561508Y3286532D1*
X1568902Y3292163D1*
X1577278Y3296190D1*
X1586293Y3298448D1*
X1595579Y3298846D1*
X1604754Y3297366D1*
X1613444Y3294070D1*
X1621292Y3289091D1*
X1627978Y3282635D1*
X1633227Y3274965D1*
X1636824Y3266396D1*
X1638623Y3257277D1*
X1638824Y3252991D1*
X1637908Y3243866D1*
X1635150Y3234991D1*
X1630661Y3226853D1*
X1624626Y3219784D1*
X1617292Y3214076D1*
X1608959Y3209960D1*
X1599968Y3207607D1*
X1590687Y3207111D1*
X1581497Y3208494D1*
X1572773Y3211698D1*
X1564872Y3216593D1*
X1558119Y3222978D1*
X1552789Y3230592D1*
X1552619Y3230983D1*
X1551362Y3229072D1*
X1545327Y3222004D1*
X1537993Y3216295D1*
X1529660Y3212179D1*
X1520669Y3209826D1*
X1511388Y3209330D1*
X1502197Y3210713D1*
X1493473Y3213917D1*
X1485573Y3218812D1*
X1478819Y3225197D1*
X1473490Y3232811D1*
X1473083Y3233752D1*
X1712064Y3392617D2*
X1709306Y3383742D1*
X1704817Y3375603D1*
X1698782Y3368535D1*
X1691448Y3362826D1*
X1683115Y3358711D1*
X1674124Y3356357D1*
X1664843Y3355862D1*
X1655653Y3357244D1*
X1646929Y3360449D1*
X1639028Y3365344D1*
X1632275Y3371729D1*
X1626945Y3379342D1*
X1623257Y3387873D1*
X1621361Y3396972D1*
X1621336Y3406266D1*
X1623183Y3415375D1*
X1626825Y3423925D1*
X1632114Y3431568D1*
X1638833Y3437989D1*
X1646707Y3442927D1*
X1655414Y3446178D1*
X1664597Y3447610D1*
X1673880Y3447164D1*
X1682883Y3444859D1*
X1691239Y3440788D1*
X1698603Y3435119D1*
X1704676Y3428084D1*
X1709208Y3419970D1*
X1712014Y3411109D1*
X1712980Y3401742D1*
X1712064Y3392617D1*
X1976171Y3218308D2*
X1971189Y3221598D1*
X1968303Y3226820D1*
X1967872Y3229909D1*
X1964586Y3469075D1*
X1962941Y3472883D1*
X1961045Y3481981D1*
X1961020Y3491275D1*
X1962867Y3500384D1*
X1964115Y3503315D1*
X1962173Y3645125D1*
X1959587Y3889190D1*
X1951469Y3889195D1*
X1942481Y3890880D1*
X1933956Y3894189D1*
X1926184Y3899007D1*
X1919429Y3905172D1*
X1913922Y3912473D1*
X1909851Y3920661D1*
X1907353Y3929458D1*
X1906515Y3938564D1*
X1907364Y3947670D1*
X1909871Y3956464D1*
X1913952Y3964648D1*
X1919467Y3971942D1*
X1926229Y3978099D1*
X1934007Y3982909D1*
X1942536Y3986207D1*
X1951526Y3987883D1*
X1958554Y3987879D1*
X1958101Y4030575D1*
X1197355Y4033461D1*
X1092305Y4032343D1*
X1093362Y4030728D1*
X1097887Y4022720D1*
X1101469Y4014248D1*
X1104062Y4005423D1*
X1105633Y3996360D1*
X1106160Y3987161D1*
X1105636Y3977994D1*
X1104070Y3968930D1*
X1101480Y3960104D1*
X1097901Y3951631D1*
X1093380Y3943621D1*
X1087975Y3936179D1*
X1081757Y3929401D1*
X1074807Y3923376D1*
X1067215Y3918182D1*
X1059081Y3913888D1*
X1050510Y3910549D1*
X1041615Y3908209D1*
X1032511Y3906898D1*
X1023317Y3906634D1*
X1014152Y3907419D1*
X1005137Y3909244D1*
X996388Y3912084D1*
X988021Y3915904D1*
X980143Y3920652D1*
X972858Y3926267D1*
X966260Y3932676D1*
X960436Y3939796D1*
X955462Y3947532D1*
X951402Y3955786D1*
X948309Y3964448D1*
X946224Y3973407D1*
X945173Y3982545D1*
X945171Y3991743D1*
X946218Y4000881D1*
X948299Y4009841D1*
X951389Y4018505D1*
X955445Y4026760D1*
X958111Y4030909D1*
X893679Y4030229D1*
X897887Y4022720D1*
X901469Y4014248D1*
X904062Y4005423D1*
X905633Y3996360D1*
X906160Y3987161D1*
X905636Y3977994D1*
X904070Y3968930D1*
X901480Y3960104D1*
X897901Y3951631D1*
X893380Y3943621D1*
X887975Y3936179D1*
X881757Y3929401D1*
X874807Y3923376D1*
X867215Y3918182D1*
X859081Y3913888D1*
X850510Y3910549D1*
X841615Y3908209D1*
X832511Y3906898D1*
X823317Y3906634D1*
X814152Y3907419D1*
X805137Y3909244D1*
X796388Y3912084D1*
X788021Y3915904D1*
X780143Y3920652D1*
X772858Y3926267D1*
X766260Y3932676D1*
X760436Y3939796D1*
X755462Y3947532D1*
X751402Y3955786D1*
X748309Y3964448D1*
X746224Y3973407D1*
X745173Y3982545D1*
X745171Y3991743D1*
X746218Y4000881D1*
X748299Y4009841D1*
X751389Y4018505D1*
X755445Y4026760D1*
X756742Y4028778D1*
X690697Y4028069D1*
X651236Y3972825D1*
X651581Y3970961D1*
X652588Y3961818D1*
X652925Y3952611D1*
X652590Y3943433D1*
X651585Y3934289D1*
X649915Y3925243D1*
X647589Y3916343D1*
X644620Y3907637D1*
X641024Y3899171D1*
X636818Y3890989D1*
X632027Y3883137D1*
X626676Y3875655D1*
X620793Y3868584D1*
X614409Y3861961D1*
X607559Y3855822D1*
X600278Y3850199D1*
X592607Y3845122D1*
X584586Y3840620D1*
X576258Y3836714D1*
X567666Y3833427D1*
X558858Y3830776D1*
X549880Y3828775D1*
X548147Y3828520D1*
X479871Y3732941D1*
X483929Y3329931D1*
X485307Y3165991D1*
X502291Y3165853D1*
X498604Y3171414D1*
X494670Y3179782D1*
X491997Y3188634D1*
X490640Y3197780D1*
X490630Y3207026D1*
X491967Y3216175D1*
X494621Y3225033D1*
X498537Y3233409D1*
X503630Y3241126D1*
X509793Y3248019D1*
X515029Y3252385D1*
X515028Y3252554D1*
X509880Y3256829D1*
X503703Y3263708D1*
X498592Y3271414D1*
X494659Y3279782D1*
X491985Y3288634D1*
X490629Y3297780D1*
X490619Y3307026D1*
X491956Y3316175D1*
X494610Y3325033D1*
X498526Y3333409D1*
X503619Y3341126D1*
X509782Y3348019D1*
X516883Y3353941D1*
X524770Y3358766D1*
X533276Y3362392D1*
X542219Y3364740D1*
X551409Y3365761D1*
X560649Y3365433D1*
X569744Y3363764D1*
X578498Y3360788D1*
X586726Y3356569D1*
X594251Y3351197D1*
X600915Y3344786D1*
X606574Y3337474D1*
X611108Y3329416D1*
X614420Y3320783D1*
X616440Y3311760D1*
X617125Y3302471D1*
X616460Y3293317D1*
X614459Y3284290D1*
X611166Y3275650D1*
X606649Y3267582D1*
X601006Y3260257D1*
X594356Y3253833D1*
X592573Y3252554D1*
X594263Y3251197D1*
X600926Y3244786D1*
X606585Y3237474D1*
X611119Y3229416D1*
X614431Y3220783D1*
X616451Y3211760D1*
X617136Y3202471D1*
X616471Y3193317D1*
X614471Y3184290D1*
X611177Y3175650D1*
X606660Y3167582D1*
X604726Y3165071D1*
X824505Y3163381D1*
X827891Y3162890D1*
X833061Y3159914D1*
X836264Y3154880D1*
X836885Y3151824D1*
X840472Y3104394D1*
X966488Y3105523D1*
X1414003Y3109555D1*
X1408502Y3112963D1*
X1401749Y3119348D1*
X1396419Y3126962D1*
X1392731Y3135493D1*
X1390835Y3144591D1*
X1390810Y3153885D1*
X1392657Y3162994D1*
X1396299Y3171545D1*
X1401588Y3179187D1*
X1408307Y3185609D1*
X1416181Y3190546D1*
X1424887Y3193797D1*
X1434070Y3195229D1*
X1443354Y3194784D1*
X1452357Y3192478D1*
X1460712Y3188408D1*
X1468077Y3182739D1*
X1474150Y3175703D1*
X1475252Y3173730D1*
X1475403Y3173824D1*
X1480139Y3180668D1*
X1486858Y3187089D1*
X1494732Y3192026D1*
X1503438Y3195278D1*
X1512622Y3196710D1*
X1521905Y3196264D1*
X1530908Y3193959D1*
X1539264Y3189888D1*
X1546628Y3184219D1*
X1552470Y3177451D1*
X1554195Y3179858D1*
X1560561Y3186630D1*
X1568160Y3191981D1*
X1576681Y3195692D1*
X1585774Y3197613D1*
X1595068Y3197664D1*
X1604182Y3195843D1*
X1612743Y3192224D1*
X1620400Y3186957D1*
X1626840Y3180256D1*
X1631799Y3172395D1*
X1635075Y3163698D1*
X1636532Y3154519D1*
X1636604Y3151941D1*
X1635689Y3142816D1*
X1632931Y3133941D1*
X1628442Y3125803D1*
X1622407Y3118735D1*
X1615073Y3113026D1*
X1606740Y3108910D1*
X1605006Y3108302D1*
X1602682Y3107615D1*
X1921134Y3095047D1*
X1956132Y3093410D1*
X1983209Y3096127D1*
X1984986Y3096180D1*
X2350223Y3081095D1*
X2344099Y3206374D1*
X1979994Y3217586D1*
X1976171Y3218308D1*
X3193815Y3675092D2*
X3800389D1*
X3194174Y3650224D2*
X3800587D1*
X3194533Y3625355D2*
X3800784D1*
X3194874Y3600486D2*
X3800981D1*
X3195233Y3575617D2*
X3801179D1*
X3195574Y3550749D2*
X3801394D1*
X3195932Y3525880D2*
X3801592D1*
X3196273Y3501011D2*
X3801789D1*
X3196632Y3476142D2*
X3801986D1*
X3196991Y3451273D2*
X3802184D1*
X3197332Y3426405D2*
X3802381D1*
X3197691Y3401536D2*
X3802578D1*
X3198032Y3376667D2*
X3711199D1*
X3758022D2*
X3802776D1*
X3198390Y3351798D2*
X3679262D1*
X3789959D2*
X3802973D1*
X3198731Y3326930D2*
X3669574D1*
X3199090Y3302061D2*
X3670542D1*
X3199431Y3277192D2*
X3682761D1*
X3786460D2*
X3803583D1*
X3199790Y3252323D2*
X3679621D1*
X3789600D2*
X3803780D1*
X3200149Y3227455D2*
X3669663D1*
X3200490Y3202586D2*
X3670417D1*
X3200849Y3177717D2*
X3682330D1*
X3786891D2*
X3804373D1*
X3201189Y3152848D2*
X3804570D1*
X3201548Y3127980D2*
X3706570D1*
X3763082D2*
X3804767D1*
X486407Y3103111D2*
X508643D1*
X598779D2*
X635566D1*
X3201889D2*
X3678258D1*
X3791395D2*
X3804983D1*
X615590Y3078242D2*
X636929D1*
X3202248D2*
X3669502D1*
X619484Y3053373D2*
X638293D1*
X3202535D2*
X3671242D1*
X613168Y3028504D2*
X1099494D1*
X1323549D2*
X2364789D1*
X2471664D2*
X3684573D1*
X3785061D2*
X3805575D1*
X486945Y3003636D2*
X509235D1*
X598186D2*
X1190784D1*
X1319494D2*
X1791108D1*
X1847602D2*
X2371373D1*
X2465097D2*
X3678581D1*
X3791054D2*
X3805772D1*
X615393Y2978767D2*
X1207129D1*
X1303149D2*
X1772861D1*
X1865867D2*
X2405499D1*
X2430971D2*
X3669574D1*
X619502Y2953898D2*
X864363D1*
X992338D2*
X1772430D1*
X1866280D2*
X2062751D1*
X2100370D2*
X2162743D1*
X2200379D2*
X3671099D1*
X3798536D2*
X3806167D1*
X995299Y2929029D2*
X1789063D1*
X1849665D2*
X2031801D1*
X2231312D2*
X3684125D1*
X3785510D2*
X3806364D1*
X995191Y2904161D2*
X1390623D1*
X1639115D2*
X2024625D1*
X2238488D2*
X3490153D1*
X995083Y2879292D2*
X1384648D1*
X1644533D2*
X2029505D1*
X2233608D2*
X3021936D1*
X994976Y2854423D2*
X1393368D1*
X1635186D2*
X2052381D1*
X2110741D2*
X2152390D1*
X2210732D2*
X2553719D1*
X994868Y2829554D2*
X2085502D1*
X994761Y2804686D2*
X1393045D1*
X1467319D2*
X1476512D1*
X1633948D2*
X1918982D1*
X994653Y2779817D2*
X1042941D1*
X1177214D2*
X1382046D1*
X1644408D2*
X1918354D1*
X994545Y2754948D2*
X1031207D1*
X1197237D2*
X1386119D1*
X1639922D2*
X1917726D1*
X994455Y2730079D2*
X1034723D1*
X1200000D2*
X1416065D1*
X1444282D2*
X1503389D1*
X1525165D2*
X1585259D1*
X1607142D2*
X1917098D1*
X994348Y2705210D2*
X1061942D1*
X1096510D2*
X1104805D1*
X1189307D2*
X1916470D1*
X1873887Y2680342D2*
X1915824D1*
X979867Y2958231D2*
X615761Y2944262D1*
X616380Y2947056D1*
X617045Y2956279D1*
X616361Y2965500D1*
X614340Y2974523D1*
X611028Y2983155D1*
X606494Y2991214D1*
X600835Y2998526D1*
X594172Y3004936D1*
X592493Y3006293D1*
X594277Y3007572D1*
X600926Y3013997D1*
X606569Y3021321D1*
X611086Y3029389D1*
X614380Y3038029D1*
X616380Y3047056D1*
X617045Y3056279D1*
X616361Y3065500D1*
X614340Y3074523D1*
X611028Y3083155D1*
X606494Y3091214D1*
X600835Y3098526D1*
X594172Y3104936D1*
X586646Y3110308D1*
X583665Y3111837D1*
X637627Y3111018D1*
X641309Y3043827D1*
X641867Y3040758D1*
X644964Y3035660D1*
X650078Y3032577D1*
X653847Y3032011D1*
X1099573Y3033775D1*
X1101399Y3029551D1*
X1106729Y3021937D1*
X1113482Y3015552D1*
X1121383Y3010657D1*
X1130107Y3007453D1*
X1139297Y3006070D1*
X1148578Y3006566D1*
X1157569Y3008920D1*
X1165902Y3013035D1*
X1173237Y3018744D1*
X1179271Y3025812D1*
X1183834Y3034107D1*
X1189797Y3034130D1*
X1189367Y3031060D1*
X1189370Y3021862D1*
X1190653Y3012753D1*
X1193191Y3003912D1*
X1196935Y2995510D1*
X1201811Y2987710D1*
X1207726Y2980666D1*
X1214564Y2974513D1*
X1222191Y2969371D1*
X1230460Y2965341D1*
X1239209Y2962501D1*
X1248269Y2960907D1*
X1257462Y2960588D1*
X1266610Y2961553D1*
X1275534Y2963781D1*
X1284062Y2967229D1*
X1292027Y2971831D1*
X1299274Y2977496D1*
X1305661Y2984115D1*
X1311066Y2991558D1*
X1315382Y2999681D1*
X1318526Y3008326D1*
X1320435Y3017324D1*
X1321074Y3026501D1*
X1320502Y3034646D1*
X2368512Y3038787D1*
X2367506Y3033269D1*
X2367498Y3024138D1*
X2369121Y3015152D1*
X2372322Y3006600D1*
X2376999Y2998757D1*
X2383001Y2991876D1*
X2390135Y2986177D1*
X2398173Y2981843D1*
X2406855Y2979014D1*
X2415902Y2977781D1*
X2425025Y2978183D1*
X2433929Y2980207D1*
X2442328Y2983789D1*
X2449953Y2988813D1*
X2456558Y2995117D1*
X2461932Y3002500D1*
X2465901Y3010724D1*
X2468337Y3019524D1*
X2469164Y3028661D1*
X2468353Y3037713D1*
X2467948Y3039183D1*
X3187630Y3042031D1*
X3190723Y3042432D1*
X3195972Y3045266D1*
X3199311Y3050217D1*
X3200079Y3054715D1*
X3191085Y3692639D1*
X3802692Y3699807D1*
X3808943Y2920960D1*
X3771917Y2918993D1*
X3775388Y2921481D1*
X3782038Y2927906D1*
X3787681Y2935231D1*
X3792197Y2943299D1*
X3795491Y2951939D1*
X3797492Y2960966D1*
X3798157Y2970188D1*
X3797472Y2979409D1*
X3795452Y2988432D1*
X3792140Y2997065D1*
X3787606Y3005123D1*
X3781947Y3012435D1*
X3775283Y3018846D1*
X3773605Y3020203D1*
X3775388Y3021481D1*
X3782038Y3027906D1*
X3787681Y3035231D1*
X3792197Y3043299D1*
X3795491Y3051939D1*
X3797492Y3060966D1*
X3798157Y3070188D1*
X3797472Y3079409D1*
X3795452Y3088432D1*
X3792140Y3097065D1*
X3787606Y3105123D1*
X3781947Y3112435D1*
X3775283Y3118846D1*
X3767758Y3124218D1*
X3759530Y3128437D1*
X3750776Y3131413D1*
X3741681Y3133082D1*
X3732441Y3133410D1*
X3723251Y3132389D1*
X3714308Y3130041D1*
X3705802Y3126415D1*
X3697915Y3121590D1*
X3690814Y3115668D1*
X3684651Y3108775D1*
X3679558Y3101058D1*
X3675642Y3092681D1*
X3672988Y3083824D1*
X3671651Y3074675D1*
X3671661Y3065429D1*
X3673017Y3056282D1*
X3675691Y3047431D1*
X3679624Y3039063D1*
X3684734Y3031357D1*
X3690912Y3024478D1*
X3696049Y3020034D1*
X3690814Y3015668D1*
X3684651Y3008775D1*
X3679558Y3001058D1*
X3675642Y2992681D1*
X3672988Y2983824D1*
X3671651Y2974675D1*
X3671661Y2965429D1*
X3673017Y2956282D1*
X3675691Y2947431D1*
X3679624Y2939063D1*
X3684734Y2931357D1*
X3690912Y2924478D1*
X3698026Y2918571D1*
X3703309Y2915354D1*
X3502072Y2904661D1*
X1933428Y2821344D1*
X1930358Y2820791D1*
X1925254Y2817703D1*
X1922163Y2812594D1*
X1921595Y2809163D1*
X1918298Y2679130D1*
X1179812Y2698195D1*
X1185379Y2703508D1*
X1190752Y2710891D1*
X1194721Y2719115D1*
X1197158Y2727915D1*
X1197984Y2737052D1*
X1197173Y2746104D1*
X1194751Y2754908D1*
X1190796Y2763139D1*
X1185435Y2770530D1*
X1178840Y2776846D1*
X1171224Y2781883D1*
X1162830Y2785479D1*
X1153930Y2787518D1*
X1144808Y2787936D1*
X1135758Y2786718D1*
X1127072Y2783903D1*
X1119027Y2779583D1*
X1115279Y2776862D1*
X1110778Y2782077D1*
X1103413Y2787746D1*
X1095058Y2791817D1*
X1086054Y2794122D1*
X1076771Y2794568D1*
X1067588Y2793136D1*
X1058881Y2789885D1*
X1051007Y2784947D1*
X1044288Y2778526D1*
X1039000Y2770883D1*
X1035357Y2762333D1*
X1033511Y2753224D1*
X1033536Y2743930D1*
X1035431Y2734831D1*
X1039119Y2726300D1*
X1044449Y2718687D1*
X1051203Y2712302D1*
X1059103Y2707407D1*
X1067827Y2704202D1*
X1077018Y2702820D1*
X1086299Y2703315D1*
X1095290Y2705669D1*
X1103623Y2709784D1*
X1104079Y2710067D1*
X1105819Y2707148D1*
X1111821Y2700267D1*
X1112232Y2699939D1*
X997933Y2702893D1*
X991833Y2703044D1*
X992861Y2945688D1*
X992485Y2948784D1*
X989694Y2954056D1*
X984771Y2957436D1*
X979867Y2958231D1*
X514948Y3006294D2*
X509800Y3010568D1*
X503623Y3017448D1*
X498513Y3025154D1*
X494579Y3033522D1*
X491906Y3042373D1*
X490550Y3051519D1*
X490540Y3060766D1*
X491876Y3069915D1*
X494530Y3078772D1*
X498446Y3087148D1*
X503539Y3094865D1*
X509702Y3101758D1*
X516803Y3107680D1*
X524690Y3112506D1*
X525197Y3112722D1*
X483854Y3113349D1*
X484801Y2939251D1*
X492608Y2939547D1*
X491906Y2942373D1*
X490550Y2951519D1*
X490540Y2960766D1*
X491876Y2969915D1*
X494530Y2978772D1*
X498446Y2987148D1*
X503539Y2994865D1*
X509702Y3001758D1*
X514938Y3006125D1*
X3797281Y3207727D2*
X3795280Y3198700D1*
X3791986Y3190060D1*
X3787470Y3181992D1*
X3781826Y3174667D1*
X3775177Y3168243D1*
X3767663Y3162854D1*
X3759444Y3158618D1*
X3750696Y3155623D1*
X3741606Y3153934D1*
X3732366Y3153586D1*
X3723174Y3154587D1*
X3714226Y3156916D1*
X3705712Y3160524D1*
X3697814Y3165332D1*
X3690701Y3171239D1*
X3684523Y3178119D1*
X3679413Y3185824D1*
X3675479Y3194192D1*
X3672806Y3203044D1*
X3671450Y3212190D1*
X3671440Y3221436D1*
X3672776Y3230585D1*
X3675431Y3239443D1*
X3679346Y3247819D1*
X3684440Y3255536D1*
X3690603Y3262429D1*
X3695838Y3266795D1*
X3690701Y3271239D1*
X3684523Y3278119D1*
X3679413Y3285824D1*
X3675479Y3294192D1*
X3672806Y3303044D1*
X3671450Y3312190D1*
X3671440Y3321436D1*
X3672776Y3330585D1*
X3675431Y3339443D1*
X3679346Y3347819D1*
X3684440Y3355536D1*
X3690603Y3362429D1*
X3697703Y3368351D1*
X3705591Y3373176D1*
X3714097Y3376802D1*
X3723040Y3379150D1*
X3732230Y3380171D1*
X3741470Y3379843D1*
X3750564Y3378174D1*
X3759319Y3375198D1*
X3767546Y3370979D1*
X3775072Y3365607D1*
X3781735Y3359196D1*
X3787394Y3351884D1*
X3791928Y3343826D1*
X3795241Y3335193D1*
X3797261Y3326170D1*
X3797946Y3316881D1*
X3797281Y3307727D1*
X3795280Y3298700D1*
X3791986Y3290060D1*
X3787470Y3281992D1*
X3781826Y3274667D1*
X3775177Y3268243D1*
X3773394Y3266964D1*
X3775072Y3265607D1*
X3781735Y3259196D1*
X3787394Y3251884D1*
X3791928Y3243826D1*
X3795241Y3235193D1*
X3797261Y3226170D1*
X3797946Y3216881D1*
X3797281Y3207727D1*
X2131461Y2880534D2*
X2129151Y2875409D1*
X2123986Y2867747D1*
X2117601Y2861069D1*
X2110178Y2855566D1*
X2101933Y2851396D1*
X2093101Y2848680D1*
X2083938Y2847496D1*
X2074706Y2847877D1*
X2065671Y2849813D1*
X2057093Y2853248D1*
X2049219Y2858083D1*
X2042276Y2864179D1*
X2036463Y2871361D1*
X2031947Y2879423D1*
X2028858Y2888131D1*
X2027286Y2897236D1*
X2027275Y2906476D1*
X2028826Y2915585D1*
X2031894Y2924301D1*
X2036390Y2932372D1*
X2042186Y2939568D1*
X2049115Y2945681D1*
X2056978Y2950535D1*
X2065547Y2953990D1*
X2074577Y2955948D1*
X2083808Y2956351D1*
X2092975Y2955188D1*
X2101813Y2952493D1*
X2110068Y2948343D1*
X2117504Y2942857D1*
X2123905Y2936194D1*
X2129088Y2928545D1*
X2131462Y2923310D1*
X2135252Y2930613D1*
X2140768Y2938026D1*
X2147456Y2944401D1*
X2155126Y2949553D1*
X2163556Y2953336D1*
X2172504Y2955639D1*
X2181713Y2956397D1*
X2190918Y2955588D1*
X2199853Y2953234D1*
X2208262Y2949405D1*
X2215903Y2944209D1*
X2222555Y2937797D1*
X2228029Y2930353D1*
X2232166Y2922091D1*
X2234847Y2913249D1*
X2235995Y2904080D1*
X2236038Y2901920D1*
X2235265Y2892778D1*
X2232947Y2883833D1*
X2229151Y2875409D1*
X2223986Y2867747D1*
X2217601Y2861069D1*
X2210178Y2855566D1*
X2201933Y2851396D1*
X2193101Y2848680D1*
X2183938Y2847496D1*
X2174706Y2847877D1*
X2165671Y2849813D1*
X2157093Y2853248D1*
X2149219Y2858083D1*
X2142276Y2864179D1*
X2136463Y2871361D1*
X2131947Y2879423D1*
X2131606Y2880384D1*
X1475093Y2863053D2*
X1470802Y2855273D1*
X1464767Y2848204D1*
X1457433Y2842496D1*
X1449099Y2838380D1*
X1440108Y2836027D1*
X1430828Y2835531D1*
X1421637Y2836913D1*
X1412913Y2840118D1*
X1405012Y2845013D1*
X1398259Y2851398D1*
X1392929Y2859012D1*
X1389241Y2867543D1*
X1387346Y2876641D1*
X1387321Y2885935D1*
X1389167Y2895044D1*
X1392809Y2903595D1*
X1398098Y2911237D1*
X1404817Y2917658D1*
X1412691Y2922596D1*
X1421398Y2925847D1*
X1430581Y2927279D1*
X1439864Y2926833D1*
X1448868Y2924528D1*
X1457223Y2920458D1*
X1464588Y2914788D1*
X1470660Y2907753D1*
X1474976Y2900027D1*
X1476859Y2903844D1*
X1482148Y2911486D1*
X1488867Y2917908D1*
X1496741Y2922845D1*
X1505448Y2926097D1*
X1514631Y2927529D1*
X1523914Y2927083D1*
X1532918Y2924777D1*
X1541273Y2920707D1*
X1548637Y2915038D1*
X1554710Y2908002D1*
X1556326Y2905110D1*
X1557678Y2907337D1*
X1563502Y2914580D1*
X1570665Y2920502D1*
X1578874Y2924861D1*
X1587792Y2927478D1*
X1597054Y2928246D1*
X1606281Y2927134D1*
X1615096Y2924188D1*
X1623137Y2919528D1*
X1630075Y2913344D1*
X1635627Y2905890D1*
X1639564Y2897471D1*
X1641726Y2888432D1*
X1642135Y2882321D1*
X1641219Y2873195D1*
X1638461Y2864320D1*
X1633972Y2856182D1*
X1627937Y2849114D1*
X1620603Y2843405D1*
X1612270Y2839290D1*
X1603279Y2836936D1*
X1593998Y2836440D1*
X1584808Y2837823D1*
X1576084Y2841027D1*
X1568183Y2845922D1*
X1561430Y2852307D1*
X1556907Y2858769D1*
X1554851Y2855522D1*
X1548817Y2848454D1*
X1541482Y2842745D1*
X1533149Y2838630D1*
X1524158Y2836276D1*
X1514878Y2835780D1*
X1505687Y2837163D1*
X1496963Y2840367D1*
X1489062Y2845262D1*
X1482309Y2851647D1*
X1476979Y2859261D1*
X1475239Y2863285D1*
X1472374Y2756402D2*
X1467951Y2748383D1*
X1461916Y2741315D1*
X1454582Y2735606D1*
X1446249Y2731491D1*
X1437258Y2729137D1*
X1427977Y2728641D1*
X1418787Y2730024D1*
X1410063Y2733228D1*
X1402162Y2738123D1*
X1395409Y2744508D1*
X1390079Y2752122D1*
X1386391Y2760653D1*
X1384495Y2769752D1*
X1384470Y2779046D1*
X1386317Y2788154D1*
X1389959Y2796705D1*
X1395248Y2804347D1*
X1401967Y2810769D1*
X1409841Y2815706D1*
X1418547Y2818957D1*
X1427730Y2820389D1*
X1437014Y2819944D1*
X1446017Y2817638D1*
X1454372Y2813568D1*
X1461737Y2807899D1*
X1467810Y2800863D1*
X1472037Y2793296D1*
X1474049Y2797424D1*
X1479338Y2805067D1*
X1486057Y2811488D1*
X1493931Y2816425D1*
X1502638Y2819677D1*
X1511821Y2821109D1*
X1521104Y2820663D1*
X1530108Y2818358D1*
X1538463Y2814287D1*
X1545828Y2808618D1*
X1551901Y2801582D1*
X1555127Y2795806D1*
X1555980Y2797415D1*
X1561269Y2805057D1*
X1567988Y2811479D1*
X1575862Y2816416D1*
X1584568Y2819667D1*
X1593751Y2821099D1*
X1603035Y2820654D1*
X1612038Y2818348D1*
X1620393Y2814278D1*
X1627758Y2808609D1*
X1633831Y2801573D1*
X1638363Y2793459D1*
X1641169Y2784599D1*
X1642135Y2775231D1*
X1641219Y2766106D1*
X1638461Y2757231D1*
X1633972Y2749093D1*
X1627937Y2742025D1*
X1620603Y2736316D1*
X1612270Y2732200D1*
X1603279Y2729847D1*
X1593998Y2729351D1*
X1584808Y2730734D1*
X1576084Y2733938D1*
X1568183Y2738833D1*
X1561430Y2745218D1*
X1556100Y2752832D1*
X1555318Y2754640D1*
X1552042Y2749102D1*
X1546007Y2742034D1*
X1538673Y2736325D1*
X1530340Y2732210D1*
X1521349Y2729856D1*
X1512068Y2729360D1*
X1502877Y2730743D1*
X1494153Y2733947D1*
X1486253Y2738842D1*
X1479499Y2745227D1*
X1474169Y2752841D1*
X1472509Y2756682D1*
X1864375Y2956467D2*
X1861617Y2947592D1*
X1857128Y2939454D1*
X1851093Y2932385D1*
X1843759Y2926677D1*
X1835426Y2922561D1*
X1826435Y2920208D1*
X1817154Y2919712D1*
X1807964Y2921095D1*
X1799240Y2924299D1*
X1791339Y2929194D1*
X1784586Y2935579D1*
X1779256Y2943193D1*
X1775568Y2951724D1*
X1773672Y2960822D1*
X1773647Y2970116D1*
X1775494Y2979225D1*
X1779136Y2987776D1*
X1784425Y2995418D1*
X1791144Y3001840D1*
X1799018Y3006777D1*
X1807725Y3010028D1*
X1816908Y3011460D1*
X1826191Y3011015D1*
X1835194Y3008709D1*
X1843550Y3004639D1*
X1850914Y2998970D1*
X1856987Y2991934D1*
X1861519Y2983820D1*
X1864326Y2974960D1*
X1865291Y2965592D1*
X1864375Y2956467D1*
D24*
X1956070Y3741686D3*
Y3938536D3*
D36*
X553790Y3302471D3*
X553801Y3202471D3*
X553710Y3056210D3*
Y2956210D3*
X553727Y2809450D3*
X553738Y2709450D3*
X3734611Y3216881D3*
Y3316881D3*
X3734822Y2970120D3*
Y3070120D3*
X3734420Y2723351D3*
Y2823351D3*
X553399Y2562620D3*
Y2462620D3*
X554191Y2316490D3*
Y2216490D3*
X553999Y2069090D3*
Y1969090D3*
X1399039Y3530757D2*
D41*
X1501401D1*
X1261244Y3601623D2*
Y3688237D1*
X1406913Y3778789D2*
X1493527D1*
D45*
X1228150Y1535941D3*
X1328150D3*
X1428150D3*
X1528150D3*
X1628150D3*
X1728150D3*
X1828150D3*
X1928150D3*
X2028150D3*
X2128150D3*
X2228150D3*
X2328150D3*
X2428150D3*
X2528150D3*
X2628150D3*
X2728150D3*
X2828150D3*
X2928150D3*
X3028150D3*
X3128150D3*
X1228150Y1435941D3*
X1328150D3*
X1428150D3*
X1528150D3*
X1628150D3*
X1728150D3*
X1828150D3*
X1928150D3*
X2028150D3*
X2128150D3*
X2228150D3*
X2328150D3*
X2428150D3*
X2528150D3*
X2628150D3*
X2728150D3*
X2828150D3*
X2928150D3*
X3028150D3*
X3128150D3*
D48*
X802901Y1332210D3*
Y1232210D3*
Y1132210D3*
Y1032210D3*
D51*
X3028132Y1335881D3*
X3128132D3*
D36*
X3732041Y1633041D3*
Y1733041D3*
Y1833041D3*
Y1933041D3*
Y2033041D3*
Y2133041D3*
Y2233041D3*
Y2333041D3*
Y2433041D3*
Y2533041D3*
X3731591Y556671D3*
Y656671D3*
Y756671D3*
Y856671D3*
Y956671D3*
Y1056671D3*
Y1156671D3*
Y1256671D3*
Y1356671D3*
Y1456671D3*
D51*
X2081561Y2901920D3*
X2181561D3*
D55*
X1228411Y1922262D3*
Y2022262D3*
X1328411Y1922262D3*
Y2022262D3*
X1428411Y1922262D3*
Y2022262D3*
X1528411Y1922262D3*
Y2022262D3*
X1628411D3*
Y1922262D3*
X1728411Y2022262D3*
Y1922262D3*
X1828411Y2022262D3*
Y1922262D3*
X1928411D3*
Y2022262D3*
X2028411Y1922262D3*
Y2022262D3*
X2128411Y1922262D3*
Y2022262D3*
X2228411Y1922262D3*
Y2022262D3*
X2328411Y1922262D3*
Y2022262D3*
X2428411Y1922262D3*
Y2022262D3*
X2528411Y1922262D3*
Y2022262D3*
X2628411Y1922262D3*
Y2022262D3*
X2728411Y1922262D3*
Y2022262D3*
X2828411Y1922262D3*
Y2022262D3*
X2928411Y1922262D3*
Y2022262D3*
X3028411Y1922262D3*
Y2022262D3*
X3128411Y1922262D3*
Y2022262D3*
D56*
X3321251Y579361D3*
X3768570Y3952611D3*
X526991D3*
X1035461Y577731D3*
D64*
X740561Y3487161D3*
X925600D3*
X1110640D3*
X825600Y3987161D3*
X1025600D3*
M02*
