G04 DipTrace 4.3.0.5*
G04 4 - Bottom.gbr*
%MOIN*%
G04 #@! TF.FileFunction,Copper,L4,Bot*
G04 #@! TF.Part,Single*
G04 #@! TA.AperFunction,CopperBalancing*
%ADD15C,0.013*%
G04 #@! TA.AperFunction,ViaPad*
%ADD16C,0.04*%
G04 #@! TA.AperFunction,Conductor*
%ADD17C,0.02*%
G04 #@! TA.AperFunction,CopperBalancing*
%ADD18C,0.025*%
G04 #@! TA.AperFunction,ViaPad*
%ADD19C,0.1*%
%ADD20C,0.05*%
G04 #@! TA.AperFunction,Conductor*
%ADD22C,0.09*%
G04 #@! TA.AperFunction,ComponentPad*
%ADD23R,0.047244X0.047244*%
%ADD25C,0.047244*%
%ADD35R,0.098425X0.074803*%
%ADD37O,0.098425X0.074803*%
%ADD40O,0.173228X0.086614*%
%ADD42O,0.07874X0.15748*%
%ADD43O,0.15748X0.07874*%
%ADD44R,0.055039X0.055039*%
%ADD46C,0.055039*%
%ADD47R,0.063386X0.063386*%
%ADD49C,0.063386*%
%ADD50R,0.057087X0.057087*%
%ADD52C,0.057087*%
%ADD54C,0.064961*%
%ADD56C,0.2*%
%ADD63R,0.109252X0.109252*%
%ADD65C,0.109252*%
G04 #@! TA.AperFunction,ViaPad*
%ADD69C,0.06*%
%ADD70C,0.08*%
%ADD71C,0.16*%
%FSLAX26Y26*%
G04*
G70*
G90*
G75*
G01*
G04 Bottom*
%LPD*%
X2338493Y3208554D2*
D15*
X2674653D1*
X2728046Y3155161D1*
X3098910D1*
X1228411Y2022262D2*
D18*
X1328411D1*
X2528150Y1435941D2*
D15*
X2475172Y1488919D1*
Y1646545D1*
X2528411Y1699784D1*
Y1922262D1*
Y2022262D2*
Y2016330D1*
X2577020Y1967721D1*
Y1684141D1*
X2528150Y1635271D1*
Y1535941D1*
X1328150Y1435941D2*
X1275172Y1488919D1*
Y1564892D1*
X1334913Y1624632D1*
Y1664132D1*
X1328411Y1670633D1*
Y1922262D1*
X1428150Y1435941D2*
X1375172Y1488919D1*
Y1698018D1*
X1428411Y1751256D1*
Y1922262D1*
X1528150Y1435941D2*
X1475172Y1488919D1*
Y1606482D1*
X1528411Y1659721D1*
Y1922262D1*
X2628150Y1435941D2*
X2575172Y1488919D1*
Y1556340D1*
X2628411Y1609579D1*
Y1922262D1*
X2728150Y1435941D2*
X2775172Y1482964D1*
Y1559581D1*
X2728411Y1606342D1*
Y1922262D1*
X2428411Y2022262D2*
Y2015161D1*
X2475901Y1967671D1*
Y1711141D1*
X2428150Y1663390D1*
Y1535941D1*
X2328411Y2022262D2*
Y2086221D1*
X2313011Y2101621D1*
X2101611D1*
X2082481Y2082491D1*
Y1748651D1*
X2326401Y1751972D2*
X2328150Y1750222D1*
Y1535941D1*
X2228411Y1922262D2*
X2222762D1*
X2176271Y1875771D1*
Y1621402D1*
X2175172Y1620304D1*
Y1488919D1*
X2228150Y1435941D1*
X2128411Y1922262D2*
Y1681155D1*
X2075172Y1627917D1*
Y1488919D1*
X2128150Y1435941D1*
X2328411Y1922262D2*
Y1855637D1*
X2354413Y1829636D1*
X2375170D1*
Y1482961D1*
X2328150Y1435941D1*
X3535653Y1829636D2*
X3504951D1*
Y2194231D1*
X3543760Y2233041D1*
X3732041D1*
X2375170Y1829636D2*
X2425393D1*
X2728411Y2022262D2*
Y2010071D1*
X2677710Y1959371D1*
Y1586381D1*
X2728150Y1535941D1*
Y1523241D1*
X2676020Y1471111D1*
Y1240577D1*
X2646894Y1211451D1*
X1156188D1*
X841011Y1526628D1*
Y2513911D1*
X792302Y2562620D1*
X553399D1*
X746331Y1767481D2*
Y2316490D1*
X2828150Y1435941D2*
X2875172Y1482964D1*
Y1582962D1*
X2828411Y1629724D1*
Y1922262D1*
X1528411Y2022262D2*
Y2015911D1*
X1578520Y1965802D1*
Y1579840D1*
X1534621Y1535941D1*
X1528150D1*
X1628411Y2022262D2*
Y2013091D1*
X1649520D1*
X1675481Y1987130D1*
Y1829812D1*
X1628150Y1782481D1*
Y1535941D1*
X2928411Y2022262D2*
Y2003452D1*
X2879550Y1954591D1*
Y1658041D1*
X2928150Y1609441D1*
Y1535941D1*
X1735672Y1170336D2*
X3367036D1*
X3522260Y1325561D1*
Y1698228D1*
X3657074Y1833041D1*
X3732041D1*
X1728150Y1435941D2*
X1679881Y1484210D1*
Y1779273D1*
X1728411Y1827804D1*
Y1922262D1*
Y2022262D2*
X1744399D1*
X1776161Y1990501D1*
Y1752071D1*
X1728150Y1704061D1*
Y1535941D1*
X2928411Y1922262D2*
Y1671050D1*
X2975172Y1624289D1*
Y1482964D1*
X2928150Y1435941D1*
X2879650Y1387441D1*
Y1308398D1*
X2907228Y1280821D1*
X3408973D1*
X3436550Y1308398D1*
Y2400208D1*
X3469384Y2433041D1*
X3732041D1*
X3028411Y2022262D2*
Y2010781D1*
X2979121Y1961491D1*
Y1672511D1*
X3028150Y1623482D1*
Y1535941D1*
X3128150D2*
Y1683826D1*
X3180393Y1736069D1*
Y1970280D1*
X3128411Y2022262D1*
X1141501Y3051951D2*
X1098161D1*
X981511Y2935301D1*
Y1490431D1*
X1109023Y1362919D1*
X1902150D1*
X1928150Y1388919D1*
Y1435941D1*
X1975172Y1482964D1*
Y1605155D1*
X1928411Y1651917D1*
Y1922262D1*
Y2022262D2*
X1926210D1*
X1877340Y1973392D1*
Y1586751D1*
X1928150Y1535941D1*
Y1514171D1*
X1879210Y1465231D1*
Y1390411D1*
X1132978D1*
X1096161Y1427229D1*
Y2725262D1*
X1079221Y2742201D1*
Y2748700D1*
X1975172Y1270423D2*
X1148209D1*
X905600Y1513032D1*
Y2400871D1*
X916001D1*
X2028411Y2022262D2*
X2023231D1*
X1978331Y1977361D1*
Y1690100D1*
X2028150Y1640281D1*
Y1535941D1*
X2228411Y2022262D2*
X2239830D1*
X2278130Y1983961D1*
Y1857810D1*
X2228150Y1807830D1*
Y1535941D1*
X3028150Y1435941D2*
X3075172Y1482964D1*
Y1642759D1*
X3051420Y1666511D1*
Y1798389D1*
X3028411Y1821398D1*
Y1922262D1*
X1828150Y1435941D2*
X1775172Y1488919D1*
Y1681108D1*
X1828411Y1734347D1*
Y1922262D1*
X925600Y3487161D2*
D22*
Y3682052D1*
X1145929Y3902381D1*
X1591400D1*
Y3671937D1*
X1450220Y3530757D1*
X3305571Y2366171D2*
D15*
Y1416846D1*
X3272653Y1383927D1*
X3076178D1*
X3028132Y1335881D1*
X3348221Y2313091D2*
X3339050D1*
Y1363457D1*
X3311474Y1335881D1*
X3128132D1*
X2164609Y3296130D2*
D17*
Y3033382D1*
X2222019Y2975972D1*
X2757340D1*
X2886361Y2846951D1*
X3143220D1*
X3495590Y3199321D1*
X3734611D1*
D15*
Y3216881D1*
X1475172Y1309923D2*
X1949153D1*
X2028149Y1388919D1*
X2249172D1*
X2280440Y1420187D1*
Y1796661D1*
X2283641D1*
X2028411Y1922262D2*
Y1819472D1*
X2030781D1*
X2028149Y1388919D2*
Y1435941D1*
X2028150D1*
X1228150D2*
X1145451D1*
Y1479641D1*
Y1839301D1*
X1228411Y1922262D1*
X1046428Y1622462D2*
D18*
X1020970D1*
Y2850461D1*
X1094340Y2923831D1*
X2081561D1*
Y2901920D1*
X1228150Y1535941D2*
Y1622462D1*
X1228149D1*
D16*
X746331Y1767481D3*
Y2316490D3*
X2770180Y2785911D3*
X2330321Y3505511D3*
X2823451Y2783661D3*
X2771821Y2710842D3*
X2822100Y2704762D3*
X1432210Y3254721D3*
X2612081Y3505951D3*
X2257491Y3439201D3*
X1513591Y3255210D3*
X2402371Y3437851D3*
X2259150Y3702431D3*
X1592890Y3252991D3*
X1515071Y3150842D3*
X2683581Y3568371D3*
X1795361Y3493091D3*
X1590671Y3151941D3*
X2613221Y3636371D3*
X2470411Y3638182D3*
X2470911Y3509102D3*
X1436520Y3149361D3*
X2401871Y3703331D3*
X1433031Y2881411D3*
X2542641Y3704541D3*
X1517081Y2881661D3*
X1596201Y2882321D3*
X2331680Y3636791D3*
X2258260Y3570671D3*
X1430180Y2774522D3*
X2403081Y3570661D3*
X2685031Y3700892D3*
X1514271Y2775241D3*
X2540210Y3571071D3*
X1596201Y2775231D3*
X1427411Y2509401D3*
X2685840Y3439632D3*
X1513611Y2507491D3*
X2329661Y3371481D3*
X1597890Y2510762D3*
X2470420Y3371481D3*
X1431301Y2397721D3*
X2611600Y3373911D3*
X2541020Y3438411D3*
X1514271Y2396420D3*
X1597241Y2399031D3*
X2326401Y1751972D3*
X2082481Y1748651D3*
D69*
X2452011Y2856381D3*
D16*
X1703001Y2708491D3*
X1763271Y2819451D3*
X2468661Y2929920D3*
X3264230Y3286431D3*
X3291430Y2809050D3*
X2348630Y2641511D3*
D19*
X2821001Y3224661D3*
D70*
X1255141Y3026481D3*
D20*
X1148161Y2362241D3*
X1147050Y2737052D3*
D16*
X1667046Y3401742D3*
X2661851Y3135151D3*
D20*
X2418230Y3028661D3*
D16*
X2349260Y2701361D3*
X1823106Y2433970D3*
X1819357Y2965592D3*
D19*
X2827671Y3340411D3*
D69*
X2875301Y2736941D3*
D16*
X2476781Y2739241D3*
X2329611Y2761381D3*
X2472298Y2675431D3*
X1780129Y2338340D3*
X1986571Y3142420D3*
X2164609Y3296130D3*
X2538100Y3020591D3*
X2570851Y2894552D3*
D71*
X3732531Y3486340D3*
D16*
X1334913Y1624632D3*
X3535653Y1829636D3*
X2425393D3*
X2875172Y1582962D3*
X1735672Y1170336D3*
X1141501Y3051951D3*
X1079221Y2748700D3*
X916001Y2400871D3*
X1975172Y1270423D3*
X3051420Y1666511D3*
X3305571Y2366171D3*
X3348221Y2313091D3*
X2283641Y1796661D3*
X2030781Y1819472D3*
X1475172Y1309923D3*
X1145451Y1479641D3*
X1046428Y1622462D3*
X1228149D3*
X2006730Y3486751D3*
X3217350Y2663661D3*
D20*
X849581Y2843741D3*
D70*
X586121Y3585301D3*
D20*
X979730Y3028920D3*
D19*
X3130550Y2954871D3*
D16*
X2338493Y3208554D3*
X3098910Y3155161D3*
X1203143Y3308742D2*
D18*
X1931491D1*
X1202892Y3283873D2*
X1394215D1*
X1629394D2*
X1931491D1*
X1202623Y3259004D2*
X1383970D1*
X1640931D2*
X1931491D1*
X1202372Y3234136D2*
X1388653D1*
X1637270D2*
X1931491D1*
X1202103Y3209267D2*
X1423084D1*
X1441325D2*
X1576309D1*
X1609460D2*
X1931491D1*
X1201852Y3184398D2*
X1404316D1*
X1468722D2*
X1481198D1*
X1625680D2*
X1931491D1*
X1201583Y3159529D2*
X1389227D1*
X1638473D2*
X1931491D1*
X1201331Y3134661D2*
X1390501D1*
X1635727D2*
X1931491D1*
X1201062Y3109792D2*
X1410686D1*
X1462353D2*
X1491963D1*
X1538176D2*
X1569922D1*
X1611434D2*
X1931491D1*
X1200811Y3084923D2*
X1222114D1*
X1288171D2*
X1931491D1*
X1473022Y3233667D2*
X1471736Y3231320D1*
X1470084Y3228732D1*
X1468264Y3226260D1*
X1466283Y3223916D1*
X1464149Y3221709D1*
X1461873Y3219649D1*
X1459464Y3217746D1*
X1456933Y3216009D1*
X1454292Y3214444D1*
X1451553Y3213059D1*
X1448727Y3211860D1*
X1445827Y3210852D1*
X1442867Y3210041D1*
X1439859Y3209429D1*
X1436816Y3209019D1*
X1433754Y3208814D1*
X1430684Y3208813D1*
X1427621Y3209018D1*
X1424579Y3209426D1*
X1421570Y3210037D1*
X1418609Y3210848D1*
X1415709Y3211854D1*
X1412883Y3213052D1*
X1410143Y3214436D1*
X1407501Y3216000D1*
X1404970Y3217737D1*
X1402561Y3219639D1*
X1400284Y3221697D1*
X1398149Y3223904D1*
X1396167Y3226247D1*
X1394346Y3228718D1*
X1392694Y3231306D1*
X1391218Y3233997D1*
X1389925Y3236782D1*
X1388821Y3239646D1*
X1387911Y3242578D1*
X1387199Y3245564D1*
X1386688Y3248591D1*
X1386380Y3251645D1*
X1386277Y3254713D1*
X1386379Y3257781D1*
X1386686Y3260835D1*
X1387196Y3263862D1*
X1387907Y3266848D1*
X1388816Y3269781D1*
X1389919Y3272645D1*
X1391210Y3275430D1*
X1392685Y3278122D1*
X1394337Y3280710D1*
X1396157Y3283182D1*
X1398138Y3285526D1*
X1400272Y3287733D1*
X1402548Y3289793D1*
X1404957Y3291696D1*
X1407488Y3293433D1*
X1410129Y3294998D1*
X1412868Y3296383D1*
X1415694Y3297582D1*
X1418594Y3298590D1*
X1421554Y3299401D1*
X1424562Y3300013D1*
X1427605Y3300423D1*
X1430667Y3300628D1*
X1433737Y3300629D1*
X1436800Y3300424D1*
X1439842Y3300016D1*
X1442851Y3299405D1*
X1445812Y3298594D1*
X1448712Y3297588D1*
X1451538Y3296390D1*
X1454278Y3295006D1*
X1456920Y3293442D1*
X1459451Y3291705D1*
X1461860Y3289803D1*
X1464137Y3287745D1*
X1466272Y3285538D1*
X1468254Y3283195D1*
X1470075Y3280724D1*
X1471727Y3278136D1*
X1472761Y3276252D1*
X1474066Y3278612D1*
X1475717Y3281200D1*
X1477538Y3283671D1*
X1479519Y3286016D1*
X1481653Y3288223D1*
X1483929Y3290282D1*
X1486338Y3292185D1*
X1488868Y3293923D1*
X1491509Y3295488D1*
X1494249Y3296873D1*
X1497075Y3298072D1*
X1499974Y3299079D1*
X1502935Y3299891D1*
X1505943Y3300503D1*
X1508985Y3300912D1*
X1512048Y3301118D1*
X1515118D1*
X1518181Y3300914D1*
X1521223Y3300505D1*
X1524231Y3299894D1*
X1527192Y3299084D1*
X1530092Y3298078D1*
X1532919Y3296880D1*
X1535659Y3295496D1*
X1538300Y3293932D1*
X1540831Y3292195D1*
X1543241Y3290293D1*
X1545518Y3288234D1*
X1547652Y3286028D1*
X1549634Y3283684D1*
X1551456Y3281213D1*
X1553108Y3278626D1*
X1553873Y3277230D1*
X1555016Y3278980D1*
X1556837Y3281452D1*
X1558818Y3283797D1*
X1560952Y3286004D1*
X1563228Y3288063D1*
X1565637Y3289966D1*
X1568167Y3291704D1*
X1570808Y3293269D1*
X1573548Y3294654D1*
X1576374Y3295852D1*
X1579274Y3296860D1*
X1582234Y3297671D1*
X1585242Y3298283D1*
X1588284Y3298693D1*
X1591347Y3298899D1*
X1594417D1*
X1597480Y3298695D1*
X1600522Y3298286D1*
X1603531Y3297675D1*
X1606491Y3296865D1*
X1609391Y3295858D1*
X1612218Y3294660D1*
X1614958Y3293277D1*
X1617599Y3291713D1*
X1620130Y3289976D1*
X1622540Y3288074D1*
X1624817Y3286015D1*
X1626951Y3283809D1*
X1628934Y3281465D1*
X1630755Y3278994D1*
X1632407Y3276407D1*
X1633883Y3273715D1*
X1635176Y3270931D1*
X1636279Y3268066D1*
X1637189Y3265135D1*
X1637902Y3262149D1*
X1638413Y3259122D1*
X1638721Y3256068D1*
X1638824Y3252991D1*
X1638722Y3249931D1*
X1638415Y3246877D1*
X1637905Y3243850D1*
X1637194Y3240864D1*
X1636285Y3237932D1*
X1635182Y3235067D1*
X1633890Y3232282D1*
X1632416Y3229590D1*
X1630764Y3227002D1*
X1628944Y3224531D1*
X1626962Y3222186D1*
X1624829Y3219979D1*
X1622552Y3217920D1*
X1620144Y3216017D1*
X1617613Y3214279D1*
X1614972Y3212714D1*
X1612233Y3211329D1*
X1609407Y3210130D1*
X1606507Y3209123D1*
X1603547Y3208311D1*
X1600538Y3207699D1*
X1597496Y3207290D1*
X1594433Y3207084D1*
X1591364Y3207083D1*
X1588301Y3207288D1*
X1585258Y3207696D1*
X1582250Y3208307D1*
X1579289Y3209118D1*
X1576389Y3210124D1*
X1573563Y3211322D1*
X1570823Y3212706D1*
X1568181Y3214270D1*
X1565650Y3216007D1*
X1563241Y3217909D1*
X1560964Y3219968D1*
X1558829Y3222174D1*
X1556847Y3224518D1*
X1555026Y3226989D1*
X1553373Y3229576D1*
X1552608Y3230972D1*
X1551465Y3229221D1*
X1549645Y3226750D1*
X1547663Y3224405D1*
X1545529Y3222198D1*
X1543253Y3220139D1*
X1540844Y3218236D1*
X1538314Y3216498D1*
X1535673Y3214933D1*
X1532933Y3213548D1*
X1530108Y3212349D1*
X1527208Y3211342D1*
X1524247Y3210530D1*
X1521239Y3209918D1*
X1518197Y3209509D1*
X1515134Y3209303D1*
X1512064D1*
X1509001Y3209507D1*
X1505959Y3209916D1*
X1502951Y3210527D1*
X1499990Y3211337D1*
X1497090Y3212343D1*
X1494264Y3213541D1*
X1491524Y3214925D1*
X1488882Y3216489D1*
X1486351Y3218226D1*
X1483941Y3220128D1*
X1481664Y3222187D1*
X1479530Y3224393D1*
X1477548Y3226737D1*
X1475726Y3229208D1*
X1474074Y3231795D1*
X1473041Y3233680D1*
X1553240Y3125315D2*
X1552945Y3124853D1*
X1551125Y3122381D1*
X1549143Y3120036D1*
X1547010Y3117829D1*
X1544733Y3115770D1*
X1542325Y3113867D1*
X1539794Y3112129D1*
X1537153Y3110564D1*
X1534414Y3109179D1*
X1531588Y3107981D1*
X1528688Y3106973D1*
X1525728Y3106162D1*
X1522720Y3105550D1*
X1519677Y3105140D1*
X1516614Y3104934D1*
X1513545D1*
X1510482Y3105138D1*
X1507439Y3105547D1*
X1504431Y3106158D1*
X1501470Y3106968D1*
X1498570Y3107975D1*
X1495744Y3109173D1*
X1493004Y3110557D1*
X1490362Y3112120D1*
X1487831Y3113857D1*
X1485422Y3115759D1*
X1483145Y3117818D1*
X1481010Y3120024D1*
X1479028Y3122368D1*
X1477207Y3124839D1*
X1476260Y3126322D1*
X1474394Y3123372D1*
X1472574Y3120901D1*
X1470592Y3118556D1*
X1468459Y3116349D1*
X1466182Y3114290D1*
X1463774Y3112387D1*
X1461243Y3110649D1*
X1458602Y3109084D1*
X1455863Y3107699D1*
X1453037Y3106500D1*
X1450137Y3105493D1*
X1447176Y3104681D1*
X1444168Y3104069D1*
X1441126Y3103660D1*
X1438063Y3103454D1*
X1434994Y3103453D1*
X1431931Y3103658D1*
X1428888Y3104067D1*
X1425880Y3104677D1*
X1422919Y3105488D1*
X1420019Y3106494D1*
X1417193Y3107692D1*
X1414453Y3109076D1*
X1411811Y3110640D1*
X1409280Y3112377D1*
X1406871Y3114279D1*
X1404594Y3116338D1*
X1402459Y3118544D1*
X1400477Y3120888D1*
X1398655Y3123359D1*
X1397003Y3125946D1*
X1395528Y3128638D1*
X1394235Y3131422D1*
X1393131Y3134286D1*
X1392221Y3137218D1*
X1391509Y3140204D1*
X1390998Y3143231D1*
X1390690Y3146285D1*
X1390587Y3149353D1*
X1390689Y3152421D1*
X1390996Y3155476D1*
X1391506Y3158503D1*
X1392217Y3161489D1*
X1393126Y3164421D1*
X1394229Y3167286D1*
X1395520Y3170071D1*
X1396995Y3172763D1*
X1398646Y3175351D1*
X1400467Y3177822D1*
X1402448Y3180167D1*
X1404582Y3182374D1*
X1406858Y3184433D1*
X1409267Y3186336D1*
X1411797Y3188074D1*
X1414438Y3189639D1*
X1417178Y3191024D1*
X1420004Y3192223D1*
X1422903Y3193230D1*
X1425864Y3194042D1*
X1428872Y3194654D1*
X1431914Y3195063D1*
X1434977Y3195269D1*
X1438047D1*
X1441110Y3195065D1*
X1444152Y3194656D1*
X1447161Y3194045D1*
X1450121Y3193235D1*
X1453021Y3192228D1*
X1455848Y3191031D1*
X1458588Y3189647D1*
X1461229Y3188083D1*
X1463760Y3186346D1*
X1466170Y3184444D1*
X1468447Y3182385D1*
X1470581Y3180179D1*
X1472564Y3177835D1*
X1474385Y3175364D1*
X1475332Y3173881D1*
X1477197Y3176831D1*
X1479018Y3179302D1*
X1480999Y3181647D1*
X1483133Y3183854D1*
X1485409Y3185914D1*
X1487818Y3187816D1*
X1490349Y3189554D1*
X1492989Y3191119D1*
X1495729Y3192504D1*
X1498555Y3193703D1*
X1501455Y3194710D1*
X1504415Y3195522D1*
X1507423Y3196134D1*
X1510466Y3196544D1*
X1513528Y3196749D1*
X1516598Y3196750D1*
X1519661Y3196545D1*
X1522703Y3196137D1*
X1525712Y3195526D1*
X1528673Y3194715D1*
X1531573Y3193709D1*
X1534399Y3192511D1*
X1537139Y3191127D1*
X1539780Y3189563D1*
X1542312Y3187826D1*
X1544721Y3185924D1*
X1546998Y3183865D1*
X1549132Y3181659D1*
X1551115Y3179315D1*
X1552479Y3177464D1*
X1554618Y3180402D1*
X1556599Y3182747D1*
X1558733Y3184954D1*
X1561009Y3187013D1*
X1563418Y3188916D1*
X1565948Y3190654D1*
X1568589Y3192219D1*
X1571329Y3193604D1*
X1574155Y3194803D1*
X1577054Y3195810D1*
X1580015Y3196622D1*
X1583023Y3197234D1*
X1586065Y3197643D1*
X1589128Y3197849D1*
X1592198D1*
X1595261Y3197645D1*
X1598303Y3197236D1*
X1601311Y3196625D1*
X1604272Y3195815D1*
X1607172Y3194809D1*
X1609999Y3193611D1*
X1612739Y3192227D1*
X1615380Y3190663D1*
X1617911Y3188926D1*
X1620321Y3187024D1*
X1622598Y3184965D1*
X1624732Y3182759D1*
X1626715Y3180415D1*
X1628536Y3177944D1*
X1630188Y3175357D1*
X1631664Y3172665D1*
X1632956Y3169881D1*
X1634060Y3167016D1*
X1634970Y3164085D1*
X1635682Y3161099D1*
X1636194Y3158072D1*
X1636501Y3155018D1*
X1636604Y3151941D1*
X1636502Y3148882D1*
X1636196Y3145827D1*
X1635686Y3142800D1*
X1634975Y3139814D1*
X1634066Y3136882D1*
X1632963Y3134017D1*
X1631671Y3131232D1*
X1630196Y3128540D1*
X1628545Y3125952D1*
X1626725Y3123481D1*
X1624743Y3121136D1*
X1622610Y3118929D1*
X1620333Y3116870D1*
X1617924Y3114967D1*
X1615394Y3113229D1*
X1612753Y3111664D1*
X1610013Y3110279D1*
X1607188Y3109080D1*
X1604288Y3108073D1*
X1601327Y3107261D1*
X1598319Y3106649D1*
X1595277Y3106240D1*
X1592214Y3106034D1*
X1589144D1*
X1586082Y3106238D1*
X1583039Y3106647D1*
X1580031Y3107258D1*
X1577070Y3108068D1*
X1574170Y3109074D1*
X1571344Y3110272D1*
X1568604Y3111656D1*
X1565962Y3113220D1*
X1563431Y3114957D1*
X1561022Y3116859D1*
X1558745Y3118918D1*
X1556610Y3121124D1*
X1554628Y3123468D1*
X1553264Y3125319D1*
X1201251Y3064359D2*
X1201788Y3065220D1*
X1207699Y3072268D1*
X1214533Y3078425D1*
X1222157Y3083571D1*
X1230424Y3087606D1*
X1239171Y3090451D1*
X1248229Y3092051D1*
X1257422Y3092375D1*
X1266571Y3091416D1*
X1275497Y3089193D1*
X1284027Y3085750D1*
X1291994Y3081153D1*
X1299244Y3075492D1*
X1305636Y3068877D1*
X1308916Y3064365D1*
X1933995Y3064361D1*
X1933991Y3332105D1*
X1836393Y3332295D1*
X1200912Y3333586D1*
X1198093Y3064358D1*
X1201173Y3064361D1*
X1432210Y3300618D2*
D15*
Y3208824D1*
X1386313Y3254721D2*
X1432210D1*
X1513591Y3301108D2*
Y3209313D1*
X1592890Y3298889D2*
Y3207094D1*
Y3252991D2*
X1638788D1*
X1515071Y3196739D2*
Y3104944D1*
X1590671Y3197839D2*
Y3106044D1*
Y3151941D2*
X1636569D1*
X1436520Y3195259D2*
Y3103464D1*
X1390623Y3149361D2*
X1436520D1*
D23*
X1956070Y3741686D3*
D25*
Y3938536D3*
D35*
X553790Y3302471D3*
D37*
X553801Y3202471D3*
D35*
X553710Y3056210D3*
D37*
Y2956210D3*
D35*
X553727Y2809450D3*
D37*
X553738Y2709450D3*
D35*
X3734611Y3216881D3*
D37*
Y3316881D3*
D35*
X3734822Y2970120D3*
D37*
Y3070120D3*
D35*
X3734420Y2723351D3*
D37*
Y2823351D3*
D35*
X553399Y2562620D3*
D37*
Y2462620D3*
D35*
X554191Y2316490D3*
D37*
Y2216490D3*
D35*
X553999Y2069090D3*
D37*
Y1969090D3*
D40*
X1450220Y3530757D3*
D42*
X1261244Y3644930D3*
D43*
X1450220Y3778789D3*
D44*
X1228150Y1535941D3*
D46*
X1328150D3*
X1428150D3*
X1528150D3*
X1628150D3*
X1728150D3*
X1828150D3*
X1928150D3*
X2028150D3*
X2128150D3*
X2228150D3*
X2328150D3*
X2428150D3*
X2528150D3*
X2628150D3*
X2728150D3*
X2828150D3*
X2928150D3*
X3028150D3*
X3128150D3*
X1228150Y1435941D3*
X1328150D3*
X1428150D3*
X1528150D3*
X1628150D3*
X1728150D3*
X1828150D3*
X1928150D3*
X2028150D3*
X2128150D3*
X2228150D3*
X2328150D3*
X2428150D3*
X2528150D3*
X2628150D3*
X2728150D3*
X2828150D3*
X2928150D3*
X3028150D3*
X3128150D3*
D47*
X802901Y1332210D3*
D49*
Y1232210D3*
Y1132210D3*
Y1032210D3*
D50*
X3028132Y1335881D3*
D52*
X3128132D3*
D35*
X3732041Y1633041D3*
D37*
Y1733041D3*
Y1833041D3*
Y1933041D3*
Y2033041D3*
Y2133041D3*
Y2233041D3*
Y2333041D3*
Y2433041D3*
Y2533041D3*
D35*
X3731591Y556671D3*
D37*
Y656671D3*
Y756671D3*
Y856671D3*
Y956671D3*
Y1056671D3*
Y1156671D3*
Y1256671D3*
Y1356671D3*
Y1456671D3*
D50*
X2081561Y2901920D3*
D52*
X2181561D3*
D54*
X1228411Y1922262D3*
Y2022262D3*
X1328411Y1922262D3*
Y2022262D3*
X1428411Y1922262D3*
Y2022262D3*
X1528411Y1922262D3*
Y2022262D3*
X1628411D3*
Y1922262D3*
X1728411Y2022262D3*
Y1922262D3*
X1828411Y2022262D3*
Y1922262D3*
X1928411D3*
Y2022262D3*
X2028411Y1922262D3*
Y2022262D3*
X2128411Y1922262D3*
Y2022262D3*
X2228411Y1922262D3*
Y2022262D3*
X2328411Y1922262D3*
Y2022262D3*
X2428411Y1922262D3*
Y2022262D3*
X2528411Y1922262D3*
Y2022262D3*
X2628411Y1922262D3*
Y2022262D3*
X2728411Y1922262D3*
Y2022262D3*
X2828411Y1922262D3*
Y2022262D3*
X2928411Y1922262D3*
Y2022262D3*
X3028411Y1922262D3*
Y2022262D3*
X3128411Y1922262D3*
Y2022262D3*
D56*
X3321251Y579361D3*
X3768570Y3952611D3*
X526991D3*
X1035461Y577731D3*
D63*
X740561Y3487161D3*
D65*
X925600D3*
X1110640D3*
X825600Y3987161D3*
X1025600D3*
M02*
