G04 DipTrace 4.3.0.5*
G04 BottomMask.gbr*
%MOIN*%
G04 #@! TF.FileFunction,Soldermask,Bot*
G04 #@! TF.Part,Single*
%ADD97C,0.113189*%
%ADD101R,0.113189X0.113189*%
%ADD115C,0.203937*%
%ADD119C,0.068898*%
%ADD120C,0.061024*%
%ADD125R,0.061024X0.061024*%
%ADD127C,0.067323*%
%ADD131R,0.067323X0.067323*%
%ADD133C,0.058976*%
%ADD137R,0.058976X0.058976*%
%ADD139O,0.161417X0.082677*%
%ADD141O,0.082677X0.161417*%
%ADD144O,0.177165X0.090551*%
%ADD146O,0.102362X0.07874*%
%ADD149R,0.102362X0.07874*%
%ADD163C,0.051181*%
%ADD164R,0.051181X0.051181*%
%FSLAX26Y26*%
G04*
G70*
G90*
G75*
G01*
G04 BotMask*
%LPD*%
D164*
X1956070Y3741686D3*
D163*
Y3938536D3*
D149*
X553790Y3302471D3*
D146*
X553801Y3202471D3*
D149*
X553710Y3056210D3*
D146*
Y2956210D3*
D149*
X553727Y2809450D3*
D146*
X553738Y2709450D3*
D149*
X3734611Y3216881D3*
D146*
Y3316881D3*
D149*
X3734822Y2970120D3*
D146*
Y3070120D3*
D149*
X3734420Y2723351D3*
D146*
Y2823351D3*
D149*
X553399Y2562620D3*
D146*
Y2462620D3*
D149*
X554191Y2316490D3*
D146*
Y2216490D3*
D149*
X553999Y2069090D3*
D146*
Y1969090D3*
D144*
X1450220Y3530757D3*
D141*
X1261244Y3644930D3*
D139*
X1450220Y3778789D3*
D137*
X1228150Y1535941D3*
D133*
X1328150D3*
X1428150D3*
X1528150D3*
X1628150D3*
X1728150D3*
X1828150D3*
X1928150D3*
X2028150D3*
X2128150D3*
X2228150D3*
X2328150D3*
X2428150D3*
X2528150D3*
X2628150D3*
X2728150D3*
X2828150D3*
X2928150D3*
X3028150D3*
X3128150D3*
X1228150Y1435941D3*
X1328150D3*
X1428150D3*
X1528150D3*
X1628150D3*
X1728150D3*
X1828150D3*
X1928150D3*
X2028150D3*
X2128150D3*
X2228150D3*
X2328150D3*
X2428150D3*
X2528150D3*
X2628150D3*
X2728150D3*
X2828150D3*
X2928150D3*
X3028150D3*
X3128150D3*
D131*
X802901Y1332210D3*
D127*
Y1232210D3*
Y1132210D3*
Y1032210D3*
D125*
X3028132Y1335881D3*
D120*
X3128132D3*
D149*
X3732041Y1633041D3*
D146*
Y1733041D3*
Y1833041D3*
Y1933041D3*
Y2033041D3*
Y2133041D3*
Y2233041D3*
Y2333041D3*
Y2433041D3*
Y2533041D3*
D149*
X3731591Y556671D3*
D146*
Y656671D3*
Y756671D3*
Y856671D3*
Y956671D3*
Y1056671D3*
Y1156671D3*
Y1256671D3*
Y1356671D3*
Y1456671D3*
D125*
X2081561Y2901920D3*
D120*
X2181561D3*
D119*
X1228411Y1922262D3*
Y2022262D3*
X1328411Y1922262D3*
Y2022262D3*
X1428411Y1922262D3*
Y2022262D3*
X1528411Y1922262D3*
Y2022262D3*
X1628411D3*
Y1922262D3*
X1728411Y2022262D3*
Y1922262D3*
X1828411Y2022262D3*
Y1922262D3*
X1928411D3*
Y2022262D3*
X2028411Y1922262D3*
Y2022262D3*
X2128411Y1922262D3*
Y2022262D3*
X2228411Y1922262D3*
Y2022262D3*
X2328411Y1922262D3*
Y2022262D3*
X2428411Y1922262D3*
Y2022262D3*
X2528411Y1922262D3*
Y2022262D3*
X2628411Y1922262D3*
Y2022262D3*
X2728411Y1922262D3*
Y2022262D3*
X2828411Y1922262D3*
Y2022262D3*
X2928411Y1922262D3*
Y2022262D3*
X3028411Y1922262D3*
Y2022262D3*
X3128411Y1922262D3*
Y2022262D3*
D115*
X3321251Y579361D3*
X3768570Y3952611D3*
X526991D3*
X1035461Y577731D3*
D101*
X740561Y3487161D3*
D97*
X925600D3*
X1110640D3*
X825600Y3987161D3*
X1025600D3*
M02*
