G04 DipTrace 4.3.0.5*
G04 BottomSilk.gbr*
%MOIN*%
G04 #@! TF.FileFunction,Legend,Bot*
G04 #@! TF.Part,Single*
%ADD167C,0.010807*%
%FSLAX26Y26*%
G04*
G70*
G90*
G75*
G01*
G04 BotSilk*
%LPD*%
X2869126Y885535D2*
D167*
X2839026D1*
X2828967Y888939D1*
X2825562Y892267D1*
X2822235Y898921D1*
Y905653D1*
X2825562Y912307D1*
X2828967Y915712D1*
X2839026Y919039D1*
X2869126D1*
Y848703D1*
X2845680Y885535D2*
X2822235Y848703D1*
X2746998D2*
X2773848Y919039D1*
X2800620Y848703D1*
X2790561Y872149D2*
X2757057D1*
X2678492Y908980D2*
X2685146Y915712D1*
X2695205Y919039D1*
X2708592D1*
X2718651Y915712D1*
X2725383Y908980D1*
Y902326D1*
X2721978Y895594D1*
X2718651Y892267D1*
X2711996Y888939D1*
X2691878Y882208D1*
X2685146Y878880D1*
X2681819Y875476D1*
X2678492Y868821D1*
Y858762D1*
X2685146Y852108D1*
X2695205Y848703D1*
X2708592D1*
X2718651Y852108D1*
X2725383Y858762D1*
X2656877Y882208D2*
X2626700D1*
X2616718Y885535D1*
X2613314Y888939D1*
X2609986Y895594D1*
Y905653D1*
X2613314Y912307D1*
X2616718Y915712D1*
X2626700Y919039D1*
X2656877D1*
Y848703D1*
X2588371Y919039D2*
Y848703D1*
X2558194D1*
X2548135Y852108D1*
X2544808Y855435D1*
X2541481Y862089D1*
Y872149D1*
X2544808Y878880D1*
X2548135Y882208D1*
X2558194Y885535D1*
X2548135Y888939D1*
X2544808Y892267D1*
X2541481Y898921D1*
Y905653D1*
X2544808Y912307D1*
X2548135Y915712D1*
X2558194Y919039D1*
X2588371D1*
Y885535D2*
X2558194D1*
X2476380Y919039D2*
X2519866D1*
Y848703D1*
X2476380D1*
X2519866Y885535D2*
X2493093D1*
X2454765D2*
X2424665D1*
X2414606Y888939D1*
X2411201Y892267D1*
X2407874Y898921D1*
Y905653D1*
X2411201Y912307D1*
X2414606Y915712D1*
X2424665Y919039D1*
X2454765D1*
Y848703D1*
X2431319Y885535D2*
X2407874Y848703D1*
X2386259Y885535D2*
X2356159D1*
X2346100Y888939D1*
X2342696Y892267D1*
X2339368Y898921D1*
Y905653D1*
X2342696Y912307D1*
X2346100Y915712D1*
X2356159Y919039D1*
X2386259D1*
Y848703D1*
X2362814Y885535D2*
X2339368Y848703D1*
X2317754Y919039D2*
X2290981Y885535D1*
Y848703D1*
X2264208Y919039D2*
X2290981Y885535D1*
X2174552Y882208D2*
X2144375D1*
X2134393Y885535D1*
X2130989Y888939D1*
X2127661Y895594D1*
Y905653D1*
X2130989Y912307D1*
X2134393Y915712D1*
X2144375Y919039D1*
X2174552D1*
Y848703D1*
X2106046Y919039D2*
Y848703D1*
X2016390Y919039D2*
X1969500D1*
X2016390Y848703D1*
X1969500D1*
X1904398Y919039D2*
X1947885D1*
Y848703D1*
X1904398D1*
X1947885Y885535D2*
X1921112D1*
X1882784D2*
X1852684D1*
X1842625Y888939D1*
X1839220Y892267D1*
X1835893Y898921D1*
Y905653D1*
X1839220Y912307D1*
X1842625Y915712D1*
X1852684Y919039D1*
X1882784D1*
Y848703D1*
X1859338Y885535D2*
X1835893Y848703D1*
X1794160Y919039D2*
X1800892Y915712D1*
X1807546Y908980D1*
X1810951Y902326D1*
X1814278Y892267D1*
Y875476D1*
X1810951Y865494D1*
X1807546Y858762D1*
X1800892Y852108D1*
X1794160Y848703D1*
X1780774D1*
X1774119Y852108D1*
X1767387Y858762D1*
X1764060Y865494D1*
X1760733Y875476D1*
Y892267D1*
X1764060Y902326D1*
X1767387Y908980D1*
X1774119Y915712D1*
X1780774Y919039D1*
X1794160D1*
X1671077D2*
Y848703D1*
X1624186Y919039D2*
Y848703D1*
X1671077Y885535D2*
X1624186D1*
X1602571Y919039D2*
Y868821D1*
X1599244Y858762D1*
X1592512Y852108D1*
X1582453Y848703D1*
X1575798D1*
X1565739Y852108D1*
X1559007Y858762D1*
X1555680Y868821D1*
Y919039D1*
X1534065D2*
Y848703D1*
X1503888D1*
X1493829Y852108D1*
X1490502Y855435D1*
X1487175Y862089D1*
Y872149D1*
X1490502Y878880D1*
X1493829Y882208D1*
X1503888Y885535D1*
X1493829Y888939D1*
X1490502Y892267D1*
X1487175Y898921D1*
Y905653D1*
X1490502Y912307D1*
X1493829Y915712D1*
X1503888Y919039D1*
X1534065D1*
Y885535D2*
X1503888D1*
X2340000Y758092D2*
X2309900D1*
X2299841Y761496D1*
X2296436Y764823D1*
X2293109Y771478D1*
Y778210D1*
X2296436Y784864D1*
X2299841Y788269D1*
X2309900Y791596D1*
X2340000D1*
Y721260D1*
X2316554Y758092D2*
X2293109Y721260D1*
X2228008Y791596D2*
X2271494D1*
Y721260D1*
X2228008D1*
X2271494Y758092D2*
X2244721D1*
X2206393Y791596D2*
X2179620Y721260D1*
X2152848Y791596D1*
X2063191D2*
Y721260D1*
X2033014D1*
X2022955Y724665D1*
X2019628Y727992D1*
X2016301Y734646D1*
Y744705D1*
X2019628Y751437D1*
X2022955Y754764D1*
X2033014Y758092D1*
X2022955Y761496D1*
X2019628Y764823D1*
X2016301Y771478D1*
Y778210D1*
X2019628Y784864D1*
X2022955Y788269D1*
X2033014Y791596D1*
X2063191D1*
Y758092D2*
X2033014D1*
X2484800Y647362D2*
Y650689D1*
X2481473Y657421D1*
X2478146Y660748D1*
X2471414Y664076D1*
X2458028D1*
X2451373Y660748D1*
X2448046Y657421D1*
X2444642Y650689D1*
Y644035D1*
X2448046Y637303D1*
X2454701Y627321D1*
X2488205Y593817D1*
X2441314D1*
X2399581Y664076D2*
X2409640Y660748D1*
X2416372Y650689D1*
X2419699Y633976D1*
Y623917D1*
X2416372Y607203D1*
X2409640Y597144D1*
X2399581Y593817D1*
X2392927D1*
X2382868Y597144D1*
X2376213Y607203D1*
X2372809Y623917D1*
Y633976D1*
X2376213Y650689D1*
X2382868Y660748D1*
X2392927Y664076D1*
X2399581D1*
X2376213Y650689D2*
X2416372Y607203D1*
X2347789Y647362D2*
Y650689D1*
X2344462Y657421D1*
X2341135Y660748D1*
X2334403Y664076D1*
X2321017D1*
X2314362Y660748D1*
X2311035Y657421D1*
X2307630Y650689D1*
Y644035D1*
X2311035Y637303D1*
X2317689Y627321D1*
X2351194Y593817D1*
X2304303D1*
X2249184D2*
Y664076D1*
X2282688Y617262D1*
X2232470D1*
X2210855Y628946D2*
X2172167D1*
X2130434Y664076D2*
X2140493Y660748D1*
X2147225Y650689D1*
X2150552Y633976D1*
Y623917D1*
X2147225Y607203D1*
X2140493Y597144D1*
X2130434Y593817D1*
X2123779D1*
X2113720Y597144D1*
X2107066Y607203D1*
X2103661Y623917D1*
Y633976D1*
X2107066Y650689D1*
X2113720Y660748D1*
X2123779Y664076D1*
X2130434D1*
X2107066Y650689D2*
X2147225Y607203D1*
X2065333Y664076D2*
X2075314Y660748D1*
X2078719Y654094D1*
Y647362D1*
X2075314Y640708D1*
X2068660Y637303D1*
X2055274Y633976D1*
X2045215Y630649D1*
X2038560Y623917D1*
X2035233Y617262D1*
Y607203D1*
X2038560Y600549D1*
X2041887Y597144D1*
X2051946Y593817D1*
X2065333D1*
X2075314Y597144D1*
X2078719Y600549D1*
X2082046Y607203D1*
Y617262D1*
X2078719Y623917D1*
X2071987Y630649D1*
X2062005Y633976D1*
X2048619Y637303D1*
X2041887Y640708D1*
X2038560Y647362D1*
Y654094D1*
X2041887Y660748D1*
X2051946Y664076D1*
X2065333D1*
X2013618Y628946D2*
X1974929D1*
X1953314Y650689D2*
X1946582Y654094D1*
X1936523Y664076D1*
Y593817D1*
X1898195Y664076D2*
X1908177Y660748D1*
X1911581Y654094D1*
Y647362D1*
X1908177Y640708D1*
X1901522Y637303D1*
X1888136Y633976D1*
X1878077Y630649D1*
X1871422Y623917D1*
X1868095Y617262D1*
Y607203D1*
X1871422Y600549D1*
X1874750Y597144D1*
X1884809Y593817D1*
X1898195D1*
X1908177Y597144D1*
X1911581Y600549D1*
X1914908Y607203D1*
Y617262D1*
X1911581Y623917D1*
X1904849Y630649D1*
X1894868Y633976D1*
X1881481Y637303D1*
X1874750Y640708D1*
X1871422Y647362D1*
Y654094D1*
X1874750Y660748D1*
X1884809Y664076D1*
X1898195D1*
M02*
