M48
INCH
T01C0.019
T02C0.025
T03C0.03
T04C0.0315
T05C0.035
T06C0.0394
T07C0.04
T08C0.0421
T09C0.0433
T10C0.05
T11C0.0512
T12C0.0728
T13C0.08
T14C0.1285
%
T01
X+027702Y+027859
X+028235Y+027837
X+028221Y+027048
X+027718Y+027108
X+025709Y+028946
X+024687Y+029299
X+025381Y+030206
X+026619Y+031352
X+026116Y+033739
X+025410Y+034384
X+024704Y+033715
X+024024Y+034379
X+023297Y+033715
X+022575Y+034392
X+023303Y+035055
X+022583Y+035707
X+023317Y+036368
X+024019Y+037033
X+024704Y+036382
X+024031Y+035707
X+024709Y+035091
X+025402Y+035711
X+026121Y+035060
X+026836Y+035684
X+026132Y+036364
X+026850Y+037009
X+025426Y+037045
X+022592Y+037024
X+020067Y+034868
X+017954Y+034931
X+016670Y+034017
X+015929Y+032530
X+015136Y+032552
X+014322Y+032547
X+014365Y+031494
X+015151Y+031508
X+015907Y+031519
X+015962Y+028823
X+015171Y+028817
X+014330Y+028814
X+014302Y+027745
X+015143Y+027752
X+015962Y+027752
X+017030Y+027085
X+017633Y+028195
X+018194Y+029656
X+019866Y+031424
X+021646Y+032961
X+023385Y+032086
X+026858Y+034396
X+030989Y+031552
X+032642Y+032864
X+032914Y+028091
X+032173Y+026637
X+033056Y+023662
X+033482Y+023131
X+035357Y+018296
X+030514Y+016665
X+028752Y+015830
X+024254Y+018296
X+023264Y+017520
X+022836Y+017967
X+020825Y+017487
X+020308Y+018195
X+019752Y+012704
X+017357Y+011703
X+014752Y+013099
X+013349Y+016246
X+012281Y+016225
X+011455Y+014796
X+010464Y+016225
X+007463Y+017675
X+007463Y+023165
X+009160Y+024009
X+010792Y+027487
X+011415Y+030520
X+014274Y+025094
X+015136Y+025075
X+015979Y+025108
X+015972Y+023990
X+015143Y+023964
X+014313Y+023977
X+017801Y+023383
X+018231Y+024340
X+023486Y+026415
X+023493Y+027014
X+023296Y+027614
X+024723Y+026754
T02
X+011482Y+023622
X+011471Y+027371
X+008496Y+028437
X+009797Y+030289
X+024182Y+030287
X+024768Y+027392
T03
X+028753Y+027369
T04
X+019561Y+037417
X+019561Y+039385
T05
X+012282Y+015359
X+012282Y+014359
X+013282Y+014359
X+013282Y+015359
X+014282Y+015359
X+015282Y+015359
X+016282Y+015359
X+016282Y+014359
X+015282Y+014359
X+014282Y+014359
X+017282Y+014359
X+018282Y+014359
X+018282Y+015359
X+017282Y+015359
X+019282Y+015359
X+019282Y+014359
X+020282Y+014359
X+020282Y+015359
X+021282Y+015359
X+022282Y+015359
X+022282Y+014359
X+021282Y+014359
X+023282Y+014359
X+023282Y+015359
X+024282Y+015359
X+025282Y+015359
X+026282Y+015359
X+026282Y+014359
X+025282Y+014359
X+024282Y+014359
X+027282Y+014359
X+027282Y+015359
X+028282Y+015359
X+029282Y+015359
X+029282Y+014359
X+028282Y+014359
X+030282Y+014359
X+030282Y+015359
X+031282Y+015359
X+031282Y+014359
T06
X+013990Y+035308G85X+015014Y+035308
X+012612Y+036016G85X+012612Y+036882
X+014069Y+037788G85X+014935Y+037788
T07
X+024520Y+028564
X+012551Y+030265
X+005861Y+035853
T08
X+008029Y+013322
X+008029Y+012322
X+008029Y+011322
X+008029Y+010322
T09
X+030281Y+013359
X+031281Y+013359
X+031284Y+019223
X+030284Y+019223
X+030284Y+020223
X+031284Y+020223
X+029284Y+020223
X+028284Y+020223
X+027284Y+020223
X+027284Y+019223
X+028284Y+019223
X+029284Y+019223
X+026284Y+019223
X+025284Y+019223
X+024284Y+019223
X+024284Y+020223
X+025284Y+020223
X+026284Y+020223
X+023284Y+020223
X+022284Y+020223
X+022284Y+019223
X+021284Y+019223
X+021284Y+020223
X+020284Y+020223
X+020284Y+019223
X+019284Y+019223
X+018284Y+019223
X+017284Y+019223
X+017284Y+020223
X+018284Y+020223
X+019284Y+020223
X+016284Y+020223
X+016284Y+019223
X+015284Y+019223
X+014284Y+019223
X+014284Y+020223
X+015284Y+020223
X+013284Y+020223
X+012284Y+020223
X+012284Y+019223
X+013284Y+019223
X+023284Y+019223
X+021816Y+029019
X+020816Y+029019
T10
X+028210Y+032247
X+028277Y+033404
X+031306Y+029549
T11
X+005538Y+033025
X+005538Y+032025
X+005537Y+030562
X+005537Y+029562
X+005537Y+028095
X+005537Y+027095
X+005534Y+025626
X+005534Y+024626
X+005542Y+023165
X+005542Y+022165
X+005540Y+020691
X+005540Y+019691
X+037320Y+019330
X+037320Y+020330
X+037320Y+021330
X+037320Y+022330
X+037320Y+023330
X+037320Y+024330
X+037320Y+025330
X+037344Y+027234
X+037344Y+028234
X+037348Y+029701
X+037348Y+030701
X+037346Y+032169
X+037346Y+033169
X+037320Y+018330
X+037320Y+017330
X+037320Y+016330
X+037316Y+014567
X+037316Y+013567
X+037316Y+012567
X+037316Y+011567
X+037316Y+010567
X+037316Y+009567
X+037316Y+008567
X+037316Y+007567
X+037316Y+006567
X+037316Y+005567
T12
X+007406Y+034872
X+009256Y+034872
X+011106Y+034872
X+010256Y+039872
X+008256Y+039872
T13
X+037325Y+034863
T14
X+033213Y+005794
X+010355Y+005777
X+005270Y+039526
X+037686Y+039526
T00
M30
