G04 DipTrace 4.3.0.5*
G04 TopAssembly.gbr*
%MOIN*%
G04 #@! TF.FileFunction,Drawing,Top*
G04 #@! TF.Part,Single*
%ADD13C,0.004724*%
%ADD26C,0.005*%
%ADD38C,0.003937*%
%ADD166C,0.006176*%
%FSLAX26Y26*%
G04*
G70*
G90*
G75*
G01*
G04 TopAssy*
%LPD*%
X1749377Y3840111D2*
D13*
G02X1749377Y3840111I206693J0D01*
G01*
G36*
X1789315Y3653671D2*
X1786746Y3653840D1*
X1784221Y3654342D1*
X1781782Y3655170D1*
X1779473Y3656308D1*
X1777332Y3657739D1*
X1775396Y3659437D1*
X1773698Y3661373D1*
X1772268Y3663514D1*
X1771129Y3665823D1*
X1770301Y3668261D1*
X1769799Y3670787D1*
X1769630Y3673356D1*
X1769799Y3675926D1*
X1770301Y3678451D1*
X1771129Y3680889D1*
X1772268Y3683199D1*
X1773698Y3685340D1*
X1775396Y3687276D1*
X1777332Y3688973D1*
X1779473Y3690404D1*
X1781782Y3691543D1*
X1784221Y3692370D1*
X1786746Y3692873D1*
X1789315Y3693041D1*
D1*
X1791885Y3692873D1*
X1794410Y3692370D1*
X1796849Y3691543D1*
X1799158Y3690404D1*
X1801299Y3688973D1*
X1803235Y3687276D1*
X1804933Y3685340D1*
X1806363Y3683199D1*
X1807502Y3680889D1*
X1808330Y3678451D1*
X1808832Y3675926D1*
X1809001Y3673356D1*
X1808832Y3670787D1*
X1808330Y3668261D1*
X1807502Y3665823D1*
X1806363Y3663514D1*
X1804933Y3661373D1*
X1803235Y3659437D1*
X1801299Y3657739D1*
X1799158Y3656308D1*
X1796849Y3655170D1*
X1794410Y3654342D1*
X1791885Y3653840D1*
X1789315Y3653671D1*
D1*
G37*
X3041761Y3269101D2*
D26*
X3041767Y2973825D1*
X2864595Y3269097D2*
X2864602Y2973821D1*
X3041761Y3269101D2*
X2864595Y3269097D1*
X3041767Y2973825D2*
X2864602Y2973821D1*
X2357300Y2841943D2*
X2402182D1*
X2357300Y2815959D2*
X2402182D1*
X2357300Y2841943D2*
Y2815959D1*
X2402182Y2841943D2*
Y2815959D1*
X2395872Y2637741D2*
X2421069D1*
X2395872Y2625142D2*
X2421069D1*
X2395872Y2637741D2*
Y2625142D1*
X2421069Y2637741D2*
Y2625142D1*
X2387399Y2712044D2*
X2432281D1*
X2387399Y2686060D2*
X2432281D1*
X2387399Y2712044D2*
Y2686060D1*
X2432281Y2712044D2*
Y2686060D1*
X2828052Y3705565D2*
X3068209D1*
Y3426037D1*
X2828052D1*
Y3705565D1*
X463149Y3495767D2*
Y3432775D1*
X589133D1*
Y3495767D1*
X463149D1*
X820368Y3144117D2*
Y3081125D1*
X946352D1*
Y3144117D1*
X820368D1*
X895353Y2784821D2*
X895349Y2918679D1*
X965431Y2784823D2*
X965428Y2918681D1*
X895353Y2784821D2*
X965431Y2784823D1*
X895349Y2918679D2*
X965428Y2918681D1*
X2079274Y3324644D2*
X2016282Y3324643D1*
X2016286Y3198659D1*
X2079278Y3198660D1*
X2079274Y3324644D1*
X3358745Y2871259D2*
X3421737D1*
Y2997243D1*
X3358745D1*
Y2871259D1*
X3425068Y2775181D2*
X3425070Y2641323D1*
X3354989Y2775180D2*
X3354991Y2641321D1*
X3425068Y2775181D2*
X3354989Y2775180D1*
X3425070Y2641323D2*
X3354991Y2641321D1*
X689610Y3362329D2*
D13*
X689635Y3142644D1*
X421918Y3142614D1*
X421898Y3322929D1*
X461264Y3362303D1*
X689610Y3362329D1*
G36*
X455514Y3318154D2*
X424004Y3318151D1*
X424007Y3286765D1*
X455518Y3286769D1*
X455514Y3318154D1*
G37*
G36*
X455525Y3218238D2*
X424015Y3218235D1*
X424018Y3186740D1*
X455529Y3186744D1*
X455525Y3218238D1*
G37*
X689537Y3116053D2*
D13*
Y2896368D1*
X421821D1*
Y3076683D1*
X461191Y3116053D1*
X689537D1*
G36*
X455436Y3071905D2*
X423926D1*
Y3040519D1*
X455436D1*
Y3071905D1*
G37*
G36*
Y2971989D2*
X423926D1*
Y2940494D1*
X455436D1*
Y2971989D1*
G37*
X689547Y2869308D2*
D13*
X689572Y2649623D1*
X421855Y2649593D1*
X421835Y2829908D1*
X461201Y2869282D1*
X689547Y2869308D1*
G36*
X455451Y2825133D2*
X423941Y2825130D1*
X423944Y2793744D1*
X455455Y2793748D1*
X455451Y2825133D1*
G37*
G36*
X455462Y2725217D2*
X423952Y2725214D1*
X423955Y2693719D1*
X455466Y2693723D1*
X455462Y2725217D1*
G37*
X3598784Y3157039D2*
D13*
Y3376724D1*
X3866501D1*
Y3196409D1*
X3827130Y3157039D1*
X3598784D1*
G36*
X3832885Y3201187D2*
X3864396D1*
Y3232573D1*
X3832885D1*
Y3201187D1*
G37*
G36*
Y3301103D2*
X3864396D1*
Y3332598D1*
X3832885D1*
Y3301103D1*
G37*
X3598995Y2910277D2*
D13*
Y3129962D1*
X3866712D1*
Y2949648D1*
X3827342Y2910277D1*
X3598995D1*
G36*
X3833096Y2954426D2*
X3864607D1*
Y2985812D1*
X3833096D1*
Y2954426D1*
G37*
G36*
Y3054342D2*
X3864607D1*
Y3085836D1*
X3833096D1*
Y3054342D1*
G37*
X3598594Y2663508D2*
D13*
Y2883193D1*
X3866310D1*
Y2702878D1*
X3826940Y2663508D1*
X3598594D1*
G36*
X3832695Y2707657D2*
X3864205D1*
Y2739043D1*
X3832695D1*
Y2707657D1*
G37*
G36*
Y2807573D2*
X3864205D1*
Y2839067D1*
X3832695D1*
Y2807573D1*
G37*
X689226Y2622462D2*
D13*
Y2402777D1*
X421510D1*
Y2583092D1*
X460880Y2622462D1*
X689226D1*
G36*
X455125Y2578314D2*
X423615D1*
Y2546928D1*
X455125D1*
Y2578314D1*
G37*
G36*
Y2478398D2*
X423615D1*
Y2446903D1*
X455125D1*
Y2478398D1*
G37*
X690018Y2376333D2*
D13*
Y2156648D1*
X422301D1*
Y2336962D1*
X461671Y2376333D1*
X690018D1*
G36*
X455917Y2332184D2*
X424406D1*
Y2300798D1*
X455917D1*
Y2332184D1*
G37*
G36*
Y2232268D2*
X424406D1*
Y2200773D1*
X455917D1*
Y2232268D1*
G37*
X689826Y2128932D2*
D13*
Y1909247D1*
X422109D1*
Y2089562D1*
X461480Y2128932D1*
X689826D1*
G36*
X455725Y2084784D2*
X424214D1*
Y2053398D1*
X455725D1*
Y2084784D1*
G37*
G36*
Y1984868D2*
X424214D1*
Y1953373D1*
X455725D1*
Y1984868D1*
G37*
X1627385Y4070127D2*
D38*
X1273055D1*
Y3507135D1*
X1627385D2*
X1273055D1*
X1627385Y4070127D2*
Y3507135D1*
G36*
X1458094Y3448080D2*
X1458027Y3447052D1*
X1457826Y3446042D1*
X1457495Y3445067D1*
X1457039Y3444143D1*
X1456467Y3443286D1*
X1455788Y3442512D1*
X1455013Y3441833D1*
X1454157Y3441261D1*
X1453233Y3440805D1*
X1452258Y3440474D1*
X1451248Y3440273D1*
X1450220Y3440206D1*
X1449192Y3440273D1*
X1448182Y3440474D1*
X1447207Y3440805D1*
X1446283Y3441261D1*
X1445427Y3441833D1*
X1444652Y3442512D1*
X1443973Y3443286D1*
X1443401Y3444143D1*
X1442945Y3445067D1*
X1442614Y3446042D1*
X1442413Y3447052D1*
X1442346Y3448080D1*
D1*
X1442413Y3449108D1*
X1442614Y3450118D1*
X1442945Y3451093D1*
X1443401Y3452017D1*
X1443973Y3452873D1*
X1444652Y3453648D1*
X1445427Y3454327D1*
X1446283Y3454899D1*
X1447207Y3455354D1*
X1448182Y3455686D1*
X1449192Y3455886D1*
X1450220Y3455954D1*
X1451248Y3455886D1*
X1452258Y3455686D1*
X1453233Y3455354D1*
X1454157Y3454899D1*
X1455013Y3454327D1*
X1455788Y3453648D1*
X1456467Y3452873D1*
X1457039Y3452017D1*
X1457495Y3451093D1*
X1457826Y3450118D1*
X1458027Y3449108D1*
X1458094Y3448080D1*
D1*
G37*
X1178150Y1386926D2*
D26*
Y1584957D1*
X3178150D1*
Y1386926D1*
X1178150D1*
X398964Y1399140D2*
D13*
X700539D1*
X739909Y1359770D1*
Y965281D1*
X398964D1*
Y1399140D1*
X2978132Y1285881D2*
D26*
Y1385881D1*
X3178132D1*
Y1285881D1*
X2978132D1*
X3596214Y1573199D2*
D13*
Y2592884D1*
X3863932D1*
Y1612569D1*
X3824562Y1573199D1*
X3596214D1*
G36*
X3830314Y2517266D2*
X3861825D1*
Y2548725D1*
X3830314D1*
Y2517266D1*
G37*
G36*
Y2417287D2*
X3861825D1*
Y2448848D1*
X3830314D1*
Y2417287D1*
G37*
G36*
Y2317309D2*
X3861825D1*
Y2348768D1*
X3830314D1*
Y2317309D1*
G37*
G36*
Y2217330D2*
X3861825D1*
Y2248688D1*
X3830314D1*
Y2217330D1*
G37*
G36*
Y2117351D2*
X3861825D1*
Y2148812D1*
X3830314D1*
Y2117351D1*
G37*
G36*
Y2017271D2*
X3861825D1*
Y2048731D1*
X3830314D1*
Y2017271D1*
G37*
G36*
Y1917394D2*
X3861825D1*
Y1948855D1*
X3830314D1*
Y1917394D1*
G37*
G36*
X3830708Y1817708D2*
X3862218D1*
Y1849167D1*
X3830708D1*
Y1817708D1*
G37*
G36*
X3830314Y1717234D2*
X3861825D1*
Y1748796D1*
X3830314D1*
Y1717234D1*
G37*
G36*
Y1617357D2*
X3861825D1*
Y1648716D1*
X3830314D1*
Y1617357D1*
G37*
X3595764Y496829D2*
D13*
Y1516514D1*
X3863482D1*
Y536199D1*
X3824112Y496829D1*
X3595764D1*
G36*
X3829864Y1440896D2*
X3861375D1*
Y1472355D1*
X3829864D1*
Y1440896D1*
G37*
G36*
Y1340917D2*
X3861375D1*
Y1372478D1*
X3829864D1*
Y1340917D1*
G37*
G36*
Y1240939D2*
X3861375D1*
Y1272398D1*
X3829864D1*
Y1240939D1*
G37*
G36*
Y1140960D2*
X3861375D1*
Y1172318D1*
X3829864D1*
Y1140960D1*
G37*
G36*
Y1040981D2*
X3861375D1*
Y1072441D1*
X3829864D1*
Y1040981D1*
G37*
G36*
Y940901D2*
X3861375D1*
Y972361D1*
X3829864D1*
Y940901D1*
G37*
G36*
Y841024D2*
X3861375D1*
Y872485D1*
X3829864D1*
Y841024D1*
G37*
G36*
X3830258Y741338D2*
X3861768D1*
Y772797D1*
X3830258D1*
Y741338D1*
G37*
G36*
X3829864Y640864D2*
X3861375D1*
Y672426D1*
X3829864D1*
Y640864D1*
G37*
G36*
Y540987D2*
X3861375D1*
Y572346D1*
X3829864D1*
Y540987D1*
G37*
X2031561Y2851920D2*
D26*
Y2951920D1*
X2231561D1*
Y2851920D1*
X2031561D1*
X3241829Y3911997D2*
X3552852D1*
X3639466Y3825382D2*
Y3514359D1*
X3552852Y3427745D2*
X3241829D1*
X3155214Y3514359D2*
Y3825382D1*
G02X3241829Y3911997I86610J4D01*
G01*
X3552852D2*
G02X3639466Y3825382I4J-86610D01*
G01*
Y3514359D2*
G02X3552852Y3427745I-86610J-4D01*
G01*
X3241829D2*
G02X3155214Y3514359I-4J86610D01*
G01*
X1337699Y3064712D2*
Y3332428D1*
X1582581D1*
Y3064712D1*
X1337699D2*
X1582581D1*
X1337468Y2694692D2*
Y2962409D1*
X1582350D1*
Y2694692D1*
X1337468D2*
X1582350D1*
X1338218Y2318882D2*
Y2586599D1*
X1583100D1*
Y2318882D1*
X1338218D2*
X1583100D1*
X1952503Y3217112D2*
X1952516Y3091128D1*
X1767464Y3217093D2*
X1767477Y3091109D1*
X1952503Y3217112D2*
X1767464Y3217093D1*
X1952516Y3091128D2*
X1767477Y3091109D1*
X1919502Y2702557D2*
X1793518D1*
X1919502Y2769486D2*
X1793518D1*
X1919502Y2702557D2*
Y2769486D1*
X1793518Y2702557D2*
Y2769486D1*
X1894235Y2319443D2*
X1827306D1*
X1894235Y2357238D2*
X1827306D1*
X1894235Y2319443D2*
Y2357238D1*
X1827306Y2319443D2*
Y2357238D1*
X1099754Y3232268D2*
X1099761Y3165338D1*
X1061959Y3232264D2*
X1061966Y3165335D1*
X1099754Y3232268D2*
X1061959Y3232264D1*
X1099761Y3165338D2*
X1061966Y3165335D1*
X1099598Y2862207D2*
Y2795277D1*
X1061802Y2862207D2*
Y2795277D1*
X1099598Y2862207D2*
X1061802D1*
X1099598Y2795277D2*
X1061802D1*
X1099587Y2486027D2*
Y2419098D1*
X1061792Y2486027D2*
Y2419098D1*
X1099587Y2486027D2*
X1061792D1*
X1099587Y2419098D2*
X1061792D1*
X675600Y3462161D2*
X1175600D1*
Y3987161D1*
X1047057D1*
X804144D1*
X675600D1*
Y3462161D1*
X804144Y3987161D2*
Y4737554D1*
X1047057D1*
Y3987161D1*
G36*
X646073Y3479287D2*
X645045Y3479354D1*
X644035Y3479555D1*
X643059Y3479886D1*
X642136Y3480342D1*
X641279Y3480914D1*
X640505Y3481593D1*
X639826Y3482367D1*
X639254Y3483224D1*
X638798Y3484147D1*
X638467Y3485123D1*
X638266Y3486133D1*
X638199Y3487161D1*
X638266Y3488188D1*
X638467Y3489199D1*
X638798Y3490174D1*
X639254Y3491098D1*
X639826Y3491954D1*
X640505Y3492728D1*
X641279Y3493408D1*
X642136Y3493980D1*
X643059Y3494435D1*
X644035Y3494766D1*
X645045Y3494967D1*
X646073Y3495035D1*
D1*
X647100Y3494967D1*
X648111Y3494766D1*
X649086Y3494435D1*
X650010Y3493980D1*
X650866Y3493408D1*
X651640Y3492728D1*
X652320Y3491954D1*
X652892Y3491098D1*
X653347Y3490174D1*
X653678Y3489199D1*
X653879Y3488188D1*
X653947Y3487161D1*
X653879Y3486133D1*
X653678Y3485123D1*
X653347Y3484147D1*
X652892Y3483224D1*
X652320Y3482367D1*
X651640Y3481593D1*
X650866Y3480914D1*
X650010Y3480342D1*
X649086Y3479886D1*
X648111Y3479555D1*
X647100Y3479354D1*
X646073Y3479287D1*
D1*
G37*
G36*
X3226279Y2479641D2*
X3226346Y2480669D1*
X3226547Y2481679D1*
X3226878Y2482654D1*
X3227334Y2483578D1*
X3227906Y2484434D1*
X3228585Y2485209D1*
X3229359Y2485888D1*
X3230216Y2486460D1*
X3231140Y2486916D1*
X3232115Y2487247D1*
X3233125Y2487448D1*
X3234153Y2487515D1*
X3235181Y2487448D1*
X3236191Y2487247D1*
X3237166Y2486916D1*
X3238090Y2486460D1*
X3238946Y2485888D1*
X3239721Y2485209D1*
X3240400Y2484434D1*
X3240972Y2483578D1*
X3241427Y2482654D1*
X3241758Y2481679D1*
X3241959Y2480669D1*
X3242027Y2479641D1*
D1*
X3241959Y2478613D1*
X3241758Y2477603D1*
X3241427Y2476628D1*
X3240972Y2475704D1*
X3240400Y2474848D1*
X3239721Y2474073D1*
X3238946Y2473394D1*
X3238090Y2472822D1*
X3237166Y2472366D1*
X3236191Y2472035D1*
X3235181Y2471834D1*
X3234153Y2471767D1*
X3233125Y2471834D1*
X3232115Y2472035D1*
X3231140Y2472366D1*
X3230216Y2472822D1*
X3229359Y2473394D1*
X3228585Y2474073D1*
X3227906Y2474848D1*
X3227334Y2475704D1*
X3226878Y2476628D1*
X3226547Y2477603D1*
X3226346Y2478613D1*
X3226279Y2479641D1*
D1*
G37*
X3181003Y2461924D2*
D26*
X3003838D1*
X3181003D2*
Y2284759D1*
X3003838D2*
X3181003D1*
X3003838D2*
Y2461924D1*
X1698599Y3490901D2*
D13*
G02X1698599Y3490901I26772J0D01*
G01*
X3166868Y3288050D2*
G02X3166868Y3288050I26772J0D01*
G01*
X3166478Y2746561D2*
G02X3166478Y2746561I26772J0D01*
G01*
X1907418Y3487121D2*
G02X1907418Y3487121I26772J0D01*
G01*
X2267199Y3611069D2*
X2677435Y3611129D1*
X2677485Y3261129D1*
X2306619Y3261075D1*
X2267244Y3300439D1*
X2267199Y3611069D1*
X2605172Y2867474D2*
D26*
Y2611569D1*
X2742968D1*
Y2867474D1*
X2605172D1*
G36*
X2536275Y2865506D2*
X2535247Y2865573D1*
X2534237Y2865774D1*
X2533262Y2866105D1*
X2532338Y2866561D1*
X2531481Y2867133D1*
X2530707Y2867812D1*
X2530028Y2868586D1*
X2529456Y2869443D1*
X2529000Y2870367D1*
X2528669Y2871342D1*
X2528468Y2872352D1*
X2528401Y2873380D1*
X2528468Y2874408D1*
X2528669Y2875418D1*
X2529000Y2876393D1*
X2529456Y2877317D1*
X2530028Y2878173D1*
X2530707Y2878948D1*
X2531481Y2879627D1*
X2532338Y2880199D1*
X2533262Y2880654D1*
X2534237Y2880986D1*
X2535247Y2881186D1*
X2536275Y2881254D1*
D1*
X2537303Y2881186D1*
X2538313Y2880986D1*
X2539288Y2880654D1*
X2540212Y2880199D1*
X2541068Y2879627D1*
X2541843Y2878948D1*
X2542522Y2878173D1*
X2543094Y2877317D1*
X2543549Y2876393D1*
X2543881Y2875418D1*
X2544081Y2874408D1*
X2544149Y2873380D1*
X2544081Y2872352D1*
X2543881Y2871342D1*
X2543549Y2870367D1*
X2543094Y2869443D1*
X2542522Y2868586D1*
X2541843Y2867812D1*
X2541068Y2867133D1*
X2540212Y2866561D1*
X2539288Y2866105D1*
X2538313Y2865774D1*
X2537303Y2865573D1*
X2536275Y2865506D1*
D1*
G37*
X1156499Y1948147D2*
D166*
X1160346Y1950092D1*
X1166094Y1955796D1*
Y1915648D1*
X3206944Y2011711D2*
Y2051859D1*
X3187798Y2025108D1*
X3216494D1*
X3240342Y2051859D2*
X3234594Y2049958D1*
X3230747Y2044210D1*
X3228846Y2034659D1*
Y2028911D1*
X3230747Y2019360D1*
X3234594Y2013612D1*
X3240342Y2011711D1*
X3244144D1*
X3249892Y2013612D1*
X3253695Y2019360D1*
X3255640Y2028911D1*
Y2034659D1*
X3253695Y2044210D1*
X3249892Y2049958D1*
X3244144Y2051859D1*
X3240342D1*
X3253695Y2044210D2*
X3230747Y2019360D1*
M02*
